#N canvas 1104 80 386 322 10;
#N canvas 688 316 633 441 SpaceCraft 0;
#X obj 10 40 gemhead;
#X obj 10 300 translateXYZ;
#X obj 10 120 pix_image;
#X obj 70 20 loadbang;
#X obj 10 190 pix_texture;
#X floatatom 30 150 5 0 0 0 - - -, f 5;
#X msg 80 140 env \$1;
#X obj 80 120 hradio 15 1 0 6 empty empty empty 0 -6 0 8 #fcfcfc #000000
#000000 2;
#X msg 80 90 2;
#X obj 10 355 square 0.4;
#X obj 190 10 key 1;
#X obj 200 140 f;
#X floatatom 110 300 5 0 0 0 - - -, f 5;
#X msg 132 246 \$1 100;
#X obj 132 275 line;
#X obj 132 154 pack f f;
#X obj 132 183 route 1 2;
#X msg 192 76 1;
#X msg 242 76 2;
#X obj 192 105 t f b;
#X obj 190 40 select 100 97;
#X obj 50 220 loadbang;
#X floatatom 50 270 5 0 0 0 - - -, f 5;
#X msg 40 70 open Art/SpaceCraft1.png;
#X msg 50 245 -3.2;
#X obj 132 212 + 0.4;
#X obj 172 212 - 0.4;
#X msg 10 20 set 55;
#X obj 110 340 send attack_pos;
#X obj 10 330 colorRGB 0 1 1;
#X obj 190 260 receive attack;
#X connect 0 0 2 0;
#X connect 1 0 29 0;
#X connect 2 0 4 0;
#X connect 3 0 23 0;
#X connect 3 0 8 0;
#X connect 3 0 27 0;
#X connect 4 0 1 0;
#X connect 5 0 4 0;
#X connect 6 0 4 0;
#X connect 7 0 6 0;
#X connect 7 0 4 0;
#X connect 8 0 7 0;
#X connect 10 0 20 0;
#X connect 11 0 15 1;
#X connect 12 0 11 1;
#X connect 12 0 1 1;
#X connect 12 0 28 0;
#X connect 13 0 14 0;
#X connect 14 0 12 0;
#X connect 15 0 16 0;
#X connect 16 0 25 0;
#X connect 16 1 26 0;
#X connect 17 0 19 0;
#X connect 18 0 19 0;
#X connect 19 0 15 0;
#X connect 19 1 11 0;
#X connect 20 0 17 0;
#X connect 20 1 18 0;
#X connect 21 0 24 0;
#X connect 22 0 1 2;
#X connect 23 0 2 0;
#X connect 24 0 22 0;
#X connect 25 0 13 0;
#X connect 26 0 13 0;
#X connect 27 0 0 0;
#X connect 29 0 9 0;
#X connect 30 0 12 0;
#X restore 10 110 pd SpaceCraft;
#X obj 10 70 gemwin;
#X msg 20 30 destroy;
#N canvas 692 308 458 358 Attack_Beam 0;
#X obj 30 150 receive attack_pos;
#X obj 10 130 gemhead;
#X obj 10 190 translateXYZ 0 1 0;
#X obj 10 250 rectangle 0.02 4;
#X obj 10 40 receive attack;
#X obj 10 100 tgl 15 0 empty empty empty 17 7 0 10 #fcfcfc #000000
#000000 0 1;
#X obj 30 70 delay 200;
#X obj 160 60 key;
#X obj 160 85 select 32;
#X obj 160 190 send attack;
#X obj 160 160 spigot;
#X obj 180 130 tgl 15 0 empty empty empty 17 7 0 10 #fcfcfc #000000
#000000 1 1;
#X obj 230 90 loadbang;
#X obj 230 110 receive attack;
#X obj 230 140 delay 1200;
#X obj 10 220 colorRGB 0 1 1;
#X connect 0 0 2 1;
#X connect 1 0 2 0;
#X connect 2 0 15 0;
#X connect 4 0 5 0;
#X connect 4 0 6 0;
#X connect 5 0 1 0;
#X connect 6 0 5 0;
#X connect 7 0 8 0;
#X connect 8 0 10 0;
#X connect 10 0 9 0;
#X connect 11 0 10 1;
#X connect 12 0 11 0;
#X connect 13 0 11 0;
#X connect 13 0 14 0;
#X connect 14 0 11 0;
#X connect 15 0 3 0;
#X restore 10 130 pd Attack_Beam;
#X msg 10 10 create \, 1;
#N canvas 688 204 693 490 Enemy_shape 0;
#X obj 40 220 pix_image;
#X obj 70 140 loadbang;
#X obj 40 290 pix_texture;
#X msg 110 240 env \$1;
#X obj 110 220 hradio 15 1 0 6 empty empty empty 0 -6 0 8 #fcfcfc #000000
#000000 2;
#X obj 40 320 colorRGB 1 0 0;
#X obj 40 350 translateXYZ -2 1 0;
#X obj 220 230 pix_image;
#X obj 250 150 loadbang;
#X obj 220 300 pix_texture;
#X msg 290 250 env \$1;
#X obj 290 230 hradio 15 1 0 6 empty empty empty 0 -6 0 8 #fcfcfc #000000
#000000 2;
#X msg 110 200 2;
#X obj 40 110 gemhead;
#X obj 240 110 gemhead;
#X obj 390 230 pix_image;
#X obj 420 150 loadbang;
#X obj 390 300 pix_texture;
#X msg 460 250 env \$1;
#X obj 460 230 hradio 15 1 0 6 empty empty empty 0 -6 0 8 #fcfcfc #000000
#000000 2;
#X obj 410 110 gemhead;
#X msg 290 200 2;
#X msg 460 200 2;
#X obj 40 70 tgl 15 0 empty empty empty 17 7 0 10 #fcfcfc #000000 #000000
0 1;
#X obj 240 70 tgl 15 0 empty empty empty 17 7 0 10 #fcfcfc #000000
#000000 0 1;
#X obj 410 70 tgl 15 0 empty empty empty 17 7 0 10 #fcfcfc #000000
#000000 0 1;
#X msg 70 170 open Art/Enemy1.png;
#X obj 40 380 square 0.3;
#X msg 250 180 open Art/Enemy2.png;
#X obj 220 390 square 0.3;
#X obj 390 390 square 0.3;
#X obj 220 325 colorRGB 0 0 1;
#X msg 420 180 open Art/Enemy3.png;
#X obj 390 325 colorRGB 1 1 0;
#X obj 220 360 translateXYZ 0 1 0;
#X obj 390 360 translateXYZ 2 1 0;
#X obj 40 10 loadbang;
#X obj 60 40 delay 100;
#X obj 230 10 loadbang;
#X obj 250 40 delay 100;
#X obj 410 10 loadbang;
#X obj 430 40 delay 100;
#X connect 0 0 2 0;
#X connect 1 0 26 0;
#X connect 1 0 12 0;
#X connect 2 0 5 0;
#X connect 3 0 2 0;
#X connect 4 0 3 0;
#X connect 4 0 2 0;
#X connect 5 0 6 0;
#X connect 6 0 27 0;
#X connect 7 0 9 0;
#X connect 8 0 28 0;
#X connect 8 0 21 0;
#X connect 9 0 31 0;
#X connect 10 0 9 0;
#X connect 11 0 10 0;
#X connect 11 0 9 0;
#X connect 12 0 4 0;
#X connect 13 0 0 0;
#X connect 14 0 7 0;
#X connect 15 0 17 0;
#X connect 16 0 32 0;
#X connect 16 0 22 0;
#X connect 17 0 33 0;
#X connect 18 0 17 0;
#X connect 19 0 18 0;
#X connect 19 0 17 0;
#X connect 20 0 15 0;
#X connect 21 0 11 0;
#X connect 22 0 19 0;
#X connect 23 0 13 0;
#X connect 24 0 14 0;
#X connect 25 0 20 0;
#X connect 26 0 0 0;
#X connect 28 0 7 0;
#X connect 31 0 34 0;
#X connect 32 0 15 0;
#X connect 33 0 35 0;
#X connect 34 0 29 0;
#X connect 35 0 30 0;
#X connect 36 0 23 0;
#X connect 36 0 37 0;
#X connect 37 0 23 0;
#X connect 38 0 39 0;
#X connect 38 0 24 0;
#X connect 39 0 24 0;
#X connect 40 0 41 0;
#X connect 40 0 25 0;
#X connect 41 0 25 0;
#X restore 140 110 pd Enemy_shape;
#X obj 100 10 bng 15 250 50 0 empty empty empty 17 7 0 10 #fcfcfc #000000
#000000;
#X obj 100 33 send start;
#X obj 170 10 bng 15 250 50 0 empty empty empty 17 7 0 10 #fcfcfc #000000
#000000;
#X obj 170 33 send reset;
#N canvas 540 80 982 358 Enemies_layer1 0;
#X floatatom 100 70 5 0 0 1 - - -, f 5;
#X obj 100 30 loadbang;
#N canvas 688 84 598 670 Enemy1 0;
#X obj 360 350 receive hit1;
#X obj 10 540 receive reset;
#X obj 200 600 outlet;
#X obj 200 580 pack 0 0;
#X obj 220 550 t b f;
#X msg 360 400 -10;
#X msg 390 400 -10;
#X obj 160 210 metro;
#X obj 160 235 bng 15 250 50 0 empty empty empty 17 7 0 10 #fcfcfc
#000000 #000000;
#X obj 230 190 int 1;
#X floatatom 230 222 5 0 0 0 - - -, f 5;
#X obj 300 232 + 1;
#X obj 100 200 sel 0;
#X obj 100 225 bng 15 250 50 0 empty empty empty 17 7 0 10 #fcfcfc
#000000 #000000;
#X msg 100 248 -1;
#X obj 40 200 loadbang;
#X obj 190 110 loadbang;
#X obj 230 271 + 1;
#X floatatom 230 300 5 0 0 0 - - -, f 5;
#X floatatom 190 160 5 0 0 0 - - -, f 5;
#X obj 40 570 receive start;
#X obj 40 600 bng 15 250 50 0 empty empty empty 17 7 0 10 #fcfcfc #000000
#000000;
#X obj 60 150 tgl 15 0 empty empty empty 17 7 0 10 #fcfcfc #000000
#000000 0 1;
#X obj 90 150 bng 15 250 50 0 empty empty empty 17 7 0 10 #fcfcfc #000000
#000000;
#X obj 120 150 tgl 15 0 empty empty empty 17 7 0 10 #fcfcfc #000000
#000000 1 1;
#X obj 10 120 spigot;
#X obj 110 120 spigot;
#X obj 10 90 receive reset;
#X obj 130 90 receive start;
#X obj 250 350 sel 4 8;
#X obj 230 242 % 8;
#X msg 250 450 \$1;
#X floatatom 220 500 5 0 0 0 - - -, f 5;
#X obj 250 390 f 4;
#X obj 150 350 sel 5 6 7;
#X obj 70 350 sel 1 2 3;
#X obj 250 425 - 0.5;
#X msg 80 380 1;
#X msg 150 380 2;
#X obj 100 439 pack f f;
#X obj 100 468 route 1 2;
#X obj 90 410 t f b;
#X obj 100 500 + 0.5;
#X obj 140 500 - 0.5;
#X floatatom 120 540 5 0 0 0 - - -, f 5;
#X obj 170 430 f -3;
#X msg 40 623 -3;
#X msg 190 135 750;
#X obj 20 60 receive hit1;
#X obj 30 510 loadbang;
#X msg 100 620 3;
#X connect 0 0 5 0;
#X connect 0 0 6 0;
#X connect 1 0 21 0;
#X connect 3 0 2 0;
#X connect 4 0 3 0;
#X connect 4 1 3 1;
#X connect 5 0 3 0;
#X connect 6 0 4 0;
#X connect 7 0 8 0;
#X connect 8 0 9 0;
#X connect 9 0 10 0;
#X connect 9 0 11 0;
#X connect 10 0 30 0;
#X connect 11 0 9 1;
#X connect 12 0 13 0;
#X connect 13 0 14 0;
#X connect 14 0 9 0;
#X connect 15 0 13 0;
#X connect 16 0 47 0;
#X connect 16 0 24 0;
#X connect 17 0 18 0;
#X connect 18 0 29 0;
#X connect 18 0 34 0;
#X connect 18 0 35 0;
#X connect 19 0 7 1;
#X connect 20 0 21 0;
#X connect 21 0 46 0;
#X connect 21 0 50 0;
#X connect 22 0 23 0;
#X connect 22 0 25 1;
#X connect 22 0 12 0;
#X connect 22 0 7 0;
#X connect 23 0 24 0;
#X connect 24 0 26 1;
#X connect 25 0 22 0;
#X connect 26 0 22 0;
#X connect 27 0 25 0;
#X connect 28 0 26 0;
#X connect 29 0 33 0;
#X connect 29 1 33 0;
#X connect 30 0 17 0;
#X connect 31 0 32 0;
#X connect 32 0 4 0;
#X connect 32 0 33 1;
#X connect 33 0 36 0;
#X connect 34 0 38 0;
#X connect 34 1 38 0;
#X connect 34 2 38 0;
#X connect 35 0 37 0;
#X connect 35 1 37 0;
#X connect 35 2 37 0;
#X connect 36 0 31 0;
#X connect 37 0 41 0;
#X connect 38 0 41 0;
#X connect 39 0 40 0;
#X connect 40 0 42 0;
#X connect 40 1 43 0;
#X connect 41 0 39 0;
#X connect 41 1 45 0;
#X connect 42 0 44 0;
#X connect 43 0 44 0;
#X connect 44 0 45 1;
#X connect 44 0 3 0;
#X connect 45 0 39 1;
#X connect 46 0 3 0;
#X connect 46 0 44 0;
#X connect 47 0 19 0;
#X connect 48 0 25 0;
#X connect 49 0 21 0;
#X connect 50 0 4 0;
#X connect 50 0 32 0;
#X restore 30 70 pd Enemy1;
#N canvas 868 136 502 414 attack 0;
#X obj 130 180 outlet;
#X obj 30 30 receive attack_pos;
#X obj 171 31 receive attack;
#X obj 171 91 tgl 15 0 empty empty empty 17 7 0 10 #fcfcfc #000000
#000000 0 1;
#X obj 191 61 delay 200;
#X obj 130 130 spigot;
#X floatatom 90 160 5 0 0 0 - - -, f 5;
#X connect 1 0 5 0;
#X connect 2 0 3 0;
#X connect 2 0 4 0;
#X connect 3 0 5 1;
#X connect 4 0 3 0;
#X connect 5 0 0 0;
#X connect 5 0 6 0;
#X restore 10 20 pd attack;
#N canvas 668 156 730 590 attack_collision 0;
#X obj 340 50 inlet radius;
#X obj 240 50 inlet reference;
#X obj 290 100 gemhead;
#X obj 390 80 unpack 0 0;
#X obj 20 310 select 0 1;
#X obj 30 0 inlet test;
#N canvas 876 256 554 529 collide 0;
#X obj 91 217 list-map2;
#X obj 171 218 -;
#X obj 171 265 *;
#X obj 171 241 t a a;
#X obj 84 340 sqrt;
#X obj 84 290 list-reduce;
#X obj 170 290 +;
#X obj 124 360 t b a;
#X obj 150 130 inlet reference;
#X obj 80 130 inlet test;
#X obj 294 247 inlet radius;
#X obj 94 410 outlet;
#X obj 94 380 <= 1;
#X floatatom 40 320 5 0 0 0 - - -, f 5;
#X connect 0 0 5 0;
#X connect 0 1 1 0;
#X connect 1 0 3 0;
#X connect 2 0 0 2;
#X connect 3 0 2 0;
#X connect 3 1 2 1;
#X connect 4 0 12 0;
#X connect 5 0 4 0;
#X connect 5 0 13 0;
#X connect 5 1 6 0;
#X connect 6 0 5 1;
#X connect 7 0 12 0;
#X connect 7 1 12 1;
#X connect 8 0 0 1;
#X connect 9 0 0 0;
#X connect 10 0 7 0;
#X connect 12 0 11 0;
#X restore 30 110 pd collide;
#X obj 50 140 tgl 24 0 empty empty hit? 28 7 1 10 #fcfcfc #000000 #000000
0 1;
#X obj 130 110 loadbang;
#X obj 73 232 tgl 15 0 empty empty empty 17 7 0 10 #fcfcfc #000000
#000000 0 1;
#X obj 103 232 bng 15 250 50 0 empty empty empty 17 7 0 10 #fcfcfc
#000000 #000000;
#X obj 133 232 tgl 15 0 empty empty empty 17 7 0 10 #fcfcfc #000000
#000000 1 1;
#X obj 23 202 spigot;
#X obj 123 202 spigot;
#X obj 23 172 receive reset;
#X obj 193 222 loadbang;
#X obj 143 172 receive start;
#X obj 43 272 spigot;
#X obj 130 140 delay 100;
#X obj 290 210 pix_image;
#X obj 320 130 loadbang;
#X obj 290 280 pix_texture;
#X msg 360 230 env \$1;
#X obj 360 210 hradio 15 1 0 6 empty empty empty 0 -6 0 8 #fcfcfc #000000
#000000 2;
#X obj 290 310 colorRGB 1 0 0;
#X obj 290 340 translateXYZ -2 1 0;
#X msg 360 190 2;
#X msg 320 160 open Art/Enemy1.png;
#X obj 30 70 pack 0 0;
#X obj 20 360 send hit1;
#X obj 50 30 delay 100;
#X msg 50 50 10;
#X obj 290 370 square 0.25;
#X connect 0 0 6 2;
#X connect 1 0 3 0;
#X connect 1 0 6 1;
#X connect 2 0 19 0;
#X connect 3 0 25 1;
#X connect 3 1 25 2;
#X connect 3 1 28 1;
#X connect 4 1 29 0;
#X connect 5 0 28 0;
#X connect 5 0 30 0;
#X connect 6 0 7 0;
#X connect 7 0 17 0;
#X connect 8 0 18 0;
#X connect 9 0 10 0;
#X connect 9 0 12 1;
#X connect 9 0 17 1;
#X connect 10 0 11 0;
#X connect 11 0 13 1;
#X connect 12 0 9 0;
#X connect 13 0 9 0;
#X connect 14 0 12 0;
#X connect 15 0 11 0;
#X connect 16 0 13 0;
#X connect 17 0 4 0;
#X connect 18 0 7 0;
#X connect 19 0 21 0;
#X connect 20 0 27 0;
#X connect 20 0 26 0;
#X connect 21 0 24 0;
#X connect 22 0 21 0;
#X connect 23 0 22 0;
#X connect 23 0 21 0;
#X connect 24 0 25 0;
#X connect 25 0 32 0;
#X connect 26 0 23 0;
#X connect 27 0 19 0;
#X connect 28 0 6 0;
#X connect 30 0 31 0;
#X connect 31 0 28 0;
#X restore 10 100 pd attack_collision;
#X floatatom 260 70 5 0 0 1 - - -, f 5;
#X obj 260 30 loadbang;
#N canvas 868 136 502 414 attack 0;
#X obj 130 180 outlet;
#X obj 30 30 receive attack_pos;
#X obj 171 31 receive attack;
#X obj 171 91 tgl 15 0 empty empty empty 17 7 0 10 #fcfcfc #000000
#000000 0 1;
#X obj 191 61 delay 200;
#X obj 130 130 spigot;
#X floatatom 90 160 5 0 0 0 - - -, f 5;
#X connect 1 0 5 0;
#X connect 2 0 3 0;
#X connect 2 0 4 0;
#X connect 3 0 5 1;
#X connect 4 0 3 0;
#X connect 5 0 0 0;
#X connect 5 0 6 0;
#X restore 170 20 pd attack;
#N canvas 670 265 732 593 attack_collision 0;
#X obj 340 50 inlet radius;
#X obj 240 50 inlet reference;
#X obj 290 100 gemhead;
#X obj 390 80 unpack 0 0;
#X obj 20 310 select 0 1;
#X obj 30 0 inlet test;
#N canvas 876 256 554 529 collide 0;
#X obj 91 217 list-map2;
#X obj 171 218 -;
#X obj 171 265 *;
#X obj 171 241 t a a;
#X obj 84 340 sqrt;
#X obj 84 290 list-reduce;
#X obj 170 290 +;
#X obj 124 360 t b a;
#X obj 150 130 inlet reference;
#X obj 80 130 inlet test;
#X obj 294 247 inlet radius;
#X obj 94 410 outlet;
#X obj 94 380 <= 1;
#X floatatom 40 320 5 0 0 0 - - -, f 5;
#X connect 0 0 5 0;
#X connect 0 1 1 0;
#X connect 1 0 3 0;
#X connect 2 0 0 2;
#X connect 3 0 2 0;
#X connect 3 1 2 1;
#X connect 4 0 12 0;
#X connect 5 0 4 0;
#X connect 5 0 13 0;
#X connect 5 1 6 0;
#X connect 6 0 5 1;
#X connect 7 0 12 0;
#X connect 7 1 12 1;
#X connect 8 0 0 1;
#X connect 9 0 0 0;
#X connect 10 0 7 0;
#X connect 12 0 11 0;
#X restore 30 110 pd collide;
#X obj 50 140 tgl 24 0 empty empty hit? 28 7 1 10 #fcfcfc #000000 #000000
0 1;
#X obj 130 110 loadbang;
#X obj 73 232 tgl 15 0 empty empty empty 17 7 0 10 #fcfcfc #000000
#000000 0 1;
#X obj 103 232 bng 15 250 50 0 empty empty empty 17 7 0 10 #fcfcfc
#000000 #000000;
#X obj 133 232 tgl 15 0 empty empty empty 17 7 0 10 #fcfcfc #000000
#000000 1 1;
#X obj 23 202 spigot;
#X obj 123 202 spigot;
#X obj 23 172 receive reset;
#X obj 193 222 loadbang;
#X obj 143 172 receive start;
#X obj 43 272 spigot;
#X obj 130 140 delay 100;
#X obj 290 210 pix_image;
#X obj 320 130 loadbang;
#X obj 290 280 pix_texture;
#X msg 360 230 env \$1;
#X obj 360 210 hradio 15 1 0 6 empty empty empty 0 -6 0 8 #fcfcfc #000000
#000000 2;
#X obj 290 310 colorRGB 1 0 0;
#X obj 290 340 translateXYZ -2 1 0;
#X msg 360 190 2;
#X msg 320 160 open Art/Enemy1.png;
#X obj 30 70 pack 0 0;
#X obj 50 30 delay 100;
#X msg 50 50 10;
#X obj 20 360 send hit2;
#X obj 290 370 square 0.25;
#X connect 0 0 6 2;
#X connect 1 0 3 0;
#X connect 1 0 6 1;
#X connect 2 0 19 0;
#X connect 3 0 25 1;
#X connect 3 1 25 2;
#X connect 3 1 28 1;
#X connect 4 1 31 0;
#X connect 5 0 28 0;
#X connect 5 0 29 0;
#X connect 6 0 7 0;
#X connect 7 0 17 0;
#X connect 8 0 18 0;
#X connect 9 0 10 0;
#X connect 9 0 12 1;
#X connect 9 0 17 1;
#X connect 10 0 11 0;
#X connect 11 0 13 1;
#X connect 12 0 9 0;
#X connect 13 0 9 0;
#X connect 14 0 12 0;
#X connect 15 0 11 0;
#X connect 16 0 13 0;
#X connect 17 0 4 0;
#X connect 18 0 7 0;
#X connect 19 0 21 0;
#X connect 20 0 27 0;
#X connect 20 0 26 0;
#X connect 21 0 24 0;
#X connect 22 0 21 0;
#X connect 23 0 22 0;
#X connect 23 0 21 0;
#X connect 24 0 25 0;
#X connect 25 0 32 0;
#X connect 26 0 23 0;
#X connect 27 0 19 0;
#X connect 28 0 6 0;
#X connect 29 0 30 0;
#X connect 30 0 28 0;
#X restore 170 100 pd attack_collision;
#X floatatom 410 70 5 0 0 1 - - -, f 5;
#X obj 410 30 loadbang;
#N canvas 868 136 502 414 attack 0;
#X obj 130 180 outlet;
#X obj 30 30 receive attack_pos;
#X obj 171 31 receive attack;
#X obj 171 91 tgl 15 0 empty empty empty 17 7 0 10 #fcfcfc #000000
#000000 0 1;
#X obj 191 61 delay 200;
#X obj 130 130 spigot;
#X floatatom 90 160 5 0 0 0 - - -, f 5;
#X connect 1 0 5 0;
#X connect 2 0 3 0;
#X connect 2 0 4 0;
#X connect 3 0 5 1;
#X connect 4 0 3 0;
#X connect 5 0 0 0;
#X connect 5 0 6 0;
#X restore 320 20 pd attack;
#N canvas 676 260 733 592 attack_collision 0;
#X obj 340 50 inlet radius;
#X obj 240 50 inlet reference;
#X obj 290 100 gemhead;
#X obj 390 80 unpack 0 0;
#X obj 20 310 select 0 1;
#X obj 30 0 inlet test;
#N canvas 876 256 554 529 collide 0;
#X obj 91 217 list-map2;
#X obj 171 218 -;
#X obj 171 265 *;
#X obj 171 241 t a a;
#X obj 84 340 sqrt;
#X obj 84 290 list-reduce;
#X obj 170 290 +;
#X obj 124 360 t b a;
#X obj 150 130 inlet reference;
#X obj 80 130 inlet test;
#X obj 294 247 inlet radius;
#X obj 94 410 outlet;
#X obj 94 380 <= 1;
#X floatatom 40 320 5 0 0 0 - - -, f 5;
#X connect 0 0 5 0;
#X connect 0 1 1 0;
#X connect 1 0 3 0;
#X connect 2 0 0 2;
#X connect 3 0 2 0;
#X connect 3 1 2 1;
#X connect 4 0 12 0;
#X connect 5 0 4 0;
#X connect 5 0 13 0;
#X connect 5 1 6 0;
#X connect 6 0 5 1;
#X connect 7 0 12 0;
#X connect 7 1 12 1;
#X connect 8 0 0 1;
#X connect 9 0 0 0;
#X connect 10 0 7 0;
#X connect 12 0 11 0;
#X restore 30 110 pd collide;
#X obj 50 140 tgl 24 0 empty empty hit? 28 7 1 10 #fcfcfc #000000 #000000
0 1;
#X obj 130 110 loadbang;
#X obj 73 232 tgl 15 0 empty empty empty 17 7 0 10 #fcfcfc #000000
#000000 0 1;
#X obj 103 232 bng 15 250 50 0 empty empty empty 17 7 0 10 #fcfcfc
#000000 #000000;
#X obj 133 232 tgl 15 0 empty empty empty 17 7 0 10 #fcfcfc #000000
#000000 1 1;
#X obj 23 202 spigot;
#X obj 123 202 spigot;
#X obj 23 172 receive reset;
#X obj 193 222 loadbang;
#X obj 143 172 receive start;
#X obj 43 272 spigot;
#X obj 130 140 delay 100;
#X obj 290 210 pix_image;
#X obj 320 130 loadbang;
#X obj 290 280 pix_texture;
#X msg 360 230 env \$1;
#X obj 360 210 hradio 15 1 0 6 empty empty empty 0 -6 0 8 #fcfcfc #000000
#000000 2;
#X obj 290 310 colorRGB 1 0 0;
#X obj 290 340 translateXYZ -2 1 0;
#X msg 360 190 2;
#X msg 320 160 open Art/Enemy1.png;
#X obj 30 70 pack 0 0;
#X obj 50 30 delay 100;
#X msg 50 50 10;
#X obj 20 360 send hit3;
#X obj 290 370 square 0.25;
#X connect 0 0 6 2;
#X connect 1 0 3 0;
#X connect 1 0 6 1;
#X connect 2 0 19 0;
#X connect 3 0 25 1;
#X connect 3 1 25 2;
#X connect 3 1 28 1;
#X connect 4 1 31 0;
#X connect 5 0 28 0;
#X connect 5 0 29 0;
#X connect 6 0 7 0;
#X connect 7 0 17 0;
#X connect 8 0 18 0;
#X connect 9 0 10 0;
#X connect 9 0 12 1;
#X connect 9 0 17 1;
#X connect 10 0 11 0;
#X connect 11 0 13 1;
#X connect 12 0 9 0;
#X connect 13 0 9 0;
#X connect 14 0 12 0;
#X connect 15 0 11 0;
#X connect 16 0 13 0;
#X connect 17 0 4 0;
#X connect 18 0 7 0;
#X connect 19 0 21 0;
#X connect 20 0 27 0;
#X connect 20 0 26 0;
#X connect 21 0 24 0;
#X connect 22 0 21 0;
#X connect 23 0 22 0;
#X connect 23 0 21 0;
#X connect 24 0 25 0;
#X connect 25 0 32 0;
#X connect 26 0 23 0;
#X connect 27 0 19 0;
#X connect 28 0 6 0;
#X connect 29 0 30 0;
#X connect 30 0 28 0;
#X restore 320 100 pd attack_collision;
#X floatatom 560 70 5 0 0 1 - - -, f 5;
#X obj 560 30 loadbang;
#N canvas 868 136 502 414 attack 0;
#X obj 130 180 outlet;
#X obj 30 30 receive attack_pos;
#X obj 171 31 receive attack;
#X obj 171 91 tgl 15 0 empty empty empty 17 7 0 10 #fcfcfc #000000
#000000 0 1;
#X obj 191 61 delay 200;
#X obj 130 130 spigot;
#X floatatom 90 160 5 0 0 0 - - -, f 5;
#X connect 1 0 5 0;
#X connect 2 0 3 0;
#X connect 2 0 4 0;
#X connect 3 0 5 1;
#X connect 4 0 3 0;
#X connect 5 0 0 0;
#X connect 5 0 6 0;
#X restore 470 20 pd attack;
#N canvas 692 288 730 591 attack_collision 0;
#X obj 340 50 inlet radius;
#X obj 240 50 inlet reference;
#X obj 290 100 gemhead;
#X obj 390 80 unpack 0 0;
#X obj 20 310 select 0 1;
#X obj 30 0 inlet test;
#N canvas 876 256 554 529 collide 0;
#X obj 91 217 list-map2;
#X obj 171 218 -;
#X obj 171 265 *;
#X obj 171 241 t a a;
#X obj 84 340 sqrt;
#X obj 84 290 list-reduce;
#X obj 170 290 +;
#X obj 124 360 t b a;
#X obj 150 130 inlet reference;
#X obj 80 130 inlet test;
#X obj 294 247 inlet radius;
#X obj 94 410 outlet;
#X obj 94 380 <= 1;
#X floatatom 40 320 5 0 0 0 - - -, f 5;
#X connect 0 0 5 0;
#X connect 0 1 1 0;
#X connect 1 0 3 0;
#X connect 2 0 0 2;
#X connect 3 0 2 0;
#X connect 3 1 2 1;
#X connect 4 0 12 0;
#X connect 5 0 4 0;
#X connect 5 0 13 0;
#X connect 5 1 6 0;
#X connect 6 0 5 1;
#X connect 7 0 12 0;
#X connect 7 1 12 1;
#X connect 8 0 0 1;
#X connect 9 0 0 0;
#X connect 10 0 7 0;
#X connect 12 0 11 0;
#X restore 30 110 pd collide;
#X obj 50 140 tgl 24 0 empty empty hit? 28 7 1 10 #fcfcfc #000000 #000000
0 1;
#X obj 130 110 loadbang;
#X obj 73 232 tgl 15 0 empty empty empty 17 7 0 10 #fcfcfc #000000
#000000 0 1;
#X obj 103 232 bng 15 250 50 0 empty empty empty 17 7 0 10 #fcfcfc
#000000 #000000;
#X obj 133 232 tgl 15 0 empty empty empty 17 7 0 10 #fcfcfc #000000
#000000 1 1;
#X obj 23 202 spigot;
#X obj 123 202 spigot;
#X obj 23 172 receive reset;
#X obj 193 222 loadbang;
#X obj 143 172 receive start;
#X obj 43 272 spigot;
#X obj 130 140 delay 100;
#X obj 290 210 pix_image;
#X obj 320 130 loadbang;
#X obj 290 280 pix_texture;
#X msg 360 230 env \$1;
#X obj 360 210 hradio 15 1 0 6 empty empty empty 0 -6 0 8 #fcfcfc #000000
#000000 2;
#X obj 290 310 colorRGB 1 0 0;
#X obj 290 340 translateXYZ -2 1 0;
#X msg 360 190 2;
#X msg 320 160 open Art/Enemy1.png;
#X obj 30 70 pack 0 0;
#X obj 50 30 delay 100;
#X msg 50 50 10;
#X obj 20 360 send hit4;
#X obj 290 370 square 0.25;
#X connect 0 0 6 2;
#X connect 1 0 3 0;
#X connect 1 0 6 1;
#X connect 2 0 19 0;
#X connect 3 0 25 1;
#X connect 3 1 25 2;
#X connect 3 1 28 1;
#X connect 4 1 31 0;
#X connect 5 0 28 0;
#X connect 5 0 29 0;
#X connect 6 0 7 0;
#X connect 7 0 17 0;
#X connect 8 0 18 0;
#X connect 9 0 10 0;
#X connect 9 0 12 1;
#X connect 9 0 17 1;
#X connect 10 0 11 0;
#X connect 11 0 13 1;
#X connect 12 0 9 0;
#X connect 13 0 9 0;
#X connect 14 0 12 0;
#X connect 15 0 11 0;
#X connect 16 0 13 0;
#X connect 17 0 4 0;
#X connect 18 0 7 0;
#X connect 19 0 21 0;
#X connect 20 0 27 0;
#X connect 20 0 26 0;
#X connect 21 0 24 0;
#X connect 22 0 21 0;
#X connect 23 0 22 0;
#X connect 23 0 21 0;
#X connect 24 0 25 0;
#X connect 25 0 32 0;
#X connect 26 0 23 0;
#X connect 27 0 19 0;
#X connect 28 0 6 0;
#X connect 29 0 30 0;
#X connect 30 0 28 0;
#X restore 470 100 pd attack_collision;
#N canvas 860 72 601 673 Enemy2 0;
#X obj 10 540 receive reset;
#X obj 200 600 outlet;
#X obj 200 580 pack 0 0;
#X obj 220 550 t b f;
#X msg 360 400 -10;
#X msg 390 400 -10;
#X obj 160 210 metro;
#X obj 160 235 bng 15 250 50 0 empty empty empty 17 7 0 10 #fcfcfc
#000000 #000000;
#X obj 230 190 int 1;
#X floatatom 230 222 5 0 0 0 - - -, f 5;
#X obj 300 232 + 1;
#X obj 100 200 sel 0;
#X obj 100 225 bng 15 250 50 0 empty empty empty 17 7 0 10 #fcfcfc
#000000 #000000;
#X msg 100 248 -1;
#X obj 40 200 loadbang;
#X obj 190 110 loadbang;
#X obj 230 271 + 1;
#X floatatom 230 300 5 0 0 0 - - -, f 5;
#X floatatom 190 160 5 0 0 0 - - -, f 5;
#X obj 40 570 receive start;
#X obj 40 600 bng 15 250 50 0 empty empty empty 17 7 0 10 #fcfcfc #000000
#000000;
#X obj 60 150 tgl 15 0 empty empty empty 17 7 0 10 #fcfcfc #000000
#000000 0 1;
#X obj 90 150 bng 15 250 50 0 empty empty empty 17 7 0 10 #fcfcfc #000000
#000000;
#X obj 120 150 tgl 15 0 empty empty empty 17 7 0 10 #fcfcfc #000000
#000000 1 1;
#X obj 10 120 spigot;
#X obj 110 120 spigot;
#X obj 10 90 receive reset;
#X obj 130 90 receive start;
#X obj 250 350 sel 4 8;
#X obj 230 242 % 8;
#X msg 250 450 \$1;
#X floatatom 220 500 5 0 0 0 - - -, f 5;
#X obj 250 390 f 4;
#X obj 150 350 sel 5 6 7;
#X obj 70 350 sel 1 2 3;
#X obj 250 425 - 0.5;
#X msg 80 380 1;
#X msg 150 380 2;
#X obj 100 439 pack f f;
#X obj 100 468 route 1 2;
#X obj 90 410 t f b;
#X obj 100 500 + 0.5;
#X obj 140 500 - 0.5;
#X floatatom 120 540 5 0 0 0 - - -, f 5;
#X obj 170 430 f -3;
#X msg 190 135 750;
#X obj 30 510 loadbang;
#X obj 20 60 receive hit2;
#X obj 360 350 receive hit2;
#X msg 40 623 -2;
#X msg 100 620 3;
#X connect 0 0 20 0;
#X connect 2 0 1 0;
#X connect 3 0 2 0;
#X connect 3 1 2 1;
#X connect 4 0 2 0;
#X connect 5 0 3 0;
#X connect 6 0 7 0;
#X connect 7 0 8 0;
#X connect 8 0 9 0;
#X connect 8 0 10 0;
#X connect 9 0 29 0;
#X connect 10 0 8 1;
#X connect 11 0 12 0;
#X connect 12 0 13 0;
#X connect 13 0 8 0;
#X connect 14 0 12 0;
#X connect 15 0 45 0;
#X connect 15 0 23 0;
#X connect 16 0 17 0;
#X connect 17 0 28 0;
#X connect 17 0 33 0;
#X connect 17 0 34 0;
#X connect 18 0 6 1;
#X connect 19 0 20 0;
#X connect 20 0 49 0;
#X connect 20 0 50 0;
#X connect 21 0 22 0;
#X connect 21 0 24 1;
#X connect 21 0 11 0;
#X connect 21 0 6 0;
#X connect 22 0 23 0;
#X connect 23 0 25 1;
#X connect 24 0 21 0;
#X connect 25 0 21 0;
#X connect 26 0 24 0;
#X connect 27 0 25 0;
#X connect 28 0 32 0;
#X connect 28 1 32 0;
#X connect 29 0 16 0;
#X connect 30 0 31 0;
#X connect 31 0 3 0;
#X connect 31 0 32 1;
#X connect 32 0 35 0;
#X connect 33 0 37 0;
#X connect 33 1 37 0;
#X connect 33 2 37 0;
#X connect 34 0 36 0;
#X connect 34 1 36 0;
#X connect 34 2 36 0;
#X connect 35 0 30 0;
#X connect 36 0 40 0;
#X connect 37 0 40 0;
#X connect 38 0 39 0;
#X connect 39 0 41 0;
#X connect 39 1 42 0;
#X connect 40 0 38 0;
#X connect 40 1 44 0;
#X connect 41 0 43 0;
#X connect 42 0 43 0;
#X connect 43 0 44 1;
#X connect 43 0 2 0;
#X connect 44 0 38 1;
#X connect 45 0 18 0;
#X connect 46 0 20 0;
#X connect 47 0 24 0;
#X connect 48 0 4 0;
#X connect 48 0 5 0;
#X connect 49 0 2 0;
#X connect 49 0 43 0;
#X connect 50 0 3 0;
#X connect 50 0 31 0;
#X restore 190 70 pd Enemy2;
#X floatatom 710 70 5 0 0 1 - - -, f 5;
#X obj 710 30 loadbang;
#N canvas 868 136 502 414 attack 0;
#X obj 130 180 outlet;
#X obj 30 30 receive attack_pos;
#X obj 171 31 receive attack;
#X obj 171 91 tgl 15 0 empty empty empty 17 7 0 10 #fcfcfc #000000
#000000 0 1;
#X obj 191 61 delay 200;
#X obj 130 130 spigot;
#X floatatom 90 160 5 0 0 0 - - -, f 5;
#X connect 1 0 5 0;
#X connect 2 0 3 0;
#X connect 2 0 4 0;
#X connect 3 0 5 1;
#X connect 4 0 3 0;
#X connect 5 0 0 0;
#X connect 5 0 6 0;
#X restore 620 20 pd attack;
#N canvas 681 272 733 593 attack_collision 0;
#X obj 340 50 inlet radius;
#X obj 240 50 inlet reference;
#X obj 290 100 gemhead;
#X obj 390 80 unpack 0 0;
#X obj 20 310 select 0 1;
#X obj 30 0 inlet test;
#N canvas 876 256 554 529 collide 0;
#X obj 91 217 list-map2;
#X obj 171 218 -;
#X obj 171 265 *;
#X obj 171 241 t a a;
#X obj 84 340 sqrt;
#X obj 84 290 list-reduce;
#X obj 170 290 +;
#X obj 124 360 t b a;
#X obj 150 130 inlet reference;
#X obj 80 130 inlet test;
#X obj 294 247 inlet radius;
#X obj 94 410 outlet;
#X obj 94 380 <= 1;
#X floatatom 40 320 5 0 0 0 - - -, f 5;
#X connect 0 0 5 0;
#X connect 0 1 1 0;
#X connect 1 0 3 0;
#X connect 2 0 0 2;
#X connect 3 0 2 0;
#X connect 3 1 2 1;
#X connect 4 0 12 0;
#X connect 5 0 4 0;
#X connect 5 0 13 0;
#X connect 5 1 6 0;
#X connect 6 0 5 1;
#X connect 7 0 12 0;
#X connect 7 1 12 1;
#X connect 8 0 0 1;
#X connect 9 0 0 0;
#X connect 10 0 7 0;
#X connect 12 0 11 0;
#X restore 30 110 pd collide;
#X obj 50 140 tgl 24 0 empty empty hit? 28 7 1 10 #fcfcfc #000000 #000000
0 1;
#X obj 130 110 loadbang;
#X obj 73 232 tgl 15 0 empty empty empty 17 7 0 10 #fcfcfc #000000
#000000 0 1;
#X obj 103 232 bng 15 250 50 0 empty empty empty 17 7 0 10 #fcfcfc
#000000 #000000;
#X obj 133 232 tgl 15 0 empty empty empty 17 7 0 10 #fcfcfc #000000
#000000 1 1;
#X obj 23 202 spigot;
#X obj 123 202 spigot;
#X obj 23 172 receive reset;
#X obj 193 222 loadbang;
#X obj 143 172 receive start;
#X obj 43 272 spigot;
#X obj 130 140 delay 100;
#X obj 290 210 pix_image;
#X obj 320 130 loadbang;
#X obj 290 280 pix_texture;
#X msg 360 230 env \$1;
#X obj 360 210 hradio 15 1 0 6 empty empty empty 0 -6 0 8 #fcfcfc #000000
#000000 2;
#X obj 290 310 colorRGB 1 0 0;
#X obj 290 340 translateXYZ -2 1 0;
#X msg 360 190 2;
#X msg 320 160 open Art/Enemy1.png;
#X obj 30 70 pack 0 0;
#X obj 50 30 delay 100;
#X msg 50 50 10;
#X obj 20 360 send hit5;
#X obj 290 370 square 0.25;
#X connect 0 0 6 2;
#X connect 1 0 3 0;
#X connect 1 0 6 1;
#X connect 2 0 19 0;
#X connect 3 0 25 1;
#X connect 3 1 25 2;
#X connect 3 1 28 1;
#X connect 4 1 31 0;
#X connect 5 0 28 0;
#X connect 5 0 29 0;
#X connect 6 0 7 0;
#X connect 7 0 17 0;
#X connect 8 0 18 0;
#X connect 9 0 10 0;
#X connect 9 0 12 1;
#X connect 9 0 17 1;
#X connect 10 0 11 0;
#X connect 11 0 13 1;
#X connect 12 0 9 0;
#X connect 13 0 9 0;
#X connect 14 0 12 0;
#X connect 15 0 11 0;
#X connect 16 0 13 0;
#X connect 17 0 4 0;
#X connect 18 0 7 0;
#X connect 19 0 21 0;
#X connect 20 0 27 0;
#X connect 20 0 26 0;
#X connect 21 0 24 0;
#X connect 22 0 21 0;
#X connect 23 0 22 0;
#X connect 23 0 21 0;
#X connect 24 0 25 0;
#X connect 25 0 32 0;
#X connect 26 0 23 0;
#X connect 27 0 19 0;
#X connect 28 0 6 0;
#X connect 29 0 30 0;
#X connect 30 0 28 0;
#X restore 620 100 pd attack_collision;
#X floatatom 860 70 5 0 0 1 - - -, f 5;
#X obj 860 30 loadbang;
#N canvas 868 136 502 414 attack 0;
#X obj 130 180 outlet;
#X obj 30 30 receive attack_pos;
#X obj 171 31 receive attack;
#X obj 171 91 tgl 15 0 empty empty empty 17 7 0 10 #fcfcfc #000000
#000000 0 1;
#X obj 191 61 delay 200;
#X obj 130 130 spigot;
#X floatatom 90 160 5 0 0 0 - - -, f 5;
#X connect 1 0 5 0;
#X connect 2 0 3 0;
#X connect 2 0 4 0;
#X connect 3 0 5 1;
#X connect 4 0 3 0;
#X connect 5 0 0 0;
#X connect 5 0 6 0;
#X restore 770 20 pd attack;
#N canvas 668 156 730 590 attack_collision 0;
#X obj 340 50 inlet radius;
#X obj 240 50 inlet reference;
#X obj 290 100 gemhead;
#X obj 390 80 unpack 0 0;
#X obj 20 310 select 0 1;
#X obj 30 0 inlet test;
#N canvas 876 256 554 529 collide 0;
#X obj 91 217 list-map2;
#X obj 171 218 -;
#X obj 171 265 *;
#X obj 171 241 t a a;
#X obj 84 340 sqrt;
#X obj 84 290 list-reduce;
#X obj 170 290 +;
#X obj 124 360 t b a;
#X obj 150 130 inlet reference;
#X obj 80 130 inlet test;
#X obj 294 247 inlet radius;
#X obj 94 410 outlet;
#X obj 94 380 <= 1;
#X floatatom 40 320 5 0 0 0 - - -, f 5;
#X connect 0 0 5 0;
#X connect 0 1 1 0;
#X connect 1 0 3 0;
#X connect 2 0 0 2;
#X connect 3 0 2 0;
#X connect 3 1 2 1;
#X connect 4 0 12 0;
#X connect 5 0 4 0;
#X connect 5 0 13 0;
#X connect 5 1 6 0;
#X connect 6 0 5 1;
#X connect 7 0 12 0;
#X connect 7 1 12 1;
#X connect 8 0 0 1;
#X connect 9 0 0 0;
#X connect 10 0 7 0;
#X connect 12 0 11 0;
#X restore 30 110 pd collide;
#X obj 50 140 tgl 24 0 empty empty hit? 28 7 1 10 #fcfcfc #000000 #000000
0 1;
#X obj 130 110 loadbang;
#X obj 73 232 tgl 15 0 empty empty empty 17 7 0 10 #fcfcfc #000000
#000000 0 1;
#X obj 103 232 bng 15 250 50 0 empty empty empty 17 7 0 10 #fcfcfc
#000000 #000000;
#X obj 133 232 tgl 15 0 empty empty empty 17 7 0 10 #fcfcfc #000000
#000000 1 1;
#X obj 23 202 spigot;
#X obj 123 202 spigot;
#X obj 23 172 receive reset;
#X obj 193 222 loadbang;
#X obj 143 172 receive start;
#X obj 43 272 spigot;
#X obj 130 140 delay 100;
#X obj 290 210 pix_image;
#X obj 320 130 loadbang;
#X obj 290 280 pix_texture;
#X msg 360 230 env \$1;
#X obj 360 210 hradio 15 1 0 6 empty empty empty 0 -6 0 8 #fcfcfc #000000
#000000 2;
#X obj 290 310 colorRGB 1 0 0;
#X obj 290 340 translateXYZ -2 1 0;
#X msg 360 190 2;
#X msg 320 160 open Art/Enemy1.png;
#X obj 30 70 pack 0 0;
#X obj 50 30 delay 100;
#X msg 50 50 10;
#X obj 20 360 send hit6;
#X obj 290 370 square 0.25;
#X connect 0 0 6 2;
#X connect 1 0 3 0;
#X connect 1 0 6 1;
#X connect 2 0 19 0;
#X connect 3 0 25 1;
#X connect 3 1 25 2;
#X connect 3 1 28 1;
#X connect 4 1 31 0;
#X connect 5 0 28 0;
#X connect 5 0 29 0;
#X connect 6 0 7 0;
#X connect 7 0 17 0;
#X connect 8 0 18 0;
#X connect 9 0 10 0;
#X connect 9 0 12 1;
#X connect 9 0 17 1;
#X connect 10 0 11 0;
#X connect 11 0 13 1;
#X connect 12 0 9 0;
#X connect 13 0 9 0;
#X connect 14 0 12 0;
#X connect 15 0 11 0;
#X connect 16 0 13 0;
#X connect 17 0 4 0;
#X connect 18 0 7 0;
#X connect 19 0 21 0;
#X connect 20 0 27 0;
#X connect 20 0 26 0;
#X connect 21 0 24 0;
#X connect 22 0 21 0;
#X connect 23 0 22 0;
#X connect 23 0 21 0;
#X connect 24 0 25 0;
#X connect 25 0 32 0;
#X connect 26 0 23 0;
#X connect 27 0 19 0;
#X connect 28 0 6 0;
#X connect 29 0 30 0;
#X connect 30 0 28 0;
#X restore 770 100 pd attack_collision;
#N canvas 688 84 598 670 Enemy3 0;
#X obj 10 540 receive reset;
#X obj 200 600 outlet;
#X obj 200 580 pack 0 0;
#X obj 220 550 t b f;
#X msg 360 400 -10;
#X msg 390 400 -10;
#X obj 160 210 metro;
#X obj 160 235 bng 15 250 50 0 empty empty empty 17 7 0 10 #fcfcfc
#000000 #000000;
#X obj 230 190 int 1;
#X floatatom 230 222 5 0 0 0 - - -, f 5;
#X obj 300 232 + 1;
#X obj 100 200 sel 0;
#X obj 100 225 bng 15 250 50 0 empty empty empty 17 7 0 10 #fcfcfc
#000000 #000000;
#X msg 100 248 -1;
#X obj 40 200 loadbang;
#X obj 190 110 loadbang;
#X obj 230 271 + 1;
#X floatatom 230 300 5 0 0 0 - - -, f 5;
#X floatatom 190 160 5 0 0 0 - - -, f 5;
#X obj 40 570 receive start;
#X obj 40 600 bng 15 250 50 0 empty empty empty 17 7 0 10 #fcfcfc #000000
#000000;
#X obj 60 150 tgl 15 0 empty empty empty 17 7 0 10 #fcfcfc #000000
#000000 0 1;
#X obj 90 150 bng 15 250 50 0 empty empty empty 17 7 0 10 #fcfcfc #000000
#000000;
#X obj 120 150 tgl 15 0 empty empty empty 17 7 0 10 #fcfcfc #000000
#000000 1 1;
#X obj 10 120 spigot;
#X obj 110 120 spigot;
#X obj 10 90 receive reset;
#X obj 130 90 receive start;
#X obj 250 350 sel 4 8;
#X obj 230 242 % 8;
#X msg 250 450 \$1;
#X floatatom 220 500 5 0 0 0 - - -, f 5;
#X obj 250 390 f 4;
#X obj 150 350 sel 5 6 7;
#X obj 70 350 sel 1 2 3;
#X obj 250 425 - 0.5;
#X msg 80 380 1;
#X msg 150 380 2;
#X obj 100 439 pack f f;
#X obj 100 468 route 1 2;
#X obj 90 410 t f b;
#X obj 100 500 + 0.5;
#X obj 140 500 - 0.5;
#X floatatom 120 540 5 0 0 0 - - -, f 5;
#X obj 170 430 f -3;
#X msg 190 135 750;
#X obj 30 510 loadbang;
#X msg 40 623 -1;
#X obj 360 350 receive hit3;
#X obj 20 60 receive hit3;
#X msg 100 620 3;
#X connect 0 0 20 0;
#X connect 2 0 1 0;
#X connect 3 0 2 0;
#X connect 3 1 2 1;
#X connect 4 0 2 0;
#X connect 5 0 3 0;
#X connect 6 0 7 0;
#X connect 7 0 8 0;
#X connect 8 0 9 0;
#X connect 8 0 10 0;
#X connect 9 0 29 0;
#X connect 10 0 8 1;
#X connect 11 0 12 0;
#X connect 12 0 13 0;
#X connect 13 0 8 0;
#X connect 14 0 12 0;
#X connect 15 0 45 0;
#X connect 15 0 23 0;
#X connect 16 0 17 0;
#X connect 17 0 28 0;
#X connect 17 0 33 0;
#X connect 17 0 34 0;
#X connect 18 0 6 1;
#X connect 19 0 20 0;
#X connect 20 0 47 0;
#X connect 20 0 50 0;
#X connect 21 0 22 0;
#X connect 21 0 24 1;
#X connect 21 0 11 0;
#X connect 21 0 6 0;
#X connect 22 0 23 0;
#X connect 23 0 25 1;
#X connect 24 0 21 0;
#X connect 25 0 21 0;
#X connect 26 0 24 0;
#X connect 27 0 25 0;
#X connect 28 0 32 0;
#X connect 28 1 32 0;
#X connect 29 0 16 0;
#X connect 30 0 31 0;
#X connect 31 0 3 0;
#X connect 31 0 32 1;
#X connect 32 0 35 0;
#X connect 33 0 37 0;
#X connect 33 1 37 0;
#X connect 33 2 37 0;
#X connect 34 0 36 0;
#X connect 34 1 36 0;
#X connect 34 2 36 0;
#X connect 35 0 30 0;
#X connect 36 0 40 0;
#X connect 37 0 40 0;
#X connect 38 0 39 0;
#X connect 39 0 41 0;
#X connect 39 1 42 0;
#X connect 40 0 38 0;
#X connect 40 1 44 0;
#X connect 41 0 43 0;
#X connect 42 0 43 0;
#X connect 43 0 44 1;
#X connect 43 0 2 0;
#X connect 44 0 38 1;
#X connect 45 0 18 0;
#X connect 46 0 20 0;
#X connect 47 0 2 0;
#X connect 47 0 43 0;
#X connect 48 0 4 0;
#X connect 48 0 5 0;
#X connect 49 0 24 0;
#X connect 50 0 3 0;
#X connect 50 0 31 0;
#X restore 340 70 pd Enemy3;
#N canvas 688 84 598 670 Enemy4 0;
#X obj 10 540 receive reset;
#X obj 200 600 outlet;
#X obj 200 580 pack 0 0;
#X obj 220 550 t b f;
#X msg 360 400 -10;
#X msg 390 400 -10;
#X obj 160 210 metro;
#X obj 160 235 bng 15 250 50 0 empty empty empty 17 7 0 10 #fcfcfc
#000000 #000000;
#X obj 230 190 int 1;
#X floatatom 230 222 5 0 0 0 - - -, f 5;
#X obj 300 232 + 1;
#X obj 100 200 sel 0;
#X obj 100 225 bng 15 250 50 0 empty empty empty 17 7 0 10 #fcfcfc
#000000 #000000;
#X msg 100 248 -1;
#X obj 40 200 loadbang;
#X obj 190 110 loadbang;
#X obj 230 271 + 1;
#X floatatom 230 300 5 0 0 0 - - -, f 5;
#X floatatom 190 160 5 0 0 0 - - -, f 5;
#X obj 40 570 receive start;
#X obj 40 600 bng 15 250 50 0 empty empty empty 17 7 0 10 #fcfcfc #000000
#000000;
#X obj 60 150 tgl 15 0 empty empty empty 17 7 0 10 #fcfcfc #000000
#000000 0 1;
#X obj 90 150 bng 15 250 50 0 empty empty empty 17 7 0 10 #fcfcfc #000000
#000000;
#X obj 120 150 tgl 15 0 empty empty empty 17 7 0 10 #fcfcfc #000000
#000000 1 1;
#X obj 10 120 spigot;
#X obj 110 120 spigot;
#X obj 10 90 receive reset;
#X obj 130 90 receive start;
#X obj 250 350 sel 4 8;
#X obj 230 242 % 8;
#X msg 250 450 \$1;
#X floatatom 220 500 5 0 0 0 - - -, f 5;
#X obj 250 390 f 4;
#X obj 150 350 sel 5 6 7;
#X obj 70 350 sel 1 2 3;
#X obj 250 425 - 0.5;
#X msg 80 380 1;
#X msg 150 380 2;
#X obj 100 439 pack f f;
#X obj 100 468 route 1 2;
#X obj 90 410 t f b;
#X obj 100 500 + 0.5;
#X obj 140 500 - 0.5;
#X floatatom 120 540 5 0 0 0 - - -, f 5;
#X obj 170 430 f -3;
#X msg 190 135 750;
#X obj 40 510 loadbang;
#X obj 360 350 receive hit4;
#X obj 20 60 receive hit4;
#X msg 40 623 0;
#X msg 100 620 3;
#X connect 0 0 20 0;
#X connect 2 0 1 0;
#X connect 3 0 2 0;
#X connect 3 1 2 1;
#X connect 4 0 2 0;
#X connect 5 0 3 0;
#X connect 6 0 7 0;
#X connect 7 0 8 0;
#X connect 8 0 9 0;
#X connect 8 0 10 0;
#X connect 9 0 29 0;
#X connect 10 0 8 1;
#X connect 11 0 12 0;
#X connect 12 0 13 0;
#X connect 13 0 8 0;
#X connect 14 0 12 0;
#X connect 15 0 45 0;
#X connect 15 0 23 0;
#X connect 16 0 17 0;
#X connect 17 0 28 0;
#X connect 17 0 33 0;
#X connect 17 0 34 0;
#X connect 18 0 6 1;
#X connect 19 0 20 0;
#X connect 20 0 49 0;
#X connect 20 0 50 0;
#X connect 21 0 22 0;
#X connect 21 0 24 1;
#X connect 21 0 11 0;
#X connect 21 0 6 0;
#X connect 22 0 23 0;
#X connect 23 0 25 1;
#X connect 24 0 21 0;
#X connect 25 0 21 0;
#X connect 26 0 24 0;
#X connect 27 0 25 0;
#X connect 28 0 32 0;
#X connect 28 1 32 0;
#X connect 29 0 16 0;
#X connect 30 0 31 0;
#X connect 31 0 3 0;
#X connect 31 0 32 1;
#X connect 32 0 35 0;
#X connect 33 0 37 0;
#X connect 33 1 37 0;
#X connect 33 2 37 0;
#X connect 34 0 36 0;
#X connect 34 1 36 0;
#X connect 34 2 36 0;
#X connect 35 0 30 0;
#X connect 36 0 40 0;
#X connect 37 0 40 0;
#X connect 38 0 39 0;
#X connect 39 0 41 0;
#X connect 39 1 42 0;
#X connect 40 0 38 0;
#X connect 40 1 44 0;
#X connect 41 0 43 0;
#X connect 42 0 43 0;
#X connect 43 0 44 1;
#X connect 43 0 2 0;
#X connect 44 0 38 1;
#X connect 45 0 18 0;
#X connect 46 0 20 0;
#X connect 47 0 4 0;
#X connect 47 0 5 0;
#X connect 48 0 24 0;
#X connect 49 0 2 0;
#X connect 49 0 43 0;
#X connect 50 0 3 0;
#X connect 50 0 31 0;
#X restore 490 70 pd Enemy4;
#N canvas 688 84 598 670 Enemy5 0;
#X obj 10 540 receive reset;
#X obj 200 600 outlet;
#X obj 200 580 pack 0 0;
#X obj 220 550 t b f;
#X msg 360 400 -10;
#X msg 390 400 -10;
#X obj 160 210 metro;
#X obj 160 235 bng 15 250 50 0 empty empty empty 17 7 0 10 #fcfcfc
#000000 #000000;
#X obj 230 190 int 1;
#X floatatom 230 222 5 0 0 0 - - -, f 5;
#X obj 300 232 + 1;
#X obj 100 200 sel 0;
#X obj 100 225 bng 15 250 50 0 empty empty empty 17 7 0 10 #fcfcfc
#000000 #000000;
#X msg 100 248 -1;
#X obj 40 200 loadbang;
#X obj 190 110 loadbang;
#X obj 230 271 + 1;
#X floatatom 230 300 5 0 0 0 - - -, f 5;
#X floatatom 190 160 5 0 0 0 - - -, f 5;
#X obj 40 570 receive start;
#X obj 40 600 bng 15 250 50 0 empty empty empty 17 7 0 10 #fcfcfc #000000
#000000;
#X obj 60 150 tgl 15 0 empty empty empty 17 7 0 10 #fcfcfc #000000
#000000 0 1;
#X obj 90 150 bng 15 250 50 0 empty empty empty 17 7 0 10 #fcfcfc #000000
#000000;
#X obj 120 150 tgl 15 0 empty empty empty 17 7 0 10 #fcfcfc #000000
#000000 1 1;
#X obj 10 120 spigot;
#X obj 110 120 spigot;
#X obj 10 90 receive reset;
#X obj 130 90 receive start;
#X obj 250 350 sel 4 8;
#X obj 230 242 % 8;
#X msg 250 450 \$1;
#X floatatom 220 500 5 0 0 0 - - -, f 5;
#X obj 250 390 f 4;
#X obj 150 350 sel 5 6 7;
#X obj 70 350 sel 1 2 3;
#X obj 250 425 - 0.5;
#X msg 80 380 1;
#X msg 150 380 2;
#X obj 100 439 pack f f;
#X obj 100 468 route 1 2;
#X obj 90 410 t f b;
#X obj 100 500 + 0.5;
#X obj 140 500 - 0.5;
#X floatatom 120 540 5 0 0 0 - - -, f 5;
#X obj 170 430 f -3;
#X msg 190 135 750;
#X obj 40 510 loadbang;
#X obj 360 350 receive hit5;
#X obj 20 60 receive hit5;
#X msg 40 623 1;
#X msg 100 620 3;
#X connect 0 0 20 0;
#X connect 2 0 1 0;
#X connect 3 0 2 0;
#X connect 3 1 2 1;
#X connect 4 0 2 0;
#X connect 5 0 3 0;
#X connect 6 0 7 0;
#X connect 7 0 8 0;
#X connect 8 0 9 0;
#X connect 8 0 10 0;
#X connect 9 0 29 0;
#X connect 10 0 8 1;
#X connect 11 0 12 0;
#X connect 12 0 13 0;
#X connect 13 0 8 0;
#X connect 14 0 12 0;
#X connect 15 0 45 0;
#X connect 15 0 23 0;
#X connect 16 0 17 0;
#X connect 17 0 28 0;
#X connect 17 0 33 0;
#X connect 17 0 34 0;
#X connect 18 0 6 1;
#X connect 19 0 20 0;
#X connect 20 0 49 0;
#X connect 20 0 50 0;
#X connect 21 0 22 0;
#X connect 21 0 24 1;
#X connect 21 0 11 0;
#X connect 21 0 6 0;
#X connect 22 0 23 0;
#X connect 23 0 25 1;
#X connect 24 0 21 0;
#X connect 25 0 21 0;
#X connect 26 0 24 0;
#X connect 27 0 25 0;
#X connect 28 0 32 0;
#X connect 28 1 32 0;
#X connect 29 0 16 0;
#X connect 30 0 31 0;
#X connect 31 0 3 0;
#X connect 31 0 32 1;
#X connect 32 0 35 0;
#X connect 33 0 37 0;
#X connect 33 1 37 0;
#X connect 33 2 37 0;
#X connect 34 0 36 0;
#X connect 34 1 36 0;
#X connect 34 2 36 0;
#X connect 35 0 30 0;
#X connect 36 0 40 0;
#X connect 37 0 40 0;
#X connect 38 0 39 0;
#X connect 39 0 41 0;
#X connect 39 1 42 0;
#X connect 40 0 38 0;
#X connect 40 1 44 0;
#X connect 41 0 43 0;
#X connect 42 0 43 0;
#X connect 43 0 44 1;
#X connect 43 0 2 0;
#X connect 44 0 38 1;
#X connect 45 0 18 0;
#X connect 46 0 20 0;
#X connect 47 0 4 0;
#X connect 47 0 5 0;
#X connect 48 0 24 0;
#X connect 49 0 2 0;
#X connect 49 0 43 0;
#X connect 50 0 3 0;
#X connect 50 0 31 0;
#X restore 640 70 pd Enemy5;
#N canvas 688 84 598 670 Enemy6 0;
#X obj 10 540 receive reset;
#X obj 200 600 outlet;
#X obj 200 580 pack 0 0;
#X obj 220 550 t b f;
#X msg 360 400 -10;
#X msg 390 400 -10;
#X obj 160 210 metro;
#X obj 160 235 bng 15 250 50 0 empty empty empty 17 7 0 10 #fcfcfc
#000000 #000000;
#X obj 230 190 int 1;
#X floatatom 230 222 5 0 0 0 - - -, f 5;
#X obj 300 232 + 1;
#X obj 100 200 sel 0;
#X obj 100 225 bng 15 250 50 0 empty empty empty 17 7 0 10 #fcfcfc
#000000 #000000;
#X msg 100 248 -1;
#X obj 40 200 loadbang;
#X obj 190 110 loadbang;
#X obj 230 271 + 1;
#X floatatom 230 300 5 0 0 0 - - -, f 5;
#X floatatom 190 160 5 0 0 0 - - -, f 5;
#X obj 40 570 receive start;
#X obj 40 600 bng 15 250 50 0 empty empty empty 17 7 0 10 #fcfcfc #000000
#000000;
#X obj 60 150 tgl 15 0 empty empty empty 17 7 0 10 #fcfcfc #000000
#000000 0 1;
#X obj 90 150 bng 15 250 50 0 empty empty empty 17 7 0 10 #fcfcfc #000000
#000000;
#X obj 120 150 tgl 15 0 empty empty empty 17 7 0 10 #fcfcfc #000000
#000000 1 1;
#X obj 10 120 spigot;
#X obj 110 120 spigot;
#X obj 10 90 receive reset;
#X obj 130 90 receive start;
#X obj 250 350 sel 4 8;
#X obj 230 242 % 8;
#X msg 250 450 \$1;
#X floatatom 220 500 5 0 0 0 - - -, f 5;
#X obj 250 390 f 4;
#X obj 150 350 sel 5 6 7;
#X obj 70 350 sel 1 2 3;
#X obj 250 425 - 0.5;
#X msg 80 380 1;
#X msg 150 380 2;
#X obj 100 439 pack f f;
#X obj 100 468 route 1 2;
#X obj 90 410 t f b;
#X obj 100 500 + 0.5;
#X obj 140 500 - 0.5;
#X floatatom 120 540 5 0 0 0 - - -, f 5;
#X obj 170 430 f -3;
#X msg 190 135 750;
#X obj 40 510 loadbang;
#X obj 360 350 receive hit6;
#X obj 20 60 receive hit6;
#X msg 40 623 2;
#X msg 100 620 3;
#X connect 0 0 20 0;
#X connect 2 0 1 0;
#X connect 3 0 2 0;
#X connect 3 1 2 1;
#X connect 4 0 2 0;
#X connect 5 0 3 0;
#X connect 6 0 7 0;
#X connect 7 0 8 0;
#X connect 8 0 9 0;
#X connect 8 0 10 0;
#X connect 9 0 29 0;
#X connect 10 0 8 1;
#X connect 11 0 12 0;
#X connect 12 0 13 0;
#X connect 13 0 8 0;
#X connect 14 0 12 0;
#X connect 15 0 45 0;
#X connect 15 0 23 0;
#X connect 16 0 17 0;
#X connect 17 0 28 0;
#X connect 17 0 33 0;
#X connect 17 0 34 0;
#X connect 18 0 6 1;
#X connect 19 0 20 0;
#X connect 20 0 49 0;
#X connect 20 0 50 0;
#X connect 21 0 22 0;
#X connect 21 0 24 1;
#X connect 21 0 11 0;
#X connect 21 0 6 0;
#X connect 22 0 23 0;
#X connect 23 0 25 1;
#X connect 24 0 21 0;
#X connect 25 0 21 0;
#X connect 26 0 24 0;
#X connect 27 0 25 0;
#X connect 28 0 32 0;
#X connect 28 1 32 0;
#X connect 29 0 16 0;
#X connect 30 0 31 0;
#X connect 31 0 3 0;
#X connect 31 0 32 1;
#X connect 32 0 35 0;
#X connect 33 0 37 0;
#X connect 33 1 37 0;
#X connect 33 2 37 0;
#X connect 34 0 36 0;
#X connect 34 1 36 0;
#X connect 34 2 36 0;
#X connect 35 0 30 0;
#X connect 36 0 40 0;
#X connect 37 0 40 0;
#X connect 38 0 39 0;
#X connect 39 0 41 0;
#X connect 39 1 42 0;
#X connect 40 0 38 0;
#X connect 40 1 44 0;
#X connect 41 0 43 0;
#X connect 42 0 43 0;
#X connect 43 0 44 1;
#X connect 43 0 2 0;
#X connect 44 0 38 1;
#X connect 45 0 18 0;
#X connect 46 0 20 0;
#X connect 47 0 4 0;
#X connect 47 0 5 0;
#X connect 48 0 24 0;
#X connect 49 0 2 0;
#X connect 49 0 43 0;
#X connect 50 0 3 0;
#X connect 50 0 31 0;
#X restore 790 70 pd Enemy6;
#X msg 100 50 0.25;
#X msg 260 50 0.25;
#X msg 410 50 0.25;
#X msg 560 50 0.25;
#X msg 710 50 0.25;
#X msg 860 50 0.25;
#X floatatom 100 180 5 0 0 1 - - -, f 5;
#X obj 100 140 loadbang;
#N canvas 868 136 502 414 attack 0;
#X obj 130 180 outlet;
#X obj 30 30 receive attack_pos;
#X obj 171 31 receive attack;
#X obj 171 91 tgl 15 0 empty empty empty 17 7 0 10 #fcfcfc #000000
#000000 0 1;
#X obj 191 61 delay 200;
#X obj 130 130 spigot;
#X floatatom 90 160 5 0 0 0 - - -, f 5;
#X connect 1 0 5 0;
#X connect 2 0 3 0;
#X connect 2 0 4 0;
#X connect 3 0 5 1;
#X connect 4 0 3 0;
#X connect 5 0 0 0;
#X connect 5 0 6 0;
#X restore 10 130 pd attack;
#N canvas 668 156 730 590 attack_collision 0;
#X obj 340 50 inlet radius;
#X obj 240 50 inlet reference;
#X obj 290 100 gemhead;
#X obj 390 80 unpack 0 0;
#X obj 20 310 select 0 1;
#X obj 30 0 inlet test;
#N canvas 876 256 554 529 collide 0;
#X obj 91 217 list-map2;
#X obj 171 218 -;
#X obj 171 265 *;
#X obj 171 241 t a a;
#X obj 84 340 sqrt;
#X obj 84 290 list-reduce;
#X obj 170 290 +;
#X obj 124 360 t b a;
#X obj 150 130 inlet reference;
#X obj 80 130 inlet test;
#X obj 294 247 inlet radius;
#X obj 94 410 outlet;
#X obj 94 380 <= 1;
#X floatatom 40 320 5 0 0 0 - - -, f 5;
#X connect 0 0 5 0;
#X connect 0 1 1 0;
#X connect 1 0 3 0;
#X connect 2 0 0 2;
#X connect 3 0 2 0;
#X connect 3 1 2 1;
#X connect 4 0 12 0;
#X connect 5 0 4 0;
#X connect 5 0 13 0;
#X connect 5 1 6 0;
#X connect 6 0 5 1;
#X connect 7 0 12 0;
#X connect 7 1 12 1;
#X connect 8 0 0 1;
#X connect 9 0 0 0;
#X connect 10 0 7 0;
#X connect 12 0 11 0;
#X restore 30 110 pd collide;
#X obj 50 140 tgl 24 0 empty empty hit? 28 7 1 10 #fcfcfc #000000 #000000
0 1;
#X obj 130 110 loadbang;
#X obj 73 232 tgl 15 0 empty empty empty 17 7 0 10 #fcfcfc #000000
#000000 0 1;
#X obj 103 232 bng 15 250 50 0 empty empty empty 17 7 0 10 #fcfcfc
#000000 #000000;
#X obj 133 232 tgl 15 0 empty empty empty 17 7 0 10 #fcfcfc #000000
#000000 1 1;
#X obj 23 202 spigot;
#X obj 123 202 spigot;
#X obj 23 172 receive reset;
#X obj 193 222 loadbang;
#X obj 143 172 receive start;
#X obj 43 272 spigot;
#X obj 130 140 delay 100;
#X obj 290 210 pix_image;
#X obj 320 130 loadbang;
#X obj 290 280 pix_texture;
#X msg 360 230 env \$1;
#X obj 360 210 hradio 15 1 0 6 empty empty empty 0 -6 0 8 #fcfcfc #000000
#000000 2;
#X obj 290 310 colorRGB 1 0 0;
#X obj 290 340 translateXYZ -2 1 0;
#X msg 360 190 2;
#X msg 320 160 open Art/Enemy1.png;
#X obj 30 70 pack 0 0;
#X obj 50 30 delay 100;
#X msg 50 50 10;
#X obj 290 370 square 0.25;
#X obj 20 360 send hit7;
#X connect 0 0 6 2;
#X connect 1 0 3 0;
#X connect 1 0 6 1;
#X connect 2 0 19 0;
#X connect 3 0 25 1;
#X connect 3 1 25 2;
#X connect 3 1 28 1;
#X connect 4 1 32 0;
#X connect 5 0 28 0;
#X connect 5 0 29 0;
#X connect 6 0 7 0;
#X connect 7 0 17 0;
#X connect 8 0 18 0;
#X connect 9 0 10 0;
#X connect 9 0 12 1;
#X connect 9 0 17 1;
#X connect 10 0 11 0;
#X connect 11 0 13 1;
#X connect 12 0 9 0;
#X connect 13 0 9 0;
#X connect 14 0 12 0;
#X connect 15 0 11 0;
#X connect 16 0 13 0;
#X connect 17 0 4 0;
#X connect 18 0 7 0;
#X connect 19 0 21 0;
#X connect 20 0 27 0;
#X connect 20 0 26 0;
#X connect 21 0 24 0;
#X connect 22 0 21 0;
#X connect 23 0 22 0;
#X connect 23 0 21 0;
#X connect 24 0 25 0;
#X connect 25 0 31 0;
#X connect 26 0 23 0;
#X connect 27 0 19 0;
#X connect 28 0 6 0;
#X connect 29 0 30 0;
#X connect 30 0 28 0;
#X restore 10 210 pd attack_collision;
#X floatatom 260 180 5 0 0 1 - - -, f 5;
#X obj 260 140 loadbang;
#N canvas 868 136 502 414 attack 0;
#X obj 130 180 outlet;
#X obj 30 30 receive attack_pos;
#X obj 171 31 receive attack;
#X obj 171 91 tgl 15 0 empty empty empty 17 7 0 10 #fcfcfc #000000
#000000 0 1;
#X obj 191 61 delay 200;
#X obj 130 130 spigot;
#X floatatom 90 160 5 0 0 0 - - -, f 5;
#X connect 1 0 5 0;
#X connect 2 0 3 0;
#X connect 2 0 4 0;
#X connect 3 0 5 1;
#X connect 4 0 3 0;
#X connect 5 0 0 0;
#X connect 5 0 6 0;
#X restore 170 130 pd attack;
#N canvas 668 264 734 594 attack_collision 0;
#X obj 340 50 inlet radius;
#X obj 240 50 inlet reference;
#X obj 290 100 gemhead;
#X obj 390 80 unpack 0 0;
#X obj 20 310 select 0 1;
#X obj 30 0 inlet test;
#N canvas 876 256 554 529 collide 0;
#X obj 91 217 list-map2;
#X obj 171 218 -;
#X obj 171 265 *;
#X obj 171 241 t a a;
#X obj 84 340 sqrt;
#X obj 84 290 list-reduce;
#X obj 170 290 +;
#X obj 124 360 t b a;
#X obj 150 130 inlet reference;
#X obj 80 130 inlet test;
#X obj 294 247 inlet radius;
#X obj 94 410 outlet;
#X obj 94 380 <= 1;
#X floatatom 40 320 5 0 0 0 - - -, f 5;
#X connect 0 0 5 0;
#X connect 0 1 1 0;
#X connect 1 0 3 0;
#X connect 2 0 0 2;
#X connect 3 0 2 0;
#X connect 3 1 2 1;
#X connect 4 0 12 0;
#X connect 5 0 4 0;
#X connect 5 0 13 0;
#X connect 5 1 6 0;
#X connect 6 0 5 1;
#X connect 7 0 12 0;
#X connect 7 1 12 1;
#X connect 8 0 0 1;
#X connect 9 0 0 0;
#X connect 10 0 7 0;
#X connect 12 0 11 0;
#X restore 30 110 pd collide;
#X obj 50 140 tgl 24 0 empty empty hit? 28 7 1 10 #fcfcfc #000000 #000000
0 1;
#X obj 130 110 loadbang;
#X obj 73 232 tgl 15 0 empty empty empty 17 7 0 10 #fcfcfc #000000
#000000 0 1;
#X obj 103 232 bng 15 250 50 0 empty empty empty 17 7 0 10 #fcfcfc
#000000 #000000;
#X obj 133 232 tgl 15 0 empty empty empty 17 7 0 10 #fcfcfc #000000
#000000 1 1;
#X obj 23 202 spigot;
#X obj 123 202 spigot;
#X obj 23 172 receive reset;
#X obj 193 222 loadbang;
#X obj 143 172 receive start;
#X obj 43 272 spigot;
#X obj 130 140 delay 100;
#X obj 290 210 pix_image;
#X obj 320 130 loadbang;
#X obj 290 280 pix_texture;
#X msg 360 230 env \$1;
#X obj 360 210 hradio 15 1 0 6 empty empty empty 0 -6 0 8 #fcfcfc #000000
#000000 2;
#X obj 290 310 colorRGB 1 0 0;
#X obj 290 340 translateXYZ -2 1 0;
#X msg 360 190 2;
#X msg 320 160 open Art/Enemy1.png;
#X obj 30 70 pack 0 0;
#X obj 50 30 delay 100;
#X msg 50 50 10;
#X obj 290 370 square 0.25;
#X obj 20 360 send hit8;
#X connect 0 0 6 2;
#X connect 1 0 3 0;
#X connect 1 0 6 1;
#X connect 2 0 19 0;
#X connect 3 0 25 1;
#X connect 3 1 25 2;
#X connect 3 1 28 1;
#X connect 4 1 32 0;
#X connect 5 0 28 0;
#X connect 5 0 29 0;
#X connect 6 0 7 0;
#X connect 7 0 17 0;
#X connect 8 0 18 0;
#X connect 9 0 10 0;
#X connect 9 0 12 1;
#X connect 9 0 17 1;
#X connect 10 0 11 0;
#X connect 11 0 13 1;
#X connect 12 0 9 0;
#X connect 13 0 9 0;
#X connect 14 0 12 0;
#X connect 15 0 11 0;
#X connect 16 0 13 0;
#X connect 17 0 4 0;
#X connect 18 0 7 0;
#X connect 19 0 21 0;
#X connect 20 0 27 0;
#X connect 20 0 26 0;
#X connect 21 0 24 0;
#X connect 22 0 21 0;
#X connect 23 0 22 0;
#X connect 23 0 21 0;
#X connect 24 0 25 0;
#X connect 25 0 31 0;
#X connect 26 0 23 0;
#X connect 27 0 19 0;
#X connect 28 0 6 0;
#X connect 29 0 30 0;
#X connect 30 0 28 0;
#X restore 170 210 pd attack_collision;
#X floatatom 410 180 5 0 0 1 - - -, f 5;
#X obj 410 140 loadbang;
#N canvas 868 136 502 414 attack 0;
#X obj 130 180 outlet;
#X obj 30 30 receive attack_pos;
#X obj 171 31 receive attack;
#X obj 171 91 tgl 15 0 empty empty empty 17 7 0 10 #fcfcfc #000000
#000000 0 1;
#X obj 191 61 delay 200;
#X obj 130 130 spigot;
#X floatatom 90 160 5 0 0 0 - - -, f 5;
#X connect 1 0 5 0;
#X connect 2 0 3 0;
#X connect 2 0 4 0;
#X connect 3 0 5 1;
#X connect 4 0 3 0;
#X connect 5 0 0 0;
#X connect 5 0 6 0;
#X restore 320 130 pd attack;
#N canvas 676 260 734 594 attack_collision 0;
#X obj 340 50 inlet radius;
#X obj 240 50 inlet reference;
#X obj 290 100 gemhead;
#X obj 390 80 unpack 0 0;
#X obj 20 310 select 0 1;
#X obj 30 0 inlet test;
#N canvas 876 256 554 529 collide 0;
#X obj 91 217 list-map2;
#X obj 171 218 -;
#X obj 171 265 *;
#X obj 171 241 t a a;
#X obj 84 340 sqrt;
#X obj 84 290 list-reduce;
#X obj 170 290 +;
#X obj 124 360 t b a;
#X obj 150 130 inlet reference;
#X obj 80 130 inlet test;
#X obj 294 247 inlet radius;
#X obj 94 410 outlet;
#X obj 94 380 <= 1;
#X floatatom 40 320 5 0 0 0 - - -, f 5;
#X connect 0 0 5 0;
#X connect 0 1 1 0;
#X connect 1 0 3 0;
#X connect 2 0 0 2;
#X connect 3 0 2 0;
#X connect 3 1 2 1;
#X connect 4 0 12 0;
#X connect 5 0 4 0;
#X connect 5 0 13 0;
#X connect 5 1 6 0;
#X connect 6 0 5 1;
#X connect 7 0 12 0;
#X connect 7 1 12 1;
#X connect 8 0 0 1;
#X connect 9 0 0 0;
#X connect 10 0 7 0;
#X connect 12 0 11 0;
#X restore 30 110 pd collide;
#X obj 50 140 tgl 24 0 empty empty hit? 28 7 1 10 #fcfcfc #000000 #000000
0 1;
#X obj 130 110 loadbang;
#X obj 73 232 tgl 15 0 empty empty empty 17 7 0 10 #fcfcfc #000000
#000000 0 1;
#X obj 103 232 bng 15 250 50 0 empty empty empty 17 7 0 10 #fcfcfc
#000000 #000000;
#X obj 133 232 tgl 15 0 empty empty empty 17 7 0 10 #fcfcfc #000000
#000000 1 1;
#X obj 23 202 spigot;
#X obj 123 202 spigot;
#X obj 23 172 receive reset;
#X obj 193 222 loadbang;
#X obj 143 172 receive start;
#X obj 43 272 spigot;
#X obj 130 140 delay 100;
#X obj 290 210 pix_image;
#X obj 320 130 loadbang;
#X obj 290 280 pix_texture;
#X msg 360 230 env \$1;
#X obj 360 210 hradio 15 1 0 6 empty empty empty 0 -6 0 8 #fcfcfc #000000
#000000 2;
#X obj 290 310 colorRGB 1 0 0;
#X obj 290 340 translateXYZ -2 1 0;
#X msg 360 190 2;
#X msg 320 160 open Art/Enemy1.png;
#X obj 30 70 pack 0 0;
#X obj 50 30 delay 100;
#X msg 50 50 10;
#X obj 290 370 square 0.25;
#X obj 20 360 send hit9;
#X connect 0 0 6 2;
#X connect 1 0 3 0;
#X connect 1 0 6 1;
#X connect 2 0 19 0;
#X connect 3 0 25 1;
#X connect 3 1 25 2;
#X connect 3 1 28 1;
#X connect 4 1 32 0;
#X connect 5 0 28 0;
#X connect 5 0 29 0;
#X connect 6 0 7 0;
#X connect 7 0 17 0;
#X connect 8 0 18 0;
#X connect 9 0 10 0;
#X connect 9 0 12 1;
#X connect 9 0 17 1;
#X connect 10 0 11 0;
#X connect 11 0 13 1;
#X connect 12 0 9 0;
#X connect 13 0 9 0;
#X connect 14 0 12 0;
#X connect 15 0 11 0;
#X connect 16 0 13 0;
#X connect 17 0 4 0;
#X connect 18 0 7 0;
#X connect 19 0 21 0;
#X connect 20 0 27 0;
#X connect 20 0 26 0;
#X connect 21 0 24 0;
#X connect 22 0 21 0;
#X connect 23 0 22 0;
#X connect 23 0 21 0;
#X connect 24 0 25 0;
#X connect 25 0 31 0;
#X connect 26 0 23 0;
#X connect 27 0 19 0;
#X connect 28 0 6 0;
#X connect 29 0 30 0;
#X connect 30 0 28 0;
#X restore 320 210 pd attack_collision;
#X floatatom 560 180 5 0 0 1 - - -, f 5;
#X obj 560 140 loadbang;
#N canvas 868 136 502 414 attack 0;
#X obj 130 180 outlet;
#X obj 30 30 receive attack_pos;
#X obj 171 31 receive attack;
#X obj 171 91 tgl 15 0 empty empty empty 17 7 0 10 #fcfcfc #000000
#000000 0 1;
#X obj 191 61 delay 200;
#X obj 130 130 spigot;
#X floatatom 90 160 5 0 0 0 - - -, f 5;
#X connect 1 0 5 0;
#X connect 2 0 3 0;
#X connect 2 0 4 0;
#X connect 3 0 5 1;
#X connect 4 0 3 0;
#X connect 5 0 0 0;
#X connect 5 0 6 0;
#X restore 470 130 pd attack;
#N canvas 692 270 730 595 attack_collision 0;
#X obj 340 50 inlet radius;
#X obj 240 50 inlet reference;
#X obj 290 100 gemhead;
#X obj 390 80 unpack 0 0;
#X obj 20 310 select 0 1;
#X obj 30 0 inlet test;
#N canvas 876 256 554 529 collide 0;
#X obj 91 217 list-map2;
#X obj 171 218 -;
#X obj 171 265 *;
#X obj 171 241 t a a;
#X obj 84 340 sqrt;
#X obj 84 290 list-reduce;
#X obj 170 290 +;
#X obj 124 360 t b a;
#X obj 150 130 inlet reference;
#X obj 80 130 inlet test;
#X obj 294 247 inlet radius;
#X obj 94 410 outlet;
#X obj 94 380 <= 1;
#X floatatom 40 320 5 0 0 0 - - -, f 5;
#X connect 0 0 5 0;
#X connect 0 1 1 0;
#X connect 1 0 3 0;
#X connect 2 0 0 2;
#X connect 3 0 2 0;
#X connect 3 1 2 1;
#X connect 4 0 12 0;
#X connect 5 0 4 0;
#X connect 5 0 13 0;
#X connect 5 1 6 0;
#X connect 6 0 5 1;
#X connect 7 0 12 0;
#X connect 7 1 12 1;
#X connect 8 0 0 1;
#X connect 9 0 0 0;
#X connect 10 0 7 0;
#X connect 12 0 11 0;
#X restore 30 110 pd collide;
#X obj 50 140 tgl 24 0 empty empty hit? 28 7 1 10 #fcfcfc #000000 #000000
0 1;
#X obj 130 110 loadbang;
#X obj 73 232 tgl 15 0 empty empty empty 17 7 0 10 #fcfcfc #000000
#000000 0 1;
#X obj 103 232 bng 15 250 50 0 empty empty empty 17 7 0 10 #fcfcfc
#000000 #000000;
#X obj 133 232 tgl 15 0 empty empty empty 17 7 0 10 #fcfcfc #000000
#000000 1 1;
#X obj 23 202 spigot;
#X obj 123 202 spigot;
#X obj 23 172 receive reset;
#X obj 193 222 loadbang;
#X obj 143 172 receive start;
#X obj 43 272 spigot;
#X obj 130 140 delay 100;
#X obj 290 210 pix_image;
#X obj 320 130 loadbang;
#X obj 290 280 pix_texture;
#X msg 360 230 env \$1;
#X obj 360 210 hradio 15 1 0 6 empty empty empty 0 -6 0 8 #fcfcfc #000000
#000000 2;
#X obj 290 310 colorRGB 1 0 0;
#X obj 290 340 translateXYZ -2 1 0;
#X msg 360 190 2;
#X msg 320 160 open Art/Enemy1.png;
#X obj 30 70 pack 0 0;
#X obj 50 30 delay 100;
#X msg 50 50 10;
#X obj 290 370 square 0.25;
#X obj 20 360 send hit10;
#X connect 0 0 6 2;
#X connect 1 0 3 0;
#X connect 1 0 6 1;
#X connect 2 0 19 0;
#X connect 3 0 25 1;
#X connect 3 1 25 2;
#X connect 3 1 28 1;
#X connect 4 1 32 0;
#X connect 5 0 28 0;
#X connect 5 0 29 0;
#X connect 6 0 7 0;
#X connect 7 0 17 0;
#X connect 8 0 18 0;
#X connect 9 0 10 0;
#X connect 9 0 12 1;
#X connect 9 0 17 1;
#X connect 10 0 11 0;
#X connect 11 0 13 1;
#X connect 12 0 9 0;
#X connect 13 0 9 0;
#X connect 14 0 12 0;
#X connect 15 0 11 0;
#X connect 16 0 13 0;
#X connect 17 0 4 0;
#X connect 18 0 7 0;
#X connect 19 0 21 0;
#X connect 20 0 27 0;
#X connect 20 0 26 0;
#X connect 21 0 24 0;
#X connect 22 0 21 0;
#X connect 23 0 22 0;
#X connect 23 0 21 0;
#X connect 24 0 25 0;
#X connect 25 0 31 0;
#X connect 26 0 23 0;
#X connect 27 0 19 0;
#X connect 28 0 6 0;
#X connect 29 0 30 0;
#X connect 30 0 28 0;
#X restore 470 210 pd attack_collision;
#X floatatom 710 180 5 0 0 1 - - -, f 5;
#X obj 710 140 loadbang;
#N canvas 868 136 502 414 attack 0;
#X obj 130 180 outlet;
#X obj 30 30 receive attack_pos;
#X obj 171 31 receive attack;
#X obj 171 91 tgl 15 0 empty empty empty 17 7 0 10 #fcfcfc #000000
#000000 0 1;
#X obj 191 61 delay 200;
#X obj 130 130 spigot;
#X floatatom 90 160 5 0 0 0 - - -, f 5;
#X connect 1 0 5 0;
#X connect 2 0 3 0;
#X connect 2 0 4 0;
#X connect 3 0 5 1;
#X connect 4 0 3 0;
#X connect 5 0 0 0;
#X connect 5 0 6 0;
#X restore 620 130 pd attack;
#N canvas 680 268 734 597 attack_collision 0;
#X obj 340 50 inlet radius;
#X obj 240 50 inlet reference;
#X obj 290 100 gemhead;
#X obj 390 80 unpack 0 0;
#X obj 20 310 select 0 1;
#X obj 30 0 inlet test;
#N canvas 876 256 554 529 collide 0;
#X obj 91 217 list-map2;
#X obj 171 218 -;
#X obj 171 265 *;
#X obj 171 241 t a a;
#X obj 84 340 sqrt;
#X obj 84 290 list-reduce;
#X obj 170 290 +;
#X obj 124 360 t b a;
#X obj 150 130 inlet reference;
#X obj 80 130 inlet test;
#X obj 294 247 inlet radius;
#X obj 94 410 outlet;
#X obj 94 380 <= 1;
#X floatatom 40 320 5 0 0 0 - - -, f 5;
#X connect 0 0 5 0;
#X connect 0 1 1 0;
#X connect 1 0 3 0;
#X connect 2 0 0 2;
#X connect 3 0 2 0;
#X connect 3 1 2 1;
#X connect 4 0 12 0;
#X connect 5 0 4 0;
#X connect 5 0 13 0;
#X connect 5 1 6 0;
#X connect 6 0 5 1;
#X connect 7 0 12 0;
#X connect 7 1 12 1;
#X connect 8 0 0 1;
#X connect 9 0 0 0;
#X connect 10 0 7 0;
#X connect 12 0 11 0;
#X restore 30 110 pd collide;
#X obj 50 140 tgl 24 0 empty empty hit? 28 7 1 10 #fcfcfc #000000 #000000
0 1;
#X obj 130 110 loadbang;
#X obj 73 232 tgl 15 0 empty empty empty 17 7 0 10 #fcfcfc #000000
#000000 0 1;
#X obj 103 232 bng 15 250 50 0 empty empty empty 17 7 0 10 #fcfcfc
#000000 #000000;
#X obj 133 232 tgl 15 0 empty empty empty 17 7 0 10 #fcfcfc #000000
#000000 1 1;
#X obj 23 202 spigot;
#X obj 123 202 spigot;
#X obj 23 172 receive reset;
#X obj 193 222 loadbang;
#X obj 143 172 receive start;
#X obj 43 272 spigot;
#X obj 130 140 delay 100;
#X obj 290 210 pix_image;
#X obj 320 130 loadbang;
#X obj 290 280 pix_texture;
#X msg 360 230 env \$1;
#X obj 360 210 hradio 15 1 0 6 empty empty empty 0 -6 0 8 #fcfcfc #000000
#000000 2;
#X obj 290 310 colorRGB 1 0 0;
#X obj 290 340 translateXYZ -2 1 0;
#X msg 360 190 2;
#X msg 320 160 open Art/Enemy1.png;
#X obj 30 70 pack 0 0;
#X obj 50 30 delay 100;
#X msg 50 50 10;
#X obj 290 370 square 0.25;
#X obj 20 360 send hit11;
#X connect 0 0 6 2;
#X connect 1 0 3 0;
#X connect 1 0 6 1;
#X connect 2 0 19 0;
#X connect 3 0 25 1;
#X connect 3 1 25 2;
#X connect 3 1 28 1;
#X connect 4 1 32 0;
#X connect 5 0 28 0;
#X connect 5 0 29 0;
#X connect 6 0 7 0;
#X connect 7 0 17 0;
#X connect 8 0 18 0;
#X connect 9 0 10 0;
#X connect 9 0 12 1;
#X connect 9 0 17 1;
#X connect 10 0 11 0;
#X connect 11 0 13 1;
#X connect 12 0 9 0;
#X connect 13 0 9 0;
#X connect 14 0 12 0;
#X connect 15 0 11 0;
#X connect 16 0 13 0;
#X connect 17 0 4 0;
#X connect 18 0 7 0;
#X connect 19 0 21 0;
#X connect 20 0 27 0;
#X connect 20 0 26 0;
#X connect 21 0 24 0;
#X connect 22 0 21 0;
#X connect 23 0 22 0;
#X connect 23 0 21 0;
#X connect 24 0 25 0;
#X connect 25 0 31 0;
#X connect 26 0 23 0;
#X connect 27 0 19 0;
#X connect 28 0 6 0;
#X connect 29 0 30 0;
#X connect 30 0 28 0;
#X restore 620 210 pd attack_collision;
#X floatatom 860 180 5 0 0 1 - - -, f 5;
#X obj 860 140 loadbang;
#N canvas 868 136 502 414 attack 0;
#X obj 130 180 outlet;
#X obj 30 30 receive attack_pos;
#X obj 171 31 receive attack;
#X obj 171 91 tgl 15 0 empty empty empty 17 7 0 10 #fcfcfc #000000
#000000 0 1;
#X obj 191 61 delay 200;
#X obj 130 130 spigot;
#X floatatom 90 160 5 0 0 0 - - -, f 5;
#X connect 1 0 5 0;
#X connect 2 0 3 0;
#X connect 2 0 4 0;
#X connect 3 0 5 1;
#X connect 4 0 3 0;
#X connect 5 0 0 0;
#X connect 5 0 6 0;
#X restore 770 130 pd attack;
#N canvas 668 156 730 590 attack_collision 0;
#X obj 340 50 inlet radius;
#X obj 240 50 inlet reference;
#X obj 290 100 gemhead;
#X obj 390 80 unpack 0 0;
#X obj 20 310 select 0 1;
#X obj 30 0 inlet test;
#N canvas 876 256 554 529 collide 0;
#X obj 91 217 list-map2;
#X obj 171 218 -;
#X obj 171 265 *;
#X obj 171 241 t a a;
#X obj 84 340 sqrt;
#X obj 84 290 list-reduce;
#X obj 170 290 +;
#X obj 124 360 t b a;
#X obj 150 130 inlet reference;
#X obj 80 130 inlet test;
#X obj 294 247 inlet radius;
#X obj 94 410 outlet;
#X obj 94 380 <= 1;
#X floatatom 40 320 5 0 0 0 - - -, f 5;
#X connect 0 0 5 0;
#X connect 0 1 1 0;
#X connect 1 0 3 0;
#X connect 2 0 0 2;
#X connect 3 0 2 0;
#X connect 3 1 2 1;
#X connect 4 0 12 0;
#X connect 5 0 4 0;
#X connect 5 0 13 0;
#X connect 5 1 6 0;
#X connect 6 0 5 1;
#X connect 7 0 12 0;
#X connect 7 1 12 1;
#X connect 8 0 0 1;
#X connect 9 0 0 0;
#X connect 10 0 7 0;
#X connect 12 0 11 0;
#X restore 30 110 pd collide;
#X obj 50 140 tgl 24 0 empty empty hit? 28 7 1 10 #fcfcfc #000000 #000000
0 1;
#X obj 130 110 loadbang;
#X obj 73 232 tgl 15 0 empty empty empty 17 7 0 10 #fcfcfc #000000
#000000 0 1;
#X obj 103 232 bng 15 250 50 0 empty empty empty 17 7 0 10 #fcfcfc
#000000 #000000;
#X obj 133 232 tgl 15 0 empty empty empty 17 7 0 10 #fcfcfc #000000
#000000 1 1;
#X obj 23 202 spigot;
#X obj 123 202 spigot;
#X obj 23 172 receive reset;
#X obj 193 222 loadbang;
#X obj 143 172 receive start;
#X obj 43 272 spigot;
#X obj 130 140 delay 100;
#X obj 290 210 pix_image;
#X obj 320 130 loadbang;
#X obj 290 280 pix_texture;
#X msg 360 230 env \$1;
#X obj 360 210 hradio 15 1 0 6 empty empty empty 0 -6 0 8 #fcfcfc #000000
#000000 2;
#X obj 290 310 colorRGB 1 0 0;
#X obj 290 340 translateXYZ -2 1 0;
#X msg 360 190 2;
#X msg 320 160 open Art/Enemy1.png;
#X obj 30 70 pack 0 0;
#X obj 50 30 delay 100;
#X msg 50 50 10;
#X obj 290 370 square 0.25;
#X obj 20 360 send hit12;
#X connect 0 0 6 2;
#X connect 1 0 3 0;
#X connect 1 0 6 1;
#X connect 2 0 19 0;
#X connect 3 0 25 1;
#X connect 3 1 25 2;
#X connect 3 1 28 1;
#X connect 4 1 32 0;
#X connect 5 0 28 0;
#X connect 5 0 29 0;
#X connect 6 0 7 0;
#X connect 7 0 17 0;
#X connect 8 0 18 0;
#X connect 9 0 10 0;
#X connect 9 0 12 1;
#X connect 9 0 17 1;
#X connect 10 0 11 0;
#X connect 11 0 13 1;
#X connect 12 0 9 0;
#X connect 13 0 9 0;
#X connect 14 0 12 0;
#X connect 15 0 11 0;
#X connect 16 0 13 0;
#X connect 17 0 4 0;
#X connect 18 0 7 0;
#X connect 19 0 21 0;
#X connect 20 0 27 0;
#X connect 20 0 26 0;
#X connect 21 0 24 0;
#X connect 22 0 21 0;
#X connect 23 0 22 0;
#X connect 23 0 21 0;
#X connect 24 0 25 0;
#X connect 25 0 31 0;
#X connect 26 0 23 0;
#X connect 27 0 19 0;
#X connect 28 0 6 0;
#X connect 29 0 30 0;
#X connect 30 0 28 0;
#X restore 770 210 pd attack_collision;
#X msg 100 160 0.25;
#X msg 260 160 0.25;
#X msg 410 160 0.25;
#X msg 560 160 0.25;
#X msg 710 160 0.25;
#X msg 860 160 0.25;
#N canvas 688 84 598 670 Enemy12 0;
#X obj 10 540 receive reset;
#X obj 200 600 outlet;
#X obj 200 580 pack 0 0;
#X obj 220 550 t b f;
#X msg 360 400 -10;
#X msg 390 400 -10;
#X obj 160 210 metro;
#X obj 160 235 bng 15 250 50 0 empty empty empty 17 7 0 10 #fcfcfc
#000000 #000000;
#X obj 230 190 int 1;
#X floatatom 230 222 5 0 0 0 - - -, f 5;
#X obj 300 232 + 1;
#X obj 100 200 sel 0;
#X obj 100 225 bng 15 250 50 0 empty empty empty 17 7 0 10 #fcfcfc
#000000 #000000;
#X msg 100 248 -1;
#X obj 40 200 loadbang;
#X obj 190 110 loadbang;
#X obj 230 271 + 1;
#X floatatom 230 300 5 0 0 0 - - -, f 5;
#X floatatom 190 160 5 0 0 0 - - -, f 5;
#X obj 40 570 receive start;
#X obj 40 600 bng 15 250 50 0 empty empty empty 17 7 0 10 #fcfcfc #000000
#000000;
#X obj 60 150 tgl 15 0 empty empty empty 17 7 0 10 #fcfcfc #000000
#000000 0 1;
#X obj 90 150 bng 15 250 50 0 empty empty empty 17 7 0 10 #fcfcfc #000000
#000000;
#X obj 120 150 tgl 15 0 empty empty empty 17 7 0 10 #fcfcfc #000000
#000000 1 1;
#X obj 10 120 spigot;
#X obj 110 120 spigot;
#X obj 10 90 receive reset;
#X obj 130 90 receive start;
#X obj 250 350 sel 4 8;
#X obj 230 242 % 8;
#X msg 250 450 \$1;
#X floatatom 220 500 5 0 0 0 - - -, f 5;
#X obj 250 390 f 4;
#X obj 150 350 sel 5 6 7;
#X obj 70 350 sel 1 2 3;
#X obj 250 425 - 0.5;
#X msg 80 380 1;
#X msg 150 380 2;
#X obj 100 439 pack f f;
#X obj 100 468 route 1 2;
#X obj 90 410 t f b;
#X obj 100 500 + 0.5;
#X obj 140 500 - 0.5;
#X floatatom 120 540 5 0 0 0 - - -, f 5;
#X obj 170 430 f -3;
#X msg 190 135 750;
#X obj 40 510 loadbang;
#X obj 360 350 receive hit12;
#X obj 20 60 receive hit12;
#X msg 40 623 2.5;
#X msg 100 620 3.5;
#X connect 0 0 20 0;
#X connect 2 0 1 0;
#X connect 3 0 2 0;
#X connect 3 1 2 1;
#X connect 4 0 2 0;
#X connect 5 0 3 0;
#X connect 6 0 7 0;
#X connect 7 0 8 0;
#X connect 8 0 9 0;
#X connect 8 0 10 0;
#X connect 9 0 29 0;
#X connect 10 0 8 1;
#X connect 11 0 12 0;
#X connect 12 0 13 0;
#X connect 13 0 8 0;
#X connect 14 0 12 0;
#X connect 15 0 45 0;
#X connect 15 0 23 0;
#X connect 16 0 17 0;
#X connect 17 0 28 0;
#X connect 17 0 33 0;
#X connect 17 0 34 0;
#X connect 18 0 6 1;
#X connect 19 0 20 0;
#X connect 20 0 49 0;
#X connect 20 0 50 0;
#X connect 21 0 22 0;
#X connect 21 0 24 1;
#X connect 21 0 11 0;
#X connect 21 0 6 0;
#X connect 22 0 23 0;
#X connect 23 0 25 1;
#X connect 24 0 21 0;
#X connect 25 0 21 0;
#X connect 26 0 24 0;
#X connect 27 0 25 0;
#X connect 28 0 32 0;
#X connect 28 1 32 0;
#X connect 29 0 16 0;
#X connect 30 0 31 0;
#X connect 31 0 3 0;
#X connect 31 0 32 1;
#X connect 32 0 35 0;
#X connect 33 0 37 0;
#X connect 33 1 37 0;
#X connect 33 2 37 0;
#X connect 34 0 36 0;
#X connect 34 1 36 0;
#X connect 34 2 36 0;
#X connect 35 0 30 0;
#X connect 36 0 40 0;
#X connect 37 0 40 0;
#X connect 38 0 39 0;
#X connect 39 0 41 0;
#X connect 39 1 42 0;
#X connect 40 0 38 0;
#X connect 40 1 44 0;
#X connect 41 0 43 0;
#X connect 42 0 43 0;
#X connect 43 0 44 1;
#X connect 43 0 2 0;
#X connect 44 0 38 1;
#X connect 45 0 18 0;
#X connect 46 0 20 0;
#X connect 47 0 4 0;
#X connect 47 0 5 0;
#X connect 48 0 24 0;
#X connect 49 0 2 0;
#X connect 49 0 43 0;
#X connect 50 0 3 0;
#X connect 50 0 31 0;
#X restore 790 180 pd Enemy12;
#N canvas 688 84 598 670 Enemy11 0;
#X obj 10 540 receive reset;
#X obj 200 600 outlet;
#X obj 200 580 pack 0 0;
#X obj 220 550 t b f;
#X msg 360 400 -10;
#X msg 390 400 -10;
#X obj 160 210 metro;
#X obj 160 235 bng 15 250 50 0 empty empty empty 17 7 0 10 #fcfcfc
#000000 #000000;
#X obj 230 190 int 1;
#X floatatom 230 222 5 0 0 0 - - -, f 5;
#X obj 300 232 + 1;
#X obj 100 200 sel 0;
#X obj 100 225 bng 15 250 50 0 empty empty empty 17 7 0 10 #fcfcfc
#000000 #000000;
#X msg 100 248 -1;
#X obj 40 200 loadbang;
#X obj 190 110 loadbang;
#X obj 230 271 + 1;
#X floatatom 230 300 5 0 0 0 - - -, f 5;
#X floatatom 190 160 5 0 0 0 - - -, f 5;
#X obj 40 570 receive start;
#X obj 40 600 bng 15 250 50 0 empty empty empty 17 7 0 10 #fcfcfc #000000
#000000;
#X obj 60 150 tgl 15 0 empty empty empty 17 7 0 10 #fcfcfc #000000
#000000 0 1;
#X obj 90 150 bng 15 250 50 0 empty empty empty 17 7 0 10 #fcfcfc #000000
#000000;
#X obj 120 150 tgl 15 0 empty empty empty 17 7 0 10 #fcfcfc #000000
#000000 1 1;
#X obj 10 120 spigot;
#X obj 110 120 spigot;
#X obj 10 90 receive reset;
#X obj 130 90 receive start;
#X obj 250 350 sel 4 8;
#X obj 230 242 % 8;
#X msg 250 450 \$1;
#X floatatom 220 500 5 0 0 0 - - -, f 5;
#X obj 250 390 f 4;
#X obj 150 350 sel 5 6 7;
#X obj 70 350 sel 1 2 3;
#X obj 250 425 - 0.5;
#X msg 80 380 1;
#X msg 150 380 2;
#X obj 100 439 pack f f;
#X obj 100 468 route 1 2;
#X obj 90 410 t f b;
#X obj 100 500 + 0.5;
#X obj 140 500 - 0.5;
#X floatatom 120 540 5 0 0 0 - - -, f 5;
#X obj 170 430 f -3;
#X msg 190 135 750;
#X obj 40 510 loadbang;
#X obj 360 350 receive hit11;
#X obj 20 60 receive hit11;
#X msg 40 623 1.5;
#X msg 100 620 3.5;
#X connect 0 0 20 0;
#X connect 2 0 1 0;
#X connect 3 0 2 0;
#X connect 3 1 2 1;
#X connect 4 0 2 0;
#X connect 5 0 3 0;
#X connect 6 0 7 0;
#X connect 7 0 8 0;
#X connect 8 0 9 0;
#X connect 8 0 10 0;
#X connect 9 0 29 0;
#X connect 10 0 8 1;
#X connect 11 0 12 0;
#X connect 12 0 13 0;
#X connect 13 0 8 0;
#X connect 14 0 12 0;
#X connect 15 0 45 0;
#X connect 15 0 23 0;
#X connect 16 0 17 0;
#X connect 17 0 28 0;
#X connect 17 0 33 0;
#X connect 17 0 34 0;
#X connect 18 0 6 1;
#X connect 19 0 20 0;
#X connect 20 0 49 0;
#X connect 20 0 50 0;
#X connect 21 0 22 0;
#X connect 21 0 24 1;
#X connect 21 0 11 0;
#X connect 21 0 6 0;
#X connect 22 0 23 0;
#X connect 23 0 25 1;
#X connect 24 0 21 0;
#X connect 25 0 21 0;
#X connect 26 0 24 0;
#X connect 27 0 25 0;
#X connect 28 0 32 0;
#X connect 28 1 32 0;
#X connect 29 0 16 0;
#X connect 30 0 31 0;
#X connect 31 0 3 0;
#X connect 31 0 32 1;
#X connect 32 0 35 0;
#X connect 33 0 37 0;
#X connect 33 1 37 0;
#X connect 33 2 37 0;
#X connect 34 0 36 0;
#X connect 34 1 36 0;
#X connect 34 2 36 0;
#X connect 35 0 30 0;
#X connect 36 0 40 0;
#X connect 37 0 40 0;
#X connect 38 0 39 0;
#X connect 39 0 41 0;
#X connect 39 1 42 0;
#X connect 40 0 38 0;
#X connect 40 1 44 0;
#X connect 41 0 43 0;
#X connect 42 0 43 0;
#X connect 43 0 44 1;
#X connect 43 0 2 0;
#X connect 44 0 38 1;
#X connect 45 0 18 0;
#X connect 46 0 20 0;
#X connect 47 0 4 0;
#X connect 47 0 5 0;
#X connect 48 0 24 0;
#X connect 49 0 2 0;
#X connect 49 0 43 0;
#X connect 50 0 3 0;
#X connect 50 0 31 0;
#X restore 640 180 pd Enemy11;
#N canvas 688 84 598 670 Enemy10 0;
#X obj 10 540 receive reset;
#X obj 200 600 outlet;
#X obj 200 580 pack 0 0;
#X obj 220 550 t b f;
#X msg 360 400 -10;
#X msg 390 400 -10;
#X obj 160 210 metro;
#X obj 160 235 bng 15 250 50 0 empty empty empty 17 7 0 10 #fcfcfc
#000000 #000000;
#X obj 230 190 int 1;
#X floatatom 230 222 5 0 0 0 - - -, f 5;
#X obj 300 232 + 1;
#X obj 100 200 sel 0;
#X obj 100 225 bng 15 250 50 0 empty empty empty 17 7 0 10 #fcfcfc
#000000 #000000;
#X msg 100 248 -1;
#X obj 40 200 loadbang;
#X obj 190 110 loadbang;
#X obj 230 271 + 1;
#X floatatom 230 300 5 0 0 0 - - -, f 5;
#X floatatom 190 160 5 0 0 0 - - -, f 5;
#X obj 40 570 receive start;
#X obj 40 600 bng 15 250 50 0 empty empty empty 17 7 0 10 #fcfcfc #000000
#000000;
#X obj 60 150 tgl 15 0 empty empty empty 17 7 0 10 #fcfcfc #000000
#000000 0 1;
#X obj 90 150 bng 15 250 50 0 empty empty empty 17 7 0 10 #fcfcfc #000000
#000000;
#X obj 120 150 tgl 15 0 empty empty empty 17 7 0 10 #fcfcfc #000000
#000000 1 1;
#X obj 10 120 spigot;
#X obj 110 120 spigot;
#X obj 10 90 receive reset;
#X obj 130 90 receive start;
#X obj 250 350 sel 4 8;
#X obj 230 242 % 8;
#X msg 250 450 \$1;
#X floatatom 220 500 5 0 0 0 - - -, f 5;
#X obj 250 390 f 4;
#X obj 150 350 sel 5 6 7;
#X obj 70 350 sel 1 2 3;
#X obj 250 425 - 0.5;
#X msg 80 380 1;
#X msg 150 380 2;
#X obj 100 439 pack f f;
#X obj 100 468 route 1 2;
#X obj 90 410 t f b;
#X obj 100 500 + 0.5;
#X obj 140 500 - 0.5;
#X floatatom 120 540 5 0 0 0 - - -, f 5;
#X obj 170 430 f -3;
#X msg 190 135 750;
#X obj 40 510 loadbang;
#X obj 20 60 receive hit10;
#X obj 360 350 receive hit10;
#X msg 40 623 0.5;
#X msg 100 620 3.5;
#X connect 0 0 20 0;
#X connect 2 0 1 0;
#X connect 3 0 2 0;
#X connect 3 1 2 1;
#X connect 4 0 2 0;
#X connect 5 0 3 0;
#X connect 6 0 7 0;
#X connect 7 0 8 0;
#X connect 8 0 9 0;
#X connect 8 0 10 0;
#X connect 9 0 29 0;
#X connect 10 0 8 1;
#X connect 11 0 12 0;
#X connect 12 0 13 0;
#X connect 13 0 8 0;
#X connect 14 0 12 0;
#X connect 15 0 45 0;
#X connect 15 0 23 0;
#X connect 16 0 17 0;
#X connect 17 0 28 0;
#X connect 17 0 33 0;
#X connect 17 0 34 0;
#X connect 18 0 6 1;
#X connect 19 0 20 0;
#X connect 20 0 49 0;
#X connect 20 0 50 0;
#X connect 21 0 22 0;
#X connect 21 0 24 1;
#X connect 21 0 11 0;
#X connect 21 0 6 0;
#X connect 22 0 23 0;
#X connect 23 0 25 1;
#X connect 24 0 21 0;
#X connect 25 0 21 0;
#X connect 26 0 24 0;
#X connect 27 0 25 0;
#X connect 28 0 32 0;
#X connect 28 1 32 0;
#X connect 29 0 16 0;
#X connect 30 0 31 0;
#X connect 31 0 3 0;
#X connect 31 0 32 1;
#X connect 32 0 35 0;
#X connect 33 0 37 0;
#X connect 33 1 37 0;
#X connect 33 2 37 0;
#X connect 34 0 36 0;
#X connect 34 1 36 0;
#X connect 34 2 36 0;
#X connect 35 0 30 0;
#X connect 36 0 40 0;
#X connect 37 0 40 0;
#X connect 38 0 39 0;
#X connect 39 0 41 0;
#X connect 39 1 42 0;
#X connect 40 0 38 0;
#X connect 40 1 44 0;
#X connect 41 0 43 0;
#X connect 42 0 43 0;
#X connect 43 0 44 1;
#X connect 43 0 2 0;
#X connect 44 0 38 1;
#X connect 45 0 18 0;
#X connect 46 0 20 0;
#X connect 47 0 24 0;
#X connect 48 0 4 0;
#X connect 48 0 5 0;
#X connect 49 0 2 0;
#X connect 49 0 43 0;
#X connect 50 0 3 0;
#X connect 50 0 31 0;
#X restore 490 180 pd Enemy10;
#N canvas 688 84 598 670 Enemy9 0;
#X obj 10 540 receive reset;
#X obj 200 600 outlet;
#X obj 200 580 pack 0 0;
#X obj 220 550 t b f;
#X msg 360 400 -10;
#X msg 390 400 -10;
#X obj 160 210 metro;
#X obj 160 235 bng 15 250 50 0 empty empty empty 17 7 0 10 #fcfcfc
#000000 #000000;
#X obj 230 190 int 1;
#X floatatom 230 222 5 0 0 0 - - -, f 5;
#X obj 300 232 + 1;
#X obj 100 200 sel 0;
#X obj 100 225 bng 15 250 50 0 empty empty empty 17 7 0 10 #fcfcfc
#000000 #000000;
#X msg 100 248 -1;
#X obj 40 200 loadbang;
#X obj 190 110 loadbang;
#X obj 230 271 + 1;
#X floatatom 230 300 5 0 0 0 - - -, f 5;
#X floatatom 190 160 5 0 0 0 - - -, f 5;
#X obj 40 570 receive start;
#X obj 40 600 bng 15 250 50 0 empty empty empty 17 7 0 10 #fcfcfc #000000
#000000;
#X obj 60 150 tgl 15 0 empty empty empty 17 7 0 10 #fcfcfc #000000
#000000 0 1;
#X obj 90 150 bng 15 250 50 0 empty empty empty 17 7 0 10 #fcfcfc #000000
#000000;
#X obj 120 150 tgl 15 0 empty empty empty 17 7 0 10 #fcfcfc #000000
#000000 1 1;
#X obj 10 120 spigot;
#X obj 110 120 spigot;
#X obj 10 90 receive reset;
#X obj 130 90 receive start;
#X obj 250 350 sel 4 8;
#X obj 230 242 % 8;
#X msg 250 450 \$1;
#X floatatom 220 500 5 0 0 0 - - -, f 5;
#X obj 250 390 f 4;
#X obj 150 350 sel 5 6 7;
#X obj 70 350 sel 1 2 3;
#X obj 250 425 - 0.5;
#X msg 80 380 1;
#X msg 150 380 2;
#X obj 100 439 pack f f;
#X obj 100 468 route 1 2;
#X obj 90 410 t f b;
#X obj 100 500 + 0.5;
#X obj 140 500 - 0.5;
#X floatatom 120 540 5 0 0 0 - - -, f 5;
#X obj 170 430 f -3;
#X msg 190 135 750;
#X obj 30 510 loadbang;
#X obj 20 60 receive hit9;
#X obj 360 350 receive hit9;
#X msg 40 623 -0.5;
#X msg 100 620 3.5;
#X connect 0 0 20 0;
#X connect 2 0 1 0;
#X connect 3 0 2 0;
#X connect 3 1 2 1;
#X connect 4 0 2 0;
#X connect 5 0 3 0;
#X connect 6 0 7 0;
#X connect 7 0 8 0;
#X connect 8 0 9 0;
#X connect 8 0 10 0;
#X connect 9 0 29 0;
#X connect 10 0 8 1;
#X connect 11 0 12 0;
#X connect 12 0 13 0;
#X connect 13 0 8 0;
#X connect 14 0 12 0;
#X connect 15 0 45 0;
#X connect 15 0 23 0;
#X connect 16 0 17 0;
#X connect 17 0 28 0;
#X connect 17 0 33 0;
#X connect 17 0 34 0;
#X connect 18 0 6 1;
#X connect 19 0 20 0;
#X connect 20 0 49 0;
#X connect 20 0 50 0;
#X connect 21 0 22 0;
#X connect 21 0 24 1;
#X connect 21 0 11 0;
#X connect 21 0 6 0;
#X connect 22 0 23 0;
#X connect 23 0 25 1;
#X connect 24 0 21 0;
#X connect 25 0 21 0;
#X connect 26 0 24 0;
#X connect 27 0 25 0;
#X connect 28 0 32 0;
#X connect 28 1 32 0;
#X connect 29 0 16 0;
#X connect 30 0 31 0;
#X connect 31 0 3 0;
#X connect 31 0 32 1;
#X connect 32 0 35 0;
#X connect 33 0 37 0;
#X connect 33 1 37 0;
#X connect 33 2 37 0;
#X connect 34 0 36 0;
#X connect 34 1 36 0;
#X connect 34 2 36 0;
#X connect 35 0 30 0;
#X connect 36 0 40 0;
#X connect 37 0 40 0;
#X connect 38 0 39 0;
#X connect 39 0 41 0;
#X connect 39 1 42 0;
#X connect 40 0 38 0;
#X connect 40 1 44 0;
#X connect 41 0 43 0;
#X connect 42 0 43 0;
#X connect 43 0 44 1;
#X connect 43 0 2 0;
#X connect 44 0 38 1;
#X connect 45 0 18 0;
#X connect 46 0 20 0;
#X connect 47 0 24 0;
#X connect 48 0 4 0;
#X connect 48 0 5 0;
#X connect 49 0 2 0;
#X connect 49 0 43 0;
#X connect 50 0 3 0;
#X connect 50 0 31 0;
#X restore 340 180 pd Enemy9;
#N canvas 860 72 602 674 Enemy8 0;
#X obj 10 540 receive reset;
#X obj 200 600 outlet;
#X obj 200 580 pack 0 0;
#X obj 220 550 t b f;
#X msg 360 400 -10;
#X msg 390 400 -10;
#X obj 160 210 metro;
#X obj 160 235 bng 15 250 50 0 empty empty empty 17 7 0 10 #fcfcfc
#000000 #000000;
#X obj 230 190 int 1;
#X floatatom 230 222 5 0 0 0 - - -, f 5;
#X obj 300 232 + 1;
#X obj 100 200 sel 0;
#X obj 100 225 bng 15 250 50 0 empty empty empty 17 7 0 10 #fcfcfc
#000000 #000000;
#X msg 100 248 -1;
#X obj 40 200 loadbang;
#X obj 190 110 loadbang;
#X obj 230 271 + 1;
#X floatatom 230 300 5 0 0 0 - - -, f 5;
#X floatatom 190 160 5 0 0 0 - - -, f 5;
#X obj 40 570 receive start;
#X obj 40 600 bng 15 250 50 0 empty empty empty 17 7 0 10 #fcfcfc #000000
#000000;
#X obj 60 150 tgl 15 0 empty empty empty 17 7 0 10 #fcfcfc #000000
#000000 0 1;
#X obj 90 150 bng 15 250 50 0 empty empty empty 17 7 0 10 #fcfcfc #000000
#000000;
#X obj 120 150 tgl 15 0 empty empty empty 17 7 0 10 #fcfcfc #000000
#000000 1 1;
#X obj 10 120 spigot;
#X obj 110 120 spigot;
#X obj 10 90 receive reset;
#X obj 130 90 receive start;
#X obj 250 350 sel 4 8;
#X obj 230 242 % 8;
#X msg 250 450 \$1;
#X floatatom 220 500 5 0 0 0 - - -, f 5;
#X obj 250 390 f 4;
#X obj 150 350 sel 5 6 7;
#X obj 70 350 sel 1 2 3;
#X obj 250 425 - 0.5;
#X msg 80 380 1;
#X msg 150 380 2;
#X obj 100 439 pack f f;
#X obj 100 468 route 1 2;
#X obj 90 410 t f b;
#X obj 100 500 + 0.5;
#X obj 140 500 - 0.5;
#X floatatom 120 540 5 0 0 0 - - -, f 5;
#X obj 170 430 f -3;
#X msg 190 135 750;
#X obj 30 510 loadbang;
#X msg 40 623 -1.5;
#X obj 360 350 receive hit8;
#X obj 20 60 receive hit8;
#X msg 100 620 3.5;
#X connect 0 0 20 0;
#X connect 2 0 1 0;
#X connect 3 0 2 0;
#X connect 3 1 2 1;
#X connect 4 0 2 0;
#X connect 5 0 3 0;
#X connect 6 0 7 0;
#X connect 7 0 8 0;
#X connect 8 0 9 0;
#X connect 8 0 10 0;
#X connect 9 0 29 0;
#X connect 10 0 8 1;
#X connect 11 0 12 0;
#X connect 12 0 13 0;
#X connect 13 0 8 0;
#X connect 14 0 12 0;
#X connect 15 0 45 0;
#X connect 15 0 23 0;
#X connect 16 0 17 0;
#X connect 17 0 28 0;
#X connect 17 0 33 0;
#X connect 17 0 34 0;
#X connect 18 0 6 1;
#X connect 19 0 20 0;
#X connect 20 0 47 0;
#X connect 20 0 50 0;
#X connect 21 0 22 0;
#X connect 21 0 24 1;
#X connect 21 0 11 0;
#X connect 21 0 6 0;
#X connect 22 0 23 0;
#X connect 23 0 25 1;
#X connect 24 0 21 0;
#X connect 25 0 21 0;
#X connect 26 0 24 0;
#X connect 27 0 25 0;
#X connect 28 0 32 0;
#X connect 28 1 32 0;
#X connect 29 0 16 0;
#X connect 30 0 31 0;
#X connect 31 0 3 0;
#X connect 31 0 32 1;
#X connect 32 0 35 0;
#X connect 33 0 37 0;
#X connect 33 1 37 0;
#X connect 33 2 37 0;
#X connect 34 0 36 0;
#X connect 34 1 36 0;
#X connect 34 2 36 0;
#X connect 35 0 30 0;
#X connect 36 0 40 0;
#X connect 37 0 40 0;
#X connect 38 0 39 0;
#X connect 39 0 41 0;
#X connect 39 1 42 0;
#X connect 40 0 38 0;
#X connect 40 1 44 0;
#X connect 41 0 43 0;
#X connect 42 0 43 0;
#X connect 43 0 44 1;
#X connect 43 0 2 0;
#X connect 44 0 38 1;
#X connect 45 0 18 0;
#X connect 46 0 20 0;
#X connect 47 0 2 0;
#X connect 47 0 43 0;
#X connect 48 0 4 0;
#X connect 48 0 5 0;
#X connect 49 0 24 0;
#X connect 50 0 3 0;
#X connect 50 0 31 0;
#X restore 190 180 pd Enemy8;
#N canvas 688 84 598 670 Enemy7 0;
#X obj 10 540 receive reset;
#X obj 200 600 outlet;
#X obj 200 580 pack 0 0;
#X obj 220 550 t b f;
#X msg 360 400 -10;
#X msg 390 400 -10;
#X obj 160 210 metro;
#X obj 160 235 bng 15 250 50 0 empty empty empty 17 7 0 10 #fcfcfc
#000000 #000000;
#X obj 230 190 int 1;
#X floatatom 230 222 5 0 0 0 - - -, f 5;
#X obj 300 232 + 1;
#X obj 100 200 sel 0;
#X obj 100 225 bng 15 250 50 0 empty empty empty 17 7 0 10 #fcfcfc
#000000 #000000;
#X msg 100 248 -1;
#X obj 40 200 loadbang;
#X obj 190 110 loadbang;
#X obj 230 271 + 1;
#X floatatom 230 300 5 0 0 0 - - -, f 5;
#X floatatom 190 160 5 0 0 0 - - -, f 5;
#X obj 40 570 receive start;
#X obj 40 600 bng 15 250 50 0 empty empty empty 17 7 0 10 #fcfcfc #000000
#000000;
#X obj 60 150 tgl 15 0 empty empty empty 17 7 0 10 #fcfcfc #000000
#000000 0 1;
#X obj 90 150 bng 15 250 50 0 empty empty empty 17 7 0 10 #fcfcfc #000000
#000000;
#X obj 120 150 tgl 15 0 empty empty empty 17 7 0 10 #fcfcfc #000000
#000000 1 1;
#X obj 10 120 spigot;
#X obj 110 120 spigot;
#X obj 10 90 receive reset;
#X obj 130 90 receive start;
#X obj 250 350 sel 4 8;
#X obj 230 242 % 8;
#X msg 250 450 \$1;
#X floatatom 220 500 5 0 0 0 - - -, f 5;
#X obj 250 390 f 4;
#X obj 150 350 sel 5 6 7;
#X obj 70 350 sel 1 2 3;
#X obj 250 425 - 0.5;
#X msg 80 380 1;
#X msg 150 380 2;
#X obj 100 439 pack f f;
#X obj 100 468 route 1 2;
#X obj 90 410 t f b;
#X obj 100 500 + 0.5;
#X obj 140 500 - 0.5;
#X floatatom 120 540 5 0 0 0 - - -, f 5;
#X obj 170 430 f -3;
#X msg 190 135 750;
#X obj 30 510 loadbang;
#X msg 40 623 -2.5;
#X obj 20 60 receive hit7;
#X obj 360 350 receive hit7;
#X msg 100 620 3.5;
#X connect 0 0 20 0;
#X connect 2 0 1 0;
#X connect 3 0 2 0;
#X connect 3 1 2 1;
#X connect 4 0 2 0;
#X connect 5 0 3 0;
#X connect 6 0 7 0;
#X connect 7 0 8 0;
#X connect 8 0 9 0;
#X connect 8 0 10 0;
#X connect 9 0 29 0;
#X connect 10 0 8 1;
#X connect 11 0 12 0;
#X connect 12 0 13 0;
#X connect 13 0 8 0;
#X connect 14 0 12 0;
#X connect 15 0 45 0;
#X connect 15 0 23 0;
#X connect 16 0 17 0;
#X connect 17 0 28 0;
#X connect 17 0 33 0;
#X connect 17 0 34 0;
#X connect 18 0 6 1;
#X connect 19 0 20 0;
#X connect 20 0 47 0;
#X connect 20 0 50 0;
#X connect 21 0 22 0;
#X connect 21 0 24 1;
#X connect 21 0 11 0;
#X connect 21 0 6 0;
#X connect 22 0 23 0;
#X connect 23 0 25 1;
#X connect 24 0 21 0;
#X connect 25 0 21 0;
#X connect 26 0 24 0;
#X connect 27 0 25 0;
#X connect 28 0 32 0;
#X connect 28 1 32 0;
#X connect 29 0 16 0;
#X connect 30 0 31 0;
#X connect 31 0 3 0;
#X connect 31 0 32 1;
#X connect 32 0 35 0;
#X connect 33 0 37 0;
#X connect 33 1 37 0;
#X connect 33 2 37 0;
#X connect 34 0 36 0;
#X connect 34 1 36 0;
#X connect 34 2 36 0;
#X connect 35 0 30 0;
#X connect 36 0 40 0;
#X connect 37 0 40 0;
#X connect 38 0 39 0;
#X connect 39 0 41 0;
#X connect 39 1 42 0;
#X connect 40 0 38 0;
#X connect 40 1 44 0;
#X connect 41 0 43 0;
#X connect 42 0 43 0;
#X connect 43 0 44 1;
#X connect 43 0 2 0;
#X connect 44 0 38 1;
#X connect 45 0 18 0;
#X connect 46 0 20 0;
#X connect 47 0 2 0;
#X connect 47 0 43 0;
#X connect 48 0 24 0;
#X connect 49 0 4 0;
#X connect 49 0 5 0;
#X connect 50 0 3 0;
#X connect 50 0 31 0;
#X restore 30 180 pd Enemy7;
#X connect 0 0 4 2;
#X connect 1 0 30 0;
#X connect 2 0 4 1;
#X connect 3 0 4 0;
#X connect 5 0 8 2;
#X connect 6 0 31 0;
#X connect 7 0 8 0;
#X connect 9 0 12 2;
#X connect 10 0 32 0;
#X connect 11 0 12 0;
#X connect 13 0 16 2;
#X connect 14 0 33 0;
#X connect 15 0 16 0;
#X connect 17 0 8 1;
#X connect 18 0 21 2;
#X connect 19 0 34 0;
#X connect 20 0 21 0;
#X connect 22 0 25 2;
#X connect 23 0 35 0;
#X connect 24 0 25 0;
#X connect 26 0 12 1;
#X connect 27 0 16 1;
#X connect 28 0 21 1;
#X connect 29 0 25 1;
#X connect 30 0 0 0;
#X connect 31 0 5 0;
#X connect 32 0 9 0;
#X connect 33 0 13 0;
#X connect 34 0 18 0;
#X connect 35 0 22 0;
#X connect 36 0 39 2;
#X connect 37 0 60 0;
#X connect 38 0 39 0;
#X connect 40 0 43 2;
#X connect 41 0 61 0;
#X connect 42 0 43 0;
#X connect 44 0 47 2;
#X connect 45 0 62 0;
#X connect 46 0 47 0;
#X connect 48 0 51 2;
#X connect 49 0 63 0;
#X connect 50 0 51 0;
#X connect 52 0 55 2;
#X connect 53 0 64 0;
#X connect 54 0 55 0;
#X connect 56 0 59 2;
#X connect 57 0 65 0;
#X connect 58 0 59 0;
#X connect 60 0 36 0;
#X connect 61 0 40 0;
#X connect 62 0 44 0;
#X connect 63 0 48 0;
#X connect 64 0 52 0;
#X connect 65 0 56 0;
#X connect 66 0 59 1;
#X connect 67 0 55 1;
#X connect 68 0 51 1;
#X connect 69 0 47 1;
#X connect 70 0 43 1;
#X connect 71 0 39 1;
#X restore 10 150 pd Enemies_layer1;
#X connect 2 0 1 0;
#X connect 4 0 1 0;
#X connect 6 0 7 0;
#X connect 8 0 9 0;
