#N canvas 1052 453 452 302 10;
#N canvas 862 168 533 382 SpaceCraft 1;
#X obj 70 50 gemhead;
#X obj 70 260 translateXYZ;
#X obj 70 160 pix_image;
#X obj 100 80 loadbang;
#X obj 70 230 pix_texture;
#X obj 70 325 circle 0.4;
#X floatatom 90 190 5 0 0 0 - - -, f 5;
#X msg 140 180 env \$1;
#X obj 140 160 hradio 15 1 0 6 empty empty empty 0 -6 0 8 #fcfcfc #000000
#000000 1;
#X msg 140 130 2;
#X obj 70 300 colorRGB 1 0 0;
#X msg 100 110 open Art/SpaceCraft.jpeg;
#X connect 0 0 2 0;
#X connect 1 0 10 0;
#X connect 2 0 4 0;
#X connect 3 0 11 0;
#X connect 3 0 9 0;
#X connect 4 0 1 0;
#X connect 6 0 4 0;
#X connect 7 0 4 0;
#X connect 8 0 7 0;
#X connect 8 0 4 0;
#X connect 9 0 8 0;
#X connect 10 0 5 0;
#X connect 11 0 2 0;
#X restore 10 110 pd SpaceCraft;
#X obj 10 70 gemwin;
#X msg 10 10 create \, 1;
#X msg 20 30 destroy;
#X connect 2 0 1 0;
#X connect 3 0 1 0;
