#N canvas 1008 400 373 311 10;
#N canvas 847 34 539 412 SpaceCraft 1;
#X obj 10 40 gemhead;
#X obj 10 300 translateXYZ;
#X obj 10 120 pix_image;
#X obj 70 20 loadbang;
#X obj 10 190 pix_texture;
#X floatatom 30 150 5 0 0 0 - - -, f 5;
#X msg 80 140 env \$1;
#X obj 80 120 hradio 15 1 0 6 empty empty empty 0 -6 0 8 #fcfcfc #000000
#000000 2;
#X msg 80 90 2;
#X obj 10 355 square 0.4;
#X obj 190 10 key 1;
#X obj 200 140 f;
#X floatatom 110 300 5 0 0 0 - - -, f 5;
#X msg 132 246 \$1 100;
#X obj 132 275 line;
#X obj 132 154 pack f f;
#X obj 132 183 route 1 2;
#X msg 192 76 1;
#X msg 242 76 2;
#X obj 192 105 t f b;
#X obj 190 40 select 100 97;
#X obj 50 220 loadbang;
#X floatatom 50 270 5 0 0 0 - - -, f 5;
#X msg 40 70 open Art/SpaceCraft1.png;
#X msg 50 245 -3.2;
#X obj 132 212 + 0.4;
#X obj 172 212 - 0.4;
#X msg 10 20 set 55;
#X obj 110 330 send attack_pos;
#X obj 10 330 colorRGB 0 1 1;
#X connect 0 0 2 0;
#X connect 1 0 29 0;
#X connect 2 0 4 0;
#X connect 3 0 23 0;
#X connect 3 0 8 0;
#X connect 3 0 27 0;
#X connect 4 0 1 0;
#X connect 5 0 4 0;
#X connect 6 0 4 0;
#X connect 7 0 6 0;
#X connect 7 0 4 0;
#X connect 8 0 7 0;
#X connect 10 0 20 0;
#X connect 11 0 15 1;
#X connect 12 0 11 1;
#X connect 12 0 1 1;
#X connect 12 0 28 0;
#X connect 13 0 14 0;
#X connect 14 0 12 0;
#X connect 15 0 16 0;
#X connect 16 0 25 0;
#X connect 16 1 26 0;
#X connect 17 0 19 0;
#X connect 18 0 19 0;
#X connect 19 0 15 0;
#X connect 19 1 11 0;
#X connect 20 0 17 0;
#X connect 20 1 18 0;
#X connect 21 0 24 0;
#X connect 22 0 1 2;
#X connect 23 0 2 0;
#X connect 24 0 22 0;
#X connect 25 0 13 0;
#X connect 26 0 13 0;
#X connect 27 0 0 0;
#X connect 29 0 9 0;
#X restore 10 110 pd SpaceCraft;
#X obj 10 70 gemwin;
#X msg 20 30 destroy;
#N canvas 684 28 454 302 Attack_Beam 0;
#X obj 30 160 receive attack_pos;
#X obj 10 130 gemhead;
#X obj 10 190 translateXYZ 0 1 0;
#X obj 10 250 rectangle 0.02 4;
#X obj 10 40 receive attack;
#X obj 10 100 tgl 15 0 empty empty empty 17 7 0 10 #fcfcfc #000000
#000000 0 1;
#X obj 30 70 delay 200;
#X obj 160 60 key;
#X obj 160 85 select 32;
#X obj 160 190 send attack;
#X obj 160 160 spigot;
#X obj 180 130 tgl 15 0 empty empty empty 17 7 0 10 #fcfcfc #000000
#000000 1 1;
#X obj 230 90 loadbang;
#X obj 230 110 receive attack;
#X obj 230 140 delay 1200;
#X obj 10 220 colorRGB 0 1 1;
#X connect 0 0 2 1;
#X connect 1 0 2 0;
#X connect 2 0 15 0;
#X connect 4 0 5 0;
#X connect 4 0 6 0;
#X connect 5 0 1 0;
#X connect 6 0 5 0;
#X connect 7 0 8 0;
#X connect 8 0 10 0;
#X connect 10 0 9 0;
#X connect 11 0 10 1;
#X connect 12 0 11 0;
#X connect 13 0 11 0;
#X connect 13 0 14 0;
#X connect 14 0 11 0;
#X connect 15 0 3 0;
#X restore 10 130 pd Attack_Beam;
#N canvas 964 261 454 355 Enemies 1;
#X floatatom 113 72 5 0 0 1 - - -, f 5;
#X obj 113 32 loadbang;
#N canvas 768 194 531 512 Enemy1 0;
#X obj 200 480 outlet;
#N canvas 540 264 394 350 mover 0;
#X obj 60 140 line;
#X obj 200 140 line;
#X msg 70 100 \$1 3000;
#X msg 200 100 \$1 3000;
#X obj 110 190 pack 0 0;
#X floatatom 40 180 5 0 0 0 - - -, f 5;
#X floatatom 210 180 5 0 0 0 - - -, f 5;
#X obj 50 60 unpack 0 0, f 13;
#X obj 180 60 unpack 0 0, f 11;
#X obj 50 20 inlet from;
#X obj 180 20 inlet to;
#X obj 110 215 outlet atm;
#X connect 0 0 4 0;
#X connect 0 0 5 0;
#X connect 1 0 4 1;
#X connect 1 0 6 0;
#X connect 2 0 0 0;
#X connect 3 0 1 0;
#X connect 4 0 11 0;
#X connect 7 0 0 0;
#X connect 7 1 1 0;
#X connect 8 0 2 0;
#X connect 8 1 3 0;
#X connect 9 0 7 0;
#X connect 10 0 8 0;
#X restore 200 430 pd mover;
#X obj 180 220 bng 15 250 50 0 empty empty empty 17 7 0 10 #fcfcfc
#000000 #000000;
#X obj 260 30 receive respawn1;
#X obj 260 60 delay 2000;
#X obj 120 60 receive start;
#X floatatom 270 305 5 0 0 0 - - -, f 5;
#X obj 270 220 bng 15 250 50 0 empty empty empty 17 7 0 10 #fcfcfc
#000000 #000000;
#X obj 270 330 - 3;
#X obj 270 280 random 6;
#X obj 340 280 random 1000;
#X obj 340 305 / 1000;
#X obj 270 360 +;
#X floatatom 180 305 5 0 0 0 - - -, f 5;
#X obj 100 280 random 1000;
#X obj 100 305 / 1000;
#X obj 180 360 +;
#X msg 180 390 \$1 6;
#X obj 20 180 receive reset;
#X obj 180 280 random 6;
#X obj 180 330 - 3;
#X msg 270 390 \$1 -1.8;
#X obj 180 250 t b b;
#X obj 270 250 t b b;
#X obj 183 162 tgl 15 0 empty empty empty 17 7 0 10 #fcfcfc #000000
#000000 0 1;
#X obj 213 162 bng 15 250 50 0 empty empty empty 17 7 0 10 #fcfcfc
#000000 #000000;
#X obj 243 162 tgl 15 0 empty empty empty 17 7 0 10 #fcfcfc #000000
#000000 1 1;
#X obj 133 132 spigot;
#X obj 233 132 spigot;
#X obj 133 102 receive reset;
#X obj 303 152 loadbang;
#X obj 253 102 receive start;
#X obj 133 172 spigot;
#X obj 233 192 spigot;
#X obj 120 85 delay 500;
#X connect 1 0 0 0;
#X connect 2 0 22 0;
#X connect 3 0 4 0;
#X connect 3 0 2 0;
#X connect 4 0 33 0;
#X connect 5 0 34 0;
#X connect 6 0 8 0;
#X connect 7 0 23 0;
#X connect 8 0 12 0;
#X connect 9 0 6 0;
#X connect 10 0 11 0;
#X connect 11 0 12 1;
#X connect 12 0 21 0;
#X connect 13 0 20 0;
#X connect 14 0 15 0;
#X connect 15 0 16 1;
#X connect 16 0 17 0;
#X connect 17 0 1 0;
#X connect 18 0 2 0;
#X connect 19 0 13 0;
#X connect 20 0 16 0;
#X connect 21 0 1 1;
#X connect 22 0 19 0;
#X connect 22 1 14 0;
#X connect 23 0 9 0;
#X connect 23 1 10 0;
#X connect 24 0 25 0;
#X connect 24 0 27 1;
#X connect 24 0 32 1;
#X connect 24 0 33 1;
#X connect 25 0 26 0;
#X connect 26 0 28 1;
#X connect 27 0 24 0;
#X connect 28 0 24 0;
#X connect 29 0 27 0;
#X connect 30 0 26 0;
#X connect 31 0 28 0;
#X connect 32 0 2 0;
#X connect 32 0 7 0;
#X connect 33 0 7 0;
#X connect 34 0 32 0;
#X restore 43 72 pd Enemy1;
#N canvas 1032 308 494 358 attack 0;
#X obj 100 60 gemmouse 8 8;
#X obj 144 98 swap 8;
#X obj 144 124 -;
#X obj 144 146 - 4;
#X obj 100 167 pack 0 0;
#X obj 100 194 spigot;
#X obj 100 280 outlet;
#X obj 99 131 - 4;
#X obj 120 220 delay 10;
#X floatatom 210 80 5 0 0 0 - - -, f 5;
#X obj 290 70 tgl 15 0 empty empty empty 17 7 0 10 #fcfcfc #000000
#000000 0 1;
#X obj 320 70 bng 15 250 50 0 empty empty empty 17 7 0 10 #fcfcfc #000000
#000000;
#X obj 350 70 tgl 15 0 empty empty empty 17 7 0 10 #fcfcfc #000000
#000000 1 1;
#X obj 240 40 spigot;
#X obj 340 40 spigot;
#X obj 430 60 loadbang;
#X obj 210 110 bng 17 250 50 0 empty empty empty 17 7 0 10 #fcfcfc
#000000 #000000;
#X floatatom 210 200 5 0 0 0 - - -, f 5;
#X msg 210 150 1;
#X obj 240 140 bng 15 250 50 0 empty empty empty 17 7 0 10 #fcfcfc
#000000 #000000;
#X msg 240 170 0;
#X obj 240 110 delay 100;
#X obj 120 250 pack 10 10;
#X connect 0 0 7 0;
#X connect 0 1 1 0;
#X connect 0 2 9 0;
#X connect 1 0 2 0;
#X connect 1 1 2 1;
#X connect 2 0 3 0;
#X connect 3 0 4 1;
#X connect 4 0 5 0;
#X connect 5 0 6 0;
#X connect 5 0 8 0;
#X connect 7 0 4 0;
#X connect 8 0 22 0;
#X connect 9 0 16 0;
#X connect 10 0 11 0;
#X connect 11 0 12 0;
#X connect 12 0 14 1;
#X connect 12 0 13 1;
#X connect 13 0 10 0;
#X connect 14 0 10 0;
#X connect 15 0 12 0;
#X connect 16 0 18 0;
#X connect 16 0 21 0;
#X connect 17 0 5 1;
#X connect 18 0 17 0;
#X connect 19 0 20 0;
#X connect 20 0 17 0;
#X connect 21 0 19 0;
#X connect 22 0 6 0;
#X restore 23 22 pd attack;
#X msg 113 52 0.3;
#N canvas 372 185 706 588 attack_collision 1;
#X obj 430 50 inlet radius;
#X obj 330 50 inlet reference;
#X obj 290 100 gemhead;
#X obj 360 90 unpack 0 0;
#X obj 20 310 select 0 1;
#X obj 250 50 inlet test;
#N canvas 280 232 541 493 collide 0;
#X obj 91 217 list-map2;
#X obj 171 218 -;
#X obj 171 265 *;
#X obj 171 241 t a a;
#X obj 84 340 sqrt;
#X obj 84 290 list-reduce;
#X obj 170 290 +;
#X obj 124 360 t b a;
#X obj 150 130 inlet reference;
#X obj 80 130 inlet test;
#X obj 294 247 inlet radius;
#X obj 94 410 outlet;
#X obj 94 380 <= 1;
#X obj 110 90 tgl 15 0 empty empty empty 17 7 0 10 #fcfcfc #000000
#000000 0 1;
#X obj 140 90 bng 15 250 50 0 empty empty empty 17 7 0 10 #fcfcfc #000000
#000000;
#X obj 170 90 tgl 15 0 empty empty empty 17 7 0 10 #fcfcfc #000000
#000000 1 1;
#X obj 60 60 spigot;
#X obj 160 60 spigot;
#X obj 60 30 receive reset;
#X obj 230 80 loadbang;
#X obj 180 30 receive start;
#X obj 80 160 spigot;
#X obj 150 155 spigot;
#X connect 0 0 5 0;
#X connect 0 1 1 0;
#X connect 1 0 3 0;
#X connect 2 0 0 2;
#X connect 3 0 2 0;
#X connect 3 1 2 1;
#X connect 4 0 12 0;
#X connect 5 0 4 0;
#X connect 5 1 6 0;
#X connect 6 0 5 1;
#X connect 7 0 12 0;
#X connect 7 1 12 1;
#X connect 8 0 22 0;
#X connect 9 0 21 0;
#X connect 10 0 7 0;
#X connect 12 0 11 0;
#X connect 13 0 14 0;
#X connect 13 0 16 1;
#X connect 13 0 21 1;
#X connect 13 0 22 1;
#X connect 14 0 15 0;
#X connect 15 0 17 1;
#X connect 16 0 13 0;
#X connect 17 0 13 0;
#X connect 18 0 16 0;
#X connect 19 0 15 0;
#X connect 20 0 17 0;
#X connect 21 0 0 0;
#X connect 22 0 0 1;
#X restore 30 110 pd collide;
#X obj 50 140 tgl 24 0 empty empty hit? 28 7 1 10 #fcfcfc #000000 #000000
1 1;
#X msg 40 40 set 55;
#X obj 20 350 send score-space;
#X obj 40 10 loadbang;
#X obj 20 380 send respawn1;
#X obj 20 410 send destroyed;
#X obj 130 110 loadbang;
#X obj 73 232 tgl 15 0 empty empty empty 17 7 0 10 #fcfcfc #000000
#000000 0 1;
#X obj 103 232 bng 15 250 50 0 empty empty empty 17 7 0 10 #fcfcfc
#000000 #000000;
#X obj 133 232 tgl 15 0 empty empty empty 17 7 0 10 #fcfcfc #000000
#000000 1 1;
#X obj 23 202 spigot;
#X obj 123 202 spigot;
#X obj 23 172 receive reset;
#X obj 193 222 loadbang;
#X obj 143 172 receive start;
#X obj 43 272 spigot;
#X obj 130 140 delay 100;
#X obj 290 210 pix_image;
#X obj 320 130 loadbang;
#X obj 290 280 pix_texture;
#X msg 360 230 env \$1;
#X obj 360 210 hradio 15 1 0 6 empty empty empty 0 -6 0 8 #fcfcfc #000000
#000000 2;
#X obj 290 310 colorRGB 1 0 0;
#X obj 290 340 translateXYZ -2 1 0;
#X msg 360 190 2;
#X msg 320 160 open Art/Enemy1.png;
#X obj 290 370 square 0.3;
#X connect 0 0 6 2;
#X connect 1 0 3 0;
#X connect 1 0 6 1;
#X connect 2 0 24 0;
#X connect 4 1 9 0;
#X connect 4 1 11 0;
#X connect 4 1 12 0;
#X connect 5 0 6 0;
#X connect 6 0 7 0;
#X connect 7 0 22 0;
#X connect 8 0 2 0;
#X connect 10 0 8 0;
#X connect 13 0 23 0;
#X connect 14 0 15 0;
#X connect 14 0 17 1;
#X connect 14 0 22 1;
#X connect 15 0 16 0;
#X connect 16 0 18 1;
#X connect 17 0 14 0;
#X connect 18 0 14 0;
#X connect 19 0 17 0;
#X connect 20 0 16 0;
#X connect 21 0 18 0;
#X connect 22 0 4 0;
#X connect 23 0 7 0;
#X connect 24 0 26 0;
#X connect 25 0 32 0;
#X connect 25 0 31 0;
#X connect 26 0 29 0;
#X connect 27 0 26 0;
#X connect 28 0 27 0;
#X connect 28 0 26 0;
#X connect 29 0 30 0;
#X connect 30 0 33 0;
#X connect 31 0 28 0;
#X connect 32 0 24 0;
#X restore 23 102 pd attack_collision;
#X connect 0 0 5 2;
#X connect 1 0 4 0;
#X connect 2 0 5 1;
#X connect 3 0 5 0;
#X connect 4 0 0 0;
#X restore 10 150 pd Enemies;
#X msg 10 10 create \, 1;
#N canvas -25600 -25600 146 0 Enemy_shape 1;
#X obj 40 220 pix_image;
#X obj 70 140 loadbang;
#X obj 40 290 pix_texture;
#X msg 110 240 env \$1;
#X obj 110 220 hradio 15 1 0 6 empty empty empty 0 -6 0 8 #fcfcfc #000000
#000000 2;
#X obj 40 320 colorRGB 1 0 0;
#X obj 40 350 translateXYZ -2 1 0;
#X obj 220 220 pix_image;
#X obj 250 140 loadbang;
#X obj 220 290 pix_texture;
#X msg 290 240 env \$1;
#X obj 290 220 hradio 15 1 0 6 empty empty empty 0 -6 0 8 #fcfcfc #000000
#000000 2;
#X msg 110 200 2;
#X obj 40 110 gemhead;
#X obj 240 100 gemhead;
#X obj 390 220 pix_image;
#X obj 420 140 loadbang;
#X obj 390 290 pix_texture;
#X msg 460 240 env \$1;
#X obj 460 220 hradio 15 1 0 6 empty empty empty 0 -6 0 8 #fcfcfc #000000
#000000 2;
#X obj 410 100 gemhead;
#X msg 290 190 2;
#X msg 460 190 2;
#X obj 40 70 tgl 15 0 empty empty empty 17 7 0 10 #fcfcfc #000000 #000000
0 1;
#X obj 240 60 tgl 15 0 empty empty empty 17 7 0 10 #fcfcfc #000000
#000000 1 1;
#X obj 410 60 tgl 15 0 empty empty empty 17 7 0 10 #fcfcfc #000000
#000000 1 1;
#X msg 70 170 open Art/Enemy1.png;
#X obj 40 380 square 0.3;
#X msg 250 170 open Art/Enemy2.png;
#X obj 220 380 square 0.3;
#X obj 390 380 square 0.3;
#X obj 220 315 colorRGB 0 0 1;
#X msg 420 170 open Art/Enemy3.png;
#X obj 390 315 colorRGB 1 1 0;
#X obj 220 350 translateXYZ 0 1 0;
#X obj 390 350 translateXYZ 2 1 0;
#X connect 0 0 2 0;
#X connect 1 0 26 0;
#X connect 1 0 12 0;
#X connect 2 0 5 0;
#X connect 3 0 2 0;
#X connect 4 0 3 0;
#X connect 4 0 2 0;
#X connect 5 0 6 0;
#X connect 6 0 27 0;
#X connect 7 0 9 0;
#X connect 8 0 28 0;
#X connect 8 0 21 0;
#X connect 9 0 31 0;
#X connect 10 0 9 0;
#X connect 11 0 10 0;
#X connect 11 0 9 0;
#X connect 12 0 4 0;
#X connect 13 0 0 0;
#X connect 14 0 7 0;
#X connect 15 0 17 0;
#X connect 16 0 32 0;
#X connect 16 0 22 0;
#X connect 17 0 33 0;
#X connect 18 0 17 0;
#X connect 19 0 18 0;
#X connect 19 0 17 0;
#X connect 20 0 15 0;
#X connect 21 0 11 0;
#X connect 22 0 19 0;
#X connect 23 0 13 0;
#X connect 24 0 14 0;
#X connect 25 0 20 0;
#X connect 26 0 0 0;
#X connect 28 0 7 0;
#X connect 31 0 34 0;
#X connect 32 0 15 0;
#X connect 33 0 35 0;
#X connect 34 0 29 0;
#X connect 35 0 30 0;
#X restore 140 110 pd Enemy_shape;
#X obj 100 10 bng 15 250 50 0 empty empty empty 17 7 0 10 #fcfcfc #000000
#000000;
#X obj 100 33 send start;
#X obj 170 10 bng 15 250 50 0 empty empty empty 17 7 0 10 #fcfcfc #000000
#000000;
#X obj 170 33 send reset;
#X connect 2 0 1 0;
#X connect 5 0 1 0;
#X connect 7 0 8 0;
#X connect 9 0 10 0;
