#N canvas 994 2 379 342 10;
#N canvas 963 208 543 415 SpaceCraft 1;
#X obj 10 40 gemhead;
#X obj 10 300 translateXYZ;
#X obj 10 120 pix_image;
#X obj 70 20 loadbang;
#X obj 10 190 pix_texture;
#X floatatom 30 150 5 0 0 0 - - -, f 5;
#X msg 80 140 env \$1;
#X obj 80 120 hradio 15 1 0 6 empty empty empty 0 -6 0 8 #fcfcfc #000000
#000000 2;
#X msg 80 90 2;
#X obj 10 355 square 0.4;
#X obj 190 10 key 1;
#X obj 200 140 f;
#X floatatom 110 300 5 0 0 0 - - -, f 5;
#X msg 132 246 \$1 100;
#X obj 132 275 line;
#X obj 132 154 pack f f;
#X obj 132 183 route 1 2;
#X msg 192 76 1;
#X msg 242 76 2;
#X obj 192 105 t f b;
#X obj 190 40 select 100 97;
#X obj 50 220 loadbang;
#X floatatom 50 270 5 0 0 0 - - -, f 5;
#X msg 40 70 open Art/SpaceCraft1.png;
#X msg 50 245 -3.2;
#X obj 132 212 + 0.4;
#X obj 172 212 - 0.4;
#X msg 10 20 set 55;
#X obj 110 340 send attack_pos;
#X obj 10 330 colorRGB 0 1 1;
#X obj 190 260 receive attack;
#X connect 0 0 2 0;
#X connect 1 0 29 0;
#X connect 2 0 4 0;
#X connect 3 0 23 0;
#X connect 3 0 8 0;
#X connect 3 0 27 0;
#X connect 4 0 1 0;
#X connect 5 0 4 0;
#X connect 6 0 4 0;
#X connect 7 0 6 0;
#X connect 7 0 4 0;
#X connect 8 0 7 0;
#X connect 10 0 20 0;
#X connect 11 0 15 1;
#X connect 12 0 11 1;
#X connect 12 0 1 1;
#X connect 12 0 28 0;
#X connect 13 0 14 0;
#X connect 14 0 12 0;
#X connect 15 0 16 0;
#X connect 16 0 25 0;
#X connect 16 1 26 0;
#X connect 17 0 19 0;
#X connect 18 0 19 0;
#X connect 19 0 15 0;
#X connect 19 1 11 0;
#X connect 20 0 17 0;
#X connect 20 1 18 0;
#X connect 21 0 24 0;
#X connect 22 0 1 2;
#X connect 23 0 2 0;
#X connect 24 0 22 0;
#X connect 25 0 13 0;
#X connect 26 0 13 0;
#X connect 27 0 0 0;
#X connect 29 0 9 0;
#X connect 30 0 12 0;
#X restore 10 110 pd SpaceCraft;
#X obj 10 70 gemwin;
#X msg 20 30 destroy;
#N canvas 692 308 458 382 Attack_Beam 1;
#X obj 30 160 receive attack_pos;
#X obj 10 130 gemhead;
#X obj 10 190 translateXYZ 0 1 0;
#X obj 10 250 rectangle 0.02 4;
#X obj 10 40 receive attack;
#X obj 10 100 tgl 15 0 empty empty empty 17 7 0 10 #fcfcfc #000000
#000000 0 1;
#X obj 30 70 delay 200;
#X obj 160 60 key;
#X obj 160 85 select 32;
#X obj 160 190 send attack;
#X obj 160 160 spigot;
#X obj 180 130 tgl 15 0 empty empty empty 17 7 0 10 #fcfcfc #000000
#000000 1 1;
#X obj 230 90 loadbang;
#X obj 230 110 receive attack;
#X obj 230 140 delay 1200;
#X obj 10 220 colorRGB 0 1 1;
#X connect 0 0 2 1;
#X connect 1 0 2 0;
#X connect 2 0 15 0;
#X connect 4 0 5 0;
#X connect 4 0 6 0;
#X connect 5 0 1 0;
#X connect 6 0 5 0;
#X connect 7 0 8 0;
#X connect 8 0 10 0;
#X connect 10 0 9 0;
#X connect 11 0 10 1;
#X connect 12 0 11 0;
#X connect 13 0 11 0;
#X connect 13 0 14 0;
#X connect 14 0 11 0;
#X connect 15 0 3 0;
#X restore 10 130 pd Attack_Beam;
#N canvas 548 84 464 375 Enemies 1;
#X floatatom 230 80 5 0 0 1 - - -, f 5;
#X obj 230 40 loadbang;
#N canvas 768 192 534 514 Enemy1 1;
#X obj 90 240 outlet;
#X obj 90 100 loadbang;
#X obj 90 150 pack -2 1;
#X obj 160 150 pack -3 1;
#X obj 160 100 receive hit1;
#X obj 10 100 receive rese;
#X connect 1 0 2 0;
#X connect 2 0 0 0;
#X connect 3 0 0 0;
#X connect 4 0 3 0;
#X connect 5 0 2 0;
#X restore 160 80 pd Enemy1;
#N canvas 868 136 502 414 attack 0;
#X obj 130 180 outlet;
#X obj 30 30 receive attack_pos;
#X obj 171 31 receive attack;
#X obj 171 91 tgl 15 0 empty empty empty 17 7 0 10 #fcfcfc #000000
#000000 0 1;
#X obj 191 61 delay 200;
#X obj 130 130 spigot;
#X floatatom 90 160 5 0 0 0 - - -, f 5;
#X connect 1 0 5 0;
#X connect 2 0 3 0;
#X connect 2 0 4 0;
#X connect 3 0 5 1;
#X connect 4 0 3 0;
#X connect 5 0 0 0;
#X connect 5 0 6 0;
#X restore 140 30 pd attack;
#X msg 230 60 0.3;
#N canvas 770 204 718 577 attack_collision 0;
#X obj 340 50 inlet radius;
#X obj 240 50 inlet reference;
#X obj 290 100 gemhead;
#X obj 390 80 unpack 0 0;
#X obj 20 310 select 0 1;
#X obj 30 30 inlet test;
#N canvas 972 208 550 494 collide 0;
#X obj 91 217 list-map2;
#X obj 171 218 -;
#X obj 171 265 *;
#X obj 171 241 t a a;
#X obj 84 340 sqrt;
#X obj 84 290 list-reduce;
#X obj 170 290 +;
#X obj 124 360 t b a;
#X obj 150 130 inlet reference;
#X obj 80 130 inlet test;
#X obj 294 247 inlet radius;
#X obj 94 410 outlet;
#X obj 94 380 <= 1;
#X obj 110 90 tgl 15 0 empty empty empty 17 7 0 10 #fcfcfc #000000
#000000 0 1;
#X obj 140 90 bng 15 250 50 0 empty empty empty 17 7 0 10 #fcfcfc #000000
#000000;
#X obj 170 90 tgl 15 0 empty empty empty 17 7 0 10 #fcfcfc #000000
#000000 1 1;
#X obj 60 60 spigot;
#X obj 160 60 spigot;
#X obj 60 30 receive reset;
#X obj 230 80 loadbang;
#X obj 180 30 receive start;
#X obj 80 160 spigot;
#X obj 150 155 spigot;
#X floatatom 40 320 5 0 0 0 - - -, f 5;
#X connect 0 0 5 0;
#X connect 0 1 1 0;
#X connect 1 0 3 0;
#X connect 2 0 0 2;
#X connect 3 0 2 0;
#X connect 3 1 2 1;
#X connect 4 0 12 0;
#X connect 5 0 4 0;
#X connect 5 0 23 0;
#X connect 5 1 6 0;
#X connect 6 0 5 1;
#X connect 7 0 12 0;
#X connect 7 1 12 1;
#X connect 8 0 22 0;
#X connect 9 0 21 0;
#X connect 10 0 7 0;
#X connect 12 0 11 0;
#X connect 13 0 14 0;
#X connect 13 0 16 1;
#X connect 13 0 21 1;
#X connect 13 0 22 1;
#X connect 14 0 15 0;
#X connect 15 0 17 1;
#X connect 16 0 13 0;
#X connect 17 0 13 0;
#X connect 18 0 16 0;
#X connect 19 0 15 0;
#X connect 20 0 17 0;
#X connect 21 0 0 0;
#X connect 22 0 0 1;
#X restore 30 110 pd collide;
#X obj 50 140 tgl 24 0 empty empty hit? 28 7 1 10 #fcfcfc #000000 #000000
0 1;
#X obj 130 110 loadbang;
#X obj 73 232 tgl 15 0 empty empty empty 17 7 0 10 #fcfcfc #000000
#000000 0 1;
#X obj 103 232 bng 15 250 50 0 empty empty empty 17 7 0 10 #fcfcfc
#000000 #000000;
#X obj 133 232 tgl 15 0 empty empty empty 17 7 0 10 #fcfcfc #000000
#000000 1 1;
#X obj 23 202 spigot;
#X obj 123 202 spigot;
#X obj 23 172 receive reset;
#X obj 193 222 loadbang;
#X obj 143 172 receive start;
#X obj 43 272 spigot;
#X obj 130 140 delay 100;
#X obj 290 210 pix_image;
#X obj 320 130 loadbang;
#X obj 290 280 pix_texture;
#X msg 360 230 env \$1;
#X obj 360 210 hradio 15 1 0 6 empty empty empty 0 -6 0 8 #fcfcfc #000000
#000000 2;
#X obj 290 310 colorRGB 1 0 0;
#X obj 290 340 translateXYZ -2 1 0;
#X msg 360 190 2;
#X msg 320 160 open Art/Enemy1.png;
#X obj 290 370 square 0.3;
#X obj 30 70 pack 0 0;
#X obj 20 360 send hit1;
#X connect 0 0 6 2;
#X connect 1 0 3 0;
#X connect 1 0 6 1;
#X connect 2 0 19 0;
#X connect 3 0 25 1;
#X connect 3 1 25 2;
#X connect 3 1 29 1;
#X connect 4 1 30 0;
#X connect 5 0 29 0;
#X connect 6 0 7 0;
#X connect 7 0 17 0;
#X connect 8 0 18 0;
#X connect 9 0 10 0;
#X connect 9 0 12 1;
#X connect 9 0 17 1;
#X connect 10 0 11 0;
#X connect 11 0 13 1;
#X connect 12 0 9 0;
#X connect 13 0 9 0;
#X connect 14 0 12 0;
#X connect 15 0 11 0;
#X connect 16 0 13 0;
#X connect 17 0 4 0;
#X connect 18 0 7 0;
#X connect 19 0 21 0;
#X connect 20 0 27 0;
#X connect 20 0 26 0;
#X connect 21 0 24 0;
#X connect 22 0 21 0;
#X connect 23 0 22 0;
#X connect 23 0 21 0;
#X connect 24 0 25 0;
#X connect 25 0 28 0;
#X connect 26 0 23 0;
#X connect 27 0 19 0;
#X connect 29 0 6 0;
#X restore 140 110 pd attack_collision;
#X floatatom 80 70 5 0 0 0 - - -, f 5;
#X connect 0 0 5 2;
#X connect 1 0 4 0;
#X connect 2 0 5 1;
#X connect 3 0 5 0;
#X connect 3 0 6 0;
#X connect 4 0 0 0;
#X restore 10 150 pd Enemies;
#X msg 10 10 create \, 1;
#N canvas -25600 -25600 146 0 Enemy_shape 1;
#X obj 40 220 pix_image;
#X obj 70 140 loadbang;
#X obj 40 290 pix_texture;
#X msg 110 240 env \$1;
#X obj 110 220 hradio 15 1 0 6 empty empty empty 0 -6 0 8 #fcfcfc #000000
#000000 2;
#X obj 40 320 colorRGB 1 0 0;
#X obj 40 350 translateXYZ -2 1 0;
#X obj 220 220 pix_image;
#X obj 250 140 loadbang;
#X obj 220 290 pix_texture;
#X msg 290 240 env \$1;
#X obj 290 220 hradio 15 1 0 6 empty empty empty 0 -6 0 8 #fcfcfc #000000
#000000 2;
#X msg 110 200 2;
#X obj 40 110 gemhead;
#X obj 240 100 gemhead;
#X obj 390 220 pix_image;
#X obj 420 140 loadbang;
#X obj 390 290 pix_texture;
#X msg 460 240 env \$1;
#X obj 460 220 hradio 15 1 0 6 empty empty empty 0 -6 0 8 #fcfcfc #000000
#000000 2;
#X obj 410 100 gemhead;
#X msg 290 190 2;
#X msg 460 190 2;
#X obj 40 70 tgl 15 0 empty empty empty 17 7 0 10 #fcfcfc #000000 #000000
0 1;
#X obj 240 60 tgl 15 0 empty empty empty 17 7 0 10 #fcfcfc #000000
#000000 1 1;
#X obj 410 60 tgl 15 0 empty empty empty 17 7 0 10 #fcfcfc #000000
#000000 1 1;
#X msg 70 170 open Art/Enemy1.png;
#X obj 40 380 square 0.3;
#X msg 250 170 open Art/Enemy2.png;
#X obj 220 380 square 0.3;
#X obj 390 380 square 0.3;
#X obj 220 315 colorRGB 0 0 1;
#X msg 420 170 open Art/Enemy3.png;
#X obj 390 315 colorRGB 1 1 0;
#X obj 220 350 translateXYZ 0 1 0;
#X obj 390 350 translateXYZ 2 1 0;
#X connect 0 0 2 0;
#X connect 1 0 26 0;
#X connect 1 0 12 0;
#X connect 2 0 5 0;
#X connect 3 0 2 0;
#X connect 4 0 3 0;
#X connect 4 0 2 0;
#X connect 5 0 6 0;
#X connect 6 0 27 0;
#X connect 7 0 9 0;
#X connect 8 0 28 0;
#X connect 8 0 21 0;
#X connect 9 0 31 0;
#X connect 10 0 9 0;
#X connect 11 0 10 0;
#X connect 11 0 9 0;
#X connect 12 0 4 0;
#X connect 13 0 0 0;
#X connect 14 0 7 0;
#X connect 15 0 17 0;
#X connect 16 0 32 0;
#X connect 16 0 22 0;
#X connect 17 0 33 0;
#X connect 18 0 17 0;
#X connect 19 0 18 0;
#X connect 19 0 17 0;
#X connect 20 0 15 0;
#X connect 21 0 11 0;
#X connect 22 0 19 0;
#X connect 23 0 13 0;
#X connect 24 0 14 0;
#X connect 25 0 20 0;
#X connect 26 0 0 0;
#X connect 28 0 7 0;
#X connect 31 0 34 0;
#X connect 32 0 15 0;
#X connect 33 0 35 0;
#X connect 34 0 29 0;
#X connect 35 0 30 0;
#X restore 140 110 pd Enemy_shape;
#X obj 100 10 bng 15 250 50 0 empty empty empty 17 7 0 10 #fcfcfc #000000
#000000;
#X obj 100 33 send start;
#X obj 170 10 bng 15 250 50 0 empty empty empty 17 7 0 10 #fcfcfc #000000
#000000;
#X obj 170 33 send reset;
#X connect 2 0 1 0;
#X connect 5 0 1 0;
#X connect 7 0 8 0;
#X connect 9 0 10 0;
