#N canvas 1065 220 371 322 10;
#N canvas 908 104 538 386 SpaceCraft 0;
#X obj 10 10 gemhead;
#X obj 10 300 translateXYZ;
#X obj 10 120 pix_image;
#X obj 40 40 loadbang;
#X obj 10 190 pix_texture;
#X floatatom 30 150 5 0 0 0 - - -, f 5;
#X msg 80 140 env \$1;
#X obj 80 120 hradio 15 1 0 6 empty empty empty 0 -6 0 8 #fcfcfc #000000
#000000 2;
#X msg 80 90 2;
#X obj 10 355 square 0.4;
#X obj 190 10 key 1;
#X obj 200 140 f;
#X floatatom 132 344 5 0 0 0 - - -, f 5;
#X msg 132 246 \$1 100;
#X obj 132 275 line;
#X obj 132 154 pack f f;
#X obj 132 183 route 1 2;
#X msg 192 76 1;
#X msg 242 76 2;
#X obj 192 105 t f b;
#X obj 190 40 select 100 97;
#X obj 50 220 loadbang;
#X floatatom 50 270 5 0 0 0 - - -, f 5;
#X msg 40 70 open Art/SpaceCraft1.png;
#X msg 50 245 -3.2;
#X obj 132 212 + 0.4;
#X obj 172 212 - 0.4;
#X obj 10 330 colorRGB 1 1 1;
#X connect 0 0 2 0;
#X connect 1 0 27 0;
#X connect 2 0 4 0;
#X connect 3 0 23 0;
#X connect 3 0 8 0;
#X connect 4 0 1 0;
#X connect 5 0 4 0;
#X connect 6 0 4 0;
#X connect 7 0 6 0;
#X connect 7 0 4 0;
#X connect 8 0 7 0;
#X connect 10 0 20 0;
#X connect 11 0 15 1;
#X connect 12 0 11 1;
#X connect 12 0 1 1;
#X connect 13 0 14 0;
#X connect 14 0 12 0;
#X connect 15 0 16 0;
#X connect 16 0 25 0;
#X connect 16 1 26 0;
#X connect 17 0 19 0;
#X connect 18 0 19 0;
#X connect 19 0 15 0;
#X connect 19 1 11 0;
#X connect 20 0 17 0;
#X connect 20 1 18 0;
#X connect 21 0 24 0;
#X connect 22 0 1 2;
#X connect 23 0 2 0;
#X connect 24 0 22 0;
#X connect 25 0 13 0;
#X connect 26 0 13 0;
#X connect 27 0 9 0;
#X restore 10 110 pd SpaceCraft;
#X obj 10 70 gemwin;
#X msg 20 30 destroy;
#X msg 10 10 create \, 1;
#X connect 2 0 1 0;
#X connect 3 0 1 0;
