#N canvas 188 225 523 387 10;
#X obj 110 40 noise~;
#X obj 110 65 *~ 1;
#X obj 110 115 *~ 20;
#X obj 110 140 clip~ -0.9 0.9;
#X obj 110 205 *~;
#X obj 110 260 dac~;
#X obj 30 80 hip~ 8000;
#X obj 30 105 *~ 0.1;
#X obj 210 130 line;
#X floatatom 210 160 5 0 0 0 - - -, f 5;
#X obj 210 50 bng 15 250 50 0 empty empty empty 17 7 0 10 #fcfcfc #000000
#000000;
#X obj 280 70 bng 15 250 50 0 empty empty empty 17 7 0 10 #fcfcfc #000000
#000000;
#X obj 110 230 *~ 1;
#X msg 210 80 1 5;
#X obj 260 40 delay 5;
#X msg 280 90 0.25 50;
#X obj 360 90 delay 50;
#X msg 360 115 0 300;
#X obj 110 90 bp~ 150 4;
#X connect 0 0 1 0;
#X connect 0 0 6 0;
#X connect 1 0 18 0;
#X connect 2 0 3 0;
#X connect 3 0 4 0;
#X connect 4 0 12 0;
#X connect 6 0 7 0;
#X connect 7 0 3 0;
#X connect 8 0 9 0;
#X connect 9 0 4 1;
#X connect 10 0 13 0;
#X connect 10 0 14 0;
#X connect 11 0 15 0;
#X connect 11 0 16 0;
#X connect 12 0 5 0;
#X connect 12 0 5 1;
#X connect 13 0 8 0;
#X connect 14 0 11 0;
#X connect 15 0 8 0;
#X connect 16 0 17 0;
#X connect 17 0 8 0;
#X connect 18 0 2 0;
