#N canvas 1063 10 455 306 10;
#X msg 10 10 create \, 1;
#X msg 20 30 destroy;
#X obj 10 60 gemwin;
#X obj 10 100 gemhead;
#X obj 10 170 translateXYZ;
#X obj 40 140 unpack 0 0;
#X obj 70 100 receive atm;
#N canvas 477 301 453 329 mover 0;
#X obj 60 140 line;
#X obj 200 140 line;
#X msg 70 100 \$1 3000;
#X msg 200 100 \$1 3000;
#X obj 110 190 pack 0 0;
#X floatatom 40 180 5 0 0 0 - - -, f 5;
#X floatatom 210 180 5 0 0 0 - - -, f 5;
#X obj 50 60 unpack 0 0, f 13;
#X obj 180 60 unpack 0 0, f 11;
#X obj 110 215 send atm;
#X obj 50 20 inlet from;
#X obj 180 20 inlet to;
#X connect 0 0 4 0;
#X connect 0 0 5 0;
#X connect 1 0 4 1;
#X connect 1 0 6 0;
#X connect 2 0 0 0;
#X connect 3 0 1 0;
#X connect 4 0 9 0;
#X connect 7 0 0 0;
#X connect 7 1 1 0;
#X connect 8 0 2 0;
#X connect 8 1 3 0;
#X connect 10 0 7 0;
#X connect 11 0 8 0;
#X restore 120 240 pd mover;
#X obj 120 170 bng 15 250 50 0 empty empty empty 17 7 0 10 #fcfcfc
#000000 #000000;
#X obj 170 170 bng 15 250 50 0 empty empty empty 17 7 0 10 #fcfcfc
#000000 #000000;
#X obj 10 200 colorRGB 1 1 0;
#X obj 10 230 circle 0.4;
#X msg 120 190 -4 5;
#X msg 170 190 0 -2.5;
#X connect 0 0 2 0;
#X connect 1 0 2 0;
#X connect 3 0 4 0;
#X connect 4 0 10 0;
#X connect 5 0 4 1;
#X connect 5 1 4 2;
#X connect 6 0 5 0;
#X connect 8 0 12 0;
#X connect 9 0 13 0;
#X connect 10 0 11 0;
#X connect 12 0 7 0;
#X connect 13 0 7 1;
