#N canvas 601 160 627 565 10;
#X obj 10 93 gemwin;
#X msg 10 33 create \, 1;
#X msg 30 63 0 \, destroy;
#X obj 100 90 gemhead;
#X obj 100 170 colorRGB 1 1 0;
#X obj 100 200 rectangle 0.2 0.2;
#X obj 280 90 gemmouse;
#X obj 430 200 send gravity;
#X obj 370 40 send game_over;
#X obj 120 40 receive game_over;
#X obj 430 80 metro 20;
#X obj 430 110 bang;
#X obj 430 140 f;
#X obj 280 160 select 1;
#X obj 280 190 bang;
#X msg 280 220 -0.3;
#X obj 280 250 send flap;
#X obj 120 260 receive gravity;
#X obj 120 300 line;
#X obj 320 290 receive flap;
#X floatatom 160 100 5 0 0 0 - - -, f 5;
#X floatatom 230 300 5 0 0 0 - - -, f 5;
#X obj 460 260 bng 15 250 50 0 empty empty empty 17 7 0 10 #fcfcfc
#000000 #000000;
#X obj 460 310 send start_game;
#X obj 80 10 receive start_game;
#X obj 100 130 translateXYZ 0.1 0.3 0.5;
#X obj 430 170 + 0.3;
#X connect 1 0 0 0;
#X connect 2 0 0 0;
#X connect 3 0 25 0;
#X connect 4 0 5 0;
#X connect 6 2 13 0;
#X connect 6 3 8 0;
#X connect 6 4 26 0;
#X connect 9 0 2 0;
#X connect 10 0 11 0;
#X connect 11 0 12 0;
#X connect 12 0 26 0;
#X connect 13 0 14 0;
#X connect 14 0 15 0;
#X connect 15 0 16 0;
#X connect 17 0 18 0;
#X connect 17 0 18 1;
#X connect 17 0 18 2;
#X connect 18 0 25 0;
#X connect 20 0 25 1;
#X connect 21 0 25 2;
#X connect 22 0 23 0;
#X connect 24 0 1 0;
#X connect 25 0 4 0;
#X connect 26 0 7 0;
#X connect 26 0 20 0;
