#N canvas 598 172 752 546 10;
#X obj 10 93 gemwin;
#X msg 10 33 create \, 1;
#X msg 30 63 0 \, destroy;
#X obj 110 430 colorRGB 1 1 0;
#X obj 110 470 rectangle 0.2 0.2;
#X obj 590 10 gemmouse;
#X obj 460 140 send gravity;
#X obj 640 50 send game_over;
#X obj 120 40 receive game_over;
#X obj 460 20 metro 20;
#X obj 460 50 bang;
#X obj 460 80 f;
#X obj 620 100 select 1;
#X obj 620 160 bang;
#X msg 620 210 -0.3;
#X obj 620 270 send flap;
#X obj 640 290 receive flap;
#X obj 460 260 bng 15 250 50 0 empty empty empty 17 7 0 10 #fcfcfc
#000000 #000000;
#X obj 460 310 send start_game;
#X obj 80 10 receive start_game;
#X obj 460 110 + 0.3;
#X obj 640 340 print;
#X obj 40 250 + 0.1;
#X floatatom 90 300 5 0 0 0 - - -, f 5;
#X msg 40 220 0.1;
#X obj 40 190 t b f;
#X obj 112 402 translateXYZ;
#X obj 52 362 gemhead;
#X obj 70 120 key 1;
#X obj 40 160 select 100;
#X obj 120 190 t b f;
#X obj 120 160 select 97;
#X msg 120 220 -0.1;
#X obj 120 250 + -0.1;
#X obj 190 250 + 0.1;
#X floatatom 240 300 5 0 0 0 - - -, f 5;
#X msg 190 220 0.1;
#X obj 190 190 t b f;
#X obj 270 190 t b f;
#X msg 270 220 -0.1;
#X obj 270 250 + -0.1;
#X obj 190 160 select 119;
#X obj 270 160 select 115;
#X connect 1 0 0 0;
#X connect 2 0 0 0;
#X connect 3 0 4 0;
#X connect 5 2 12 0;
#X connect 5 3 7 0;
#X connect 8 0 2 0;
#X connect 9 0 10 0;
#X connect 10 0 11 0;
#X connect 11 0 20 0;
#X connect 12 0 13 0;
#X connect 13 0 14 0;
#X connect 14 0 15 0;
#X connect 16 0 21 0;
#X connect 17 0 18 0;
#X connect 19 0 1 0;
#X connect 20 0 6 0;
#X connect 22 0 23 0;
#X connect 23 0 22 1;
#X connect 23 0 26 1;
#X connect 23 0 33 1;
#X connect 24 0 22 0;
#X connect 25 0 24 0;
#X connect 26 0 3 0;
#X connect 27 0 26 0;
#X connect 28 0 29 0;
#X connect 28 0 31 0;
#X connect 28 0 41 0;
#X connect 28 0 42 0;
#X connect 29 0 25 0;
#X connect 30 0 32 0;
#X connect 31 0 30 0;
#X connect 32 0 33 0;
#X connect 33 0 23 0;
#X connect 34 0 35 0;
#X connect 35 0 34 1;
#X connect 35 0 40 1;
#X connect 35 0 26 2;
#X connect 36 0 34 0;
#X connect 37 0 36 0;
#X connect 38 0 39 0;
#X connect 39 0 40 0;
#X connect 40 0 35 0;
#X connect 41 0 37 0;
#X connect 42 0 38 0;
