#N canvas 118 227 516 436 10;
#X floatatom 150 100 5 0 0 0 - - -, f 5;
#X obj 150 213 osc~;
#X floatatom 230 60 5 0 0 0 - - -, f 5;
#X obj 150 173 +~;
#X obj 230 90 osc~;
#X obj 230 120 *~;
#X floatatom 320 90 5 0 0 0 - - -, f 5;
#X obj 150 238 *~ 0.5;
#X obj 150 280 dac~;
#X text 70 70 Carrier Frequency;
#X text 180 40 Modulator Frequency;
#X text 290 70 Modulation Depth;
#X text 190 210 Carrier Oscillator;
#X connect 0 0 3 0;
#X connect 1 0 7 0;
#X connect 2 0 4 0;
#X connect 3 0 1 0;
#X connect 4 0 5 0;
#X connect 5 0 3 1;
#X connect 6 0 5 1;
#X connect 7 0 8 0;
#X connect 7 0 8 1;
