#N canvas 450 300 450 300 10;
#X obj 100 50 + 0.1;
#X obj 100 100 + 0.1;
#X obj 100 150 + 0.1;
#X floatatom 50 50 5 0 0 0 - - -;
#X floatatom 50 100 5 0 0 0 - - -;
#X floatatom 50 150 5 0 0 0 - - -;
#X msg 150 50 0.1;
#X msg 150 100 0.1;
#X msg 150 150 0.1;
#X obj 200 50 t b f;
#X obj 200 100 t b f;
#X obj 200 150 t b f;
#X obj 250 50 translateXYZ;
#X obj 250 100 translateXYZ;
#X obj 250 150 translateXYZ;
#X obj 300 50 print;
#X obj 300 100 print;
#X obj 300 150 print;
#X obj 350 50 bng;
#X connect 0 0 3 0;
#X connect 1 0 4 0;
#X connect 2 0 5 0;
#X connect 3 0 0 1;
#X connect 4 0 1 1;
#X connect 5 0 2 1;
#X connect 6 0 0 0;
#X connect 7 0 1 0;
#X connect 8 0 2 0;
#X connect 10 0 8 0;
#X connect 11 0 10 1;
#X connect 12 0 6 1;
#X connect 13 0 7 1;
#X connect 14 0 8 1;
#X connect 15 0 12 0;
#X connect 16 0 13 0;
#X connect 17 0 14 0;
#X connect 18 0 9 0;
#X connect 19 0 9 1;
#X connect 20 0 9 1;
#X connect 21 0 8 1;