#N canvas 1044 32 450 306 10;
#X obj 130 30 gemhead;
#X obj 130 140 pix_image;
#X obj 130 180 pix_draw;
#X msg 160 90 open Art/girl.png;
#X obj 349 107 gemwin;
#X msg 310 40 create \, 1;
#X msg 390 60 destroy;
#X obj 160 60 loadbang;
#X connect 0 0 1 0;
#X connect 1 0 2 0;
#X connect 5 0 4 0;
#X connect 6 0 4 0;
#X connect 7 0 3 0;
