#N canvas 664 186 450 303 10;
#X obj 130 30 gemhead;
#X obj 130 140 pix_image;
#X obj 130 180 pix_draw;
#X obj 160 50 bng 15 250 50 0 empty empty empty 17 7 0 10 #fcfcfc #000000
#000000;
#X obj 350 90 gemwin;
#X msg 310 30 create;
#X msg 380 30 destroy;
#X msg 160 110 open somefile.png;
#X msg 160 80 pd openpanel;
#X obj 280 182 gemhead;
#X obj 279 154 tgl 15 1 empty empty empty 0 -6 0 8 #14e814 #000000
#000000 1 1;
#X obj 280 210 circle;
#X connect 0 0 1 0;
#X connect 1 0 2 0;
#X connect 3 0 8 0;
#X connect 5 0 4 0;
#X connect 6 0 4 0;
#X connect 7 0 1 0;
#X connect 8 0 7 0;
#X connect 9 0 11 0;
#X connect 10 0 9 0;
