#N canvas 664 185 450 305 10;
#X obj 130 30 gemhead;
#X obj 130 140 pix_image;
#X obj 130 180 pix_draw;
#X obj 160 50 bng 15 250 50 0 empty empty empty 17 7 0 10 #fcfcfc #000000
#000000;
#X msg 160 110 open somefile.png;
#X msg 160 80 pd openpanel;
#X obj 330 50 import Gem;
#X msg 330 20 gemwin_control;
#X connect 0 0 1 0;
#X connect 1 0 2 0;
#X connect 3 0 5 0;
#X connect 4 0 1 0;
#X connect 5 0 4 0;
