#N canvas 763 204 526 427 10;
#X obj 40 140 + 0.1;
#X floatatom 90 190 5 0 0 0 - - -, f 5;
#X msg 40 110 0.1;
#X obj 40 80 t b f;
#X obj 80 280 translateXYZ;
#X obj 20 240 gemhead;
#X obj 80 310 sphere;
#X obj 70 10 key 1;
#X obj 40 50 select 100;
#X obj 120 80 t b f;
#X obj 120 50 select 97;
#X msg 120 110 -0.1;
#X obj 120 140 + -0.1;
#X obj 190 140 + 0.1;
#X floatatom 240 190 5 0 0 0 - - -, f 5;
#X msg 190 110 0.1;
#X obj 190 80 t b f;
#X obj 270 80 t b f;
#X msg 270 110 -0.1;
#X obj 270 140 + -0.1;
#X obj 190 50 select 119;
#X obj 270 50 select 115;
#X connect 0 0 1 0;
#X connect 1 0 0 1;
#X connect 1 0 4 1;
#X connect 1 0 12 1;
#X connect 2 0 0 0;
#X connect 3 0 2 0;
#X connect 4 0 6 0;
#X connect 5 0 4 0;
#X connect 7 0 8 0;
#X connect 7 0 10 0;
#X connect 7 0 20 0;
#X connect 7 0 21 0;
#X connect 8 0 3 0;
#X connect 9 0 11 0;
#X connect 10 0 9 0;
#X connect 11 0 12 0;
#X connect 12 0 1 0;
#X connect 13 0 14 0;
#X connect 14 0 13 1;
#X connect 14 0 19 1;
#X connect 14 0 4 2;
#X connect 15 0 13 0;
#X connect 16 0 15 0;
#X connect 17 0 18 0;
#X connect 18 0 19 0;
#X connect 19 0 14 0;
#X connect 20 0 16 0;
#X connect 21 0 17 0;
