#N canvas 741 114 769 453 10;
#X obj 110 410 translateXYZ;
#X obj 20 320 gemhead;
#X obj 130 20 key 1;
#X obj 150 130 f;
#X floatatom 82 334 5 0 0 0 - - -, f 5;
#X msg 82 236 \$1 100;
#X obj 82 265 line;
#X obj 82 144 pack f f;
#X obj 82 173 route 1 2;
#X msg 72 86 1;
#X msg 122 86 2;
#X obj 72 115 t f b;
#X obj 82 202 + 1;
#X obj 122 202 - 1;
#X obj 312 136 f;
#X floatatom 222 334 5 0 0 0 - - -, f 5;
#X msg 222 236 \$1 100;
#X obj 222 265 line;
#X obj 222 144 pack f f;
#X obj 222 173 route 1 2;
#X msg 212 86 1;
#X msg 262 86 2;
#X obj 212 115 t f b;
#X obj 222 202 + 1;
#X obj 262 202 - 1;
#X obj 130 50 select 100 97 119 115;
#X obj 370 180 + 0.1;
#X msg 370 150 0.1;
#X obj 370 120 t b f;
#X obj 400 50 key 1;
#X obj 370 90 select 100;
#X obj 450 120 t b f;
#X obj 450 90 select 97;
#X msg 450 150 -0.1;
#X obj 450 180 + -0.1;
#X obj 520 180 + 0.1;
#X floatatom 550 310 5 0 0 0 - - -, f 5;
#X msg 520 150 0.1;
#X obj 520 120 t b f;
#X obj 600 120 t b f;
#X msg 600 150 -0.1;
#X obj 600 180 + -0.1;
#X obj 520 90 select 119;
#X obj 600 90 select 115;
#X msg 520 220 \$1 100;
#X obj 520 260 line;
#X msg 600 220 \$1 100;
#X obj 600 270 line;
#X msg 370 220 \$1 100;
#X obj 370 260 line;
#X msg 450 220 \$1 100;
#X obj 450 260 line;
#X floatatom 410 310 5 0 0 0 - - -, f 5;
#X connect 1 0 0 0;
#X connect 2 0 25 0;
#X connect 3 0 7 1;
#X connect 4 0 3 1;
#X connect 4 0 0 1;
#X connect 5 0 6 0;
#X connect 6 0 4 0;
#X connect 7 0 8 0;
#X connect 8 0 12 0;
#X connect 8 1 13 0;
#X connect 9 0 11 0;
#X connect 10 0 11 0;
#X connect 11 0 7 0;
#X connect 11 1 3 0;
#X connect 12 0 5 0;
#X connect 13 0 5 0;
#X connect 14 0 18 1;
#X connect 15 0 14 1;
#X connect 15 0 0 2;
#X connect 16 0 17 0;
#X connect 17 0 15 0;
#X connect 18 0 19 0;
#X connect 19 0 23 0;
#X connect 19 1 24 0;
#X connect 20 0 22 0;
#X connect 21 0 22 0;
#X connect 22 0 18 0;
#X connect 22 1 14 0;
#X connect 23 0 16 0;
#X connect 24 0 16 0;
#X connect 25 0 9 0;
#X connect 25 1 10 0;
#X connect 25 2 20 0;
#X connect 25 3 21 0;
#X connect 26 0 48 0;
#X connect 27 0 26 0;
#X connect 28 0 27 0;
#X connect 29 0 30 0;
#X connect 29 0 32 0;
#X connect 29 0 42 0;
#X connect 29 0 43 0;
#X connect 30 0 28 0;
#X connect 31 0 33 0;
#X connect 32 0 31 0;
#X connect 33 0 34 0;
#X connect 34 0 50 0;
#X connect 35 0 44 0;
#X connect 36 0 35 1;
#X connect 36 0 41 1;
#X connect 37 0 35 0;
#X connect 38 0 37 0;
#X connect 39 0 40 0;
#X connect 40 0 41 0;
#X connect 41 0 46 0;
#X connect 42 0 38 0;
#X connect 43 0 39 0;
#X connect 44 0 45 0;
#X connect 45 0 36 0;
#X connect 46 0 47 0;
#X connect 47 0 36 0;
#X connect 48 0 49 0;
#X connect 49 0 52 0;
#X connect 50 0 51 0;
#X connect 51 0 52 0;
#X connect 52 0 26 1;
#X connect 52 0 34 1;
