#N canvas 563 16 980 710 10;
#X obj 20 90 gemwin;
#X msg -10 10 create \, 1;
#X msg 10 30 destroy;
#X obj 90 180 colorRGB 1 0 0;
#X obj 110 80 hsl 87 15 -6 6 0 0 empty empty empty -2 -8 0 10 #fcfcfc
#000000 #000000 3074 1;
#X obj 110 100 hsl 88 15 -6 6 0 0 empty empty empty -2 -8 0 10 #fcfcfc
#000000 #000000 2300 1;
#X floatatom 110 150 4 0 0 0 - - -, f 4;
#X floatatom 140 150 4 0 0 0 - - -, f 4;
#X floatatom 170 150 4 0 0 0 - - -, f 4;
#X obj 120 260 hsl 79 15 0 5 0 0 empty empty empty -2 -8 0 10 #fcfcfc
#000000 #000000 2700 1;
#X obj 120 280 hsl 80 15 0 2 0 0 empty empty empty -2 -8 0 10 #fcfcfc
#000000 #000000 1600 1;
#X msg 10 220 draw line;
#X msg 10 310 draw fill;
#X obj 10 180 receive blue;
#X obj 10 270 receive red;
#X obj 90 10 gemhead;
#X msg 110 30 set \$1;
#X msg 110 50 -1.7107;
#X msg 180 50 -2.82759;
#X msg 180 30 set \$1;
#X msg 120 235 1.73077;
#X msg 170 235 0.405063;
#X msg 120 210 set \$1;
#X msg 170 210 set \$1;
#X obj 90 310 rectangle 0 0;
#X obj 90 130 translateXYZ 0 0 0;
#X obj 320 180 colorRGB 1 0 0;
#X obj 360 80 hsl 87 15 -6 6 0 0 empty empty empty -2 -8 0 10 #fcfcfc
#000000 #000000 6364 1;
#X obj 360 100 hsl 88 15 -6 6 0 0 empty empty empty -2 -8 0 10 #fcfcfc
#000000 #000000 3100 1;
#X floatatom 340 150 4 0 0 0 - - -, f 4;
#X floatatom 370 150 4 0 0 0 - - -, f 4;
#X floatatom 400 150 4 0 0 0 - - -, f 4;
#X obj 350 260 hsl 79 15 0 5 0 0 empty empty empty -2 -8 0 10 #fcfcfc
#000000 #000000 1200 1;
#X obj 350 280 hsl 80 15 0 2 0 0 empty empty empty -2 -8 0 10 #fcfcfc
#000000 #000000 1800 1;
#X msg 240 220 draw line;
#X msg 240 310 draw fill;
#X obj 240 180 receive blue;
#X obj 240 270 receive red;
#X obj 320 10 gemhead;
#X msg 340 30 set \$1;
#X msg 340 50 2.88;
#X msg 410 50 -1.72414;
#X msg 410 30 set \$1;
#X msg 350 235 0.769231;
#X msg 400 235 0.455696;
#X msg 350 210 set \$1;
#X msg 400 210 set \$1;
#X obj 320 310 rectangle 0 0;
#X obj 320 130 translateXYZ 0 0 0;
#X obj 550 180 colorRGB 1 0 0;
#X obj 590 80 hsl 87 15 -6 6 0 0 empty empty empty -2 -8 0 10 #fcfcfc
#000000 #000000 5531 1;
#X obj 590 100 hsl 88 15 -6 6 0 0 empty empty empty -2 -8 0 10 #fcfcfc
#000000 #000000 6000 1;
#X floatatom 570 150 4 0 0 0 - - -, f 4;
#X floatatom 600 150 4 0 0 0 - - -, f 4;
#X floatatom 630 150 4 0 0 0 - - -, f 4;
#X obj 580 260 hsl 79 15 0 5 0 0 empty empty empty -2 -8 0 10 #fcfcfc
#000000 #000000 1900 1;
#X obj 580 280 hsl 80 15 0 2 0 0 empty empty empty -2 -8 0 10 #fcfcfc
#000000 #000000 2000 1;
#X msg 470 220 draw line;
#X msg 470 310 draw fill;
#X obj 470 180 receive blue;
#X obj 470 270 receive red;
#X obj 550 10 gemhead;
#X msg 570 30 set \$1;
#X msg 570 50 1.71767;
#X msg 640 50 2.27586;
#X msg 640 30 set \$1;
#X msg 580 235 1.21795;
#X msg 630 235 0.506329;
#X msg 580 210 set \$1;
#X msg 630 210 set \$1;
#X obj 550 310 rectangle 0 0;
#X obj 550 130 translateXYZ 0 0 0;
#X obj 780 180 colorRGB 1 0 0;
#X obj 820 80 hsl 87 15 -6 6 0 0 empty empty empty -2 -8 0 10 #fcfcfc
#000000 #000000 2246 1;
#X obj 820 100 hsl 88 15 -6 6 0 0 empty empty empty -2 -8 0 10 #fcfcfc
#000000 #000000 4700 1;
#X floatatom 800 150 4 0 0 0 - - -, f 4;
#X floatatom 830 150 4 0 0 0 - - -, f 4;
#X floatatom 860 150 4 0 0 0 - - -, f 4;
#X obj 810 260 hsl 79 15 0 5 0 0 empty empty empty -2 -8 0 10 #fcfcfc
#000000 #000000 900 1;
#X obj 810 280 hsl 80 15 0 2 0 0 empty empty empty -2 -8 0 10 #fcfcfc
#000000 #000000 1700 1;
#X msg 700 220 draw line;
#X msg 700 310 draw fill;
#X obj 700 180 receive blue;
#X obj 700 270 receive red;
#X obj 780 10 gemhead;
#X msg 800 30 set \$1;
#X msg 800 50 -2.86605;
#X msg 870 50 0.482759;
#X msg 870 30 set \$1;
#X msg 810 235 0.576923;
#X msg 860 235 0.43038;
#X msg 810 210 set \$1;
#X msg 860 210 set \$1;
#X obj 780 310 rectangle 0 0;
#X obj 780 130 translateXYZ 0 0 0;
#X obj 130 420 hsl 87 15 -6 6 0 0 empty empty empty -2 -8 0 10 #fcfcfc
#000000 #000000 5170 1;
#X obj 130 440 hsl 88 15 -6 6 0 0 empty empty empty -2 -8 0 10 #fcfcfc
#000000 #000000 2600 1;
#X floatatom 110 490 4 0 0 0 - - -, f 4;
#X floatatom 140 490 4 0 0 0 - - -, f 4;
#X floatatom 170 490 4 0 0 0 - - -, f 4;
#X obj 120 600 hsl 79 15 0 5 0 0 empty empty empty -2 -8 0 10 #fcfcfc
#000000 #000000 800 1;
#X obj 120 620 hsl 80 15 0 2 0 0 empty empty empty -2 -8 0 10 #fcfcfc
#000000 #000000 1800 1;
#X msg 10 560 draw line;
#X msg 10 650 draw fill;
#X obj 90 350 gemhead;
#X msg 110 370 set \$1;
#X msg 110 390 1.21395;
#X msg 180 390 -2.41379;
#X msg 180 370 set \$1;
#X msg 120 575 0.512821;
#X msg 170 575 0.455696;
#X msg 120 550 set \$1;
#X msg 170 550 set \$1;
#X obj 90 650 rectangle 0 0;
#X obj 90 470 translateXYZ 0 0 0;
#X obj 360 420 hsl 87 15 -6 6 0 0 empty empty empty -2 -8 0 10 #fcfcfc
#000000 #000000 5054 1;
#X obj 360 440 hsl 88 15 -6 6 0 0 empty empty empty -2 -8 0 10 #fcfcfc
#000000 #000000 4000 1;
#X floatatom 340 490 4 0 0 0 - - -, f 4;
#X floatatom 370 490 4 0 0 0 - - -, f 4;
#X floatatom 400 490 4 0 0 0 - - -, f 4;
#X obj 350 600 hsl 79 15 0 5 0 0 empty empty empty -2 -8 0 10 #fcfcfc
#000000 #000000 800 1;
#X obj 350 620 hsl 80 15 0 2 0 0 empty empty empty -2 -8 0 10 #fcfcfc
#000000 #000000 1400 1;
#X msg 240 560 draw line;
#X msg 240 650 draw fill;
#X obj 320 350 gemhead;
#X msg 340 370 set \$1;
#X msg 340 390 1.05209;
#X msg 410 390 -0.482759;
#X msg 410 370 set \$1;
#X msg 350 575 0.512821;
#X msg 400 575 0.35443;
#X msg 350 550 set \$1;
#X msg 400 550 set \$1;
#X obj 320 650 rectangle 0 0;
#X obj 320 470 translateXYZ 0 0 0;
#X obj 590 420 hsl 87 15 -6 6 0 0 empty empty empty -2 -8 0 10 #fcfcfc
#000000 #000000 3600 1;
#X obj 590 440 hsl 88 15 -6 6 0 0 empty empty empty -2 -8 0 10 #fcfcfc
#000000 #000000 4200 1;
#X floatatom 570 490 4 0 0 0 - - -, f 4;
#X floatatom 600 490 4 0 0 0 - - -, f 4;
#X floatatom 630 490 4 0 0 0 - - -, f 4;
#X obj 580 600 hsl 79 15 0 5 0 0 empty empty empty -2 -8 0 10 #fcfcfc
#000000 #000000 1500 1;
#X obj 580 620 hsl 80 15 0 2 0 0 empty empty empty -2 -8 0 10 #fcfcfc
#000000 #000000 1700 1;
#X msg 470 560 draw line;
#X msg 470 650 draw fill;
#X obj 550 350 gemhead;
#X msg 570 370 set \$1;
#X msg 570 390 -0.976744;
#X msg 640 390 -0.206897;
#X msg 640 370 set \$1;
#X msg 580 575 0.961538;
#X msg 630 575 0.43038;
#X msg 580 550 set \$1;
#X msg 630 550 set \$1;
#X obj 550 650 rectangle 0 0;
#X obj 550 470 translateXYZ 0 0 0;
#X obj 820 420 hsl 87 15 -6 6 0 0 empty empty empty -2 -8 0 10 #fcfcfc
#000000 #000000 3600 1;
#X obj 820 440 hsl 88 15 -6 6 0 0 empty empty empty -2 -8 0 10 #fcfcfc
#000000 #000000 5500 1;
#X floatatom 800 490 4 0 0 0 - - -, f 4;
#X floatatom 830 490 4 0 0 0 - - -, f 4;
#X floatatom 860 490 4 0 0 0 - - -, f 4;
#X obj 810 600 hsl 79 15 0 5 0 0 empty empty empty -2 -8 0 10 #fcfcfc
#000000 #000000 1200 1;
#X obj 810 620 hsl 80 15 0 2 0 0 empty empty empty -2 -8 0 10 #fcfcfc
#000000 #000000 1100 1;
#X msg 700 560 draw line;
#X msg 700 650 draw fill;
#X obj 780 350 gemhead;
#X msg 800 370 set \$1;
#X msg 800 390 -0.976744;
#X msg 870 390 1.58621;
#X msg 870 370 set \$1;
#X msg 810 575 0.769231;
#X msg 860 575 0.278481;
#X msg 810 550 set \$1;
#X msg 860 550 set \$1;
#X obj 780 650 rectangle 0 0;
#X obj 780 470 translateXYZ 0 0 0;
#X obj 90 520 colorRGB 0 0 1;
#X obj 320 520 colorRGB 0 0 1;
#X obj 550 520 colorRGB 0 0 1;
#X obj 780 520 colorRGB 0 0 1;
#X obj 10 520 receive red;
#X obj 10 610 receive blue;
#X obj 240 520 receive red;
#X obj 240 610 receive blue;
#X obj 470 520 receive red;
#X obj 470 610 receive blue;
#X obj 700 520 receive red;
#X obj 700 610 receive blue;
#X connect 1 0 0 0;
#X connect 2 0 0 0;
#X connect 3 0 24 0;
#X connect 4 0 16 0;
#X connect 4 0 25 1;
#X connect 5 0 19 0;
#X connect 5 0 25 2;
#X connect 6 0 3 1;
#X connect 7 0 3 2;
#X connect 8 0 3 3;
#X connect 9 0 22 0;
#X connect 9 0 24 1;
#X connect 10 0 23 0;
#X connect 10 0 24 2;
#X connect 11 0 24 0;
#X connect 12 0 24 0;
#X connect 13 0 11 0;
#X connect 14 0 12 0;
#X connect 15 0 25 0;
#X connect 16 0 17 0;
#X connect 17 0 4 0;
#X connect 17 0 25 1;
#X connect 18 0 25 2;
#X connect 18 0 5 0;
#X connect 19 0 18 0;
#X connect 20 0 9 0;
#X connect 20 0 24 1;
#X connect 21 0 10 0;
#X connect 21 0 24 2;
#X connect 22 0 20 0;
#X connect 23 0 21 0;
#X connect 25 0 3 0;
#X connect 26 0 47 0;
#X connect 27 0 39 0;
#X connect 27 0 48 1;
#X connect 28 0 42 0;
#X connect 28 0 48 2;
#X connect 29 0 26 1;
#X connect 30 0 26 2;
#X connect 31 0 26 3;
#X connect 32 0 45 0;
#X connect 32 0 47 1;
#X connect 33 0 46 0;
#X connect 33 0 47 2;
#X connect 34 0 47 0;
#X connect 35 0 47 0;
#X connect 36 0 34 0;
#X connect 37 0 35 0;
#X connect 38 0 48 0;
#X connect 39 0 40 0;
#X connect 40 0 27 0;
#X connect 40 0 48 1;
#X connect 41 0 48 2;
#X connect 41 0 28 0;
#X connect 42 0 41 0;
#X connect 43 0 32 0;
#X connect 43 0 47 1;
#X connect 44 0 33 0;
#X connect 44 0 47 2;
#X connect 45 0 43 0;
#X connect 46 0 44 0;
#X connect 48 0 26 0;
#X connect 49 0 70 0;
#X connect 50 0 62 0;
#X connect 50 0 71 1;
#X connect 51 0 65 0;
#X connect 51 0 71 2;
#X connect 52 0 49 1;
#X connect 53 0 49 2;
#X connect 54 0 49 3;
#X connect 55 0 68 0;
#X connect 55 0 70 1;
#X connect 56 0 69 0;
#X connect 56 0 70 2;
#X connect 57 0 70 0;
#X connect 58 0 70 0;
#X connect 59 0 57 0;
#X connect 60 0 58 0;
#X connect 61 0 71 0;
#X connect 62 0 63 0;
#X connect 63 0 50 0;
#X connect 63 0 71 1;
#X connect 64 0 71 2;
#X connect 64 0 51 0;
#X connect 65 0 64 0;
#X connect 66 0 55 0;
#X connect 66 0 70 1;
#X connect 67 0 56 0;
#X connect 67 0 70 2;
#X connect 68 0 66 0;
#X connect 69 0 67 0;
#X connect 71 0 49 0;
#X connect 72 0 93 0;
#X connect 73 0 85 0;
#X connect 73 0 94 1;
#X connect 74 0 88 0;
#X connect 74 0 94 2;
#X connect 75 0 72 1;
#X connect 76 0 72 2;
#X connect 77 0 72 3;
#X connect 78 0 91 0;
#X connect 78 0 93 1;
#X connect 79 0 92 0;
#X connect 79 0 93 2;
#X connect 80 0 93 0;
#X connect 81 0 93 0;
#X connect 82 0 80 0;
#X connect 83 0 81 0;
#X connect 84 0 94 0;
#X connect 85 0 86 0;
#X connect 86 0 73 0;
#X connect 86 0 94 1;
#X connect 87 0 94 2;
#X connect 87 0 74 0;
#X connect 88 0 87 0;
#X connect 89 0 78 0;
#X connect 89 0 93 1;
#X connect 90 0 79 0;
#X connect 90 0 93 2;
#X connect 91 0 89 0;
#X connect 92 0 90 0;
#X connect 94 0 72 0;
#X connect 95 0 105 0;
#X connect 95 0 114 1;
#X connect 96 0 108 0;
#X connect 96 0 114 2;
#X connect 97 0 175 1;
#X connect 98 0 175 2;
#X connect 99 0 175 3;
#X connect 100 0 111 0;
#X connect 100 0 113 1;
#X connect 101 0 112 0;
#X connect 101 0 113 2;
#X connect 102 0 113 0;
#X connect 103 0 113 0;
#X connect 104 0 114 0;
#X connect 105 0 106 0;
#X connect 106 0 95 0;
#X connect 106 0 114 1;
#X connect 107 0 114 2;
#X connect 107 0 96 0;
#X connect 108 0 107 0;
#X connect 109 0 100 0;
#X connect 109 0 113 1;
#X connect 110 0 101 0;
#X connect 110 0 113 2;
#X connect 111 0 109 0;
#X connect 112 0 110 0;
#X connect 114 0 175 0;
#X connect 115 0 125 0;
#X connect 115 0 134 1;
#X connect 116 0 128 0;
#X connect 116 0 134 2;
#X connect 117 0 176 1;
#X connect 118 0 176 2;
#X connect 119 0 176 3;
#X connect 120 0 131 0;
#X connect 120 0 133 1;
#X connect 121 0 132 0;
#X connect 121 0 133 2;
#X connect 122 0 133 0;
#X connect 123 0 133 0;
#X connect 124 0 134 0;
#X connect 125 0 126 0;
#X connect 126 0 115 0;
#X connect 126 0 134 1;
#X connect 127 0 134 2;
#X connect 127 0 116 0;
#X connect 128 0 127 0;
#X connect 129 0 120 0;
#X connect 129 0 133 1;
#X connect 130 0 121 0;
#X connect 130 0 133 2;
#X connect 131 0 129 0;
#X connect 132 0 130 0;
#X connect 134 0 176 0;
#X connect 135 0 145 0;
#X connect 135 0 154 1;
#X connect 136 0 148 0;
#X connect 136 0 154 2;
#X connect 137 0 177 1;
#X connect 138 0 177 2;
#X connect 139 0 177 3;
#X connect 140 0 151 0;
#X connect 140 0 153 1;
#X connect 141 0 152 0;
#X connect 141 0 153 2;
#X connect 142 0 153 0;
#X connect 143 0 153 0;
#X connect 144 0 154 0;
#X connect 145 0 146 0;
#X connect 146 0 135 0;
#X connect 146 0 154 1;
#X connect 147 0 154 2;
#X connect 147 0 136 0;
#X connect 148 0 147 0;
#X connect 149 0 140 0;
#X connect 149 0 153 1;
#X connect 150 0 141 0;
#X connect 150 0 153 2;
#X connect 151 0 149 0;
#X connect 152 0 150 0;
#X connect 154 0 177 0;
#X connect 155 0 165 0;
#X connect 155 0 174 1;
#X connect 156 0 174 2;
#X connect 157 0 178 1;
#X connect 158 0 178 2;
#X connect 159 0 178 3;
#X connect 160 0 171 0;
#X connect 160 0 173 1;
#X connect 161 0 172 0;
#X connect 161 0 173 2;
#X connect 162 0 173 0;
#X connect 163 0 173 0;
#X connect 164 0 174 0;
#X connect 165 0 166 0;
#X connect 166 0 155 0;
#X connect 166 0 174 1;
#X connect 167 0 174 2;
#X connect 167 0 156 0;
#X connect 168 0 167 0;
#X connect 169 0 160 0;
#X connect 169 0 173 1;
#X connect 170 0 161 0;
#X connect 170 0 173 2;
#X connect 171 0 169 0;
#X connect 172 0 170 0;
#X connect 174 0 178 0;
#X connect 175 0 113 0;
#X connect 176 0 133 0;
#X connect 177 0 153 0;
#X connect 178 0 173 0;
#X connect 179 0 102 0;
#X connect 180 0 103 0;
#X connect 181 0 122 0;
#X connect 182 0 123 0;
#X connect 183 0 142 0;
#X connect 184 0 143 0;
#X connect 185 0 162 0;
#X connect 186 0 163 0;
