#N canvas 838 268 453 318 10;
#X obj 20 60 gemwin;
#X msg 40 30 destroy;
#X msg 20 10 dimen 600 600 \, create \, 1;
#N canvas 696 44 658 486 Player 0;
#X obj 150 400 translateXYZ;
#X obj 60 310 gemhead;
#X obj 170 10 key 1;
#X obj 190 120 f;
#X floatatom 122 324 5 0 0 0 - - -, f 5;
#X msg 122 226 \$1 100;
#X obj 122 255 line;
#X obj 122 134 pack f f;
#X obj 122 163 route 1 2;
#X msg 112 76 1;
#X msg 162 76 2;
#X obj 112 105 t f b;
#X obj 122 192 + 1;
#X obj 162 192 - 1;
#X obj 352 126 f;
#X floatatom 262 324 5 0 0 0 - - -, f 5;
#X msg 262 226 \$1 100;
#X obj 262 255 line;
#X obj 262 134 pack f f;
#X obj 262 163 route 1 2;
#X msg 252 76 1;
#X msg 302 76 2;
#X obj 252 105 t f b;
#X obj 262 192 + 1;
#X obj 302 192 - 1;
#X obj 170 40 select 100 97 119 115;
#X obj 150 460 square 0.2;
#X obj 150 430 colorRGB 1 1 0;
#X connect 0 0 27 0;
#X connect 1 0 0 0;
#X connect 2 0 25 0;
#X connect 3 0 7 1;
#X connect 4 0 3 1;
#X connect 4 0 0 1;
#X connect 5 0 6 0;
#X connect 6 0 4 0;
#X connect 7 0 8 0;
#X connect 8 0 12 0;
#X connect 8 1 13 0;
#X connect 9 0 11 0;
#X connect 10 0 11 0;
#X connect 11 0 7 0;
#X connect 11 1 3 0;
#X connect 12 0 5 0;
#X connect 13 0 5 0;
#X connect 14 0 18 1;
#X connect 15 0 14 1;
#X connect 15 0 0 2;
#X connect 16 0 17 0;
#X connect 17 0 15 0;
#X connect 18 0 19 0;
#X connect 19 0 23 0;
#X connect 19 1 24 0;
#X connect 20 0 22 0;
#X connect 21 0 22 0;
#X connect 22 0 18 0;
#X connect 22 1 14 0;
#X connect 23 0 16 0;
#X connect 24 0 16 0;
#X connect 25 0 9 0;
#X connect 25 1 10 0;
#X connect 25 2 20 0;
#X connect 25 3 21 0;
#X connect 27 0 26 0;
#X restore 20 100 pd Player;
#N canvas 688 376 146 70 Red_Tiles 0;
#X obj 142 172 colorRGB 1 0 0;
#X obj 162 72 hsl 87 15 -6 6 0 0 empty empty empty -2 -8 0 10 #fcfcfc
#000000 #000000 2150 1;
#X obj 162 92 hsl 88 15 -6 6 0 0 empty empty empty -2 -8 0 10 #fcfcfc
#000000 #000000 2175 1;
#X floatatom 162 142 4 0 0 0 - - -, f 4;
#X floatatom 192 142 4 0 0 0 - - -, f 4;
#X floatatom 222 142 4 0 0 0 - - -, f 4;
#X msg 62 212 draw line;
#X msg 62 302 draw fill;
#X obj 62 172 receive blue;
#X obj 62 262 receive red;
#X obj 142 2 gemhead;
#X msg 162 22 set \$1;
#X msg 232 22 set \$1;
#X obj 142 122 translateXYZ 0 0 0;
#X obj 372 172 colorRGB 1 0 0;
#X obj 412 72 hsl 87 15 -6 6 0 0 empty empty empty -2 -8 0 10 #fcfcfc
#000000 #000000 3583 1;
#X obj 412 92 hsl 88 15 -6 6 0 0 empty empty empty -2 -8 0 10 #fcfcfc
#000000 #000000 3625 1;
#X floatatom 392 142 4 0 0 0 - - -, f 4;
#X floatatom 422 142 4 0 0 0 - - -, f 4;
#X floatatom 452 142 4 0 0 0 - - -, f 4;
#X msg 292 212 draw line;
#X msg 292 302 draw fill;
#X obj 292 172 receive blue;
#X obj 292 262 receive red;
#X obj 372 2 gemhead;
#X msg 392 22 set \$1;
#X msg 462 22 set \$1;
#X obj 372 122 translateXYZ 0 0 0;
#X obj 602 172 colorRGB 1 0 0;
#X obj 642 72 hsl 87 15 -6 6 0 0 empty empty empty -2 -8 0 10 #fcfcfc
#000000 #000000 5017 1;
#X obj 642 92 hsl 88 15 -6 6 0 0 empty empty empty -2 -8 0 10 #fcfcfc
#000000 #000000 5075 1;
#X floatatom 622 142 4 0 0 0 - - -, f 4;
#X floatatom 652 142 4 0 0 0 - - -, f 4;
#X floatatom 682 142 4 0 0 0 - - -, f 4;
#X msg 522 212 draw line;
#X msg 522 302 draw fill;
#X obj 522 172 receive blue;
#X obj 522 262 receive red;
#X obj 602 2 gemhead;
#X msg 622 22 set \$1;
#X msg 692 22 set \$1;
#X obj 602 122 translateXYZ 0 0 0;
#X obj 140 510 colorRGB 1 0 0;
#X obj 180 410 hsl 87 15 -6 6 0 0 empty empty empty -2 -8 0 10 #fcfcfc
#000000 #000000 6450 1;
#X obj 180 430 hsl 88 15 -6 6 0 0 empty empty empty -2 -8 0 10 #fcfcfc
#000000 #000000 6525 1;
#X floatatom 160 480 4 0 0 0 - - -, f 4;
#X floatatom 190 480 4 0 0 0 - - -, f 4;
#X floatatom 220 480 4 0 0 0 - - -, f 4;
#X msg 62 542 draw line;
#X msg 62 632 draw fill;
#X obj 60 510 receive blue;
#X obj 60 600 receive red;
#X obj 140 340 gemhead;
#X msg 160 360 set \$1;
#X msg 230 360 set \$1;
#X obj 140 460 translateXYZ 0 0 0;
#X obj 280 80 loadbang;
#X obj 520 90 loadbang;
#X obj 278 448 loadbang;
#X obj 740 90 loadbang;
#X obj 142 302 square 1;
#X obj 372 302 square 1;
#X obj 602 302 square 1;
#X obj 140 640 square 1;
#X msg 162 42 -3;
#X msg 232 42 -3;
#X msg 392 42 -1;
#X msg 462 42 -1;
#X msg 622 42 1;
#X msg 692 42 1;
#X msg 160 380 3;
#X msg 230 380 3;
#X obj 370 500 colorRGB 1 0 0;
#X obj 410 400 hsl 87 15 -6 6 0 0 empty empty empty -2 -8 0 10 #fcfcfc
#000000 #000000 2150 1;
#X obj 410 420 hsl 88 15 -6 6 0 0 empty empty empty -2 -8 0 10 #fcfcfc
#000000 #000000 5075 1;
#X floatatom 390 470 4 0 0 0 - - -, f 4;
#X floatatom 420 470 4 0 0 0 - - -, f 4;
#X floatatom 450 470 4 0 0 0 - - -, f 4;
#X msg 292 532 draw line;
#X msg 292 622 draw fill;
#X obj 290 500 receive blue;
#X obj 290 590 receive red;
#X obj 370 330 gemhead;
#X msg 390 350 set \$1;
#X msg 460 350 set \$1;
#X obj 370 450 translateXYZ 0 0 0;
#X obj 508 438 loadbang;
#X obj 370 630 square 1;
#X obj 600 500 colorRGB 1 0 0;
#X obj 640 400 hsl 87 15 -6 6 0 0 empty empty empty -2 -8 0 10 #fcfcfc
#000000 #000000 6450 1;
#X obj 640 420 hsl 88 15 -6 6 0 0 empty empty empty -2 -8 0 10 #fcfcfc
#000000 #000000 3625 1;
#X floatatom 620 470 4 0 0 0 - - -, f 4;
#X floatatom 650 470 4 0 0 0 - - -, f 4;
#X floatatom 680 470 4 0 0 0 - - -, f 4;
#X msg 522 532 draw line;
#X msg 522 622 draw fill;
#X obj 520 500 receive blue;
#X obj 520 590 receive red;
#X obj 600 330 gemhead;
#X msg 620 350 set \$1;
#X msg 690 350 set \$1;
#X obj 600 450 translateXYZ 0 0 0;
#X obj 738 438 loadbang;
#X obj 600 630 square 1;
#X msg 620 370 3;
#X msg 390 370 -3;
#X msg 460 370 1;
#X msg 690 370 -1;
#X connect 0 0 60 0;
#X connect 1 0 11 0;
#X connect 1 0 13 1;
#X connect 2 0 12 0;
#X connect 2 0 13 2;
#X connect 3 0 0 1;
#X connect 4 0 0 2;
#X connect 5 0 0 3;
#X connect 6 0 60 0;
#X connect 7 0 60 0;
#X connect 8 0 6 0;
#X connect 9 0 7 0;
#X connect 10 0 13 0;
#X connect 11 0 64 0;
#X connect 12 0 65 0;
#X connect 13 0 0 0;
#X connect 14 0 61 0;
#X connect 15 0 25 0;
#X connect 15 0 27 1;
#X connect 16 0 26 0;
#X connect 16 0 27 2;
#X connect 17 0 14 1;
#X connect 18 0 14 2;
#X connect 19 0 14 3;
#X connect 20 0 61 0;
#X connect 21 0 61 0;
#X connect 22 0 20 0;
#X connect 23 0 21 0;
#X connect 24 0 27 0;
#X connect 25 0 66 0;
#X connect 26 0 67 0;
#X connect 27 0 14 0;
#X connect 28 0 62 0;
#X connect 29 0 39 0;
#X connect 29 0 41 1;
#X connect 30 0 40 0;
#X connect 30 0 41 2;
#X connect 31 0 28 1;
#X connect 32 0 28 2;
#X connect 33 0 28 3;
#X connect 34 0 62 0;
#X connect 35 0 62 0;
#X connect 36 0 34 0;
#X connect 37 0 35 0;
#X connect 38 0 41 0;
#X connect 39 0 68 0;
#X connect 40 0 69 0;
#X connect 41 0 28 0;
#X connect 42 0 63 0;
#X connect 43 0 53 0;
#X connect 43 0 55 1;
#X connect 44 0 54 0;
#X connect 44 0 55 2;
#X connect 45 0 42 1;
#X connect 46 0 42 2;
#X connect 47 0 42 3;
#X connect 48 0 63 0;
#X connect 49 0 63 0;
#X connect 50 0 48 0;
#X connect 51 0 49 0;
#X connect 52 0 55 0;
#X connect 53 0 70 0;
#X connect 54 0 71 0;
#X connect 55 0 42 0;
#X connect 56 0 64 0;
#X connect 56 0 65 0;
#X connect 57 0 66 0;
#X connect 57 0 67 0;
#X connect 58 0 70 0;
#X connect 58 0 71 0;
#X connect 59 0 68 0;
#X connect 59 0 69 0;
#X connect 64 0 1 0;
#X connect 64 0 13 1;
#X connect 65 0 13 2;
#X connect 65 0 2 0;
#X connect 66 0 15 0;
#X connect 66 0 27 1;
#X connect 67 0 27 2;
#X connect 67 0 16 0;
#X connect 68 0 29 0;
#X connect 68 0 41 1;
#X connect 69 0 41 2;
#X connect 69 0 30 0;
#X connect 70 0 43 0;
#X connect 70 0 55 1;
#X connect 71 0 55 2;
#X connect 71 0 44 0;
#X connect 72 0 87 0;
#X connect 73 0 83 0;
#X connect 73 0 85 1;
#X connect 74 0 84 0;
#X connect 74 0 85 2;
#X connect 75 0 72 1;
#X connect 76 0 72 2;
#X connect 77 0 72 3;
#X connect 78 0 87 0;
#X connect 79 0 87 0;
#X connect 80 0 78 0;
#X connect 81 0 79 0;
#X connect 82 0 85 0;
#X connect 83 0 105 0;
#X connect 84 0 106 0;
#X connect 85 0 72 0;
#X connect 86 0 105 0;
#X connect 86 0 106 0;
#X connect 88 0 103 0;
#X connect 89 0 99 0;
#X connect 89 0 101 1;
#X connect 90 0 100 0;
#X connect 90 0 101 2;
#X connect 91 0 88 1;
#X connect 92 0 88 2;
#X connect 93 0 88 3;
#X connect 94 0 103 0;
#X connect 95 0 103 0;
#X connect 96 0 94 0;
#X connect 97 0 95 0;
#X connect 98 0 101 0;
#X connect 99 0 104 0;
#X connect 100 0 107 0;
#X connect 101 0 88 0;
#X connect 102 0 104 0;
#X connect 102 0 107 0;
#X connect 104 0 89 0;
#X connect 104 0 101 1;
#X connect 105 0 73 0;
#X connect 105 0 85 1;
#X connect 106 0 85 2;
#X connect 106 0 74 0;
#X connect 107 0 101 2;
#X connect 107 0 90 0;
#X restore 20 130 pd Red_Tiles;
#N canvas 392 13 838 721 Blue_Tiles 0;
#X obj 150 80 hsl 87 15 -6 6 0 0 empty empty empty -2 -8 0 10 #fcfcfc
#000000 #000000 6450 1;
#X obj 150 100 hsl 88 15 -6 6 0 0 empty empty empty -2 -8 0 10 #fcfcfc
#000000 #000000 2175 1;
#X floatatom 130 150 4 0 0 0 - - -, f 4;
#X floatatom 160 150 4 0 0 0 - - -, f 4;
#X floatatom 190 150 4 0 0 0 - - -, f 4;
#X msg 30 220 draw line;
#X msg 30 310 draw fill;
#X obj 110 10 gemhead;
#X msg 130 30 set \$1;
#X msg 200 30 set \$1;
#X obj 110 130 translateXYZ 0 0 0;
#X obj 380 80 hsl 87 15 -6 6 0 0 empty empty empty -2 -8 0 10 #fcfcfc
#000000 #000000 5017 1;
#X obj 380 100 hsl 88 15 -6 6 0 0 empty empty empty -2 -8 0 10 #fcfcfc
#000000 #000000 3625 1;
#X floatatom 360 150 4 0 0 0 - - -, f 4;
#X floatatom 390 150 4 0 0 0 - - -, f 4;
#X floatatom 420 150 4 0 0 0 - - -, f 4;
#X msg 260 220 draw line;
#X msg 260 310 draw fill;
#X obj 340 10 gemhead;
#X msg 360 30 set \$1;
#X msg 430 30 set \$1;
#X obj 340 130 translateXYZ 0 0 0;
#X obj 610 80 hsl 87 15 -6 6 0 0 empty empty empty -2 -8 0 10 #fcfcfc
#000000 #000000 3583 1;
#X obj 610 100 hsl 88 15 -6 6 0 0 empty empty empty -2 -8 0 10 #fcfcfc
#000000 #000000 5075 1;
#X floatatom 590 150 4 0 0 0 - - -, f 4;
#X floatatom 620 150 4 0 0 0 - - -, f 4;
#X floatatom 650 150 4 0 0 0 - - -, f 4;
#X msg 490 220 draw line;
#X msg 490 310 draw fill;
#X obj 570 10 gemhead;
#X msg 590 30 set \$1;
#X msg 660 30 set \$1;
#X obj 570 130 translateXYZ 0 0 0;
#X obj 110 180 colorRGB 0 0 1;
#X obj 340 180 colorRGB 0 0 1;
#X obj 570 180 colorRGB 0 0 1;
#X obj 30 180 receive red;
#X obj 30 270 receive blue;
#X obj 260 180 receive red;
#X obj 260 270 receive blue;
#X obj 490 180 receive red;
#X obj 490 270 receive blue;
#X obj 700 140 loadbang;
#X obj 490 130 loadbang;
#X obj 260 130 loadbang;
#X msg 130 50 3;
#X msg 200 50 -3;
#X obj 110 310 square 1;
#X obj 340 310 square 1;
#X obj 570 310 square 1;
#X msg 360 50 1;
#X msg 430 50 -1;
#X msg 660 50 1;
#X obj 150 420 hsl 87 15 -6 6 0 0 empty empty empty -2 -8 0 10 #fcfcfc
#000000 #000000 2150 1;
#X obj 150 440 hsl 88 15 -6 6 0 0 empty empty empty -2 -8 0 10 #fcfcfc
#000000 #000000 6525 1;
#X floatatom 130 490 4 0 0 0 - - -, f 4;
#X floatatom 160 490 4 0 0 0 - - -, f 4;
#X floatatom 190 490 4 0 0 0 - - -, f 4;
#X msg 30 560 draw line;
#X msg 30 650 draw fill;
#X obj 110 350 gemhead;
#X msg 130 370 set \$1;
#X msg 200 370 set \$1;
#X obj 110 470 translateXYZ 0 0 0;
#X obj 110 520 colorRGB 0 0 1;
#X obj 30 520 receive red;
#X obj 30 610 receive blue;
#X obj 230 510 loadbang;
#X obj 110 650 square 1;
#X msg 130 390 -3;
#X msg 200 390 3;
#X obj 380 430 hsl 87 15 -6 6 0 0 empty empty empty -2 -8 0 10 #fcfcfc
#000000 #000000 5017 1;
#X obj 380 450 hsl 88 15 -6 6 0 0 empty empty empty -2 -8 0 10 #fcfcfc
#000000 #000000 6525 1;
#X floatatom 360 500 4 0 0 0 - - -, f 4;
#X floatatom 390 500 4 0 0 0 - - -, f 4;
#X floatatom 420 500 4 0 0 0 - - -, f 4;
#X msg 260 570 draw line;
#X msg 260 660 draw fill;
#X obj 340 360 gemhead;
#X msg 360 380 set \$1;
#X msg 430 380 set \$1;
#X obj 340 480 translateXYZ 0 0 0;
#X obj 340 530 colorRGB 0 0 1;
#X obj 260 530 receive red;
#X obj 260 620 receive blue;
#X obj 460 520 loadbang;
#X obj 340 660 square 1;
#X msg 430 400 3;
#X obj 610 440 hsl 87 15 -6 6 0 0 empty empty empty -2 -8 0 10 #fcfcfc
#000000 #000000 3583 1;
#X obj 610 460 hsl 88 15 -6 6 0 0 empty empty empty -2 -8 0 10 #fcfcfc
#000000 #000000 2175 1;
#X floatatom 590 510 4 0 0 0 - - -, f 4;
#X floatatom 620 510 4 0 0 0 - - -, f 4;
#X floatatom 650 510 4 0 0 0 - - -, f 4;
#X msg 490 580 draw line;
#X msg 490 670 draw fill;
#X obj 570 370 gemhead;
#X msg 590 390 set \$1;
#X msg 660 390 set \$1;
#X obj 570 490 translateXYZ 0 0 0;
#X obj 570 540 colorRGB 0 0 1;
#X obj 490 540 receive red;
#X obj 490 630 receive blue;
#X obj 690 530 loadbang;
#X obj 570 670 square 1;
#X msg 360 400 1;
#X msg 590 410 -1;
#X msg 660 410 -3;
#X msg 590 50 -1;
#X connect 0 0 8 0;
#X connect 0 0 10 1;
#X connect 1 0 9 0;
#X connect 1 0 10 2;
#X connect 2 0 33 1;
#X connect 3 0 33 2;
#X connect 4 0 33 3;
#X connect 5 0 47 0;
#X connect 6 0 47 0;
#X connect 7 0 10 0;
#X connect 8 0 45 0;
#X connect 9 0 46 0;
#X connect 10 0 33 0;
#X connect 11 0 19 0;
#X connect 11 0 21 1;
#X connect 12 0 20 0;
#X connect 12 0 21 2;
#X connect 13 0 34 1;
#X connect 14 0 34 2;
#X connect 15 0 34 3;
#X connect 16 0 48 0;
#X connect 17 0 48 0;
#X connect 18 0 21 0;
#X connect 19 0 50 0;
#X connect 20 0 51 0;
#X connect 21 0 34 0;
#X connect 22 0 30 0;
#X connect 22 0 32 1;
#X connect 23 0 31 0;
#X connect 23 0 32 2;
#X connect 24 0 35 1;
#X connect 25 0 35 2;
#X connect 26 0 35 3;
#X connect 27 0 49 0;
#X connect 28 0 49 0;
#X connect 29 0 32 0;
#X connect 30 0 107 0;
#X connect 31 0 52 0;
#X connect 32 0 35 0;
#X connect 33 0 47 0;
#X connect 34 0 48 0;
#X connect 35 0 49 0;
#X connect 36 0 5 0;
#X connect 37 0 6 0;
#X connect 38 0 16 0;
#X connect 39 0 17 0;
#X connect 40 0 27 0;
#X connect 41 0 28 0;
#X connect 42 0 107 0;
#X connect 42 0 52 0;
#X connect 43 0 50 0;
#X connect 43 0 51 0;
#X connect 44 0 45 0;
#X connect 44 0 46 0;
#X connect 45 0 0 0;
#X connect 45 0 10 1;
#X connect 46 0 10 2;
#X connect 46 0 1 0;
#X connect 50 0 11 0;
#X connect 50 0 21 1;
#X connect 51 0 21 2;
#X connect 51 0 12 0;
#X connect 52 0 32 2;
#X connect 52 0 23 0;
#X connect 53 0 61 0;
#X connect 53 0 63 1;
#X connect 54 0 63 2;
#X connect 55 0 64 1;
#X connect 56 0 64 2;
#X connect 57 0 64 3;
#X connect 58 0 68 0;
#X connect 59 0 68 0;
#X connect 60 0 63 0;
#X connect 61 0 69 0;
#X connect 62 0 70 0;
#X connect 63 0 64 0;
#X connect 64 0 68 0;
#X connect 65 0 58 0;
#X connect 66 0 59 0;
#X connect 67 0 69 0;
#X connect 67 0 70 0;
#X connect 69 0 53 0;
#X connect 69 0 63 1;
#X connect 70 0 63 2;
#X connect 70 0 54 0;
#X connect 71 0 79 0;
#X connect 71 0 81 1;
#X connect 72 0 81 2;
#X connect 73 0 82 1;
#X connect 74 0 82 2;
#X connect 75 0 82 3;
#X connect 76 0 86 0;
#X connect 77 0 86 0;
#X connect 78 0 81 0;
#X connect 79 0 104 0;
#X connect 80 0 87 0;
#X connect 81 0 82 0;
#X connect 82 0 86 0;
#X connect 83 0 76 0;
#X connect 84 0 77 0;
#X connect 85 0 104 0;
#X connect 85 0 87 0;
#X connect 87 0 81 2;
#X connect 87 0 72 0;
#X connect 88 0 96 0;
#X connect 88 0 98 1;
#X connect 89 0 98 2;
#X connect 90 0 99 1;
#X connect 91 0 99 2;
#X connect 92 0 99 3;
#X connect 93 0 103 0;
#X connect 94 0 103 0;
#X connect 95 0 98 0;
#X connect 96 0 105 0;
#X connect 97 0 106 0;
#X connect 98 0 99 0;
#X connect 99 0 103 0;
#X connect 100 0 93 0;
#X connect 101 0 94 0;
#X connect 102 0 105 0;
#X connect 102 0 106 0;
#X connect 104 0 71 0;
#X connect 104 0 81 1;
#X connect 105 0 88 0;
#X connect 105 0 98 1;
#X connect 106 0 98 2;
#X connect 106 0 89 0;
#X connect 107 0 22 0;
#X connect 107 0 32 1;
#X restore 20 160 pd Blue_Tiles;
#N canvas 796 36 696 711 Green_Tiles 0;
#X obj 190 -90 hsl 87 15 -6 6 0 0 empty empty empty -2 -8 0 10 #fcfcfc
#000000 #000000 2150 1;
#X obj 190 -70 hsl 88 15 -6 6 0 0 empty empty empty -2 -8 0 10 #fcfcfc
#000000 #000000 3625 1;
#X floatatom 190 -20 4 0 0 0 - - -, f 4;
#X floatatom 220 -20 4 0 0 0 - - -, f 4;
#X floatatom 250 -20 4 0 0 0 - - -, f 4;
#X obj 170 -160 gemhead;
#X msg 190 -140 set \$1;
#X msg 260 -140 set \$1;
#X obj 170 -40 translateXYZ 0 0 0;
#X obj 440 -90 hsl 87 15 -6 6 0 0 empty empty empty -2 -8 0 10 #fcfcfc
#000000 #000000 3583 1;
#X obj 440 -70 hsl 88 15 -6 6 0 0 empty empty empty -2 -8 0 10 #fcfcfc
#000000 #000000 6525 1;
#X floatatom 420 -20 4 0 0 0 - - -, f 4;
#X floatatom 450 -20 4 0 0 0 - - -, f 4;
#X floatatom 480 -20 4 0 0 0 - - -, f 4;
#X obj 400 -160 gemhead;
#X msg 420 -140 set \$1;
#X msg 490 -140 set \$1;
#X obj 400 -40 translateXYZ 0 0 0;
#X obj 208 248 hsl 87 15 -6 6 0 0 empty empty empty -2 -8 0 10 #fcfcfc
#000000 #000000 6450 1;
#X obj 208 268 hsl 88 15 -6 6 0 0 empty empty empty -2 -8 0 10 #fcfcfc
#000000 #000000 5075 1;
#X floatatom 188 318 4 0 0 0 - - -, f 4;
#X floatatom 218 318 4 0 0 0 - - -, f 4;
#X floatatom 248 318 4 0 0 0 - - -, f 4;
#X obj 168 178 gemhead;
#X msg 188 198 set \$1;
#X msg 258 198 set \$1;
#X obj 168 298 translateXYZ 0 0 0;
#X obj 308 -82 loadbang;
#X obj 548 -72 loadbang;
#X obj 306 286 loadbang;
#X obj 170 140 square 1;
#X obj 400 140 square 1;
#X obj 170 470 square 1;
#X msg 190 -120 -3;
#X msg 420 -120 -1;
#X msg 188 218 3;
#X obj 438 238 hsl 87 15 -6 6 0 0 empty empty empty -2 -8 0 10 #fcfcfc
#000000 #000000 5017 1;
#X obj 438 258 hsl 88 15 -6 6 0 0 empty empty empty -2 -8 0 10 #fcfcfc
#000000 #000000 2175 1;
#X floatatom 418 308 4 0 0 0 - - -, f 4;
#X floatatom 448 308 4 0 0 0 - - -, f 4;
#X floatatom 478 308 4 0 0 0 - - -, f 4;
#X obj 398 168 gemhead;
#X msg 418 188 set \$1;
#X msg 488 188 set \$1;
#X obj 398 288 translateXYZ 0 0 0;
#X obj 536 276 loadbang;
#X obj 398 468 square 1;
#X obj 170 10 colorRGB 0 1 0;
#X obj 400 10 colorRGB 0 1 0;
#X obj 398 338 colorRGB 0 1 0;
#X obj 168 348 colorRGB 0 1 0;
#X msg 260 -120 -1;
#X msg 490 -120 3;
#X msg 258 218 1;
#X msg 418 208 1;
#X msg 488 208 -3;
#X connect 0 0 6 0;
#X connect 0 0 8 1;
#X connect 1 0 7 0;
#X connect 1 0 8 2;
#X connect 2 0 47 1;
#X connect 3 0 47 2;
#X connect 4 0 47 3;
#X connect 5 0 8 0;
#X connect 6 0 33 0;
#X connect 7 0 51 0;
#X connect 8 0 47 0;
#X connect 9 0 15 0;
#X connect 9 0 17 1;
#X connect 10 0 16 0;
#X connect 10 0 17 2;
#X connect 11 0 48 1;
#X connect 12 0 48 2;
#X connect 13 0 48 3;
#X connect 14 0 17 0;
#X connect 15 0 34 0;
#X connect 16 0 52 0;
#X connect 17 0 48 0;
#X connect 18 0 24 0;
#X connect 18 0 26 1;
#X connect 19 0 25 0;
#X connect 19 0 26 2;
#X connect 20 0 50 1;
#X connect 21 0 50 2;
#X connect 22 0 50 3;
#X connect 23 0 26 0;
#X connect 24 0 35 0;
#X connect 25 0 53 0;
#X connect 26 0 50 0;
#X connect 27 0 33 0;
#X connect 27 0 51 0;
#X connect 28 0 34 0;
#X connect 28 0 52 0;
#X connect 29 0 35 0;
#X connect 29 0 53 0;
#X connect 33 0 0 0;
#X connect 33 0 8 1;
#X connect 34 0 9 0;
#X connect 34 0 17 1;
#X connect 35 0 18 0;
#X connect 35 0 26 1;
#X connect 36 0 42 0;
#X connect 36 0 44 1;
#X connect 37 0 43 0;
#X connect 37 0 44 2;
#X connect 38 0 49 1;
#X connect 39 0 49 2;
#X connect 40 0 49 3;
#X connect 41 0 44 0;
#X connect 42 0 54 0;
#X connect 43 0 55 0;
#X connect 44 0 49 0;
#X connect 45 0 54 0;
#X connect 45 0 55 0;
#X connect 47 0 30 0;
#X connect 48 0 31 0;
#X connect 49 0 46 0;
#X connect 50 0 32 0;
#X connect 51 0 8 2;
#X connect 51 0 1 0;
#X connect 52 0 17 2;
#X connect 52 0 10 0;
#X connect 53 0 26 2;
#X connect 53 0 19 0;
#X connect 54 0 36 0;
#X connect 54 0 44 1;
#X connect 55 0 44 2;
#X connect 55 0 37 0;
#X restore 20 190 pd Green_Tiles;
#N canvas 688 376 146 70 beat-sequencer 0;
#X obj 279 -911 metro;
#X obj 279 -886 bng 15 250 50 0 empty empty empty 17 7 0 10 #fcfcfc
#000000 #000000;
#X obj 279 -843 int 1;
#X floatatom 279 -811 5 0 0 0 - - -, f 5;
#X obj 349 -801 + 1;
#X obj 219 -921 sel 0;
#X obj 219 -896 bng 15 250 50 0 empty empty empty 17 7 0 10 #fcfcfc
#000000 #000000;
#X msg 219 -873 -1;
#X obj 159 -921 loadbang;
#X obj 309 -1011 loadbang;
#X obj 279 -787 % 8;
#X obj 279 -762 + 1;
#X floatatom 279 -737 5 0 0 0 - - -, f 5;
#X obj 279 -671 sel 1;
#X obj 279 -646 bng 15 250 50 0 empty empty empty 17 7 0 10 #fcfcfc
#000000 #000000;
#X obj 279 -623 s One;
#X obj 329 -646 bng 15 250 50 0 empty empty empty 17 7 0 10 #fcfcfc
#000000 #000000;
#X obj 379 -646 bng 15 250 50 0 empty empty empty 17 7 0 10 #fcfcfc
#000000 #000000;
#X obj 429 -646 bng 15 250 50 0 empty empty empty 17 7 0 10 #fcfcfc
#000000 #000000;
#X obj 479 -646 bng 15 250 50 0 empty empty empty 17 7 0 10 #fcfcfc
#000000 #000000;
#X obj 529 -646 bng 15 250 50 0 empty empty empty 17 7 0 10 #fcfcfc
#000000 #000000;
#X obj 579 -646 bng 15 250 50 0 empty empty empty 17 7 0 10 #fcfcfc
#000000 #000000;
#X obj 629 -646 bng 15 250 50 0 empty empty empty 17 7 0 10 #fcfcfc
#000000 #000000;
#X obj 329 -671 sel 2;
#X obj 329 -623 s Two;
#X obj 379 -671 sel 3;
#X obj 379 -623 s Three;
#X obj 429 -671 sel 4;
#X obj 429 -623 s Four;
#X obj 479 -671 sel 5;
#X obj 479 -623 s Five;
#X obj 529 -671 sel 6;
#X obj 529 -623 s Six;
#X obj 579 -671 sel 7;
#X obj 579 -623 s Seven;
#X obj 629 -671 sel 8;
#X obj 629 -623 s Eight;
#X msg 309 -986 375;
#X floatatom 309 -961 5 0 0 0 - - -, f 5;
#X obj 279 -951 tgl 15 0 empty empty empty 17 7 0 10 #fcfcfc #000000
#000000 0 1;
#X obj 139 -571 receive One;
#X obj 139 -541 bng 15 250 50 0 empty empty empty 17 7 0 10 #fcfcfc
#000000 #000000;
#X obj 139 -513 spigot;
#X obj 139 -488 bng 15 250 50 0 empty empty empty 17 7 0 10 #fcfcfc
#000000 #000000;
#X obj 179 -541 tgl 15 0 empty empty empty 17 7 0 10 #fcfcfc #000000
#000000 0 1;
#X obj 219 -541 bng 15 250 50 0 empty empty empty 17 7 0 10 #fcfcfc
#000000 #000000;
#X obj 219 -513 spigot;
#X obj 219 -488 bng 15 250 50 0 empty empty empty 17 7 0 10 #fcfcfc
#000000 #000000;
#X obj 259 -541 tgl 15 0 empty empty empty 17 7 0 10 #fcfcfc #000000
#000000 0 1;
#X obj 299 -541 bng 15 250 50 0 empty empty empty 17 7 0 10 #fcfcfc
#000000 #000000;
#X obj 299 -513 spigot;
#X obj 299 -488 bng 15 250 50 0 empty empty empty 17 7 0 10 #fcfcfc
#000000 #000000;
#X obj 339 -541 tgl 15 0 empty empty empty 17 7 0 10 #fcfcfc #000000
#000000 0 1;
#X obj 389 -541 bng 15 250 50 0 empty empty empty 17 7 0 10 #fcfcfc
#000000 #000000;
#X obj 389 -513 spigot;
#X obj 389 -488 bng 15 250 50 0 empty empty empty 17 7 0 10 #fcfcfc
#000000 #000000;
#X obj 429 -541 tgl 15 0 empty empty empty 17 7 0 10 #fcfcfc #000000
#000000 0 1;
#X obj 469 -541 bng 15 250 50 0 empty empty empty 17 7 0 10 #fcfcfc
#000000 #000000;
#X obj 469 -513 spigot;
#X obj 469 -488 bng 15 250 50 0 empty empty empty 17 7 0 10 #fcfcfc
#000000 #000000;
#X obj 509 -541 tgl 15 0 empty empty empty 17 7 0 10 #fcfcfc #000000
#000000 0 1;
#X obj 549 -541 bng 15 250 50 0 empty empty empty 17 7 0 10 #fcfcfc
#000000 #000000;
#X obj 549 -513 spigot;
#X obj 549 -488 bng 15 250 50 0 empty empty empty 17 7 0 10 #fcfcfc
#000000 #000000;
#X obj 589 -541 tgl 15 0 empty empty empty 17 7 0 10 #fcfcfc #000000
#000000 0 1;
#X obj 629 -541 bng 15 250 50 0 empty empty empty 17 7 0 10 #fcfcfc
#000000 #000000;
#X obj 629 -513 spigot;
#X obj 629 -488 bng 15 250 50 0 empty empty empty 17 7 0 10 #fcfcfc
#000000 #000000;
#X obj 669 -541 tgl 15 0 empty empty empty 17 7 0 10 #fcfcfc #000000
#000000 0 1;
#X obj 719 -541 bng 15 250 50 0 empty empty empty 17 7 0 10 #fcfcfc
#000000 #000000;
#X obj 719 -511 spigot;
#X obj 719 -488 bng 15 250 50 0 empty empty empty 17 7 0 10 #fcfcfc
#000000 #000000;
#X obj 759 -541 tgl 15 0 empty empty empty 17 7 0 10 #fcfcfc #000000
#000000 0 1;
#X obj 219 -571 receive Two;
#X obj 299 -571 receive Three;
#X obj 389 -571 receive Four;
#X obj 469 -571 receive Five;
#X obj 549 -571 receive Six;
#X obj 629 -571 receive Seven;
#X obj 719 -571 receive Eight;
#X obj 239 -401 send red;
#X obj 589 -421 send blue;
#X connect 0 0 1 0;
#X connect 1 0 2 0;
#X connect 2 0 3 0;
#X connect 2 0 4 0;
#X connect 3 0 10 0;
#X connect 4 0 2 1;
#X connect 5 0 6 0;
#X connect 6 0 7 0;
#X connect 7 0 2 0;
#X connect 8 0 6 0;
#X connect 9 0 37 0;
#X connect 10 0 11 0;
#X connect 11 0 12 0;
#X connect 12 0 13 0;
#X connect 12 0 35 0;
#X connect 12 0 33 0;
#X connect 12 0 31 0;
#X connect 12 0 29 0;
#X connect 12 0 27 0;
#X connect 12 0 25 0;
#X connect 12 0 23 0;
#X connect 13 0 14 0;
#X connect 14 0 15 0;
#X connect 16 0 24 0;
#X connect 17 0 26 0;
#X connect 18 0 28 0;
#X connect 19 0 30 0;
#X connect 20 0 32 0;
#X connect 21 0 34 0;
#X connect 22 0 36 0;
#X connect 23 0 16 0;
#X connect 25 0 17 0;
#X connect 27 0 18 0;
#X connect 29 0 19 0;
#X connect 31 0 20 0;
#X connect 33 0 21 0;
#X connect 35 0 22 0;
#X connect 37 0 38 0;
#X connect 38 0 0 1;
#X connect 39 0 0 0;
#X connect 39 0 5 0;
#X connect 40 0 41 0;
#X connect 41 0 42 0;
#X connect 41 0 80 0;
#X connect 42 0 43 0;
#X connect 44 0 42 1;
#X connect 45 0 46 0;
#X connect 45 0 80 0;
#X connect 46 0 47 0;
#X connect 48 0 46 1;
#X connect 49 0 50 0;
#X connect 49 0 80 0;
#X connect 50 0 51 0;
#X connect 52 0 50 1;
#X connect 53 0 54 0;
#X connect 53 0 80 0;
#X connect 54 0 55 0;
#X connect 56 0 54 1;
#X connect 57 0 58 0;
#X connect 57 0 81 0;
#X connect 58 0 59 0;
#X connect 60 0 58 1;
#X connect 61 0 62 0;
#X connect 61 0 81 0;
#X connect 62 0 63 0;
#X connect 64 0 62 1;
#X connect 65 0 66 0;
#X connect 65 0 81 0;
#X connect 66 0 67 0;
#X connect 68 0 66 1;
#X connect 69 0 70 0;
#X connect 69 0 81 0;
#X connect 70 0 71 0;
#X connect 72 0 70 1;
#X connect 73 0 45 0;
#X connect 74 0 49 0;
#X connect 75 0 53 0;
#X connect 76 0 57 0;
#X connect 77 0 61 0;
#X connect 78 0 65 0;
#X connect 79 0 69 0;
#X restore 20 230 pd beat-sequencer;
#X connect 1 0 0 0;
#X connect 2 0 0 0;
