#N canvas 944 384 458 330 10;
#X obj 20 70 gemwin;
#X msg 40 50 destroy;
#X msg 20 30 dimen 600 600 \, create \, 1;
#N canvas 651 28 828 752 Blue_Tiles 1;
#X obj 150 80 hsl 87 15 -6 6 0 0 empty empty empty -2 -8 0 10 #fcfcfc
#000000 #000000 6450 1;
#X obj 150 100 hsl 88 15 -6 6 0 0 empty empty empty -2 -8 0 10 #fcfcfc
#000000 #000000 6525 1;
#X floatatom 130 150 4 0 0 0 - - -, f 4;
#X floatatom 160 150 4 0 0 0 - - -, f 4;
#X floatatom 190 150 4 0 0 0 - - -, f 4;
#X msg 30 220 draw line;
#X msg 30 310 draw fill;
#X obj 110 10 gemhead;
#X msg 130 30 set \$1;
#X msg 200 30 set \$1;
#X obj 110 130 translateXYZ 0 0 0;
#X obj 380 80 hsl 87 15 -6 6 0 0 empty empty empty -2 -8 0 10 #fcfcfc
#000000 #000000 2150 1;
#X obj 380 100 hsl 88 15 -6 6 0 0 empty empty empty -2 -8 0 10 #fcfcfc
#000000 #000000 5075 1;
#X floatatom 360 150 4 0 0 0 - - -, f 4;
#X floatatom 390 150 4 0 0 0 - - -, f 4;
#X floatatom 420 150 4 0 0 0 - - -, f 4;
#X msg 260 220 draw line;
#X msg 260 310 draw fill;
#X obj 340 10 gemhead;
#X msg 360 30 set \$1;
#X msg 430 30 set \$1;
#X obj 610 180 hsl 87 15 -6 6 0 0 empty empty empty -2 -8 0 10 #fcfcfc
#000000 #000000 3583 1;
#X obj 610 200 hsl 88 15 -6 6 0 0 empty empty empty -2 -8 0 10 #fcfcfc
#000000 #000000 5075 1;
#X floatatom 590 250 4 0 0 0 - - -, f 4;
#X floatatom 620 250 4 0 0 0 - - -, f 4;
#X floatatom 650 250 4 0 0 0 - - -, f 4;
#X obj 570 110 gemhead;
#X msg 590 130 set \$1;
#X msg 660 130 set \$1;
#X obj 30 180 receive red;
#X obj 30 270 receive blue;
#X obj 260 180 receive red;
#X obj 260 270 receive blue;
#X obj 700 240 loadbang;
#X obj 490 130 loadbang;
#X obj 260 130 loadbang;
#X msg 130 50 3;
#X obj 110 310 square 1;
#X obj 340 310 square 1;
#X obj 570 310 square 1;
#X msg 660 150 1;
#X obj 150 420 hsl 87 15 -6 6 0 0 empty empty empty -2 -8 0 10 #fcfcfc
#000000 #000000 2150 1;
#X obj 150 440 hsl 88 15 -6 6 0 0 empty empty empty -2 -8 0 10 #fcfcfc
#000000 #000000 6525 1;
#X floatatom 130 490 4 0 0 0 - - -, f 4;
#X floatatom 160 490 4 0 0 0 - - -, f 4;
#X floatatom 190 490 4 0 0 0 - - -, f 4;
#X msg 30 560 draw line;
#X msg 30 650 draw fill;
#X obj 110 350 gemhead;
#X msg 130 370 set \$1;
#X msg 200 370 set \$1;
#X obj 110 470 translateXYZ 0 0 0;
#X obj 30 520 receive red;
#X obj 30 610 receive blue;
#X obj 230 510 loadbang;
#X obj 110 650 square 1;
#X obj 380 430 hsl 87 15 -6 6 0 0 empty empty empty -2 -8 0 10 #fcfcfc
#000000 #000000 5017 1;
#X obj 380 450 hsl 88 15 -6 6 0 0 empty empty empty -2 -8 0 10 #fcfcfc
#000000 #000000 6525 1;
#X floatatom 360 500 4 0 0 0 - - -, f 4;
#X floatatom 390 500 4 0 0 0 - - -, f 4;
#X floatatom 420 500 4 0 0 0 - - -, f 4;
#X msg 260 570 draw line;
#X msg 260 660 draw fill;
#X obj 340 360 gemhead;
#X msg 360 380 set \$1;
#X msg 430 380 set \$1;
#X obj 340 480 translateXYZ 0 0 0;
#X obj 260 530 receive red;
#X obj 260 620 receive blue;
#X obj 460 520 loadbang;
#X obj 340 660 square 1;
#X msg 430 400 3;
#X obj 610 440 hsl 87 15 -6 6 0 0 empty empty empty -2 -8 0 10 #fcfcfc
#000000 #000000 3583 1;
#X obj 610 460 hsl 88 15 -6 6 0 0 empty empty empty -2 -8 0 10 #fcfcfc
#000000 #000000 2175 1;
#X floatatom 590 510 4 0 0 0 - - -, f 4;
#X floatatom 620 510 4 0 0 0 - - -, f 4;
#X floatatom 650 510 4 0 0 0 - - -, f 4;
#X msg 490 580 draw line;
#X msg 490 670 draw fill;
#X obj 570 370 gemhead;
#X msg 590 390 set \$1;
#X msg 660 390 set \$1;
#X obj 570 490 translateXYZ 0 0 0;
#X obj 490 540 receive red;
#X obj 490 630 receive blue;
#X obj 690 530 loadbang;
#X obj 570 670 square 1;
#X msg 360 400 1;
#X msg 590 410 -1;
#X msg 660 410 -3;
#X msg 590 150 -1;
#X obj 20 420 receive all;
#X obj 260 420 receive all;
#X obj 490 410 receive all;
#X msg 130 390 -3;
#X msg 200 390 3;
#X msg 360 50 -3;
#X msg 430 50 1;
#X msg 200 50 3;
#X obj 110 520 colorRGB 0 0 1 0;
#X obj 340 530 colorRGB 0 0 1 0;
#X obj 570 540 colorRGB 0 0 1 0;
#X obj 340 130 translateXYZ 0 0 0;
#X obj 570 230 translateXYZ 0 0 0;
#X obj 570 280 colorRGB 0 0 1 0;
#X obj 340 180 colorRGB 0 0 1 0;
#X obj 110 180 colorRGB 0 0 1 0;
#X obj 570 10 receive red;
#X obj 620 40 receive blue;
#X obj 570 80 tgl 15 0 empty empty empty 17 7 0 10 #fcfcfc #000000
#000000 0 1;
#X obj 570 40 spigot;
#X obj 420 230 bng 15 250 50 0 empty empty empty 17 7 0 10 #fcfcfc
#000000 #000000;
#X obj 420 260 send red;
#X obj 420 290 bng 15 250 50 0 empty empty empty 17 7 0 10 #fcfcfc
#000000 #000000;
#X obj 420 320 send blue;
#X connect 0 0 8 0;
#X connect 0 0 10 1;
#X connect 1 0 9 0;
#X connect 1 0 10 2;
#X connect 2 0 106 1;
#X connect 3 0 106 2;
#X connect 4 0 106 3;
#X connect 5 0 37 0;
#X connect 6 0 37 0;
#X connect 7 0 10 0;
#X connect 8 0 36 0;
#X connect 9 0 98 0;
#X connect 10 0 106 0;
#X connect 11 0 19 0;
#X connect 11 0 102 1;
#X connect 12 0 20 0;
#X connect 12 0 102 2;
#X connect 13 0 105 1;
#X connect 14 0 105 2;
#X connect 15 0 105 3;
#X connect 16 0 38 0;
#X connect 17 0 38 0;
#X connect 18 0 102 0;
#X connect 19 0 96 0;
#X connect 20 0 97 0;
#X connect 21 0 27 0;
#X connect 21 0 103 1;
#X connect 22 0 28 0;
#X connect 22 0 103 2;
#X connect 23 0 104 1;
#X connect 24 0 104 2;
#X connect 25 0 104 3;
#X connect 26 0 103 0;
#X connect 27 0 90 0;
#X connect 28 0 40 0;
#X connect 29 0 5 0;
#X connect 30 0 6 0;
#X connect 31 0 16 0;
#X connect 32 0 17 0;
#X connect 33 0 90 0;
#X connect 33 0 40 0;
#X connect 34 0 96 0;
#X connect 34 0 97 0;
#X connect 35 0 36 0;
#X connect 35 0 98 0;
#X connect 36 0 0 0;
#X connect 36 0 10 1;
#X connect 40 0 22 0;
#X connect 40 0 103 2;
#X connect 41 0 49 0;
#X connect 41 0 51 1;
#X connect 42 0 51 2;
#X connect 43 0 99 1;
#X connect 44 0 99 2;
#X connect 45 0 99 3;
#X connect 46 0 55 0;
#X connect 47 0 55 0;
#X connect 48 0 51 0;
#X connect 49 0 94 0;
#X connect 50 0 95 0;
#X connect 51 0 99 0;
#X connect 52 0 46 0;
#X connect 53 0 47 0;
#X connect 54 0 94 0;
#X connect 54 0 95 0;
#X connect 56 0 64 0;
#X connect 56 0 66 1;
#X connect 57 0 66 2;
#X connect 58 0 100 1;
#X connect 59 0 100 2;
#X connect 60 0 100 3;
#X connect 61 0 70 0;
#X connect 62 0 70 0;
#X connect 63 0 66 0;
#X connect 64 0 87 0;
#X connect 65 0 71 0;
#X connect 66 0 100 0;
#X connect 67 0 61 0;
#X connect 68 0 62 0;
#X connect 69 0 87 0;
#X connect 69 0 71 0;
#X connect 71 0 66 2;
#X connect 71 0 57 0;
#X connect 72 0 80 0;
#X connect 72 0 82 1;
#X connect 73 0 82 2;
#X connect 74 0 101 1;
#X connect 75 0 101 2;
#X connect 76 0 101 3;
#X connect 77 0 86 0;
#X connect 78 0 86 0;
#X connect 79 0 82 0;
#X connect 80 0 88 0;
#X connect 81 0 89 0;
#X connect 82 0 101 0;
#X connect 83 0 77 0;
#X connect 84 0 78 0;
#X connect 85 0 88 0;
#X connect 85 0 89 0;
#X connect 87 0 56 0;
#X connect 87 0 66 1;
#X connect 88 0 72 0;
#X connect 88 0 82 1;
#X connect 89 0 82 2;
#X connect 89 0 73 0;
#X connect 90 0 21 0;
#X connect 90 0 103 1;
#X connect 91 0 6 0;
#X connect 91 0 47 0;
#X connect 92 0 17 0;
#X connect 92 0 62 0;
#X connect 93 0 78 0;
#X connect 94 0 41 0;
#X connect 94 0 51 1;
#X connect 95 0 51 2;
#X connect 95 0 42 0;
#X connect 96 0 11 0;
#X connect 96 0 102 1;
#X connect 97 0 12 0;
#X connect 97 0 102 2;
#X connect 98 0 10 2;
#X connect 98 0 1 0;
#X connect 99 0 55 0;
#X connect 100 0 70 0;
#X connect 101 0 86 0;
#X connect 102 0 105 0;
#X connect 103 0 104 0;
#X connect 104 0 39 0;
#X connect 105 0 38 0;
#X connect 106 0 37 0;
#X connect 107 0 110 0;
#X connect 108 0 109 0;
#X connect 109 0 26 0;
#X connect 109 0 110 1;
#X connect 110 0 109 0;
#X connect 111 0 112 0;
#X connect 113 0 114 0;
#X restore 20 140 pd Blue_Tiles;
#N canvas 688 376 146 70 Green_Tiles 0;
#X obj 190 -90 hsl 87 15 -6 6 0 0 empty empty empty -2 -8 0 10 #fcfcfc
#000000 #000000 2150 1;
#X obj 190 -70 hsl 88 15 -6 6 0 0 empty empty empty -2 -8 0 10 #fcfcfc
#000000 #000000 3625 1;
#X floatatom 190 -20 4 0 0 0 - - -, f 4;
#X floatatom 220 -20 4 0 0 0 - - -, f 4;
#X floatatom 250 -20 4 0 0 0 - - -, f 4;
#X obj 170 -160 gemhead;
#X msg 190 -140 set \$1;
#X msg 260 -140 set \$1;
#X obj 170 -40 translateXYZ 0 0 0;
#X obj 440 -90 hsl 87 15 -6 6 0 0 empty empty empty -2 -8 0 10 #fcfcfc
#000000 #000000 3583 1;
#X obj 440 -70 hsl 88 15 -6 6 0 0 empty empty empty -2 -8 0 10 #fcfcfc
#000000 #000000 6525 1;
#X floatatom 420 -20 4 0 0 0 - - -, f 4;
#X floatatom 450 -20 4 0 0 0 - - -, f 4;
#X floatatom 480 -20 4 0 0 0 - - -, f 4;
#X obj 400 -160 gemhead;
#X msg 420 -140 set \$1;
#X msg 490 -140 set \$1;
#X obj 400 -40 translateXYZ 0 0 0;
#X obj 208 248 hsl 87 15 -6 6 0 0 empty empty empty -2 -8 0 10 #fcfcfc
#000000 #000000 6450 1;
#X obj 208 268 hsl 88 15 -6 6 0 0 empty empty empty -2 -8 0 10 #fcfcfc
#000000 #000000 5075 1;
#X floatatom 188 318 4 0 0 0 - - -, f 4;
#X floatatom 218 318 4 0 0 0 - - -, f 4;
#X floatatom 248 318 4 0 0 0 - - -, f 4;
#X obj 168 178 gemhead;
#X msg 188 198 set \$1;
#X msg 258 198 set \$1;
#X obj 168 298 translateXYZ 0 0 0;
#X obj 308 -82 loadbang;
#X obj 548 -72 loadbang;
#X obj 306 286 loadbang;
#X obj 170 140 square 1;
#X obj 400 140 square 1;
#X obj 170 470 square 1;
#X msg 190 -120 -3;
#X msg 420 -120 -1;
#X msg 188 218 3;
#X obj 438 238 hsl 87 15 -6 6 0 0 empty empty empty -2 -8 0 10 #fcfcfc
#000000 #000000 5017 1;
#X obj 438 258 hsl 88 15 -6 6 0 0 empty empty empty -2 -8 0 10 #fcfcfc
#000000 #000000 2175 1;
#X floatatom 418 308 4 0 0 0 - - -, f 4;
#X floatatom 448 308 4 0 0 0 - - -, f 4;
#X floatatom 478 308 4 0 0 0 - - -, f 4;
#X obj 398 168 gemhead;
#X msg 418 188 set \$1;
#X msg 488 188 set \$1;
#X obj 398 288 translateXYZ 0 0 0;
#X obj 536 276 loadbang;
#X obj 398 468 square 1;
#X obj 170 10 colorRGB 0 1 0;
#X obj 400 10 colorRGB 0 1 0;
#X obj 398 338 colorRGB 0 1 0;
#X msg 260 -120 -1;
#X msg 490 -120 3;
#X msg 258 218 1;
#X msg 418 208 1;
#X msg 488 208 -3;
#X obj 168 348 colorRGB 0 1 0;
#X connect 0 0 6 0;
#X connect 0 0 8 1;
#X connect 1 0 7 0;
#X connect 1 0 8 2;
#X connect 2 0 47 1;
#X connect 3 0 47 2;
#X connect 4 0 47 3;
#X connect 5 0 8 0;
#X connect 6 0 33 0;
#X connect 7 0 50 0;
#X connect 8 0 47 0;
#X connect 9 0 15 0;
#X connect 9 0 17 1;
#X connect 10 0 16 0;
#X connect 10 0 17 2;
#X connect 11 0 48 1;
#X connect 12 0 48 2;
#X connect 13 0 48 3;
#X connect 14 0 17 0;
#X connect 15 0 34 0;
#X connect 16 0 51 0;
#X connect 17 0 48 0;
#X connect 18 0 24 0;
#X connect 18 0 26 1;
#X connect 19 0 25 0;
#X connect 19 0 26 2;
#X connect 20 0 55 1;
#X connect 21 0 55 2;
#X connect 22 0 55 3;
#X connect 23 0 26 0;
#X connect 24 0 35 0;
#X connect 25 0 52 0;
#X connect 26 0 55 0;
#X connect 27 0 33 0;
#X connect 27 0 50 0;
#X connect 28 0 34 0;
#X connect 28 0 51 0;
#X connect 29 0 35 0;
#X connect 29 0 52 0;
#X connect 33 0 0 0;
#X connect 33 0 8 1;
#X connect 34 0 9 0;
#X connect 34 0 17 1;
#X connect 35 0 18 0;
#X connect 35 0 26 1;
#X connect 36 0 42 0;
#X connect 36 0 44 1;
#X connect 37 0 43 0;
#X connect 37 0 44 2;
#X connect 38 0 49 1;
#X connect 39 0 49 2;
#X connect 40 0 49 3;
#X connect 41 0 44 0;
#X connect 42 0 53 0;
#X connect 43 0 54 0;
#X connect 44 0 49 0;
#X connect 45 0 53 0;
#X connect 45 0 54 0;
#X connect 47 0 30 0;
#X connect 48 0 31 0;
#X connect 49 0 46 0;
#X connect 50 0 8 2;
#X connect 50 0 1 0;
#X connect 51 0 17 2;
#X connect 51 0 10 0;
#X connect 52 0 26 2;
#X connect 52 0 19 0;
#X connect 53 0 36 0;
#X connect 53 0 44 1;
#X connect 54 0 44 2;
#X connect 54 0 37 0;
#X connect 55 0 32 0;
#X restore 20 180 pd Green_Tiles;
#N canvas 688 376 758 358 beat-sequencer 0;
#X obj 279 -911 metro;
#X obj 279 -886 bng 15 250 50 0 empty empty empty 17 7 0 10 #fcfcfc
#000000 #000000;
#X obj 279 -843 int 1;
#X floatatom 279 -811 5 0 0 0 - - -, f 5;
#X obj 349 -801 + 1;
#X obj 219 -921 sel 0;
#X obj 219 -896 bng 15 250 50 0 empty empty empty 17 7 0 10 #fcfcfc
#000000 #000000;
#X msg 219 -873 -1;
#X obj 159 -921 loadbang;
#X obj 309 -1011 loadbang;
#X obj 279 -787 % 8;
#X obj 279 -762 + 1;
#X floatatom 279 -737 5 0 0 0 - - -, f 5;
#X obj 279 -671 sel 1;
#X obj 279 -646 bng 15 250 50 0 empty empty empty 17 7 0 10 #fcfcfc
#000000 #000000;
#X obj 279 -623 s One;
#X obj 329 -646 bng 15 250 50 0 empty empty empty 17 7 0 10 #fcfcfc
#000000 #000000;
#X obj 379 -646 bng 15 250 50 0 empty empty empty 17 7 0 10 #fcfcfc
#000000 #000000;
#X obj 429 -646 bng 15 250 50 0 empty empty empty 17 7 0 10 #fcfcfc
#000000 #000000;
#X obj 479 -646 bng 15 250 50 0 empty empty empty 17 7 0 10 #fcfcfc
#000000 #000000;
#X obj 529 -646 bng 15 250 50 0 empty empty empty 17 7 0 10 #fcfcfc
#000000 #000000;
#X obj 579 -646 bng 15 250 50 0 empty empty empty 17 7 0 10 #fcfcfc
#000000 #000000;
#X obj 629 -646 bng 15 250 50 0 empty empty empty 17 7 0 10 #fcfcfc
#000000 #000000;
#X obj 329 -671 sel 2;
#X obj 329 -623 s Two;
#X obj 379 -671 sel 3;
#X obj 379 -623 s Three;
#X obj 429 -671 sel 4;
#X obj 429 -623 s Four;
#X obj 479 -671 sel 5;
#X obj 479 -623 s Five;
#X obj 529 -671 sel 6;
#X obj 529 -623 s Six;
#X obj 579 -671 sel 7;
#X obj 579 -623 s Seven;
#X obj 629 -671 sel 8;
#X obj 629 -623 s Eight;
#X floatatom 309 -961 5 0 0 0 - - -, f 5;
#X obj 279 -951 tgl 15 0 empty empty empty 17 7 0 10 #fcfcfc #000000
#000000 0 1;
#X obj 139 -571 receive One;
#X obj 139 -541 bng 15 250 50 0 empty empty empty 17 7 0 10 #fcfcfc
#000000 #000000;
#X obj 139 -513 spigot;
#X obj 139 -488 bng 15 250 50 0 empty empty empty 17 7 0 10 #fcfcfc
#000000 #000000;
#X obj 179 -541 tgl 15 0 empty empty empty 17 7 0 10 #fcfcfc #000000
#000000 0 1;
#X obj 219 -541 bng 15 250 50 0 empty empty empty 17 7 0 10 #fcfcfc
#000000 #000000;
#X obj 219 -513 spigot;
#X obj 219 -488 bng 15 250 50 0 empty empty empty 17 7 0 10 #fcfcfc
#000000 #000000;
#X obj 259 -541 tgl 15 0 empty empty empty 17 7 0 10 #fcfcfc #000000
#000000 0 1;
#X obj 299 -541 bng 15 250 50 0 empty empty empty 17 7 0 10 #fcfcfc
#000000 #000000;
#X obj 299 -513 spigot;
#X obj 299 -488 bng 15 250 50 0 empty empty empty 17 7 0 10 #fcfcfc
#000000 #000000;
#X obj 339 -541 tgl 15 0 empty empty empty 17 7 0 10 #fcfcfc #000000
#000000 0 1;
#X obj 389 -541 bng 15 250 50 0 empty empty empty 17 7 0 10 #fcfcfc
#000000 #000000;
#X obj 389 -513 spigot;
#X obj 389 -488 bng 15 250 50 0 empty empty empty 17 7 0 10 #fcfcfc
#000000 #000000;
#X obj 429 -541 tgl 15 0 empty empty empty 17 7 0 10 #fcfcfc #000000
#000000 0 1;
#X obj 469 -541 bng 15 250 50 0 empty empty empty 17 7 0 10 #fcfcfc
#000000 #000000;
#X obj 469 -513 spigot;
#X obj 469 -488 bng 15 250 50 0 empty empty empty 17 7 0 10 #fcfcfc
#000000 #000000;
#X obj 509 -541 tgl 15 0 empty empty empty 17 7 0 10 #fcfcfc #000000
#000000 0 1;
#X obj 549 -541 bng 15 250 50 0 empty empty empty 17 7 0 10 #fcfcfc
#000000 #000000;
#X obj 549 -513 spigot;
#X obj 549 -488 bng 15 250 50 0 empty empty empty 17 7 0 10 #fcfcfc
#000000 #000000;
#X obj 589 -541 tgl 15 0 empty empty empty 17 7 0 10 #fcfcfc #000000
#000000 0 1;
#X obj 629 -541 bng 15 250 50 0 empty empty empty 17 7 0 10 #fcfcfc
#000000 #000000;
#X obj 629 -513 spigot;
#X obj 629 -488 bng 15 250 50 0 empty empty empty 17 7 0 10 #fcfcfc
#000000 #000000;
#X obj 669 -541 tgl 15 0 empty empty empty 17 7 0 10 #fcfcfc #000000
#000000 0 1;
#X obj 719 -541 bng 15 250 50 0 empty empty empty 17 7 0 10 #fcfcfc
#000000 #000000;
#X obj 719 -511 spigot;
#X obj 719 -488 bng 15 250 50 0 empty empty empty 17 7 0 10 #fcfcfc
#000000 #000000;
#X obj 759 -541 tgl 15 0 empty empty empty 17 7 0 10 #fcfcfc #000000
#000000 0 1;
#X obj 219 -571 receive Two;
#X obj 299 -571 receive Three;
#X obj 389 -571 receive Four;
#X obj 469 -571 receive Five;
#X obj 549 -571 receive Six;
#X obj 629 -571 receive Seven;
#X obj 719 -571 receive Eight;
#X obj 239 -401 send red;
#X obj 589 -421 send blue;
#X obj 170 -830 send all;
#X msg 309 -986 500;
#X obj 170 -990 receive start_beats;
#X connect 0 0 1 0;
#X connect 1 0 2 0;
#X connect 2 0 3 0;
#X connect 2 0 4 0;
#X connect 3 0 10 0;
#X connect 4 0 2 1;
#X connect 5 0 6 0;
#X connect 6 0 7 0;
#X connect 6 0 81 0;
#X connect 7 0 2 0;
#X connect 8 0 6 0;
#X connect 9 0 82 0;
#X connect 10 0 11 0;
#X connect 11 0 12 0;
#X connect 12 0 13 0;
#X connect 12 0 35 0;
#X connect 12 0 33 0;
#X connect 12 0 31 0;
#X connect 12 0 29 0;
#X connect 12 0 27 0;
#X connect 12 0 25 0;
#X connect 12 0 23 0;
#X connect 13 0 14 0;
#X connect 14 0 15 0;
#X connect 16 0 24 0;
#X connect 17 0 26 0;
#X connect 18 0 28 0;
#X connect 19 0 30 0;
#X connect 20 0 32 0;
#X connect 21 0 34 0;
#X connect 22 0 36 0;
#X connect 23 0 16 0;
#X connect 25 0 17 0;
#X connect 27 0 18 0;
#X connect 29 0 19 0;
#X connect 31 0 20 0;
#X connect 33 0 21 0;
#X connect 35 0 22 0;
#X connect 37 0 0 1;
#X connect 38 0 0 0;
#X connect 38 0 5 0;
#X connect 39 0 40 0;
#X connect 40 0 41 0;
#X connect 40 0 79 0;
#X connect 41 0 42 0;
#X connect 43 0 41 1;
#X connect 44 0 45 0;
#X connect 44 0 79 0;
#X connect 45 0 46 0;
#X connect 47 0 45 1;
#X connect 48 0 49 0;
#X connect 48 0 79 0;
#X connect 49 0 50 0;
#X connect 51 0 49 1;
#X connect 52 0 53 0;
#X connect 52 0 79 0;
#X connect 53 0 54 0;
#X connect 55 0 53 1;
#X connect 56 0 57 0;
#X connect 56 0 80 0;
#X connect 57 0 58 0;
#X connect 59 0 57 1;
#X connect 60 0 61 0;
#X connect 60 0 80 0;
#X connect 61 0 62 0;
#X connect 63 0 61 1;
#X connect 64 0 65 0;
#X connect 64 0 80 0;
#X connect 65 0 66 0;
#X connect 67 0 65 1;
#X connect 68 0 69 0;
#X connect 68 0 80 0;
#X connect 69 0 70 0;
#X connect 71 0 69 1;
#X connect 72 0 44 0;
#X connect 73 0 48 0;
#X connect 74 0 52 0;
#X connect 75 0 56 0;
#X connect 76 0 60 0;
#X connect 77 0 64 0;
#X connect 78 0 68 0;
#X connect 82 0 37 0;
#X connect 83 0 38 0;
#X restore 20 110 pd beat-sequencer;
#X obj 200 10 tgl 15 0 empty empty empty 17 7 0 10 #fcfcfc #000000
#000000 0 1;
#N canvas 530 189 462 375 score 1;
#X obj 160 40 gemhead;
#X obj 260 240 f;
#X obj 320 90 bng 15 250 50 0 empty empty empty 17 7 0 10 #fcfcfc #000000
#000000;
#X floatatom 310 150 5 0 0 0 - - -, f 5;
#X msg 280 210 float \$1;
#X msg 160 10 set 69;
#X obj 160 220 colorRGB 1 1 1;
#X obj 200 130 hsl 87 15 -6 6 0 0 empty empty empty -2 -8 0 10 #fcfcfc
#000000 #000000 6850 1;
#X obj 200 150 hsl 88 15 -6 6 0 0 empty empty empty -2 -8 0 10 #fcfcfc
#000000 #000000 7150 1;
#X msg 180 80 set \$1;
#X msg 250 80 set \$1;
#X msg 180 100 3.55814;
#X msg 250 100 3.86207;
#X obj 160 180 translateXYZ 0 0 0;
#X floatatom 220 260 5 0 0 0 - - -, f 5;
#X obj 230 40 loadbang;
#X obj 160 280 text2d 0;
#X obj 70 130 hsl 87 15 -6 6 0 0 empty empty empty -2 -8 0 10 #fcfcfc
#000000 #000000 6450 1;
#X obj 70 150 hsl 88 15 -6 6 0 0 empty empty empty -2 -8 0 10 #fcfcfc
#000000 #000000 7150 1;
#X msg 50 80 set \$1;
#X msg 120 80 set \$1;
#X msg 50 100 3;
#X msg 120 100 3.86207;
#X obj 30 180 translateXYZ 0 0 0;
#X floatatom 90 260 5 0 0 0 - - -, f 5;
#X obj 100 40 loadbang;
#X obj 30 40 gemhead;
#X msg 30 10 set 69;
#X obj 30 280 text2d Score:;
#X obj 30 220 colorRGB 1 1 1;
#X obj 320 50 receive score;
#X obj 370 150 + 1;
#X msg 320 120 1;
#X obj 320 20 receive game_over;
#X msg 400 100 0;
#X connect 0 0 13 0;
#X connect 1 0 16 0;
#X connect 2 0 32 0;
#X connect 3 0 31 1;
#X connect 3 0 4 0;
#X connect 4 0 1 0;
#X connect 5 0 0 0;
#X connect 6 0 16 0;
#X connect 7 0 9 0;
#X connect 7 0 13 1;
#X connect 8 0 10 0;
#X connect 8 0 13 2;
#X connect 9 0 11 0;
#X connect 10 0 12 0;
#X connect 11 0 7 0;
#X connect 12 0 8 0;
#X connect 13 0 6 0;
#X connect 14 0 16 1;
#X connect 15 0 11 0;
#X connect 15 0 12 0;
#X connect 15 0 5 0;
#X connect 17 0 19 0;
#X connect 17 0 23 1;
#X connect 18 0 20 0;
#X connect 18 0 23 2;
#X connect 19 0 21 0;
#X connect 20 0 22 0;
#X connect 21 0 17 0;
#X connect 22 0 18 0;
#X connect 23 0 29 0;
#X connect 24 0 28 1;
#X connect 25 0 21 0;
#X connect 25 0 22 0;
#X connect 25 0 27 0;
#X connect 26 0 23 0;
#X connect 27 0 26 0;
#X connect 29 0 28 0;
#X connect 30 0 2 0;
#X connect 31 0 3 0;
#X connect 32 0 31 0;
#X connect 33 0 34 0;
#X connect 34 0 3 0;
#X restore 20 90 pd score;
#N canvas 620 5 870 721 SkyBlue_Tiles 0;
#X obj 162 72 hsl 87 15 -6 6 0 0 empty empty empty -2 -8 0 10 #fcfcfc
#000000 #000000 2150 1;
#X obj 162 92 hsl 88 15 -6 6 0 0 empty empty empty -2 -8 0 10 #fcfcfc
#000000 #000000 2175 1;
#X floatatom 160 140 6 0 0 0 - - -, f 6;
#X floatatom 210 140 6 0 0 0 - - -, f 6;
#X floatatom 260 140 6 0 0 0 - - -, f 6;
#X msg 62 212 draw line;
#X msg 62 302 draw fill;
#X obj 62 172 receive blue;
#X obj 62 262 receive red;
#X obj 142 2 gemhead;
#X msg 162 22 set \$1;
#X msg 232 22 set \$1;
#X obj 142 122 translateXYZ 0 0 0;
#X obj 412 72 hsl 87 15 -6 6 0 0 empty empty empty -2 -8 0 10 #fcfcfc
#000000 #000000 3583 1;
#X obj 412 92 hsl 88 15 -6 6 0 0 empty empty empty -2 -8 0 10 #fcfcfc
#000000 #000000 3625 1;
#X floatatom 392 142 4 0 0 0 - - -, f 4;
#X floatatom 422 142 4 0 0 0 - - -, f 4;
#X floatatom 452 142 4 0 0 0 - - -, f 4;
#X msg 292 212 draw line;
#X msg 292 302 draw fill;
#X obj 292 172 receive blue;
#X obj 292 262 receive red;
#X obj 372 2 gemhead;
#X msg 392 22 set \$1;
#X msg 462 22 set \$1;
#X obj 372 122 translateXYZ 0 0 0;
#X obj 642 72 hsl 87 15 -6 6 0 0 empty empty empty -2 -8 0 10 #fcfcfc
#000000 #000000 5017 1;
#X obj 642 92 hsl 88 15 -6 6 0 0 empty empty empty -2 -8 0 10 #fcfcfc
#000000 #000000 5075 1;
#X floatatom 622 142 4 0 0 0 - - -, f 4;
#X floatatom 652 142 4 0 0 0 - - -, f 4;
#X floatatom 682 142 4 0 0 0 - - -, f 4;
#X msg 522 212 draw line;
#X msg 522 302 draw fill;
#X obj 522 172 receive blue;
#X obj 522 262 receive red;
#X obj 602 2 gemhead;
#X msg 622 22 set \$1;
#X msg 692 22 set \$1;
#X obj 602 122 translateXYZ 0 0 0;
#X obj 180 410 hsl 87 15 -6 6 0 0 empty empty empty -2 -8 0 10 #fcfcfc
#000000 #000000 6450 1;
#X obj 180 430 hsl 88 15 -6 6 0 0 empty empty empty -2 -8 0 10 #fcfcfc
#000000 #000000 2175 1;
#X floatatom 160 480 4 0 0 0 - - -, f 4;
#X floatatom 190 480 4 0 0 0 - - -, f 4;
#X floatatom 220 480 4 0 0 0 - - -, f 4;
#X msg 62 542 draw line;
#X msg 62 632 draw fill;
#X obj 60 510 receive blue;
#X obj 60 600 receive red;
#X obj 140 340 gemhead;
#X msg 160 360 set \$1;
#X msg 230 360 set \$1;
#X obj 140 460 translateXYZ 0 0 0;
#X obj 280 80 loadbang;
#X obj 520 90 loadbang;
#X obj 278 448 loadbang;
#X obj 740 90 loadbang;
#X obj 142 302 square 1;
#X obj 372 302 square 1;
#X obj 602 302 square 1;
#X obj 140 640 square 1;
#X msg 162 42 -3;
#X msg 232 42 -3;
#X msg 392 42 -1;
#X msg 462 42 -1;
#X msg 622 42 1;
#X msg 692 42 1;
#X msg 160 380 3;
#X obj 410 400 hsl 87 15 -6 6 0 0 empty empty empty -2 -8 0 10 #fcfcfc
#000000 #000000 5017 1;
#X obj 410 420 hsl 88 15 -6 6 0 0 empty empty empty -2 -8 0 10 #fcfcfc
#000000 #000000 3625 1;
#X floatatom 390 470 4 0 0 0 - - -, f 4;
#X floatatom 420 470 4 0 0 0 - - -, f 4;
#X floatatom 450 470 4 0 0 0 - - -, f 4;
#X msg 292 532 draw line;
#X msg 292 622 draw fill;
#X obj 290 500 receive blue;
#X obj 290 590 receive red;
#X obj 370 330 gemhead;
#X msg 390 350 set \$1;
#X msg 460 350 set \$1;
#X obj 370 450 translateXYZ 0 0 0;
#X obj 508 438 loadbang;
#X obj 370 630 square 1;
#X obj 640 400 hsl 87 15 -6 6 0 0 empty empty empty -2 -8 0 10 #fcfcfc
#000000 #000000 6450 1;
#X obj 640 420 hsl 88 15 -6 6 0 0 empty empty empty -2 -8 0 10 #fcfcfc
#000000 #000000 3625 1;
#X floatatom 620 470 4 0 0 0 - - -, f 4;
#X floatatom 650 470 4 0 0 0 - - -, f 4;
#X floatatom 680 470 4 0 0 0 - - -, f 4;
#X msg 522 532 draw line;
#X msg 522 622 draw fill;
#X obj 520 500 receive blue;
#X obj 520 590 receive red;
#X obj 600 330 gemhead;
#X msg 620 350 set \$1;
#X msg 690 350 set \$1;
#X obj 600 450 translateXYZ 0 0 0;
#X obj 738 438 loadbang;
#X obj 600 630 square 1;
#X msg 620 370 3;
#X msg 690 370 -1;
#X obj 30 380 receive all;
#X obj 290 360 receive all;
#X obj 520 360 receive all;
#X obj 142 172 colorRGB 0.529 0.8 0.921;
#X obj 372 172 colorRGB 0.529 0.8 0.921;
#X obj 602 172 colorRGB 0.529 0.8 0.921;
#X obj 140 510 colorRGB 0.529 0.8 0.921;
#X obj 370 500 colorRGB 0.529 0.8 0.921;
#X obj 600 500 colorRGB 0.529 0.8 0.921;
#X msg 390 370 1;
#X msg 460 370 -1;
#X msg 230 380 -3;
#X connect 0 0 10 0;
#X connect 0 0 12 1;
#X connect 1 0 11 0;
#X connect 1 0 12 2;
#X connect 2 0 102 1;
#X connect 3 0 102 2;
#X connect 4 0 102 3;
#X connect 5 0 56 0;
#X connect 6 0 56 0;
#X connect 7 0 5 0;
#X connect 8 0 6 0;
#X connect 9 0 12 0;
#X connect 10 0 60 0;
#X connect 11 0 61 0;
#X connect 12 0 102 0;
#X connect 13 0 23 0;
#X connect 13 0 25 1;
#X connect 14 0 24 0;
#X connect 14 0 25 2;
#X connect 15 0 103 1;
#X connect 16 0 103 2;
#X connect 17 0 103 3;
#X connect 18 0 57 0;
#X connect 19 0 57 0;
#X connect 20 0 18 0;
#X connect 21 0 19 0;
#X connect 22 0 25 0;
#X connect 23 0 62 0;
#X connect 24 0 63 0;
#X connect 25 0 103 0;
#X connect 26 0 36 0;
#X connect 26 0 38 1;
#X connect 27 0 37 0;
#X connect 27 0 38 2;
#X connect 28 0 104 1;
#X connect 29 0 104 2;
#X connect 30 0 104 3;
#X connect 31 0 58 0;
#X connect 32 0 58 0;
#X connect 33 0 31 0;
#X connect 34 0 32 0;
#X connect 35 0 38 0;
#X connect 36 0 64 0;
#X connect 37 0 65 0;
#X connect 38 0 104 0;
#X connect 39 0 49 0;
#X connect 39 0 51 1;
#X connect 40 0 50 0;
#X connect 40 0 51 2;
#X connect 41 0 105 1;
#X connect 42 0 105 2;
#X connect 43 0 105 3;
#X connect 44 0 59 0;
#X connect 45 0 59 0;
#X connect 46 0 44 0;
#X connect 47 0 45 0;
#X connect 48 0 51 0;
#X connect 49 0 66 0;
#X connect 50 0 110 0;
#X connect 51 0 105 0;
#X connect 52 0 60 0;
#X connect 52 0 61 0;
#X connect 53 0 62 0;
#X connect 53 0 63 0;
#X connect 54 0 66 0;
#X connect 54 0 110 0;
#X connect 55 0 64 0;
#X connect 55 0 65 0;
#X connect 60 0 0 0;
#X connect 60 0 12 1;
#X connect 61 0 12 2;
#X connect 61 0 1 0;
#X connect 62 0 13 0;
#X connect 62 0 25 1;
#X connect 63 0 25 2;
#X connect 63 0 14 0;
#X connect 64 0 26 0;
#X connect 64 0 38 1;
#X connect 65 0 38 2;
#X connect 65 0 27 0;
#X connect 66 0 39 0;
#X connect 66 0 51 1;
#X connect 67 0 77 0;
#X connect 67 0 79 1;
#X connect 68 0 78 0;
#X connect 68 0 79 2;
#X connect 69 0 106 1;
#X connect 70 0 106 2;
#X connect 71 0 106 3;
#X connect 72 0 81 0;
#X connect 73 0 81 0;
#X connect 74 0 72 0;
#X connect 75 0 73 0;
#X connect 76 0 79 0;
#X connect 77 0 108 0;
#X connect 78 0 109 0;
#X connect 79 0 106 0;
#X connect 80 0 108 0;
#X connect 80 0 109 0;
#X connect 82 0 92 0;
#X connect 82 0 94 1;
#X connect 83 0 93 0;
#X connect 83 0 94 2;
#X connect 84 0 107 1;
#X connect 85 0 107 2;
#X connect 86 0 107 3;
#X connect 87 0 96 0;
#X connect 88 0 96 0;
#X connect 89 0 87 0;
#X connect 90 0 88 0;
#X connect 91 0 94 0;
#X connect 92 0 97 0;
#X connect 93 0 98 0;
#X connect 94 0 107 0;
#X connect 95 0 97 0;
#X connect 95 0 98 0;
#X connect 97 0 82 0;
#X connect 97 0 94 1;
#X connect 98 0 94 2;
#X connect 98 0 83 0;
#X connect 99 0 6 0;
#X connect 99 0 45 0;
#X connect 100 0 19 0;
#X connect 100 0 73 0;
#X connect 101 0 32 0;
#X connect 101 0 88 0;
#X connect 102 0 56 0;
#X connect 103 0 57 0;
#X connect 104 0 58 0;
#X connect 105 0 59 0;
#X connect 106 0 81 0;
#X connect 107 0 96 0;
#X connect 108 0 67 0;
#X connect 108 0 79 1;
#X connect 109 0 79 2;
#X connect 109 0 68 0;
#X connect 110 0 51 2;
#X connect 110 0 40 0;
#X restore 20 160 pd SkyBlue_Tiles;
#N canvas 1012 44 454 534 set_reference 0;
#X obj 186 336 pack 0 0;
#X floatatom 106 336 7 0 0 0 - - -, f 7;
#X floatatom 296 336 6 0 0 0 - - -, f 6;
#X obj 214 114 bng 15 250 50 0 empty empty empty 17 7 0 10 #fcfcfc
#000000 #000000;
#X obj 66 206 random 1000;
#X obj 66 231 / 1000;
#X obj 136 286 +;
#X obj 336 206 random 1000;
#X obj 336 231 / 1000;
#X obj 184 364 outlet;
#X obj 220 190 -;
#X obj 166 136 random 7;
#X obj 236 136 random 7;
#X obj 220 170 swap 7;
#X obj 166 224 - 3.5;
#X obj 230 220 - 3.5;
#X obj 170 290 send new_point;
#X obj 266 286 -;
#X obj 180 60 receive spawn;
#X connect 0 0 9 0;
#X connect 3 0 4 0;
#X connect 3 0 7 0;
#X connect 3 0 11 0;
#X connect 3 0 12 0;
#X connect 3 0 16 0;
#X connect 4 0 5 0;
#X connect 5 0 6 1;
#X connect 6 0 1 0;
#X connect 6 0 0 0;
#X connect 7 0 8 0;
#X connect 8 0 17 1;
#X connect 10 0 15 0;
#X connect 11 0 14 0;
#X connect 12 0 13 0;
#X connect 13 0 10 0;
#X connect 13 1 10 1;
#X connect 14 0 6 0;
#X connect 15 0 17 0;
#X connect 17 0 2 0;
#X connect 17 0 0 1;
#X connect 18 0 3 0;
#X restore 40 240 pd set_reference;
#X floatatom 70 280 5 0 0 0 - - -, f 5;
#X msg 70 260 0.28;
#X obj 90 210 loadbang;
#N canvas 688 376 146 70 Player 0;
#X obj 228 449 outlet;
#X obj 220 60 key 1;
#X obj 240 170 f;
#X floatatom 172 374 5 0 0 0 - - -, f 5;
#X msg 172 276 \$1 100;
#X obj 172 305 line;
#X obj 172 184 pack f f;
#X obj 172 213 route 1 2;
#X msg 162 126 1;
#X msg 212 126 2;
#X obj 162 155 t f b;
#X obj 402 176 f;
#X floatatom 312 374 5 0 0 0 - - -, f 5;
#X msg 312 276 \$1 100;
#X obj 312 305 line;
#X obj 312 184 pack f f;
#X obj 312 213 route 1 2;
#X msg 302 126 1;
#X msg 352 126 2;
#X obj 302 155 t f b;
#X obj 220 90 select 100 97 119 115;
#X obj 228 409 pack 0 0;
#X obj 228 359 bng 15 250 50 0 empty empty empty 17 7 0 10 #fcfcfc
#000000 #000000;
#X obj 110 440 translateXYZ;
#X obj 110 500 square 0.2;
#X obj 110 470 colorRGB 1 1 0;
#X obj 70 380 gemhead;
#X msg 70 350 set 51;
#X obj 70 320 loadbang;
#X obj 172 242 + 0.423;
#X obj 220 240 - 0.423;
#X obj 312 242 + 0.423;
#X obj 360 240 - 0.423;
#X connect 1 0 20 0;
#X connect 2 0 6 1;
#X connect 3 0 2 1;
#X connect 3 0 21 0;
#X connect 3 0 23 1;
#X connect 4 0 5 0;
#X connect 5 0 3 0;
#X connect 6 0 7 0;
#X connect 7 0 29 0;
#X connect 7 1 30 0;
#X connect 8 0 10 0;
#X connect 9 0 10 0;
#X connect 10 0 6 0;
#X connect 10 1 2 0;
#X connect 11 0 15 1;
#X connect 12 0 11 1;
#X connect 12 0 21 1;
#X connect 12 0 22 0;
#X connect 12 0 23 2;
#X connect 13 0 14 0;
#X connect 14 0 12 0;
#X connect 15 0 16 0;
#X connect 16 0 31 0;
#X connect 16 1 32 0;
#X connect 17 0 19 0;
#X connect 18 0 19 0;
#X connect 19 0 15 0;
#X connect 19 1 11 0;
#X connect 20 0 8 0;
#X connect 20 1 9 0;
#X connect 20 2 17 0;
#X connect 20 3 18 0;
#X connect 21 0 0 0;
#X connect 22 0 21 0;
#X connect 23 0 25 0;
#X connect 25 0 24 0;
#X connect 26 0 23 0;
#X connect 27 0 26 0;
#X connect 28 0 27 0;
#X connect 29 0 4 0;
#X connect 30 0 4 0;
#X connect 31 0 13 0;
#X connect 32 0 13 0;
#X restore 20 210 pd Player;
#N canvas 56 197 746 596 collision 0;
#X obj 573 1 inlet radius;
#X obj 436 3 inlet reference;
#X obj 378 186 gemhead;
#X obj 378 219 translateXYZ;
#X obj 436 186 unpack 0 0;
#X obj 72 259 color 1 1 1;
#X obj 72 92 gemhead;
#X obj 72 174 translateXYZ;
#X obj 98 128 unpack 0 0;
#X obj 246 -14 inlet test;
#N canvas 0 0 146 0 collide 0;
#X obj 20 109 list-map2;
#X obj 115 108 -;
#X obj 115 133 abs;
#X obj 115 165 <= 1;
#X obj 49 35 inlet reference;
#X obj 163 10 inlet radius;
#X obj 20 190 list-reduce;
#X obj 106 190 &&;
#X obj 20 10 inlet test;
#X obj 20 222 outlet;
#X obj 163 53 t b a;
#X obj 120 240 print;
#X connect 0 0 6 0;
#X connect 0 1 1 0;
#X connect 1 0 2 0;
#X connect 2 0 3 0;
#X connect 3 0 0 2;
#X connect 4 0 0 1;
#X connect 5 0 10 0;
#X connect 6 0 9 0;
#X connect 6 1 7 0;
#X connect 7 0 6 1;
#X connect 8 0 0 0;
#X connect 10 0 0 0;
#X connect 10 1 3 1;
#X restore 240 70 pd collide;
#X obj 250 100 tgl 24 0 empty empty hit? 28 7 1 10 #fcfcfc #000000
#000000 0 1;
#X obj 349 76 gemhead;
#X obj 371 99 list append 0;
#X obj 393 119 list append 0;
#X obj 352 142 curve 2;
#X obj 72 295 square 0.2;
#X obj 378 383 circle 0.08;
#X obj 420 300 loadbang;
#X msg 420 340 draw fill;
#X msg 500 140 set 52;
#X obj 500 110 loadbang;
#X obj 380 270 colorRGB 1 0 0;
#X obj 560 110 receive score;
#X obj 500 80 receive new_point;
#X obj 250 200 send score;
#X obj 250 170 bng 15 250 50 0 empty empty empty 17 7 0 10 #fcfcfc
#000000 #000000;
#X obj 250 140 sel 1;
#X msg 560 140 10;
#X obj 310 20 pack 10 10;
#X connect 0 0 10 2;
#X connect 1 0 4 0;
#X connect 1 0 14 0;
#X connect 1 0 10 1;
#X connect 2 0 3 0;
#X connect 3 0 22 0;
#X connect 4 0 3 1;
#X connect 4 1 3 2;
#X connect 5 0 16 0;
#X connect 6 0 7 0;
#X connect 7 0 5 0;
#X connect 8 0 7 1;
#X connect 8 1 7 2;
#X connect 9 0 8 0;
#X connect 9 0 13 0;
#X connect 9 0 10 0;
#X connect 10 0 11 0;
#X connect 11 0 27 0;
#X connect 13 0 15 1;
#X connect 14 0 15 2;
#X connect 18 0 19 0;
#X connect 19 0 17 0;
#X connect 20 0 2 0;
#X connect 21 0 20 0;
#X connect 22 0 17 0;
#X connect 23 0 28 0;
#X connect 23 0 29 0;
#X connect 24 0 20 0;
#X connect 26 0 25 0;
#X connect 27 0 26 0;
#X connect 28 0 3 1;
#X connect 28 0 3 2;
#X connect 29 0 10 1;
#X restore 20 300 pd collision;
#N canvas 860 8 497 396 Game_overScreen 1;
#X obj 20 20 receive game_over;
#X obj 20 50 bng 15 250 50 0 empty empty empty 17 7 0 10 #fcfcfc #000000
#000000;
#X msg 30 155 set 56;
#X obj 30 180 gemhead;
#X obj 30 227 colorRGB 1 1 1;
#X obj 140 50 bng 15 250 50 0 empty empty empty 17 7 0 10 #fcfcfc #000000
#000000;
#X msg 160 160 set 57;
#X obj 160 185 gemhead;
#X obj 160 210 colorRGB 1 0 0;
#X obj 160 235 text2d GAME OVER;
#X floatatom 260 207 5 0 0 0 - - -, f 5;
#X obj 30 247 square 4;
#X obj 130 110 tgl 15 0 empty empty empty 17 7 0 10 #fcfcfc #000000
#000000 0 1;
#X connect 0 0 1 0;
#X connect 0 0 5 0;
#X connect 1 0 2 0;
#X connect 1 0 12 0;
#X connect 2 0 3 0;
#X connect 3 0 4 0;
#X connect 4 0 11 0;
#X connect 5 0 6 0;
#X connect 6 0 7 0;
#X connect 7 0 8 0;
#X connect 8 0 9 0;
#X connect 10 0 9 1;
#X connect 12 0 3 0;
#X connect 12 0 7 0;
#X restore 320 70 pd Game_overScreen;
#N canvas 436 204 450 302 start_game 0;
#X obj 30 10 inlet;
#X obj 30 60 tgl 15 0 empty empty empty 17 7 0 10 #fcfcfc #000000 #000000
0 1;
#X obj 30 90 send start_beats;
#X obj 140 40 tgl 15 0 empty empty empty 17 7 0 10 #fcfcfc #000000
#000000 0 1;
#X obj 140 70 metro 8000;
#X obj 140 95 send spawn;
#X obj 220 40 send start_game;
#X connect 0 0 1 0;
#X connect 0 0 3 0;
#X connect 0 0 6 0;
#X connect 1 0 2 0;
#X connect 3 0 4 0;
#X connect 4 0 5 0;
#X restore 200 40 pd start_game;
#X obj 20 10 receive start_game;
#X obj 310 10 bng 15 250 50 0 empty empty empty 17 7 0 10 #fcfcfc #000000
#000000;
#X obj 310 33 send game_over;
#X connect 1 0 0 0;
#X connect 2 0 0 0;
#X connect 6 0 16 0;
#X connect 9 0 14 1;
#X connect 10 0 14 2;
#X connect 11 0 10 0;
#X connect 12 0 11 0;
#X connect 13 0 14 0;
#X connect 17 0 2 0;
#X connect 18 0 19 0;
