#N canvas 536 36 974 706 10;
#X obj 20 90 gemwin;
#X msg -10 10 create \, 1;
#X msg 10 30 destroy;
#X obj 90 90 translateXYZ 0 0 0;
#X obj 90 160 colorRGB 1 0 0;
#X obj 90 240 rectangle;
#X obj 120 40 hsl 87 15 -6 6 0 0 empty empty empty -2 -8 0 10 #fcfcfc
#000000 #000000 3100 1;
#X obj 120 60 hsl 88 15 -6 6 0 0 empty empty empty -2 -8 0 10 #fcfcfc
#000000 #000000 2200 1;
#X floatatom 110 130 4 0 0 0 - - -, f 4;
#X floatatom 140 130 4 0 0 0 - - -, f 4;
#X floatatom 170 130 4 0 0 0 - - -, f 4;
#X obj 120 190 hsl 79 15 0 5 0 0 empty empty empty -2 -8 0 10 #fcfcfc
#000000 #000000 2400 1;
#X obj 120 210 hsl 80 15 0 2 0 0 empty empty empty -2 -8 0 10 #fcfcfc
#000000 #000000 1600 1;
#X msg 10 200 draw line;
#X msg 10 290 draw fill;
#X obj 10 160 receive blue;
#X obj 10 250 receive red;
#X obj 310 80 translateXYZ 0 0 0;
#X obj 310 150 colorRGB 1 0 0;
#X obj 310 230 rectangle;
#X obj 340 30 hsl 87 15 -6 6 0 0 empty empty empty -2 -8 0 10 #fcfcfc
#000000 #000000 6500 1;
#X obj 340 50 hsl 88 15 -6 6 0 0 empty empty empty -2 -8 0 10 #fcfcfc
#000000 #000000 3200 1;
#X floatatom 330 120 4 0 0 0 - - -, f 4;
#X floatatom 360 120 4 0 0 0 - - -, f 4;
#X floatatom 390 120 4 0 0 0 - - -, f 4;
#X obj 340 180 hsl 79 15 0 5 0 0 empty empty empty -2 -8 0 10 #fcfcfc
#000000 #000000 1000 1;
#X obj 340 200 hsl 80 15 0 2 0 0 empty empty empty -2 -8 0 10 #fcfcfc
#000000 #000000 1700 1;
#X msg 230 190 draw line;
#X msg 230 280 draw fill;
#X obj 230 150 receive blue;
#X obj 230 240 receive red;
#X obj 520 90 translateXYZ 0 0 0;
#X obj 520 160 colorRGB 1 0 0;
#X obj 520 240 rectangle;
#X obj 530 40 hsl 87 15 -6 6 0 0 empty empty empty -2 -8 0 10 #fcfcfc
#000000 #000000 2400 1;
#X obj 550 60 hsl 88 15 -6 6 0 0 empty empty empty -2 -8 0 10 #fcfcfc
#000000 #000000 4600 1;
#X floatatom 540 130 4 0 0 0 - - -, f 4;
#X floatatom 570 130 4 0 0 0 - - -, f 4;
#X floatatom 600 130 4 0 0 0 - - -, f 4;
#X obj 550 190 hsl 79 15 0 5 0 0 empty empty empty -2 -8 0 10 #fcfcfc
#000000 #000000 800 1;
#X obj 550 210 hsl 80 15 0 2 0 0 empty empty empty -2 -8 0 10 #fcfcfc
#000000 #000000 1800 1;
#X msg 440 200 draw line;
#X msg 440 290 draw fill;
#X obj 440 160 receive blue;
#X obj 440 250 receive red;
#X obj 730 90 translateXYZ 0 0 0;
#X obj 730 160 colorRGB 1 0 0;
#X obj 730 240 rectangle;
#X obj 760 40 hsl 87 15 -6 6 0 0 empty empty empty -2 -8 0 10 #fcfcfc
#000000 #000000 6600 1;
#X obj 760 60 hsl 88 15 -6 6 0 0 empty empty empty -2 -8 0 10 #fcfcfc
#000000 #000000 5400 1;
#X floatatom 750 130 4 0 0 0 - - -, f 4;
#X floatatom 780 130 4 0 0 0 - - -, f 4;
#X floatatom 810 130 4 0 0 0 - - -, f 4;
#X obj 760 190 hsl 79 15 0 5 0 0 empty empty empty -2 -8 0 10 #fcfcfc
#000000 #000000 650 1;
#X obj 760 210 hsl 80 15 0 2 0 0 empty empty empty -2 -8 0 10 #fcfcfc
#000000 #000000 2900 1;
#X msg 650 200 draw line;
#X msg 650 290 draw fill;
#X obj 650 160 receive blue;
#X obj 650 250 receive red;
#X obj 90 10 gemhead;
#X obj 300 10 gemhead;
#X obj 520 10 gemhead;
#X obj 720 10 gemhead;
#X obj 100 420 translateXYZ 0 0 0;
#X obj 100 490 colorRGB 1 0 0;
#X obj 100 570 rectangle;
#X obj 130 370 hsl 87 15 -6 6 0 0 empty empty empty -2 -8 0 10 #fcfcfc
#000000 #000000 5100 1;
#X obj 130 390 hsl 88 15 -6 6 0 0 empty empty empty -2 -8 0 10 #fcfcfc
#000000 #000000 2800 1;
#X floatatom 120 460 4 0 0 0 - - -, f 4;
#X floatatom 150 460 4 0 0 0 - - -, f 4;
#X floatatom 180 460 4 0 0 0 - - -, f 4;
#X obj 130 520 hsl 79 15 0 5 0 0 empty empty empty -2 -8 0 10 #fcfcfc
#000000 #000000 1400 1;
#X obj 130 540 hsl 80 15 0 2 0 0 empty empty empty -2 -8 0 10 #fcfcfc
#000000 #000000 1900 1;
#X obj 20 490 receive blue;
#X obj 20 580 receive red;
#X obj 320 410 translateXYZ 0 0 0;
#X obj 320 480 colorRGB 1 0 0;
#X obj 320 560 rectangle;
#X obj 350 360 hsl 87 15 -6 6 0 0 empty empty empty -2 -8 0 10 #fcfcfc
#000000 #000000 5200 1;
#X obj 350 380 hsl 88 15 -6 6 0 0 empty empty empty -2 -8 0 10 #fcfcfc
#000000 #000000 4100 1;
#X floatatom 340 450 4 0 0 0 - - -, f 4;
#X floatatom 370 450 4 0 0 0 - - -, f 4;
#X floatatom 400 450 4 0 0 0 - - -, f 4;
#X obj 350 510 hsl 79 15 0 5 0 0 empty empty empty -2 -8 0 10 #fcfcfc
#000000 #000000 1200 1;
#X obj 350 530 hsl 80 15 0 2 0 0 empty empty empty -2 -8 0 10 #fcfcfc
#000000 #000000 1000 1;
#X obj 240 570 receive red;
#X obj 530 420 translateXYZ 0 0 0;
#X obj 530 490 colorRGB 1 0 0;
#X obj 530 570 rectangle;
#X obj 540 370 hsl 87 15 -6 6 0 0 empty empty empty -2 -8 0 10 #fcfcfc
#000000 #000000 3900 1;
#X obj 560 390 hsl 88 15 -6 6 0 0 empty empty empty -2 -8 0 10 #fcfcfc
#000000 #000000 4400 1;
#X floatatom 550 460 4 0 0 0 - - -, f 4;
#X floatatom 580 460 4 0 0 0 - - -, f 4;
#X floatatom 610 460 4 0 0 0 - - -, f 4;
#X obj 560 520 hsl 79 15 0 5 0 0 empty empty empty -2 -8 0 10 #fcfcfc
#000000 #000000 1100 1;
#X obj 560 540 hsl 80 15 0 2 0 0 empty empty empty -2 -8 0 10 #fcfcfc
#000000 #000000 1100 1;
#X obj 450 580 receive red;
#X obj 740 420 translateXYZ 0 0 0;
#X obj 740 490 colorRGB 1 0 0;
#X obj 740 570 rectangle;
#X obj 770 370 hsl 87 15 -6 6 0 0 empty empty empty -2 -8 0 10 #fcfcfc
#000000 #000000 4500 1;
#X obj 770 390 hsl 88 15 -6 6 0 0 empty empty empty -2 -8 0 10 #fcfcfc
#000000 #000000 5500 1;
#X floatatom 760 460 4 0 0 0 - - -, f 4;
#X floatatom 790 460 4 0 0 0 - - -, f 4;
#X obj 770 520 hsl 79 15 0 5 0 0 empty empty empty -2 -8 0 10 #fcfcfc
#000000 #000000 2300 1;
#X obj 770 540 hsl 80 15 0 2 0 0 empty empty empty -2 -8 0 10 #fcfcfc
#000000 #000000 1600 1;
#X obj 660 490 receive blue;
#X obj 660 580 receive red;
#X obj 100 340 gemhead;
#X obj 310 340 gemhead;
#X obj 530 340 gemhead;
#X obj 730 340 gemhead;
#X msg 20 530 draw fill;
#X msg 20 620 draw line;
#X msg 240 610 draw line;
#X msg 450 620 draw line;
#X msg 660 620 draw line;
#X msg 660 530 draw fill;
#X floatatom 820 460 4 0 0 0 - - -, f 4;
#X obj 240 480 receive blue;
#X msg 240 520 draw fill;
#X msg 450 530 draw fill;
#X obj 450 490 receive blue;
#X connect 1 0 0 0;
#X connect 2 0 0 0;
#X connect 3 0 4 0;
#X connect 4 0 5 0;
#X connect 6 0 3 1;
#X connect 7 0 3 2;
#X connect 8 0 4 1;
#X connect 9 0 4 2;
#X connect 10 0 4 3;
#X connect 11 0 5 1;
#X connect 12 0 5 2;
#X connect 13 0 5 0;
#X connect 14 0 5 0;
#X connect 15 0 13 0;
#X connect 16 0 14 0;
#X connect 17 0 18 0;
#X connect 18 0 19 0;
#X connect 20 0 17 1;
#X connect 21 0 17 2;
#X connect 22 0 18 1;
#X connect 23 0 18 2;
#X connect 24 0 18 3;
#X connect 25 0 19 1;
#X connect 26 0 19 2;
#X connect 27 0 19 0;
#X connect 28 0 19 0;
#X connect 29 0 27 0;
#X connect 30 0 28 0;
#X connect 31 0 32 0;
#X connect 32 0 33 0;
#X connect 34 0 31 1;
#X connect 35 0 31 2;
#X connect 36 0 32 1;
#X connect 37 0 32 2;
#X connect 38 0 32 3;
#X connect 39 0 33 1;
#X connect 40 0 33 2;
#X connect 41 0 33 0;
#X connect 42 0 33 0;
#X connect 43 0 41 0;
#X connect 44 0 42 0;
#X connect 45 0 46 0;
#X connect 46 0 47 0;
#X connect 48 0 45 1;
#X connect 49 0 45 2;
#X connect 50 0 46 1;
#X connect 51 0 46 2;
#X connect 52 0 46 3;
#X connect 53 0 47 1;
#X connect 54 0 47 2;
#X connect 55 0 47 0;
#X connect 56 0 47 0;
#X connect 57 0 55 0;
#X connect 58 0 56 0;
#X connect 59 0 3 0;
#X connect 60 0 17 0;
#X connect 61 0 31 0;
#X connect 62 0 45 0;
#X connect 63 0 64 0;
#X connect 64 0 65 0;
#X connect 66 0 63 1;
#X connect 67 0 63 2;
#X connect 68 0 64 1;
#X connect 69 0 64 2;
#X connect 70 0 64 3;
#X connect 71 0 65 1;
#X connect 72 0 65 2;
#X connect 73 0 112 0;
#X connect 74 0 113 0;
#X connect 75 0 76 0;
#X connect 76 0 77 0;
#X connect 78 0 75 1;
#X connect 79 0 75 2;
#X connect 80 0 76 1;
#X connect 81 0 76 2;
#X connect 82 0 76 3;
#X connect 83 0 77 1;
#X connect 84 0 77 2;
#X connect 85 0 114 0;
#X connect 86 0 87 0;
#X connect 87 0 88 0;
#X connect 89 0 86 1;
#X connect 90 0 86 2;
#X connect 91 0 87 1;
#X connect 92 0 87 2;
#X connect 93 0 87 3;
#X connect 94 0 88 1;
#X connect 95 0 88 2;
#X connect 96 0 115 0;
#X connect 97 0 98 0;
#X connect 98 0 99 0;
#X connect 100 0 97 1;
#X connect 101 0 97 2;
#X connect 102 0 98 1;
#X connect 103 0 98 2;
#X connect 104 0 99 1;
#X connect 105 0 99 2;
#X connect 106 0 117 0;
#X connect 107 0 116 0;
#X connect 108 0 63 0;
#X connect 109 0 75 0;
#X connect 110 0 86 0;
#X connect 111 0 97 0;
#X connect 112 0 65 0;
#X connect 113 0 65 0;
#X connect 114 0 77 0;
#X connect 115 0 88 0;
#X connect 116 0 99 0;
#X connect 117 0 99 0;
#X connect 118 0 98 3;
#X connect 119 0 120 0;
#X connect 120 0 77 0;
#X connect 121 0 88 0;
#X connect 122 0 121 0;
