#N canvas 450 300 450 300 10;
#X obj 50 50 line;
#X floatatom 50 150 5 0 0 0 - - -;
#X floatatom 50 200 5 0 0 0 - - -;
#X floatatom 50 250 5 0 0 0 - - -;
#X msg 50 100 \; \$1, \$2 \$3;
#X obj 50 300 bng;
#X connect 0 0 1 0;
#X connect 1 0 3 0;
#X connect 2 0 4 0;
#X connect 3 0 4 1;
#X connect 4 0 0 0;
#X connect 5 0 4 0;
