#N canvas 450 300 450 300 10;
#X obj 100 50 line;
#X obj 100 100 line;
#X obj 100 150 line;
#X floatatom 50 50 5 0 0 0 - - -;
#X floatatom 50 100 5 0 0 0 - - -;
#X floatatom 50 150 5 0 0 0 - - -;
#X msg 150 50 \$1 \$2;
#X msg 150 100 \$1 \$2;
#X msg 150 150 \$1 \$2;
#X floatatom 200 50 5 0 0 0 - - -;
#X floatatom 200 100 5 0 0 0 - - -;
#X floatatom 200 150 5 0 0 0 - - -;
#X bng 250 50 15 0 0;
#X bng 250 100 15 0 0;
#X bng 250 150 15 0 0;
#X connect 0 0 9 0;
#X connect 1 0 10 0;
#X connect 2 0 11 0;
#X connect 3 0 0 1;
#X connect 4 0 1 1;
#X connect 5 0 2 1;
#X connect 6 0 0 0;
#X connect 7 0 1 0;
#X connect 8 0 2 0;
#X connect 9 0 6 0;
#X connect 10 0 7 0;
#X connect 11 0 8 0;
#X connect 12 0 6 0;
#X connect 13 0 7 0;
#X connect 14 0 8 0;
