#N canvas 1080 29 450 302 10;
#X obj 160 50 random 8;
#X obj 204 91 swap 8;
#X obj 204 117 -;
#X obj 204 139 - 4;
#X obj 160 138 - 4;
#X obj 180 250 pack 0 0;
#X floatatom 100 250 7 0 0 0 - - -, f 7;
#X floatatom 290 250 7 0 0 0 - - -, f 7;
#X obj 230 50 random 8;
#X obj 210 10 bng 15 250 50 0 empty empty empty 17 7 0 10 #fcfcfc #000000
#000000;
#X obj 60 120 random 1000;
#X obj 60 145 / 1000;
#X obj 130 200 +;
#X obj 330 120 random 1000;
#X obj 330 145 / 1000;
#X obj 260 200 -;
#X connect 0 0 4 0;
#X connect 1 0 2 0;
#X connect 1 1 2 1;
#X connect 2 0 3 0;
#X connect 3 0 15 0;
#X connect 4 0 12 0;
#X connect 8 0 1 0;
#X connect 9 0 0 0;
#X connect 9 0 8 0;
#X connect 9 0 10 0;
#X connect 9 0 13 0;
#X connect 10 0 11 0;
#X connect 11 0 12 1;
#X connect 12 0 6 0;
#X connect 12 0 5 0;
#X connect 13 0 14 0;
#X connect 14 0 15 1;
#X connect 15 0 7 0;
#X connect 15 0 5 1;
