#N canvas 614 15 451 301 10;
#N canvas 600 333 272 195 gemmouse 0;
#X obj 140 -67 gemmouse 8 8;
#X obj 184 -29 swap 8;
#X obj 184 -3 -;
#X obj 184 19 - 4;
#X obj 140 18 - 4;
#X obj 140 40 pack 0 0;
#X obj 140 67 spigot;
#X obj 140 90 outlet;
#X connect 0 0 4 0;
#X connect 0 1 1 0;
#X connect 0 2 6 1;
#X connect 1 0 2 0;
#X connect 1 1 2 1;
#X connect 2 0 3 0;
#X connect 3 0 5 1;
#X connect 4 0 5 0;
#X connect 5 0 6 0;
#X connect 6 0 7 0;
#X restore 80 100 pd gemmouse;
#N canvas 965 343 453 247 set_reference 0;
#X obj 80 -137 gemmouse 8 8;
#X obj 124 -99 swap 8;
#X obj 124 -73 -;
#X obj 124 -51 - 4;
#X obj 80 -52 - 4;
#X obj 80 -30 pack 0 0;
#X obj 80 -3 spigot;
#X obj 80 20 outlet;
#X connect 0 0 4 0;
#X connect 0 1 1 0;
#X connect 0 3 6 1;
#X connect 1 0 2 0;
#X connect 1 1 2 1;
#X connect 2 0 3 0;
#X connect 3 0 5 1;
#X connect 4 0 5 0;
#X connect 5 0 6 0;
#X connect 6 0 7 0;
#X restore 170 110 pd set_reference;
#X floatatom 290 120 5 0 0 0 - - -, f 5;
#N canvas 97 301 730 478 gemexample 1;
#X obj 573 1 inlet radius;
#X obj 436 3 inlet reference;
#X obj 378 186 gemhead;
#X msg 389 348 draw line;
#X obj 389 324 loadbang;
#X obj 378 219 translateXYZ;
#X obj 436 186 unpack 0 0;
#X obj 72 259 color 1 1 1;
#X msg 246 220 1 1 1;
#X msg 293 219 1 0 0;
#X obj 246 172 select 0 1;
#X obj 72 92 gemhead;
#X obj 72 174 translateXYZ;
#X obj 98 128 unpack 0 0;
#X obj 246 -14 inlet test;
#X obj 72 295 circle 0.2;
#N canvas 393 102 258 275 collide 0;
#X obj 20 109 list-map2;
#X obj 115 108 -;
#X obj 115 133 abs;
#X obj 115 165 <= 1;
#X obj 49 35 inlet reference;
#X obj 163 10 inlet radius;
#X obj 20 190 list-reduce;
#X obj 106 190 &&;
#X obj 20 10 inlet test;
#X obj 20 222 outlet;
#X obj 163 53 t b a;
#X connect 0 0 6 0;
#X connect 0 1 1 0;
#X connect 1 0 2 0;
#X connect 2 0 3 0;
#X connect 3 0 0 2;
#X connect 4 0 0 1;
#X connect 5 0 10 0;
#X connect 6 0 9 0;
#X connect 6 1 7 0;
#X connect 7 0 6 1;
#X connect 8 0 0 0;
#X connect 10 0 0 0;
#X connect 10 1 3 1;
#X restore 240 70 pd collide;
#X obj 259 97 tgl 24 0 empty empty hit? 28 7 1 10 #fcfcfc #000000 #000000
1 1;
#X obj 378 270 color 1 1 1;
#X obj 349 76 gemhead;
#X obj 371 99 list append 0;
#X obj 393 119 list append 0;
#X obj 352 142 curve 2;
#X obj 378 383 rectangle 1;
#X connect 0 0 16 2;
#X connect 0 0 23 1;
#X connect 1 0 6 0;
#X connect 1 0 21 0;
#X connect 1 0 16 1;
#X connect 2 0 5 0;
#X connect 3 0 23 0;
#X connect 4 0 3 0;
#X connect 5 0 18 0;
#X connect 6 0 5 1;
#X connect 6 1 5 2;
#X connect 7 0 15 0;
#X connect 8 0 7 1;
#X connect 8 0 18 1;
#X connect 9 0 7 1;
#X connect 9 0 18 1;
#X connect 10 0 8 0;
#X connect 10 1 9 0;
#X connect 11 0 12 0;
#X connect 12 0 7 0;
#X connect 13 0 12 1;
#X connect 13 1 12 2;
#X connect 14 0 13 0;
#X connect 14 0 20 0;
#X connect 14 0 16 0;
#X connect 16 0 17 0;
#X connect 16 0 10 0;
#X connect 18 0 23 0;
#X connect 19 0 22 0;
#X connect 20 0 22 1;
#X connect 21 0 22 2;
#X restore 90 180 pd gemexample;
#X obj 300 228 gemwin;
#X msg 300 190 create \, 1;
#X msg 372 189 destroy;
#X connect 0 0 3 0;
#X connect 1 0 3 1;
#X connect 2 0 3 2;
#X connect 5 0 4 0;
#X connect 6 0 4 0;
