#N canvas 536 225 450 303 10;
#N canvas 536 226 450 301 collide 0;
#X floatatom 96 -86 5 0 0 0 X - -, f 5;
#X floatatom 119 21 5 0 0 1 Radius - -, f 5;
#X floatatom 112 -51 5 0 0 1 Reference_Nx - -, f 5;
#X obj 96 -32 - 4;
#X obj 96 71 tgl 24 0 empty empty hit? 28 7 1 10 #fcfcfc #000000 #000000
0 1;
#X obj 96 -2 abs;
#X floatatom 52 22 5 0 0 0 - - -, f 5;
#X obj 96 45 <= 1;
#X floatatom 295 -83 5 0 0 0 Y - -, f 5;
#X floatatom 318 24 5 0 0 1 Radius - -, f 5;
#X floatatom 311 -48 5 0 0 1 Reference_Ny - -, f 5;
#X obj 295 -29 - 4;
#X obj 295 74 tgl 24 0 empty empty hit? 28 7 1 10 #fcfcfc #000000 #000000
0 1;
#X obj 295 1 abs;
#X floatatom 251 25 5 0 0 0 - - -, f 5;
#X obj 295 48 <= 1;
#X obj 188 115 &&;
#X obj 188 137 tgl 24 0 empty empty hit? 28 7 1 10 #fcfcfc #000000
#000000 0 1;
#X obj 188 92 t b a;
#X connect 0 0 3 0;
#X connect 1 0 7 1;
#X connect 2 0 3 1;
#X connect 3 0 5 0;
#X connect 5 0 6 0;
#X connect 5 0 7 0;
#X connect 7 0 4 0;
#X connect 7 0 16 0;
#X connect 8 0 11 0;
#X connect 9 0 15 1;
#X connect 10 0 11 1;
#X connect 11 0 13 0;
#X connect 13 0 14 0;
#X connect 13 0 15 0;
#X connect 15 0 12 0;
#X connect 15 0 18 0;
#X connect 16 0 17 0;
#X connect 18 0 16 0;
#X connect 18 1 16 1;
#X restore 99 104 pd collide;
