#N canvas 662 16 736 750 10;
#X obj 180 140 metro;
#X obj 180 165 bng 15 250 50 0 empty empty empty 17 7 0 10 #fcfcfc
#000000 #000000;
#X obj 180 208 int 1;
#X floatatom 180 240 5 0 0 0 - - -, f 5;
#X obj 250 250 + 1;
#X obj 120 130 sel 0;
#X obj 120 155 bng 15 250 50 0 empty empty empty 17 7 0 10 #fcfcfc
#000000 #000000;
#X msg 120 178 -1;
#X obj 60 130 loadbang;
#X obj 210 40 loadbang;
#X obj 180 264 % 8;
#X obj 180 289 + 1;
#X floatatom 180 314 5 0 0 0 - - -, f 5;
#X obj 180 380 sel 1;
#X obj 180 405 bng 15 250 50 0 empty empty empty 17 7 0 10 #fcfcfc
#000000 #000000;
#X obj 180 428 s One;
#X obj 230 405 bng 15 250 50 0 empty empty empty 17 7 0 10 #fcfcfc
#000000 #000000;
#X obj 280 405 bng 15 250 50 0 empty empty empty 17 7 0 10 #fcfcfc
#000000 #000000;
#X obj 330 405 bng 15 250 50 0 empty empty empty 17 7 0 10 #fcfcfc
#000000 #000000;
#X obj 380 405 bng 15 250 50 0 empty empty empty 17 7 0 10 #fcfcfc
#000000 #000000;
#X obj 430 405 bng 15 250 50 0 empty empty empty 17 7 0 10 #fcfcfc
#000000 #000000;
#X obj 480 405 bng 15 250 50 0 empty empty empty 17 7 0 10 #fcfcfc
#000000 #000000;
#X obj 530 405 bng 15 250 50 0 empty empty empty 17 7 0 10 #fcfcfc
#000000 #000000;
#X obj 230 380 sel 2;
#X obj 230 428 s Two;
#X obj 280 380 sel 3;
#X obj 280 428 s Three;
#X obj 330 380 sel 4;
#X obj 330 428 s Four;
#X obj 380 380 sel 5;
#X obj 380 428 s Five;
#X obj 430 380 sel 6;
#X obj 430 428 s Six;
#X obj 480 380 sel 7;
#X obj 480 428 s Seven;
#X obj 530 380 sel 8;
#X obj 530 428 s Eight;
#X msg 210 65 375;
#X floatatom 210 90 5 0 0 0 - - -, f 5;
#X obj 180 100 tgl 15 0 empty empty empty 17 7 0 10 #fcfcfc #000000
#000000 0 1;
#X obj 40 480 receive One;
#X obj 40 510 bng 15 250 50 0 empty empty empty 17 7 0 10 #fcfcfc #000000
#000000;
#X obj 40 538 spigot;
#X obj 40 563 bng 15 250 50 0 empty empty empty 17 7 0 10 #fcfcfc #000000
#000000;
#X obj 80 510 tgl 15 0 empty empty empty 17 7 0 10 #fcfcfc #000000
#000000 1 1;
#X obj 120 510 bng 15 250 50 0 empty empty empty 17 7 0 10 #fcfcfc
#000000 #000000;
#X obj 120 538 spigot;
#X obj 120 563 bng 15 250 50 0 empty empty empty 17 7 0 10 #fcfcfc
#000000 #000000;
#X obj 160 510 tgl 15 0 empty empty empty 17 7 0 10 #fcfcfc #000000
#000000 0 1;
#X obj 200 510 bng 15 250 50 0 empty empty empty 17 7 0 10 #fcfcfc
#000000 #000000;
#X obj 200 538 spigot;
#X obj 200 563 bng 15 250 50 0 empty empty empty 17 7 0 10 #fcfcfc
#000000 #000000;
#X obj 240 510 tgl 15 0 empty empty empty 17 7 0 10 #fcfcfc #000000
#000000 1 1;
#X obj 290 510 bng 15 250 50 0 empty empty empty 17 7 0 10 #fcfcfc
#000000 #000000;
#X obj 290 538 spigot;
#X obj 290 563 bng 15 250 50 0 empty empty empty 17 7 0 10 #fcfcfc
#000000 #000000;
#X obj 330 510 tgl 15 0 empty empty empty 17 7 0 10 #fcfcfc #000000
#000000 0 1;
#X obj 370 510 bng 15 250 50 0 empty empty empty 17 7 0 10 #fcfcfc
#000000 #000000;
#X obj 370 538 spigot;
#X obj 370 563 bng 15 250 50 0 empty empty empty 17 7 0 10 #fcfcfc
#000000 #000000;
#X obj 410 510 tgl 15 0 empty empty empty 17 7 0 10 #fcfcfc #000000
#000000 1 1;
#X obj 450 510 bng 15 250 50 0 empty empty empty 17 7 0 10 #fcfcfc
#000000 #000000;
#X obj 450 538 spigot;
#X obj 450 563 bng 15 250 50 0 empty empty empty 17 7 0 10 #fcfcfc
#000000 #000000;
#X obj 490 510 tgl 15 0 empty empty empty 17 7 0 10 #fcfcfc #000000
#000000 1 1;
#X obj 530 510 bng 15 250 50 0 empty empty empty 17 7 0 10 #fcfcfc
#000000 #000000;
#X obj 530 538 spigot;
#X obj 530 563 bng 15 250 50 0 empty empty empty 17 7 0 10 #fcfcfc
#000000 #000000;
#X obj 570 510 tgl 15 0 empty empty empty 17 7 0 10 #fcfcfc #000000
#000000 0 1;
#X obj 620 510 bng 15 250 50 0 empty empty empty 17 7 0 10 #fcfcfc
#000000 #000000;
#X obj 620 540 spigot;
#X obj 620 563 bng 15 250 50 0 empty empty empty 17 7 0 10 #fcfcfc
#000000 #000000;
#X obj 660 510 tgl 15 0 empty empty empty 17 7 0 10 #fcfcfc #000000
#000000 1 1;
#X obj 120 480 receive Two;
#X obj 200 480 receive Three;
#X obj 290 480 receive Four;
#X obj 370 480 receive Five;
#X obj 450 480 receive Six;
#X obj 530 480 receive Seven;
#X obj 620 480 receive Eight;
#X obj 460 150 bng 15 250 50 0 empty empty empty 17 7 0 10 #fcfcfc
#000000 #000000;
#X obj 460 220 readsf~;
#X obj 460 255 *~ 0.5;
#X obj 460 290 dac~;
#X obj 290 610 send Kick;
#X obj 460 120 receive Kick;
#X msg 460 190 open Wav/Stereo.wav \, 1;
#X connect 0 0 1 0;
#X connect 1 0 2 0;
#X connect 2 0 3 0;
#X connect 2 0 4 0;
#X connect 3 0 10 0;
#X connect 4 0 2 1;
#X connect 5 0 6 0;
#X connect 6 0 7 0;
#X connect 7 0 2 0;
#X connect 8 0 6 0;
#X connect 9 0 37 0;
#X connect 10 0 11 0;
#X connect 11 0 12 0;
#X connect 12 0 13 0;
#X connect 12 0 35 0;
#X connect 12 0 33 0;
#X connect 12 0 31 0;
#X connect 12 0 29 0;
#X connect 12 0 27 0;
#X connect 12 0 25 0;
#X connect 12 0 23 0;
#X connect 13 0 14 0;
#X connect 14 0 15 0;
#X connect 16 0 24 0;
#X connect 17 0 26 0;
#X connect 18 0 28 0;
#X connect 19 0 30 0;
#X connect 20 0 32 0;
#X connect 21 0 34 0;
#X connect 22 0 36 0;
#X connect 23 0 16 0;
#X connect 25 0 17 0;
#X connect 27 0 18 0;
#X connect 29 0 19 0;
#X connect 31 0 20 0;
#X connect 33 0 21 0;
#X connect 35 0 22 0;
#X connect 37 0 38 0;
#X connect 38 0 0 1;
#X connect 39 0 0 0;
#X connect 39 0 5 0;
#X connect 40 0 41 0;
#X connect 41 0 42 0;
#X connect 42 0 43 0;
#X connect 43 0 84 0;
#X connect 44 0 42 1;
#X connect 45 0 46 0;
#X connect 46 0 47 0;
#X connect 47 0 84 0;
#X connect 48 0 46 1;
#X connect 49 0 50 0;
#X connect 50 0 51 0;
#X connect 51 0 84 0;
#X connect 52 0 50 1;
#X connect 53 0 54 0;
#X connect 54 0 55 0;
#X connect 55 0 84 0;
#X connect 56 0 54 1;
#X connect 57 0 58 0;
#X connect 58 0 59 0;
#X connect 59 0 84 0;
#X connect 60 0 58 1;
#X connect 61 0 62 0;
#X connect 62 0 63 0;
#X connect 63 0 84 0;
#X connect 64 0 62 1;
#X connect 65 0 66 0;
#X connect 66 0 67 0;
#X connect 67 0 84 0;
#X connect 68 0 66 1;
#X connect 69 0 70 0;
#X connect 70 0 71 0;
#X connect 71 0 84 0;
#X connect 72 0 70 1;
#X connect 73 0 45 0;
#X connect 74 0 49 0;
#X connect 75 0 53 0;
#X connect 76 0 57 0;
#X connect 77 0 61 0;
#X connect 78 0 65 0;
#X connect 79 0 69 0;
#X connect 80 0 86 0;
#X connect 81 0 82 0;
#X connect 82 0 83 0;
#X connect 82 0 83 1;
#X connect 85 0 80 0;
#X connect 86 0 81 0;
