#N canvas 937 61 459 305 10;
#X obj 10 80 gemwin;
#X msg 30 50 destroy;
#N canvas 484 189 1038 455 background 1;
#X obj 20 20 gemhead;
#X obj 20 130 pix_image;
#X obj 50 50 loadbang;
#X obj 20 170 pix_texture;
#X msg 30 80 open Art/SpaceBackground.png;
#X obj 210 80 gemhead;
#X obj 210 190 pix_image;
#X obj 240 110 loadbang;
#X obj 210 230 pix_texture;
#X msg 240 140 open Art/CityBackground.png;
#X obj 210 340 rotateXYZ 0 0 180;
#X msg 210 40 set 52;
#X obj 210 380 rectangle 1 1;
#X obj 420 80 gemhead;
#X obj 420 190 pix_image;
#X obj 450 110 loadbang;
#X obj 420 230 pix_texture;
#X msg 450 140 open Art/CityBackground.png;
#X obj 420 340 rotateXYZ 0 0 180;
#X msg 420 40 set 52;
#X obj 420 380 rectangle 1 1;
#X obj 630 80 gemhead;
#X obj 630 190 pix_image;
#X obj 660 110 loadbang;
#X obj 630 230 pix_texture;
#X msg 660 140 open Art/CityBackground.png;
#X obj 630 340 rotateXYZ 0 0 180;
#X msg 630 40 set 52;
#X obj 630 380 rectangle 1 1;
#X obj 18 208 rectangle 4 4;
#X obj 830 80 gemhead;
#X obj 830 190 pix_image;
#X obj 860 110 loadbang;
#X obj 830 230 pix_texture;
#X msg 860 140 open Art/CityBackground.png;
#X obj 830 340 rotateXYZ 0 0 180;
#X msg 830 40 set 52;
#X obj 830 380 rectangle 1 1;
#X obj 210 290 translateXYZ -3 -3.2 0;
#X obj 420 290 translateXYZ -1 -3.2 0;
#X obj 630 290 translateXYZ 1 -3.2 0;
#X obj 830 290 translateXYZ 3 -3.2 0;
#X obj 360 0 loadbang;
#X connect 0 0 1 0;
#X connect 1 0 3 0;
#X connect 2 0 4 0;
#X connect 3 0 29 0;
#X connect 4 0 1 0;
#X connect 5 0 6 0;
#X connect 6 0 8 0;
#X connect 7 0 9 0;
#X connect 8 0 38 0;
#X connect 9 0 6 0;
#X connect 10 0 12 0;
#X connect 11 0 5 0;
#X connect 13 0 14 0;
#X connect 14 0 16 0;
#X connect 15 0 17 0;
#X connect 16 0 39 0;
#X connect 17 0 14 0;
#X connect 18 0 20 0;
#X connect 19 0 13 0;
#X connect 21 0 22 0;
#X connect 22 0 24 0;
#X connect 23 0 25 0;
#X connect 24 0 40 0;
#X connect 25 0 22 0;
#X connect 26 0 28 0;
#X connect 27 0 21 0;
#X connect 30 0 31 0;
#X connect 31 0 33 0;
#X connect 32 0 34 0;
#X connect 33 0 41 0;
#X connect 34 0 31 0;
#X connect 35 0 37 0;
#X connect 36 0 30 0;
#X connect 38 0 10 0;
#X connect 39 0 18 0;
#X connect 40 0 26 0;
#X connect 41 0 35 0;
#X connect 42 0 11 0;
#X connect 42 0 19 0;
#X connect 42 0 27 0;
#X connect 42 0 36 0;
#X restore 10 120 pd background;
#N canvas 908 8 590 452 Enemies 0;
#X obj 40 10 gemmouse 8 8;
#X obj 84 48 swap 8;
#X obj 84 74 -;
#X obj 84 96 - 4;
#X obj 40 95 - 4;
#X obj 40 117 pack 0 0;
#X obj 40 144 spigot;
#X obj 250 350 pack 0 0;
#X floatatom 183 308 7 0 0 0 - - -, f 7;
#X floatatom 370 310 6 0 0 0 - - -, f 6;
#X obj 291 86 bng 15 250 50 0 empty empty empty 17 7 0 10 #fcfcfc #000000
#000000;
#X obj 143 178 random 1000;
#X obj 143 203 / 1000;
#X obj 210 230 +;
#X obj 413 178 random 1000;
#X obj 413 203 / 1000;
#X obj 250 390 outlet;
#X obj 277 32 inlet;
#X obj 340 230 +;
#X obj 313 108 random 3;
#X obj 243 108 random 5;
#X obj 243 196 - 2.5;
#X connect 0 0 4 0;
#X connect 0 1 1 0;
#X connect 0 3 6 1;
#X connect 1 0 2 0;
#X connect 1 1 2 1;
#X connect 2 0 3 0;
#X connect 3 0 5 1;
#X connect 4 0 5 0;
#X connect 5 0 6 0;
#X connect 7 0 16 0;
#X connect 10 0 11 0;
#X connect 10 0 14 0;
#X connect 10 0 19 0;
#X connect 10 0 20 0;
#X connect 11 0 12 0;
#X connect 12 0 13 1;
#X connect 13 0 8 0;
#X connect 13 0 7 0;
#X connect 14 0 15 0;
#X connect 15 0 18 1;
#X connect 17 0 10 0;
#X connect 18 0 9 0;
#X connect 18 0 7 1;
#X connect 19 0 18 0;
#X connect 20 0 21 0;
#X connect 21 0 13 0;
#X restore 170 190 pd Enemies;
#X obj 170 150 bng 15 250 50 0 empty empty empty 17 7 0 10 #fcfcfc
#000000 #000000;
#N canvas 688 160 706 566 gem-example 0;
#X obj 561 79 inlet radius;
#X obj 424 81 inlet reference;
#X obj 366 264 gemhead;
#X obj 377 402 loadbang;
#X obj 366 297 translateXYZ;
#X obj 424 264 unpack 0 0;
#X obj 60 337 color 1 1 1;
#X obj 234 250 select 0 1;
#X obj 60 170 gemhead;
#X obj 60 252 translateXYZ;
#X obj 86 206 unpack 0 0;
#X obj 234 64 inlet test;
#X obj 60 373 circle 0.2;
#N canvas 708 160 538 450 collide 0;
#X obj 97 137 list-map2;
#X obj 177 138 -;
#X obj 177 185 *;
#X obj 177 161 t a a;
#X obj 97 242 sqrt;
#X obj 97 212 list-reduce;
#X obj 181 212 +;
#X obj 105 318 t b a;
#X obj 126 76 inlet reference;
#X obj 97 52 inlet test;
#X obj 300 167 inlet radius;
#X obj 97 366 outlet;
#X obj 126 100 t b a;
#X obj 97 339 <= 1;
#X connect 0 0 5 0;
#X connect 0 1 1 0;
#X connect 1 0 3 0;
#X connect 2 0 0 2;
#X connect 3 0 2 0;
#X connect 3 1 2 1;
#X connect 4 0 13 0;
#X connect 5 0 4 0;
#X connect 5 1 6 0;
#X connect 6 0 5 1;
#X connect 7 0 13 0;
#X connect 7 1 13 1;
#X connect 8 0 12 0;
#X connect 9 0 0 0;
#X connect 10 0 7 0;
#X connect 12 0 0 0;
#X connect 12 1 0 1;
#X connect 13 0 11 0;
#X restore 230 150 pd collide;
#X obj 247 175 tgl 24 0 empty empty hit? 28 7 1 10 #fcfcfc #000000
#000000 0 1;
#X obj 366 348 color 1 1 1;
#X obj 337 154 gemhead;
#X obj 359 177 list append 0;
#X obj 381 197 list append 0;
#X obj 340 220 curve 2;
#X floatatom 470 400 5 0 0 0 - - -, f 5;
#X msg 160 20 set 55;
#X msg 380 430 draw fill;
#X obj 366 461 circle 0.1;
#X obj 210 310 send score-space;
#X obj 276 8 loadbang;
#X connect 0 0 13 2;
#X connect 1 0 5 0;
#X connect 1 0 13 1;
#X connect 1 0 18 0;
#X connect 2 0 4 0;
#X connect 3 0 22 0;
#X connect 4 0 15 0;
#X connect 5 0 4 1;
#X connect 5 1 4 2;
#X connect 7 1 24 0;
#X connect 8 0 9 0;
#X connect 9 0 6 0;
#X connect 10 0 9 1;
#X connect 10 1 9 2;
#X connect 11 0 13 0;
#X connect 11 0 17 0;
#X connect 11 0 10 0;
#X connect 13 0 7 0;
#X connect 13 0 14 0;
#X connect 15 0 23 0;
#X connect 17 0 19 1;
#X connect 18 0 19 2;
#X connect 20 0 23 1;
#X connect 21 0 8 0;
#X connect 21 0 2 0;
#X connect 21 0 16 0;
#X connect 22 0 23 0;
#X connect 25 0 21 0;
#X restore 130 260 pd gem-example;
#N canvas 1181 385 245 344 gemmouse 0;
#X obj 71 39 gemmouse 8 8;
#X obj 115 77 swap 8;
#X obj 115 103 -;
#X obj 115 125 - 4;
#X obj 71 146 pack 0 0;
#X obj 71 173 spigot;
#X obj 71 196 outlet;
#X floatatom 150 160 5 0 0 0 - - -, f 5;
#X floatatom 20 160 5 0 0 0 - - -, f 5;
#X obj 70 110 - 4;
#X connect 0 0 9 0;
#X connect 0 1 1 0;
#X connect 0 2 5 1;
#X connect 1 0 2 0;
#X connect 1 1 2 1;
#X connect 2 0 3 0;
#X connect 3 0 4 1;
#X connect 3 0 7 0;
#X connect 4 0 5 0;
#X connect 5 0 6 0;
#X connect 9 0 4 0;
#X restore 70 200 pd gemmouse;
#X floatatom 223 236 5 0 0 1 - - -, f 5;
#X obj 167 115 metro 1000;
#X obj 160 80 tgl 15 0 empty empty empty 17 7 0 10 #fcfcfc #000000
#000000 0 1;
#N canvas 433 356 464 377 score 0;
#X obj 160 40 gemhead;
#X obj 260 240 f;
#X obj 320 90 bng 15 250 50 0 empty empty empty 17 7 0 10 #fcfcfc #000000
#000000;
#X floatatom 310 150 5 0 0 0 - - -, f 5;
#X msg 280 210 float \$1;
#X msg 160 10 set 69;
#X obj 160 220 colorRGB 1 1 1;
#X obj 200 130 hsl 87 15 -6 6 0 0 empty empty empty -2 -8 0 10 #fcfcfc
#000000 #000000 5750 1;
#X obj 200 150 hsl 88 15 -6 6 0 0 empty empty empty -2 -8 0 10 #fcfcfc
#000000 #000000 7150 1;
#X msg 180 80 set \$1;
#X msg 250 80 set \$1;
#X msg 180 100 2.02326;
#X msg 250 100 3.86207;
#X obj 160 180 translateXYZ 0 0 0;
#X floatatom 220 260 5 0 0 0 - - -, f 5;
#X obj 230 40 loadbang;
#X obj 160 280 text2d 0;
#X obj 70 130 hsl 87 15 -6 6 0 0 empty empty empty -2 -8 0 10 #fcfcfc
#000000 #000000 5250 1;
#X obj 70 150 hsl 88 15 -6 6 0 0 empty empty empty -2 -8 0 10 #fcfcfc
#000000 #000000 7150 1;
#X msg 50 80 set \$1;
#X msg 120 80 set \$1;
#X msg 50 100 1.32558;
#X msg 120 100 3.86207;
#X obj 30 180 translateXYZ 0 0 0;
#X floatatom 90 260 5 0 0 0 - - -, f 5;
#X obj 100 40 loadbang;
#X obj 30 40 gemhead;
#X msg 30 10 set 69;
#X obj 30 220 colorRGB 1 1 1;
#X obj 370 150 + 1;
#X msg 320 120 1;
#X obj 30 280 text2d Destroyed:;
#X obj 320 50 receive score-space;
#X connect 0 0 13 0;
#X connect 1 0 16 0;
#X connect 2 0 30 0;
#X connect 3 0 29 1;
#X connect 3 0 4 0;
#X connect 4 0 1 0;
#X connect 5 0 0 0;
#X connect 6 0 16 0;
#X connect 7 0 9 0;
#X connect 7 0 13 1;
#X connect 8 0 10 0;
#X connect 8 0 13 2;
#X connect 9 0 11 0;
#X connect 10 0 12 0;
#X connect 11 0 7 0;
#X connect 12 0 8 0;
#X connect 13 0 6 0;
#X connect 14 0 16 1;
#X connect 15 0 11 0;
#X connect 15 0 12 0;
#X connect 15 0 5 0;
#X connect 17 0 19 0;
#X connect 17 0 23 1;
#X connect 18 0 20 0;
#X connect 18 0 23 2;
#X connect 19 0 21 0;
#X connect 20 0 22 0;
#X connect 21 0 17 0;
#X connect 22 0 18 0;
#X connect 23 0 28 0;
#X connect 24 0 31 1;
#X connect 25 0 21 0;
#X connect 25 0 22 0;
#X connect 25 0 27 0;
#X connect 26 0 23 0;
#X connect 27 0 26 0;
#X connect 28 0 31 0;
#X connect 29 0 3 0;
#X connect 30 0 29 0;
#X connect 32 0 2 0;
#X restore 250 100 pd score;
#X msg 10 20 dimen 750 750 \, create \, 1;
#X connect 1 0 0 0;
#X connect 3 0 5 1;
#X connect 4 0 3 0;
#X connect 6 0 5 0;
#X connect 7 0 5 2;
#X connect 8 0 4 0;
#X connect 9 0 8 0;
#X connect 11 0 0 0;
