#N canvas 997 336 458 309 10;
#N canvas 864 168 673 569 gemmouse 0;
#X obj 40 -50 gemmouse 8 8;
#X obj 84 -12 swap 8;
#X obj 84 14 -;
#X obj 84 36 - 4;
#X obj 40 35 - 4;
#X obj 40 57 pack 0 0;
#X obj 40 84 spigot;
#X obj 310 380 outlet;
#X obj 302 -9 key 1;
#X obj 322 101 f;
#X floatatom 254 305 5 0 0 0 - - -, f 5;
#X msg 254 207 \$1 100;
#X obj 254 236 line;
#X obj 254 115 pack f f;
#X obj 254 144 route 1 2;
#X msg 244 57 1;
#X msg 294 57 2;
#X obj 244 86 t f b;
#X obj 254 173 + 1;
#X obj 294 173 - 1;
#X obj 484 107 f;
#X floatatom 394 305 5 0 0 0 - - -, f 5;
#X msg 394 207 \$1 100;
#X obj 394 236 line;
#X obj 394 115 pack f f;
#X obj 394 144 route 1 2;
#X msg 384 57 1;
#X msg 434 57 2;
#X obj 384 86 t f b;
#X obj 394 173 + 1;
#X obj 434 173 - 1;
#X obj 302 21 select 100 97 119 115;
#X obj 310 340 pack 0 0;
#X obj 310 290 bng 15 250 50 0 empty empty empty 17 7 0 10 #fcfcfc
#000000 #000000;
#X obj 40 109 print;
#X connect 0 0 4 0;
#X connect 0 1 1 0;
#X connect 0 2 6 1;
#X connect 1 0 2 0;
#X connect 1 1 2 1;
#X connect 2 0 3 0;
#X connect 3 0 5 1;
#X connect 4 0 5 0;
#X connect 5 0 6 0;
#X connect 6 0 34 0;
#X connect 8 0 31 0;
#X connect 9 0 13 1;
#X connect 10 0 9 1;
#X connect 10 0 32 0;
#X connect 11 0 12 0;
#X connect 12 0 10 0;
#X connect 13 0 14 0;
#X connect 14 0 18 0;
#X connect 14 1 19 0;
#X connect 15 0 17 0;
#X connect 16 0 17 0;
#X connect 17 0 13 0;
#X connect 17 1 9 0;
#X connect 18 0 11 0;
#X connect 19 0 11 0;
#X connect 20 0 24 1;
#X connect 21 0 20 1;
#X connect 21 0 32 1;
#X connect 21 0 33 0;
#X connect 22 0 23 0;
#X connect 23 0 21 0;
#X connect 24 0 25 0;
#X connect 25 0 29 0;
#X connect 25 1 30 0;
#X connect 26 0 28 0;
#X connect 27 0 28 0;
#X connect 28 0 24 0;
#X connect 28 1 20 0;
#X connect 29 0 22 0;
#X connect 30 0 22 0;
#X connect 31 0 15 0;
#X connect 31 1 16 0;
#X connect 31 2 26 0;
#X connect 31 3 27 0;
#X connect 32 0 7 0;
#X connect 33 0 32 0;
#X restore 80 100 pd gemmouse;
#N canvas 564 4 454 503 set_reference 1;
#X obj 186 336 pack 0 0;
#X floatatom 106 336 7 0 0 0 - - -, f 7;
#X floatatom 296 336 6 0 0 0 - - -, f 6;
#X obj 214 114 bng 15 250 50 0 empty empty empty 17 7 0 10 #fcfcfc
#000000 #000000;
#X obj 66 206 random 1000;
#X obj 66 231 / 1000;
#X obj 136 286 +;
#X obj 336 206 random 1000;
#X obj 336 231 / 1000;
#X obj 184 364 outlet;
#X obj 200 60 inlet;
#X obj 340 90 swap 8;
#X obj 340 116 -;
#X obj 220 190 -;
#X obj 266 286 +;
#X obj 166 136 random 7;
#X obj 236 136 random 7;
#X obj 220 170 swap 7;
#X obj 166 224 - 3.5;
#X obj 230 220 - 3.5;
#X connect 0 0 9 0;
#X connect 3 0 4 0;
#X connect 3 0 7 0;
#X connect 3 0 15 0;
#X connect 3 0 16 0;
#X connect 4 0 5 0;
#X connect 5 0 6 1;
#X connect 6 0 1 0;
#X connect 6 0 0 0;
#X connect 7 0 8 0;
#X connect 8 0 14 1;
#X connect 10 0 3 0;
#X connect 11 0 12 0;
#X connect 11 1 12 1;
#X connect 13 0 19 0;
#X connect 14 0 2 0;
#X connect 14 0 0 1;
#X connect 15 0 18 0;
#X connect 16 0 17 0;
#X connect 17 0 13 0;
#X connect 17 1 13 1;
#X connect 18 0 6 0;
#X connect 19 0 14 0;
#X restore 170 110 pd set_reference;
#X floatatom 290 120 5 0 0 0 - - -, f 5;
#N canvas -25600 -25600 146 0 gemexample 1;
#X obj 573 1 inlet radius;
#X obj 436 3 inlet reference;
#X obj 378 186 gemhead;
#X obj 378 219 translateXYZ;
#X obj 436 186 unpack 0 0;
#X obj 72 259 color 1 1 1;
#X msg 240 220 1 1 1;
#X msg 293 219 1 0 0;
#X obj 246 172 select 0 1;
#X obj 72 92 gemhead;
#X obj 72 174 translateXYZ;
#X obj 98 128 unpack 0 0;
#X obj 246 -14 inlet test;
#N canvas 649 243 302 295 collide 0;
#X obj 20 109 list-map2;
#X obj 115 108 -;
#X obj 115 133 abs;
#X obj 115 165 <= 1;
#X obj 49 35 inlet reference;
#X obj 163 10 inlet radius;
#X obj 20 190 list-reduce;
#X obj 106 190 &&;
#X obj 20 10 inlet test;
#X obj 20 222 outlet;
#X obj 163 53 t b a;
#X connect 0 0 6 0;
#X connect 0 1 1 0;
#X connect 1 0 2 0;
#X connect 2 0 3 0;
#X connect 3 0 0 2;
#X connect 4 0 0 1;
#X connect 5 0 10 0;
#X connect 6 0 9 0;
#X connect 6 1 7 0;
#X connect 7 0 6 1;
#X connect 8 0 0 0;
#X connect 10 0 0 0;
#X connect 10 1 3 1;
#X restore 240 70 pd collide;
#X obj 259 97 tgl 24 0 empty empty hit? 28 7 1 10 #fcfcfc #000000 #000000
1 1;
#X obj 349 76 gemhead;
#X obj 371 99 list append 0;
#X obj 393 119 list append 0;
#X obj 352 142 curve 2;
#X obj 72 295 square 0.2;
#X obj 380 270 colorRGB 1 1 0;
#X obj 378 383 circle 0.08;
#X obj 420 300 loadbang;
#X msg 420 340 draw fill;
#X connect 0 0 13 2;
#X connect 1 0 4 0;
#X connect 1 0 17 0;
#X connect 1 0 13 1;
#X connect 2 0 3 0;
#X connect 3 0 20 0;
#X connect 4 0 3 1;
#X connect 4 1 3 2;
#X connect 5 0 19 0;
#X connect 6 0 5 1;
#X connect 6 0 20 1;
#X connect 7 0 5 1;
#X connect 7 0 20 1;
#X connect 8 0 6 0;
#X connect 8 1 7 0;
#X connect 9 0 10 0;
#X connect 10 0 5 0;
#X connect 11 0 10 1;
#X connect 11 1 10 2;
#X connect 12 0 11 0;
#X connect 12 0 16 0;
#X connect 12 0 13 0;
#X connect 13 0 14 0;
#X connect 13 0 8 0;
#X connect 16 0 18 1;
#X connect 17 0 18 2;
#X connect 20 0 21 0;
#X connect 22 0 23 0;
#X connect 23 0 21 0;
#X restore 90 180 pd gemexample;
#X obj 300 228 gemwin;
#X msg 300 190 create \, 1;
#X msg 372 189 destroy;
#X msg 290 90 0.28;
#X obj 290 60 loadbang;
#X obj 170 70 bng 15 250 50 0 empty empty empty 17 7 0 10 #fcfcfc #000000
#000000;
#X obj 170 40 metro 2000;
#X obj 170 10 tgl 15 0 empty empty empty 17 7 0 10 #fcfcfc #000000
#000000 1 1;
#X connect 0 0 3 0;
#X connect 1 0 3 1;
#X connect 2 0 3 2;
#X connect 5 0 4 0;
#X connect 6 0 4 0;
#X connect 7 0 2 0;
#X connect 8 0 7 0;
#X connect 9 0 1 0;
#X connect 10 0 9 0;
#X connect 11 0 10 0;
