#N canvas 536 226 450 301 10;
#X floatatom 117 -319 5 0 0 1 - - -, f 5;
#X obj 117 -359 loadbang;
#N canvas 252 208 734 594 attack_collision 0;
#X obj 340 50 inlet radius;
#X obj 240 50 inlet reference;
#X obj 290 100 gemhead;
#X obj 390 80 unpack 0 0;
#X obj 20 310 select 0 1;
#X obj 30 20 inlet test;
#N canvas 876 256 554 529 collide 0;
#X obj 91 217 list-map2;
#X obj 171 218 -;
#X obj 171 265 *;
#X obj 171 241 t a a;
#X obj 84 340 sqrt;
#X obj 84 290 list-reduce;
#X obj 170 290 +;
#X obj 124 360 t b a;
#X obj 150 130 inlet reference;
#X obj 80 130 inlet test;
#X obj 294 247 inlet radius;
#X obj 94 410 outlet;
#X obj 94 380 <= 1;
#X floatatom 40 320 5 0 0 0 - - -, f 5;
#X connect 0 0 5 0;
#X connect 0 1 1 0;
#X connect 1 0 3 0;
#X connect 2 0 0 2;
#X connect 3 0 2 0;
#X connect 3 1 2 1;
#X connect 4 0 12 0;
#X connect 5 0 4 0;
#X connect 5 0 13 0;
#X connect 5 1 6 0;
#X connect 6 0 5 1;
#X connect 7 0 12 0;
#X connect 7 1 12 1;
#X connect 8 0 0 1;
#X connect 9 0 0 0;
#X connect 10 0 7 0;
#X connect 12 0 11 0;
#X restore 30 110 pd collide;
#X obj 50 140 tgl 24 0 empty empty hit? 28 7 1 10 #fcfcfc #000000 #000000
0 1;
#X obj 130 110 loadbang;
#X obj 73 232 tgl 15 0 empty empty empty 17 7 0 10 #fcfcfc #000000
#000000 0 1;
#X obj 103 232 bng 15 250 50 0 empty empty empty 17 7 0 10 #fcfcfc
#000000 #000000;
#X obj 133 232 tgl 15 0 empty empty empty 17 7 0 10 #fcfcfc #000000
#000000 1 1;
#X obj 23 202 spigot;
#X obj 123 202 spigot;
#X obj 23 172 receive reset;
#X obj 193 222 loadbang;
#X obj 143 172 receive start;
#X obj 43 272 spigot;
#X obj 130 140 delay 100;
#X obj 290 210 pix_image;
#X obj 320 130 loadbang;
#X obj 290 280 pix_texture;
#X msg 360 230 env \$1;
#X obj 360 210 hradio 15 1 0 6 empty empty empty 0 -6 0 8 #fcfcfc #000000
#000000 2;
#X obj 290 340 translateXYZ -2 1 0;
#X msg 360 190 2;
#X msg 320 160 open Art/Enemy1.png;
#X obj 30 70 pack 0 0;
#X obj 290 370 square 0.25;
#X obj 290 310 colorRGB 0 0 1;
#X obj 20 340 send reset;
#X connect 0 0 6 2;
#X connect 1 0 3 0;
#X connect 1 0 6 1;
#X connect 2 0 19 0;
#X connect 3 0 24 1;
#X connect 3 0 27 0;
#X connect 3 1 24 2;
#X connect 4 1 30 0;
#X connect 5 0 27 1;
#X connect 6 0 7 0;
#X connect 7 0 17 0;
#X connect 8 0 18 0;
#X connect 9 0 10 0;
#X connect 9 0 12 1;
#X connect 9 0 17 1;
#X connect 10 0 11 0;
#X connect 11 0 13 1;
#X connect 12 0 9 0;
#X connect 13 0 9 0;
#X connect 14 0 12 0;
#X connect 15 0 11 0;
#X connect 16 0 13 0;
#X connect 17 0 4 0;
#X connect 18 0 7 0;
#X connect 19 0 21 0;
#X connect 20 0 26 0;
#X connect 20 0 25 0;
#X connect 21 0 29 0;
#X connect 22 0 21 0;
#X connect 23 0 22 0;
#X connect 23 0 21 0;
#X connect 24 0 28 0;
#X connect 25 0 23 0;
#X connect 26 0 19 0;
#X connect 27 0 6 0;
#X connect 29 0 24 0;
#X restore 27 -289 pd attack_collision;
#X floatatom 277 -319 5 0 0 1 - - -, f 5;
#X obj 277 -359 loadbang;
#X floatatom 427 -319 5 0 0 1 - - -, f 5;
#X obj 427 -359 loadbang;
#X floatatom 587 -319 5 0 0 1 - - -, f 5;
#X obj 587 -359 loadbang;
#X floatatom 737 -319 5 0 0 1 - - -, f 5;
#X obj 737 -359 loadbang;
#X floatatom 887 -319 5 0 0 1 - - -, f 5;
#X obj 887 -359 loadbang;
#X floatatom 117 -209 5 0 0 1 - - -, f 5;
#X obj 117 -249 loadbang;
#X floatatom 277 -209 5 0 0 1 - - -, f 5;
#X obj 277 -249 loadbang;
#X floatatom 427 -209 5 0 0 1 - - -, f 5;
#X obj 427 -249 loadbang;
#X floatatom 587 -209 5 0 0 1 - - -, f 5;
#X obj 587 -249 loadbang;
#X floatatom 737 -209 5 0 0 1 - - -, f 5;
#X obj 737 -249 loadbang;
#X floatatom 887 -209 5 0 0 1 - - -, f 5;
#X obj 887 -249 loadbang;
#N canvas 720 44 602 702 Enemy13 0;
#X obj 200 600 outlet;
#X obj 200 580 pack 0 0;
#X obj 220 550 t b f;
#X msg 360 400 -10;
#X msg 390 400 -10;
#X obj 160 210 metro;
#X obj 160 235 bng 15 250 50 0 empty empty empty 17 7 0 10 #fcfcfc
#000000 #000000;
#X obj 230 190 int 1;
#X floatatom 230 222 5 0 0 0 - - -, f 5;
#X obj 300 232 + 1;
#X obj 100 200 sel 0;
#X obj 100 225 bng 15 250 50 0 empty empty empty 17 7 0 10 #fcfcfc
#000000 #000000;
#X msg 100 248 -1;
#X obj 40 200 loadbang;
#X obj 190 110 loadbang;
#X obj 230 271 + 1;
#X floatatom 230 300 5 0 0 0 - - -, f 5;
#X floatatom 190 160 5 0 0 0 - - -, f 5;
#X obj 60 150 tgl 15 0 empty empty empty 17 7 0 10 #fcfcfc #000000
#000000 0 1;
#X obj 90 150 bng 15 250 50 0 empty empty empty 17 7 0 10 #fcfcfc #000000
#000000;
#X obj 120 150 tgl 15 0 empty empty empty 17 7 0 10 #fcfcfc #000000
#000000 1 1;
#X obj 10 120 spigot;
#X obj 110 120 spigot;
#X obj 10 90 receive reset;
#X obj 250 350 sel 4 8;
#X obj 230 242 % 8;
#X msg 250 450 \$1;
#X floatatom 220 500 5 0 0 0 - - -, f 5;
#X obj 250 390 f 4;
#X obj 150 350 sel 5 6 7;
#X obj 70 350 sel 1 2 3;
#X obj 250 425 - 0.5;
#X msg 80 380 1;
#X msg 150 380 2;
#X obj 100 439 pack f f;
#X obj 100 468 route 1 2;
#X obj 90 410 t f b;
#X obj 100 500 + 0.5;
#X obj 140 500 - 0.5;
#X floatatom 120 540 5 0 0 0 - - -, f 5;
#X obj 170 430 f -3;
#X msg 60 600 3;
#X obj 120 80 receive round2;
#X obj 10 540 receive round2;
#X obj 30 270 loadbang;
#X obj 30 295 bng 15 250 50 0 empty empty empty 17 7 0 10 #fcfcfc #000000
#000000;
#X msg 70 320 -10;
#X msg 30 318 -10;
#X obj 10 565 bng 15 250 50 0 empty empty empty 17 7 0 10 #fcfcfc #000000
#000000;
#X obj 360 320 receive reset;
#X obj 360 350 receive hit13;
#X obj 21 60 receive hit13;
#X msg 10 600 -3;
#X msg 190 135 600;
#X connect 1 0 0 0;
#X connect 2 0 1 0;
#X connect 2 1 1 1;
#X connect 3 0 1 0;
#X connect 4 0 2 0;
#X connect 5 0 6 0;
#X connect 6 0 7 0;
#X connect 7 0 8 0;
#X connect 7 0 9 0;
#X connect 8 0 25 0;
#X connect 9 0 7 1;
#X connect 10 0 11 0;
#X connect 11 0 12 0;
#X connect 12 0 7 0;
#X connect 13 0 11 0;
#X connect 14 0 53 0;
#X connect 14 0 20 0;
#X connect 15 0 16 0;
#X connect 16 0 24 0;
#X connect 16 0 29 0;
#X connect 16 0 30 0;
#X connect 17 0 5 1;
#X connect 18 0 19 0;
#X connect 18 0 21 1;
#X connect 18 0 10 0;
#X connect 18 0 5 0;
#X connect 19 0 20 0;
#X connect 20 0 22 1;
#X connect 21 0 18 0;
#X connect 22 0 18 0;
#X connect 23 0 21 0;
#X connect 24 0 28 0;
#X connect 24 1 28 0;
#X connect 25 0 15 0;
#X connect 26 0 27 0;
#X connect 27 0 2 0;
#X connect 27 0 28 1;
#X connect 28 0 31 0;
#X connect 29 0 33 0;
#X connect 29 1 33 0;
#X connect 29 2 33 0;
#X connect 30 0 32 0;
#X connect 30 1 32 0;
#X connect 30 2 32 0;
#X connect 31 0 26 0;
#X connect 32 0 36 0;
#X connect 33 0 36 0;
#X connect 34 0 35 0;
#X connect 35 0 37 0;
#X connect 35 1 38 0;
#X connect 36 0 34 0;
#X connect 36 1 40 0;
#X connect 37 0 39 0;
#X connect 38 0 39 0;
#X connect 39 0 40 1;
#X connect 39 0 1 0;
#X connect 40 0 34 1;
#X connect 41 0 2 0;
#X connect 41 0 27 0;
#X connect 42 0 22 0;
#X connect 43 0 48 0;
#X connect 44 0 45 0;
#X connect 45 0 47 0;
#X connect 45 0 46 0;
#X connect 46 0 27 0;
#X connect 47 0 39 0;
#X connect 48 0 52 0;
#X connect 48 0 41 0;
#X connect 49 0 3 0;
#X connect 49 0 4 0;
#X connect 50 0 3 0;
#X connect 50 0 4 0;
#X connect 51 0 21 0;
#X connect 52 0 1 0;
#X connect 52 0 39 0;
#X connect 53 0 17 0;
#X restore 47 -319 pd Enemy13;
#N canvas 720 44 602 702 Enemy14 0;
#X obj 200 600 outlet;
#X obj 200 580 pack 0 0;
#X obj 220 550 t b f;
#X msg 360 400 -10;
#X msg 390 400 -10;
#X obj 160 210 metro;
#X obj 160 235 bng 15 250 50 0 empty empty empty 17 7 0 10 #fcfcfc
#000000 #000000;
#X obj 230 190 int 1;
#X floatatom 230 222 5 0 0 0 - - -, f 5;
#X obj 300 232 + 1;
#X obj 100 200 sel 0;
#X obj 100 225 bng 15 250 50 0 empty empty empty 17 7 0 10 #fcfcfc
#000000 #000000;
#X msg 100 248 -1;
#X obj 40 200 loadbang;
#X obj 190 110 loadbang;
#X obj 230 271 + 1;
#X floatatom 230 300 5 0 0 0 - - -, f 5;
#X floatatom 190 160 5 0 0 0 - - -, f 5;
#X obj 10 570 bng 15 250 50 0 empty empty empty 17 7 0 10 #fcfcfc #000000
#000000;
#X obj 60 150 tgl 15 0 empty empty empty 17 7 0 10 #fcfcfc #000000
#000000 0 1;
#X obj 90 150 bng 15 250 50 0 empty empty empty 17 7 0 10 #fcfcfc #000000
#000000;
#X obj 120 150 tgl 15 0 empty empty empty 17 7 0 10 #fcfcfc #000000
#000000 1 1;
#X obj 10 120 spigot;
#X obj 110 120 spigot;
#X obj 10 90 receive reset;
#X obj 250 350 sel 4 8;
#X obj 230 242 % 8;
#X msg 250 450 \$1;
#X floatatom 220 500 5 0 0 0 - - -, f 5;
#X obj 250 390 f 4;
#X obj 150 350 sel 5 6 7;
#X obj 70 350 sel 1 2 3;
#X obj 250 425 - 0.5;
#X msg 80 380 1;
#X msg 150 380 2;
#X obj 100 439 pack f f;
#X obj 100 468 route 1 2;
#X obj 90 410 t f b;
#X obj 100 500 + 0.5;
#X obj 140 500 - 0.5;
#X floatatom 120 540 5 0 0 0 - - -, f 5;
#X obj 170 430 f -3;
#X msg 60 600 3;
#X obj 120 80 receive round2;
#X obj 30 270 loadbang;
#X obj 30 295 bng 15 250 50 0 empty empty empty 17 7 0 10 #fcfcfc #000000
#000000;
#X msg 70 320 -10;
#X msg 30 318 -10;
#X msg 10 600 -2;
#X obj 360 310 receive reset;
#X obj 360 350 receive hit14;
#X obj 21 60 receive hit14;
#X obj 10 540 receive round2;
#X msg 190 135 600;
#X connect 1 0 0 0;
#X connect 2 0 1 0;
#X connect 2 1 1 1;
#X connect 3 0 1 0;
#X connect 4 0 2 0;
#X connect 5 0 6 0;
#X connect 6 0 7 0;
#X connect 7 0 8 0;
#X connect 7 0 9 0;
#X connect 8 0 26 0;
#X connect 9 0 7 1;
#X connect 10 0 11 0;
#X connect 11 0 12 0;
#X connect 12 0 7 0;
#X connect 13 0 11 0;
#X connect 14 0 53 0;
#X connect 14 0 21 0;
#X connect 15 0 16 0;
#X connect 16 0 25 0;
#X connect 16 0 30 0;
#X connect 16 0 31 0;
#X connect 17 0 5 1;
#X connect 18 0 48 0;
#X connect 18 0 42 0;
#X connect 19 0 20 0;
#X connect 19 0 22 1;
#X connect 19 0 10 0;
#X connect 19 0 5 0;
#X connect 20 0 21 0;
#X connect 21 0 23 1;
#X connect 22 0 19 0;
#X connect 23 0 19 0;
#X connect 24 0 22 0;
#X connect 25 0 29 0;
#X connect 25 1 29 0;
#X connect 26 0 15 0;
#X connect 27 0 28 0;
#X connect 28 0 2 0;
#X connect 28 0 29 1;
#X connect 29 0 32 0;
#X connect 30 0 34 0;
#X connect 30 1 34 0;
#X connect 30 2 34 0;
#X connect 31 0 33 0;
#X connect 31 1 33 0;
#X connect 31 2 33 0;
#X connect 32 0 27 0;
#X connect 33 0 37 0;
#X connect 34 0 37 0;
#X connect 35 0 36 0;
#X connect 36 0 38 0;
#X connect 36 1 39 0;
#X connect 37 0 35 0;
#X connect 37 1 41 0;
#X connect 38 0 40 0;
#X connect 39 0 40 0;
#X connect 40 0 41 1;
#X connect 40 0 1 0;
#X connect 41 0 35 1;
#X connect 42 0 2 0;
#X connect 42 0 28 0;
#X connect 43 0 23 0;
#X connect 44 0 45 0;
#X connect 45 0 47 0;
#X connect 45 0 46 0;
#X connect 46 0 28 0;
#X connect 47 0 40 0;
#X connect 48 0 1 0;
#X connect 48 0 40 0;
#X connect 49 0 3 0;
#X connect 49 0 4 0;
#X connect 50 0 3 0;
#X connect 50 0 4 0;
#X connect 51 0 22 0;
#X connect 52 0 18 0;
#X connect 53 0 17 0;
#X restore 207 -319 pd Enemy14;
#N canvas 720 44 602 702 Enemy15 0;
#X obj 200 600 outlet;
#X obj 200 580 pack 0 0;
#X obj 220 550 t b f;
#X msg 360 400 -10;
#X msg 390 400 -10;
#X obj 160 210 metro;
#X obj 160 235 bng 15 250 50 0 empty empty empty 17 7 0 10 #fcfcfc
#000000 #000000;
#X obj 230 190 int 1;
#X floatatom 230 222 5 0 0 0 - - -, f 5;
#X obj 300 232 + 1;
#X obj 100 200 sel 0;
#X obj 100 225 bng 15 250 50 0 empty empty empty 17 7 0 10 #fcfcfc
#000000 #000000;
#X msg 100 248 -1;
#X obj 40 200 loadbang;
#X obj 190 110 loadbang;
#X obj 230 271 + 1;
#X floatatom 230 300 5 0 0 0 - - -, f 5;
#X floatatom 190 160 5 0 0 0 - - -, f 5;
#X obj 60 150 tgl 15 0 empty empty empty 17 7 0 10 #fcfcfc #000000
#000000 0 1;
#X obj 90 150 bng 15 250 50 0 empty empty empty 17 7 0 10 #fcfcfc #000000
#000000;
#X obj 120 150 tgl 15 0 empty empty empty 17 7 0 10 #fcfcfc #000000
#000000 1 1;
#X obj 10 120 spigot;
#X obj 110 120 spigot;
#X obj 10 90 receive reset;
#X obj 250 350 sel 4 8;
#X obj 230 242 % 8;
#X msg 250 450 \$1;
#X floatatom 220 500 5 0 0 0 - - -, f 5;
#X obj 250 390 f 4;
#X obj 150 350 sel 5 6 7;
#X obj 70 350 sel 1 2 3;
#X obj 250 425 - 0.5;
#X msg 80 380 1;
#X msg 150 380 2;
#X obj 100 439 pack f f;
#X obj 100 468 route 1 2;
#X obj 90 410 t f b;
#X obj 100 500 + 0.5;
#X obj 140 500 - 0.5;
#X floatatom 120 540 5 0 0 0 - - -, f 5;
#X obj 170 430 f -3;
#X msg 60 600 3;
#X obj 120 80 receive round2;
#X obj 10 540 receive round2;
#X obj 30 270 loadbang;
#X obj 30 295 bng 15 250 50 0 empty empty empty 17 7 0 10 #fcfcfc #000000
#000000;
#X msg 70 320 -10;
#X msg 30 318 -10;
#X obj 10 565 bng 15 250 50 0 empty empty empty 17 7 0 10 #fcfcfc #000000
#000000;
#X obj 360 350 receive hit15;
#X obj 21 60 receive hit15;
#X msg 10 600 -1;
#X obj 360 310 receive reset;
#X msg 190 135 600;
#X connect 1 0 0 0;
#X connect 2 0 1 0;
#X connect 2 1 1 1;
#X connect 3 0 1 0;
#X connect 4 0 2 0;
#X connect 5 0 6 0;
#X connect 6 0 7 0;
#X connect 7 0 8 0;
#X connect 7 0 9 0;
#X connect 8 0 25 0;
#X connect 9 0 7 1;
#X connect 10 0 11 0;
#X connect 11 0 12 0;
#X connect 12 0 7 0;
#X connect 13 0 11 0;
#X connect 14 0 53 0;
#X connect 14 0 20 0;
#X connect 15 0 16 0;
#X connect 16 0 24 0;
#X connect 16 0 29 0;
#X connect 16 0 30 0;
#X connect 17 0 5 1;
#X connect 18 0 19 0;
#X connect 18 0 21 1;
#X connect 18 0 10 0;
#X connect 18 0 5 0;
#X connect 19 0 20 0;
#X connect 20 0 22 1;
#X connect 21 0 18 0;
#X connect 22 0 18 0;
#X connect 23 0 21 0;
#X connect 24 0 28 0;
#X connect 24 1 28 0;
#X connect 25 0 15 0;
#X connect 26 0 27 0;
#X connect 27 0 2 0;
#X connect 27 0 28 1;
#X connect 28 0 31 0;
#X connect 29 0 33 0;
#X connect 29 1 33 0;
#X connect 29 2 33 0;
#X connect 30 0 32 0;
#X connect 30 1 32 0;
#X connect 30 2 32 0;
#X connect 31 0 26 0;
#X connect 32 0 36 0;
#X connect 33 0 36 0;
#X connect 34 0 35 0;
#X connect 35 0 37 0;
#X connect 35 1 38 0;
#X connect 36 0 34 0;
#X connect 36 1 40 0;
#X connect 37 0 39 0;
#X connect 38 0 39 0;
#X connect 39 0 40 1;
#X connect 39 0 1 0;
#X connect 40 0 34 1;
#X connect 41 0 2 0;
#X connect 41 0 27 0;
#X connect 42 0 22 0;
#X connect 43 0 48 0;
#X connect 44 0 45 0;
#X connect 45 0 47 0;
#X connect 45 0 46 0;
#X connect 46 0 27 0;
#X connect 47 0 39 0;
#X connect 48 0 51 0;
#X connect 48 0 41 0;
#X connect 49 0 3 0;
#X connect 49 0 4 0;
#X connect 50 0 21 0;
#X connect 51 0 1 0;
#X connect 51 0 39 0;
#X connect 52 0 3 0;
#X connect 52 0 4 0;
#X connect 53 0 17 0;
#X restore 357 -319 pd Enemy15;
#N canvas 720 44 602 702 Enemy16 0;
#X obj 200 600 outlet;
#X obj 200 580 pack 0 0;
#X obj 220 550 t b f;
#X msg 360 400 -10;
#X msg 390 400 -10;
#X obj 160 210 metro;
#X obj 160 235 bng 15 250 50 0 empty empty empty 17 7 0 10 #fcfcfc
#000000 #000000;
#X obj 230 190 int 1;
#X floatatom 230 222 5 0 0 0 - - -, f 5;
#X obj 300 232 + 1;
#X obj 100 200 sel 0;
#X obj 100 225 bng 15 250 50 0 empty empty empty 17 7 0 10 #fcfcfc
#000000 #000000;
#X msg 100 248 -1;
#X obj 40 200 loadbang;
#X obj 190 110 loadbang;
#X obj 230 271 + 1;
#X floatatom 230 300 5 0 0 0 - - -, f 5;
#X floatatom 190 160 5 0 0 0 - - -, f 5;
#X obj 10 570 bng 15 250 50 0 empty empty empty 17 7 0 10 #fcfcfc #000000
#000000;
#X obj 60 150 tgl 15 0 empty empty empty 17 7 0 10 #fcfcfc #000000
#000000 0 1;
#X obj 90 150 bng 15 250 50 0 empty empty empty 17 7 0 10 #fcfcfc #000000
#000000;
#X obj 120 150 tgl 15 0 empty empty empty 17 7 0 10 #fcfcfc #000000
#000000 1 1;
#X obj 10 120 spigot;
#X obj 110 120 spigot;
#X obj 10 90 receive reset;
#X obj 250 350 sel 4 8;
#X obj 230 242 % 8;
#X msg 250 450 \$1;
#X floatatom 220 500 5 0 0 0 - - -, f 5;
#X obj 250 390 f 4;
#X obj 150 350 sel 5 6 7;
#X obj 70 350 sel 1 2 3;
#X obj 250 425 - 0.5;
#X msg 80 380 1;
#X msg 150 380 2;
#X obj 100 439 pack f f;
#X obj 100 468 route 1 2;
#X obj 90 410 t f b;
#X obj 100 500 + 0.5;
#X obj 140 500 - 0.5;
#X floatatom 120 540 5 0 0 0 - - -, f 5;
#X obj 170 430 f -3;
#X msg 60 600 3;
#X obj 120 80 receive round2;
#X obj 10 540 receive round2;
#X obj 30 270 loadbang;
#X obj 30 295 bng 15 250 50 0 empty empty empty 17 7 0 10 #fcfcfc #000000
#000000;
#X msg 70 320 -10;
#X msg 30 318 -10;
#X msg 10 600 0;
#X obj 360 350 receive hit16;
#X obj 21 60 receive hit16;
#X obj 360 300 receive reset;
#X msg 190 135 600;
#X connect 1 0 0 0;
#X connect 2 0 1 0;
#X connect 2 1 1 1;
#X connect 3 0 1 0;
#X connect 4 0 2 0;
#X connect 5 0 6 0;
#X connect 6 0 7 0;
#X connect 7 0 8 0;
#X connect 7 0 9 0;
#X connect 8 0 26 0;
#X connect 9 0 7 1;
#X connect 10 0 11 0;
#X connect 11 0 12 0;
#X connect 12 0 7 0;
#X connect 13 0 11 0;
#X connect 14 0 53 0;
#X connect 14 0 21 0;
#X connect 15 0 16 0;
#X connect 16 0 25 0;
#X connect 16 0 30 0;
#X connect 16 0 31 0;
#X connect 17 0 5 1;
#X connect 18 0 42 0;
#X connect 18 0 49 0;
#X connect 19 0 20 0;
#X connect 19 0 22 1;
#X connect 19 0 10 0;
#X connect 19 0 5 0;
#X connect 20 0 21 0;
#X connect 21 0 23 1;
#X connect 22 0 19 0;
#X connect 23 0 19 0;
#X connect 24 0 22 0;
#X connect 25 0 29 0;
#X connect 25 1 29 0;
#X connect 26 0 15 0;
#X connect 27 0 28 0;
#X connect 28 0 2 0;
#X connect 28 0 29 1;
#X connect 29 0 32 0;
#X connect 30 0 34 0;
#X connect 30 1 34 0;
#X connect 30 2 34 0;
#X connect 31 0 33 0;
#X connect 31 1 33 0;
#X connect 31 2 33 0;
#X connect 32 0 27 0;
#X connect 33 0 37 0;
#X connect 34 0 37 0;
#X connect 35 0 36 0;
#X connect 36 0 38 0;
#X connect 36 1 39 0;
#X connect 37 0 35 0;
#X connect 37 1 41 0;
#X connect 38 0 40 0;
#X connect 39 0 40 0;
#X connect 40 0 41 1;
#X connect 40 0 1 0;
#X connect 41 0 35 1;
#X connect 42 0 2 0;
#X connect 42 0 28 0;
#X connect 43 0 23 0;
#X connect 44 0 18 0;
#X connect 45 0 46 0;
#X connect 46 0 48 0;
#X connect 46 0 47 0;
#X connect 47 0 28 0;
#X connect 48 0 40 0;
#X connect 49 0 1 0;
#X connect 49 0 40 0;
#X connect 50 0 3 0;
#X connect 50 0 4 0;
#X connect 51 0 22 0;
#X connect 52 0 3 0;
#X connect 52 0 4 0;
#X connect 53 0 17 0;
#X restore 517 -319 pd Enemy16;
#N canvas 824 36 606 706 Enemy17 0;
#X obj 200 600 outlet;
#X obj 200 580 pack 0 0;
#X obj 220 550 t b f;
#X msg 360 400 -10;
#X msg 390 400 -10;
#X obj 160 210 metro;
#X obj 160 235 bng 15 250 50 0 empty empty empty 17 7 0 10 #fcfcfc
#000000 #000000;
#X obj 230 190 int 1;
#X floatatom 230 222 5 0 0 0 - - -, f 5;
#X obj 300 232 + 1;
#X obj 100 200 sel 0;
#X obj 100 225 bng 15 250 50 0 empty empty empty 17 7 0 10 #fcfcfc
#000000 #000000;
#X msg 100 248 -1;
#X obj 40 200 loadbang;
#X obj 190 110 loadbang;
#X obj 230 271 + 1;
#X floatatom 230 300 5 0 0 0 - - -, f 5;
#X floatatom 190 160 5 0 0 0 - - -, f 5;
#X obj 10 570 bng 15 250 50 0 empty empty empty 17 7 0 10 #fcfcfc #000000
#000000;
#X obj 60 150 tgl 15 0 empty empty empty 17 7 0 10 #fcfcfc #000000
#000000 0 1;
#X obj 90 150 bng 15 250 50 0 empty empty empty 17 7 0 10 #fcfcfc #000000
#000000;
#X obj 120 150 tgl 15 0 empty empty empty 17 7 0 10 #fcfcfc #000000
#000000 1 1;
#X obj 10 120 spigot;
#X obj 110 120 spigot;
#X obj 10 90 receive reset;
#X obj 250 350 sel 4 8;
#X obj 230 242 % 8;
#X msg 250 450 \$1;
#X floatatom 220 500 5 0 0 0 - - -, f 5;
#X obj 250 390 f 4;
#X obj 150 350 sel 5 6 7;
#X obj 70 350 sel 1 2 3;
#X obj 250 425 - 0.5;
#X msg 80 380 1;
#X msg 150 380 2;
#X obj 100 439 pack f f;
#X obj 100 468 route 1 2;
#X obj 90 410 t f b;
#X obj 100 500 + 0.5;
#X obj 140 500 - 0.5;
#X floatatom 120 540 5 0 0 0 - - -, f 5;
#X obj 170 430 f -3;
#X msg 60 600 3;
#X obj 120 80 receive round2;
#X obj 10 540 receive round2;
#X obj 30 270 loadbang;
#X obj 30 295 bng 15 250 50 0 empty empty empty 17 7 0 10 #fcfcfc #000000
#000000;
#X msg 70 320 -10;
#X msg 30 318 -10;
#X obj 21 60 receive hit17;
#X obj 360 350 receive hit17;
#X msg 10 600 1;
#X obj 360 310 receive reset;
#X msg 190 135 600;
#X connect 1 0 0 0;
#X connect 2 0 1 0;
#X connect 2 1 1 1;
#X connect 3 0 1 0;
#X connect 4 0 2 0;
#X connect 5 0 6 0;
#X connect 6 0 7 0;
#X connect 7 0 8 0;
#X connect 7 0 9 0;
#X connect 8 0 26 0;
#X connect 9 0 7 1;
#X connect 10 0 11 0;
#X connect 11 0 12 0;
#X connect 12 0 7 0;
#X connect 13 0 11 0;
#X connect 14 0 53 0;
#X connect 14 0 21 0;
#X connect 15 0 16 0;
#X connect 16 0 25 0;
#X connect 16 0 30 0;
#X connect 16 0 31 0;
#X connect 17 0 5 1;
#X connect 18 0 51 0;
#X connect 18 0 42 0;
#X connect 19 0 20 0;
#X connect 19 0 22 1;
#X connect 19 0 10 0;
#X connect 19 0 5 0;
#X connect 20 0 21 0;
#X connect 21 0 23 1;
#X connect 22 0 19 0;
#X connect 23 0 19 0;
#X connect 24 0 22 0;
#X connect 25 0 29 0;
#X connect 25 1 29 0;
#X connect 26 0 15 0;
#X connect 27 0 28 0;
#X connect 28 0 2 0;
#X connect 28 0 29 1;
#X connect 29 0 32 0;
#X connect 30 0 34 0;
#X connect 30 1 34 0;
#X connect 30 2 34 0;
#X connect 31 0 33 0;
#X connect 31 1 33 0;
#X connect 31 2 33 0;
#X connect 32 0 27 0;
#X connect 33 0 37 0;
#X connect 34 0 37 0;
#X connect 35 0 36 0;
#X connect 36 0 38 0;
#X connect 36 1 39 0;
#X connect 37 0 35 0;
#X connect 37 1 41 0;
#X connect 38 0 40 0;
#X connect 39 0 40 0;
#X connect 40 0 41 1;
#X connect 40 0 1 0;
#X connect 41 0 35 1;
#X connect 42 0 2 0;
#X connect 42 0 28 0;
#X connect 43 0 23 0;
#X connect 44 0 18 0;
#X connect 45 0 46 0;
#X connect 46 0 48 0;
#X connect 46 0 47 0;
#X connect 47 0 28 0;
#X connect 48 0 40 0;
#X connect 49 0 22 0;
#X connect 50 0 3 0;
#X connect 50 0 4 0;
#X connect 51 0 1 0;
#X connect 51 0 40 0;
#X connect 52 0 3 0;
#X connect 52 0 4 0;
#X connect 53 0 17 0;
#X restore 667 -319 pd Enemy17;
#N canvas 220 56 606 730 Enemy18 0;
#X obj 200 600 outlet;
#X obj 200 580 pack 0 0;
#X obj 220 550 t b f;
#X msg 360 400 -10;
#X msg 390 400 -10;
#X obj 160 210 metro;
#X obj 160 235 bng 15 250 50 0 empty empty empty 17 7 0 10 #fcfcfc
#000000 #000000;
#X obj 230 190 int 1;
#X floatatom 230 222 5 0 0 0 - - -, f 5;
#X obj 300 232 + 1;
#X obj 100 200 sel 0;
#X obj 100 225 bng 15 250 50 0 empty empty empty 17 7 0 10 #fcfcfc
#000000 #000000;
#X msg 100 248 -1;
#X obj 40 200 loadbang;
#X obj 190 110 loadbang;
#X obj 230 271 + 1;
#X floatatom 230 300 5 0 0 0 - - -, f 5;
#X floatatom 190 160 5 0 0 0 - - -, f 5;
#X obj 10 570 bng 15 250 50 0 empty empty empty 17 7 0 10 #fcfcfc #000000
#000000;
#X obj 60 150 tgl 15 0 empty empty empty 17 7 0 10 #fcfcfc #000000
#000000 0 1;
#X obj 90 150 bng 15 250 50 0 empty empty empty 17 7 0 10 #fcfcfc #000000
#000000;
#X obj 120 150 tgl 15 0 empty empty empty 17 7 0 10 #fcfcfc #000000
#000000 1 1;
#X obj 10 120 spigot;
#X obj 110 120 spigot;
#X obj 10 90 receive reset;
#X obj 250 350 sel 4 8;
#X obj 230 242 % 8;
#X msg 250 450 \$1;
#X floatatom 220 500 5 0 0 0 - - -, f 5;
#X obj 250 390 f 4;
#X obj 150 350 sel 5 6 7;
#X obj 70 350 sel 1 2 3;
#X obj 250 425 - 0.5;
#X msg 80 380 1;
#X msg 150 380 2;
#X obj 100 439 pack f f;
#X obj 100 468 route 1 2;
#X obj 90 410 t f b;
#X obj 100 500 + 0.5;
#X obj 140 500 - 0.5;
#X floatatom 120 540 5 0 0 0 - - -, f 5;
#X obj 170 430 f -3;
#X msg 60 600 3;
#X obj 120 80 receive round2;
#X obj 10 540 receive round2;
#X obj 30 270 loadbang;
#X obj 30 295 bng 15 250 50 0 empty empty empty 17 7 0 10 #fcfcfc #000000
#000000;
#X msg 70 320 -10;
#X msg 30 318 -10;
#X msg 10 600 2;
#X obj 360 350 receive hit18;
#X obj 360 310 receive reset;
#X obj 21 60 receive hit18;
#X msg 190 135 600;
#X connect 1 0 0 0;
#X connect 2 0 1 0;
#X connect 2 1 1 1;
#X connect 3 0 1 0;
#X connect 4 0 2 0;
#X connect 5 0 6 0;
#X connect 6 0 7 0;
#X connect 7 0 8 0;
#X connect 7 0 9 0;
#X connect 8 0 26 0;
#X connect 9 0 7 1;
#X connect 10 0 11 0;
#X connect 11 0 12 0;
#X connect 12 0 7 0;
#X connect 13 0 11 0;
#X connect 14 0 53 0;
#X connect 14 0 21 0;
#X connect 15 0 16 0;
#X connect 16 0 25 0;
#X connect 16 0 30 0;
#X connect 16 0 31 0;
#X connect 17 0 5 1;
#X connect 18 0 49 0;
#X connect 18 0 42 0;
#X connect 19 0 20 0;
#X connect 19 0 22 1;
#X connect 19 0 10 0;
#X connect 19 0 5 0;
#X connect 20 0 21 0;
#X connect 21 0 23 1;
#X connect 22 0 19 0;
#X connect 23 0 19 0;
#X connect 24 0 22 0;
#X connect 25 0 29 0;
#X connect 25 1 29 0;
#X connect 26 0 15 0;
#X connect 27 0 28 0;
#X connect 28 0 2 0;
#X connect 28 0 29 1;
#X connect 29 0 32 0;
#X connect 30 0 34 0;
#X connect 30 1 34 0;
#X connect 30 2 34 0;
#X connect 31 0 33 0;
#X connect 31 1 33 0;
#X connect 31 2 33 0;
#X connect 32 0 27 0;
#X connect 33 0 37 0;
#X connect 34 0 37 0;
#X connect 35 0 36 0;
#X connect 36 0 38 0;
#X connect 36 1 39 0;
#X connect 37 0 35 0;
#X connect 37 1 41 0;
#X connect 38 0 40 0;
#X connect 39 0 40 0;
#X connect 40 0 41 1;
#X connect 40 0 1 0;
#X connect 41 0 35 1;
#X connect 42 0 2 0;
#X connect 42 0 28 0;
#X connect 43 0 23 0;
#X connect 44 0 18 0;
#X connect 45 0 46 0;
#X connect 46 0 48 0;
#X connect 46 0 47 0;
#X connect 47 0 28 0;
#X connect 48 0 40 0;
#X connect 49 0 1 0;
#X connect 49 0 40 0;
#X connect 50 0 3 0;
#X connect 50 0 4 0;
#X connect 51 0 3 0;
#X connect 51 0 4 0;
#X connect 52 0 22 0;
#X connect 53 0 17 0;
#X restore 817 -319 pd Enemy18;
#N canvas 720 44 602 702 Enemy19 0;
#X obj 200 600 outlet;
#X obj 200 580 pack 0 0;
#X obj 220 550 t b f;
#X msg 360 400 -10;
#X msg 390 400 -10;
#X obj 160 210 metro;
#X obj 160 235 bng 15 250 50 0 empty empty empty 17 7 0 10 #fcfcfc
#000000 #000000;
#X obj 230 190 int 1;
#X floatatom 230 222 5 0 0 0 - - -, f 5;
#X obj 300 232 + 1;
#X obj 100 200 sel 0;
#X obj 100 225 bng 15 250 50 0 empty empty empty 17 7 0 10 #fcfcfc
#000000 #000000;
#X msg 100 248 -1;
#X obj 40 200 loadbang;
#X obj 190 110 loadbang;
#X obj 230 271 + 1;
#X floatatom 230 300 5 0 0 0 - - -, f 5;
#X floatatom 190 160 5 0 0 0 - - -, f 5;
#X obj 10 570 bng 15 250 50 0 empty empty empty 17 7 0 10 #fcfcfc #000000
#000000;
#X obj 60 150 tgl 15 0 empty empty empty 17 7 0 10 #fcfcfc #000000
#000000 0 1;
#X obj 90 150 bng 15 250 50 0 empty empty empty 17 7 0 10 #fcfcfc #000000
#000000;
#X obj 120 150 tgl 15 0 empty empty empty 17 7 0 10 #fcfcfc #000000
#000000 1 1;
#X obj 10 120 spigot;
#X obj 110 120 spigot;
#X obj 10 90 receive reset;
#X obj 250 350 sel 4 8;
#X obj 230 242 % 8;
#X msg 250 450 \$1;
#X floatatom 220 500 5 0 0 0 - - -, f 5;
#X obj 250 390 f 4;
#X obj 150 350 sel 5 6 7;
#X obj 70 350 sel 1 2 3;
#X obj 250 425 - 0.5;
#X msg 80 380 1;
#X msg 150 380 2;
#X obj 100 439 pack f f;
#X obj 100 468 route 1 2;
#X obj 90 410 t f b;
#X obj 100 500 + 0.5;
#X obj 140 500 - 0.5;
#X floatatom 120 540 5 0 0 0 - - -, f 5;
#X obj 170 430 f -3;
#X obj 120 80 receive round2;
#X obj 30 270 loadbang;
#X obj 30 295 bng 15 250 50 0 empty empty empty 17 7 0 10 #fcfcfc #000000
#000000;
#X msg 70 320 -10;
#X msg 30 318 -10;
#X msg 10 600 -2.5;
#X msg 60 600 3.5;
#X obj 360 350 receive hit19;
#X obj 21 60 receive hit19;
#X obj 360 310 receive reset;
#X obj 10 540 receive round2;
#X msg 190 135 600;
#X connect 1 0 0 0;
#X connect 2 0 1 0;
#X connect 2 1 1 1;
#X connect 3 0 1 0;
#X connect 4 0 2 0;
#X connect 5 0 6 0;
#X connect 6 0 7 0;
#X connect 7 0 8 0;
#X connect 7 0 9 0;
#X connect 8 0 26 0;
#X connect 9 0 7 1;
#X connect 10 0 11 0;
#X connect 11 0 12 0;
#X connect 12 0 7 0;
#X connect 13 0 11 0;
#X connect 14 0 53 0;
#X connect 14 0 21 0;
#X connect 15 0 16 0;
#X connect 16 0 25 0;
#X connect 16 0 30 0;
#X connect 16 0 31 0;
#X connect 17 0 5 1;
#X connect 18 0 47 0;
#X connect 18 0 48 0;
#X connect 19 0 20 0;
#X connect 19 0 22 1;
#X connect 19 0 10 0;
#X connect 19 0 5 0;
#X connect 20 0 21 0;
#X connect 21 0 23 1;
#X connect 22 0 19 0;
#X connect 23 0 19 0;
#X connect 24 0 22 0;
#X connect 25 0 29 0;
#X connect 25 1 29 0;
#X connect 26 0 15 0;
#X connect 27 0 28 0;
#X connect 28 0 2 0;
#X connect 28 0 29 1;
#X connect 29 0 32 0;
#X connect 30 0 34 0;
#X connect 30 1 34 0;
#X connect 30 2 34 0;
#X connect 31 0 33 0;
#X connect 31 1 33 0;
#X connect 31 2 33 0;
#X connect 32 0 27 0;
#X connect 33 0 37 0;
#X connect 34 0 37 0;
#X connect 35 0 36 0;
#X connect 36 0 38 0;
#X connect 36 1 39 0;
#X connect 37 0 35 0;
#X connect 37 1 41 0;
#X connect 38 0 40 0;
#X connect 39 0 40 0;
#X connect 40 0 41 1;
#X connect 40 0 1 0;
#X connect 41 0 35 1;
#X connect 42 0 23 0;
#X connect 43 0 44 0;
#X connect 44 0 46 0;
#X connect 44 0 45 0;
#X connect 45 0 28 0;
#X connect 46 0 40 0;
#X connect 47 0 1 0;
#X connect 47 0 40 0;
#X connect 48 0 2 0;
#X connect 48 0 28 0;
#X connect 49 0 3 0;
#X connect 49 0 4 0;
#X connect 50 0 22 0;
#X connect 51 0 3 0;
#X connect 51 0 4 0;
#X connect 52 0 18 0;
#X connect 53 0 17 0;
#X restore 47 -209 pd Enemy19;
#N canvas 720 44 602 702 Enemy20 0;
#X obj 200 600 outlet;
#X obj 200 580 pack 0 0;
#X obj 220 550 t b f;
#X msg 360 400 -10;
#X msg 390 400 -10;
#X obj 160 210 metro;
#X obj 160 235 bng 15 250 50 0 empty empty empty 17 7 0 10 #fcfcfc
#000000 #000000;
#X obj 230 190 int 1;
#X floatatom 230 222 5 0 0 0 - - -, f 5;
#X obj 300 232 + 1;
#X obj 100 200 sel 0;
#X obj 100 225 bng 15 250 50 0 empty empty empty 17 7 0 10 #fcfcfc
#000000 #000000;
#X msg 100 248 -1;
#X obj 40 200 loadbang;
#X obj 190 110 loadbang;
#X obj 230 271 + 1;
#X floatatom 230 300 5 0 0 0 - - -, f 5;
#X floatatom 190 160 5 0 0 0 - - -, f 5;
#X obj 10 570 bng 15 250 50 0 empty empty empty 17 7 0 10 #fcfcfc #000000
#000000;
#X obj 60 150 tgl 15 0 empty empty empty 17 7 0 10 #fcfcfc #000000
#000000 0 1;
#X obj 90 150 bng 15 250 50 0 empty empty empty 17 7 0 10 #fcfcfc #000000
#000000;
#X obj 120 150 tgl 15 0 empty empty empty 17 7 0 10 #fcfcfc #000000
#000000 1 1;
#X obj 10 120 spigot;
#X obj 110 120 spigot;
#X obj 10 90 receive reset;
#X obj 250 350 sel 4 8;
#X obj 230 242 % 8;
#X msg 250 450 \$1;
#X floatatom 220 500 5 0 0 0 - - -, f 5;
#X obj 250 390 f 4;
#X obj 150 350 sel 5 6 7;
#X obj 70 350 sel 1 2 3;
#X obj 250 425 - 0.5;
#X msg 80 380 1;
#X msg 150 380 2;
#X obj 100 439 pack f f;
#X obj 100 468 route 1 2;
#X obj 90 410 t f b;
#X obj 100 500 + 0.5;
#X obj 140 500 - 0.5;
#X floatatom 120 540 5 0 0 0 - - -, f 5;
#X obj 170 430 f -3;
#X obj 120 80 receive round2;
#X obj 10 540 receive round2;
#X obj 30 270 loadbang;
#X obj 30 295 bng 15 250 50 0 empty empty empty 17 7 0 10 #fcfcfc #000000
#000000;
#X msg 70 320 -10;
#X msg 30 318 -10;
#X obj 21 60 receive hit20;
#X obj 360 350 receive hit20;
#X msg 10 600 -1.5;
#X msg 60 600 3.5;
#X obj 360 320 receive reset;
#X msg 190 135 600;
#X connect 1 0 0 0;
#X connect 2 0 1 0;
#X connect 2 1 1 1;
#X connect 3 0 1 0;
#X connect 4 0 2 0;
#X connect 5 0 6 0;
#X connect 6 0 7 0;
#X connect 7 0 8 0;
#X connect 7 0 9 0;
#X connect 8 0 26 0;
#X connect 9 0 7 1;
#X connect 10 0 11 0;
#X connect 11 0 12 0;
#X connect 12 0 7 0;
#X connect 13 0 11 0;
#X connect 14 0 53 0;
#X connect 14 0 21 0;
#X connect 15 0 16 0;
#X connect 16 0 25 0;
#X connect 16 0 30 0;
#X connect 16 0 31 0;
#X connect 17 0 5 1;
#X connect 18 0 50 0;
#X connect 18 0 51 0;
#X connect 19 0 20 0;
#X connect 19 0 22 1;
#X connect 19 0 10 0;
#X connect 19 0 5 0;
#X connect 20 0 21 0;
#X connect 21 0 23 1;
#X connect 22 0 19 0;
#X connect 23 0 19 0;
#X connect 24 0 22 0;
#X connect 25 0 29 0;
#X connect 25 1 29 0;
#X connect 26 0 15 0;
#X connect 27 0 28 0;
#X connect 28 0 2 0;
#X connect 28 0 29 1;
#X connect 29 0 32 0;
#X connect 30 0 34 0;
#X connect 30 1 34 0;
#X connect 30 2 34 0;
#X connect 31 0 33 0;
#X connect 31 1 33 0;
#X connect 31 2 33 0;
#X connect 32 0 27 0;
#X connect 33 0 37 0;
#X connect 34 0 37 0;
#X connect 35 0 36 0;
#X connect 36 0 38 0;
#X connect 36 1 39 0;
#X connect 37 0 35 0;
#X connect 37 1 41 0;
#X connect 38 0 40 0;
#X connect 39 0 40 0;
#X connect 40 0 41 1;
#X connect 40 0 1 0;
#X connect 41 0 35 1;
#X connect 42 0 23 0;
#X connect 43 0 18 0;
#X connect 44 0 45 0;
#X connect 45 0 47 0;
#X connect 45 0 46 0;
#X connect 46 0 28 0;
#X connect 47 0 40 0;
#X connect 48 0 22 0;
#X connect 49 0 3 0;
#X connect 49 0 4 0;
#X connect 50 0 1 0;
#X connect 50 0 40 0;
#X connect 51 0 2 0;
#X connect 51 0 28 0;
#X connect 52 0 3 0;
#X connect 52 0 4 0;
#X connect 53 0 17 0;
#X restore 207 -209 pd Enemy20;
#N canvas 720 44 602 702 Enemy21 0;
#X obj 200 600 outlet;
#X obj 200 580 pack 0 0;
#X obj 220 550 t b f;
#X msg 360 400 -10;
#X msg 390 400 -10;
#X obj 160 210 metro;
#X obj 160 235 bng 15 250 50 0 empty empty empty 17 7 0 10 #fcfcfc
#000000 #000000;
#X obj 230 190 int 1;
#X floatatom 230 222 5 0 0 0 - - -, f 5;
#X obj 300 232 + 1;
#X obj 100 200 sel 0;
#X obj 100 225 bng 15 250 50 0 empty empty empty 17 7 0 10 #fcfcfc
#000000 #000000;
#X msg 100 248 -1;
#X obj 40 200 loadbang;
#X obj 190 110 loadbang;
#X obj 230 271 + 1;
#X floatatom 230 300 5 0 0 0 - - -, f 5;
#X floatatom 190 160 5 0 0 0 - - -, f 5;
#X obj 10 570 bng 15 250 50 0 empty empty empty 17 7 0 10 #fcfcfc #000000
#000000;
#X obj 60 150 tgl 15 0 empty empty empty 17 7 0 10 #fcfcfc #000000
#000000 0 1;
#X obj 90 150 bng 15 250 50 0 empty empty empty 17 7 0 10 #fcfcfc #000000
#000000;
#X obj 120 150 tgl 15 0 empty empty empty 17 7 0 10 #fcfcfc #000000
#000000 1 1;
#X obj 10 120 spigot;
#X obj 110 120 spigot;
#X obj 10 90 receive reset;
#X obj 250 350 sel 4 8;
#X obj 230 242 % 8;
#X msg 250 450 \$1;
#X floatatom 220 500 5 0 0 0 - - -, f 5;
#X obj 250 390 f 4;
#X obj 150 350 sel 5 6 7;
#X obj 70 350 sel 1 2 3;
#X obj 250 425 - 0.5;
#X msg 80 380 1;
#X msg 150 380 2;
#X obj 100 439 pack f f;
#X obj 100 468 route 1 2;
#X obj 90 410 t f b;
#X obj 100 500 + 0.5;
#X obj 140 500 - 0.5;
#X floatatom 120 540 5 0 0 0 - - -, f 5;
#X obj 170 430 f -3;
#X obj 120 80 receive round2;
#X obj 10 540 receive round2;
#X obj 30 270 loadbang;
#X obj 30 295 bng 15 250 50 0 empty empty empty 17 7 0 10 #fcfcfc #000000
#000000;
#X msg 70 320 -10;
#X msg 30 318 -10;
#X obj 360 350 receive hit21;
#X obj 21 60 receive hit21;
#X msg 10 600 -0.5;
#X msg 60 600 3.5;
#X obj 360 320 receive reset;
#X msg 190 135 600;
#X connect 1 0 0 0;
#X connect 2 0 1 0;
#X connect 2 1 1 1;
#X connect 3 0 1 0;
#X connect 4 0 2 0;
#X connect 5 0 6 0;
#X connect 6 0 7 0;
#X connect 7 0 8 0;
#X connect 7 0 9 0;
#X connect 8 0 26 0;
#X connect 9 0 7 1;
#X connect 10 0 11 0;
#X connect 11 0 12 0;
#X connect 12 0 7 0;
#X connect 13 0 11 0;
#X connect 14 0 53 0;
#X connect 14 0 21 0;
#X connect 15 0 16 0;
#X connect 16 0 25 0;
#X connect 16 0 30 0;
#X connect 16 0 31 0;
#X connect 17 0 5 1;
#X connect 18 0 50 0;
#X connect 18 0 51 0;
#X connect 19 0 20 0;
#X connect 19 0 22 1;
#X connect 19 0 10 0;
#X connect 19 0 5 0;
#X connect 20 0 21 0;
#X connect 21 0 23 1;
#X connect 22 0 19 0;
#X connect 23 0 19 0;
#X connect 24 0 22 0;
#X connect 25 0 29 0;
#X connect 25 1 29 0;
#X connect 26 0 15 0;
#X connect 27 0 28 0;
#X connect 28 0 2 0;
#X connect 28 0 29 1;
#X connect 29 0 32 0;
#X connect 30 0 34 0;
#X connect 30 1 34 0;
#X connect 30 2 34 0;
#X connect 31 0 33 0;
#X connect 31 1 33 0;
#X connect 31 2 33 0;
#X connect 32 0 27 0;
#X connect 33 0 37 0;
#X connect 34 0 37 0;
#X connect 35 0 36 0;
#X connect 36 0 38 0;
#X connect 36 1 39 0;
#X connect 37 0 35 0;
#X connect 37 1 41 0;
#X connect 38 0 40 0;
#X connect 39 0 40 0;
#X connect 40 0 41 1;
#X connect 40 0 1 0;
#X connect 41 0 35 1;
#X connect 42 0 23 0;
#X connect 43 0 18 0;
#X connect 44 0 45 0;
#X connect 45 0 47 0;
#X connect 45 0 46 0;
#X connect 46 0 28 0;
#X connect 47 0 40 0;
#X connect 48 0 3 0;
#X connect 48 0 4 0;
#X connect 49 0 22 0;
#X connect 50 0 1 0;
#X connect 50 0 40 0;
#X connect 51 0 2 0;
#X connect 51 0 28 0;
#X connect 52 0 3 0;
#X connect 52 0 4 0;
#X connect 53 0 17 0;
#X restore 357 -209 pd Enemy21;
#N canvas 720 44 602 702 Enemy22 0;
#X obj 200 600 outlet;
#X obj 200 580 pack 0 0;
#X obj 220 550 t b f;
#X msg 360 400 -10;
#X msg 390 400 -10;
#X obj 160 210 metro;
#X obj 160 235 bng 15 250 50 0 empty empty empty 17 7 0 10 #fcfcfc
#000000 #000000;
#X obj 230 190 int 1;
#X floatatom 230 222 5 0 0 0 - - -, f 5;
#X obj 300 232 + 1;
#X obj 100 200 sel 0;
#X obj 100 225 bng 15 250 50 0 empty empty empty 17 7 0 10 #fcfcfc
#000000 #000000;
#X msg 100 248 -1;
#X obj 40 200 loadbang;
#X obj 190 110 loadbang;
#X obj 230 271 + 1;
#X floatatom 230 300 5 0 0 0 - - -, f 5;
#X floatatom 190 160 5 0 0 0 - - -, f 5;
#X obj 10 570 bng 15 250 50 0 empty empty empty 17 7 0 10 #fcfcfc #000000
#000000;
#X obj 60 150 tgl 15 0 empty empty empty 17 7 0 10 #fcfcfc #000000
#000000 0 1;
#X obj 90 150 bng 15 250 50 0 empty empty empty 17 7 0 10 #fcfcfc #000000
#000000;
#X obj 120 150 tgl 15 0 empty empty empty 17 7 0 10 #fcfcfc #000000
#000000 1 1;
#X obj 10 120 spigot;
#X obj 110 120 spigot;
#X obj 10 90 receive reset;
#X obj 250 350 sel 4 8;
#X obj 230 242 % 8;
#X msg 250 450 \$1;
#X floatatom 220 500 5 0 0 0 - - -, f 5;
#X obj 250 390 f 4;
#X obj 150 350 sel 5 6 7;
#X obj 70 350 sel 1 2 3;
#X obj 250 425 - 0.5;
#X msg 80 380 1;
#X msg 150 380 2;
#X obj 100 439 pack f f;
#X obj 100 468 route 1 2;
#X obj 90 410 t f b;
#X obj 100 500 + 0.5;
#X obj 140 500 - 0.5;
#X floatatom 120 540 5 0 0 0 - - -, f 5;
#X obj 170 430 f -3;
#X obj 120 80 receive round2;
#X obj 10 540 receive round2;
#X obj 30 270 loadbang;
#X obj 30 295 bng 15 250 50 0 empty empty empty 17 7 0 10 #fcfcfc #000000
#000000;
#X msg 70 320 -10;
#X msg 30 318 -10;
#X msg 60 600 3.5;
#X obj 360 350 receive hit22;
#X obj 21 60 receive hit22;
#X msg 10 600 0.5;
#X obj 360 310 receive reset;
#X msg 190 135 600;
#X connect 1 0 0 0;
#X connect 2 0 1 0;
#X connect 2 1 1 1;
#X connect 3 0 1 0;
#X connect 4 0 2 0;
#X connect 5 0 6 0;
#X connect 6 0 7 0;
#X connect 7 0 8 0;
#X connect 7 0 9 0;
#X connect 8 0 26 0;
#X connect 9 0 7 1;
#X connect 10 0 11 0;
#X connect 11 0 12 0;
#X connect 12 0 7 0;
#X connect 13 0 11 0;
#X connect 14 0 53 0;
#X connect 14 0 21 0;
#X connect 15 0 16 0;
#X connect 16 0 25 0;
#X connect 16 0 30 0;
#X connect 16 0 31 0;
#X connect 17 0 5 1;
#X connect 18 0 51 0;
#X connect 18 0 48 0;
#X connect 19 0 20 0;
#X connect 19 0 22 1;
#X connect 19 0 10 0;
#X connect 19 0 5 0;
#X connect 20 0 21 0;
#X connect 21 0 23 1;
#X connect 22 0 19 0;
#X connect 23 0 19 0;
#X connect 24 0 22 0;
#X connect 25 0 29 0;
#X connect 25 1 29 0;
#X connect 26 0 15 0;
#X connect 27 0 28 0;
#X connect 28 0 2 0;
#X connect 28 0 29 1;
#X connect 29 0 32 0;
#X connect 30 0 34 0;
#X connect 30 1 34 0;
#X connect 30 2 34 0;
#X connect 31 0 33 0;
#X connect 31 1 33 0;
#X connect 31 2 33 0;
#X connect 32 0 27 0;
#X connect 33 0 37 0;
#X connect 34 0 37 0;
#X connect 35 0 36 0;
#X connect 36 0 38 0;
#X connect 36 1 39 0;
#X connect 37 0 35 0;
#X connect 37 1 41 0;
#X connect 38 0 40 0;
#X connect 39 0 40 0;
#X connect 40 0 41 1;
#X connect 40 0 1 0;
#X connect 41 0 35 1;
#X connect 42 0 23 0;
#X connect 43 0 18 0;
#X connect 44 0 45 0;
#X connect 45 0 47 0;
#X connect 45 0 46 0;
#X connect 46 0 28 0;
#X connect 47 0 40 0;
#X connect 48 0 2 0;
#X connect 48 0 28 0;
#X connect 49 0 3 0;
#X connect 49 0 4 0;
#X connect 50 0 22 0;
#X connect 51 0 1 0;
#X connect 51 0 40 0;
#X connect 52 0 3 0;
#X connect 52 0 4 0;
#X connect 53 0 17 0;
#X restore 517 -209 pd Enemy22;
#N canvas 720 44 602 702 Enemy23 0;
#X obj 200 600 outlet;
#X obj 200 580 pack 0 0;
#X obj 220 550 t b f;
#X msg 360 400 -10;
#X msg 390 400 -10;
#X obj 160 210 metro;
#X obj 160 235 bng 15 250 50 0 empty empty empty 17 7 0 10 #fcfcfc
#000000 #000000;
#X obj 230 190 int 1;
#X floatatom 230 222 5 0 0 0 - - -, f 5;
#X obj 300 232 + 1;
#X obj 100 200 sel 0;
#X obj 100 225 bng 15 250 50 0 empty empty empty 17 7 0 10 #fcfcfc
#000000 #000000;
#X msg 100 248 -1;
#X obj 40 200 loadbang;
#X obj 190 110 loadbang;
#X obj 230 271 + 1;
#X floatatom 230 300 5 0 0 0 - - -, f 5;
#X floatatom 190 160 5 0 0 0 - - -, f 5;
#X obj 10 570 bng 15 250 50 0 empty empty empty 17 7 0 10 #fcfcfc #000000
#000000;
#X obj 60 150 tgl 15 0 empty empty empty 17 7 0 10 #fcfcfc #000000
#000000 0 1;
#X obj 90 150 bng 15 250 50 0 empty empty empty 17 7 0 10 #fcfcfc #000000
#000000;
#X obj 120 150 tgl 15 0 empty empty empty 17 7 0 10 #fcfcfc #000000
#000000 1 1;
#X obj 10 120 spigot;
#X obj 110 120 spigot;
#X obj 10 90 receive reset;
#X obj 250 350 sel 4 8;
#X obj 230 242 % 8;
#X msg 250 450 \$1;
#X floatatom 220 500 5 0 0 0 - - -, f 5;
#X obj 250 390 f 4;
#X obj 150 350 sel 5 6 7;
#X obj 70 350 sel 1 2 3;
#X obj 250 425 - 0.5;
#X msg 80 380 1;
#X msg 150 380 2;
#X obj 100 439 pack f f;
#X obj 100 468 route 1 2;
#X obj 90 410 t f b;
#X obj 100 500 + 0.5;
#X obj 140 500 - 0.5;
#X floatatom 120 540 5 0 0 0 - - -, f 5;
#X obj 170 430 f -3;
#X obj 120 80 receive round2;
#X obj 10 540 receive round2;
#X obj 30 270 loadbang;
#X obj 30 295 bng 15 250 50 0 empty empty empty 17 7 0 10 #fcfcfc #000000
#000000;
#X msg 70 320 -10;
#X msg 30 318 -10;
#X obj 360 350 receive hit23;
#X obj 21 60 receive hit23;
#X msg 10 600 1.5;
#X msg 60 600 3.5;
#X obj 360 310 receive reset;
#X msg 190 135 600;
#X connect 1 0 0 0;
#X connect 2 0 1 0;
#X connect 2 1 1 1;
#X connect 3 0 1 0;
#X connect 4 0 2 0;
#X connect 5 0 6 0;
#X connect 6 0 7 0;
#X connect 7 0 8 0;
#X connect 7 0 9 0;
#X connect 8 0 26 0;
#X connect 9 0 7 1;
#X connect 10 0 11 0;
#X connect 11 0 12 0;
#X connect 12 0 7 0;
#X connect 13 0 11 0;
#X connect 14 0 53 0;
#X connect 14 0 21 0;
#X connect 15 0 16 0;
#X connect 16 0 25 0;
#X connect 16 0 30 0;
#X connect 16 0 31 0;
#X connect 17 0 5 1;
#X connect 18 0 50 0;
#X connect 18 0 51 0;
#X connect 19 0 20 0;
#X connect 19 0 22 1;
#X connect 19 0 10 0;
#X connect 19 0 5 0;
#X connect 20 0 21 0;
#X connect 21 0 23 1;
#X connect 22 0 19 0;
#X connect 23 0 19 0;
#X connect 24 0 22 0;
#X connect 25 0 29 0;
#X connect 25 1 29 0;
#X connect 26 0 15 0;
#X connect 27 0 28 0;
#X connect 28 0 2 0;
#X connect 28 0 29 1;
#X connect 29 0 32 0;
#X connect 30 0 34 0;
#X connect 30 1 34 0;
#X connect 30 2 34 0;
#X connect 31 0 33 0;
#X connect 31 1 33 0;
#X connect 31 2 33 0;
#X connect 32 0 27 0;
#X connect 33 0 37 0;
#X connect 34 0 37 0;
#X connect 35 0 36 0;
#X connect 36 0 38 0;
#X connect 36 1 39 0;
#X connect 37 0 35 0;
#X connect 37 1 41 0;
#X connect 38 0 40 0;
#X connect 39 0 40 0;
#X connect 40 0 41 1;
#X connect 40 0 1 0;
#X connect 41 0 35 1;
#X connect 42 0 23 0;
#X connect 43 0 18 0;
#X connect 44 0 45 0;
#X connect 45 0 47 0;
#X connect 45 0 46 0;
#X connect 46 0 28 0;
#X connect 47 0 40 0;
#X connect 48 0 3 0;
#X connect 48 0 4 0;
#X connect 49 0 22 0;
#X connect 50 0 1 0;
#X connect 50 0 40 0;
#X connect 51 0 2 0;
#X connect 51 0 28 0;
#X connect 52 0 3 0;
#X connect 52 0 4 0;
#X connect 53 0 17 0;
#X restore 667 -209 pd Enemy23;
#N canvas 720 44 602 702 Enemy24 0;
#X obj 200 600 outlet;
#X obj 200 580 pack 0 0;
#X obj 220 550 t b f;
#X msg 360 400 -10;
#X msg 390 400 -10;
#X obj 160 210 metro;
#X obj 160 235 bng 15 250 50 0 empty empty empty 17 7 0 10 #fcfcfc
#000000 #000000;
#X obj 230 190 int 1;
#X floatatom 230 222 5 0 0 0 - - -, f 5;
#X obj 300 232 + 1;
#X obj 100 200 sel 0;
#X obj 100 225 bng 15 250 50 0 empty empty empty 17 7 0 10 #fcfcfc
#000000 #000000;
#X msg 100 248 -1;
#X obj 40 200 loadbang;
#X obj 190 110 loadbang;
#X obj 230 271 + 1;
#X floatatom 230 300 5 0 0 0 - - -, f 5;
#X floatatom 190 160 5 0 0 0 - - -, f 5;
#X obj 10 570 bng 15 250 50 0 empty empty empty 17 7 0 10 #fcfcfc #000000
#000000;
#X obj 60 150 tgl 15 0 empty empty empty 17 7 0 10 #fcfcfc #000000
#000000 0 1;
#X obj 90 150 bng 15 250 50 0 empty empty empty 17 7 0 10 #fcfcfc #000000
#000000;
#X obj 120 150 tgl 15 0 empty empty empty 17 7 0 10 #fcfcfc #000000
#000000 1 1;
#X obj 10 120 spigot;
#X obj 110 120 spigot;
#X obj 10 90 receive reset;
#X obj 250 350 sel 4 8;
#X obj 230 242 % 8;
#X msg 250 450 \$1;
#X floatatom 220 500 5 0 0 0 - - -, f 5;
#X obj 250 390 f 4;
#X obj 150 350 sel 5 6 7;
#X obj 70 350 sel 1 2 3;
#X obj 250 425 - 0.5;
#X msg 80 380 1;
#X msg 150 380 2;
#X obj 100 439 pack f f;
#X obj 100 468 route 1 2;
#X obj 90 410 t f b;
#X obj 100 500 + 0.5;
#X obj 140 500 - 0.5;
#X floatatom 120 540 5 0 0 0 - - -, f 5;
#X obj 170 430 f -3;
#X obj 120 80 receive round2;
#X obj 10 540 receive round2;
#X obj 30 270 loadbang;
#X obj 30 295 bng 15 250 50 0 empty empty empty 17 7 0 10 #fcfcfc #000000
#000000;
#X msg 70 320 -10;
#X msg 30 318 -10;
#X msg 10 600 2.5;
#X msg 60 600 3.5;
#X obj 360 350 receive hit24;
#X obj 21 60 receive hit24;
#X obj 360 310 receive reset;
#X msg 190 135 600;
#X connect 1 0 0 0;
#X connect 2 0 1 0;
#X connect 2 1 1 1;
#X connect 3 0 1 0;
#X connect 4 0 2 0;
#X connect 5 0 6 0;
#X connect 6 0 7 0;
#X connect 7 0 8 0;
#X connect 7 0 9 0;
#X connect 8 0 26 0;
#X connect 9 0 7 1;
#X connect 10 0 11 0;
#X connect 11 0 12 0;
#X connect 12 0 7 0;
#X connect 13 0 11 0;
#X connect 14 0 53 0;
#X connect 14 0 21 0;
#X connect 15 0 16 0;
#X connect 16 0 25 0;
#X connect 16 0 30 0;
#X connect 16 0 31 0;
#X connect 17 0 5 1;
#X connect 18 0 48 0;
#X connect 18 0 49 0;
#X connect 19 0 20 0;
#X connect 19 0 22 1;
#X connect 19 0 10 0;
#X connect 19 0 5 0;
#X connect 20 0 21 0;
#X connect 21 0 23 1;
#X connect 22 0 19 0;
#X connect 23 0 19 0;
#X connect 24 0 22 0;
#X connect 25 0 29 0;
#X connect 25 1 29 0;
#X connect 26 0 15 0;
#X connect 27 0 28 0;
#X connect 28 0 2 0;
#X connect 28 0 29 1;
#X connect 29 0 32 0;
#X connect 30 0 34 0;
#X connect 30 1 34 0;
#X connect 30 2 34 0;
#X connect 31 0 33 0;
#X connect 31 1 33 0;
#X connect 31 2 33 0;
#X connect 32 0 27 0;
#X connect 33 0 37 0;
#X connect 34 0 37 0;
#X connect 35 0 36 0;
#X connect 36 0 38 0;
#X connect 36 1 39 0;
#X connect 37 0 35 0;
#X connect 37 1 41 0;
#X connect 38 0 40 0;
#X connect 39 0 40 0;
#X connect 40 0 41 1;
#X connect 40 0 1 0;
#X connect 41 0 35 1;
#X connect 42 0 23 0;
#X connect 43 0 18 0;
#X connect 44 0 45 0;
#X connect 45 0 47 0;
#X connect 45 0 46 0;
#X connect 46 0 28 0;
#X connect 47 0 40 0;
#X connect 48 0 1 0;
#X connect 48 0 40 0;
#X connect 49 0 2 0;
#X connect 49 0 28 0;
#X connect 50 0 3 0;
#X connect 50 0 4 0;
#X connect 51 0 22 0;
#X connect 52 0 3 0;
#X connect 52 0 4 0;
#X connect 53 0 17 0;
#X restore 817 -209 pd Enemy24;
#N canvas 698 127 503 415 hit 0;
#X obj 180 240 outlet;
#X obj 210 130 tgl 15 0 empty empty empty 17 7 0 10 #fcfcfc #000000
#000000 0 1;
#X obj 240 130 bng 15 250 50 0 empty empty empty 17 7 0 10 #fcfcfc
#000000 #000000;
#X obj 270 130 tgl 15 0 empty empty empty 17 7 0 10 #fcfcfc #000000
#000000 1 1;
#X obj 160 100 spigot;
#X obj 260 100 spigot;
#X obj 160 70 receive reset;
#X obj 330 120 loadbang;
#X obj 280 70 receive start;
#X obj 180 210 spigot;
#X msg 150 160 -3;
#X obj 80 130 delay 1000;
#X connect 1 0 2 0;
#X connect 1 0 4 1;
#X connect 1 0 9 1;
#X connect 2 0 3 0;
#X connect 3 0 5 1;
#X connect 4 0 1 0;
#X connect 5 0 1 0;
#X connect 6 0 4 0;
#X connect 7 0 3 0;
#X connect 8 0 5 0;
#X connect 8 0 11 0;
#X connect 9 0 0 0;
#X connect 10 0 9 0;
#X connect 11 0 10 0;
#X restore 27 -349 pd hit;
#N canvas 868 136 502 414 hit 0;
#X obj 180 240 outlet;
#X obj 210 130 tgl 15 0 empty empty empty 17 7 0 10 #fcfcfc #000000
#000000 0 1;
#X obj 240 130 bng 15 250 50 0 empty empty empty 17 7 0 10 #fcfcfc
#000000 #000000;
#X obj 270 130 tgl 15 0 empty empty empty 17 7 0 10 #fcfcfc #000000
#000000 1 1;
#X obj 160 100 spigot;
#X obj 260 100 spigot;
#X obj 160 70 receive reset;
#X obj 330 120 loadbang;
#X obj 280 70 receive start;
#X obj 180 210 spigot;
#X msg 150 160 -3;
#X obj 80 130 delay 1000;
#X connect 1 0 2 0;
#X connect 1 0 4 1;
#X connect 1 0 9 1;
#X connect 2 0 3 0;
#X connect 3 0 5 1;
#X connect 4 0 1 0;
#X connect 5 0 1 0;
#X connect 6 0 4 0;
#X connect 7 0 3 0;
#X connect 8 0 5 0;
#X connect 8 0 11 0;
#X connect 9 0 0 0;
#X connect 10 0 9 0;
#X connect 11 0 10 0;
#X restore 27 -249 pd hit;
#N canvas 868 136 502 414 hit 0;
#X obj 180 240 outlet;
#X obj 210 130 tgl 15 0 empty empty empty 17 7 0 10 #fcfcfc #000000
#000000 0 1;
#X obj 240 130 bng 15 250 50 0 empty empty empty 17 7 0 10 #fcfcfc
#000000 #000000;
#X obj 270 130 tgl 15 0 empty empty empty 17 7 0 10 #fcfcfc #000000
#000000 1 1;
#X obj 160 100 spigot;
#X obj 260 100 spigot;
#X obj 160 70 receive reset;
#X obj 330 120 loadbang;
#X obj 280 70 receive start;
#X obj 180 210 spigot;
#X msg 150 160 -3;
#X obj 80 130 delay 1000;
#X connect 1 0 2 0;
#X connect 1 0 4 1;
#X connect 1 0 9 1;
#X connect 2 0 3 0;
#X connect 3 0 5 1;
#X connect 4 0 1 0;
#X connect 5 0 1 0;
#X connect 6 0 4 0;
#X connect 7 0 3 0;
#X connect 8 0 5 0;
#X connect 8 0 11 0;
#X connect 9 0 0 0;
#X connect 10 0 9 0;
#X connect 11 0 10 0;
#X restore 187 -249 pd hit;
#N canvas 868 136 502 414 hit 0;
#X obj 180 240 outlet;
#X obj 210 130 tgl 15 0 empty empty empty 17 7 0 10 #fcfcfc #000000
#000000 0 1;
#X obj 240 130 bng 15 250 50 0 empty empty empty 17 7 0 10 #fcfcfc
#000000 #000000;
#X obj 270 130 tgl 15 0 empty empty empty 17 7 0 10 #fcfcfc #000000
#000000 1 1;
#X obj 160 100 spigot;
#X obj 260 100 spigot;
#X obj 160 70 receive reset;
#X obj 330 120 loadbang;
#X obj 280 70 receive start;
#X obj 180 210 spigot;
#X msg 150 160 -3;
#X obj 80 130 delay 1000;
#X connect 1 0 2 0;
#X connect 1 0 4 1;
#X connect 1 0 9 1;
#X connect 2 0 3 0;
#X connect 3 0 5 1;
#X connect 4 0 1 0;
#X connect 5 0 1 0;
#X connect 6 0 4 0;
#X connect 7 0 3 0;
#X connect 8 0 5 0;
#X connect 8 0 11 0;
#X connect 9 0 0 0;
#X connect 10 0 9 0;
#X connect 11 0 10 0;
#X restore 187 -359 pd hit;
#N canvas 868 136 502 414 hit 0;
#X obj 180 240 outlet;
#X obj 210 130 tgl 15 0 empty empty empty 17 7 0 10 #fcfcfc #000000
#000000 0 1;
#X obj 240 130 bng 15 250 50 0 empty empty empty 17 7 0 10 #fcfcfc
#000000 #000000;
#X obj 270 130 tgl 15 0 empty empty empty 17 7 0 10 #fcfcfc #000000
#000000 1 1;
#X obj 160 100 spigot;
#X obj 260 100 spigot;
#X obj 160 70 receive reset;
#X obj 330 120 loadbang;
#X obj 280 70 receive start;
#X obj 180 210 spigot;
#X msg 150 160 -3;
#X obj 80 130 delay 1000;
#X connect 1 0 2 0;
#X connect 1 0 4 1;
#X connect 1 0 9 1;
#X connect 2 0 3 0;
#X connect 3 0 5 1;
#X connect 4 0 1 0;
#X connect 5 0 1 0;
#X connect 6 0 4 0;
#X connect 7 0 3 0;
#X connect 8 0 5 0;
#X connect 8 0 11 0;
#X connect 9 0 0 0;
#X connect 10 0 9 0;
#X connect 11 0 10 0;
#X restore 337 -359 pd hit;
#N canvas 868 136 502 414 hit 0;
#X obj 180 240 outlet;
#X obj 210 130 tgl 15 0 empty empty empty 17 7 0 10 #fcfcfc #000000
#000000 0 1;
#X obj 240 130 bng 15 250 50 0 empty empty empty 17 7 0 10 #fcfcfc
#000000 #000000;
#X obj 270 130 tgl 15 0 empty empty empty 17 7 0 10 #fcfcfc #000000
#000000 1 1;
#X obj 160 100 spigot;
#X obj 260 100 spigot;
#X obj 160 70 receive reset;
#X obj 330 120 loadbang;
#X obj 280 70 receive start;
#X obj 180 210 spigot;
#X msg 150 160 -3;
#X obj 80 130 delay 1000;
#X connect 1 0 2 0;
#X connect 1 0 4 1;
#X connect 1 0 9 1;
#X connect 2 0 3 0;
#X connect 3 0 5 1;
#X connect 4 0 1 0;
#X connect 5 0 1 0;
#X connect 6 0 4 0;
#X connect 7 0 3 0;
#X connect 8 0 5 0;
#X connect 8 0 11 0;
#X connect 9 0 0 0;
#X connect 10 0 9 0;
#X connect 11 0 10 0;
#X restore 337 -249 pd hit;
#N canvas 868 136 502 414 hit 0;
#X obj 180 240 outlet;
#X obj 210 130 tgl 15 0 empty empty empty 17 7 0 10 #fcfcfc #000000
#000000 0 1;
#X obj 240 130 bng 15 250 50 0 empty empty empty 17 7 0 10 #fcfcfc
#000000 #000000;
#X obj 270 130 tgl 15 0 empty empty empty 17 7 0 10 #fcfcfc #000000
#000000 1 1;
#X obj 160 100 spigot;
#X obj 260 100 spigot;
#X obj 160 70 receive reset;
#X obj 330 120 loadbang;
#X obj 280 70 receive start;
#X obj 180 210 spigot;
#X msg 150 160 -3;
#X obj 80 130 delay 1000;
#X connect 1 0 2 0;
#X connect 1 0 4 1;
#X connect 1 0 9 1;
#X connect 2 0 3 0;
#X connect 3 0 5 1;
#X connect 4 0 1 0;
#X connect 5 0 1 0;
#X connect 6 0 4 0;
#X connect 7 0 3 0;
#X connect 8 0 5 0;
#X connect 8 0 11 0;
#X connect 9 0 0 0;
#X connect 10 0 9 0;
#X connect 11 0 10 0;
#X restore 497 -249 pd hit;
#N canvas 868 136 502 414 hit 0;
#X obj 180 240 outlet;
#X obj 210 130 tgl 15 0 empty empty empty 17 7 0 10 #fcfcfc #000000
#000000 0 1;
#X obj 240 130 bng 15 250 50 0 empty empty empty 17 7 0 10 #fcfcfc
#000000 #000000;
#X obj 270 130 tgl 15 0 empty empty empty 17 7 0 10 #fcfcfc #000000
#000000 1 1;
#X obj 160 100 spigot;
#X obj 260 100 spigot;
#X obj 160 70 receive reset;
#X obj 330 120 loadbang;
#X obj 280 70 receive start;
#X obj 180 210 spigot;
#X msg 150 160 -3;
#X obj 80 130 delay 1000;
#X connect 1 0 2 0;
#X connect 1 0 4 1;
#X connect 1 0 9 1;
#X connect 2 0 3 0;
#X connect 3 0 5 1;
#X connect 4 0 1 0;
#X connect 5 0 1 0;
#X connect 6 0 4 0;
#X connect 7 0 3 0;
#X connect 8 0 5 0;
#X connect 8 0 11 0;
#X connect 9 0 0 0;
#X connect 10 0 9 0;
#X connect 11 0 10 0;
#X restore 497 -359 pd hit;
#N canvas 868 136 502 414 hit 0;
#X obj 180 240 outlet;
#X obj 210 130 tgl 15 0 empty empty empty 17 7 0 10 #fcfcfc #000000
#000000 0 1;
#X obj 240 130 bng 15 250 50 0 empty empty empty 17 7 0 10 #fcfcfc
#000000 #000000;
#X obj 270 130 tgl 15 0 empty empty empty 17 7 0 10 #fcfcfc #000000
#000000 1 1;
#X obj 160 100 spigot;
#X obj 260 100 spigot;
#X obj 160 70 receive reset;
#X obj 330 120 loadbang;
#X obj 280 70 receive start;
#X obj 180 210 spigot;
#X msg 150 160 -3;
#X obj 80 130 delay 1000;
#X connect 1 0 2 0;
#X connect 1 0 4 1;
#X connect 1 0 9 1;
#X connect 2 0 3 0;
#X connect 3 0 5 1;
#X connect 4 0 1 0;
#X connect 5 0 1 0;
#X connect 6 0 4 0;
#X connect 7 0 3 0;
#X connect 8 0 5 0;
#X connect 8 0 11 0;
#X connect 9 0 0 0;
#X connect 10 0 9 0;
#X connect 11 0 10 0;
#X restore 647 -359 pd hit;
#N canvas 868 136 502 414 hit 0;
#X obj 180 240 outlet;
#X obj 210 130 tgl 15 0 empty empty empty 17 7 0 10 #fcfcfc #000000
#000000 0 1;
#X obj 240 130 bng 15 250 50 0 empty empty empty 17 7 0 10 #fcfcfc
#000000 #000000;
#X obj 270 130 tgl 15 0 empty empty empty 17 7 0 10 #fcfcfc #000000
#000000 1 1;
#X obj 160 100 spigot;
#X obj 260 100 spigot;
#X obj 160 70 receive reset;
#X obj 330 120 loadbang;
#X obj 280 70 receive start;
#X obj 180 210 spigot;
#X msg 150 160 -3;
#X obj 80 130 delay 1000;
#X connect 1 0 2 0;
#X connect 1 0 4 1;
#X connect 1 0 9 1;
#X connect 2 0 3 0;
#X connect 3 0 5 1;
#X connect 4 0 1 0;
#X connect 5 0 1 0;
#X connect 6 0 4 0;
#X connect 7 0 3 0;
#X connect 8 0 5 0;
#X connect 8 0 11 0;
#X connect 9 0 0 0;
#X connect 10 0 9 0;
#X connect 11 0 10 0;
#X restore 647 -249 pd hit;
#N canvas 868 136 502 414 hit 0;
#X obj 180 240 outlet;
#X obj 210 130 tgl 15 0 empty empty empty 17 7 0 10 #fcfcfc #000000
#000000 0 1;
#X obj 240 130 bng 15 250 50 0 empty empty empty 17 7 0 10 #fcfcfc
#000000 #000000;
#X obj 270 130 tgl 15 0 empty empty empty 17 7 0 10 #fcfcfc #000000
#000000 1 1;
#X obj 160 100 spigot;
#X obj 260 100 spigot;
#X obj 160 70 receive reset;
#X obj 330 120 loadbang;
#X obj 280 70 receive start;
#X obj 180 210 spigot;
#X msg 150 160 -3;
#X obj 80 130 delay 1000;
#X connect 1 0 2 0;
#X connect 1 0 4 1;
#X connect 1 0 9 1;
#X connect 2 0 3 0;
#X connect 3 0 5 1;
#X connect 4 0 1 0;
#X connect 5 0 1 0;
#X connect 6 0 4 0;
#X connect 7 0 3 0;
#X connect 8 0 5 0;
#X connect 8 0 11 0;
#X connect 9 0 0 0;
#X connect 10 0 9 0;
#X connect 11 0 10 0;
#X restore 797 -249 pd hit;
#N canvas 868 136 502 414 hit 0;
#X obj 180 240 outlet;
#X obj 210 130 tgl 15 0 empty empty empty 17 7 0 10 #fcfcfc #000000
#000000 0 1;
#X obj 240 130 bng 15 250 50 0 empty empty empty 17 7 0 10 #fcfcfc
#000000 #000000;
#X obj 270 130 tgl 15 0 empty empty empty 17 7 0 10 #fcfcfc #000000
#000000 1 1;
#X obj 160 100 spigot;
#X obj 260 100 spigot;
#X obj 160 70 receive reset;
#X obj 330 120 loadbang;
#X obj 280 70 receive start;
#X obj 180 210 spigot;
#X msg 150 160 -3;
#X obj 80 130 delay 1000;
#X connect 1 0 2 0;
#X connect 1 0 4 1;
#X connect 1 0 9 1;
#X connect 2 0 3 0;
#X connect 3 0 5 1;
#X connect 4 0 1 0;
#X connect 5 0 1 0;
#X connect 6 0 4 0;
#X connect 7 0 3 0;
#X connect 8 0 5 0;
#X connect 8 0 11 0;
#X connect 9 0 0 0;
#X connect 10 0 9 0;
#X connect 11 0 10 0;
#X restore 797 -359 pd hit;
#N canvas 252 208 734 594 attack_collision 0;
#X obj 340 50 inlet radius;
#X obj 240 50 inlet reference;
#X obj 290 100 gemhead;
#X obj 390 80 unpack 0 0;
#X obj 20 310 select 0 1;
#X obj 30 20 inlet test;
#N canvas 876 256 554 529 collide 0;
#X obj 91 217 list-map2;
#X obj 171 218 -;
#X obj 171 265 *;
#X obj 171 241 t a a;
#X obj 84 340 sqrt;
#X obj 84 290 list-reduce;
#X obj 170 290 +;
#X obj 124 360 t b a;
#X obj 150 130 inlet reference;
#X obj 80 130 inlet test;
#X obj 294 247 inlet radius;
#X obj 94 410 outlet;
#X obj 94 380 <= 1;
#X floatatom 40 320 5 0 0 0 - - -, f 5;
#X connect 0 0 5 0;
#X connect 0 1 1 0;
#X connect 1 0 3 0;
#X connect 2 0 0 2;
#X connect 3 0 2 0;
#X connect 3 1 2 1;
#X connect 4 0 12 0;
#X connect 5 0 4 0;
#X connect 5 0 13 0;
#X connect 5 1 6 0;
#X connect 6 0 5 1;
#X connect 7 0 12 0;
#X connect 7 1 12 1;
#X connect 8 0 0 1;
#X connect 9 0 0 0;
#X connect 10 0 7 0;
#X connect 12 0 11 0;
#X restore 30 110 pd collide;
#X obj 50 140 tgl 24 0 empty empty hit? 28 7 1 10 #fcfcfc #000000 #000000
0 1;
#X obj 130 110 loadbang;
#X obj 73 232 tgl 15 0 empty empty empty 17 7 0 10 #fcfcfc #000000
#000000 0 1;
#X obj 103 232 bng 15 250 50 0 empty empty empty 17 7 0 10 #fcfcfc
#000000 #000000;
#X obj 133 232 tgl 15 0 empty empty empty 17 7 0 10 #fcfcfc #000000
#000000 1 1;
#X obj 23 202 spigot;
#X obj 123 202 spigot;
#X obj 23 172 receive reset;
#X obj 193 222 loadbang;
#X obj 143 172 receive start;
#X obj 43 272 spigot;
#X obj 130 140 delay 100;
#X obj 290 210 pix_image;
#X obj 320 130 loadbang;
#X obj 290 280 pix_texture;
#X msg 360 230 env \$1;
#X obj 360 210 hradio 15 1 0 6 empty empty empty 0 -6 0 8 #fcfcfc #000000
#000000 2;
#X obj 290 340 translateXYZ -2 1 0;
#X msg 360 190 2;
#X msg 320 160 open Art/Enemy1.png;
#X obj 30 70 pack 0 0;
#X obj 290 370 square 0.25;
#X obj 290 310 colorRGB 0 0 1;
#X obj 20 340 send reset;
#X connect 0 0 6 2;
#X connect 1 0 3 0;
#X connect 1 0 6 1;
#X connect 2 0 19 0;
#X connect 3 0 24 1;
#X connect 3 0 27 0;
#X connect 3 1 24 2;
#X connect 4 1 30 0;
#X connect 5 0 27 1;
#X connect 6 0 7 0;
#X connect 7 0 17 0;
#X connect 8 0 18 0;
#X connect 9 0 10 0;
#X connect 9 0 12 1;
#X connect 9 0 17 1;
#X connect 10 0 11 0;
#X connect 11 0 13 1;
#X connect 12 0 9 0;
#X connect 13 0 9 0;
#X connect 14 0 12 0;
#X connect 15 0 11 0;
#X connect 16 0 13 0;
#X connect 17 0 4 0;
#X connect 18 0 7 0;
#X connect 19 0 21 0;
#X connect 20 0 26 0;
#X connect 20 0 25 0;
#X connect 21 0 29 0;
#X connect 22 0 21 0;
#X connect 23 0 22 0;
#X connect 23 0 21 0;
#X connect 24 0 28 0;
#X connect 25 0 23 0;
#X connect 26 0 19 0;
#X connect 27 0 6 0;
#X connect 29 0 24 0;
#X restore 187 -289 pd attack_collision;
#N canvas 252 208 734 594 attack_collision 0;
#X obj 340 50 inlet radius;
#X obj 240 50 inlet reference;
#X obj 290 100 gemhead;
#X obj 390 80 unpack 0 0;
#X obj 20 310 select 0 1;
#X obj 30 20 inlet test;
#N canvas 876 256 554 529 collide 0;
#X obj 91 217 list-map2;
#X obj 171 218 -;
#X obj 171 265 *;
#X obj 171 241 t a a;
#X obj 84 340 sqrt;
#X obj 84 290 list-reduce;
#X obj 170 290 +;
#X obj 124 360 t b a;
#X obj 150 130 inlet reference;
#X obj 80 130 inlet test;
#X obj 294 247 inlet radius;
#X obj 94 410 outlet;
#X obj 94 380 <= 1;
#X floatatom 40 320 5 0 0 0 - - -, f 5;
#X connect 0 0 5 0;
#X connect 0 1 1 0;
#X connect 1 0 3 0;
#X connect 2 0 0 2;
#X connect 3 0 2 0;
#X connect 3 1 2 1;
#X connect 4 0 12 0;
#X connect 5 0 4 0;
#X connect 5 0 13 0;
#X connect 5 1 6 0;
#X connect 6 0 5 1;
#X connect 7 0 12 0;
#X connect 7 1 12 1;
#X connect 8 0 0 1;
#X connect 9 0 0 0;
#X connect 10 0 7 0;
#X connect 12 0 11 0;
#X restore 30 110 pd collide;
#X obj 50 140 tgl 24 0 empty empty hit? 28 7 1 10 #fcfcfc #000000 #000000
0 1;
#X obj 130 110 loadbang;
#X obj 73 232 tgl 15 0 empty empty empty 17 7 0 10 #fcfcfc #000000
#000000 0 1;
#X obj 103 232 bng 15 250 50 0 empty empty empty 17 7 0 10 #fcfcfc
#000000 #000000;
#X obj 133 232 tgl 15 0 empty empty empty 17 7 0 10 #fcfcfc #000000
#000000 1 1;
#X obj 23 202 spigot;
#X obj 123 202 spigot;
#X obj 23 172 receive reset;
#X obj 193 222 loadbang;
#X obj 143 172 receive start;
#X obj 43 272 spigot;
#X obj 130 140 delay 100;
#X obj 290 210 pix_image;
#X obj 320 130 loadbang;
#X obj 290 280 pix_texture;
#X msg 360 230 env \$1;
#X obj 360 210 hradio 15 1 0 6 empty empty empty 0 -6 0 8 #fcfcfc #000000
#000000 2;
#X obj 290 340 translateXYZ -2 1 0;
#X msg 360 190 2;
#X msg 320 160 open Art/Enemy1.png;
#X obj 30 70 pack 0 0;
#X obj 290 370 square 0.25;
#X obj 290 310 colorRGB 0 0 1;
#X obj 20 340 send reset;
#X connect 0 0 6 2;
#X connect 1 0 3 0;
#X connect 1 0 6 1;
#X connect 2 0 19 0;
#X connect 3 0 24 1;
#X connect 3 0 27 0;
#X connect 3 1 24 2;
#X connect 4 1 30 0;
#X connect 5 0 27 1;
#X connect 6 0 7 0;
#X connect 7 0 17 0;
#X connect 8 0 18 0;
#X connect 9 0 10 0;
#X connect 9 0 12 1;
#X connect 9 0 17 1;
#X connect 10 0 11 0;
#X connect 11 0 13 1;
#X connect 12 0 9 0;
#X connect 13 0 9 0;
#X connect 14 0 12 0;
#X connect 15 0 11 0;
#X connect 16 0 13 0;
#X connect 17 0 4 0;
#X connect 18 0 7 0;
#X connect 19 0 21 0;
#X connect 20 0 26 0;
#X connect 20 0 25 0;
#X connect 21 0 29 0;
#X connect 22 0 21 0;
#X connect 23 0 22 0;
#X connect 23 0 21 0;
#X connect 24 0 28 0;
#X connect 25 0 23 0;
#X connect 26 0 19 0;
#X connect 27 0 6 0;
#X connect 29 0 24 0;
#X restore 337 -289 pd attack_collision;
#N canvas 252 208 734 594 attack_collision 0;
#X obj 340 50 inlet radius;
#X obj 240 50 inlet reference;
#X obj 290 100 gemhead;
#X obj 390 80 unpack 0 0;
#X obj 20 310 select 0 1;
#X obj 30 20 inlet test;
#N canvas 876 256 554 529 collide 0;
#X obj 91 217 list-map2;
#X obj 171 218 -;
#X obj 171 265 *;
#X obj 171 241 t a a;
#X obj 84 340 sqrt;
#X obj 84 290 list-reduce;
#X obj 170 290 +;
#X obj 124 360 t b a;
#X obj 150 130 inlet reference;
#X obj 80 130 inlet test;
#X obj 294 247 inlet radius;
#X obj 94 410 outlet;
#X obj 94 380 <= 1;
#X floatatom 40 320 5 0 0 0 - - -, f 5;
#X connect 0 0 5 0;
#X connect 0 1 1 0;
#X connect 1 0 3 0;
#X connect 2 0 0 2;
#X connect 3 0 2 0;
#X connect 3 1 2 1;
#X connect 4 0 12 0;
#X connect 5 0 4 0;
#X connect 5 0 13 0;
#X connect 5 1 6 0;
#X connect 6 0 5 1;
#X connect 7 0 12 0;
#X connect 7 1 12 1;
#X connect 8 0 0 1;
#X connect 9 0 0 0;
#X connect 10 0 7 0;
#X connect 12 0 11 0;
#X restore 30 110 pd collide;
#X obj 50 140 tgl 24 0 empty empty hit? 28 7 1 10 #fcfcfc #000000 #000000
0 1;
#X obj 130 110 loadbang;
#X obj 73 232 tgl 15 0 empty empty empty 17 7 0 10 #fcfcfc #000000
#000000 0 1;
#X obj 103 232 bng 15 250 50 0 empty empty empty 17 7 0 10 #fcfcfc
#000000 #000000;
#X obj 133 232 tgl 15 0 empty empty empty 17 7 0 10 #fcfcfc #000000
#000000 1 1;
#X obj 23 202 spigot;
#X obj 123 202 spigot;
#X obj 23 172 receive reset;
#X obj 193 222 loadbang;
#X obj 143 172 receive start;
#X obj 43 272 spigot;
#X obj 130 140 delay 100;
#X obj 290 210 pix_image;
#X obj 320 130 loadbang;
#X obj 290 280 pix_texture;
#X msg 360 230 env \$1;
#X obj 360 210 hradio 15 1 0 6 empty empty empty 0 -6 0 8 #fcfcfc #000000
#000000 2;
#X obj 290 340 translateXYZ -2 1 0;
#X msg 360 190 2;
#X msg 320 160 open Art/Enemy1.png;
#X obj 30 70 pack 0 0;
#X obj 290 370 square 0.25;
#X obj 290 310 colorRGB 0 0 1;
#X obj 20 340 send reset;
#X connect 0 0 6 2;
#X connect 1 0 3 0;
#X connect 1 0 6 1;
#X connect 2 0 19 0;
#X connect 3 0 24 1;
#X connect 3 0 27 0;
#X connect 3 1 24 2;
#X connect 4 1 30 0;
#X connect 5 0 27 1;
#X connect 6 0 7 0;
#X connect 7 0 17 0;
#X connect 8 0 18 0;
#X connect 9 0 10 0;
#X connect 9 0 12 1;
#X connect 9 0 17 1;
#X connect 10 0 11 0;
#X connect 11 0 13 1;
#X connect 12 0 9 0;
#X connect 13 0 9 0;
#X connect 14 0 12 0;
#X connect 15 0 11 0;
#X connect 16 0 13 0;
#X connect 17 0 4 0;
#X connect 18 0 7 0;
#X connect 19 0 21 0;
#X connect 20 0 26 0;
#X connect 20 0 25 0;
#X connect 21 0 29 0;
#X connect 22 0 21 0;
#X connect 23 0 22 0;
#X connect 23 0 21 0;
#X connect 24 0 28 0;
#X connect 25 0 23 0;
#X connect 26 0 19 0;
#X connect 27 0 6 0;
#X connect 29 0 24 0;
#X restore 497 -289 pd attack_collision;
#N canvas 252 208 734 594 attack_collision 0;
#X obj 340 50 inlet radius;
#X obj 240 50 inlet reference;
#X obj 290 100 gemhead;
#X obj 390 80 unpack 0 0;
#X obj 20 310 select 0 1;
#X obj 30 20 inlet test;
#N canvas 876 256 554 529 collide 0;
#X obj 91 217 list-map2;
#X obj 171 218 -;
#X obj 171 265 *;
#X obj 171 241 t a a;
#X obj 84 340 sqrt;
#X obj 84 290 list-reduce;
#X obj 170 290 +;
#X obj 124 360 t b a;
#X obj 150 130 inlet reference;
#X obj 80 130 inlet test;
#X obj 294 247 inlet radius;
#X obj 94 410 outlet;
#X obj 94 380 <= 1;
#X floatatom 40 320 5 0 0 0 - - -, f 5;
#X connect 0 0 5 0;
#X connect 0 1 1 0;
#X connect 1 0 3 0;
#X connect 2 0 0 2;
#X connect 3 0 2 0;
#X connect 3 1 2 1;
#X connect 4 0 12 0;
#X connect 5 0 4 0;
#X connect 5 0 13 0;
#X connect 5 1 6 0;
#X connect 6 0 5 1;
#X connect 7 0 12 0;
#X connect 7 1 12 1;
#X connect 8 0 0 1;
#X connect 9 0 0 0;
#X connect 10 0 7 0;
#X connect 12 0 11 0;
#X restore 30 110 pd collide;
#X obj 50 140 tgl 24 0 empty empty hit? 28 7 1 10 #fcfcfc #000000 #000000
0 1;
#X obj 130 110 loadbang;
#X obj 73 232 tgl 15 0 empty empty empty 17 7 0 10 #fcfcfc #000000
#000000 0 1;
#X obj 103 232 bng 15 250 50 0 empty empty empty 17 7 0 10 #fcfcfc
#000000 #000000;
#X obj 133 232 tgl 15 0 empty empty empty 17 7 0 10 #fcfcfc #000000
#000000 1 1;
#X obj 23 202 spigot;
#X obj 123 202 spigot;
#X obj 23 172 receive reset;
#X obj 193 222 loadbang;
#X obj 143 172 receive start;
#X obj 43 272 spigot;
#X obj 130 140 delay 100;
#X obj 290 210 pix_image;
#X obj 320 130 loadbang;
#X obj 290 280 pix_texture;
#X msg 360 230 env \$1;
#X obj 360 210 hradio 15 1 0 6 empty empty empty 0 -6 0 8 #fcfcfc #000000
#000000 2;
#X obj 290 340 translateXYZ -2 1 0;
#X msg 360 190 2;
#X msg 320 160 open Art/Enemy1.png;
#X obj 30 70 pack 0 0;
#X obj 290 370 square 0.25;
#X obj 290 310 colorRGB 0 0 1;
#X obj 20 340 send reset;
#X connect 0 0 6 2;
#X connect 1 0 3 0;
#X connect 1 0 6 1;
#X connect 2 0 19 0;
#X connect 3 0 24 1;
#X connect 3 0 27 0;
#X connect 3 1 24 2;
#X connect 4 1 30 0;
#X connect 5 0 27 1;
#X connect 6 0 7 0;
#X connect 7 0 17 0;
#X connect 8 0 18 0;
#X connect 9 0 10 0;
#X connect 9 0 12 1;
#X connect 9 0 17 1;
#X connect 10 0 11 0;
#X connect 11 0 13 1;
#X connect 12 0 9 0;
#X connect 13 0 9 0;
#X connect 14 0 12 0;
#X connect 15 0 11 0;
#X connect 16 0 13 0;
#X connect 17 0 4 0;
#X connect 18 0 7 0;
#X connect 19 0 21 0;
#X connect 20 0 26 0;
#X connect 20 0 25 0;
#X connect 21 0 29 0;
#X connect 22 0 21 0;
#X connect 23 0 22 0;
#X connect 23 0 21 0;
#X connect 24 0 28 0;
#X connect 25 0 23 0;
#X connect 26 0 19 0;
#X connect 27 0 6 0;
#X connect 29 0 24 0;
#X restore 647 -289 pd attack_collision;
#N canvas 252 208 734 594 attack_collision 0;
#X obj 340 50 inlet radius;
#X obj 240 50 inlet reference;
#X obj 290 100 gemhead;
#X obj 390 80 unpack 0 0;
#X obj 20 310 select 0 1;
#X obj 30 20 inlet test;
#N canvas 876 256 554 529 collide 0;
#X obj 91 217 list-map2;
#X obj 171 218 -;
#X obj 171 265 *;
#X obj 171 241 t a a;
#X obj 84 340 sqrt;
#X obj 84 290 list-reduce;
#X obj 170 290 +;
#X obj 124 360 t b a;
#X obj 150 130 inlet reference;
#X obj 80 130 inlet test;
#X obj 294 247 inlet radius;
#X obj 94 410 outlet;
#X obj 94 380 <= 1;
#X floatatom 40 320 5 0 0 0 - - -, f 5;
#X connect 0 0 5 0;
#X connect 0 1 1 0;
#X connect 1 0 3 0;
#X connect 2 0 0 2;
#X connect 3 0 2 0;
#X connect 3 1 2 1;
#X connect 4 0 12 0;
#X connect 5 0 4 0;
#X connect 5 0 13 0;
#X connect 5 1 6 0;
#X connect 6 0 5 1;
#X connect 7 0 12 0;
#X connect 7 1 12 1;
#X connect 8 0 0 1;
#X connect 9 0 0 0;
#X connect 10 0 7 0;
#X connect 12 0 11 0;
#X restore 30 110 pd collide;
#X obj 50 140 tgl 24 0 empty empty hit? 28 7 1 10 #fcfcfc #000000 #000000
0 1;
#X obj 130 110 loadbang;
#X obj 73 232 tgl 15 0 empty empty empty 17 7 0 10 #fcfcfc #000000
#000000 0 1;
#X obj 103 232 bng 15 250 50 0 empty empty empty 17 7 0 10 #fcfcfc
#000000 #000000;
#X obj 133 232 tgl 15 0 empty empty empty 17 7 0 10 #fcfcfc #000000
#000000 1 1;
#X obj 23 202 spigot;
#X obj 123 202 spigot;
#X obj 23 172 receive reset;
#X obj 193 222 loadbang;
#X obj 143 172 receive start;
#X obj 43 272 spigot;
#X obj 130 140 delay 100;
#X obj 290 210 pix_image;
#X obj 320 130 loadbang;
#X obj 290 280 pix_texture;
#X msg 360 230 env \$1;
#X obj 360 210 hradio 15 1 0 6 empty empty empty 0 -6 0 8 #fcfcfc #000000
#000000 2;
#X obj 290 340 translateXYZ -2 1 0;
#X msg 360 190 2;
#X msg 320 160 open Art/Enemy1.png;
#X obj 30 70 pack 0 0;
#X obj 290 370 square 0.25;
#X obj 290 310 colorRGB 0 0 1;
#X obj 20 340 send reset;
#X connect 0 0 6 2;
#X connect 1 0 3 0;
#X connect 1 0 6 1;
#X connect 2 0 19 0;
#X connect 3 0 24 1;
#X connect 3 0 27 0;
#X connect 3 1 24 2;
#X connect 4 1 30 0;
#X connect 5 0 27 1;
#X connect 6 0 7 0;
#X connect 7 0 17 0;
#X connect 8 0 18 0;
#X connect 9 0 10 0;
#X connect 9 0 12 1;
#X connect 9 0 17 1;
#X connect 10 0 11 0;
#X connect 11 0 13 1;
#X connect 12 0 9 0;
#X connect 13 0 9 0;
#X connect 14 0 12 0;
#X connect 15 0 11 0;
#X connect 16 0 13 0;
#X connect 17 0 4 0;
#X connect 18 0 7 0;
#X connect 19 0 21 0;
#X connect 20 0 26 0;
#X connect 20 0 25 0;
#X connect 21 0 29 0;
#X connect 22 0 21 0;
#X connect 23 0 22 0;
#X connect 23 0 21 0;
#X connect 24 0 28 0;
#X connect 25 0 23 0;
#X connect 26 0 19 0;
#X connect 27 0 6 0;
#X connect 29 0 24 0;
#X restore 797 -289 pd attack_collision;
#N canvas 252 208 734 594 attack_collision 0;
#X obj 340 50 inlet radius;
#X obj 240 50 inlet reference;
#X obj 290 100 gemhead;
#X obj 390 80 unpack 0 0;
#X obj 20 310 select 0 1;
#X obj 30 20 inlet test;
#N canvas 876 256 554 529 collide 0;
#X obj 91 217 list-map2;
#X obj 171 218 -;
#X obj 171 265 *;
#X obj 171 241 t a a;
#X obj 84 340 sqrt;
#X obj 84 290 list-reduce;
#X obj 170 290 +;
#X obj 124 360 t b a;
#X obj 150 130 inlet reference;
#X obj 80 130 inlet test;
#X obj 294 247 inlet radius;
#X obj 94 410 outlet;
#X obj 94 380 <= 1;
#X floatatom 40 320 5 0 0 0 - - -, f 5;
#X connect 0 0 5 0;
#X connect 0 1 1 0;
#X connect 1 0 3 0;
#X connect 2 0 0 2;
#X connect 3 0 2 0;
#X connect 3 1 2 1;
#X connect 4 0 12 0;
#X connect 5 0 4 0;
#X connect 5 0 13 0;
#X connect 5 1 6 0;
#X connect 6 0 5 1;
#X connect 7 0 12 0;
#X connect 7 1 12 1;
#X connect 8 0 0 1;
#X connect 9 0 0 0;
#X connect 10 0 7 0;
#X connect 12 0 11 0;
#X restore 30 110 pd collide;
#X obj 50 140 tgl 24 0 empty empty hit? 28 7 1 10 #fcfcfc #000000 #000000
0 1;
#X obj 130 110 loadbang;
#X obj 73 232 tgl 15 0 empty empty empty 17 7 0 10 #fcfcfc #000000
#000000 0 1;
#X obj 103 232 bng 15 250 50 0 empty empty empty 17 7 0 10 #fcfcfc
#000000 #000000;
#X obj 133 232 tgl 15 0 empty empty empty 17 7 0 10 #fcfcfc #000000
#000000 1 1;
#X obj 23 202 spigot;
#X obj 123 202 spigot;
#X obj 23 172 receive reset;
#X obj 193 222 loadbang;
#X obj 143 172 receive start;
#X obj 43 272 spigot;
#X obj 130 140 delay 100;
#X obj 290 210 pix_image;
#X obj 320 130 loadbang;
#X obj 290 280 pix_texture;
#X msg 360 230 env \$1;
#X obj 360 210 hradio 15 1 0 6 empty empty empty 0 -6 0 8 #fcfcfc #000000
#000000 2;
#X obj 290 340 translateXYZ -2 1 0;
#X msg 360 190 2;
#X msg 320 160 open Art/Enemy1.png;
#X obj 30 70 pack 0 0;
#X obj 290 370 square 0.25;
#X obj 290 310 colorRGB 0 0 1;
#X obj 20 340 send reset;
#X connect 0 0 6 2;
#X connect 1 0 3 0;
#X connect 1 0 6 1;
#X connect 2 0 19 0;
#X connect 3 0 24 1;
#X connect 3 0 27 0;
#X connect 3 1 24 2;
#X connect 4 1 30 0;
#X connect 5 0 27 1;
#X connect 6 0 7 0;
#X connect 7 0 17 0;
#X connect 8 0 18 0;
#X connect 9 0 10 0;
#X connect 9 0 12 1;
#X connect 9 0 17 1;
#X connect 10 0 11 0;
#X connect 11 0 13 1;
#X connect 12 0 9 0;
#X connect 13 0 9 0;
#X connect 14 0 12 0;
#X connect 15 0 11 0;
#X connect 16 0 13 0;
#X connect 17 0 4 0;
#X connect 18 0 7 0;
#X connect 19 0 21 0;
#X connect 20 0 26 0;
#X connect 20 0 25 0;
#X connect 21 0 29 0;
#X connect 22 0 21 0;
#X connect 23 0 22 0;
#X connect 23 0 21 0;
#X connect 24 0 28 0;
#X connect 25 0 23 0;
#X connect 26 0 19 0;
#X connect 27 0 6 0;
#X connect 29 0 24 0;
#X restore 797 -179 pd attack_collision;
#N canvas 252 208 734 594 attack_collision 0;
#X obj 340 50 inlet radius;
#X obj 240 50 inlet reference;
#X obj 290 100 gemhead;
#X obj 390 80 unpack 0 0;
#X obj 20 310 select 0 1;
#X obj 30 20 inlet test;
#N canvas 876 256 554 529 collide 0;
#X obj 91 217 list-map2;
#X obj 171 218 -;
#X obj 171 265 *;
#X obj 171 241 t a a;
#X obj 84 340 sqrt;
#X obj 84 290 list-reduce;
#X obj 170 290 +;
#X obj 124 360 t b a;
#X obj 150 130 inlet reference;
#X obj 80 130 inlet test;
#X obj 294 247 inlet radius;
#X obj 94 410 outlet;
#X obj 94 380 <= 1;
#X floatatom 40 320 5 0 0 0 - - -, f 5;
#X connect 0 0 5 0;
#X connect 0 1 1 0;
#X connect 1 0 3 0;
#X connect 2 0 0 2;
#X connect 3 0 2 0;
#X connect 3 1 2 1;
#X connect 4 0 12 0;
#X connect 5 0 4 0;
#X connect 5 0 13 0;
#X connect 5 1 6 0;
#X connect 6 0 5 1;
#X connect 7 0 12 0;
#X connect 7 1 12 1;
#X connect 8 0 0 1;
#X connect 9 0 0 0;
#X connect 10 0 7 0;
#X connect 12 0 11 0;
#X restore 30 110 pd collide;
#X obj 50 140 tgl 24 0 empty empty hit? 28 7 1 10 #fcfcfc #000000 #000000
0 1;
#X obj 130 110 loadbang;
#X obj 73 232 tgl 15 0 empty empty empty 17 7 0 10 #fcfcfc #000000
#000000 0 1;
#X obj 103 232 bng 15 250 50 0 empty empty empty 17 7 0 10 #fcfcfc
#000000 #000000;
#X obj 133 232 tgl 15 0 empty empty empty 17 7 0 10 #fcfcfc #000000
#000000 1 1;
#X obj 23 202 spigot;
#X obj 123 202 spigot;
#X obj 23 172 receive reset;
#X obj 193 222 loadbang;
#X obj 143 172 receive start;
#X obj 43 272 spigot;
#X obj 130 140 delay 100;
#X obj 290 210 pix_image;
#X obj 320 130 loadbang;
#X obj 290 280 pix_texture;
#X msg 360 230 env \$1;
#X obj 360 210 hradio 15 1 0 6 empty empty empty 0 -6 0 8 #fcfcfc #000000
#000000 2;
#X obj 290 340 translateXYZ -2 1 0;
#X msg 360 190 2;
#X msg 320 160 open Art/Enemy1.png;
#X obj 30 70 pack 0 0;
#X obj 290 370 square 0.25;
#X obj 290 310 colorRGB 0 0 1;
#X obj 20 340 send reset;
#X connect 0 0 6 2;
#X connect 1 0 3 0;
#X connect 1 0 6 1;
#X connect 2 0 19 0;
#X connect 3 0 24 1;
#X connect 3 0 27 0;
#X connect 3 1 24 2;
#X connect 4 1 30 0;
#X connect 5 0 27 1;
#X connect 6 0 7 0;
#X connect 7 0 17 0;
#X connect 8 0 18 0;
#X connect 9 0 10 0;
#X connect 9 0 12 1;
#X connect 9 0 17 1;
#X connect 10 0 11 0;
#X connect 11 0 13 1;
#X connect 12 0 9 0;
#X connect 13 0 9 0;
#X connect 14 0 12 0;
#X connect 15 0 11 0;
#X connect 16 0 13 0;
#X connect 17 0 4 0;
#X connect 18 0 7 0;
#X connect 19 0 21 0;
#X connect 20 0 26 0;
#X connect 20 0 25 0;
#X connect 21 0 29 0;
#X connect 22 0 21 0;
#X connect 23 0 22 0;
#X connect 23 0 21 0;
#X connect 24 0 28 0;
#X connect 25 0 23 0;
#X connect 26 0 19 0;
#X connect 27 0 6 0;
#X connect 29 0 24 0;
#X restore 647 -179 pd attack_collision;
#N canvas 252 208 734 594 attack_collision 0;
#X obj 340 50 inlet radius;
#X obj 240 50 inlet reference;
#X obj 290 100 gemhead;
#X obj 390 80 unpack 0 0;
#X obj 20 310 select 0 1;
#X obj 30 20 inlet test;
#N canvas 876 256 554 529 collide 0;
#X obj 91 217 list-map2;
#X obj 171 218 -;
#X obj 171 265 *;
#X obj 171 241 t a a;
#X obj 84 340 sqrt;
#X obj 84 290 list-reduce;
#X obj 170 290 +;
#X obj 124 360 t b a;
#X obj 150 130 inlet reference;
#X obj 80 130 inlet test;
#X obj 294 247 inlet radius;
#X obj 94 410 outlet;
#X obj 94 380 <= 1;
#X floatatom 40 320 5 0 0 0 - - -, f 5;
#X connect 0 0 5 0;
#X connect 0 1 1 0;
#X connect 1 0 3 0;
#X connect 2 0 0 2;
#X connect 3 0 2 0;
#X connect 3 1 2 1;
#X connect 4 0 12 0;
#X connect 5 0 4 0;
#X connect 5 0 13 0;
#X connect 5 1 6 0;
#X connect 6 0 5 1;
#X connect 7 0 12 0;
#X connect 7 1 12 1;
#X connect 8 0 0 1;
#X connect 9 0 0 0;
#X connect 10 0 7 0;
#X connect 12 0 11 0;
#X restore 30 110 pd collide;
#X obj 50 140 tgl 24 0 empty empty hit? 28 7 1 10 #fcfcfc #000000 #000000
0 1;
#X obj 130 110 loadbang;
#X obj 73 232 tgl 15 0 empty empty empty 17 7 0 10 #fcfcfc #000000
#000000 0 1;
#X obj 103 232 bng 15 250 50 0 empty empty empty 17 7 0 10 #fcfcfc
#000000 #000000;
#X obj 133 232 tgl 15 0 empty empty empty 17 7 0 10 #fcfcfc #000000
#000000 1 1;
#X obj 23 202 spigot;
#X obj 123 202 spigot;
#X obj 23 172 receive reset;
#X obj 193 222 loadbang;
#X obj 143 172 receive start;
#X obj 43 272 spigot;
#X obj 130 140 delay 100;
#X obj 290 210 pix_image;
#X obj 320 130 loadbang;
#X obj 290 280 pix_texture;
#X msg 360 230 env \$1;
#X obj 360 210 hradio 15 1 0 6 empty empty empty 0 -6 0 8 #fcfcfc #000000
#000000 2;
#X obj 290 340 translateXYZ -2 1 0;
#X msg 360 190 2;
#X msg 320 160 open Art/Enemy1.png;
#X obj 30 70 pack 0 0;
#X obj 290 370 square 0.25;
#X obj 290 310 colorRGB 0 0 1;
#X obj 20 340 send reset;
#X connect 0 0 6 2;
#X connect 1 0 3 0;
#X connect 1 0 6 1;
#X connect 2 0 19 0;
#X connect 3 0 24 1;
#X connect 3 0 27 0;
#X connect 3 1 24 2;
#X connect 4 1 30 0;
#X connect 5 0 27 1;
#X connect 6 0 7 0;
#X connect 7 0 17 0;
#X connect 8 0 18 0;
#X connect 9 0 10 0;
#X connect 9 0 12 1;
#X connect 9 0 17 1;
#X connect 10 0 11 0;
#X connect 11 0 13 1;
#X connect 12 0 9 0;
#X connect 13 0 9 0;
#X connect 14 0 12 0;
#X connect 15 0 11 0;
#X connect 16 0 13 0;
#X connect 17 0 4 0;
#X connect 18 0 7 0;
#X connect 19 0 21 0;
#X connect 20 0 26 0;
#X connect 20 0 25 0;
#X connect 21 0 29 0;
#X connect 22 0 21 0;
#X connect 23 0 22 0;
#X connect 23 0 21 0;
#X connect 24 0 28 0;
#X connect 25 0 23 0;
#X connect 26 0 19 0;
#X connect 27 0 6 0;
#X connect 29 0 24 0;
#X restore 497 -179 pd attack_collision;
#N canvas 252 208 734 594 attack_collision 0;
#X obj 340 50 inlet radius;
#X obj 240 50 inlet reference;
#X obj 290 100 gemhead;
#X obj 390 80 unpack 0 0;
#X obj 20 310 select 0 1;
#X obj 30 20 inlet test;
#N canvas 876 256 554 529 collide 0;
#X obj 91 217 list-map2;
#X obj 171 218 -;
#X obj 171 265 *;
#X obj 171 241 t a a;
#X obj 84 340 sqrt;
#X obj 84 290 list-reduce;
#X obj 170 290 +;
#X obj 124 360 t b a;
#X obj 150 130 inlet reference;
#X obj 80 130 inlet test;
#X obj 294 247 inlet radius;
#X obj 94 410 outlet;
#X obj 94 380 <= 1;
#X floatatom 40 320 5 0 0 0 - - -, f 5;
#X connect 0 0 5 0;
#X connect 0 1 1 0;
#X connect 1 0 3 0;
#X connect 2 0 0 2;
#X connect 3 0 2 0;
#X connect 3 1 2 1;
#X connect 4 0 12 0;
#X connect 5 0 4 0;
#X connect 5 0 13 0;
#X connect 5 1 6 0;
#X connect 6 0 5 1;
#X connect 7 0 12 0;
#X connect 7 1 12 1;
#X connect 8 0 0 1;
#X connect 9 0 0 0;
#X connect 10 0 7 0;
#X connect 12 0 11 0;
#X restore 30 110 pd collide;
#X obj 50 140 tgl 24 0 empty empty hit? 28 7 1 10 #fcfcfc #000000 #000000
0 1;
#X obj 130 110 loadbang;
#X obj 73 232 tgl 15 0 empty empty empty 17 7 0 10 #fcfcfc #000000
#000000 0 1;
#X obj 103 232 bng 15 250 50 0 empty empty empty 17 7 0 10 #fcfcfc
#000000 #000000;
#X obj 133 232 tgl 15 0 empty empty empty 17 7 0 10 #fcfcfc #000000
#000000 1 1;
#X obj 23 202 spigot;
#X obj 123 202 spigot;
#X obj 23 172 receive reset;
#X obj 193 222 loadbang;
#X obj 143 172 receive start;
#X obj 43 272 spigot;
#X obj 130 140 delay 100;
#X obj 290 210 pix_image;
#X obj 320 130 loadbang;
#X obj 290 280 pix_texture;
#X msg 360 230 env \$1;
#X obj 360 210 hradio 15 1 0 6 empty empty empty 0 -6 0 8 #fcfcfc #000000
#000000 2;
#X obj 290 340 translateXYZ -2 1 0;
#X msg 360 190 2;
#X msg 320 160 open Art/Enemy1.png;
#X obj 30 70 pack 0 0;
#X obj 290 370 square 0.25;
#X obj 290 310 colorRGB 0 0 1;
#X obj 20 340 send reset;
#X connect 0 0 6 2;
#X connect 1 0 3 0;
#X connect 1 0 6 1;
#X connect 2 0 19 0;
#X connect 3 0 24 1;
#X connect 3 0 27 0;
#X connect 3 1 24 2;
#X connect 4 1 30 0;
#X connect 5 0 27 1;
#X connect 6 0 7 0;
#X connect 7 0 17 0;
#X connect 8 0 18 0;
#X connect 9 0 10 0;
#X connect 9 0 12 1;
#X connect 9 0 17 1;
#X connect 10 0 11 0;
#X connect 11 0 13 1;
#X connect 12 0 9 0;
#X connect 13 0 9 0;
#X connect 14 0 12 0;
#X connect 15 0 11 0;
#X connect 16 0 13 0;
#X connect 17 0 4 0;
#X connect 18 0 7 0;
#X connect 19 0 21 0;
#X connect 20 0 26 0;
#X connect 20 0 25 0;
#X connect 21 0 29 0;
#X connect 22 0 21 0;
#X connect 23 0 22 0;
#X connect 23 0 21 0;
#X connect 24 0 28 0;
#X connect 25 0 23 0;
#X connect 26 0 19 0;
#X connect 27 0 6 0;
#X connect 29 0 24 0;
#X restore 337 -179 pd attack_collision;
#N canvas 252 208 734 594 attack_collision 0;
#X obj 340 50 inlet radius;
#X obj 240 50 inlet reference;
#X obj 290 100 gemhead;
#X obj 390 80 unpack 0 0;
#X obj 20 310 select 0 1;
#X obj 30 20 inlet test;
#N canvas 876 256 554 529 collide 0;
#X obj 91 217 list-map2;
#X obj 171 218 -;
#X obj 171 265 *;
#X obj 171 241 t a a;
#X obj 84 340 sqrt;
#X obj 84 290 list-reduce;
#X obj 170 290 +;
#X obj 124 360 t b a;
#X obj 150 130 inlet reference;
#X obj 80 130 inlet test;
#X obj 294 247 inlet radius;
#X obj 94 410 outlet;
#X obj 94 380 <= 1;
#X floatatom 40 320 5 0 0 0 - - -, f 5;
#X connect 0 0 5 0;
#X connect 0 1 1 0;
#X connect 1 0 3 0;
#X connect 2 0 0 2;
#X connect 3 0 2 0;
#X connect 3 1 2 1;
#X connect 4 0 12 0;
#X connect 5 0 4 0;
#X connect 5 0 13 0;
#X connect 5 1 6 0;
#X connect 6 0 5 1;
#X connect 7 0 12 0;
#X connect 7 1 12 1;
#X connect 8 0 0 1;
#X connect 9 0 0 0;
#X connect 10 0 7 0;
#X connect 12 0 11 0;
#X restore 30 110 pd collide;
#X obj 50 140 tgl 24 0 empty empty hit? 28 7 1 10 #fcfcfc #000000 #000000
0 1;
#X obj 130 110 loadbang;
#X obj 73 232 tgl 15 0 empty empty empty 17 7 0 10 #fcfcfc #000000
#000000 0 1;
#X obj 103 232 bng 15 250 50 0 empty empty empty 17 7 0 10 #fcfcfc
#000000 #000000;
#X obj 133 232 tgl 15 0 empty empty empty 17 7 0 10 #fcfcfc #000000
#000000 1 1;
#X obj 23 202 spigot;
#X obj 123 202 spigot;
#X obj 23 172 receive reset;
#X obj 193 222 loadbang;
#X obj 143 172 receive start;
#X obj 43 272 spigot;
#X obj 130 140 delay 100;
#X obj 290 210 pix_image;
#X obj 320 130 loadbang;
#X obj 290 280 pix_texture;
#X msg 360 230 env \$1;
#X obj 360 210 hradio 15 1 0 6 empty empty empty 0 -6 0 8 #fcfcfc #000000
#000000 2;
#X obj 290 340 translateXYZ -2 1 0;
#X msg 360 190 2;
#X msg 320 160 open Art/Enemy1.png;
#X obj 30 70 pack 0 0;
#X obj 290 370 square 0.25;
#X obj 290 310 colorRGB 0 0 1;
#X obj 20 340 send reset;
#X connect 0 0 6 2;
#X connect 1 0 3 0;
#X connect 1 0 6 1;
#X connect 2 0 19 0;
#X connect 3 0 24 1;
#X connect 3 0 27 0;
#X connect 3 1 24 2;
#X connect 4 1 30 0;
#X connect 5 0 27 1;
#X connect 6 0 7 0;
#X connect 7 0 17 0;
#X connect 8 0 18 0;
#X connect 9 0 10 0;
#X connect 9 0 12 1;
#X connect 9 0 17 1;
#X connect 10 0 11 0;
#X connect 11 0 13 1;
#X connect 12 0 9 0;
#X connect 13 0 9 0;
#X connect 14 0 12 0;
#X connect 15 0 11 0;
#X connect 16 0 13 0;
#X connect 17 0 4 0;
#X connect 18 0 7 0;
#X connect 19 0 21 0;
#X connect 20 0 26 0;
#X connect 20 0 25 0;
#X connect 21 0 29 0;
#X connect 22 0 21 0;
#X connect 23 0 22 0;
#X connect 23 0 21 0;
#X connect 24 0 28 0;
#X connect 25 0 23 0;
#X connect 26 0 19 0;
#X connect 27 0 6 0;
#X connect 29 0 24 0;
#X restore 187 -179 pd attack_collision;
#N canvas 252 208 734 594 attack_collision 0;
#X obj 340 50 inlet radius;
#X obj 240 50 inlet reference;
#X obj 290 100 gemhead;
#X obj 390 80 unpack 0 0;
#X obj 20 310 select 0 1;
#X obj 30 20 inlet test;
#N canvas 876 256 554 529 collide 0;
#X obj 91 217 list-map2;
#X obj 171 218 -;
#X obj 171 265 *;
#X obj 171 241 t a a;
#X obj 84 340 sqrt;
#X obj 84 290 list-reduce;
#X obj 170 290 +;
#X obj 124 360 t b a;
#X obj 150 130 inlet reference;
#X obj 80 130 inlet test;
#X obj 294 247 inlet radius;
#X obj 94 410 outlet;
#X obj 94 380 <= 1;
#X floatatom 40 320 5 0 0 0 - - -, f 5;
#X connect 0 0 5 0;
#X connect 0 1 1 0;
#X connect 1 0 3 0;
#X connect 2 0 0 2;
#X connect 3 0 2 0;
#X connect 3 1 2 1;
#X connect 4 0 12 0;
#X connect 5 0 4 0;
#X connect 5 0 13 0;
#X connect 5 1 6 0;
#X connect 6 0 5 1;
#X connect 7 0 12 0;
#X connect 7 1 12 1;
#X connect 8 0 0 1;
#X connect 9 0 0 0;
#X connect 10 0 7 0;
#X connect 12 0 11 0;
#X restore 30 110 pd collide;
#X obj 50 140 tgl 24 0 empty empty hit? 28 7 1 10 #fcfcfc #000000 #000000
0 1;
#X obj 130 110 loadbang;
#X obj 73 232 tgl 15 0 empty empty empty 17 7 0 10 #fcfcfc #000000
#000000 0 1;
#X obj 103 232 bng 15 250 50 0 empty empty empty 17 7 0 10 #fcfcfc
#000000 #000000;
#X obj 133 232 tgl 15 0 empty empty empty 17 7 0 10 #fcfcfc #000000
#000000 1 1;
#X obj 23 202 spigot;
#X obj 123 202 spigot;
#X obj 23 172 receive reset;
#X obj 193 222 loadbang;
#X obj 143 172 receive start;
#X obj 43 272 spigot;
#X obj 130 140 delay 100;
#X obj 290 210 pix_image;
#X obj 320 130 loadbang;
#X obj 290 280 pix_texture;
#X msg 360 230 env \$1;
#X obj 360 210 hradio 15 1 0 6 empty empty empty 0 -6 0 8 #fcfcfc #000000
#000000 2;
#X obj 290 340 translateXYZ -2 1 0;
#X msg 360 190 2;
#X msg 320 160 open Art/Enemy1.png;
#X obj 30 70 pack 0 0;
#X obj 290 370 square 0.25;
#X obj 290 310 colorRGB 0 0 1;
#X obj 20 340 send reset;
#X connect 0 0 6 2;
#X connect 1 0 3 0;
#X connect 1 0 6 1;
#X connect 2 0 19 0;
#X connect 3 0 24 1;
#X connect 3 0 27 0;
#X connect 3 1 24 2;
#X connect 4 1 30 0;
#X connect 5 0 27 1;
#X connect 6 0 7 0;
#X connect 7 0 17 0;
#X connect 8 0 18 0;
#X connect 9 0 10 0;
#X connect 9 0 12 1;
#X connect 9 0 17 1;
#X connect 10 0 11 0;
#X connect 11 0 13 1;
#X connect 12 0 9 0;
#X connect 13 0 9 0;
#X connect 14 0 12 0;
#X connect 15 0 11 0;
#X connect 16 0 13 0;
#X connect 17 0 4 0;
#X connect 18 0 7 0;
#X connect 19 0 21 0;
#X connect 20 0 26 0;
#X connect 20 0 25 0;
#X connect 21 0 29 0;
#X connect 22 0 21 0;
#X connect 23 0 22 0;
#X connect 23 0 21 0;
#X connect 24 0 28 0;
#X connect 25 0 23 0;
#X connect 26 0 19 0;
#X connect 27 0 6 0;
#X connect 29 0 24 0;
#X restore 27 -179 pd attack_collision;
#X msg 117 -339 0.75;
#X msg 117 -229 0.75;
#X msg 277 -229 0.75;
#X msg 277 -339 0.75;
#X msg 427 -339 0.75;
#X msg 427 -229 0.75;
#X msg 587 -229 0.75;
#X msg 587 -339 0.75;
#X msg 737 -339 0.75;
#X msg 737 -229 0.75;
#X msg 887 -229 0.75;
#X msg 887 -339 0.75;
#X floatatom 117 -119 5 0 0 1 - - -, f 5;
#X obj 117 -159 loadbang;
#N canvas 868 136 502 414 hit 0;
#X obj 180 240 outlet;
#X obj 210 130 tgl 15 0 empty empty empty 17 7 0 10 #fcfcfc #000000
#000000 0 1;
#X obj 240 130 bng 15 250 50 0 empty empty empty 17 7 0 10 #fcfcfc
#000000 #000000;
#X obj 270 130 tgl 15 0 empty empty empty 17 7 0 10 #fcfcfc #000000
#000000 1 1;
#X obj 160 100 spigot;
#X obj 260 100 spigot;
#X obj 160 70 receive reset;
#X obj 330 120 loadbang;
#X obj 280 70 receive start;
#X obj 180 210 spigot;
#X msg 150 160 -3;
#X obj 80 130 delay 1000;
#X connect 1 0 2 0;
#X connect 1 0 4 1;
#X connect 1 0 9 1;
#X connect 2 0 3 0;
#X connect 3 0 5 1;
#X connect 4 0 1 0;
#X connect 5 0 1 0;
#X connect 6 0 4 0;
#X connect 7 0 3 0;
#X connect 8 0 5 0;
#X connect 8 0 11 0;
#X connect 9 0 0 0;
#X connect 10 0 9 0;
#X connect 11 0 10 0;
#X restore 27 -159 pd hit;
#N canvas 252 208 734 594 attack_collision 0;
#X obj 340 50 inlet radius;
#X obj 240 50 inlet reference;
#X obj 290 100 gemhead;
#X obj 390 80 unpack 0 0;
#X obj 20 310 select 0 1;
#X obj 30 20 inlet test;
#N canvas 876 256 554 529 collide 0;
#X obj 91 217 list-map2;
#X obj 171 218 -;
#X obj 171 265 *;
#X obj 171 241 t a a;
#X obj 84 340 sqrt;
#X obj 84 290 list-reduce;
#X obj 170 290 +;
#X obj 124 360 t b a;
#X obj 150 130 inlet reference;
#X obj 80 130 inlet test;
#X obj 294 247 inlet radius;
#X obj 94 410 outlet;
#X obj 94 380 <= 1;
#X floatatom 40 320 5 0 0 0 - - -, f 5;
#X connect 0 0 5 0;
#X connect 0 1 1 0;
#X connect 1 0 3 0;
#X connect 2 0 0 2;
#X connect 3 0 2 0;
#X connect 3 1 2 1;
#X connect 4 0 12 0;
#X connect 5 0 4 0;
#X connect 5 0 13 0;
#X connect 5 1 6 0;
#X connect 6 0 5 1;
#X connect 7 0 12 0;
#X connect 7 1 12 1;
#X connect 8 0 0 1;
#X connect 9 0 0 0;
#X connect 10 0 7 0;
#X connect 12 0 11 0;
#X restore 30 110 pd collide;
#X obj 50 140 tgl 24 0 empty empty hit? 28 7 1 10 #fcfcfc #000000 #000000
0 1;
#X obj 130 110 loadbang;
#X obj 73 232 tgl 15 0 empty empty empty 17 7 0 10 #fcfcfc #000000
#000000 0 1;
#X obj 103 232 bng 15 250 50 0 empty empty empty 17 7 0 10 #fcfcfc
#000000 #000000;
#X obj 133 232 tgl 15 0 empty empty empty 17 7 0 10 #fcfcfc #000000
#000000 1 1;
#X obj 23 202 spigot;
#X obj 123 202 spigot;
#X obj 23 172 receive reset;
#X obj 193 222 loadbang;
#X obj 143 172 receive start;
#X obj 43 272 spigot;
#X obj 130 140 delay 100;
#X obj 290 210 pix_image;
#X obj 320 130 loadbang;
#X obj 290 280 pix_texture;
#X msg 360 230 env \$1;
#X obj 360 210 hradio 15 1 0 6 empty empty empty 0 -6 0 8 #fcfcfc #000000
#000000 2;
#X obj 290 340 translateXYZ -2 1 0;
#X msg 360 190 2;
#X msg 320 160 open Art/Enemy1.png;
#X obj 30 70 pack 0 0;
#X obj 290 370 square 0.25;
#X obj 290 310 colorRGB 0 0 1;
#X obj 20 340 send reset;
#X connect 0 0 6 2;
#X connect 1 0 3 0;
#X connect 1 0 6 1;
#X connect 2 0 19 0;
#X connect 3 0 24 1;
#X connect 3 0 27 0;
#X connect 3 1 24 2;
#X connect 4 1 30 0;
#X connect 5 0 27 1;
#X connect 6 0 7 0;
#X connect 7 0 17 0;
#X connect 8 0 18 0;
#X connect 9 0 10 0;
#X connect 9 0 12 1;
#X connect 9 0 17 1;
#X connect 10 0 11 0;
#X connect 11 0 13 1;
#X connect 12 0 9 0;
#X connect 13 0 9 0;
#X connect 14 0 12 0;
#X connect 15 0 11 0;
#X connect 16 0 13 0;
#X connect 17 0 4 0;
#X connect 18 0 7 0;
#X connect 19 0 21 0;
#X connect 20 0 26 0;
#X connect 20 0 25 0;
#X connect 21 0 29 0;
#X connect 22 0 21 0;
#X connect 23 0 22 0;
#X connect 23 0 21 0;
#X connect 24 0 28 0;
#X connect 25 0 23 0;
#X connect 26 0 19 0;
#X connect 27 0 6 0;
#X connect 29 0 24 0;
#X restore 27 -89 pd attack_collision;
#X msg 117 -139 0.75;
#N canvas 720 44 602 702 Enemy25 0;
#X obj 200 600 outlet;
#X obj 200 580 pack 0 0;
#X obj 220 550 t b f;
#X msg 360 400 -10;
#X msg 390 400 -10;
#X obj 160 210 metro;
#X obj 160 235 bng 15 250 50 0 empty empty empty 17 7 0 10 #fcfcfc
#000000 #000000;
#X obj 230 190 int 1;
#X floatatom 230 222 5 0 0 0 - - -, f 5;
#X obj 300 232 + 1;
#X obj 100 200 sel 0;
#X obj 100 225 bng 15 250 50 0 empty empty empty 17 7 0 10 #fcfcfc
#000000 #000000;
#X msg 100 248 -1;
#X obj 40 200 loadbang;
#X obj 190 110 loadbang;
#X obj 230 271 + 1;
#X floatatom 230 300 5 0 0 0 - - -, f 5;
#X floatatom 190 160 5 0 0 0 - - -, f 5;
#X obj 10 570 bng 15 250 50 0 empty empty empty 17 7 0 10 #fcfcfc #000000
#000000;
#X obj 60 150 tgl 15 0 empty empty empty 17 7 0 10 #fcfcfc #000000
#000000 0 1;
#X obj 90 150 bng 15 250 50 0 empty empty empty 17 7 0 10 #fcfcfc #000000
#000000;
#X obj 120 150 tgl 15 0 empty empty empty 17 7 0 10 #fcfcfc #000000
#000000 1 1;
#X obj 10 120 spigot;
#X obj 110 120 spigot;
#X obj 10 90 receive reset;
#X obj 250 350 sel 4 8;
#X obj 230 242 % 8;
#X msg 250 450 \$1;
#X floatatom 220 500 5 0 0 0 - - -, f 5;
#X obj 250 390 f 4;
#X obj 150 350 sel 5 6 7;
#X obj 70 350 sel 1 2 3;
#X obj 250 425 - 0.5;
#X msg 80 380 1;
#X msg 150 380 2;
#X obj 100 439 pack f f;
#X obj 100 468 route 1 2;
#X obj 90 410 t f b;
#X obj 100 500 + 0.5;
#X obj 140 500 - 0.5;
#X floatatom 120 540 5 0 0 0 - - -, f 5;
#X obj 170 430 f -3;
#X obj 120 80 receive round2;
#X obj 10 540 receive round2;
#X obj 30 270 loadbang;
#X obj 30 295 bng 15 250 50 0 empty empty empty 17 7 0 10 #fcfcfc #000000
#000000;
#X msg 70 320 -10;
#X msg 30 318 -10;
#X msg 10 600 2.5;
#X msg 60 600 3.5;
#X obj 360 350 receive hit24;
#X obj 21 60 receive hit24;
#X obj 360 310 receive reset;
#X msg 190 135 600;
#X connect 1 0 0 0;
#X connect 2 0 1 0;
#X connect 2 1 1 1;
#X connect 3 0 1 0;
#X connect 4 0 2 0;
#X connect 5 0 6 0;
#X connect 6 0 7 0;
#X connect 7 0 8 0;
#X connect 7 0 9 0;
#X connect 8 0 26 0;
#X connect 9 0 7 1;
#X connect 10 0 11 0;
#X connect 11 0 12 0;
#X connect 12 0 7 0;
#X connect 13 0 11 0;
#X connect 14 0 53 0;
#X connect 14 0 21 0;
#X connect 15 0 16 0;
#X connect 16 0 25 0;
#X connect 16 0 30 0;
#X connect 16 0 31 0;
#X connect 17 0 5 1;
#X connect 18 0 48 0;
#X connect 18 0 49 0;
#X connect 19 0 20 0;
#X connect 19 0 22 1;
#X connect 19 0 10 0;
#X connect 19 0 5 0;
#X connect 20 0 21 0;
#X connect 21 0 23 1;
#X connect 22 0 19 0;
#X connect 23 0 19 0;
#X connect 24 0 22 0;
#X connect 25 0 29 0;
#X connect 25 1 29 0;
#X connect 26 0 15 0;
#X connect 27 0 28 0;
#X connect 28 0 2 0;
#X connect 28 0 29 1;
#X connect 29 0 32 0;
#X connect 30 0 34 0;
#X connect 30 1 34 0;
#X connect 30 2 34 0;
#X connect 31 0 33 0;
#X connect 31 1 33 0;
#X connect 31 2 33 0;
#X connect 32 0 27 0;
#X connect 33 0 37 0;
#X connect 34 0 37 0;
#X connect 35 0 36 0;
#X connect 36 0 38 0;
#X connect 36 1 39 0;
#X connect 37 0 35 0;
#X connect 37 1 41 0;
#X connect 38 0 40 0;
#X connect 39 0 40 0;
#X connect 40 0 41 1;
#X connect 40 0 1 0;
#X connect 41 0 35 1;
#X connect 42 0 23 0;
#X connect 43 0 18 0;
#X connect 44 0 45 0;
#X connect 45 0 47 0;
#X connect 45 0 46 0;
#X connect 46 0 28 0;
#X connect 47 0 40 0;
#X connect 48 0 1 0;
#X connect 48 0 40 0;
#X connect 49 0 2 0;
#X connect 49 0 28 0;
#X connect 50 0 3 0;
#X connect 50 0 4 0;
#X connect 51 0 22 0;
#X connect 52 0 3 0;
#X connect 52 0 4 0;
#X connect 53 0 17 0;
#X restore 47 -119 pd Enemy25;
#X connect 0 0 2 2;
#X connect 1 0 60 0;
#X connect 3 0 49 2;
#X connect 4 0 63 0;
#X connect 6 0 64 0;
#X connect 7 0 51 2;
#X connect 8 0 67 0;
#X connect 9 0 52 2;
#X connect 10 0 68 0;
#X connect 11 0 53 2;
#X connect 12 0 71 0;
#X connect 13 0 59 2;
#X connect 14 0 61 0;
#X connect 15 0 58 2;
#X connect 16 0 62 0;
#X connect 17 0 57 2;
#X connect 18 0 65 0;
#X connect 19 0 56 2;
#X connect 20 0 66 0;
#X connect 21 0 55 2;
#X connect 22 0 69 0;
#X connect 23 0 54 2;
#X connect 24 0 70 0;
#X connect 25 0 2 1;
#X connect 26 0 49 1;
#X connect 27 0 50 1;
#X connect 28 0 51 1;
#X connect 29 0 52 1;
#X connect 30 0 53 1;
#X connect 31 0 59 1;
#X connect 32 0 58 1;
#X connect 33 0 57 1;
#X connect 34 0 56 1;
#X connect 35 0 55 1;
#X connect 36 0 54 1;
#X connect 37 0 2 0;
#X connect 38 0 59 0;
#X connect 39 0 58 0;
#X connect 40 0 49 0;
#X connect 41 0 50 0;
#X connect 42 0 57 0;
#X connect 43 0 56 0;
#X connect 44 0 51 0;
#X connect 45 0 52 0;
#X connect 46 0 55 0;
#X connect 47 0 54 0;
#X connect 48 0 53 0;
#X connect 60 0 0 0;
#X connect 61 0 13 0;
#X connect 62 0 15 0;
#X connect 63 0 3 0;
#X connect 64 0 5 0;
#X connect 65 0 17 0;
#X connect 66 0 19 0;
#X connect 67 0 7 0;
#X connect 68 0 9 0;
#X connect 69 0 21 0;
#X connect 70 0 23 0;
#X connect 71 0 11 0;
#X connect 72 0 75 2;
#X connect 73 0 76 0;
#X connect 74 0 75 0;
#X connect 76 0 72 0;
#X connect 77 0 75 1;
