#N canvas 1138 420 390 346 10;
#N canvas 417 0 687 754 Player 0;
#X obj 220 550 outlet;
#X obj 450 -20 key 1;
#X obj 170 170 f;
#X obj 102 305 line;
#X obj 102 213 route 1 2;
#X msg 92 126 1;
#X msg 142 126 2;
#X obj 92 155 t f b;
#X obj 320 170 f;
#X obj 242 305 line;
#X obj 242 213 route 1 2;
#X msg 232 126 1;
#X msg 282 126 2;
#X obj 232 155 t f b;
#X obj 150 90 select 100 97 119 115;
#X obj 20 620 gemhead;
#X msg 20 590 set 51;
#X obj 20 560 loadbang;
#X msg 242 276 \$1 5;
#X msg 102 276 \$1 5;
#X obj 102 242 + 0.15;
#X obj 150 240 - 0.15;
#X obj 240 240 + 0.15;
#X obj 290 240 - 0.15;
#X obj 100 180 pack f f;
#X obj 242 184 pack f f;
#X obj 350 230 receive reset;
#X msg 350 255 0;
#X obj 130 650 square 0.16;
#X obj 90 590 translateXYZ 0 0 0;
#X obj 160 460 pack 0 0;
#X obj 505 96 tgl 15 0 empty empty empty 17 7 0 10 #fcfcfc #000000
#000000 1 1;
#X obj 525 96 bng 15 250 50 0 empty empty empty 17 7 0 10 #fcfcfc #000000
#000000;
#X obj 555 96 tgl 15 0 empty empty empty 17 7 0 10 #fcfcfc #000000
#000000 0 1;
#X obj 490 60 spigot;
#X obj 540 60 spigot;
#X obj 590 60 loadbang;
#X obj 580 30 receive start;
#X obj 480 30 receive reset;
#X obj 420 20 spigot;
#X obj 130 620 colorRGB 0.709 0.423 0.419;
#X obj 170 410 t b f f;
#X obj 100 380 t f f;
#X obj 100 340 f;
#X obj 230 350 f;
#X floatatom 260 390 5 0 0 0 - - -, f 5;
#X floatatom 60 380 5 0 0 0 - - -, f 5;
#X obj 350 337 bng 15 250 50 0 empty empty empty 17 7 0 10 #fcfcfc
#000000 #000000;
#X obj 350 380 int 1;
#X floatatom 350 412 5 0 0 0 - - -, f 5;
#X obj 420 422 + 1;
#X obj 313 323 bng 15 250 50 0 empty empty empty 17 7 0 10 #fcfcfc
#000000 #000000;
#X msg 313 346 -1;
#X obj 350 436 % 8;
#X obj 350 461 + 1;
#X floatatom 350 486 5 0 0 0 - - -, f 5;
#X obj 350 510 sel 1 2 3 4;
#X obj 220 520 spigot;
#X obj 350 280 t f f f f b;
#X obj 150 0 receive reset;
#X msg 130 60 100;
#X msg 190 60 119;
#X obj 120 30 delay 5;
#X obj 180 30 delay 10;
#X connect 1 0 39 0;
#X connect 2 0 24 1;
#X connect 3 0 43 0;
#X connect 4 0 20 0;
#X connect 4 1 21 0;
#X connect 5 0 7 0;
#X connect 6 0 7 0;
#X connect 7 0 24 0;
#X connect 7 1 2 0;
#X connect 8 0 25 1;
#X connect 9 0 44 0;
#X connect 10 0 22 0;
#X connect 10 1 23 0;
#X connect 11 0 13 0;
#X connect 12 0 13 0;
#X connect 13 0 25 0;
#X connect 13 1 8 0;
#X connect 14 0 5 0;
#X connect 14 1 6 0;
#X connect 14 2 11 0;
#X connect 14 3 12 0;
#X connect 15 0 29 0;
#X connect 16 0 15 0;
#X connect 17 0 16 0;
#X connect 18 0 9 0;
#X connect 19 0 3 0;
#X connect 20 0 19 0;
#X connect 21 0 19 0;
#X connect 22 0 18 0;
#X connect 23 0 18 0;
#X connect 24 0 4 0;
#X connect 25 0 10 0;
#X connect 26 0 27 0;
#X connect 27 0 58 0;
#X connect 29 0 40 0;
#X connect 30 0 57 0;
#X connect 30 0 47 0;
#X connect 31 0 32 0;
#X connect 31 0 34 1;
#X connect 31 0 39 1;
#X connect 32 0 33 0;
#X connect 33 0 35 1;
#X connect 34 0 31 0;
#X connect 35 0 31 0;
#X connect 36 0 33 0;
#X connect 37 0 35 0;
#X connect 38 0 34 0;
#X connect 39 0 14 0;
#X connect 40 0 28 0;
#X connect 41 0 30 0;
#X connect 41 1 30 1;
#X connect 41 2 8 1;
#X connect 41 2 29 2;
#X connect 42 0 30 0;
#X connect 42 1 29 1;
#X connect 42 1 2 1;
#X connect 43 0 42 0;
#X connect 43 0 46 0;
#X connect 44 0 41 0;
#X connect 44 0 45 0;
#X connect 47 0 48 0;
#X connect 48 0 49 0;
#X connect 48 0 50 0;
#X connect 49 0 53 0;
#X connect 50 0 48 1;
#X connect 51 0 52 0;
#X connect 52 0 48 0;
#X connect 53 0 54 0;
#X connect 54 0 55 0;
#X connect 55 0 56 0;
#X connect 56 4 57 1;
#X connect 57 0 0 0;
#X connect 58 0 43 0;
#X connect 58 1 44 0;
#X connect 58 2 2 1;
#X connect 58 3 8 1;
#X connect 58 4 51 0;
#X connect 59 0 62 0;
#X connect 59 0 63 0;
#X connect 60 0 14 0;
#X connect 61 0 14 0;
#X connect 62 0 60 0;
#X connect 63 0 61 0;
#X restore 110 220 pd Player;
#X obj 50 130 gemwin;
#X msg 90 100 destroy;
#X msg 50 70 dimen 750 750 \, create \, 1;
#X obj 110 245 print;
#X obj 210 210 send reset;
#X obj 210 170 bng 15 250 50 0 empty empty empty 17 7 0 10 #fcfcfc
#000000 #000000;
#X obj 290 160 bng 15 250 50 0 empty empty empty 17 7 0 10 #fcfcfc
#000000 #000000;
#X obj 290 183 send start;
#X connect 0 0 4 0;
#X connect 2 0 1 0;
#X connect 3 0 1 0;
#X connect 6 0 5 0;
#X connect 7 0 8 0;
