#N canvas 1047 412 452 342 10;
#X obj 370 70 gemwin;
#X msg 390 30 destroy;
#X msg 300 30 create \, 1;
#X obj 63 -29 gemhead;
#X obj 63 21 translate 0 0 0;
#X obj 63 71 color 1 1 1;
#X obj 63 121 text3d;
#X obj 153 101 f;
#X obj 173 -49 bng 15 250 50 0 empty empty empty 17 7 0 10 #fcfcfc
#000000 #000000;
#X floatatom 173 31 5 0 0 0 - - -, f 5;
#X obj 243 31 + 1;
#X msg 173 -9 1;
#X msg 173 61 float \$1;
#X obj 714 49 gemwin;
#X msg 734 9 destroy;
#X msg 644 9 create \, 1;
#X connect 1 0 0 0;
#X connect 2 0 0 0;
#X connect 3 0 4 0;
#X connect 4 0 5 0;
#X connect 5 0 6 0;
#X connect 7 0 6 0;
#X connect 8 0 11 0;
#X connect 9 0 10 1;
#X connect 9 0 12 0;
#X connect 10 0 9 0;
#X connect 11 0 10 0;
#X connect 12 0 7 0;
#X connect 14 0 13 0;
#X connect 15 0 13 0;
