#N canvas 598 100 756 654 10;
#X obj 10 93 gemwin;
#X msg 10 33 create \, 1;
#X msg 30 63 0 \, destroy;
#X obj 140 470 colorRGB 1 1 0;
#X obj 140 500 rectangle 0.2 0.2;
#X obj 590 10 gemmouse;
#X obj 640 50 send game_over;
#X obj 120 40 receive game_over;
#X obj 620 100 select 1;
#X obj 620 160 bang;
#X msg 620 210 -0.3;
#X obj 620 270 send flap;
#X obj 640 290 receive flap;
#X obj 460 260 bng 15 250 50 0 empty empty empty 17 7 0 10 #fcfcfc
#000000 #000000;
#X obj 460 310 send start_game;
#X obj 80 10 receive start_game;
#X obj 640 340 print;
#X obj 140 440 translateXYZ;
#X obj 60 400 gemhead;
#X obj 180 80 key 1;
#X obj 200 190 f;
#X floatatom 130 360 5 0 0 0 - - -, f 5;
#X obj 132 325 line;
#X obj 132 204 pack f f;
#X obj 132 233 route 1 2;
#X msg 122 146 1;
#X msg 172 146 2;
#X obj 122 175 t f b;
#X obj 362 196 f;
#X floatatom 270 360 5 0 0 0 - - -, f 5;
#X obj 272 325 line;
#X obj 272 204 pack f f;
#X obj 272 233 route 1 2;
#X msg 262 146 1;
#X msg 312 146 2;
#X obj 262 175 t f b;
#X obj 180 110 select 100 97 119 115;
#X obj 132 262 + 1;
#X obj 172 262 - 1;
#X obj 272 262 + 1;
#X obj 312 262 - 1;
#X msg 130 300 \$1 300;
#X msg 270 300 \$1 300;
#X obj 440 380 gemhead;
#X obj 440 460 translateXYZ;
#X obj 450 410 hsl 128 15 -10 10 0 0 empty empty empty -2 -8 0 10 #fcfcfc
#000000 #000000 0 1;
#X obj 450 430 hsl 128 15 -10 10 0 0 empty empty empty -2 -8 0 10 #fcfcfc
#000000 #000000 4600 1;
#X obj 440 560 rectangle 0.5 0.5;
#X obj 440 490 colorRGB 0 1 0;
#X obj 470 510 hsl 128 15 0 10 0 0 empty empty empty -2 -8 0 10 #fcfcfc
#000000 #000000 2800 1;
#X obj 470 530 hsl 128 15 -0 10 0 0 empty empty empty -2 -8 0 10 #fcfcfc
#000000 #000000 500 1;
#X connect 1 0 0 0;
#X connect 2 0 0 0;
#X connect 3 0 4 0;
#X connect 5 2 8 0;
#X connect 5 3 6 0;
#X connect 7 0 2 0;
#X connect 8 0 9 0;
#X connect 9 0 10 0;
#X connect 10 0 11 0;
#X connect 12 0 16 0;
#X connect 13 0 14 0;
#X connect 15 0 1 0;
#X connect 17 0 3 0;
#X connect 18 0 17 0;
#X connect 19 0 36 0;
#X connect 20 0 23 1;
#X connect 21 0 20 1;
#X connect 21 0 17 1;
#X connect 22 0 21 0;
#X connect 23 0 24 0;
#X connect 24 0 37 0;
#X connect 24 1 38 0;
#X connect 25 0 27 0;
#X connect 26 0 27 0;
#X connect 27 0 23 0;
#X connect 27 1 20 0;
#X connect 28 0 31 1;
#X connect 29 0 28 1;
#X connect 29 0 17 2;
#X connect 30 0 29 0;
#X connect 31 0 32 0;
#X connect 32 0 39 0;
#X connect 32 1 40 0;
#X connect 33 0 35 0;
#X connect 34 0 35 0;
#X connect 35 0 31 0;
#X connect 35 1 28 0;
#X connect 36 0 25 0;
#X connect 36 1 26 0;
#X connect 36 2 33 0;
#X connect 36 3 34 0;
#X connect 37 0 41 0;
#X connect 38 0 41 0;
#X connect 39 0 42 0;
#X connect 40 0 42 0;
#X connect 41 0 22 0;
#X connect 42 0 30 0;
#X connect 43 0 44 0;
#X connect 44 0 48 0;
#X connect 45 0 44 1;
#X connect 46 0 44 2;
#X connect 48 0 47 0;
#X connect 49 0 47 1;
#X connect 50 0 47 2;
