#N canvas 988 384 452 303 10;
#X obj 10 60 gemwin;
#X msg 10 10 create \, 1;
#X msg 20 30 destroy;
#N canvas 780 104 706 566 gem-example 0;
#X obj 561 79 inlet radius;
#X obj 424 81 inlet reference;
#X obj 366 264 gemhead;
#X msg 377 426 draw line;
#X obj 377 402 loadbang;
#X obj 366 297 translateXYZ;
#X obj 424 264 unpack 0 0;
#X obj 60 337 color 1 1 1;
#X msg 234 298 1 1 1;
#X msg 281 297 1 0 0;
#X obj 234 250 select 0 1;
#X obj 60 170 gemhead;
#X obj 60 252 translateXYZ;
#X obj 86 206 unpack 0 0;
#X obj 234 64 inlet test;
#N canvas 708 160 538 450 collide 0;
#X obj 97 137 list-map2;
#X obj 177 138 -;
#X obj 177 185 *;
#X obj 177 161 t a a;
#X obj 70 250 sqrt;
#X obj 97 212 list-reduce;
#X obj 181 212 +;
#X obj 105 318 t b a;
#X obj 126 76 inlet reference;
#X obj 97 52 inlet test;
#X obj 300 167 inlet radius;
#X obj 97 366 outlet;
#X obj 126 100 t b a;
#X obj 97 339 <= 1;
#X floatatom 150 250 5 0 0 0 - - -, f 5;
#X msg 20 160 \$1 \$2;
#X obj 20 185 unpack f f;
#X obj 20 210 +;
#X connect 0 0 15 0;
#X connect 0 1 1 0;
#X connect 1 0 3 0;
#X connect 2 0 0 2;
#X connect 3 0 2 0;
#X connect 3 1 2 1;
#X connect 4 0 13 0;
#X connect 5 1 6 0;
#X connect 6 0 5 1;
#X connect 7 0 13 0;
#X connect 7 1 13 1;
#X connect 8 0 12 0;
#X connect 9 0 0 0;
#X connect 10 0 7 0;
#X connect 12 0 0 0;
#X connect 12 1 0 1;
#X connect 13 0 11 0;
#X connect 15 0 16 0;
#X connect 16 0 17 0;
#X connect 16 1 17 1;
#X connect 17 0 4 0;
#X restore 230 150 pd collide;
#X obj 247 175 tgl 24 0 empty empty hit? 28 7 1 10 #fcfcfc #000000
#000000 1 1;
#X obj 366 348 color 1 1 1;
#X floatatom 470 400 5 0 0 0 - - -, f 5;
#X obj 366 461 circle 2;
#X obj 60 370 circle 0.25;
#X connect 0 0 15 2;
#X connect 1 0 6 0;
#X connect 1 0 15 1;
#X connect 2 0 5 0;
#X connect 3 0 19 0;
#X connect 4 0 3 0;
#X connect 5 0 17 0;
#X connect 6 0 5 1;
#X connect 6 1 5 2;
#X connect 7 0 20 0;
#X connect 8 0 7 1;
#X connect 8 0 17 1;
#X connect 9 0 7 1;
#X connect 9 0 17 1;
#X connect 10 0 8 0;
#X connect 10 1 9 0;
#X connect 11 0 12 0;
#X connect 12 0 7 0;
#X connect 13 0 12 1;
#X connect 13 1 12 2;
#X connect 14 0 13 0;
#X connect 14 0 15 0;
#X connect 15 0 10 0;
#X connect 15 0 16 0;
#X connect 17 0 19 0;
#X connect 18 0 19 1;
#X restore 14 274 pd gem-example;
#N canvas 488 239 482 479 gemmouse 0;
#X obj 10 10 gemmouse 8 8;
#X obj 54 48 swap 8;
#X obj 54 74 -;
#X obj 54 96 - 4;
#X obj 10 95 - 4;
#X obj 10 117 pack 0 0;
#X obj 10 144 spigot;
#X obj 210 430 outlet;
#X obj 90 400 translateXYZ;
#X obj 100 290 gemhead;
#X obj 216 22 key 1;
#X obj 236 132 f;
#X floatatom 168 336 5 0 0 0 - - -, f 5;
#X msg 168 238 \$1 100;
#X obj 168 267 line;
#X obj 168 146 pack f f;
#X obj 168 175 route 1 2;
#X msg 158 88 1;
#X msg 208 88 2;
#X obj 158 117 t f b;
#X obj 398 138 f;
#X floatatom 308 336 5 0 0 0 - - -, f 5;
#X msg 308 238 \$1 100;
#X obj 308 267 line;
#X obj 308 146 pack f f;
#X obj 308 175 route 1 2;
#X msg 298 88 1;
#X msg 348 88 2;
#X obj 298 117 t f b;
#X obj 216 52 select 100 97 119 115;
#X obj 208 204 - 0.2;
#X obj 168 204 + 0.2;
#X obj 308 204 + 0.2;
#X obj 348 204 - 0.2;
#X obj 210 410 pack 0 0;
#X obj 230 370 t b f;
#X connect 0 0 4 0;
#X connect 0 1 1 0;
#X connect 0 2 6 1;
#X connect 1 0 2 0;
#X connect 1 1 2 1;
#X connect 2 0 3 0;
#X connect 3 0 5 1;
#X connect 4 0 5 0;
#X connect 5 0 6 0;
#X connect 9 0 8 0;
#X connect 10 0 29 0;
#X connect 11 0 15 1;
#X connect 12 0 11 1;
#X connect 12 0 8 1;
#X connect 12 0 34 0;
#X connect 13 0 14 0;
#X connect 14 0 12 0;
#X connect 15 0 16 0;
#X connect 16 0 31 0;
#X connect 16 1 30 0;
#X connect 17 0 19 0;
#X connect 18 0 19 0;
#X connect 19 0 15 0;
#X connect 19 1 11 0;
#X connect 20 0 24 1;
#X connect 21 0 20 1;
#X connect 21 0 8 2;
#X connect 21 0 35 0;
#X connect 22 0 23 0;
#X connect 23 0 21 0;
#X connect 24 0 25 0;
#X connect 25 0 32 0;
#X connect 25 1 33 0;
#X connect 26 0 28 0;
#X connect 27 0 28 0;
#X connect 28 0 24 0;
#X connect 28 1 20 0;
#X connect 29 0 17 0;
#X connect 29 1 18 0;
#X connect 29 2 26 0;
#X connect 29 3 27 0;
#X connect 30 0 13 0;
#X connect 31 0 13 0;
#X connect 32 0 22 0;
#X connect 33 0 22 0;
#X connect 34 0 7 0;
#X connect 35 0 34 0;
#X connect 35 1 34 1;
#X restore 14 209 pd gemmouse;
#N canvas 590 212 341 330 set-reference 0;
#X obj 71 39 gemmouse 8 8;
#X obj 115 77 swap 8;
#X obj 115 103 -;
#X obj 115 125 - 4;
#X obj 71 124 - 4;
#X obj 71 146 pack 0 0;
#X obj 71 173 spigot;
#X obj 71 196 outlet;
#X text 178 42 right button;
#X connect 0 0 4 0;
#X connect 0 1 1 0;
#X connect 0 4 6 1;
#X connect 1 0 2 0;
#X connect 1 1 2 1;
#X connect 2 0 3 0;
#X connect 3 0 5 1;
#X connect 4 0 5 0;
#X connect 5 0 6 0;
#X connect 6 0 7 0;
#X restore 30 230 pd set-reference;
#X floatatom 140 260 5 0 0 1 Radius - -, f 5;
#X obj 140 210 loadbang;
#X msg 140 235 2;
#N canvas 772 76 466 382 score 1;
#X obj 160 40 gemhead;
#X obj 260 240 f;
#X obj 320 90 bng 15 250 50 0 empty empty empty 17 7 0 10 #fcfcfc #000000
#000000;
#X floatatom 310 150 5 0 0 0 - - -, f 5;
#X msg 280 210 float \$1;
#X msg 160 10 set 69;
#X obj 160 220 colorRGB 1 1 1;
#X obj 200 130 hsl 87 15 -6 6 0 0 empty empty empty -2 -8 0 10 #fcfcfc
#000000 #000000 6850 1;
#X obj 200 150 hsl 88 15 -6 6 0 0 empty empty empty -2 -8 0 10 #fcfcfc
#000000 #000000 7150 1;
#X msg 180 80 set \$1;
#X msg 250 80 set \$1;
#X msg 180 100 3.55814;
#X msg 250 100 3.86207;
#X obj 160 180 translateXYZ 0 0 0;
#X floatatom 220 260 5 0 0 0 - - -, f 5;
#X obj 230 40 loadbang;
#X obj 160 280 text2d 0;
#X obj 70 130 hsl 87 15 -6 6 0 0 empty empty empty -2 -8 0 10 #fcfcfc
#000000 #000000 6450 1;
#X obj 70 150 hsl 88 15 -6 6 0 0 empty empty empty -2 -8 0 10 #fcfcfc
#000000 #000000 7150 1;
#X msg 50 80 set \$1;
#X msg 120 80 set \$1;
#X msg 50 100 3;
#X msg 120 100 3.86207;
#X obj 30 180 translateXYZ 0 0 0;
#X floatatom 90 260 5 0 0 0 - - -, f 5;
#X obj 100 40 loadbang;
#X obj 30 40 gemhead;
#X msg 30 10 set 69;
#X obj 30 280 text2d Score:;
#X obj 30 220 colorRGB 1 1 1;
#X obj 320 50 receive score;
#X obj 370 150 + 1;
#X msg 320 120 1;
#X obj 320 20 receive game_over;
#X msg 400 100 0;
#X msg 130 240 15;
#X connect 0 0 13 0;
#X connect 1 0 16 0;
#X connect 2 0 32 0;
#X connect 3 0 31 1;
#X connect 3 0 4 0;
#X connect 4 0 1 0;
#X connect 5 0 0 0;
#X connect 6 0 16 0;
#X connect 7 0 9 0;
#X connect 7 0 13 1;
#X connect 8 0 10 0;
#X connect 8 0 13 2;
#X connect 9 0 11 0;
#X connect 10 0 12 0;
#X connect 11 0 7 0;
#X connect 12 0 8 0;
#X connect 13 0 6 0;
#X connect 14 0 16 1;
#X connect 15 0 11 0;
#X connect 15 0 12 0;
#X connect 15 0 5 0;
#X connect 17 0 19 0;
#X connect 17 0 23 1;
#X connect 18 0 20 0;
#X connect 18 0 23 2;
#X connect 19 0 21 0;
#X connect 20 0 22 0;
#X connect 21 0 17 0;
#X connect 22 0 18 0;
#X connect 23 0 29 0;
#X connect 24 0 28 1;
#X connect 25 0 21 0;
#X connect 25 0 22 0;
#X connect 25 0 27 0;
#X connect 25 0 35 0;
#X connect 26 0 23 0;
#X connect 27 0 26 0;
#X connect 29 0 28 0;
#X connect 30 0 2 0;
#X connect 31 0 3 0;
#X connect 32 0 31 0;
#X connect 33 0 34 0;
#X connect 34 0 3 0;
#X connect 35 0 24 0;
#X connect 35 0 14 0;
#X restore 10 80 pd score;
#X connect 1 0 0 0;
#X connect 2 0 0 0;
#X connect 4 0 3 0;
#X connect 5 0 3 1;
#X connect 6 0 3 2;
#X connect 7 0 8 0;
#X connect 8 0 6 0;
