#N canvas 1000 474 476 308 10;
#X obj 10 60 gemwin;
#X msg 10 10 create \, 1;
#X msg 20 30 destroy;
#N canvas 772 76 466 382 score 0;
#X obj 160 40 gemhead;
#X obj 260 240 f;
#X obj 320 90 bng 15 250 50 0 empty empty empty 17 7 0 10 #fcfcfc #000000
#000000;
#X floatatom 310 150 5 0 0 0 - - -, f 5;
#X msg 280 210 float \$1;
#X msg 160 10 set 69;
#X obj 160 220 colorRGB 1 1 1;
#X obj 200 130 hsl 87 15 -6 6 0 0 empty empty empty -2 -8 0 10 #fcfcfc
#000000 #000000 6850 1;
#X obj 200 150 hsl 88 15 -6 6 0 0 empty empty empty -2 -8 0 10 #fcfcfc
#000000 #000000 7150 1;
#X msg 180 80 set \$1;
#X msg 250 80 set \$1;
#X msg 180 100 3.55814;
#X msg 250 100 3.86207;
#X obj 160 180 translateXYZ 0 0 0;
#X floatatom 220 260 5 0 0 0 - - -, f 5;
#X obj 230 40 loadbang;
#X obj 160 280 text2d 0;
#X obj 70 130 hsl 87 15 -6 6 0 0 empty empty empty -2 -8 0 10 #fcfcfc
#000000 #000000 6450 1;
#X obj 70 150 hsl 88 15 -6 6 0 0 empty empty empty -2 -8 0 10 #fcfcfc
#000000 #000000 7150 1;
#X msg 50 80 set \$1;
#X msg 120 80 set \$1;
#X msg 50 100 3;
#X msg 120 100 3.86207;
#X obj 30 180 translateXYZ 0 0 0;
#X floatatom 90 260 5 0 0 0 - - -, f 5;
#X obj 100 40 loadbang;
#X obj 30 40 gemhead;
#X msg 30 10 set 69;
#X obj 30 280 text2d Score:;
#X obj 30 220 colorRGB 1 1 1;
#X obj 320 50 receive score;
#X obj 370 150 + 1;
#X msg 320 120 1;
#X obj 320 20 receive game_over;
#X msg 400 100 0;
#X msg 130 240 15;
#X connect 0 0 13 0;
#X connect 1 0 16 0;
#X connect 2 0 32 0;
#X connect 3 0 31 1;
#X connect 3 0 4 0;
#X connect 4 0 1 0;
#X connect 5 0 0 0;
#X connect 6 0 16 0;
#X connect 7 0 9 0;
#X connect 7 0 13 1;
#X connect 8 0 10 0;
#X connect 8 0 13 2;
#X connect 9 0 11 0;
#X connect 10 0 12 0;
#X connect 11 0 7 0;
#X connect 12 0 8 0;
#X connect 13 0 6 0;
#X connect 14 0 16 1;
#X connect 15 0 11 0;
#X connect 15 0 12 0;
#X connect 15 0 5 0;
#X connect 17 0 19 0;
#X connect 17 0 23 1;
#X connect 18 0 20 0;
#X connect 18 0 23 2;
#X connect 19 0 21 0;
#X connect 20 0 22 0;
#X connect 21 0 17 0;
#X connect 22 0 18 0;
#X connect 23 0 29 0;
#X connect 24 0 28 1;
#X connect 25 0 21 0;
#X connect 25 0 22 0;
#X connect 25 0 27 0;
#X connect 25 0 35 0;
#X connect 26 0 23 0;
#X connect 27 0 26 0;
#X connect 29 0 28 0;
#X connect 30 0 2 0;
#X connect 31 0 3 0;
#X connect 32 0 31 0;
#X connect 33 0 34 0;
#X connect 34 0 3 0;
#X connect 35 0 24 0;
#X connect 35 0 14 0;
#X restore 10 80 pd score;
#N canvas 1000 361 451 305 PlayArea 0;
#N canvas 780 104 706 566 gem-example 0;
#X obj 561 79 inlet radius;
#X obj 424 81 inlet reference;
#X obj 366 264 gemhead;
#X msg 377 426 draw line;
#X obj 377 402 loadbang;
#X obj 366 297 translateXYZ;
#X obj 424 264 unpack 0 0;
#X obj 60 337 color 1 1 1;
#X msg 234 298 1 1 1;
#X msg 281 297 1 0 0;
#X obj 234 250 select 0 1;
#X obj 60 170 gemhead;
#X obj 60 252 translateXYZ;
#X obj 86 206 unpack 0 0;
#X obj 234 64 inlet test;
#N canvas 708 160 538 450 collide 0;
#X obj 97 137 list-map2;
#X obj 177 138 -;
#X obj 177 185 *;
#X obj 177 161 t a a;
#X obj 70 250 sqrt;
#X obj 97 212 list-reduce;
#X obj 181 212 +;
#X obj 105 318 t b a;
#X obj 126 76 inlet reference;
#X obj 97 52 inlet test;
#X obj 300 167 inlet radius;
#X obj 97 366 outlet;
#X obj 126 100 t b a;
#X obj 97 339 <= 1;
#X floatatom 150 250 5 0 0 0 - - -, f 5;
#X msg 20 160 \$1 \$2;
#X obj 20 185 unpack f f;
#X obj 20 210 +;
#X connect 0 0 15 0;
#X connect 0 1 1 0;
#X connect 1 0 3 0;
#X connect 2 0 0 2;
#X connect 3 0 2 0;
#X connect 3 1 2 1;
#X connect 4 0 13 0;
#X connect 5 1 6 0;
#X connect 6 0 5 1;
#X connect 7 0 13 0;
#X connect 7 1 13 1;
#X connect 8 0 12 0;
#X connect 9 0 0 0;
#X connect 10 0 7 0;
#X connect 12 0 0 0;
#X connect 12 1 0 1;
#X connect 13 0 11 0;
#X connect 15 0 16 0;
#X connect 16 0 17 0;
#X connect 16 1 17 1;
#X connect 17 0 4 0;
#X restore 230 150 pd collide;
#X obj 247 175 tgl 24 0 empty empty hit? 28 7 1 10 #fcfcfc #000000
#000000 1 1;
#X obj 366 348 color 1 1 1;
#X floatatom 470 400 5 0 0 0 - - -, f 5;
#X obj 366 461 circle 2;
#X obj 60 370 circle 0.25;
#X connect 0 0 15 2;
#X connect 1 0 6 0;
#X connect 1 0 15 1;
#X connect 2 0 5 0;
#X connect 3 0 19 0;
#X connect 4 0 3 0;
#X connect 5 0 17 0;
#X connect 6 0 5 1;
#X connect 6 1 5 2;
#X connect 7 0 20 0;
#X connect 8 0 7 1;
#X connect 8 0 17 1;
#X connect 9 0 7 1;
#X connect 9 0 17 1;
#X connect 10 0 8 0;
#X connect 10 1 9 0;
#X connect 11 0 12 0;
#X connect 12 0 7 0;
#X connect 13 0 12 1;
#X connect 13 1 12 2;
#X connect 14 0 13 0;
#X connect 14 0 15 0;
#X connect 15 0 10 0;
#X connect 15 0 16 0;
#X connect 17 0 19 0;
#X connect 18 0 19 1;
#X restore 66 105 pd gem-example;
#X floatatom 162 91 5 0 0 1 Radius - -, f 5;
#X obj 162 41 loadbang;
#X msg 162 66 2;
#N canvas 488 236 482 482 Player 0;
#X obj 210 430 outlet;
#X obj 90 400 translateXYZ;
#X obj 100 290 gemhead;
#X obj 216 22 key 1;
#X obj 236 132 f;
#X floatatom 168 336 5 0 0 0 - - -, f 5;
#X msg 168 238 \$1 100;
#X obj 168 267 line;
#X obj 168 146 pack f f;
#X obj 168 175 route 1 2;
#X msg 158 88 1;
#X msg 208 88 2;
#X obj 158 117 t f b;
#X obj 398 138 f;
#X floatatom 308 336 5 0 0 0 - - -, f 5;
#X msg 308 238 \$1 100;
#X obj 308 267 line;
#X obj 308 146 pack f f;
#X obj 308 175 route 1 2;
#X msg 298 88 1;
#X msg 348 88 2;
#X obj 298 117 t f b;
#X obj 216 52 select 100 97 119 115;
#X obj 208 204 - 0.2;
#X obj 168 204 + 0.2;
#X obj 308 204 + 0.2;
#X obj 348 204 - 0.2;
#X obj 210 410 pack 0 0;
#X obj 230 370 t b f;
#X connect 2 0 1 0;
#X connect 3 0 22 0;
#X connect 4 0 8 1;
#X connect 5 0 4 1;
#X connect 5 0 1 1;
#X connect 5 0 27 0;
#X connect 6 0 7 0;
#X connect 7 0 5 0;
#X connect 8 0 9 0;
#X connect 9 0 24 0;
#X connect 9 1 23 0;
#X connect 10 0 12 0;
#X connect 11 0 12 0;
#X connect 12 0 8 0;
#X connect 12 1 4 0;
#X connect 13 0 17 1;
#X connect 14 0 13 1;
#X connect 14 0 1 2;
#X connect 14 0 28 0;
#X connect 15 0 16 0;
#X connect 16 0 14 0;
#X connect 17 0 18 0;
#X connect 18 0 25 0;
#X connect 18 1 26 0;
#X connect 19 0 21 0;
#X connect 20 0 21 0;
#X connect 21 0 17 0;
#X connect 21 1 13 0;
#X connect 22 0 10 0;
#X connect 22 1 11 0;
#X connect 22 2 19 0;
#X connect 22 3 20 0;
#X connect 23 0 6 0;
#X connect 24 0 6 0;
#X connect 25 0 15 0;
#X connect 26 0 15 0;
#X connect 27 0 0 0;
#X connect 28 0 27 0;
#X connect 28 1 27 1;
#X restore 62 51 pd Player;
#N canvas 590 212 341 330 PlayArea 0;
#X obj 71 39 gemmouse 8 8;
#X obj 115 77 swap 8;
#X obj 115 103 -;
#X obj 115 125 - 4;
#X obj 71 124 - 4;
#X obj 71 146 pack 0 0;
#X obj 71 173 spigot;
#X obj 71 196 outlet;
#X text 178 42 right button;
#X connect 0 0 4 0;
#X connect 0 1 1 0;
#X connect 0 4 6 1;
#X connect 1 0 2 0;
#X connect 1 1 2 1;
#X connect 2 0 3 0;
#X connect 3 0 5 1;
#X connect 4 0 5 0;
#X connect 5 0 6 0;
#X connect 6 0 7 0;
#X restore 82 81 pd PlayArea;
#X connect 1 0 0 2;
#X connect 2 0 3 0;
#X connect 3 0 1 0;
#X connect 4 0 0 0;
#X connect 5 0 0 1;
#X restore 10 100 pd PlayArea;
#N canvas 712 56 706 451 Spawner 1;
#N canvas -25600 -25600 146 0 gemmouse 1;
#X obj 180 -80 outlet;
#X obj 65 -125 translateXYZ;
#X obj 75 -235 gemhead;
#X obj 191 -503 key 1;
#X obj 211 -393 f;
#X floatatom 143 -189 5 0 0 0 - - -, f 5;
#X msg 143 -287 \$1 100;
#X obj 143 -258 line;
#X obj 143 -379 pack f f;
#X obj 143 -350 route 1 2;
#X msg 133 -437 1;
#X msg 183 -437 2;
#X obj 133 -408 t f b;
#X obj 373 -387 f;
#X floatatom 283 -189 5 0 0 0 - - -, f 5;
#X msg 283 -287 \$1 100;
#X obj 283 -258 line;
#X obj 283 -379 pack f f;
#X obj 283 -350 route 1 2;
#X msg 273 -437 1;
#X msg 323 -437 2;
#X obj 273 -408 t f b;
#X obj 191 -473 select 100 97 119 115;
#X obj 183 -321 - 0.2;
#X obj 143 -321 + 0.2;
#X obj 283 -321 + 0.2;
#X obj 323 -321 - 0.2;
#X obj 185 -115 pack 0 0;
#X obj 205 -155 t b f;
#X connect 2 0 1 0;
#X connect 3 0 22 0;
#X connect 4 0 8 1;
#X connect 5 0 4 1;
#X connect 5 0 1 1;
#X connect 5 0 27 0;
#X connect 6 0 7 0;
#X connect 7 0 5 0;
#X connect 8 0 9 0;
#X connect 9 0 24 0;
#X connect 9 1 23 0;
#X connect 10 0 12 0;
#X connect 11 0 12 0;
#X connect 12 0 8 0;
#X connect 12 1 4 0;
#X connect 13 0 17 1;
#X connect 14 0 13 1;
#X connect 14 0 1 2;
#X connect 14 0 28 0;
#X connect 15 0 16 0;
#X connect 16 0 14 0;
#X connect 17 0 18 0;
#X connect 18 0 25 0;
#X connect 18 1 26 0;
#X connect 19 0 21 0;
#X connect 20 0 21 0;
#X connect 21 0 17 0;
#X connect 21 1 13 0;
#X connect 22 0 10 0;
#X connect 22 1 11 0;
#X connect 22 2 19 0;
#X connect 22 3 20 0;
#X connect 23 0 6 0;
#X connect 24 0 6 0;
#X connect 25 0 15 0;
#X connect 26 0 15 0;
#X connect 27 0 0 0;
#X connect 28 0 27 0;
#X connect 28 1 27 1;
#X restore 55 34 pd gemmouse;
#X floatatom 140 70 5 0 0 1 - - -, f 5;
#X obj 140 30 loadbang;
#N canvas 732 112 710 562 comet_collision1 0;
#X obj 430 50 inlet radius;
#X obj 330 50 inlet reference;
#X obj 290 100 gemhead;
#X obj 280 310 translateXYZ;
#X obj 360 90 unpack 0 0;
#X obj 20 310 select 0 1;
#X obj 250 50 inlet test;
#N canvas 837 232 545 494 collide 0;
#X obj 91 217 list-map2;
#X obj 171 218 -;
#X obj 171 265 *;
#X obj 171 241 t a a;
#X obj 84 340 sqrt;
#X obj 84 290 list-reduce;
#X obj 170 290 +;
#X obj 124 360 t b a;
#X obj 150 130 inlet reference;
#X obj 80 130 inlet test;
#X obj 294 247 inlet radius;
#X obj 94 410 outlet;
#X obj 94 380 <= 1;
#X obj 110 90 tgl 15 0 empty empty empty 17 7 0 10 #fcfcfc #000000
#000000 0 1;
#X obj 140 90 bng 15 250 50 0 empty empty empty 17 7 0 10 #fcfcfc #000000
#000000;
#X obj 170 90 tgl 15 0 empty empty empty 17 7 0 10 #fcfcfc #000000
#000000 1 1;
#X obj 60 60 spigot;
#X obj 160 60 spigot;
#X obj 60 30 receive reset;
#X obj 230 80 loadbang;
#X obj 180 30 receive start;
#X obj 80 160 spigot;
#X obj 150 155 spigot;
#X connect 0 0 5 0;
#X connect 0 1 1 0;
#X connect 1 0 3 0;
#X connect 2 0 0 2;
#X connect 3 0 2 0;
#X connect 3 1 2 1;
#X connect 4 0 12 0;
#X connect 5 0 4 0;
#X connect 5 1 6 0;
#X connect 6 0 5 1;
#X connect 7 0 12 0;
#X connect 7 1 12 1;
#X connect 8 0 22 0;
#X connect 9 0 21 0;
#X connect 10 0 7 0;
#X connect 12 0 11 0;
#X connect 13 0 14 0;
#X connect 13 0 16 1;
#X connect 13 0 21 1;
#X connect 13 0 22 1;
#X connect 14 0 15 0;
#X connect 15 0 17 1;
#X connect 16 0 13 0;
#X connect 17 0 13 0;
#X connect 18 0 16 0;
#X connect 19 0 15 0;
#X connect 20 0 17 0;
#X connect 21 0 0 0;
#X connect 22 0 0 1;
#X restore 30 110 pd collide;
#X obj 50 140 tgl 24 0 empty empty hit? 28 7 1 10 #fcfcfc #000000 #000000
1 1;
#X msg 40 40 set 55;
#X obj 40 10 loadbang;
#X obj 280 210 pix_image;
#X obj 310 130 loadbang;
#X obj 280 280 pix_texture;
#X floatatom 300 240 5 0 0 0 - - -, f 5;
#X msg 350 230 env \$1;
#X obj 350 210 hradio 15 1 0 6 empty empty empty 0 -6 0 8 #fcfcfc #000000
#000000 2;
#X msg 350 180 2;
#X msg 310 160 open Art/Rock1.jpeg;
#X obj 130 110 loadbang;
#X obj 73 232 tgl 15 0 empty empty empty 17 7 0 10 #fcfcfc #000000
#000000 0 1;
#X obj 103 232 bng 15 250 50 0 empty empty empty 17 7 0 10 #fcfcfc
#000000 #000000;
#X obj 133 232 tgl 15 0 empty empty empty 17 7 0 10 #fcfcfc #000000
#000000 1 1;
#X obj 23 202 spigot;
#X obj 123 202 spigot;
#X obj 23 172 receive reset;
#X obj 193 222 loadbang;
#X obj 143 172 receive start;
#X obj 43 272 spigot;
#X obj 130 140 delay 100;
#X obj 280 350 colorRGB 0 0 1;
#X obj 20 350 print gay;
#X obj 20 380 send reset;
#X obj 280 375 circle 0.7;
#X connect 0 0 7 2;
#X connect 1 0 4 0;
#X connect 1 0 7 1;
#X connect 2 0 11 0;
#X connect 3 0 30 0;
#X connect 4 0 3 1;
#X connect 4 1 3 2;
#X connect 5 1 31 0;
#X connect 5 1 32 0;
#X connect 6 0 7 0;
#X connect 7 0 8 0;
#X connect 8 0 28 0;
#X connect 9 0 2 0;
#X connect 10 0 9 0;
#X connect 11 0 13 0;
#X connect 12 0 18 0;
#X connect 12 0 17 0;
#X connect 13 0 3 0;
#X connect 14 0 13 0;
#X connect 15 0 13 0;
#X connect 16 0 15 0;
#X connect 16 0 13 0;
#X connect 17 0 16 0;
#X connect 18 0 11 0;
#X connect 19 0 29 0;
#X connect 20 0 21 0;
#X connect 20 0 23 1;
#X connect 20 0 28 1;
#X connect 21 0 22 0;
#X connect 22 0 24 1;
#X connect 23 0 20 0;
#X connect 24 0 20 0;
#X connect 25 0 23 0;
#X connect 26 0 22 0;
#X connect 27 0 24 0;
#X connect 28 0 5 0;
#X connect 29 0 8 0;
#X connect 30 0 33 0;
#X restore 55 114 pd comet_collision1;
#N canvas 923 8 535 444 Ball1 0;
#X obj 200 480 outlet;
#N canvas 540 264 394 350 mover 0;
#X obj 60 140 line;
#X obj 200 140 line;
#X msg 70 100 \$1 3000;
#X msg 200 100 \$1 3000;
#X obj 110 190 pack 0 0;
#X floatatom 40 180 5 0 0 0 - - -, f 5;
#X floatatom 210 180 5 0 0 0 - - -, f 5;
#X obj 50 60 unpack 0 0, f 13;
#X obj 180 60 unpack 0 0, f 11;
#X obj 50 20 inlet from;
#X obj 180 20 inlet to;
#X obj 110 215 outlet atm;
#X connect 0 0 4 0;
#X connect 0 0 5 0;
#X connect 1 0 4 1;
#X connect 1 0 6 0;
#X connect 2 0 0 0;
#X connect 3 0 1 0;
#X connect 4 0 11 0;
#X connect 7 0 0 0;
#X connect 7 1 1 0;
#X connect 8 0 2 0;
#X connect 8 1 3 0;
#X connect 9 0 7 0;
#X connect 10 0 8 0;
#X restore 200 430 pd mover;
#X obj 180 220 bng 15 250 50 0 empty empty empty 17 7 0 10 #fcfcfc
#000000 #000000;
#X obj 260 30 receive respawn1;
#X obj 260 60 delay 2000;
#X obj 120 60 receive start;
#X floatatom 270 305 5 0 0 0 - - -, f 5;
#X obj 270 220 bng 15 250 50 0 empty empty empty 17 7 0 10 #fcfcfc
#000000 #000000;
#X obj 270 330 - 3;
#X obj 270 280 random 6;
#X obj 340 280 random 1000;
#X obj 340 305 / 1000;
#X obj 270 360 +;
#X floatatom 180 305 5 0 0 0 - - -, f 5;
#X obj 100 280 random 1000;
#X obj 100 305 / 1000;
#X obj 180 360 +;
#X msg 180 390 \$1 6;
#X obj 20 180 receive reset;
#X obj 180 280 random 6;
#X obj 180 330 - 3;
#X obj 180 250 t b b;
#X obj 270 250 t b b;
#X obj 183 162 tgl 15 0 empty empty empty 17 7 0 10 #fcfcfc #000000
#000000 0 1;
#X obj 213 162 bng 15 250 50 0 empty empty empty 17 7 0 10 #fcfcfc
#000000 #000000;
#X obj 243 162 tgl 15 0 empty empty empty 17 7 0 10 #fcfcfc #000000
#000000 1 1;
#X obj 133 132 spigot;
#X obj 233 132 spigot;
#X obj 133 102 receive reset;
#X obj 303 152 loadbang;
#X obj 253 102 receive start;
#X obj 133 172 spigot;
#X obj 233 192 spigot;
#X obj 120 85 delay 500;
#X msg 270 390 \$1 -6;
#X connect 1 0 0 0;
#X connect 2 0 21 0;
#X connect 3 0 4 0;
#X connect 3 0 2 0;
#X connect 4 0 32 0;
#X connect 5 0 33 0;
#X connect 6 0 8 0;
#X connect 7 0 22 0;
#X connect 8 0 12 0;
#X connect 9 0 6 0;
#X connect 10 0 11 0;
#X connect 11 0 12 1;
#X connect 12 0 34 0;
#X connect 13 0 20 0;
#X connect 14 0 15 0;
#X connect 15 0 16 1;
#X connect 16 0 17 0;
#X connect 17 0 1 0;
#X connect 18 0 2 0;
#X connect 19 0 13 0;
#X connect 20 0 16 0;
#X connect 21 0 19 0;
#X connect 21 1 14 0;
#X connect 22 0 9 0;
#X connect 22 1 10 0;
#X connect 23 0 24 0;
#X connect 23 0 26 1;
#X connect 23 0 31 1;
#X connect 23 0 32 1;
#X connect 24 0 25 0;
#X connect 25 0 27 1;
#X connect 26 0 23 0;
#X connect 27 0 23 0;
#X connect 28 0 26 0;
#X connect 29 0 25 0;
#X connect 30 0 27 0;
#X connect 31 0 2 0;
#X connect 31 0 7 0;
#X connect 32 0 7 0;
#X connect 33 0 31 0;
#X connect 34 0 1 1;
#X restore 75 84 pd Ball1;
#X msg 141 50 0.9;
#X connect 0 0 3 0;
#X connect 1 0 3 2;
#X connect 2 0 5 0;
#X connect 4 0 3 1;
#X connect 5 0 1 0;
#X restore 10 130 pd Spawner;
#X obj 100 60 send reset;
#X obj 180 60 send start;
#X obj 100 30 bng 15 250 50 0 empty empty empty 17 7 0 10 #fcfcfc #000000
#000000;
#X obj 170 30 bng 15 250 50 0 empty empty empty 17 7 0 10 #fcfcfc #000000
#000000;
#X connect 1 0 0 0;
#X connect 2 0 0 0;
#X connect 8 0 6 0;
#X connect 9 0 7 0;
