#N canvas 1079 508 365 250 10;
#N canvas 688 376 146 70 beat-sequencer 0;
#X obj 279 -911 metro;
#X obj 279 -886 bng 15 250 50 0 empty empty empty 17 7 0 10 #fcfcfc
#000000 #000000;
#X obj 279 -843 int 1;
#X floatatom 279 -811 5 0 0 0 - - -, f 5;
#X obj 349 -801 + 1;
#X obj 219 -921 sel 0;
#X obj 219 -896 bng 15 250 50 0 empty empty empty 17 7 0 10 #fcfcfc
#000000 #000000;
#X msg 219 -873 -1;
#X obj 159 -921 loadbang;
#X obj 309 -1011 loadbang;
#X obj 279 -787 % 8;
#X obj 279 -762 + 1;
#X floatatom 280 -740 5 0 0 0 - - -, f 5;
#X obj 279 -671 sel 1;
#X obj 279 -646 bng 15 250 50 0 empty empty empty 17 7 0 10 #fcfcfc
#000000 #000000;
#X obj 279 -623 s One;
#X obj 329 -646 bng 15 250 50 0 empty empty empty 17 7 0 10 #fcfcfc
#000000 #000000;
#X obj 379 -646 bng 15 250 50 0 empty empty empty 17 7 0 10 #fcfcfc
#000000 #000000;
#X obj 429 -646 bng 15 250 50 0 empty empty empty 17 7 0 10 #fcfcfc
#000000 #000000;
#X obj 479 -646 bng 15 250 50 0 empty empty empty 17 7 0 10 #fcfcfc
#000000 #000000;
#X obj 529 -646 bng 15 250 50 0 empty empty empty 17 7 0 10 #fcfcfc
#000000 #000000;
#X obj 579 -646 bng 15 250 50 0 empty empty empty 17 7 0 10 #fcfcfc
#000000 #000000;
#X obj 629 -646 bng 15 250 50 0 empty empty empty 17 7 0 10 #fcfcfc
#000000 #000000;
#X obj 329 -671 sel 2;
#X obj 329 -623 s Two;
#X obj 379 -671 sel 3;
#X obj 379 -623 s Three;
#X obj 429 -671 sel 4;
#X obj 429 -623 s Four;
#X obj 479 -671 sel 5;
#X obj 479 -623 s Five;
#X obj 529 -671 sel 6;
#X obj 529 -623 s Six;
#X obj 579 -671 sel 7;
#X obj 579 -623 s Seven;
#X obj 629 -671 sel 8;
#X obj 629 -623 s Eight;
#X floatatom 309 -961 5 0 0 0 - - -, f 5;
#X obj 139 -571 receive One;
#X obj 139 -541 bng 15 250 50 0 empty empty empty 17 7 0 10 #fcfcfc
#000000 #000000;
#X obj 139 -513 spigot;
#X obj 139 -488 bng 15 250 50 0 empty empty empty 17 7 0 10 #fcfcfc
#000000 #000000;
#X obj 179 -541 tgl 15 0 empty empty empty 17 7 0 10 #fcfcfc #000000
#000000 0 1;
#X obj 219 -541 bng 15 250 50 0 empty empty empty 17 7 0 10 #fcfcfc
#000000 #000000;
#X obj 219 -513 spigot;
#X obj 219 -488 bng 15 250 50 0 empty empty empty 17 7 0 10 #fcfcfc
#000000 #000000;
#X obj 259 -541 tgl 15 0 empty empty empty 17 7 0 10 #fcfcfc #000000
#000000 0 1;
#X obj 299 -541 bng 15 250 50 0 empty empty empty 17 7 0 10 #fcfcfc
#000000 #000000;
#X obj 299 -513 spigot;
#X obj 299 -488 bng 15 250 50 0 empty empty empty 17 7 0 10 #fcfcfc
#000000 #000000;
#X obj 339 -541 tgl 15 0 empty empty empty 17 7 0 10 #fcfcfc #000000
#000000 0 1;
#X obj 389 -541 bng 15 250 50 0 empty empty empty 17 7 0 10 #fcfcfc
#000000 #000000;
#X obj 389 -513 spigot;
#X obj 389 -488 bng 15 250 50 0 empty empty empty 17 7 0 10 #fcfcfc
#000000 #000000;
#X obj 429 -541 tgl 15 0 empty empty empty 17 7 0 10 #fcfcfc #000000
#000000 0 1;
#X obj 469 -541 bng 15 250 50 0 empty empty empty 17 7 0 10 #fcfcfc
#000000 #000000;
#X obj 469 -513 spigot;
#X obj 469 -488 bng 15 250 50 0 empty empty empty 17 7 0 10 #fcfcfc
#000000 #000000;
#X obj 509 -541 tgl 15 0 empty empty empty 17 7 0 10 #fcfcfc #000000
#000000 0 1;
#X obj 549 -541 bng 15 250 50 0 empty empty empty 17 7 0 10 #fcfcfc
#000000 #000000;
#X obj 549 -513 spigot;
#X obj 549 -488 bng 15 250 50 0 empty empty empty 17 7 0 10 #fcfcfc
#000000 #000000;
#X obj 589 -541 tgl 15 0 empty empty empty 17 7 0 10 #fcfcfc #000000
#000000 0 1;
#X obj 629 -541 bng 15 250 50 0 empty empty empty 17 7 0 10 #fcfcfc
#000000 #000000;
#X obj 629 -513 spigot;
#X obj 629 -488 bng 15 250 50 0 empty empty empty 17 7 0 10 #fcfcfc
#000000 #000000;
#X obj 669 -541 tgl 15 0 empty empty empty 17 7 0 10 #fcfcfc #000000
#000000 0 1;
#X obj 719 -541 bng 15 250 50 0 empty empty empty 17 7 0 10 #fcfcfc
#000000 #000000;
#X obj 719 -511 spigot;
#X obj 719 -488 bng 15 250 50 0 empty empty empty 17 7 0 10 #fcfcfc
#000000 #000000;
#X obj 759 -541 tgl 15 0 empty empty empty 17 7 0 10 #fcfcfc #000000
#000000 0 1;
#X obj 219 -571 receive Two;
#X obj 299 -571 receive Three;
#X obj 389 -571 receive Four;
#X obj 469 -571 receive Five;
#X obj 549 -571 receive Six;
#X obj 629 -571 receive Seven;
#X obj 719 -571 receive Eight;
#X obj 140 -430 send red;
#X obj 470 -430 send blue;
#X obj 170 -830 send all;
#X obj 260 -940 tgl 15 0 empty empty empty 17 7 0 10 #fcfcfc #000000
#000000 0 1;
#X obj 90 -950 tgl 15 0 empty empty empty 17 7 0 10 #fcfcfc #000000
#000000 0 1;
#X obj 120 -950 bng 15 250 50 0 empty empty empty 17 7 0 10 #fcfcfc
#000000 #000000;
#X obj 150 -950 tgl 16 0 empty empty empty 17 7 0 10 #fcfcfc #000000
#000000 1 1;
#X obj 52 -989 spigot;
#X obj 152 -989 spigot;
#X obj 202 -989 loadbang;
#X msg 309 -986 1250;
#X obj 30 -1020 receive reset;
#X obj 170 -1020 receive start;
#X connect 0 0 1 0;
#X connect 1 0 2 0;
#X connect 2 0 3 0;
#X connect 2 0 4 0;
#X connect 3 0 10 0;
#X connect 4 0 2 1;
#X connect 5 0 6 0;
#X connect 6 0 7 0;
#X connect 6 0 80 0;
#X connect 7 0 2 0;
#X connect 8 0 6 0;
#X connect 9 0 88 0;
#X connect 10 0 11 0;
#X connect 11 0 12 0;
#X connect 12 0 13 0;
#X connect 12 0 35 0;
#X connect 12 0 33 0;
#X connect 12 0 31 0;
#X connect 12 0 29 0;
#X connect 12 0 27 0;
#X connect 12 0 25 0;
#X connect 12 0 23 0;
#X connect 13 0 14 0;
#X connect 14 0 15 0;
#X connect 16 0 24 0;
#X connect 17 0 26 0;
#X connect 18 0 28 0;
#X connect 19 0 30 0;
#X connect 20 0 32 0;
#X connect 21 0 34 0;
#X connect 22 0 36 0;
#X connect 23 0 16 0;
#X connect 25 0 17 0;
#X connect 27 0 18 0;
#X connect 29 0 19 0;
#X connect 31 0 20 0;
#X connect 33 0 21 0;
#X connect 35 0 22 0;
#X connect 37 0 0 1;
#X connect 38 0 39 0;
#X connect 39 0 40 0;
#X connect 39 0 78 0;
#X connect 40 0 41 0;
#X connect 42 0 40 1;
#X connect 43 0 44 0;
#X connect 44 0 45 0;
#X connect 46 0 44 1;
#X connect 47 0 48 0;
#X connect 48 0 49 0;
#X connect 50 0 48 1;
#X connect 51 0 52 0;
#X connect 52 0 53 0;
#X connect 54 0 52 1;
#X connect 55 0 56 0;
#X connect 55 0 79 0;
#X connect 56 0 57 0;
#X connect 58 0 56 1;
#X connect 59 0 60 0;
#X connect 60 0 61 0;
#X connect 62 0 60 1;
#X connect 63 0 64 0;
#X connect 64 0 65 0;
#X connect 66 0 64 1;
#X connect 67 0 68 0;
#X connect 68 0 69 0;
#X connect 70 0 68 1;
#X connect 71 0 43 0;
#X connect 72 0 47 0;
#X connect 73 0 51 0;
#X connect 74 0 55 0;
#X connect 75 0 59 0;
#X connect 76 0 63 0;
#X connect 77 0 67 0;
#X connect 81 0 5 0;
#X connect 81 0 0 0;
#X connect 82 0 83 0;
#X connect 82 0 85 1;
#X connect 82 0 81 0;
#X connect 83 0 84 0;
#X connect 84 0 86 1;
#X connect 85 0 82 0;
#X connect 86 0 82 0;
#X connect 87 0 84 0;
#X connect 88 0 37 0;
#X connect 89 0 85 0;
#X connect 90 0 86 0;
#X restore 10 100 pd beat-sequencer;
#N canvas 772 76 466 382 score 0;
#X obj 160 40 gemhead;
#X obj 260 240 f;
#X obj 320 90 bng 15 250 50 0 empty empty empty 17 7 0 10 #fcfcfc #000000
#000000;
#X floatatom 310 150 5 0 0 0 - - -, f 5;
#X msg 280 210 float \$1;
#X msg 160 10 set 69;
#X obj 160 220 colorRGB 1 1 1;
#X obj 200 130 hsl 87 15 -6 6 0 0 empty empty empty -2 -8 0 10 #fcfcfc
#000000 #000000 6850 1;
#X obj 200 150 hsl 88 15 -6 6 0 0 empty empty empty -2 -8 0 10 #fcfcfc
#000000 #000000 7150 1;
#X msg 180 80 set \$1;
#X msg 250 80 set \$1;
#X msg 180 100 3.55814;
#X msg 250 100 3.86207;
#X obj 160 180 translateXYZ 0 0 0;
#X floatatom 220 260 5 0 0 0 - - -, f 5;
#X obj 230 40 loadbang;
#X obj 160 280 text2d 0;
#X obj 70 130 hsl 87 15 -6 6 0 0 empty empty empty -2 -8 0 10 #fcfcfc
#000000 #000000 6450 1;
#X obj 70 150 hsl 88 15 -6 6 0 0 empty empty empty -2 -8 0 10 #fcfcfc
#000000 #000000 7150 1;
#X msg 50 80 set \$1;
#X msg 120 80 set \$1;
#X msg 50 100 3;
#X msg 120 100 3.86207;
#X obj 30 180 translateXYZ 0 0 0;
#X floatatom 90 260 5 0 0 0 - - -, f 5;
#X obj 100 40 loadbang;
#X obj 30 40 gemhead;
#X msg 30 10 set 69;
#X obj 30 280 text2d Score:;
#X obj 30 220 colorRGB 1 1 1;
#X obj 320 50 receive score;
#X obj 370 150 + 1;
#X msg 320 120 1;
#X msg 400 100 0;
#X obj 320 190 send score-no;
#X obj 320 20 receive start;
#X connect 0 0 13 0;
#X connect 1 0 16 0;
#X connect 2 0 32 0;
#X connect 3 0 31 1;
#X connect 3 0 4 0;
#X connect 3 0 34 0;
#X connect 4 0 1 0;
#X connect 5 0 0 0;
#X connect 6 0 16 0;
#X connect 7 0 9 0;
#X connect 7 0 13 1;
#X connect 8 0 10 0;
#X connect 8 0 13 2;
#X connect 9 0 11 0;
#X connect 10 0 12 0;
#X connect 11 0 7 0;
#X connect 12 0 8 0;
#X connect 13 0 6 0;
#X connect 14 0 16 1;
#X connect 15 0 11 0;
#X connect 15 0 12 0;
#X connect 15 0 5 0;
#X connect 17 0 19 0;
#X connect 17 0 23 1;
#X connect 18 0 20 0;
#X connect 18 0 23 2;
#X connect 19 0 21 0;
#X connect 20 0 22 0;
#X connect 21 0 17 0;
#X connect 22 0 18 0;
#X connect 23 0 29 0;
#X connect 24 0 28 1;
#X connect 25 0 21 0;
#X connect 25 0 22 0;
#X connect 25 0 27 0;
#X connect 26 0 23 0;
#X connect 27 0 26 0;
#X connect 29 0 28 0;
#X connect 30 0 2 0;
#X connect 31 0 3 0;
#X connect 32 0 31 0;
#X connect 33 0 3 0;
#X connect 35 0 33 0;
#X restore 10 40 pd score;
#N canvas 572 12 922 738 Green_Tiles 0;
#X obj 190 -90 hsl 87 15 -6 6 0 0 empty empty empty -2 -8 0 10 #fcfcfc
#000000 #000000 4300 1;
#X obj 190 -70 hsl 88 15 -6 6 0 0 empty empty empty -2 -8 0 10 #fcfcfc
#000000 #000000 4350 1;
#X floatatom 190 -20 4 0 0 0 - - -, f 4;
#X floatatom 220 -20 4 0 0 0 - - -, f 4;
#X floatatom 250 -20 4 0 0 0 - - -, f 4;
#X obj 170 -160 gemhead;
#X msg 190 -140 set \$1;
#X msg 260 -140 set \$1;
#X obj 170 -40 translateXYZ 0 0 0;
#X obj 440 -90 hsl 87 15 -6 6 0 0 empty empty empty -2 -8 0 10 #fcfcfc
#000000 #000000 6593 1;
#X obj 440 -70 hsl 88 15 -6 6 0 0 empty empty empty -2 -8 0 10 #fcfcfc
#000000 #000000 5510 1;
#X floatatom 420 -20 4 0 0 0 - - -, f 4;
#X floatatom 450 -20 4 0 0 0 - - -, f 4;
#X floatatom 480 -20 4 0 0 0 - - -, f 4;
#X obj 400 -160 gemhead;
#X msg 420 -140 set \$1;
#X msg 490 -140 set \$1;
#X obj 400 -40 translateXYZ 0 0 0;
#X obj 208 348 hsl 87 15 -6 6 0 0 empty empty empty -2 -8 0 10 #fcfcfc
#000000 #000000 2007 1;
#X obj 208 368 hsl 88 15 -6 6 0 0 empty empty empty -2 -8 0 10 #fcfcfc
#000000 #000000 3190 1;
#X floatatom 188 418 4 0 0 0 - - -, f 4;
#X floatatom 218 418 4 0 0 0 - - -, f 4;
#X floatatom 248 418 4 0 0 0 - - -, f 4;
#X obj 168 278 gemhead;
#X msg 188 298 set \$1;
#X msg 258 298 set \$1;
#X obj 168 398 translateXYZ 0 0 0;
#X obj 308 -82 loadbang;
#X obj 548 -72 loadbang;
#X obj 306 386 loadbang;
#X obj 438 348 hsl 87 15 -6 6 0 0 empty empty empty -2 -8 0 10 #fcfcfc
#000000 #000000 5447 1;
#X obj 438 368 hsl 88 15 -6 6 0 0 empty empty empty -2 -8 0 10 #fcfcfc
#000000 #000000 2030 1;
#X floatatom 418 418 4 0 0 0 - - -, f 4;
#X floatatom 448 418 4 0 0 0 - - -, f 4;
#X floatatom 478 418 4 0 0 0 - - -, f 4;
#X obj 398 278 gemhead;
#X msg 418 298 set \$1;
#X msg 488 298 set \$1;
#X obj 398 398 translateXYZ 0 0 0;
#X obj 540 430 loadbang;
#X obj 170 10 colorRGB 0 1 0;
#X obj 400 10 colorRGB 0 1 0;
#X obj 398 448 colorRGB 0 1 0;
#X obj 168 448 colorRGB 0 1 0;
#X obj 170 130 pix_image;
#X obj 200 50 loadbang;
#X obj 170 200 pix_texture;
#X msg 252 162 env \$1;
#X obj 252 142 hradio 15 1 0 6 empty empty empty 0 -6 0 8 #fcfcfc #000000
#000000 1;
#X msg 252 112 1;
#X obj 394 133 pix_image;
#X obj 424 53 loadbang;
#X obj 394 203 pix_texture;
#X msg 476 165 env \$1;
#X obj 476 145 hradio 15 1 0 6 empty empty empty 0 -6 0 8 #fcfcfc #000000
#000000 1;
#X msg 476 115 1;
#X obj 402 551 pix_image;
#X obj 432 471 loadbang;
#X obj 402 621 pix_texture;
#X msg 484 583 env \$1;
#X obj 484 563 hradio 15 1 0 6 empty empty empty 0 -6 0 8 #fcfcfc #000000
#000000 1;
#X msg 484 533 1;
#X obj 173 542 pix_image;
#X obj 200 470 loadbang;
#X obj 170 610 pix_texture;
#X msg 255 574 env \$1;
#X obj 255 554 hradio 15 1 0 6 empty empty empty 0 -6 0 8 #fcfcfc #000000
#000000 1;
#X msg 255 524 1;
#X msg 424 83 open Art/Grass1.png;
#X msg 200 80 open Art/Grass1.png;
#X msg 432 501 open Art/Grass1.png;
#X msg 203 492 open Art/Grass1.png;
#X obj 650 -90 hsl 87 15 -6 6 0 0 empty empty empty -2 -8 0 10 #fcfcfc
#000000 #000000 3153 1;
#X obj 650 -70 hsl 88 15 -6 6 0 0 empty empty empty -2 -8 0 10 #fcfcfc
#000000 #000000 6670 1;
#X floatatom 630 -20 4 0 0 0 - - -, f 4;
#X floatatom 660 -20 4 0 0 0 - - -, f 4;
#X floatatom 690 -20 4 0 0 0 - - -, f 4;
#X obj 610 -160 gemhead;
#X msg 630 -140 set \$1;
#X msg 700 -140 set \$1;
#X obj 610 -40 translateXYZ 0 0 0;
#X obj 758 -72 loadbang;
#X obj 610 10 colorRGB 0 1 0;
#X obj 604 133 pix_image;
#X obj 634 53 loadbang;
#X obj 604 203 pix_texture;
#X msg 686 165 env \$1;
#X obj 686 145 hradio 15 1 0 6 empty empty empty 0 -6 0 8 #fcfcfc #000000
#000000 1;
#X msg 686 115 1;
#X msg 634 83 open Art/Grass1.png;
#X msg 190 -120 0;
#X msg 260 -120 0;
#X obj 170 240 square 0.8;
#X obj 400 250 square 0.8;
#X obj 610 250 square 0.8;
#X obj 400 660 square 0.8;
#X obj 170 650 square 0.8;
#X msg 490 -120 1.6;
#X msg 630 -120 -1.6;
#X msg 700 -120 3.2;
#X msg 488 318 -3.2;
#X msg 258 318 -1.6;
#X msg 418 318 1.6;
#X msg 190 320 -3.2;
#X msg 420 -120 3.2;
#X connect 0 0 6 0;
#X connect 0 0 8 1;
#X connect 1 0 7 0;
#X connect 1 0 8 2;
#X connect 2 0 40 1;
#X connect 3 0 40 2;
#X connect 4 0 40 3;
#X connect 5 0 8 0;
#X connect 6 0 90 0;
#X connect 7 0 91 0;
#X connect 8 0 40 0;
#X connect 9 0 15 0;
#X connect 9 0 17 1;
#X connect 10 0 16 0;
#X connect 10 0 17 2;
#X connect 11 0 41 1;
#X connect 12 0 41 2;
#X connect 13 0 41 3;
#X connect 14 0 17 0;
#X connect 15 0 104 0;
#X connect 16 0 97 0;
#X connect 17 0 41 0;
#X connect 18 0 24 0;
#X connect 18 0 26 1;
#X connect 19 0 25 0;
#X connect 19 0 26 2;
#X connect 20 0 43 1;
#X connect 21 0 43 2;
#X connect 22 0 43 3;
#X connect 23 0 26 0;
#X connect 24 0 103 0;
#X connect 25 0 101 0;
#X connect 26 0 43 0;
#X connect 27 0 90 0;
#X connect 27 0 91 0;
#X connect 28 0 104 0;
#X connect 28 0 97 0;
#X connect 29 0 103 0;
#X connect 29 0 101 0;
#X connect 30 0 36 0;
#X connect 30 0 38 1;
#X connect 31 0 37 0;
#X connect 31 0 38 2;
#X connect 32 0 42 1;
#X connect 33 0 42 2;
#X connect 34 0 42 3;
#X connect 35 0 38 0;
#X connect 36 0 102 0;
#X connect 37 0 100 0;
#X connect 38 0 42 0;
#X connect 39 0 102 0;
#X connect 39 0 100 0;
#X connect 40 0 44 0;
#X connect 41 0 50 0;
#X connect 42 0 56 0;
#X connect 43 0 62 0;
#X connect 44 0 46 0;
#X connect 45 0 69 0;
#X connect 45 0 49 0;
#X connect 46 0 92 0;
#X connect 47 0 46 0;
#X connect 48 0 47 0;
#X connect 48 0 46 0;
#X connect 49 0 48 0;
#X connect 50 0 52 0;
#X connect 51 0 68 0;
#X connect 51 0 55 0;
#X connect 52 0 93 0;
#X connect 53 0 52 0;
#X connect 54 0 53 0;
#X connect 54 0 52 0;
#X connect 55 0 54 0;
#X connect 56 0 58 0;
#X connect 57 0 70 0;
#X connect 57 0 61 0;
#X connect 58 0 95 0;
#X connect 59 0 58 0;
#X connect 60 0 59 0;
#X connect 60 0 58 0;
#X connect 61 0 60 0;
#X connect 62 0 64 0;
#X connect 63 0 71 0;
#X connect 63 0 67 0;
#X connect 64 0 96 0;
#X connect 65 0 64 0;
#X connect 66 0 65 0;
#X connect 66 0 64 0;
#X connect 67 0 66 0;
#X connect 68 0 50 0;
#X connect 69 0 44 0;
#X connect 70 0 56 0;
#X connect 71 0 62 0;
#X connect 72 0 78 0;
#X connect 72 0 80 1;
#X connect 73 0 79 0;
#X connect 73 0 80 2;
#X connect 74 0 82 1;
#X connect 75 0 82 2;
#X connect 76 0 82 3;
#X connect 77 0 80 0;
#X connect 78 0 98 0;
#X connect 79 0 99 0;
#X connect 80 0 82 0;
#X connect 81 0 98 0;
#X connect 81 0 99 0;
#X connect 82 0 83 0;
#X connect 83 0 85 0;
#X connect 84 0 89 0;
#X connect 84 0 88 0;
#X connect 85 0 94 0;
#X connect 86 0 85 0;
#X connect 87 0 86 0;
#X connect 87 0 85 0;
#X connect 88 0 87 0;
#X connect 89 0 83 0;
#X connect 90 0 0 0;
#X connect 90 0 8 1;
#X connect 91 0 8 2;
#X connect 91 0 1 0;
#X connect 97 0 17 2;
#X connect 97 0 10 0;
#X connect 98 0 72 0;
#X connect 98 0 80 1;
#X connect 99 0 80 2;
#X connect 99 0 73 0;
#X connect 100 0 38 2;
#X connect 100 0 31 0;
#X connect 101 0 26 2;
#X connect 101 0 19 0;
#X connect 102 0 30 0;
#X connect 102 0 38 1;
#X connect 103 0 18 0;
#X connect 103 0 26 1;
#X connect 104 0 9 0;
#X connect 104 0 17 1;
#X restore 10 210 pd Green_Tiles;
#N canvas 481 0 559 754 WaterBlue_Tiles 0;
#X obj 160 150 hsl 87 15 -6 6 0 0 empty empty empty -2 -8 0 10 #fcfcfc
#000000 #000000 2007 1;
#X obj 160 170 hsl 88 15 -6 6 0 0 empty empty empty -2 -8 0 10 #fcfcfc
#000000 #000000 2030 1;
#X floatatom 140 220 4 0 0 0 - - -, f 4;
#X floatatom 170 220 4 0 0 0 - - -, f 4;
#X floatatom 200 220 4 0 0 0 - - -, f 4;
#X obj 120 80 gemhead;
#X msg 140 100 set \$1;
#X msg 210 100 set \$1;
#X obj 120 200 translateXYZ 0 0 0;
#X obj 560 140 hsl 87 15 -6 6 0 0 empty empty empty -2 -8 0 10 #fcfcfc
#000000 #000000 3153 1;
#X obj 560 160 hsl 88 15 -6 6 0 0 empty empty empty -2 -8 0 10 #fcfcfc
#000000 #000000 2030 1;
#X floatatom 540 210 4 0 0 0 - - -, f 4;
#X floatatom 570 210 4 0 0 0 - - -, f 4;
#X floatatom 600 210 4 0 0 0 - - -, f 4;
#X obj 520 70 gemhead;
#X msg 540 90 set \$1;
#X msg 610 90 set \$1;
#X obj 1030 130 hsl 87 15 -6 6 0 0 empty empty empty -2 -8 0 10 #fcfcfc
#000000 #000000 4300 1;
#X obj 1030 150 hsl 88 15 -6 6 0 0 empty empty empty -2 -8 0 10 #fcfcfc
#000000 #000000 2030 1;
#X floatatom 1010 200 4 0 0 0 - - -, f 4;
#X floatatom 1040 200 4 0 0 0 - - -, f 4;
#X floatatom 1070 200 4 0 0 0 - - -, f 4;
#X obj 990 60 gemhead;
#X msg 1010 80 set \$1;
#X msg 1080 80 set \$1;
#X obj 1120 190 loadbang;
#X obj 670 190 loadbang;
#X obj 270 200 loadbang;
#X obj 150 640 hsl 87 15 -6 6 0 0 empty empty empty -2 -8 0 10 #fcfcfc
#000000 #000000 3153 1;
#X obj 150 660 hsl 88 15 -6 6 0 0 empty empty empty -2 -8 0 10 #fcfcfc
#000000 #000000 4350 1;
#X floatatom 130 710 4 0 0 0 - - -, f 4;
#X floatatom 160 710 4 0 0 0 - - -, f 4;
#X floatatom 190 710 4 0 0 0 - - -, f 4;
#X obj 110 570 gemhead;
#X msg 130 590 set \$1;
#X msg 200 590 set \$1;
#X obj 110 690 translateXYZ 0 0 0;
#X obj 240 710 loadbang;
#X obj 550 650 hsl 87 15 -6 6 0 0 empty empty empty -2 -8 0 10 #fcfcfc
#000000 #000000 3153 1;
#X obj 550 670 hsl 88 15 -6 6 0 0 empty empty empty -2 -8 0 10 #fcfcfc
#000000 #000000 5510 1;
#X floatatom 530 720 4 0 0 0 - - -, f 4;
#X floatatom 560 720 4 0 0 0 - - -, f 4;
#X floatatom 590 720 4 0 0 0 - - -, f 4;
#X obj 510 580 gemhead;
#X msg 530 600 set \$1;
#X msg 600 600 set \$1;
#X obj 510 700 translateXYZ 0 0 0;
#X obj 630 730 loadbang;
#X obj 1020 650 hsl 87 15 -6 6 0 0 empty empty empty -2 -8 0 10 #fcfcfc
#000000 #000000 4300 1;
#X obj 1020 670 hsl 88 15 -6 6 0 0 empty empty empty -2 -8 0 10 #fcfcfc
#000000 #000000 6670 1;
#X floatatom 1000 720 4 0 0 0 - - -, f 4;
#X floatatom 1030 720 4 0 0 0 - - -, f 4;
#X floatatom 1060 720 4 0 0 0 - - -, f 4;
#X obj 980 580 gemhead;
#X msg 1000 600 set \$1;
#X msg 1070 600 set \$1;
#X obj 980 700 translateXYZ 0 0 0;
#X obj 1100 740 loadbang;
#X obj 520 190 translateXYZ 0 0 0;
#X obj 990 180 translateXYZ 0 0 0;
#X obj 120 360 pix_image;
#X obj 140 280 loadbang;
#X obj 120 420 pix_texture;
#X msg 190 390 env \$1;
#X obj 190 360 hradio 15 1 0 6 empty empty empty 0 -6 0 8 #fcfcfc #000000
#000000 1;
#X msg 190 330 1;
#X obj 520 360 pix_image;
#X obj 540 270 loadbang;
#X obj 520 410 pix_texture;
#X msg 590 380 env \$1;
#X obj 590 360 hradio 15 1 0 6 empty empty empty 0 -6 0 8 #fcfcfc #000000
#000000 1;
#X msg 590 330 1;
#X obj 990 340 pix_image;
#X obj 1020 270 loadbang;
#X obj 990 401 pix_texture;
#X msg 1072 363 env \$1;
#X obj 1072 343 hradio 15 1 0 6 empty empty empty 0 -6 0 8 #fcfcfc
#000000 #000000 1;
#X msg 1070 320 1;
#X obj 110 890 pix_image;
#X obj 130 790 loadbang;
#X obj 110 940 pix_texture;
#X msg 190 910 env \$1;
#X obj 190 880 hradio 15 1 0 6 empty empty empty 0 -6 0 8 #fcfcfc #000000
#000000 1;
#X msg 190 860 1;
#X obj 510 890 pix_image;
#X obj 530 800 loadbang;
#X obj 510 950 pix_texture;
#X msg 580 920 env \$1;
#X obj 580 890 hradio 15 1 0 6 empty empty empty 0 -6 0 8 #fcfcfc #000000
#000000 1;
#X msg 580 860 1;
#X obj 980 900 pix_image;
#X obj 1000 800 loadbang;
#X obj 980 940 pix_texture;
#X msg 1060 940 env \$1;
#X obj 1060 900 hradio 15 1 0 6 empty empty empty 0 -6 0 8 #fcfcfc
#000000 #000000 1;
#X msg 1060 870 1;
#X msg 140 310 open Art/Water.png;
#X msg 540 300 open Art/Water.png;
#X msg 1020 300 open Art/Water.png;
#X msg 1000 840 open Art/Water.png;
#X msg 530 830 open Art/Water.png;
#X msg 130 830 open Art/Water.png;
#X obj 230 280 receive red;
#X obj 310 280 receive blue;
#X obj 610 270 receive red;
#X obj 720 270 receive blue;
#X obj 1110 270 receive red;
#X obj 1190 270 receive blue;
#X obj 1090 810 receive red;
#X obj 1170 810 receive blue;
#X obj 600 800 receive red;
#X obj 700 800 receive blue;
#X obj 220 800 receive red;
#X obj 300 800 receive blue;
#X msg 270 310 open Art/Sand.png;
#X msg 680 300 open Art/Sand.png;
#X msg 1150 300 open Art/Sand.png;
#X msg 1130 840 open Art/Sand.png;
#X msg 660 830 open Art/Sand.png;
#X msg 260 830 open Art/Sand.png;
#X obj 1410 140 hsl 87 15 -6 6 0 0 empty empty empty -2 -8 0 10 #fcfcfc
#000000 #000000 5447 1;
#X obj 1410 160 hsl 88 15 -6 6 0 0 empty empty empty -2 -8 0 10 #fcfcfc
#000000 #000000 4350 1;
#X floatatom 1390 210 4 0 0 0 - - -, f 4;
#X floatatom 1420 210 4 0 0 0 - - -, f 4;
#X floatatom 1450 210 4 0 0 0 - - -, f 4;
#X obj 1370 70 gemhead;
#X msg 1390 90 set \$1;
#X msg 1460 90 set \$1;
#X obj 1500 200 loadbang;
#X obj 1370 190 translateXYZ 0 0 0;
#X obj 1370 350 pix_image;
#X obj 1400 280 loadbang;
#X obj 1370 411 pix_texture;
#X msg 1452 373 env \$1;
#X obj 1452 353 hradio 15 1 0 6 empty empty empty 0 -6 0 8 #fcfcfc
#000000 #000000 0;
#X msg 1450 330 1;
#X msg 1400 310 open Art/Water.png;
#X obj 1490 280 receive red;
#X obj 1570 280 receive blue;
#X msg 1530 310 open Art/Sand.png;
#X obj 1800 140 hsl 87 15 -6 6 0 0 empty empty empty -2 -8 0 10 #fcfcfc
#000000 #000000 5447 1;
#X obj 1800 160 hsl 88 15 -6 6 0 0 empty empty empty -2 -8 0 10 #fcfcfc
#000000 #000000 3190 1;
#X floatatom 1780 210 4 0 0 0 - - -, f 4;
#X floatatom 1810 210 4 0 0 0 - - -, f 4;
#X floatatom 1840 210 4 0 0 0 - - -, f 4;
#X obj 1760 70 gemhead;
#X msg 1780 90 set \$1;
#X msg 1850 90 set \$1;
#X obj 1890 200 loadbang;
#X obj 1760 190 translateXYZ 0 0 0;
#X obj 1760 350 pix_image;
#X obj 1790 280 loadbang;
#X obj 1760 411 pix_texture;
#X msg 1842 373 env \$1;
#X obj 1842 353 hradio 15 1 0 6 empty empty empty 0 -6 0 8 #fcfcfc
#000000 #000000 1;
#X msg 1840 330 1;
#X msg 1790 310 open Art/Water.png;
#X obj 1880 280 receive red;
#X obj 1960 280 receive blue;
#X msg 1920 310 open Art/Sand.png;
#X obj 1420 670 hsl 87 15 -6 6 0 0 empty empty empty -2 -8 0 10 #fcfcfc
#000000 #000000 5447 1;
#X obj 1420 690 hsl 88 15 -6 6 0 0 empty empty empty -2 -8 0 10 #fcfcfc
#000000 #000000 6670 1;
#X floatatom 1400 740 4 0 0 0 - - -, f 4;
#X floatatom 1430 740 4 0 0 0 - - -, f 4;
#X floatatom 1460 740 4 0 0 0 - - -, f 4;
#X obj 1380 600 gemhead;
#X msg 1400 620 set \$1;
#X msg 1470 620 set \$1;
#X obj 1510 730 loadbang;
#X obj 1380 720 translateXYZ 0 0 0;
#X obj 1380 880 pix_image;
#X obj 1410 810 loadbang;
#X obj 1380 941 pix_texture;
#X msg 1462 903 env \$1;
#X obj 1462 883 hradio 15 1 0 6 empty empty empty 0 -6 0 8 #fcfcfc
#000000 #000000 1;
#X msg 1460 860 1;
#X msg 1410 840 open Art/Water.png;
#X obj 1500 810 receive red;
#X obj 1580 810 receive blue;
#X msg 1540 840 open Art/Sand.png;
#X obj 1800 670 hsl 87 15 -6 6 0 0 empty empty empty -2 -8 0 10 #fcfcfc
#000000 #000000 6593 1;
#X obj 1800 690 hsl 88 15 -6 6 0 0 empty empty empty -2 -8 0 10 #fcfcfc
#000000 #000000 6670 1;
#X floatatom 1780 740 4 0 0 0 - - -, f 4;
#X floatatom 1810 740 4 0 0 0 - - -, f 4;
#X floatatom 1840 740 4 0 0 0 - - -, f 4;
#X obj 1760 600 gemhead;
#X msg 1780 620 set \$1;
#X msg 1850 620 set \$1;
#X obj 1890 730 loadbang;
#X obj 1760 720 translateXYZ 0 0 0;
#X obj 1760 880 pix_image;
#X obj 1790 810 loadbang;
#X obj 1760 941 pix_texture;
#X msg 1842 903 env \$1;
#X obj 1842 883 hradio 15 1 0 6 empty empty empty 0 -6 0 8 #fcfcfc
#000000 #000000 1;
#X msg 1840 860 1;
#X msg 1790 840 open Art/Water.png;
#X obj 1880 810 receive red;
#X obj 1960 810 receive blue;
#X msg 1920 840 open Art/Sand.png;
#X msg 140 120 -3.2;
#X msg 210 120 -3.2;
#X msg 610 110 -3.2;
#X msg 1010 100 0;
#X msg 1080 100 -3.2;
#X msg 1390 110 1.6;
#X msg 1780 110 1.6;
#X msg 1850 110 -1.6;
#X msg 200 610 0;
#X msg 530 620 -1.6;
#X msg 600 620 1.6;
#X msg 1000 620 0;
#X msg 1070 620 3.2;
#X msg 1400 640 1.6;
#X msg 1470 640 3.2;
#X msg 1780 640 3.2;
#X msg 1850 640 3.2;
#X obj 120 460 square 0.8;
#X obj 520 460 square 0.8;
#X msg 540 110 -1.6;
#X obj 990 430 square 0.8;
#X obj 1370 440 square 0.8;
#X obj 1760 440 square 0.8;
#X obj 1760 970 square 0.8;
#X obj 1380 970 square 0.8;
#X obj 980 990 square 0.8;
#X obj 510 990 square 0.8;
#X obj 110 980 square 0.8;
#X msg 130 610 -1.6;
#X msg 1460 110 0;
#X text 1000 10 WATER;
#X obj 410 170 tgl 15 0 empty empty empty 17 7 0 10 #fcfcfc #000000
#000000 1 1;
#X obj 430 170 bng 15 250 50 0 empty empty empty 17 7 0 10 #fcfcfc
#000000 #000000;
#X obj 460 170 tgl 15 0 empty empty empty 17 7 0 10 #fcfcfc #000000
#000000 0 1;
#X obj 310 140 spigot;
#X obj 360 140 spigot;
#X obj 410 140 loadbang;
#X obj 840 550 send red;
#X obj 900 550 send blue;
#X obj 840 520 bng 15 250 50 0 empty empty empty 17 7 0 10 #fcfcfc
#000000 #000000;
#X obj 900 510 bng 15 250 50 0 empty empty empty 17 7 0 10 #fcfcfc
#000000 #000000;
#X obj 340 200 spigot;
#X obj 300 170 receive mistake1;
#X obj 120 250 colorRGB 1 0 0 0;
#X obj 520 240 colorRGB 1 0 0 0;
#X obj 990 230 colorRGB 1 0 0 0;
#X obj 1370 240 colorRGB 1 0 0 0;
#X obj 1760 240 colorRGB 1 0 0 0;
#X obj 1760 770 colorRGB 1 0 0 0;
#X obj 1380 770 colorRGB 1 0 0 0;
#X obj 980 750 colorRGB 1 0 0 0;
#X obj 510 750 colorRGB 1 0 0 0;
#X obj 110 740 colorRGB 1 0 0 0;
#X msg 340 225 0;
#X obj 310 110 receive blue;
#X obj 390 110 receive red;
#X obj 830 160 tgl 15 0 empty empty empty 17 7 0 10 #fcfcfc #000000
#000000 1 1;
#X obj 850 160 bng 15 250 50 0 empty empty empty 17 7 0 10 #fcfcfc
#000000 #000000;
#X obj 880 160 tgl 15 0 empty empty empty 17 7 0 10 #fcfcfc #000000
#000000 0 1;
#X obj 730 130 spigot;
#X obj 780 130 spigot;
#X obj 830 130 loadbang;
#X obj 760 190 spigot;
#X msg 760 215 0;
#X obj 730 100 receive blue;
#X obj 810 100 receive red;
#X obj 1280 160 tgl 15 0 empty empty empty 17 7 0 10 #fcfcfc #000000
#000000 1 1;
#X obj 1300 160 bng 15 250 50 0 empty empty empty 17 7 0 10 #fcfcfc
#000000 #000000;
#X obj 1330 160 tgl 15 0 empty empty empty 17 7 0 10 #fcfcfc #000000
#000000 0 1;
#X obj 1180 130 spigot;
#X obj 1230 130 spigot;
#X obj 1280 130 loadbang;
#X obj 1210 190 spigot;
#X msg 1210 215 0;
#X obj 1180 100 receive blue;
#X obj 1260 100 receive red;
#X obj 1650 160 tgl 15 0 empty empty empty 17 7 0 10 #fcfcfc #000000
#000000 1 1;
#X obj 1670 160 bng 15 250 50 0 empty empty empty 17 7 0 10 #fcfcfc
#000000 #000000;
#X obj 1700 160 tgl 15 0 empty empty empty 17 7 0 10 #fcfcfc #000000
#000000 0 1;
#X obj 1550 130 spigot;
#X obj 1600 130 spigot;
#X obj 1650 130 loadbang;
#X obj 1580 190 spigot;
#X msg 1580 215 0;
#X obj 1550 100 receive blue;
#X obj 1630 100 receive red;
#X obj 2040 160 tgl 15 0 empty empty empty 17 7 0 10 #fcfcfc #000000
#000000 1 1;
#X obj 2060 160 bng 15 250 50 0 empty empty empty 17 7 0 10 #fcfcfc
#000000 #000000;
#X obj 2090 160 tgl 15 0 empty empty empty 17 7 0 10 #fcfcfc #000000
#000000 0 1;
#X obj 1940 130 spigot;
#X obj 1990 130 spigot;
#X obj 2040 130 loadbang;
#X obj 1970 190 spigot;
#X msg 1970 215 0;
#X obj 1940 100 receive blue;
#X obj 2020 100 receive red;
#X obj 2050 700 tgl 15 0 empty empty empty 17 7 0 10 #fcfcfc #000000
#000000 1 1;
#X obj 2070 700 bng 15 250 50 0 empty empty empty 17 7 0 10 #fcfcfc
#000000 #000000;
#X obj 2100 700 tgl 15 0 empty empty empty 17 7 0 10 #fcfcfc #000000
#000000 0 1;
#X obj 1950 670 spigot;
#X obj 2000 670 spigot;
#X obj 2050 670 loadbang;
#X obj 1980 730 spigot;
#X msg 1980 755 0;
#X obj 1950 640 receive blue;
#X obj 2030 640 receive red;
#X obj 1660 700 tgl 15 0 empty empty empty 17 7 0 10 #fcfcfc #000000
#000000 1 1;
#X obj 1680 700 bng 15 250 50 0 empty empty empty 17 7 0 10 #fcfcfc
#000000 #000000;
#X obj 1710 700 tgl 15 0 empty empty empty 17 7 0 10 #fcfcfc #000000
#000000 0 1;
#X obj 1560 670 spigot;
#X obj 1610 670 spigot;
#X obj 1660 670 loadbang;
#X obj 1590 730 spigot;
#X msg 1590 755 0;
#X obj 1560 640 receive blue;
#X obj 1640 640 receive red;
#X obj 1260 700 tgl 15 0 empty empty empty 17 7 0 10 #fcfcfc #000000
#000000 1 1;
#X obj 1280 700 bng 15 250 50 0 empty empty empty 17 7 0 10 #fcfcfc
#000000 #000000;
#X obj 1310 700 tgl 15 0 empty empty empty 17 7 0 10 #fcfcfc #000000
#000000 0 1;
#X obj 1160 670 spigot;
#X obj 1210 670 spigot;
#X obj 1260 670 loadbang;
#X obj 1190 730 spigot;
#X msg 1190 755 0;
#X obj 1160 640 receive blue;
#X obj 1240 640 receive red;
#X obj 800 690 tgl 15 0 empty empty empty 17 7 0 10 #fcfcfc #000000
#000000 1 1;
#X obj 820 690 bng 15 250 50 0 empty empty empty 17 7 0 10 #fcfcfc
#000000 #000000;
#X obj 850 690 tgl 15 0 empty empty empty 17 7 0 10 #fcfcfc #000000
#000000 0 1;
#X obj 700 660 spigot;
#X obj 750 660 spigot;
#X obj 800 660 loadbang;
#X obj 730 720 spigot;
#X msg 730 745 0;
#X obj 700 630 receive blue;
#X obj 780 630 receive red;
#X obj 400 680 tgl 15 0 empty empty empty 17 7 0 10 #fcfcfc #000000
#000000 1 1;
#X obj 420 680 bng 15 250 50 0 empty empty empty 17 7 0 10 #fcfcfc
#000000 #000000;
#X obj 450 680 tgl 15 0 empty empty empty 17 7 0 10 #fcfcfc #000000
#000000 0 1;
#X obj 300 650 spigot;
#X obj 350 650 spigot;
#X obj 400 650 loadbang;
#X obj 330 710 spigot;
#X msg 330 735 0;
#X obj 300 620 receive blue;
#X obj 380 620 receive red;
#X obj 720 160 receive mistake2;
#X obj 1170 160 receive mistake3;
#X obj 1540 160 receive mistake4;
#X obj 1930 160 receive mistake5;
#X obj 1940 700 receive mistake10;
#X obj 1550 700 receive mistake9;
#X obj 1150 700 receive mistake8;
#X obj 690 690 receive mistake7;
#X obj 290 680 receive mistake6;
#X connect 0 0 6 0;
#X connect 0 0 8 1;
#X connect 1 0 7 0;
#X connect 1 0 8 2;
#X connect 2 0 243 1;
#X connect 3 0 243 2;
#X connect 4 0 243 3;
#X connect 5 0 8 0;
#X connect 6 0 200 0;
#X connect 7 0 201 0;
#X connect 8 0 243 0;
#X connect 9 0 15 0;
#X connect 9 0 58 1;
#X connect 10 0 16 0;
#X connect 10 0 58 2;
#X connect 11 0 244 1;
#X connect 12 0 244 2;
#X connect 13 0 244 3;
#X connect 14 0 58 0;
#X connect 15 0 219 0;
#X connect 16 0 202 0;
#X connect 17 0 23 0;
#X connect 17 0 59 1;
#X connect 18 0 24 0;
#X connect 18 0 59 2;
#X connect 19 0 245 1;
#X connect 20 0 245 2;
#X connect 21 0 245 3;
#X connect 22 0 59 0;
#X connect 23 0 203 0;
#X connect 24 0 204 0;
#X connect 25 0 203 0;
#X connect 25 0 204 0;
#X connect 26 0 219 0;
#X connect 26 0 202 0;
#X connect 27 0 200 0;
#X connect 27 0 201 0;
#X connect 28 0 34 0;
#X connect 28 0 36 1;
#X connect 29 0 36 2;
#X connect 30 0 252 1;
#X connect 31 0 252 2;
#X connect 32 0 252 3;
#X connect 33 0 36 0;
#X connect 34 0 228 0;
#X connect 35 0 208 0;
#X connect 36 0 252 0;
#X connect 37 0 228 0;
#X connect 37 0 208 0;
#X connect 38 0 44 0;
#X connect 38 0 46 1;
#X connect 39 0 46 2;
#X connect 40 0 251 1;
#X connect 41 0 251 2;
#X connect 42 0 251 3;
#X connect 43 0 46 0;
#X connect 44 0 209 0;
#X connect 45 0 210 0;
#X connect 46 0 251 0;
#X connect 47 0 209 0;
#X connect 47 0 210 0;
#X connect 48 0 54 0;
#X connect 48 0 56 1;
#X connect 49 0 56 2;
#X connect 50 0 250 1;
#X connect 51 0 250 2;
#X connect 52 0 250 3;
#X connect 53 0 56 0;
#X connect 54 0 211 0;
#X connect 55 0 212 0;
#X connect 56 0 250 0;
#X connect 57 0 211 0;
#X connect 57 0 212 0;
#X connect 58 0 244 0;
#X connect 59 0 245 0;
#X connect 60 0 62 0;
#X connect 61 0 96 0;
#X connect 61 0 65 0;
#X connect 62 0 217 0;
#X connect 63 0 62 0;
#X connect 64 0 63 0;
#X connect 64 0 62 0;
#X connect 65 0 64 0;
#X connect 66 0 68 0;
#X connect 67 0 97 0;
#X connect 67 0 71 0;
#X connect 68 0 218 0;
#X connect 69 0 68 0;
#X connect 70 0 69 0;
#X connect 70 0 68 0;
#X connect 71 0 70 0;
#X connect 72 0 74 0;
#X connect 73 0 98 0;
#X connect 73 0 77 0;
#X connect 74 0 220 0;
#X connect 75 0 74 0;
#X connect 76 0 75 0;
#X connect 76 0 74 0;
#X connect 77 0 76 0;
#X connect 78 0 80 0;
#X connect 79 0 101 0;
#X connect 79 0 83 0;
#X connect 80 0 227 0;
#X connect 81 0 80 0;
#X connect 82 0 81 0;
#X connect 82 0 80 0;
#X connect 83 0 82 0;
#X connect 84 0 86 0;
#X connect 85 0 100 0;
#X connect 85 0 89 0;
#X connect 86 0 226 0;
#X connect 87 0 86 0;
#X connect 88 0 87 0;
#X connect 88 0 86 0;
#X connect 89 0 88 0;
#X connect 90 0 92 0;
#X connect 91 0 99 0;
#X connect 91 0 95 0;
#X connect 92 0 225 0;
#X connect 93 0 92 0;
#X connect 94 0 93 0;
#X connect 94 0 92 0;
#X connect 95 0 94 0;
#X connect 96 0 60 0;
#X connect 96 0 65 0;
#X connect 97 0 66 0;
#X connect 97 0 71 0;
#X connect 98 0 72 0;
#X connect 98 0 77 0;
#X connect 99 0 90 0;
#X connect 99 0 95 0;
#X connect 100 0 84 0;
#X connect 100 0 89 0;
#X connect 101 0 78 0;
#X connect 101 0 83 0;
#X connect 102 0 96 0;
#X connect 103 0 114 0;
#X connect 104 0 97 0;
#X connect 105 0 115 0;
#X connect 106 0 98 0;
#X connect 107 0 116 0;
#X connect 108 0 99 0;
#X connect 109 0 117 0;
#X connect 110 0 100 0;
#X connect 111 0 118 0;
#X connect 112 0 101 0;
#X connect 113 0 119 0;
#X connect 114 0 65 0;
#X connect 114 0 60 0;
#X connect 115 0 71 0;
#X connect 115 0 66 0;
#X connect 116 0 77 0;
#X connect 116 0 72 0;
#X connect 117 0 95 0;
#X connect 117 0 90 0;
#X connect 118 0 89 0;
#X connect 118 0 84 0;
#X connect 119 0 83 0;
#X connect 119 0 78 0;
#X connect 120 0 126 0;
#X connect 120 0 129 1;
#X connect 121 0 127 0;
#X connect 121 0 129 2;
#X connect 122 0 246 1;
#X connect 123 0 246 2;
#X connect 124 0 246 3;
#X connect 125 0 129 0;
#X connect 126 0 205 0;
#X connect 127 0 229 0;
#X connect 128 0 205 0;
#X connect 128 0 229 0;
#X connect 129 0 246 0;
#X connect 130 0 132 0;
#X connect 131 0 136 0;
#X connect 131 0 135 0;
#X connect 132 0 221 0;
#X connect 133 0 132 0;
#X connect 134 0 133 0;
#X connect 134 0 132 0;
#X connect 135 0 134 0;
#X connect 136 0 130 0;
#X connect 136 0 135 0;
#X connect 137 0 136 0;
#X connect 138 0 139 0;
#X connect 139 0 135 0;
#X connect 139 0 130 0;
#X connect 140 0 146 0;
#X connect 140 0 149 1;
#X connect 141 0 147 0;
#X connect 141 0 149 2;
#X connect 142 0 247 1;
#X connect 143 0 247 2;
#X connect 144 0 247 3;
#X connect 145 0 149 0;
#X connect 146 0 206 0;
#X connect 147 0 207 0;
#X connect 148 0 206 0;
#X connect 148 0 207 0;
#X connect 149 0 247 0;
#X connect 150 0 152 0;
#X connect 151 0 156 0;
#X connect 151 0 155 0;
#X connect 152 0 222 0;
#X connect 153 0 152 0;
#X connect 154 0 153 0;
#X connect 154 0 152 0;
#X connect 155 0 154 0;
#X connect 156 0 150 0;
#X connect 156 0 155 0;
#X connect 157 0 156 0;
#X connect 158 0 159 0;
#X connect 159 0 155 0;
#X connect 159 0 150 0;
#X connect 160 0 166 0;
#X connect 160 0 169 1;
#X connect 161 0 167 0;
#X connect 161 0 169 2;
#X connect 162 0 249 1;
#X connect 163 0 249 2;
#X connect 164 0 249 3;
#X connect 165 0 169 0;
#X connect 166 0 213 0;
#X connect 167 0 214 0;
#X connect 168 0 213 0;
#X connect 168 0 214 0;
#X connect 169 0 249 0;
#X connect 170 0 172 0;
#X connect 171 0 176 0;
#X connect 171 0 175 0;
#X connect 172 0 224 0;
#X connect 173 0 172 0;
#X connect 174 0 173 0;
#X connect 174 0 172 0;
#X connect 175 0 174 0;
#X connect 176 0 170 0;
#X connect 176 0 175 0;
#X connect 177 0 176 0;
#X connect 178 0 179 0;
#X connect 179 0 175 0;
#X connect 179 0 170 0;
#X connect 180 0 186 0;
#X connect 180 0 189 1;
#X connect 181 0 187 0;
#X connect 181 0 189 2;
#X connect 182 0 248 1;
#X connect 183 0 248 2;
#X connect 184 0 248 3;
#X connect 185 0 189 0;
#X connect 186 0 215 0;
#X connect 187 0 216 0;
#X connect 188 0 215 0;
#X connect 188 0 216 0;
#X connect 189 0 248 0;
#X connect 190 0 192 0;
#X connect 191 0 196 0;
#X connect 191 0 195 0;
#X connect 192 0 223 0;
#X connect 193 0 192 0;
#X connect 194 0 193 0;
#X connect 194 0 192 0;
#X connect 195 0 194 0;
#X connect 196 0 190 0;
#X connect 196 0 195 0;
#X connect 197 0 196 0;
#X connect 198 0 199 0;
#X connect 199 0 195 0;
#X connect 199 0 190 0;
#X connect 200 0 0 0;
#X connect 200 0 8 1;
#X connect 201 0 8 2;
#X connect 201 0 1 0;
#X connect 202 0 10 0;
#X connect 202 0 58 2;
#X connect 203 0 17 0;
#X connect 203 0 59 1;
#X connect 204 0 18 0;
#X connect 204 0 59 2;
#X connect 205 0 120 0;
#X connect 205 0 129 1;
#X connect 206 0 140 0;
#X connect 206 0 149 1;
#X connect 207 0 141 0;
#X connect 207 0 149 2;
#X connect 208 0 36 2;
#X connect 208 0 29 0;
#X connect 209 0 38 0;
#X connect 209 0 46 1;
#X connect 210 0 46 2;
#X connect 210 0 39 0;
#X connect 211 0 48 0;
#X connect 211 0 56 1;
#X connect 212 0 56 2;
#X connect 212 0 49 0;
#X connect 213 0 160 0;
#X connect 213 0 169 1;
#X connect 214 0 161 0;
#X connect 214 0 169 2;
#X connect 215 0 180 0;
#X connect 215 0 189 1;
#X connect 216 0 181 0;
#X connect 216 0 189 2;
#X connect 219 0 9 0;
#X connect 219 0 58 1;
#X connect 228 0 28 0;
#X connect 228 0 36 1;
#X connect 229 0 121 0;
#X connect 229 0 129 2;
#X connect 231 0 232 0;
#X connect 231 0 234 1;
#X connect 231 0 241 1;
#X connect 232 0 233 0;
#X connect 233 0 235 1;
#X connect 234 0 231 0;
#X connect 235 0 231 0;
#X connect 236 0 233 0;
#X connect 239 0 237 0;
#X connect 240 0 238 0;
#X connect 241 0 253 0;
#X connect 242 0 241 0;
#X connect 243 0 60 0;
#X connect 244 0 66 0;
#X connect 245 0 72 0;
#X connect 246 0 130 0;
#X connect 247 0 150 0;
#X connect 248 0 190 0;
#X connect 249 0 170 0;
#X connect 250 0 90 0;
#X connect 251 0 84 0;
#X connect 252 0 78 0;
#X connect 253 0 64 0;
#X connect 254 0 234 0;
#X connect 255 0 235 0;
#X connect 256 0 257 0;
#X connect 256 0 259 1;
#X connect 256 0 262 1;
#X connect 257 0 258 0;
#X connect 258 0 260 1;
#X connect 259 0 256 0;
#X connect 260 0 256 0;
#X connect 261 0 258 0;
#X connect 262 0 263 0;
#X connect 263 0 70 0;
#X connect 264 0 259 0;
#X connect 265 0 260 0;
#X connect 266 0 267 0;
#X connect 266 0 269 1;
#X connect 266 0 272 1;
#X connect 267 0 268 0;
#X connect 268 0 270 1;
#X connect 269 0 266 0;
#X connect 270 0 266 0;
#X connect 271 0 268 0;
#X connect 272 0 273 0;
#X connect 273 0 76 0;
#X connect 274 0 269 0;
#X connect 275 0 270 0;
#X connect 276 0 277 0;
#X connect 276 0 279 1;
#X connect 276 0 282 1;
#X connect 277 0 278 0;
#X connect 278 0 280 1;
#X connect 279 0 276 0;
#X connect 280 0 276 0;
#X connect 281 0 278 0;
#X connect 282 0 283 0;
#X connect 283 0 134 0;
#X connect 284 0 279 0;
#X connect 285 0 280 0;
#X connect 286 0 287 0;
#X connect 286 0 289 1;
#X connect 286 0 292 1;
#X connect 287 0 288 0;
#X connect 288 0 290 1;
#X connect 289 0 286 0;
#X connect 290 0 286 0;
#X connect 291 0 288 0;
#X connect 292 0 293 0;
#X connect 293 0 154 0;
#X connect 294 0 289 0;
#X connect 295 0 290 0;
#X connect 296 0 297 0;
#X connect 296 0 299 1;
#X connect 296 0 302 1;
#X connect 297 0 298 0;
#X connect 298 0 300 1;
#X connect 299 0 296 0;
#X connect 300 0 296 0;
#X connect 301 0 298 0;
#X connect 302 0 303 0;
#X connect 303 0 194 0;
#X connect 304 0 299 0;
#X connect 305 0 300 0;
#X connect 306 0 307 0;
#X connect 306 0 309 1;
#X connect 306 0 312 1;
#X connect 307 0 308 0;
#X connect 308 0 310 1;
#X connect 309 0 306 0;
#X connect 310 0 306 0;
#X connect 311 0 308 0;
#X connect 312 0 313 0;
#X connect 313 0 174 0;
#X connect 314 0 309 0;
#X connect 315 0 310 0;
#X connect 316 0 317 0;
#X connect 316 0 319 1;
#X connect 316 0 322 1;
#X connect 317 0 318 0;
#X connect 318 0 320 1;
#X connect 319 0 316 0;
#X connect 320 0 316 0;
#X connect 321 0 318 0;
#X connect 322 0 323 0;
#X connect 323 0 94 0;
#X connect 324 0 319 0;
#X connect 325 0 320 0;
#X connect 326 0 327 0;
#X connect 326 0 329 1;
#X connect 326 0 332 1;
#X connect 327 0 328 0;
#X connect 328 0 330 1;
#X connect 329 0 326 0;
#X connect 330 0 326 0;
#X connect 331 0 328 0;
#X connect 332 0 333 0;
#X connect 333 0 88 0;
#X connect 334 0 329 0;
#X connect 335 0 330 0;
#X connect 336 0 337 0;
#X connect 336 0 339 1;
#X connect 336 0 342 1;
#X connect 337 0 338 0;
#X connect 338 0 340 1;
#X connect 339 0 336 0;
#X connect 340 0 336 0;
#X connect 341 0 338 0;
#X connect 342 0 343 0;
#X connect 343 0 82 0;
#X connect 344 0 339 0;
#X connect 345 0 340 0;
#X connect 346 0 262 0;
#X connect 347 0 272 0;
#X connect 348 0 282 0;
#X connect 349 0 292 0;
#X connect 350 0 302 0;
#X connect 351 0 312 0;
#X connect 352 0 322 0;
#X connect 353 0 332 0;
#X connect 354 0 342 0;
#X restore 10 190 pd WaterBlue_Tiles;
#N canvas -25600 -25600 114 0 SandRed_Tiles 0;
#X obj 162 72 hsl 87 15 -6 6 0 0 empty empty empty -2 -8 0 10 #fcfcfc
#000000 #000000 2007 1;
#X obj 162 92 hsl 88 15 -6 6 0 0 empty empty empty -2 -8 0 10 #fcfcfc
#000000 #000000 6670 1;
#X floatatom 160 140 6 0 0 0 - - -, f 6;
#X floatatom 210 140 6 0 0 0 - - -, f 6;
#X floatatom 260 140 6 0 0 0 - - -, f 6;
#X obj 142 2 gemhead;
#X msg 162 22 set \$1;
#X msg 232 22 set \$1;
#X obj 142 122 translateXYZ 0 0 0;
#X obj 590 90 hsl 87 15 -6 6 0 0 empty empty empty -2 -8 0 10 #fcfcfc
#000000 #000000 2007 1;
#X obj 590 110 hsl 88 15 -6 6 0 0 empty empty empty -2 -8 0 10 #fcfcfc
#000000 #000000 5510 1;
#X floatatom 570 160 4 0 0 0 - - -, f 4;
#X floatatom 600 160 4 0 0 0 - - -, f 4;
#X floatatom 630 160 4 0 0 0 - - -, f 4;
#X obj 550 20 gemhead;
#X msg 570 40 set \$1;
#X msg 640 40 set \$1;
#X obj 550 140 translateXYZ 0 0 0;
#X obj 1010 80 hsl 87 15 -6 6 0 0 empty empty empty -2 -8 0 10 #fcfcfc
#000000 #000000 2007 1;
#X obj 1010 100 hsl 88 15 -6 6 0 0 empty empty empty -2 -8 0 10 #fcfcfc
#000000 #000000 4350 1;
#X floatatom 990 150 4 0 0 0 - - -, f 4;
#X floatatom 1020 150 4 0 0 0 - - -, f 4;
#X floatatom 1050 150 4 0 0 0 - - -, f 4;
#X obj 970 10 gemhead;
#X msg 990 30 set \$1;
#X msg 1060 30 set \$1;
#X obj 970 130 translateXYZ 0 0 0;
#X obj 180 520 hsl 87 15 -6 6 0 0 empty empty empty -2 -8 0 10 #fcfcfc
#000000 #000000 4300 1;
#X obj 180 540 hsl 88 15 -6 6 0 0 empty empty empty -2 -8 0 10 #fcfcfc
#000000 #000000 5510 1;
#X floatatom 160 590 4 0 0 0 - - -, f 4;
#X floatatom 190 590 4 0 0 0 - - -, f 4;
#X floatatom 220 590 4 0 0 0 - - -, f 4;
#X obj 140 450 gemhead;
#X msg 160 470 set \$1;
#X msg 230 470 set \$1;
#X obj 140 570 translateXYZ 0 0 0;
#X obj 280 80 loadbang;
#X obj 698 108 loadbang;
#X obj 278 558 loadbang;
#X obj 1108 98 loadbang;
#X obj 590 510 hsl 87 15 -6 6 0 0 empty empty empty -2 -8 0 10 #fcfcfc
#000000 #000000 5447 1;
#X obj 590 530 hsl 88 15 -6 6 0 0 empty empty empty -2 -8 0 10 #fcfcfc
#000000 #000000 5510 1;
#X floatatom 570 580 4 0 0 0 - - -, f 4;
#X floatatom 600 580 4 0 0 0 - - -, f 4;
#X floatatom 630 580 4 0 0 0 - - -, f 4;
#X obj 550 440 gemhead;
#X msg 570 460 set \$1;
#X msg 640 460 set \$1;
#X obj 550 560 translateXYZ 0 0 0;
#X obj 688 548 loadbang;
#X obj 1008 488 hsl 87 15 -6 6 0 0 empty empty empty -2 -8 0 10 #fcfcfc
#000000 #000000 6593 1;
#X obj 1008 508 hsl 88 15 -6 6 0 0 empty empty empty -2 -8 0 10 #fcfcfc
#000000 #000000 4350 1;
#X floatatom 988 558 4 0 0 0 - - -, f 4;
#X floatatom 1018 558 4 0 0 0 - - -, f 4;
#X floatatom 1048 558 4 0 0 0 - - -, f 4;
#X obj 968 418 gemhead;
#X msg 988 438 set \$1;
#X msg 1058 438 set \$1;
#X obj 968 538 translateXYZ 0 0 0;
#X obj 1106 526 loadbang;
#X obj 970 290 pix_image;
#X obj 1000 210 loadbang;
#X obj 970 360 pix_texture;
#X msg 1052 322 env \$1;
#X obj 1052 302 hradio 15 1 0 6 empty empty empty 0 -6 0 8 #fcfcfc
#000000 #000000 1;
#X msg 1052 272 1;
#X obj 970 700 pix_image;
#X obj 1004 620 loadbang;
#X obj 970 770 pix_texture;
#X msg 1056 732 env \$1;
#X obj 1056 712 hradio 15 1 0 6 empty empty empty 0 -6 0 8 #fcfcfc
#000000 #000000 1;
#X msg 1056 682 1;
#X obj 550 300 pix_image;
#X obj 592 222 loadbang;
#X obj 550 370 pix_texture;
#X msg 630 340 env \$1;
#X obj 630 310 hradio 15 1 0 6 empty empty empty 0 -6 0 8 #fcfcfc #000000
#000000 1;
#X msg 644 284 1;
#X obj 550 727 pix_image;
#X obj 580 647 loadbang;
#X obj 550 797 pix_texture;
#X msg 632 759 env \$1;
#X obj 632 739 hradio 15 1 0 6 empty empty empty 0 -6 0 8 #fcfcfc #000000
#000000 1;
#X msg 632 709 1;
#X obj 142 301 pix_image;
#X obj 172 221 loadbang;
#X obj 142 371 pix_texture;
#X msg 224 333 env \$1;
#X obj 224 313 hradio 15 1 0 6 empty empty empty 0 -6 0 8 #fcfcfc #000000
#000000 1;
#X msg 224 283 1;
#X obj 142 732 pix_image;
#X obj 172 652 loadbang;
#X obj 142 802 pix_texture;
#X msg 224 764 env \$1;
#X obj 224 744 hradio 15 1 0 6 empty empty empty 0 -6 0 8 #fcfcfc #000000
#000000 1;
#X msg 224 714 1;
#X msg 170 250 open Art/Sand.png;
#X msg 172 682 open Art/Sand.png;
#X msg 580 677 open Art/Sand.png;
#X msg 1004 650 open Art/Sand.png;
#X msg 1000 240 open Art/Sand.png;
#X msg 592 252 open Art/Sand.png;
#X msg 290 250 open Art/Water.png;
#X obj 250 220 receive red;
#X obj 330 220 receive blue;
#X msg 710 250 open Art/Water.png;
#X obj 670 220 receive red;
#X obj 750 220 receive blue;
#X msg 1120 240 open Art/Water.png;
#X obj 1080 210 receive red;
#X obj 1160 210 receive blue;
#X msg 1130 650 open Art/Water.png;
#X obj 1080 620 receive red;
#X obj 1160 620 receive blue;
#X msg 700 670 open Art/Water.png;
#X obj 660 640 receive red;
#X obj 740 640 receive blue;
#X msg 290 680 open Art/Water.png;
#X obj 250 650 receive red;
#X obj 330 650 receive blue;
#X obj 1380 80 hsl 87 15 -6 6 0 0 empty empty empty -2 -8 0 10 #fcfcfc
#000000 #000000 3153 1;
#X obj 1380 100 hsl 88 15 -6 6 0 0 empty empty empty -2 -8 0 10 #fcfcfc
#000000 #000000 3190 1;
#X floatatom 1360 150 4 0 0 0 - - -, f 4;
#X floatatom 1390 150 4 0 0 0 - - -, f 4;
#X floatatom 1420 150 4 0 0 0 - - -, f 4;
#X obj 1340 10 gemhead;
#X msg 1360 30 set \$1;
#X msg 1430 30 set \$1;
#X obj 1340 130 translateXYZ 0 0 0;
#X obj 1800 70 hsl 87 15 -6 6 0 0 empty empty empty -2 -8 0 10 #fcfcfc
#000000 #000000 4300 1;
#X obj 1800 90 hsl 88 15 -6 6 0 0 empty empty empty -2 -8 0 10 #fcfcfc
#000000 #000000 3190 1;
#X floatatom 1780 140 4 0 0 0 - - -, f 4;
#X floatatom 1810 140 4 0 0 0 - - -, f 4;
#X floatatom 1840 140 4 0 0 0 - - -, f 4;
#X obj 1760 0 gemhead;
#X msg 1780 20 set \$1;
#X msg 1850 20 set \$1;
#X obj 1760 120 translateXYZ 0 0 0;
#X obj 1488 98 loadbang;
#X obj 1898 88 loadbang;
#X obj 1380 500 hsl 87 15 -6 6 0 0 empty empty empty -2 -8 0 10 #fcfcfc
#000000 #000000 6593 1;
#X obj 1380 520 hsl 88 15 -6 6 0 0 empty empty empty -2 -8 0 10 #fcfcfc
#000000 #000000 3190 1;
#X floatatom 1360 570 4 0 0 0 - - -, f 4;
#X floatatom 1390 570 4 0 0 0 - - -, f 4;
#X floatatom 1420 570 4 0 0 0 - - -, f 4;
#X obj 1340 430 gemhead;
#X msg 1360 450 set \$1;
#X msg 1430 450 set \$1;
#X obj 1340 550 translateXYZ 0 0 0;
#X obj 1478 538 loadbang;
#X obj 1798 478 hsl 87 15 -6 6 0 0 empty empty empty -2 -8 0 10 #fcfcfc
#000000 #000000 6593 1;
#X obj 1798 498 hsl 88 15 -6 6 0 0 empty empty empty -2 -8 0 10 #fcfcfc
#000000 #000000 2030 1;
#X floatatom 1778 548 4 0 0 0 - - -, f 4;
#X floatatom 1808 548 4 0 0 0 - - -, f 4;
#X floatatom 1838 548 4 0 0 0 - - -, f 4;
#X obj 1758 408 gemhead;
#X msg 1778 428 set \$1;
#X msg 1848 428 set \$1;
#X obj 1758 528 translateXYZ 0 0 0;
#X obj 1896 516 loadbang;
#X obj 1760 280 pix_image;
#X obj 1790 200 loadbang;
#X obj 1760 350 pix_texture;
#X msg 1842 312 env \$1;
#X obj 1842 292 hradio 15 1 0 6 empty empty empty 0 -6 0 8 #fcfcfc
#000000 #000000 1;
#X msg 1842 262 1;
#X obj 1760 690 pix_image;
#X obj 1794 610 loadbang;
#X obj 1760 760 pix_texture;
#X msg 1840 720 env \$1;
#X obj 1840 700 hradio 15 1 0 6 empty empty empty 0 -6 0 8 #fcfcfc
#000000 #000000 1;
#X msg 1846 672 1;
#X obj 1340 290 pix_image;
#X obj 1382 212 loadbang;
#X obj 1340 360 pix_texture;
#X msg 1420 330 env \$1;
#X obj 1420 300 hradio 15 1 0 6 empty empty empty 0 -6 0 8 #fcfcfc
#000000 #000000 1;
#X msg 1434 274 1;
#X obj 1340 717 pix_image;
#X obj 1370 637 loadbang;
#X obj 1340 787 pix_texture;
#X msg 1422 749 env \$1;
#X obj 1422 729 hradio 15 1 0 6 empty empty empty 0 -6 0 8 #fcfcfc
#000000 #000000 1;
#X msg 1422 699 1;
#X msg 1370 667 open Art/Sand.png;
#X msg 1794 640 open Art/Sand.png;
#X msg 1790 230 open Art/Sand.png;
#X msg 1382 242 open Art/Sand.png;
#X msg 1500 240 open Art/Water.png;
#X obj 1460 210 receive red;
#X obj 1540 210 receive blue;
#X msg 1910 230 open Art/Water.png;
#X obj 1870 200 receive red;
#X obj 1950 200 receive blue;
#X msg 1920 640 open Art/Water.png;
#X obj 1870 610 receive red;
#X obj 1950 610 receive blue;
#X msg 1490 660 open Art/Water.png;
#X obj 1450 630 receive red;
#X obj 1530 630 receive blue;
#X obj 140 420 square 0.8;
#X obj 550 400 square 0.8;
#X obj 970 390 square 0.8;
#X obj 1340 390 square 0.8;
#X obj 1760 380 square 0.8;
#X obj 1760 790 square 0.8;
#X obj 1340 830 square 0.8;
#X obj 970 800 square 0.8;
#X obj 550 840 square 0.8;
#X obj 140 830 square 0.8;
#X msg 162 42 -3.2;
#X msg 232 42 3.2;
#X msg 570 60 -3.2;
#X msg 640 60 1.6;
#X msg 990 50 -3.2;
#X msg 1060 50 0;
#X msg 1360 50 -1.6;
#X msg 1780 40 0;
#X msg 1850 40 -1.6;
#X msg 1430 50 -1.6;
#X msg 160 490 0;
#X msg 230 490 1.6;
#X msg 570 480 1.6;
#X msg 640 480 1.6;
#X msg 988 458 3.2;
#X msg 1058 458 0;
#X msg 1360 470 3.2;
#X msg 1430 470 -1.6;
#X msg 1778 448 3.2;
#X msg 1848 448 -3.2;
#X text 850 20 RED;
#X obj 453 95 tgl 15 0 empty empty empty 17 7 0 10 #fcfcfc #000000
#000000 0 1;
#X obj 473 95 bng 15 250 50 0 empty empty empty 17 7 0 10 #fcfcfc #000000
#000000;
#X obj 503 95 tgl 15 0 empty empty empty 17 7 0 10 #fcfcfc #000000
#000000 1 1;
#X obj 353 65 spigot;
#X obj 403 65 spigot;
#X obj 453 65 loadbang;
#X obj 383 125 spigot;
#X obj 343 95 receive mistake1;
#X msg 383 150 0;
#X obj 353 35 receive red;
#X obj 433 35 receive blue;
#X obj 142 172 colorRGB 1 0 0 0;
#X obj 1760 170 colorRGB 1 0 0 0;
#X obj 1340 180 colorRGB 1 0 0 0;
#X obj 970 180 colorRGB 1 0 0 0;
#X obj 550 190 colorRGB 1 0 0 0;
#X obj 140 620 colorRGB 1 0 0 0;
#X obj 550 610 colorRGB 1 0 0 0;
#X obj 968 588 colorRGB 1 0 0 0;
#X obj 1340 600 colorRGB 1 0 0 0;
#X obj 1758 578 colorRGB 1 0 0 0;
#X obj 870 110 tgl 15 0 empty empty empty 17 7 0 10 #fcfcfc #000000
#000000 0 1;
#X obj 890 110 bng 15 250 50 0 empty empty empty 17 7 0 10 #fcfcfc
#000000 #000000;
#X obj 920 110 tgl 15 0 empty empty empty 17 7 0 10 #fcfcfc #000000
#000000 1 1;
#X obj 770 80 spigot;
#X obj 820 80 spigot;
#X obj 870 80 loadbang;
#X obj 800 140 spigot;
#X msg 800 165 0;
#X obj 770 50 receive red;
#X obj 850 50 receive blue;
#X obj 760 110 receive mistake2;
#X obj 1280 90 tgl 15 0 empty empty empty 17 7 0 10 #fcfcfc #000000
#000000 0 1;
#X obj 1300 90 bng 15 250 50 0 empty empty empty 17 7 0 10 #fcfcfc
#000000 #000000;
#X obj 1330 90 tgl 15 0 empty empty empty 17 7 0 10 #fcfcfc #000000
#000000 1 1;
#X obj 1180 60 spigot;
#X obj 1230 60 spigot;
#X obj 1280 60 loadbang;
#X obj 1210 120 spigot;
#X msg 1210 145 0;
#X obj 1180 30 receive red;
#X obj 1260 30 receive blue;
#X obj 1660 100 tgl 15 0 empty empty empty 17 7 0 10 #fcfcfc #000000
#000000 0 1;
#X obj 1680 100 bng 15 250 50 0 empty empty empty 17 7 0 10 #fcfcfc
#000000 #000000;
#X obj 1710 100 tgl 15 0 empty empty empty 17 7 0 10 #fcfcfc #000000
#000000 1 1;
#X obj 1560 70 spigot;
#X obj 1610 70 spigot;
#X obj 1660 70 loadbang;
#X obj 1590 130 spigot;
#X msg 1590 155 0;
#X obj 1560 40 receive red;
#X obj 1640 40 receive blue;
#X obj 2070 90 tgl 15 0 empty empty empty 17 7 0 10 #fcfcfc #000000
#000000 0 1;
#X obj 2090 90 bng 15 250 50 0 empty empty empty 17 7 0 10 #fcfcfc
#000000 #000000;
#X obj 2120 90 tgl 15 0 empty empty empty 17 7 0 10 #fcfcfc #000000
#000000 1 1;
#X obj 1970 60 spigot;
#X obj 2020 60 spigot;
#X obj 2070 60 loadbang;
#X obj 2000 120 spigot;
#X msg 2000 145 0;
#X obj 1970 30 receive red;
#X obj 2050 30 receive blue;
#X obj 2050 470 tgl 15 0 empty empty empty 17 7 0 10 #fcfcfc #000000
#000000 0 1;
#X obj 2070 470 bng 15 250 50 0 empty empty empty 17 7 0 10 #fcfcfc
#000000 #000000;
#X obj 2100 470 tgl 15 0 empty empty empty 17 7 0 10 #fcfcfc #000000
#000000 1 1;
#X obj 1950 440 spigot;
#X obj 2000 440 spigot;
#X obj 2050 440 loadbang;
#X obj 1980 500 spigot;
#X msg 1980 525 0;
#X obj 1950 410 receive red;
#X obj 2030 410 receive blue;
#X obj 1640 510 tgl 15 0 empty empty empty 17 7 0 10 #fcfcfc #000000
#000000 0 1;
#X obj 1660 510 bng 15 250 50 0 empty empty empty 17 7 0 10 #fcfcfc
#000000 #000000;
#X obj 1690 510 tgl 15 0 empty empty empty 17 7 0 10 #fcfcfc #000000
#000000 1 1;
#X obj 1540 480 spigot;
#X obj 1590 480 spigot;
#X obj 1640 480 loadbang;
#X obj 1570 540 spigot;
#X msg 1570 565 0;
#X obj 1540 450 receive red;
#X obj 1620 450 receive blue;
#X obj 1250 490 tgl 15 0 empty empty empty 17 7 0 10 #fcfcfc #000000
#000000 0 1;
#X obj 1270 490 bng 15 250 50 0 empty empty empty 17 7 0 10 #fcfcfc
#000000 #000000;
#X obj 1300 490 tgl 15 0 empty empty empty 17 7 0 10 #fcfcfc #000000
#000000 1 1;
#X obj 1150 460 spigot;
#X obj 1200 460 spigot;
#X obj 1250 460 loadbang;
#X obj 1180 520 spigot;
#X msg 1180 545 0;
#X obj 1150 430 receive red;
#X obj 1230 430 receive blue;
#X obj 850 510 tgl 15 0 empty empty empty 17 7 0 10 #fcfcfc #000000
#000000 0 1;
#X obj 870 510 bng 15 250 50 0 empty empty empty 17 7 0 10 #fcfcfc
#000000 #000000;
#X obj 900 510 tgl 15 0 empty empty empty 17 7 0 10 #fcfcfc #000000
#000000 1 1;
#X obj 750 480 spigot;
#X obj 800 480 spigot;
#X obj 850 480 loadbang;
#X obj 780 540 spigot;
#X msg 780 565 0;
#X obj 750 450 receive red;
#X obj 830 450 receive blue;
#X obj 450 520 tgl 15 0 empty empty empty 17 7 0 10 #fcfcfc #000000
#000000 0 1;
#X obj 470 520 bng 15 250 50 0 empty empty empty 17 7 0 10 #fcfcfc
#000000 #000000;
#X obj 500 520 tgl 15 0 empty empty empty 17 7 0 10 #fcfcfc #000000
#000000 1 1;
#X obj 350 490 spigot;
#X obj 400 490 spigot;
#X obj 450 490 loadbang;
#X obj 380 550 spigot;
#X msg 380 575 0;
#X obj 350 460 receive red;
#X obj 430 460 receive blue;
#X obj 1170 90 receive mistake3;
#X obj 1550 100 receive mistake4;
#X obj 1960 90 receive mistake5;
#X obj 1940 470 receive mistake10;
#X obj 1530 510 receive mistake9;
#X obj 1140 490 receive mistake8;
#X obj 740 510 receive mistake7;
#X obj 340 520 receive mistake6;
#X connect 0 0 6 0;
#X connect 0 0 8 1;
#X connect 1 0 7 0;
#X connect 1 0 8 2;
#X connect 2 0 242 1;
#X connect 3 0 242 2;
#X connect 4 0 242 3;
#X connect 5 0 8 0;
#X connect 6 0 210 0;
#X connect 7 0 211 0;
#X connect 8 0 242 0;
#X connect 9 0 15 0;
#X connect 9 0 17 1;
#X connect 10 0 16 0;
#X connect 10 0 17 2;
#X connect 11 0 246 1;
#X connect 12 0 246 2;
#X connect 13 0 246 3;
#X connect 14 0 17 0;
#X connect 15 0 212 0;
#X connect 16 0 213 0;
#X connect 17 0 246 0;
#X connect 18 0 24 0;
#X connect 18 0 26 1;
#X connect 19 0 25 0;
#X connect 19 0 26 2;
#X connect 20 0 245 1;
#X connect 21 0 245 2;
#X connect 22 0 245 3;
#X connect 23 0 26 0;
#X connect 24 0 214 0;
#X connect 25 0 215 0;
#X connect 26 0 245 0;
#X connect 27 0 33 0;
#X connect 27 0 35 1;
#X connect 28 0 34 0;
#X connect 28 0 35 2;
#X connect 29 0 247 1;
#X connect 30 0 247 2;
#X connect 31 0 247 3;
#X connect 32 0 35 0;
#X connect 33 0 220 0;
#X connect 34 0 221 0;
#X connect 35 0 247 0;
#X connect 36 0 210 0;
#X connect 36 0 211 0;
#X connect 37 0 212 0;
#X connect 37 0 213 0;
#X connect 38 0 220 0;
#X connect 38 0 221 0;
#X connect 39 0 214 0;
#X connect 39 0 215 0;
#X connect 40 0 46 0;
#X connect 40 0 48 1;
#X connect 41 0 47 0;
#X connect 41 0 48 2;
#X connect 42 0 248 1;
#X connect 43 0 248 2;
#X connect 44 0 248 3;
#X connect 45 0 48 0;
#X connect 46 0 222 0;
#X connect 47 0 223 0;
#X connect 48 0 248 0;
#X connect 49 0 222 0;
#X connect 49 0 223 0;
#X connect 50 0 56 0;
#X connect 50 0 58 1;
#X connect 51 0 57 0;
#X connect 51 0 58 2;
#X connect 52 0 249 1;
#X connect 53 0 249 2;
#X connect 54 0 249 3;
#X connect 55 0 58 0;
#X connect 56 0 224 0;
#X connect 57 0 225 0;
#X connect 58 0 249 0;
#X connect 59 0 224 0;
#X connect 59 0 225 0;
#X connect 60 0 62 0;
#X connect 61 0 100 0;
#X connect 61 0 65 0;
#X connect 62 0 202 0;
#X connect 63 0 62 0;
#X connect 64 0 63 0;
#X connect 64 0 62 0;
#X connect 65 0 64 0;
#X connect 66 0 68 0;
#X connect 67 0 99 0;
#X connect 67 0 71 0;
#X connect 68 0 207 0;
#X connect 69 0 68 0;
#X connect 70 0 69 0;
#X connect 70 0 68 0;
#X connect 71 0 70 0;
#X connect 72 0 74 0;
#X connect 73 0 101 0;
#X connect 73 0 77 0;
#X connect 74 0 201 0;
#X connect 75 0 74 0;
#X connect 76 0 75 0;
#X connect 76 0 74 0;
#X connect 77 0 76 0;
#X connect 78 0 80 0;
#X connect 79 0 98 0;
#X connect 79 0 83 0;
#X connect 80 0 208 0;
#X connect 81 0 80 0;
#X connect 82 0 81 0;
#X connect 82 0 80 0;
#X connect 83 0 82 0;
#X connect 84 0 86 0;
#X connect 85 0 96 0;
#X connect 85 0 89 0;
#X connect 86 0 200 0;
#X connect 87 0 86 0;
#X connect 88 0 87 0;
#X connect 88 0 86 0;
#X connect 89 0 88 0;
#X connect 90 0 92 0;
#X connect 91 0 97 0;
#X connect 91 0 95 0;
#X connect 92 0 209 0;
#X connect 93 0 92 0;
#X connect 94 0 93 0;
#X connect 94 0 92 0;
#X connect 95 0 94 0;
#X connect 96 0 84 0;
#X connect 96 0 89 0;
#X connect 97 0 90 0;
#X connect 97 0 95 0;
#X connect 98 0 78 0;
#X connect 98 0 83 0;
#X connect 99 0 66 0;
#X connect 99 0 71 0;
#X connect 100 0 60 0;
#X connect 100 0 65 0;
#X connect 101 0 72 0;
#X connect 101 0 77 0;
#X connect 102 0 89 0;
#X connect 102 0 84 0;
#X connect 103 0 96 0;
#X connect 104 0 102 0;
#X connect 105 0 77 0;
#X connect 105 0 72 0;
#X connect 106 0 101 0;
#X connect 107 0 105 0;
#X connect 108 0 65 0;
#X connect 108 0 60 0;
#X connect 109 0 100 0;
#X connect 110 0 108 0;
#X connect 111 0 71 0;
#X connect 111 0 66 0;
#X connect 112 0 99 0;
#X connect 113 0 111 0;
#X connect 114 0 83 0;
#X connect 114 0 78 0;
#X connect 115 0 98 0;
#X connect 116 0 114 0;
#X connect 117 0 90 0;
#X connect 117 0 95 0;
#X connect 118 0 97 0;
#X connect 119 0 117 0;
#X connect 120 0 126 0;
#X connect 120 0 128 1;
#X connect 121 0 127 0;
#X connect 121 0 128 2;
#X connect 122 0 244 1;
#X connect 123 0 244 2;
#X connect 124 0 244 3;
#X connect 125 0 128 0;
#X connect 126 0 216 0;
#X connect 127 0 219 0;
#X connect 128 0 244 0;
#X connect 129 0 135 0;
#X connect 129 0 137 1;
#X connect 130 0 136 0;
#X connect 130 0 137 2;
#X connect 131 0 243 1;
#X connect 132 0 243 2;
#X connect 133 0 243 3;
#X connect 134 0 137 0;
#X connect 135 0 217 0;
#X connect 136 0 218 0;
#X connect 137 0 243 0;
#X connect 138 0 216 0;
#X connect 138 0 219 0;
#X connect 139 0 217 0;
#X connect 139 0 218 0;
#X connect 140 0 146 0;
#X connect 140 0 148 1;
#X connect 141 0 147 0;
#X connect 141 0 148 2;
#X connect 142 0 250 1;
#X connect 143 0 250 2;
#X connect 144 0 250 3;
#X connect 145 0 148 0;
#X connect 146 0 226 0;
#X connect 147 0 227 0;
#X connect 148 0 250 0;
#X connect 149 0 226 0;
#X connect 149 0 227 0;
#X connect 150 0 156 0;
#X connect 150 0 158 1;
#X connect 151 0 157 0;
#X connect 151 0 158 2;
#X connect 152 0 251 1;
#X connect 153 0 251 2;
#X connect 154 0 251 3;
#X connect 155 0 158 0;
#X connect 156 0 228 0;
#X connect 157 0 229 0;
#X connect 158 0 251 0;
#X connect 159 0 228 0;
#X connect 159 0 229 0;
#X connect 160 0 162 0;
#X connect 161 0 186 0;
#X connect 161 0 165 0;
#X connect 162 0 204 0;
#X connect 163 0 162 0;
#X connect 164 0 163 0;
#X connect 164 0 162 0;
#X connect 165 0 164 0;
#X connect 166 0 168 0;
#X connect 167 0 185 0;
#X connect 167 0 171 0;
#X connect 168 0 205 0;
#X connect 169 0 168 0;
#X connect 170 0 169 0;
#X connect 170 0 168 0;
#X connect 171 0 170 0;
#X connect 172 0 174 0;
#X connect 173 0 187 0;
#X connect 173 0 177 0;
#X connect 174 0 203 0;
#X connect 175 0 174 0;
#X connect 176 0 175 0;
#X connect 176 0 174 0;
#X connect 177 0 176 0;
#X connect 178 0 180 0;
#X connect 179 0 184 0;
#X connect 179 0 183 0;
#X connect 180 0 206 0;
#X connect 181 0 180 0;
#X connect 182 0 181 0;
#X connect 182 0 180 0;
#X connect 183 0 182 0;
#X connect 184 0 178 0;
#X connect 184 0 183 0;
#X connect 185 0 166 0;
#X connect 185 0 171 0;
#X connect 186 0 160 0;
#X connect 186 0 165 0;
#X connect 187 0 172 0;
#X connect 187 0 177 0;
#X connect 188 0 177 0;
#X connect 188 0 172 0;
#X connect 189 0 187 0;
#X connect 190 0 188 0;
#X connect 191 0 165 0;
#X connect 191 0 160 0;
#X connect 192 0 186 0;
#X connect 193 0 191 0;
#X connect 194 0 171 0;
#X connect 194 0 166 0;
#X connect 195 0 185 0;
#X connect 196 0 194 0;
#X connect 197 0 183 0;
#X connect 197 0 178 0;
#X connect 198 0 184 0;
#X connect 199 0 197 0;
#X connect 210 0 0 0;
#X connect 210 0 8 1;
#X connect 211 0 8 2;
#X connect 211 0 1 0;
#X connect 212 0 9 0;
#X connect 212 0 17 1;
#X connect 213 0 17 2;
#X connect 213 0 10 0;
#X connect 214 0 18 0;
#X connect 214 0 26 1;
#X connect 215 0 26 2;
#X connect 215 0 19 0;
#X connect 216 0 120 0;
#X connect 216 0 128 1;
#X connect 217 0 129 0;
#X connect 217 0 137 1;
#X connect 218 0 137 2;
#X connect 218 0 130 0;
#X connect 219 0 128 2;
#X connect 219 0 121 0;
#X connect 220 0 27 0;
#X connect 220 0 35 1;
#X connect 221 0 35 2;
#X connect 221 0 28 0;
#X connect 222 0 40 0;
#X connect 222 0 48 1;
#X connect 223 0 48 2;
#X connect 223 0 41 0;
#X connect 224 0 50 0;
#X connect 224 0 58 1;
#X connect 225 0 58 2;
#X connect 225 0 51 0;
#X connect 226 0 140 0;
#X connect 226 0 148 1;
#X connect 227 0 148 2;
#X connect 227 0 141 0;
#X connect 228 0 150 0;
#X connect 228 0 158 1;
#X connect 229 0 158 2;
#X connect 229 0 151 0;
#X connect 231 0 232 0;
#X connect 231 0 234 1;
#X connect 231 0 237 1;
#X connect 232 0 233 0;
#X connect 233 0 235 1;
#X connect 234 0 231 0;
#X connect 235 0 231 0;
#X connect 236 0 233 0;
#X connect 237 0 239 0;
#X connect 238 0 237 0;
#X connect 239 0 88 0;
#X connect 240 0 234 0;
#X connect 241 0 235 0;
#X connect 242 0 84 0;
#X connect 243 0 160 0;
#X connect 244 0 172 0;
#X connect 245 0 60 0;
#X connect 246 0 72 0;
#X connect 247 0 90 0;
#X connect 248 0 78 0;
#X connect 249 0 66 0;
#X connect 250 0 178 0;
#X connect 251 0 166 0;
#X connect 252 0 253 0;
#X connect 252 0 255 1;
#X connect 252 0 258 1;
#X connect 253 0 254 0;
#X connect 254 0 256 1;
#X connect 255 0 252 0;
#X connect 256 0 252 0;
#X connect 257 0 254 0;
#X connect 258 0 259 0;
#X connect 259 0 76 0;
#X connect 260 0 255 0;
#X connect 261 0 256 0;
#X connect 262 0 258 0;
#X connect 263 0 264 0;
#X connect 263 0 266 1;
#X connect 263 0 269 1;
#X connect 264 0 265 0;
#X connect 265 0 267 1;
#X connect 266 0 263 0;
#X connect 267 0 263 0;
#X connect 268 0 265 0;
#X connect 269 0 270 0;
#X connect 270 0 64 0;
#X connect 271 0 266 0;
#X connect 272 0 267 0;
#X connect 273 0 274 0;
#X connect 273 0 276 1;
#X connect 273 0 279 1;
#X connect 274 0 275 0;
#X connect 275 0 277 1;
#X connect 276 0 273 0;
#X connect 277 0 273 0;
#X connect 278 0 275 0;
#X connect 279 0 280 0;
#X connect 280 0 176 0;
#X connect 281 0 276 0;
#X connect 282 0 277 0;
#X connect 283 0 284 0;
#X connect 283 0 286 1;
#X connect 283 0 289 1;
#X connect 284 0 285 0;
#X connect 285 0 287 1;
#X connect 286 0 283 0;
#X connect 287 0 283 0;
#X connect 288 0 285 0;
#X connect 289 0 290 0;
#X connect 290 0 164 0;
#X connect 291 0 286 0;
#X connect 292 0 287 0;
#X connect 293 0 294 0;
#X connect 293 0 296 1;
#X connect 293 0 299 1;
#X connect 294 0 295 0;
#X connect 295 0 297 1;
#X connect 296 0 293 0;
#X connect 297 0 293 0;
#X connect 298 0 295 0;
#X connect 299 0 300 0;
#X connect 300 0 170 0;
#X connect 301 0 296 0;
#X connect 302 0 297 0;
#X connect 303 0 304 0;
#X connect 303 0 306 1;
#X connect 303 0 309 1;
#X connect 304 0 305 0;
#X connect 305 0 307 1;
#X connect 306 0 303 0;
#X connect 307 0 303 0;
#X connect 308 0 305 0;
#X connect 309 0 310 0;
#X connect 310 0 182 0;
#X connect 311 0 306 0;
#X connect 312 0 307 0;
#X connect 313 0 314 0;
#X connect 313 0 316 1;
#X connect 313 0 319 1;
#X connect 314 0 315 0;
#X connect 315 0 317 1;
#X connect 316 0 313 0;
#X connect 317 0 313 0;
#X connect 318 0 315 0;
#X connect 319 0 320 0;
#X connect 320 0 70 0;
#X connect 321 0 316 0;
#X connect 322 0 317 0;
#X connect 323 0 324 0;
#X connect 323 0 326 1;
#X connect 323 0 329 1;
#X connect 324 0 325 0;
#X connect 325 0 327 1;
#X connect 326 0 323 0;
#X connect 327 0 323 0;
#X connect 328 0 325 0;
#X connect 329 0 330 0;
#X connect 330 0 82 0;
#X connect 331 0 326 0;
#X connect 332 0 327 0;
#X connect 333 0 334 0;
#X connect 333 0 336 1;
#X connect 333 0 339 1;
#X connect 334 0 335 0;
#X connect 335 0 337 1;
#X connect 336 0 333 0;
#X connect 337 0 333 0;
#X connect 338 0 335 0;
#X connect 339 0 340 0;
#X connect 340 0 94 0;
#X connect 341 0 336 0;
#X connect 342 0 337 0;
#X connect 343 0 269 0;
#X connect 344 0 279 0;
#X connect 345 0 289 0;
#X connect 346 0 299 0;
#X connect 347 0 309 0;
#X connect 348 0 319 0;
#X connect 349 0 329 0;
#X connect 350 0 339 0;
#X restore 10 170 pd SandRed_Tiles;
#X obj 150 100 bng 15 250 50 0 empty empty empty 17 7 0 10 #fcfcfc
#000000 #000000;
#X obj 150 140 send start;
#X obj 220 140 send reset;
#X obj 220 100 bng 14 250 50 0 empty empty empty 17 7 0 10 #fcfcfc
#000000 #000000;
#X obj 150 10 bng 15 250 50 0 empty empty empty 17 7 0 10 #fcfcfc #000000
#000000;
#X obj 220 10 bng 14 250 50 0 empty empty empty 17 7 0 10 #fcfcfc #000000
#000000;
#X obj 150 50 send open;
#X obj 220 50 send close;
#N canvas 822 176 451 305 gem 0;
#X obj 30 150 gemwin;
#X msg 70 120 destroy;
#X msg 30 90 dimen 750 750 \, create \, 1;
#X obj 30 60 receive open;
#X obj 130 60 receive close;
#X connect 1 0 0 0;
#X connect 2 0 0 0;
#X connect 3 0 2 0;
#X connect 4 0 1 0;
#X restore 10 10 pd gem;
#N canvas 869 160 313 208 GameLogic 0;
#X floatatom 77 87 5 0 0 0 - - -, f 5;
#X obj 97 17 loadbang;
#N canvas 852 80 486 662 Player 0;
#X obj 150 530 outlet;
#X obj 30 0 key 1;
#X obj 160 260 f;
#X floatatom 94 435 5 0 0 0 - - -, f 5;
#X obj 92 395 line;
#X obj 92 303 route 1 2;
#X msg 82 216 1;
#X msg 132 216 2;
#X obj 82 245 t f b;
#X obj 310 260 f;
#X floatatom 234 435 5 0 0 0 - - -, f 5;
#X obj 232 395 line;
#X obj 232 303 route 1 2;
#X msg 222 216 1;
#X msg 272 216 2;
#X obj 222 245 t f b;
#X obj 140 180 select 100 97 119 115;
#X obj 150 420 bng 15 250 50 0 empty empty empty 17 7 0 10 #fcfcfc
#000000 #000000;
#X obj 120 610 colorRGB 1 1 0;
#X obj 50 540 gemhead;
#X msg 50 510 set 51;
#X obj 50 480 loadbang;
#X msg 232 366 \$1 5;
#X msg 92 366 \$1 5;
#X obj 92 332 + 0.15;
#X obj 140 330 - 0.15;
#X obj 230 330 + 0.15;
#X obj 280 330 - 0.15;
#X obj 90 270 pack f f;
#X obj 232 274 pack f f;
#X obj 0 340 receive reset;
#X msg 0 365 0;
#X obj 120 640 square 0.16;
#X obj 80 580 translateXYZ 0 0 0;
#X obj 150 470 pack 0 0;
#X msg 340 450 0 0;
#X obj 85 116 tgl 15 0 empty empty empty 17 7 0 10 #fcfcfc #000000
#000000 0 1;
#X obj 105 116 bng 15 250 50 0 empty empty empty 17 7 0 10 #fcfcfc
#000000 #000000;
#X obj 135 116 tgl 15 0 empty empty empty 17 7 0 10 #fcfcfc #000000
#000000 1 1;
#X obj 70 80 spigot;
#X obj 120 80 spigot;
#X obj 170 80 loadbang;
#X obj 160 50 receive start;
#X obj 60 50 receive reset;
#X obj 110 150 spigot;
#X obj 20 160 receive reset;
#X msg 20 185 0;
#X obj 320 160 receive reset;
#X msg 320 185 0;
#X obj 360 410 receive reset;
#X obj 330 340 receive reset;
#X msg 330 365 0;
#X connect 1 0 44 0;
#X connect 2 0 28 1;
#X connect 3 0 2 1;
#X connect 3 0 33 1;
#X connect 3 0 34 0;
#X connect 4 0 3 0;
#X connect 5 0 24 0;
#X connect 5 1 25 0;
#X connect 6 0 8 0;
#X connect 7 0 8 0;
#X connect 8 0 28 0;
#X connect 8 1 2 0;
#X connect 9 0 29 1;
#X connect 10 0 9 1;
#X connect 10 0 17 0;
#X connect 10 0 33 2;
#X connect 10 0 34 1;
#X connect 11 0 10 0;
#X connect 12 0 26 0;
#X connect 12 1 27 0;
#X connect 13 0 15 0;
#X connect 14 0 15 0;
#X connect 15 0 29 0;
#X connect 15 1 9 0;
#X connect 16 0 6 0;
#X connect 16 1 7 0;
#X connect 16 2 13 0;
#X connect 16 3 14 0;
#X connect 17 0 34 0;
#X connect 18 0 32 0;
#X connect 19 0 33 0;
#X connect 20 0 19 0;
#X connect 21 0 20 0;
#X connect 22 0 11 0;
#X connect 23 0 4 0;
#X connect 24 0 23 0;
#X connect 25 0 23 0;
#X connect 26 0 22 0;
#X connect 27 0 22 0;
#X connect 28 0 5 0;
#X connect 29 0 12 0;
#X connect 30 0 31 0;
#X connect 31 0 3 0;
#X connect 33 0 18 0;
#X connect 34 0 0 0;
#X connect 35 0 0 0;
#X connect 36 0 37 0;
#X connect 36 0 39 1;
#X connect 36 0 44 1;
#X connect 37 0 38 0;
#X connect 38 0 40 1;
#X connect 39 0 36 0;
#X connect 40 0 36 0;
#X connect 41 0 38 0;
#X connect 42 0 40 0;
#X connect 43 0 39 0;
#X connect 44 0 16 0;
#X connect 45 0 46 0;
#X connect 47 0 48 0;
#X connect 48 0 9 1;
#X connect 49 0 35 0;
#X connect 50 0 51 0;
#X connect 51 0 10 0;
#X restore 27 17 pd Player;
#N canvas 184 60 750 606 collision 0;
#X obj 240 50 inlet radius;
#X obj 130 30 inlet reference;
#X obj 182 220 gemhead;
#X obj 182 253 translateXYZ;
#X obj 240 220 unpack 0 0;
#X obj 40 30 inlet test;
#N canvas 532 356 434 302 collide 0;
#X obj 20 109 list-map2;
#X obj 115 108 -;
#X obj 115 133 abs;
#X obj 115 165 <= 1;
#X obj 49 35 inlet reference;
#X obj 163 10 inlet radius;
#X obj 20 190 list-reduce;
#X obj 106 190 &&;
#X obj 20 10 inlet test;
#X obj 20 222 outlet;
#X obj 163 53 t b a;
#X obj 120 240 print;
#X connect 0 0 6 0;
#X connect 0 1 1 0;
#X connect 1 0 2 0;
#X connect 2 0 3 0;
#X connect 3 0 0 2;
#X connect 4 0 0 1;
#X connect 5 0 10 0;
#X connect 6 0 9 0;
#X connect 6 1 7 0;
#X connect 7 0 6 1;
#X connect 8 0 0 0;
#X connect 10 0 0 0;
#X connect 10 1 3 1;
#X restore 40 100 pd collide;
#X obj 40 150 tgl 24 0 empty empty hit? 28 7 1 10 #fcfcfc #000000 #000000
0 1;
#X obj 182 417 circle 0.08;
#X obj 224 334 loadbang;
#X msg 224 374 draw fill;
#X msg 180 180 set 52;
#X obj 180 150 loadbang;
#X obj 184 304 colorRGB 1 0 0;
#X obj 270 150 receive score;
#X obj 180 120 receive new_point;
#X obj 40 250 send score;
#X obj 40 220 bng 15 250 50 0 empty empty empty 17 7 0 10 #fcfcfc #000000
#000000;
#X obj 40 190 sel 1;
#X msg 240 180 10;
#X obj 100 60 pack 10 10;
#X obj 370 150 receive reset;
#X connect 0 0 6 2;
#X connect 1 0 4 0;
#X connect 1 0 6 1;
#X connect 2 0 3 0;
#X connect 3 0 13 0;
#X connect 4 0 3 1;
#X connect 4 1 3 2;
#X connect 5 0 6 0;
#X connect 6 0 7 0;
#X connect 7 0 18 0;
#X connect 9 0 10 0;
#X connect 10 0 8 0;
#X connect 11 0 2 0;
#X connect 12 0 11 0;
#X connect 13 0 8 0;
#X connect 14 0 19 0;
#X connect 14 0 20 0;
#X connect 15 0 11 0;
#X connect 17 0 16 0;
#X connect 18 0 17 0;
#X connect 19 0 3 1;
#X connect 19 0 3 2;
#X connect 20 0 6 1;
#X connect 21 0 19 0;
#X connect 21 0 20 0;
#X restore 27 107 pd collision;
#N canvas 436 44 1034 726 Collision 0;
#X obj 40 90 inlet player_pos;
#N canvas 688 376 330 306 collide 0;
#X obj 20 109 list-map2;
#X obj 115 108 -;
#X obj 115 133 abs;
#X obj 115 165 <= 1;
#X obj 49 35 inlet reference;
#X obj 163 10 inlet radius;
#X obj 20 190 list-reduce;
#X obj 106 190 &&;
#X obj 20 10 inlet test;
#X obj 20 222 outlet;
#X obj 163 53 t b a;
#X connect 0 0 6 0;
#X connect 0 1 1 0;
#X connect 1 0 2 0;
#X connect 2 0 3 0;
#X connect 3 0 0 2;
#X connect 4 0 0 1;
#X connect 5 0 10 0;
#X connect 6 0 9 0;
#X connect 6 1 7 0;
#X connect 7 0 6 1;
#X connect 8 0 0 0;
#X connect 10 0 0 0;
#X connect 10 1 3 1;
#X restore 120 390 pd collide;
#N canvas 688 376 346 278 collide 0;
#X obj 20 109 list-map2;
#X obj 115 108 -;
#X obj 115 133 abs;
#X obj 115 165 <= 1;
#X obj 49 35 inlet reference;
#X obj 163 10 inlet radius;
#X obj 20 190 list-reduce;
#X obj 106 190 &&;
#X obj 20 10 inlet test;
#X obj 20 222 outlet;
#X obj 163 53 t b a;
#X connect 0 0 6 0;
#X connect 0 1 1 0;
#X connect 1 0 2 0;
#X connect 2 0 3 0;
#X connect 3 0 0 2;
#X connect 4 0 0 1;
#X connect 5 0 10 0;
#X connect 6 0 9 0;
#X connect 6 1 7 0;
#X connect 7 0 6 1;
#X connect 8 0 0 0;
#X connect 10 0 0 0;
#X connect 10 1 3 1;
#X restore 200 390 pd collide;
#N canvas 688 376 454 338 collide 0;
#X obj 20 109 list-map2;
#X obj 115 108 -;
#X obj 115 133 abs;
#X obj 115 165 <= 1;
#X obj 49 35 inlet reference;
#X obj 163 10 inlet radius;
#X obj 20 190 list-reduce;
#X obj 106 190 &&;
#X obj 20 10 inlet test;
#X obj 20 222 outlet;
#X obj 163 53 t b a;
#X connect 0 0 6 0;
#X connect 0 1 1 0;
#X connect 1 0 2 0;
#X connect 2 0 3 0;
#X connect 3 0 0 2;
#X connect 4 0 0 1;
#X connect 5 0 10 0;
#X connect 6 0 9 0;
#X connect 6 1 7 0;
#X connect 7 0 6 1;
#X connect 8 0 0 0;
#X connect 10 0 0 0;
#X connect 10 1 3 1;
#X restore 280 390 pd collide;
#N canvas 688 376 462 314 collide 0;
#X obj 20 109 list-map2;
#X obj 115 108 -;
#X obj 115 133 abs;
#X obj 115 165 <= 1;
#X obj 49 35 inlet reference;
#X obj 163 10 inlet radius;
#X obj 20 190 list-reduce;
#X obj 106 190 &&;
#X obj 20 10 inlet test;
#X obj 20 222 outlet;
#X obj 160 40 t b a;
#X connect 0 0 6 0;
#X connect 0 1 1 0;
#X connect 1 0 2 0;
#X connect 2 0 3 0;
#X connect 3 0 0 2;
#X connect 4 0 0 1;
#X connect 5 0 10 0;
#X connect 6 0 9 0;
#X connect 6 1 7 0;
#X connect 7 0 6 1;
#X connect 8 0 0 0;
#X connect 10 0 0 0;
#X connect 10 1 3 1;
#X restore 360 390 pd collide;
#N canvas 688 376 434 346 collide 0;
#X obj 20 109 list-map2;
#X obj 115 108 -;
#X obj 115 133 abs;
#X obj 115 165 <= 1;
#X obj 49 35 inlet reference;
#X obj 163 10 inlet radius;
#X obj 20 190 list-reduce;
#X obj 106 190 &&;
#X obj 20 10 inlet test;
#X obj 20 222 outlet;
#X obj 163 53 t b a;
#X connect 0 0 6 0;
#X connect 0 1 1 0;
#X connect 1 0 2 0;
#X connect 2 0 3 0;
#X connect 3 0 0 2;
#X connect 4 0 0 1;
#X connect 5 0 10 0;
#X connect 6 0 9 0;
#X connect 6 1 7 0;
#X connect 7 0 6 1;
#X connect 8 0 0 0;
#X connect 10 0 0 0;
#X connect 10 1 3 1;
#X restore 440 390 pd collide;
#X floatatom 850 130 5 0 0 0 - - -, f 5;
#N canvas 688 376 362 314 collide 0;
#X obj 20 109 list-map2;
#X obj 115 108 -;
#X obj 115 133 abs;
#X obj 115 165 <= 1;
#X obj 49 35 inlet reference;
#X obj 163 10 inlet radius;
#X obj 20 190 list-reduce;
#X obj 106 190 &&;
#X obj 20 10 inlet test;
#X obj 20 222 outlet;
#X obj 163 53 t b a;
#X connect 0 0 6 0;
#X connect 0 1 1 0;
#X connect 1 0 2 0;
#X connect 2 0 3 0;
#X connect 3 0 0 2;
#X connect 4 0 0 1;
#X connect 5 0 10 0;
#X connect 6 0 9 0;
#X connect 6 1 7 0;
#X connect 7 0 6 1;
#X connect 8 0 0 0;
#X connect 10 0 0 0;
#X connect 10 1 3 1;
#X restore 40 390 pd collide;
#X obj 40 420 tgl 24 0 empty empty hit? 28 7 1 10 #fcfcfc #000000 #000000
0 1;
#X obj 40 490 bng 15 250 50 0 empty empty empty 17 7 0 10 #fcfcfc #000000
#000000;
#X obj 40 460 sel 1;
#X obj 850 90 loadbang;
#X obj 130 420 tgl 24 0 empty empty hit? 28 7 1 10 #fcfcfc #000000
#000000 0 1;
#X obj 130 490 bng 15 250 50 0 empty empty empty 17 7 0 10 #fcfcfc
#000000 #000000;
#X obj 130 460 sel 1;
#X obj 230 420 tgl 24 0 empty empty hit? 28 7 1 10 #fcfcfc #000000
#000000 0 1;
#X obj 230 490 bng 15 250 50 0 empty empty empty 17 7 0 10 #fcfcfc
#000000 #000000;
#X obj 230 460 sel 1;
#X obj 320 420 tgl 24 0 empty empty hit? 28 7 1 10 #fcfcfc #000000
#000000 0 1;
#X obj 320 490 bng 15 250 50 0 empty empty empty 17 7 0 10 #fcfcfc
#000000 #000000;
#X obj 320 460 sel 1;
#X obj 410 420 tgl 24 0 empty empty hit? 28 7 1 10 #fcfcfc #000000
#000000 0 1;
#X obj 410 490 bng 15 250 50 0 empty empty empty 17 7 0 10 #fcfcfc
#000000 #000000;
#X obj 410 460 sel 1;
#X obj 500 420 tgl 24 0 empty empty hit? 28 7 1 10 #fcfcfc #000000
#000000 0 1;
#X obj 500 490 bng 15 250 50 0 empty empty empty 17 7 0 10 #fcfcfc
#000000 #000000;
#X obj 500 460 sel 1;
#X obj 370 150 bng 15 250 50 0 empty empty empty 17 7 0 10 #fcfcfc
#000000 #000000;
#X obj 490 130 receive blue;
#X obj 510 150 bng 14 250 50 0 empty empty empty 17 7 0 10 #fcfcfc
#000000 #000000;
#X obj 350 130 receive red;
#X obj 440 90 receive reset;
#X msg 440 120 10 10;
#N canvas 688 376 434 346 collide 0;
#X obj 20 109 list-map2;
#X obj 115 108 -;
#X obj 115 133 abs;
#X obj 115 165 <= 1;
#X obj 49 35 inlet reference;
#X obj 163 10 inlet radius;
#X obj 20 190 list-reduce;
#X obj 106 190 &&;
#X obj 20 10 inlet test;
#X obj 20 222 outlet;
#X obj 163 53 t b a;
#X connect 0 0 6 0;
#X connect 0 1 1 0;
#X connect 1 0 2 0;
#X connect 2 0 3 0;
#X connect 3 0 0 2;
#X connect 4 0 0 1;
#X connect 5 0 10 0;
#X connect 6 0 9 0;
#X connect 6 1 7 0;
#X connect 7 0 6 1;
#X connect 8 0 0 0;
#X connect 10 0 0 0;
#X connect 10 1 3 1;
#X restore 530 390 pd collide;
#X obj 590 420 tgl 24 0 empty empty hit? 28 7 1 10 #fcfcfc #000000
#000000 0 1;
#X obj 590 490 bng 15 250 50 0 empty empty empty 17 7 0 10 #fcfcfc
#000000 #000000;
#X obj 590 460 sel 1;
#N canvas 688 376 434 346 collide 0;
#X obj 20 109 list-map2;
#X obj 115 108 -;
#X obj 115 133 abs;
#X obj 115 165 <= 1;
#X obj 49 35 inlet reference;
#X obj 163 10 inlet radius;
#X obj 20 190 list-reduce;
#X obj 106 190 &&;
#X obj 20 10 inlet test;
#X obj 20 222 outlet;
#X obj 163 53 t b a;
#X connect 0 0 6 0;
#X connect 0 1 1 0;
#X connect 1 0 2 0;
#X connect 2 0 3 0;
#X connect 3 0 0 2;
#X connect 4 0 0 1;
#X connect 5 0 10 0;
#X connect 6 0 9 0;
#X connect 6 1 7 0;
#X connect 7 0 6 1;
#X connect 8 0 0 0;
#X connect 10 0 0 0;
#X connect 10 1 3 1;
#X restore 620 390 pd collide;
#X obj 680 420 tgl 24 0 empty empty hit? 28 7 1 10 #fcfcfc #000000
#000000 0 1;
#X obj 680 490 bng 15 250 50 0 empty empty empty 17 7 0 10 #fcfcfc
#000000 #000000;
#X obj 680 460 sel 1;
#N canvas 688 376 434 346 collide 0;
#X obj 20 109 list-map2;
#X obj 115 108 -;
#X obj 115 133 abs;
#X obj 115 165 <= 1;
#X obj 49 35 inlet reference;
#X obj 163 10 inlet radius;
#X obj 20 190 list-reduce;
#X obj 106 190 &&;
#X obj 20 10 inlet test;
#X obj 20 222 outlet;
#X obj 163 53 t b a;
#X connect 0 0 6 0;
#X connect 0 1 1 0;
#X connect 1 0 2 0;
#X connect 2 0 3 0;
#X connect 3 0 0 2;
#X connect 4 0 0 1;
#X connect 5 0 10 0;
#X connect 6 0 9 0;
#X connect 6 1 7 0;
#X connect 7 0 6 1;
#X connect 8 0 0 0;
#X connect 10 0 0 0;
#X connect 10 1 3 1;
#X restore 710 390 pd collide;
#X obj 770 420 tgl 24 0 empty empty hit? 28 7 1 10 #fcfcfc #000000
#000000 0 1;
#X obj 770 490 bng 15 250 50 0 empty empty empty 17 7 0 10 #fcfcfc
#000000 #000000;
#X obj 770 460 sel 1;
#N canvas 688 376 434 346 collide 0;
#X obj 20 109 list-map2;
#X obj 115 108 -;
#X obj 115 133 abs;
#X obj 115 165 <= 1;
#X obj 49 35 inlet reference;
#X obj 163 10 inlet radius;
#X obj 20 190 list-reduce;
#X obj 106 190 &&;
#X obj 20 10 inlet test;
#X obj 20 222 outlet;
#X obj 163 53 t b a;
#X connect 0 0 6 0;
#X connect 0 1 1 0;
#X connect 1 0 2 0;
#X connect 2 0 3 0;
#X connect 3 0 0 2;
#X connect 4 0 0 1;
#X connect 5 0 10 0;
#X connect 6 0 9 0;
#X connect 6 1 7 0;
#X connect 7 0 6 1;
#X connect 8 0 0 0;
#X connect 10 0 0 0;
#X connect 10 1 3 1;
#X restore 800 390 pd collide;
#X obj 860 420 tgl 24 0 empty empty hit? 28 7 1 10 #fcfcfc #000000
#000000 0 1;
#X obj 860 490 bng 15 250 50 0 empty empty empty 17 7 0 10 #fcfcfc
#000000 #000000;
#X obj 860 460 sel 1;
#X msg 60 350 -3.2 3.2;
#X msg 150 350 -3.2 1.6;
#X msg 230 350 -3.2 0;
#X msg 300 350 -1.6 -1.6;
#X msg 380 350 0 -1.6;
#X msg 460 350 0 1.6;
#X msg 550 350 1.6 1.6;
#X msg 640 350 3.2 0;
#X msg 730 350 3.2 -1.6;
#X msg 820 350 3.2 -3.2;
#X msg 60 320 -3.2 -3.2;
#X msg 150 320 -1.6 -3.2;
#X msg 230 320 0 -3.2;
#X msg 460 320 -1.6 0;
#X msg 550 320 -1.6 1.6;
#X msg 640 320 0 3.2;
#X msg 730 320 1.6 3.2;
#X msg 820 320 3.2 3.2;
#X msg 850 110 0.96;
#X obj 10 550 send mistake1;
#X msg 300 320 1.6 0;
#X msg 380 320 1.6 -1.6;
#X obj 200 550 send mistake3;
#X obj 290 550 send mistake4;
#X obj 650 550 send mistake8;
#X obj 740 550 send mistake9;
#X obj 830 550 send mistake10;
#X obj 560 550 send mistake7;
#X obj 470 550 send mistake6;
#X obj 380 550 send mistake5;
#X obj 10 620 send reset;
#X obj 100 620 send reset;
#X obj 200 620 send reset;
#X obj 290 620 send reset;
#X obj 380 620 send reset;
#X obj 470 620 send reset;
#X obj 560 620 send reset;
#X obj 650 620 send reset;
#X obj 740 620 send reset;
#X obj 830 620 send reset;
#X obj 100 550 send mistake2;
#X connect 0 0 7 0;
#X connect 0 0 5 0;
#X connect 0 0 4 0;
#X connect 0 0 3 0;
#X connect 0 0 2 0;
#X connect 0 0 1 0;
#X connect 0 0 33 0;
#X connect 0 0 45 0;
#X connect 0 0 41 0;
#X connect 0 0 37 0;
#X connect 1 0 12 0;
#X connect 2 0 15 0;
#X connect 3 0 18 0;
#X connect 4 0 21 0;
#X connect 5 0 24 0;
#X connect 6 0 5 2;
#X connect 6 0 7 2;
#X connect 6 0 4 2;
#X connect 6 0 3 2;
#X connect 6 0 2 2;
#X connect 6 0 1 2;
#X connect 6 0 33 2;
#X connect 6 0 37 2;
#X connect 6 0 45 2;
#X connect 6 0 41 2;
#X connect 7 0 8 0;
#X connect 8 0 10 0;
#X connect 9 0 68 0;
#X connect 9 0 79 0;
#X connect 10 0 9 0;
#X connect 11 0 67 0;
#X connect 12 0 14 0;
#X connect 13 0 80 0;
#X connect 13 0 89 0;
#X connect 14 0 13 0;
#X connect 15 0 17 0;
#X connect 16 0 71 0;
#X connect 16 0 81 0;
#X connect 17 0 16 0;
#X connect 18 0 20 0;
#X connect 19 0 72 0;
#X connect 19 0 82 0;
#X connect 20 0 19 0;
#X connect 21 0 23 0;
#X connect 22 0 78 0;
#X connect 22 0 83 0;
#X connect 23 0 22 0;
#X connect 24 0 26 0;
#X connect 25 0 77 0;
#X connect 25 0 84 0;
#X connect 26 0 25 0;
#X connect 27 0 59 0;
#X connect 27 0 66 0;
#X connect 27 0 65 0;
#X connect 27 0 64 0;
#X connect 27 0 63 0;
#X connect 27 0 62 0;
#X connect 27 0 70 0;
#X connect 27 0 69 0;
#X connect 27 0 61 0;
#X connect 27 0 60 0;
#X connect 28 0 29 0;
#X connect 29 0 49 0;
#X connect 29 0 58 0;
#X connect 29 0 57 0;
#X connect 29 0 56 0;
#X connect 29 0 55 0;
#X connect 29 0 54 0;
#X connect 29 0 53 0;
#X connect 29 0 52 0;
#X connect 29 0 51 0;
#X connect 29 0 50 0;
#X connect 30 0 27 0;
#X connect 31 0 32 0;
#X connect 32 0 7 1;
#X connect 32 0 5 1;
#X connect 32 0 4 1;
#X connect 32 0 3 1;
#X connect 32 0 2 1;
#X connect 32 0 1 1;
#X connect 32 0 33 1;
#X connect 32 0 45 1;
#X connect 32 0 41 1;
#X connect 32 0 37 1;
#X connect 33 0 34 0;
#X connect 34 0 36 0;
#X connect 35 0 76 0;
#X connect 35 0 85 0;
#X connect 36 0 35 0;
#X connect 37 0 38 0;
#X connect 38 0 40 0;
#X connect 39 0 73 0;
#X connect 39 0 86 0;
#X connect 40 0 39 0;
#X connect 41 0 42 0;
#X connect 42 0 44 0;
#X connect 43 0 74 0;
#X connect 43 0 87 0;
#X connect 44 0 43 0;
#X connect 45 0 46 0;
#X connect 46 0 48 0;
#X connect 47 0 75 0;
#X connect 47 0 88 0;
#X connect 48 0 47 0;
#X connect 49 0 7 1;
#X connect 50 0 1 1;
#X connect 51 0 2 1;
#X connect 52 0 3 1;
#X connect 53 0 4 1;
#X connect 54 0 5 1;
#X connect 55 0 33 1;
#X connect 56 0 37 1;
#X connect 57 0 41 1;
#X connect 58 0 45 1;
#X connect 59 0 7 1;
#X connect 60 0 1 1;
#X connect 61 0 2 1;
#X connect 62 0 5 1;
#X connect 63 0 33 1;
#X connect 64 0 37 1;
#X connect 65 0 41 1;
#X connect 66 0 45 1;
#X connect 67 0 6 0;
#X connect 69 0 3 1;
#X connect 70 0 4 1;
#X restore 157 107 pd Collision Logic;
#N canvas 564 68 462 562 spawner 0;
#X obj 186 381 pack 0 0;
#X floatatom 106 381 7 0 0 0 - - -, f 7;
#X floatatom 296 381 6 0 0 0 - - -, f 6;
#X obj 214 159 bng 15 250 50 0 empty empty empty 17 7 0 10 #fcfcfc
#000000 #000000;
#X obj 66 251 random 1000;
#X obj 66 276 / 1000;
#X obj 136 331 +;
#X obj 336 251 random 1000;
#X obj 336 276 / 1000;
#X obj 184 409 outlet;
#X obj 220 235 -;
#X obj 166 181 random 7;
#X obj 236 181 random 7;
#X obj 220 215 swap 7;
#X obj 166 269 - 3.5;
#X obj 230 265 - 3.5;
#X obj 170 335 send new_point;
#X obj 266 331 -;
#X obj 310 40 receive reset;
#X obj 100 60 tgl 15 0 empty empty empty 17 7 0 10 #fcfcfc #000000
#000000 0 1;
#X obj 130 60 bng 15 250 50 0 empty empty empty 17 7 0 10 #fcfcfc #000000
#000000;
#X obj 160 60 tgl 16 0 empty empty empty 17 7 0 10 #fcfcfc #000000
#000000 1 1;
#X obj 62 21 spigot;
#X obj 162 21 spigot;
#X obj 212 21 loadbang;
#X obj 40 -10 receive reset;
#X obj 180 -10 receive start;
#X obj 100 83 sel 1;
#X obj 180 110 metro 4000;
#X obj 110 140 spigot;
#X connect 0 0 9 0;
#X connect 3 0 4 0;
#X connect 3 0 7 0;
#X connect 3 0 11 0;
#X connect 3 0 12 0;
#X connect 3 0 16 0;
#X connect 4 0 5 0;
#X connect 5 0 6 1;
#X connect 6 0 1 0;
#X connect 6 0 0 0;
#X connect 7 0 8 0;
#X connect 8 0 17 1;
#X connect 10 0 15 0;
#X connect 11 0 14 0;
#X connect 12 0 13 0;
#X connect 13 0 10 0;
#X connect 13 1 10 1;
#X connect 14 0 6 0;
#X connect 15 0 17 0;
#X connect 17 0 2 0;
#X connect 17 0 0 1;
#X connect 19 0 20 0;
#X connect 19 0 22 1;
#X connect 19 0 27 0;
#X connect 19 0 29 1;
#X connect 20 0 21 0;
#X connect 21 0 23 1;
#X connect 22 0 19 0;
#X connect 23 0 19 0;
#X connect 24 0 21 0;
#X connect 25 0 22 0;
#X connect 26 0 23 0;
#X connect 27 0 3 0;
#X connect 27 0 28 0;
#X connect 28 0 29 0;
#X connect 29 0 3 0;
#X restore 47 47 pd spawner;
#X msg 77 67 0.24;
#X connect 0 0 3 2;
#X connect 1 0 6 0;
#X connect 2 0 3 0;
#X connect 2 0 4 0;
#X connect 5 0 3 1;
#X connect 6 0 0 0;
#X restore 10 60 pd GameLogic;
#N canvas -25600 -25600 114 0 Game_overScreen 0;
#X msg 30 160 set 57;
#X obj 30 185 gemhead;
#X obj 30 240 text2d GAME OVER;
#X floatatom 130 215 5 0 0 0 - - -, f 5;
#X msg 130 190 69;
#X obj 130 170 loadbang;
#X obj 200 170 gemhead;
#X obj 320 370 f;
#X obj 240 250 hsl 87 15 -6 6 0 0 empty empty empty -2 -8 0 10 #fcfcfc
#000000 #000000 4500 1;
#X obj 240 270 hsl 88 15 -6 6 0 0 empty empty empty -2 -8 0 10 #fcfcfc
#000000 #000000 3900 1;
#X msg 220 200 set \$1;
#X msg 290 200 set \$1;
#X msg 220 220 0.27907;
#X msg 290 220 -0.62069;
#X obj 200 300 translateXYZ 0 0 0;
#X obj 310 160 loadbang, f 9;
#X msg 430 180 set 57;
#X obj 430 205 gemhead;
#X obj 480 290 hsl 87 15 -6 6 0 0 empty empty empty -2 -8 0 10 #fcfcfc
#000000 #000000 4013 1;
#X obj 480 310 hsl 88 15 -6 6 0 0 empty empty empty -2 -8 0 10 #fcfcfc
#000000 #000000 4024 1;
#X msg 460 240 set \$1;
#X msg 530 240 set \$1;
#X obj 320 330 receive score-no;
#X obj 200 340 colorRGB 1 1 1;
#X msg 650 180 set 57;
#X obj 650 205 gemhead;
#X obj 700 290 hsl 87 15 -6 6 0 0 empty empty empty -2 -8 0 10 #fcfcfc
#000000 #000000 4698 1;
#X obj 700 310 hsl 88 15 -6 6 0 0 empty empty empty -2 -8 0 10 #fcfcfc
#000000 #000000 4024 1;
#X msg 680 240 set \$1;
#X msg 750 240 set \$1;
#X obj 200 440 text2d 0;
#X msg 200 140 set 57;
#X obj 500 170 loadbang, f 9;
#X obj 720 180 loadbang, f 9;
#X obj 410 70 tgl 15 0 empty empty empty 17 7 0 10 #fcfcfc #000000
#000000 0 1;
#X obj 440 70 bng 15 250 50 0 empty empty empty 17 7 0 10 #fcfcfc #000000
#000000;
#X obj 470 70 tgl 15 0 empty empty empty 17 7 0 10 #fcfcfc #000000
#000000 1 1;
#X obj 320 50 spigot;
#X obj 460 40 spigot;
#X obj 320 20 receive reset;
#X obj 530 60 loadbang;
#X obj 480 10 receive start;
#X obj 620 30 loadbang;
#X msg 590 90 set 45;
#X obj 620 55 delay 100;
#X floatatom 250 415 5 0 0 0 - - -, f 5;
#X obj 250 370 loadbang;
#X floatatom 580 425 5 0 0 0 - - -, f 5;
#X obj 580 380 loadbang;
#X floatatom 750 415 5 0 0 0 - - -, f 5;
#X obj 750 370 loadbang;
#X msg 750 390 20;
#X msg 580 400 20;
#X msg 250 390 20;
#X obj 30 215 colorRGB 1 1 1;
#X obj 440 340 translateXYZ 1 1 1;
#X obj 660 340 translateXYZ 1 1 1;
#X obj 420 455 text2d Your Score;
#X obj 640 460 text2d points;
#X obj 650 420 colorRGB 1 1 1;
#X msg 460 260 -0.4;
#X msg 530 260 -0.45;
#X obj 430 420 colorRGB 1 1 1;
#X msg 750 260 -0.45;
#X msg 680 260 0.555767;
#X connect 0 0 1 0;
#X connect 1 0 54 0;
#X connect 3 0 2 1;
#X connect 4 0 3 0;
#X connect 5 0 4 0;
#X connect 6 0 14 0;
#X connect 7 0 30 0;
#X connect 8 0 10 0;
#X connect 8 0 14 1;
#X connect 9 0 11 0;
#X connect 9 0 14 2;
#X connect 10 0 12 0;
#X connect 11 0 13 0;
#X connect 12 0 8 0;
#X connect 13 0 9 0;
#X connect 14 0 23 0;
#X connect 15 0 12 0;
#X connect 15 0 13 0;
#X connect 16 0 17 0;
#X connect 17 0 55 0;
#X connect 18 0 20 0;
#X connect 18 0 55 1;
#X connect 19 0 21 0;
#X connect 19 0 55 2;
#X connect 20 0 60 0;
#X connect 21 0 61 0;
#X connect 22 0 7 0;
#X connect 23 0 30 0;
#X connect 24 0 25 0;
#X connect 25 0 56 0;
#X connect 26 0 28 0;
#X connect 26 0 56 1;
#X connect 27 0 29 0;
#X connect 27 0 56 2;
#X connect 28 0 64 0;
#X connect 29 0 63 0;
#X connect 31 0 6 0;
#X connect 32 0 60 0;
#X connect 32 0 61 0;
#X connect 33 0 64 0;
#X connect 33 0 63 0;
#X connect 34 0 35 0;
#X connect 34 0 37 1;
#X connect 35 0 36 0;
#X connect 36 0 38 1;
#X connect 36 0 1 0;
#X connect 36 0 6 0;
#X connect 37 0 34 0;
#X connect 37 0 0 0;
#X connect 37 0 31 0;
#X connect 37 0 16 0;
#X connect 37 0 24 0;
#X connect 38 0 34 0;
#X connect 39 0 37 0;
#X connect 40 0 36 0;
#X connect 41 0 38 0;
#X connect 42 0 44 0;
#X connect 43 0 1 0;
#X connect 43 0 6 0;
#X connect 43 0 17 0;
#X connect 43 0 25 0;
#X connect 44 0 43 0;
#X connect 45 0 30 1;
#X connect 46 0 53 0;
#X connect 47 0 57 1;
#X connect 48 0 52 0;
#X connect 49 0 58 1;
#X connect 50 0 51 0;
#X connect 51 0 49 0;
#X connect 52 0 47 0;
#X connect 53 0 45 0;
#X connect 54 0 2 0;
#X connect 55 0 62 0;
#X connect 56 0 59 0;
#X connect 59 0 58 0;
#X connect 60 0 18 0;
#X connect 61 0 19 0;
#X connect 62 0 57 0;
#X connect 63 0 27 0;
#X connect 64 0 26 0;
#X restore 10 140 pd Game_overScreen;
#X connect 5 0 6 0;
#X connect 8 0 7 0;
#X connect 9 0 11 0;
#X connect 10 0 12 0;
