#N canvas 1052 32 473 352 10;
#X obj 20 60 gemwin;
#X msg 40 40 destroy;
#X msg 20 20 dimen 600 600 \, create \, 1;
#N canvas 299 0 1105 748 Blue_Tiles 0;
#X obj 170 260 hsl 87 15 -6 6 0 0 empty empty empty -2 -8 0 10 #fcfcfc
#000000 #000000 6450 1;
#X obj 170 280 hsl 88 15 -6 6 0 0 empty empty empty -2 -8 0 10 #fcfcfc
#000000 #000000 6525 1;
#X floatatom 150 330 4 0 0 0 - - -, f 4;
#X floatatom 180 330 4 0 0 0 - - -, f 4;
#X floatatom 210 330 4 0 0 0 - - -, f 4;
#X obj 130 190 gemhead;
#X msg 150 210 set \$1;
#X msg 220 210 set \$1;
#X obj 130 310 translateXYZ 0 0 0;
#X obj 570 250 hsl 87 15 -6 6 0 0 empty empty empty -2 -8 0 10 #fcfcfc
#000000 #000000 2150 1;
#X obj 570 270 hsl 88 15 -6 6 0 0 empty empty empty -2 -8 0 10 #fcfcfc
#000000 #000000 5075 1;
#X floatatom 550 320 4 0 0 0 - - -, f 4;
#X floatatom 580 320 4 0 0 0 - - -, f 4;
#X floatatom 610 320 4 0 0 0 - - -, f 4;
#X obj 530 180 gemhead;
#X msg 550 200 set \$1;
#X msg 620 200 set \$1;
#X obj 1040 240 hsl 87 15 -6 6 0 0 empty empty empty -2 -8 0 10 #fcfcfc
#000000 #000000 3583 1;
#X obj 1040 260 hsl 88 15 -6 6 0 0 empty empty empty -2 -8 0 10 #fcfcfc
#000000 #000000 5075 1;
#X floatatom 1020 310 4 0 0 0 - - -, f 4;
#X floatatom 1050 310 4 0 0 0 - - -, f 4;
#X floatatom 1080 310 4 0 0 0 - - -, f 4;
#X obj 1000 170 gemhead;
#X msg 1020 190 set \$1;
#X msg 1090 190 set \$1;
#X obj 1130 300 loadbang;
#X obj 680 300 loadbang;
#X obj 280 310 loadbang;
#X msg 150 230 3;
#X obj 130 540 square 1;
#X obj 530 540 square 1;
#X obj 1000 540 square 1;
#X msg 1090 210 1;
#X obj 160 750 hsl 87 15 -6 6 0 0 empty empty empty -2 -8 0 10 #fcfcfc
#000000 #000000 2150 1;
#X obj 160 770 hsl 88 15 -6 6 0 0 empty empty empty -2 -8 0 10 #fcfcfc
#000000 #000000 6525 1;
#X floatatom 140 820 4 0 0 0 - - -, f 4;
#X floatatom 170 820 4 0 0 0 - - -, f 4;
#X floatatom 200 820 4 0 0 0 - - -, f 4;
#X obj 120 680 gemhead;
#X msg 140 700 set \$1;
#X msg 210 700 set \$1;
#X obj 120 800 translateXYZ 0 0 0;
#X obj 250 820 loadbang;
#X obj 120 1030 square 1;
#X obj 560 760 hsl 87 15 -6 6 0 0 empty empty empty -2 -8 0 10 #fcfcfc
#000000 #000000 5017 1;
#X obj 560 780 hsl 88 15 -6 6 0 0 empty empty empty -2 -8 0 10 #fcfcfc
#000000 #000000 6525 1;
#X floatatom 540 830 4 0 0 0 - - -, f 4;
#X floatatom 570 830 4 0 0 0 - - -, f 4;
#X floatatom 600 830 4 0 0 0 - - -, f 4;
#X obj 520 690 gemhead;
#X msg 540 710 set \$1;
#X msg 610 710 set \$1;
#X obj 520 810 translateXYZ 0 0 0;
#X obj 640 840 loadbang;
#X obj 520 1030 square 1;
#X msg 610 730 3;
#X obj 1030 760 hsl 87 15 -6 6 0 0 empty empty empty -2 -8 0 10 #fcfcfc
#000000 #000000 3583 1;
#X obj 1030 780 hsl 88 15 -6 6 0 0 empty empty empty -2 -8 0 10 #fcfcfc
#000000 #000000 2175 1;
#X floatatom 1010 830 4 0 0 0 - - -, f 4;
#X floatatom 1040 830 4 0 0 0 - - -, f 4;
#X floatatom 1070 830 4 0 0 0 - - -, f 4;
#X obj 990 690 gemhead;
#X msg 1010 710 set \$1;
#X msg 1080 710 set \$1;
#X obj 990 810 translateXYZ 0 0 0;
#X obj 1110 850 loadbang;
#X obj 990 1040 square 1;
#X msg 540 730 1;
#X msg 1010 730 -1;
#X msg 1080 730 -3;
#X msg 1020 210 -1;
#X msg 140 720 -3;
#X msg 210 720 3;
#X msg 550 220 -3;
#X msg 620 220 1;
#X msg 220 230 3;
#X obj 120 850 colorRGB 0 0 1 0;
#X obj 520 860 colorRGB 0 0 1 0;
#X obj 990 860 colorRGB 0 0 1 0;
#X obj 530 300 translateXYZ 0 0 0;
#X obj 1000 290 translateXYZ 0 0 0;
#X obj 1000 340 colorRGB 0 0 1 0;
#X obj 530 350 colorRGB 0 0 1 0;
#X obj 130 360 colorRGB 0 0 1 0;
#X obj 990 580 receive red;
#X obj 1070 580 receive blue;
#X obj 990 650 tgl 15 0 empty empty empty 17 7 0 10 #fcfcfc #000000
#000000 1 1;
#X obj 990 610 spigot;
#X obj 1030 650 bng 15 250 50 0 empty empty empty 17 7 0 10 #fcfcfc
#000000 #000000;
#X obj 1060 650 tgl 15 0 empty empty empty 17 7 0 10 #fcfcfc #000000
#000000 0 1;
#X obj 1050 620 spigot;
#X obj 530 80 receive red;
#X obj 610 80 receive blue;
#X obj 530 150 tgl 15 0 empty empty empty 17 7 0 10 #fcfcfc #000000
#000000 1 1;
#X obj 530 110 spigot;
#X obj 570 150 bng 15 250 50 0 empty empty empty 17 7 0 10 #fcfcfc
#000000 #000000;
#X obj 600 150 tgl 15 0 empty empty empty 17 7 0 10 #fcfcfc #000000
#000000 0 1;
#X obj 590 120 spigot;
#X obj 130 90 receive red;
#X obj 210 90 receive blue;
#X obj 130 160 tgl 15 0 empty empty empty 17 7 0 10 #fcfcfc #000000
#000000 1 1;
#X obj 130 120 spigot;
#X obj 170 160 bng 15 250 50 0 empty empty empty 17 7 0 10 #fcfcfc
#000000 #000000;
#X obj 200 160 tgl 15 0 empty empty empty 17 7 0 10 #fcfcfc #000000
#000000 0 1;
#X obj 190 130 spigot;
#X obj 120 580 receive red;
#X obj 200 580 receive blue;
#X obj 120 650 tgl 15 0 empty empty empty 17 7 0 10 #fcfcfc #000000
#000000 1 1;
#X obj 120 610 spigot;
#X obj 160 650 bng 15 250 50 0 empty empty empty 17 7 0 10 #fcfcfc
#000000 #000000;
#X obj 190 650 tgl 15 0 empty empty empty 17 7 0 10 #fcfcfc #000000
#000000 0 1;
#X obj 180 620 spigot;
#X obj 520 590 receive red;
#X obj 600 590 receive blue;
#X obj 520 660 tgl 15 0 empty empty empty 17 7 0 10 #fcfcfc #000000
#000000 1 1;
#X obj 520 620 spigot;
#X obj 560 660 bng 15 250 50 0 empty empty empty 17 7 0 10 #fcfcfc
#000000 #000000;
#X obj 590 660 tgl 15 0 empty empty empty 17 7 0 10 #fcfcfc #000000
#000000 0 1;
#X obj 580 630 spigot;
#X obj 1000 70 receive red;
#X obj 1080 70 receive blue;
#X obj 1000 140 tgl 15 0 empty empty empty 17 7 0 10 #fcfcfc #000000
#000000 1 1;
#X obj 1000 100 spigot;
#X obj 1040 140 bng 15 250 50 0 empty empty empty 17 7 0 10 #fcfcfc
#000000 #000000;
#X obj 1070 140 tgl 15 0 empty empty empty 17 7 0 10 #fcfcfc #000000
#000000 0 1;
#X obj 1060 110 spigot;
#X obj 680 130 receive all;
#X obj 650 630 receive all;
#X obj 124 442 pix_image;
#X obj 250 370 loadbang;
#X obj 124 512 pix_texture;
#X msg 206 474 env \$1;
#X obj 206 454 hradio 15 1 0 6 empty empty empty 0 -6 0 8 #fcfcfc #000000
#000000 1;
#X msg 206 424 1;
#X obj 524 442 pix_image;
#X obj 650 370 loadbang;
#X obj 524 512 pix_texture;
#X msg 606 474 env \$1;
#X obj 606 454 hradio 15 1 0 6 empty empty empty 0 -6 0 8 #fcfcfc #000000
#000000 1;
#X msg 606 424 1;
#X obj 1000 441 pix_image;
#X obj 1126 369 loadbang;
#X obj 1000 511 pix_texture;
#X msg 1082 473 env \$1;
#X obj 1082 453 hradio 15 1 0 6 empty empty empty 0 -6 0 8 #fcfcfc
#000000 #000000 1;
#X msg 1082 423 1;
#X obj 122 931 pix_image;
#X obj 248 859 loadbang;
#X obj 122 1001 pix_texture;
#X msg 204 963 env \$1;
#X obj 204 943 hradio 15 1 0 6 empty empty empty 0 -6 0 8 #fcfcfc #000000
#000000 1;
#X msg 204 913 1;
#X obj 512 934 pix_image;
#X obj 638 862 loadbang;
#X obj 512 1004 pix_texture;
#X msg 594 966 env \$1;
#X obj 594 946 hradio 15 1 0 6 empty empty empty 0 -6 0 8 #fcfcfc #000000
#000000 1;
#X msg 594 916 1;
#X obj 997 942 pix_image;
#X obj 1123 870 loadbang;
#X obj 997 1012 pix_texture;
#X msg 1079 974 env \$1;
#X obj 1079 954 hradio 15 1 0 6 empty empty empty 0 -6 0 8 #fcfcfc
#000000 #000000 1;
#X msg 1079 924 1;
#X msg 154 392 open Art/Water.png;
#X msg 554 392 open Art/Water.png;
#X msg 1030 391 open Art/Water.png;
#X msg 1027 892 open Art/Water.png;
#X msg 542 884 open Art/Water.png;
#X msg 152 881 open Art/Water.png;
#X connect 0 0 6 0;
#X connect 0 0 8 1;
#X connect 1 0 7 0;
#X connect 1 0 8 2;
#X connect 2 0 83 1;
#X connect 3 0 83 2;
#X connect 4 0 83 3;
#X connect 5 0 8 0;
#X connect 6 0 28 0;
#X connect 7 0 75 0;
#X connect 8 0 83 0;
#X connect 9 0 15 0;
#X connect 9 0 79 1;
#X connect 10 0 16 0;
#X connect 10 0 79 2;
#X connect 11 0 82 1;
#X connect 12 0 82 2;
#X connect 13 0 82 3;
#X connect 14 0 79 0;
#X connect 15 0 73 0;
#X connect 16 0 74 0;
#X connect 17 0 23 0;
#X connect 17 0 80 1;
#X connect 18 0 24 0;
#X connect 18 0 80 2;
#X connect 19 0 81 1;
#X connect 20 0 81 2;
#X connect 21 0 81 3;
#X connect 22 0 80 0;
#X connect 23 0 70 0;
#X connect 24 0 32 0;
#X connect 25 0 70 0;
#X connect 25 0 32 0;
#X connect 25 0 124 0;
#X connect 25 0 89 0;
#X connect 26 0 73 0;
#X connect 26 0 74 0;
#X connect 26 0 96 0;
#X connect 26 0 117 0;
#X connect 27 0 28 0;
#X connect 27 0 75 0;
#X connect 27 0 103 0;
#X connect 27 0 110 0;
#X connect 28 0 0 0;
#X connect 28 0 8 1;
#X connect 32 0 18 0;
#X connect 32 0 80 2;
#X connect 33 0 39 0;
#X connect 33 0 41 1;
#X connect 34 0 41 2;
#X connect 35 0 76 1;
#X connect 36 0 76 2;
#X connect 37 0 76 3;
#X connect 38 0 41 0;
#X connect 39 0 71 0;
#X connect 40 0 72 0;
#X connect 41 0 76 0;
#X connect 42 0 71 0;
#X connect 42 0 72 0;
#X connect 44 0 50 0;
#X connect 44 0 52 1;
#X connect 45 0 52 2;
#X connect 46 0 77 1;
#X connect 47 0 77 2;
#X connect 48 0 77 3;
#X connect 49 0 52 0;
#X connect 50 0 67 0;
#X connect 51 0 55 0;
#X connect 52 0 77 0;
#X connect 53 0 67 0;
#X connect 53 0 55 0;
#X connect 55 0 52 2;
#X connect 55 0 45 0;
#X connect 56 0 62 0;
#X connect 56 0 64 1;
#X connect 57 0 64 2;
#X connect 58 0 78 1;
#X connect 59 0 78 2;
#X connect 60 0 78 3;
#X connect 61 0 64 0;
#X connect 62 0 68 0;
#X connect 63 0 69 0;
#X connect 64 0 78 0;
#X connect 65 0 68 0;
#X connect 65 0 69 0;
#X connect 67 0 44 0;
#X connect 67 0 52 1;
#X connect 68 0 56 0;
#X connect 68 0 64 1;
#X connect 69 0 64 2;
#X connect 69 0 57 0;
#X connect 70 0 17 0;
#X connect 70 0 80 1;
#X connect 71 0 33 0;
#X connect 71 0 41 1;
#X connect 72 0 41 2;
#X connect 72 0 34 0;
#X connect 73 0 9 0;
#X connect 73 0 79 1;
#X connect 74 0 10 0;
#X connect 74 0 79 2;
#X connect 75 0 8 2;
#X connect 75 0 1 0;
#X connect 76 0 146 0;
#X connect 77 0 152 0;
#X connect 78 0 158 0;
#X connect 79 0 82 0;
#X connect 80 0 81 0;
#X connect 81 0 140 0;
#X connect 82 0 134 0;
#X connect 83 0 128 0;
#X connect 84 0 87 0;
#X connect 85 0 90 0;
#X connect 86 0 87 1;
#X connect 86 0 88 0;
#X connect 86 0 61 0;
#X connect 87 0 86 0;
#X connect 88 0 89 0;
#X connect 89 0 90 1;
#X connect 90 0 86 0;
#X connect 91 0 94 0;
#X connect 92 0 97 0;
#X connect 93 0 94 1;
#X connect 93 0 95 0;
#X connect 93 0 14 0;
#X connect 94 0 93 0;
#X connect 95 0 96 0;
#X connect 96 0 97 1;
#X connect 97 0 93 0;
#X connect 98 0 101 0;
#X connect 99 0 104 0;
#X connect 100 0 101 1;
#X connect 100 0 102 0;
#X connect 100 0 5 0;
#X connect 101 0 100 0;
#X connect 102 0 103 0;
#X connect 103 0 104 1;
#X connect 104 0 100 0;
#X connect 105 0 108 0;
#X connect 106 0 111 0;
#X connect 107 0 108 1;
#X connect 107 0 109 0;
#X connect 107 0 38 0;
#X connect 108 0 107 0;
#X connect 109 0 110 0;
#X connect 110 0 111 1;
#X connect 111 0 107 0;
#X connect 112 0 115 0;
#X connect 113 0 118 0;
#X connect 114 0 115 1;
#X connect 114 0 116 0;
#X connect 114 0 49 0;
#X connect 115 0 114 0;
#X connect 116 0 117 0;
#X connect 117 0 118 1;
#X connect 118 0 114 0;
#X connect 119 0 122 0;
#X connect 120 0 125 0;
#X connect 121 0 122 1;
#X connect 121 0 123 0;
#X connect 121 0 22 0;
#X connect 122 0 121 0;
#X connect 123 0 124 0;
#X connect 124 0 125 1;
#X connect 125 0 121 0;
#X connect 126 0 104 0;
#X connect 126 0 97 0;
#X connect 126 0 125 0;
#X connect 127 0 118 0;
#X connect 127 0 111 0;
#X connect 127 0 90 0;
#X connect 128 0 130 0;
#X connect 129 0 164 0;
#X connect 129 0 133 0;
#X connect 130 0 29 0;
#X connect 131 0 130 0;
#X connect 132 0 131 0;
#X connect 132 0 130 0;
#X connect 133 0 132 0;
#X connect 134 0 136 0;
#X connect 135 0 165 0;
#X connect 135 0 139 0;
#X connect 136 0 30 0;
#X connect 137 0 136 0;
#X connect 138 0 137 0;
#X connect 138 0 136 0;
#X connect 139 0 138 0;
#X connect 140 0 142 0;
#X connect 141 0 166 0;
#X connect 141 0 145 0;
#X connect 142 0 31 0;
#X connect 143 0 142 0;
#X connect 144 0 143 0;
#X connect 144 0 142 0;
#X connect 145 0 144 0;
#X connect 146 0 148 0;
#X connect 147 0 169 0;
#X connect 147 0 151 0;
#X connect 148 0 43 0;
#X connect 149 0 148 0;
#X connect 150 0 149 0;
#X connect 150 0 148 0;
#X connect 151 0 150 0;
#X connect 152 0 154 0;
#X connect 153 0 168 0;
#X connect 153 0 157 0;
#X connect 154 0 54 0;
#X connect 155 0 154 0;
#X connect 156 0 155 0;
#X connect 156 0 154 0;
#X connect 157 0 156 0;
#X connect 158 0 160 0;
#X connect 159 0 167 0;
#X connect 159 0 163 0;
#X connect 160 0 66 0;
#X connect 161 0 160 0;
#X connect 162 0 161 0;
#X connect 162 0 160 0;
#X connect 163 0 162 0;
#X connect 164 0 128 0;
#X connect 165 0 134 0;
#X connect 166 0 140 0;
#X connect 167 0 158 0;
#X connect 168 0 152 0;
#X connect 169 0 146 0;
#X restore 20 140 pd Blue_Tiles;
#N canvas 569 16 917 736 Green_Tiles 0;
#X obj 190 -90 hsl 87 15 -6 6 0 0 empty empty empty -2 -8 0 10 #fcfcfc
#000000 #000000 2150 1;
#X obj 190 -70 hsl 88 15 -6 6 0 0 empty empty empty -2 -8 0 10 #fcfcfc
#000000 #000000 3625 1;
#X floatatom 190 -20 4 0 0 0 - - -, f 4;
#X floatatom 220 -20 4 0 0 0 - - -, f 4;
#X floatatom 250 -20 4 0 0 0 - - -, f 4;
#X obj 170 -160 gemhead;
#X msg 190 -140 set \$1;
#X msg 260 -140 set \$1;
#X obj 170 -40 translateXYZ 0 0 0;
#X obj 440 -90 hsl 87 15 -6 6 0 0 empty empty empty -2 -8 0 10 #fcfcfc
#000000 #000000 3583 1;
#X obj 440 -70 hsl 88 15 -6 6 0 0 empty empty empty -2 -8 0 10 #fcfcfc
#000000 #000000 6525 1;
#X floatatom 420 -20 4 0 0 0 - - -, f 4;
#X floatatom 450 -20 4 0 0 0 - - -, f 4;
#X floatatom 480 -20 4 0 0 0 - - -, f 4;
#X obj 400 -160 gemhead;
#X msg 420 -140 set \$1;
#X msg 490 -140 set \$1;
#X obj 400 -40 translateXYZ 0 0 0;
#X obj 208 348 hsl 87 15 -6 6 0 0 empty empty empty -2 -8 0 10 #fcfcfc
#000000 #000000 6450 1;
#X obj 208 368 hsl 88 15 -6 6 0 0 empty empty empty -2 -8 0 10 #fcfcfc
#000000 #000000 5075 1;
#X floatatom 188 418 4 0 0 0 - - -, f 4;
#X floatatom 218 418 4 0 0 0 - - -, f 4;
#X floatatom 248 418 4 0 0 0 - - -, f 4;
#X obj 168 278 gemhead;
#X msg 188 298 set \$1;
#X msg 258 298 set \$1;
#X obj 168 398 translateXYZ 0 0 0;
#X obj 308 -82 loadbang;
#X obj 548 -72 loadbang;
#X obj 306 386 loadbang;
#X obj 170 240 square 1;
#X obj 400 250 square 1;
#X obj 170 650 square 1;
#X msg 190 -120 -3;
#X msg 420 -120 -1;
#X msg 188 318 3;
#X obj 438 348 hsl 87 15 -6 6 0 0 empty empty empty -2 -8 0 10 #fcfcfc
#000000 #000000 5017 1;
#X obj 438 368 hsl 88 15 -6 6 0 0 empty empty empty -2 -8 0 10 #fcfcfc
#000000 #000000 2175 1;
#X floatatom 418 418 4 0 0 0 - - -, f 4;
#X floatatom 448 418 4 0 0 0 - - -, f 4;
#X floatatom 478 418 4 0 0 0 - - -, f 4;
#X obj 398 278 gemhead;
#X msg 418 298 set \$1;
#X msg 488 298 set \$1;
#X obj 398 398 translateXYZ 0 0 0;
#X obj 540 430 loadbang;
#X obj 400 660 square 1;
#X obj 170 10 colorRGB 0 1 0;
#X obj 400 10 colorRGB 0 1 0;
#X obj 398 448 colorRGB 0 1 0;
#X msg 260 -120 -1;
#X msg 490 -120 3;
#X msg 258 318 1;
#X msg 418 318 1;
#X msg 488 318 -3;
#X obj 168 448 colorRGB 0 1 0;
#X obj 170 130 pix_image;
#X obj 200 50 loadbang;
#X obj 170 200 pix_texture;
#X msg 252 162 env \$1;
#X obj 252 142 hradio 15 1 0 6 empty empty empty 0 -6 0 8 #fcfcfc #000000
#000000 1;
#X msg 252 112 1;
#X obj 394 133 pix_image;
#X obj 424 53 loadbang;
#X obj 394 203 pix_texture;
#X msg 476 165 env \$1;
#X obj 476 145 hradio 15 1 0 6 empty empty empty 0 -6 0 8 #fcfcfc #000000
#000000 1;
#X msg 476 115 1;
#X obj 402 551 pix_image;
#X obj 432 471 loadbang;
#X obj 402 621 pix_texture;
#X msg 484 583 env \$1;
#X obj 484 563 hradio 15 1 0 6 empty empty empty 0 -6 0 8 #fcfcfc #000000
#000000 1;
#X msg 484 533 1;
#X obj 173 542 pix_image;
#X obj 200 470 loadbang;
#X obj 170 610 pix_texture;
#X msg 255 574 env \$1;
#X obj 255 554 hradio 15 1 0 6 empty empty empty 0 -6 0 8 #fcfcfc #000000
#000000 1;
#X msg 255 524 1;
#X msg 424 83 open Art/Grass1.png;
#X msg 200 80 open Art/Grass1.png;
#X msg 432 501 open Art/Grass1.png;
#X msg 203 492 open Art/Grass1.png;
#X connect 0 0 6 0;
#X connect 0 0 8 1;
#X connect 1 0 7 0;
#X connect 1 0 8 2;
#X connect 2 0 47 1;
#X connect 3 0 47 2;
#X connect 4 0 47 3;
#X connect 5 0 8 0;
#X connect 6 0 33 0;
#X connect 7 0 50 0;
#X connect 8 0 47 0;
#X connect 9 0 15 0;
#X connect 9 0 17 1;
#X connect 10 0 16 0;
#X connect 10 0 17 2;
#X connect 11 0 48 1;
#X connect 12 0 48 2;
#X connect 13 0 48 3;
#X connect 14 0 17 0;
#X connect 15 0 34 0;
#X connect 16 0 51 0;
#X connect 17 0 48 0;
#X connect 18 0 24 0;
#X connect 18 0 26 1;
#X connect 19 0 25 0;
#X connect 19 0 26 2;
#X connect 20 0 55 1;
#X connect 21 0 55 2;
#X connect 22 0 55 3;
#X connect 23 0 26 0;
#X connect 24 0 35 0;
#X connect 25 0 52 0;
#X connect 26 0 55 0;
#X connect 27 0 33 0;
#X connect 27 0 50 0;
#X connect 28 0 34 0;
#X connect 28 0 51 0;
#X connect 29 0 35 0;
#X connect 29 0 52 0;
#X connect 33 0 0 0;
#X connect 33 0 8 1;
#X connect 34 0 9 0;
#X connect 34 0 17 1;
#X connect 35 0 18 0;
#X connect 35 0 26 1;
#X connect 36 0 42 0;
#X connect 36 0 44 1;
#X connect 37 0 43 0;
#X connect 37 0 44 2;
#X connect 38 0 49 1;
#X connect 39 0 49 2;
#X connect 40 0 49 3;
#X connect 41 0 44 0;
#X connect 42 0 53 0;
#X connect 43 0 54 0;
#X connect 44 0 49 0;
#X connect 45 0 53 0;
#X connect 45 0 54 0;
#X connect 47 0 56 0;
#X connect 48 0 62 0;
#X connect 49 0 68 0;
#X connect 50 0 8 2;
#X connect 50 0 1 0;
#X connect 51 0 17 2;
#X connect 51 0 10 0;
#X connect 52 0 26 2;
#X connect 52 0 19 0;
#X connect 53 0 36 0;
#X connect 53 0 44 1;
#X connect 54 0 44 2;
#X connect 54 0 37 0;
#X connect 55 0 74 0;
#X connect 56 0 58 0;
#X connect 57 0 81 0;
#X connect 57 0 61 0;
#X connect 58 0 30 0;
#X connect 59 0 58 0;
#X connect 60 0 59 0;
#X connect 60 0 58 0;
#X connect 61 0 60 0;
#X connect 62 0 64 0;
#X connect 63 0 80 0;
#X connect 63 0 67 0;
#X connect 64 0 31 0;
#X connect 65 0 64 0;
#X connect 66 0 65 0;
#X connect 66 0 64 0;
#X connect 67 0 66 0;
#X connect 68 0 70 0;
#X connect 69 0 82 0;
#X connect 69 0 73 0;
#X connect 70 0 46 0;
#X connect 71 0 70 0;
#X connect 72 0 71 0;
#X connect 72 0 70 0;
#X connect 73 0 72 0;
#X connect 74 0 76 0;
#X connect 75 0 83 0;
#X connect 75 0 79 0;
#X connect 76 0 32 0;
#X connect 77 0 76 0;
#X connect 78 0 77 0;
#X connect 78 0 76 0;
#X connect 79 0 78 0;
#X connect 80 0 62 0;
#X connect 81 0 56 0;
#X connect 82 0 68 0;
#X connect 83 0 74 0;
#X restore 20 180 pd Green_Tiles;
#N canvas 361 126 889 739 beat-sequencer 0;
#X obj 279 -911 metro;
#X obj 279 -886 bng 15 250 50 0 empty empty empty 17 7 0 10 #fcfcfc
#000000 #000000;
#X obj 279 -843 int 1;
#X floatatom 279 -811 5 0 0 0 - - -, f 5;
#X obj 349 -801 + 1;
#X obj 219 -921 sel 0;
#X obj 219 -896 bng 15 250 50 0 empty empty empty 17 7 0 10 #fcfcfc
#000000 #000000;
#X msg 219 -873 -1;
#X obj 159 -921 loadbang;
#X obj 309 -1011 loadbang;
#X obj 279 -787 % 8;
#X obj 279 -762 + 1;
#X floatatom 280 -740 5 0 0 0 - - -, f 5;
#X obj 279 -671 sel 1;
#X obj 279 -646 bng 15 250 50 0 empty empty empty 17 7 0 10 #fcfcfc
#000000 #000000;
#X obj 279 -623 s One;
#X obj 329 -646 bng 15 250 50 0 empty empty empty 17 7 0 10 #fcfcfc
#000000 #000000;
#X obj 379 -646 bng 15 250 50 0 empty empty empty 17 7 0 10 #fcfcfc
#000000 #000000;
#X obj 429 -646 bng 15 250 50 0 empty empty empty 17 7 0 10 #fcfcfc
#000000 #000000;
#X obj 479 -646 bng 15 250 50 0 empty empty empty 17 7 0 10 #fcfcfc
#000000 #000000;
#X obj 529 -646 bng 15 250 50 0 empty empty empty 17 7 0 10 #fcfcfc
#000000 #000000;
#X obj 579 -646 bng 15 250 50 0 empty empty empty 17 7 0 10 #fcfcfc
#000000 #000000;
#X obj 629 -646 bng 15 250 50 0 empty empty empty 17 7 0 10 #fcfcfc
#000000 #000000;
#X obj 329 -671 sel 2;
#X obj 329 -623 s Two;
#X obj 379 -671 sel 3;
#X obj 379 -623 s Three;
#X obj 429 -671 sel 4;
#X obj 429 -623 s Four;
#X obj 479 -671 sel 5;
#X obj 479 -623 s Five;
#X obj 529 -671 sel 6;
#X obj 529 -623 s Six;
#X obj 579 -671 sel 7;
#X obj 579 -623 s Seven;
#X obj 629 -671 sel 8;
#X obj 629 -623 s Eight;
#X floatatom 309 -961 5 0 0 0 - - -, f 5;
#X obj 139 -571 receive One;
#X obj 139 -541 bng 15 250 50 0 empty empty empty 17 7 0 10 #fcfcfc
#000000 #000000;
#X obj 139 -513 spigot;
#X obj 139 -488 bng 15 250 50 0 empty empty empty 17 7 0 10 #fcfcfc
#000000 #000000;
#X obj 179 -541 tgl 15 0 empty empty empty 17 7 0 10 #fcfcfc #000000
#000000 0 1;
#X obj 219 -541 bng 15 250 50 0 empty empty empty 17 7 0 10 #fcfcfc
#000000 #000000;
#X obj 219 -513 spigot;
#X obj 219 -488 bng 15 250 50 0 empty empty empty 17 7 0 10 #fcfcfc
#000000 #000000;
#X obj 259 -541 tgl 15 0 empty empty empty 17 7 0 10 #fcfcfc #000000
#000000 0 1;
#X obj 299 -541 bng 15 250 50 0 empty empty empty 17 7 0 10 #fcfcfc
#000000 #000000;
#X obj 299 -513 spigot;
#X obj 299 -488 bng 15 250 50 0 empty empty empty 17 7 0 10 #fcfcfc
#000000 #000000;
#X obj 339 -541 tgl 15 0 empty empty empty 17 7 0 10 #fcfcfc #000000
#000000 0 1;
#X obj 389 -541 bng 15 250 50 0 empty empty empty 17 7 0 10 #fcfcfc
#000000 #000000;
#X obj 389 -513 spigot;
#X obj 389 -488 bng 15 250 50 0 empty empty empty 17 7 0 10 #fcfcfc
#000000 #000000;
#X obj 429 -541 tgl 15 0 empty empty empty 17 7 0 10 #fcfcfc #000000
#000000 0 1;
#X obj 469 -541 bng 15 250 50 0 empty empty empty 17 7 0 10 #fcfcfc
#000000 #000000;
#X obj 469 -513 spigot;
#X obj 469 -488 bng 15 250 50 0 empty empty empty 17 7 0 10 #fcfcfc
#000000 #000000;
#X obj 509 -541 tgl 15 0 empty empty empty 17 7 0 10 #fcfcfc #000000
#000000 0 1;
#X obj 549 -541 bng 15 250 50 0 empty empty empty 17 7 0 10 #fcfcfc
#000000 #000000;
#X obj 549 -513 spigot;
#X obj 549 -488 bng 15 250 50 0 empty empty empty 17 7 0 10 #fcfcfc
#000000 #000000;
#X obj 589 -541 tgl 15 0 empty empty empty 17 7 0 10 #fcfcfc #000000
#000000 0 1;
#X obj 629 -541 bng 15 250 50 0 empty empty empty 17 7 0 10 #fcfcfc
#000000 #000000;
#X obj 629 -513 spigot;
#X obj 629 -488 bng 15 250 50 0 empty empty empty 17 7 0 10 #fcfcfc
#000000 #000000;
#X obj 669 -541 tgl 15 0 empty empty empty 17 7 0 10 #fcfcfc #000000
#000000 0 1;
#X obj 719 -541 bng 15 250 50 0 empty empty empty 17 7 0 10 #fcfcfc
#000000 #000000;
#X obj 719 -511 spigot;
#X obj 719 -488 bng 15 250 50 0 empty empty empty 17 7 0 10 #fcfcfc
#000000 #000000;
#X obj 759 -541 tgl 15 0 empty empty empty 17 7 0 10 #fcfcfc #000000
#000000 0 1;
#X obj 219 -571 receive Two;
#X obj 299 -571 receive Three;
#X obj 389 -571 receive Four;
#X obj 469 -571 receive Five;
#X obj 549 -571 receive Six;
#X obj 629 -571 receive Seven;
#X obj 719 -571 receive Eight;
#X obj 239 -401 send red;
#X obj 589 -421 send blue;
#X obj 170 -830 send all;
#X msg 309 -986 2000;
#X obj 200 -1000 receive start_beats;
#X obj 230 -970 bng 15 250 50 0 empty empty empty 17 7 0 10 #fcfcfc
#000000 #000000;
#X obj 260 -940 tgl 15 0 empty empty empty 17 7 0 10 #fcfcfc #000000
#000000 0 1;
#X connect 0 0 1 0;
#X connect 1 0 2 0;
#X connect 2 0 3 0;
#X connect 2 0 4 0;
#X connect 3 0 10 0;
#X connect 4 0 2 1;
#X connect 5 0 6 0;
#X connect 6 0 7 0;
#X connect 6 0 80 0;
#X connect 7 0 2 0;
#X connect 8 0 6 0;
#X connect 9 0 81 0;
#X connect 10 0 11 0;
#X connect 11 0 12 0;
#X connect 12 0 13 0;
#X connect 12 0 35 0;
#X connect 12 0 33 0;
#X connect 12 0 31 0;
#X connect 12 0 29 0;
#X connect 12 0 27 0;
#X connect 12 0 25 0;
#X connect 12 0 23 0;
#X connect 13 0 14 0;
#X connect 14 0 15 0;
#X connect 16 0 24 0;
#X connect 17 0 26 0;
#X connect 18 0 28 0;
#X connect 19 0 30 0;
#X connect 20 0 32 0;
#X connect 21 0 34 0;
#X connect 22 0 36 0;
#X connect 23 0 16 0;
#X connect 25 0 17 0;
#X connect 27 0 18 0;
#X connect 29 0 19 0;
#X connect 31 0 20 0;
#X connect 33 0 21 0;
#X connect 35 0 22 0;
#X connect 37 0 0 1;
#X connect 38 0 39 0;
#X connect 39 0 40 0;
#X connect 39 0 78 0;
#X connect 40 0 41 0;
#X connect 42 0 40 1;
#X connect 43 0 44 0;
#X connect 43 0 78 0;
#X connect 44 0 45 0;
#X connect 46 0 44 1;
#X connect 47 0 48 0;
#X connect 47 0 78 0;
#X connect 48 0 49 0;
#X connect 50 0 48 1;
#X connect 51 0 52 0;
#X connect 51 0 78 0;
#X connect 52 0 53 0;
#X connect 54 0 52 1;
#X connect 55 0 56 0;
#X connect 55 0 79 0;
#X connect 56 0 57 0;
#X connect 58 0 56 1;
#X connect 59 0 60 0;
#X connect 59 0 79 0;
#X connect 60 0 61 0;
#X connect 62 0 60 1;
#X connect 63 0 64 0;
#X connect 63 0 79 0;
#X connect 64 0 65 0;
#X connect 66 0 64 1;
#X connect 67 0 68 0;
#X connect 67 0 79 0;
#X connect 68 0 69 0;
#X connect 70 0 68 1;
#X connect 71 0 43 0;
#X connect 72 0 47 0;
#X connect 73 0 51 0;
#X connect 74 0 55 0;
#X connect 75 0 59 0;
#X connect 76 0 63 0;
#X connect 77 0 67 0;
#X connect 81 0 37 0;
#X connect 82 0 83 0;
#X connect 83 0 84 0;
#X connect 84 0 5 0;
#X connect 84 0 0 0;
#X restore 20 110 pd beat-sequencer;
#N canvas 772 76 466 382 score 0;
#X obj 160 40 gemhead;
#X obj 260 240 f;
#X obj 320 90 bng 15 250 50 0 empty empty empty 17 7 0 10 #fcfcfc #000000
#000000;
#X floatatom 310 150 5 0 0 0 - - -, f 5;
#X msg 280 210 float \$1;
#X msg 160 10 set 69;
#X obj 160 220 colorRGB 1 1 1;
#X obj 200 130 hsl 87 15 -6 6 0 0 empty empty empty -2 -8 0 10 #fcfcfc
#000000 #000000 6850 1;
#X obj 200 150 hsl 88 15 -6 6 0 0 empty empty empty -2 -8 0 10 #fcfcfc
#000000 #000000 7150 1;
#X msg 180 80 set \$1;
#X msg 250 80 set \$1;
#X msg 180 100 3.55814;
#X msg 250 100 3.86207;
#X obj 160 180 translateXYZ 0 0 0;
#X floatatom 220 260 5 0 0 0 - - -, f 5;
#X obj 230 40 loadbang;
#X obj 160 280 text2d 0;
#X obj 70 130 hsl 87 15 -6 6 0 0 empty empty empty -2 -8 0 10 #fcfcfc
#000000 #000000 6450 1;
#X obj 70 150 hsl 88 15 -6 6 0 0 empty empty empty -2 -8 0 10 #fcfcfc
#000000 #000000 7150 1;
#X msg 50 80 set \$1;
#X msg 120 80 set \$1;
#X msg 50 100 3;
#X msg 120 100 3.86207;
#X obj 30 180 translateXYZ 0 0 0;
#X floatatom 90 260 5 0 0 0 - - -, f 5;
#X obj 100 40 loadbang;
#X obj 30 40 gemhead;
#X msg 30 10 set 69;
#X obj 30 280 text2d Score:;
#X obj 30 220 colorRGB 1 1 1;
#X obj 320 50 receive score;
#X obj 370 150 + 1;
#X msg 320 120 1;
#X obj 320 20 receive game_over;
#X msg 400 100 0;
#X connect 0 0 13 0;
#X connect 1 0 16 0;
#X connect 2 0 32 0;
#X connect 3 0 31 1;
#X connect 3 0 4 0;
#X connect 4 0 1 0;
#X connect 5 0 0 0;
#X connect 6 0 16 0;
#X connect 7 0 9 0;
#X connect 7 0 13 1;
#X connect 8 0 10 0;
#X connect 8 0 13 2;
#X connect 9 0 11 0;
#X connect 10 0 12 0;
#X connect 11 0 7 0;
#X connect 12 0 8 0;
#X connect 13 0 6 0;
#X connect 14 0 16 1;
#X connect 15 0 11 0;
#X connect 15 0 12 0;
#X connect 15 0 5 0;
#X connect 17 0 19 0;
#X connect 17 0 23 1;
#X connect 18 0 20 0;
#X connect 18 0 23 2;
#X connect 19 0 21 0;
#X connect 20 0 22 0;
#X connect 21 0 17 0;
#X connect 22 0 18 0;
#X connect 23 0 29 0;
#X connect 24 0 28 1;
#X connect 25 0 21 0;
#X connect 25 0 22 0;
#X connect 25 0 27 0;
#X connect 26 0 23 0;
#X connect 27 0 26 0;
#X connect 29 0 28 0;
#X connect 30 0 2 0;
#X connect 31 0 3 0;
#X connect 32 0 31 0;
#X connect 33 0 34 0;
#X connect 34 0 3 0;
#X restore 20 90 pd score;
#N canvas 108 7 1323 750 SkyBlue_Tiles 0;
#X obj 162 72 hsl 87 15 -6 6 0 0 empty empty empty -2 -8 0 10 #fcfcfc
#000000 #000000 2150 1;
#X obj 162 92 hsl 88 15 -6 6 0 0 empty empty empty -2 -8 0 10 #fcfcfc
#000000 #000000 2175 1;
#X floatatom 160 140 6 0 0 0 - - -, f 6;
#X floatatom 210 140 6 0 0 0 - - -, f 6;
#X floatatom 260 140 6 0 0 0 - - -, f 6;
#X msg 62 212 draw line;
#X msg 62 302 draw fill;
#X obj 62 172 receive blue;
#X obj 62 262 receive red;
#X obj 142 2 gemhead;
#X msg 162 22 set \$1;
#X msg 232 22 set \$1;
#X obj 142 122 translateXYZ 0 0 0;
#X obj 590 90 hsl 87 15 -6 6 0 0 empty empty empty -2 -8 0 10 #fcfcfc
#000000 #000000 3583 1;
#X obj 590 110 hsl 88 15 -6 6 0 0 empty empty empty -2 -8 0 10 #fcfcfc
#000000 #000000 3625 1;
#X floatatom 570 160 4 0 0 0 - - -, f 4;
#X floatatom 600 160 4 0 0 0 - - -, f 4;
#X floatatom 630 160 4 0 0 0 - - -, f 4;
#X msg 470 230 draw line;
#X msg 470 320 draw fill;
#X obj 470 190 receive blue;
#X obj 470 280 receive red;
#X obj 550 20 gemhead;
#X msg 570 40 set \$1;
#X msg 640 40 set \$1;
#X obj 550 140 translateXYZ 0 0 0;
#X obj 1010 80 hsl 87 15 -6 6 0 0 empty empty empty -2 -8 0 10 #fcfcfc
#000000 #000000 5017 1;
#X obj 1010 100 hsl 88 15 -6 6 0 0 empty empty empty -2 -8 0 10 #fcfcfc
#000000 #000000 5075 1;
#X floatatom 990 150 4 0 0 0 - - -, f 4;
#X floatatom 1020 150 4 0 0 0 - - -, f 4;
#X floatatom 1050 150 4 0 0 0 - - -, f 4;
#X msg 902 312 draw line;
#X msg 902 402 draw fill;
#X obj 890 260 receive blue;
#X obj 890 350 receive red;
#X obj 970 10 gemhead;
#X msg 990 30 set \$1;
#X msg 1060 30 set \$1;
#X obj 970 130 translateXYZ 0 0 0;
#X obj 180 520 hsl 87 15 -6 6 0 0 empty empty empty -2 -8 0 10 #fcfcfc
#000000 #000000 6450 1;
#X obj 180 540 hsl 88 15 -6 6 0 0 empty empty empty -2 -8 0 10 #fcfcfc
#000000 #000000 2175 1;
#X floatatom 160 590 4 0 0 0 - - -, f 4;
#X floatatom 190 590 4 0 0 0 - - -, f 4;
#X floatatom 220 590 4 0 0 0 - - -, f 4;
#X msg 62 732 draw line;
#X msg 62 822 draw fill;
#X obj 60 700 receive blue;
#X obj 60 790 receive red;
#X obj 140 450 gemhead;
#X msg 160 470 set \$1;
#X msg 230 470 set \$1;
#X obj 140 570 translateXYZ 0 0 0;
#X obj 280 80 loadbang;
#X obj 698 108 loadbang;
#X obj 278 558 loadbang;
#X obj 1108 98 loadbang;
#X obj 140 420 square 1;
#X obj 550 400 square 1;
#X obj 970 390 square 1;
#X obj 140 830 square 1;
#X msg 162 42 -3;
#X msg 232 42 -3;
#X msg 570 60 -1;
#X msg 640 60 -1;
#X msg 990 50 1;
#X msg 1060 50 1;
#X msg 160 490 3;
#X obj 590 510 hsl 87 15 -6 6 0 0 empty empty empty -2 -8 0 10 #fcfcfc
#000000 #000000 5017 1;
#X obj 590 530 hsl 88 15 -6 6 0 0 empty empty empty -2 -8 0 10 #fcfcfc
#000000 #000000 3625 1;
#X floatatom 570 580 4 0 0 0 - - -, f 4;
#X floatatom 600 580 4 0 0 0 - - -, f 4;
#X floatatom 630 580 4 0 0 0 - - -, f 4;
#X msg 472 642 draw line;
#X msg 472 732 draw fill;
#X obj 470 610 receive blue;
#X obj 470 700 receive red;
#X obj 550 440 gemhead;
#X msg 570 460 set \$1;
#X msg 640 460 set \$1;
#X obj 550 560 translateXYZ 0 0 0;
#X obj 688 548 loadbang;
#X obj 550 840 square 1;
#X obj 1008 488 hsl 87 15 -6 6 0 0 empty empty empty -2 -8 0 10 #fcfcfc
#000000 #000000 6450 1;
#X obj 1008 508 hsl 88 15 -6 6 0 0 empty empty empty -2 -8 0 10 #fcfcfc
#000000 #000000 3625 1;
#X floatatom 988 558 4 0 0 0 - - -, f 4;
#X floatatom 1018 558 4 0 0 0 - - -, f 4;
#X floatatom 1048 558 4 0 0 0 - - -, f 4;
#X msg 902 632 draw line;
#X msg 902 722 draw fill;
#X obj 888 588 receive blue;
#X obj 888 678 receive red;
#X obj 968 418 gemhead;
#X msg 988 438 set \$1;
#X msg 1058 438 set \$1;
#X obj 968 538 translateXYZ 0 0 0;
#X obj 1106 526 loadbang;
#X obj 970 800 square 1;
#X msg 988 458 3;
#X msg 1058 458 -1;
#X obj 30 570 receive all;
#X obj 470 470 receive all;
#X obj 888 448 receive all;
#X obj 142 172 colorRGB 0.529 0.8 0.921;
#X obj 550 190 colorRGB 0.529 0.8 0.921;
#X obj 970 180 colorRGB 0.529 0.8 0.921;
#X obj 140 620 colorRGB 0.529 0.8 0.921;
#X obj 550 610 colorRGB 0.529 0.8 0.921;
#X obj 968 588 colorRGB 0.529 0.8 0.921;
#X msg 570 480 1;
#X msg 640 480 -1;
#X msg 230 490 -3;
#X obj 970 290 pix_image;
#X obj 1000 210 loadbang;
#X obj 970 360 pix_texture;
#X msg 1052 322 env \$1;
#X obj 1052 302 hradio 15 1 0 6 empty empty empty 0 -6 0 8 #fcfcfc
#000000 #000000 1;
#X msg 1052 272 1;
#X obj 974 700 pix_image;
#X obj 1004 620 loadbang;
#X obj 974 770 pix_texture;
#X msg 1056 732 env \$1;
#X obj 1056 712 hradio 15 1 0 6 empty empty empty 0 -6 0 8 #fcfcfc
#000000 #000000 1;
#X msg 1056 682 1;
#X obj 562 302 pix_image;
#X obj 592 222 loadbang;
#X obj 562 372 pix_texture;
#X msg 644 334 env \$1;
#X obj 644 314 hradio 15 1 0 6 empty empty empty 0 -6 0 8 #fcfcfc #000000
#000000 1;
#X msg 644 284 1;
#X obj 550 727 pix_image;
#X obj 580 647 loadbang;
#X obj 550 797 pix_texture;
#X msg 632 759 env \$1;
#X obj 632 739 hradio 15 1 0 6 empty empty empty 0 -6 0 8 #fcfcfc #000000
#000000 1;
#X msg 632 709 1;
#X obj 142 301 pix_image;
#X obj 172 221 loadbang;
#X obj 142 371 pix_texture;
#X msg 224 333 env \$1;
#X obj 224 313 hradio 15 1 0 6 empty empty empty 0 -6 0 8 #fcfcfc #000000
#000000 1;
#X msg 224 283 1;
#X obj 142 732 pix_image;
#X obj 172 652 loadbang;
#X obj 142 802 pix_texture;
#X msg 224 764 env \$1;
#X obj 224 744 hradio 15 1 0 6 empty empty empty 0 -6 0 8 #fcfcfc #000000
#000000 1;
#X msg 224 714 1;
#X msg 170 250 open Art/Sand.png;
#X msg 172 682 open Art/Sand.png;
#X msg 580 677 open Art/Sand.png;
#X msg 1004 650 open Art/Sand.png;
#X msg 1000 240 open Art/Sand.png;
#X msg 592 252 open Art/Sand.png;
#X connect 0 0 10 0;
#X connect 0 0 12 1;
#X connect 1 0 11 0;
#X connect 1 0 12 2;
#X connect 2 0 102 1;
#X connect 3 0 102 2;
#X connect 4 0 102 3;
#X connect 5 0 56 0;
#X connect 6 0 56 0;
#X connect 7 0 5 0;
#X connect 8 0 6 0;
#X connect 9 0 12 0;
#X connect 10 0 60 0;
#X connect 11 0 61 0;
#X connect 12 0 102 0;
#X connect 13 0 23 0;
#X connect 13 0 25 1;
#X connect 14 0 24 0;
#X connect 14 0 25 2;
#X connect 15 0 103 1;
#X connect 16 0 103 2;
#X connect 17 0 103 3;
#X connect 18 0 57 0;
#X connect 19 0 57 0;
#X connect 20 0 18 0;
#X connect 21 0 19 0;
#X connect 22 0 25 0;
#X connect 23 0 62 0;
#X connect 24 0 63 0;
#X connect 25 0 103 0;
#X connect 26 0 36 0;
#X connect 26 0 38 1;
#X connect 27 0 37 0;
#X connect 27 0 38 2;
#X connect 28 0 104 1;
#X connect 29 0 104 2;
#X connect 30 0 104 3;
#X connect 31 0 58 0;
#X connect 32 0 58 0;
#X connect 33 0 31 0;
#X connect 34 0 32 0;
#X connect 35 0 38 0;
#X connect 36 0 64 0;
#X connect 37 0 65 0;
#X connect 38 0 104 0;
#X connect 39 0 49 0;
#X connect 39 0 51 1;
#X connect 40 0 50 0;
#X connect 40 0 51 2;
#X connect 41 0 105 1;
#X connect 42 0 105 2;
#X connect 43 0 105 3;
#X connect 44 0 59 0;
#X connect 45 0 59 0;
#X connect 46 0 44 0;
#X connect 47 0 45 0;
#X connect 48 0 51 0;
#X connect 49 0 66 0;
#X connect 50 0 110 0;
#X connect 51 0 105 0;
#X connect 52 0 60 0;
#X connect 52 0 61 0;
#X connect 53 0 62 0;
#X connect 53 0 63 0;
#X connect 54 0 66 0;
#X connect 54 0 110 0;
#X connect 55 0 64 0;
#X connect 55 0 65 0;
#X connect 60 0 0 0;
#X connect 60 0 12 1;
#X connect 61 0 12 2;
#X connect 61 0 1 0;
#X connect 62 0 13 0;
#X connect 62 0 25 1;
#X connect 63 0 25 2;
#X connect 63 0 14 0;
#X connect 64 0 26 0;
#X connect 64 0 38 1;
#X connect 65 0 38 2;
#X connect 65 0 27 0;
#X connect 66 0 39 0;
#X connect 66 0 51 1;
#X connect 67 0 77 0;
#X connect 67 0 79 1;
#X connect 68 0 78 0;
#X connect 68 0 79 2;
#X connect 69 0 106 1;
#X connect 70 0 106 2;
#X connect 71 0 106 3;
#X connect 72 0 81 0;
#X connect 73 0 81 0;
#X connect 74 0 72 0;
#X connect 75 0 73 0;
#X connect 76 0 79 0;
#X connect 77 0 108 0;
#X connect 78 0 109 0;
#X connect 79 0 106 0;
#X connect 80 0 108 0;
#X connect 80 0 109 0;
#X connect 82 0 92 0;
#X connect 82 0 94 1;
#X connect 83 0 93 0;
#X connect 83 0 94 2;
#X connect 84 0 107 1;
#X connect 85 0 107 2;
#X connect 86 0 107 3;
#X connect 87 0 96 0;
#X connect 88 0 96 0;
#X connect 89 0 87 0;
#X connect 90 0 88 0;
#X connect 91 0 94 0;
#X connect 92 0 97 0;
#X connect 93 0 98 0;
#X connect 94 0 107 0;
#X connect 95 0 97 0;
#X connect 95 0 98 0;
#X connect 97 0 82 0;
#X connect 97 0 94 1;
#X connect 98 0 94 2;
#X connect 98 0 83 0;
#X connect 99 0 6 0;
#X connect 99 0 45 0;
#X connect 100 0 19 0;
#X connect 100 0 73 0;
#X connect 101 0 32 0;
#X connect 101 0 88 0;
#X connect 102 0 135 0;
#X connect 103 0 123 0;
#X connect 104 0 111 0;
#X connect 105 0 141 0;
#X connect 106 0 129 0;
#X connect 107 0 117 0;
#X connect 108 0 67 0;
#X connect 108 0 79 1;
#X connect 109 0 79 2;
#X connect 109 0 68 0;
#X connect 110 0 51 2;
#X connect 110 0 40 0;
#X connect 111 0 113 0;
#X connect 112 0 151 0;
#X connect 112 0 116 0;
#X connect 113 0 58 0;
#X connect 114 0 113 0;
#X connect 115 0 114 0;
#X connect 115 0 113 0;
#X connect 116 0 115 0;
#X connect 117 0 119 0;
#X connect 118 0 150 0;
#X connect 118 0 122 0;
#X connect 119 0 96 0;
#X connect 120 0 119 0;
#X connect 121 0 120 0;
#X connect 121 0 119 0;
#X connect 122 0 121 0;
#X connect 123 0 125 0;
#X connect 124 0 152 0;
#X connect 124 0 128 0;
#X connect 125 0 57 0;
#X connect 126 0 125 0;
#X connect 127 0 126 0;
#X connect 127 0 125 0;
#X connect 128 0 127 0;
#X connect 129 0 131 0;
#X connect 130 0 149 0;
#X connect 130 0 134 0;
#X connect 131 0 81 0;
#X connect 132 0 131 0;
#X connect 133 0 132 0;
#X connect 133 0 131 0;
#X connect 134 0 133 0;
#X connect 135 0 137 0;
#X connect 136 0 147 0;
#X connect 136 0 140 0;
#X connect 137 0 56 0;
#X connect 138 0 137 0;
#X connect 139 0 138 0;
#X connect 139 0 137 0;
#X connect 140 0 139 0;
#X connect 141 0 143 0;
#X connect 142 0 148 0;
#X connect 142 0 146 0;
#X connect 143 0 59 0;
#X connect 144 0 143 0;
#X connect 145 0 144 0;
#X connect 145 0 143 0;
#X connect 146 0 145 0;
#X connect 147 0 135 0;
#X connect 148 0 141 0;
#X connect 149 0 129 0;
#X connect 150 0 117 0;
#X connect 151 0 111 0;
#X connect 152 0 123 0;
#X restore 20 160 pd SkyBlue_Tiles;
#X floatatom 70 280 5 0 0 0 - - -, f 5;
#X msg 70 260 0.28;
#X obj 90 210 loadbang;
#N canvas 716 72 812 590 Player 0;
#X obj 150 410 outlet;
#X obj 140 50 key 1;
#X obj 160 160 f;
#X floatatom 94 335 5 0 0 0 - - -, f 5;
#X obj 92 295 line;
#X obj 92 203 route 1 2;
#X msg 82 116 1;
#X msg 132 116 2;
#X obj 82 145 t f b;
#X obj 402 176 f;
#X floatatom 234 335 5 0 0 0 - - -, f 5;
#X obj 232 295 line;
#X obj 232 203 route 1 2;
#X msg 222 116 1;
#X msg 272 116 2;
#X obj 222 145 t f b;
#X obj 140 80 select 100 97 119 115;
#X obj 150 320 bng 15 250 50 0 empty empty empty 17 7 0 10 #fcfcfc
#000000 #000000;
#X obj 390 540 square 0.2;
#X obj 390 510 colorRGB 1 1 0;
#X obj 360 440 gemhead;
#X msg 360 410 set 51;
#X obj 360 380 loadbang;
#X obj 330 280 receive reset;
#X obj 150 370 pack 2.5 1.5;
#X msg 232 266 \$1 5;
#X msg 92 266 \$1 5;
#X obj 92 232 + 0.15;
#X obj 140 230 - 0.15;
#X obj 230 230 + 0.15;
#X obj 280 230 - 0.15;
#X obj 350 250 loadbang;
#X obj 480 210 t b f;
#X obj 510 140 key 1;
#X obj 480 180 select 100;
#X obj 560 210 t b f;
#X obj 560 180 select 97;
#X floatatom 660 400 5 0 0 0 - - -, f 5;
#X obj 630 210 t b f;
#X obj 710 210 t b f;
#X obj 630 180 select 119;
#X obj 710 180 select 115;
#X msg 630 310 \$1 100;
#X obj 630 350 line;
#X msg 710 310 \$1 100;
#X obj 710 360 line;
#X msg 480 310 \$1 100;
#X obj 480 350 line;
#X msg 560 310 \$1 100;
#X obj 560 350 line;
#X floatatom 520 400 5 0 0 0 - - -, f 5;
#X obj 480 270 + 0.15;
#X obj 560 270 + -0.15;
#X obj 630 270 + 0.15;
#X obj 710 270 + -0.15;
#X msg 480 240 0.15;
#X msg 560 240 -0.15;
#X msg 630 240 0.15;
#X msg 710 240 -0.15;
#X obj 90 170 pack f f;
#X obj 232 174 pack f f;
#X obj 350 480 translateXYZ 2.5 1.5 0;
#X msg 340 310 2.5;
#X msg 370 310 1.5;
#X connect 1 0 16 0;
#X connect 2 0 59 1;
#X connect 3 0 2 1;
#X connect 3 0 24 0;
#X connect 3 0 61 1;
#X connect 4 0 3 0;
#X connect 5 0 27 0;
#X connect 5 1 28 0;
#X connect 6 0 8 0;
#X connect 7 0 8 0;
#X connect 8 0 59 0;
#X connect 8 1 2 0;
#X connect 9 0 60 1;
#X connect 10 0 9 1;
#X connect 10 0 17 0;
#X connect 10 0 24 1;
#X connect 10 0 61 2;
#X connect 11 0 10 0;
#X connect 12 0 29 0;
#X connect 12 1 30 0;
#X connect 13 0 15 0;
#X connect 14 0 15 0;
#X connect 15 0 60 0;
#X connect 15 1 9 0;
#X connect 16 0 6 0;
#X connect 16 1 7 0;
#X connect 16 2 13 0;
#X connect 16 3 14 0;
#X connect 17 0 24 0;
#X connect 19 0 18 0;
#X connect 20 0 61 0;
#X connect 21 0 20 0;
#X connect 22 0 21 0;
#X connect 23 0 62 0;
#X connect 23 0 63 0;
#X connect 24 0 0 0;
#X connect 25 0 11 0;
#X connect 26 0 4 0;
#X connect 27 0 26 0;
#X connect 28 0 26 0;
#X connect 29 0 25 0;
#X connect 30 0 25 0;
#X connect 31 0 62 0;
#X connect 31 0 63 0;
#X connect 32 0 55 0;
#X connect 33 0 34 0;
#X connect 33 0 36 0;
#X connect 33 0 40 0;
#X connect 33 0 41 0;
#X connect 34 0 32 0;
#X connect 35 0 56 0;
#X connect 36 0 35 0;
#X connect 37 0 53 1;
#X connect 37 0 54 1;
#X connect 38 0 57 0;
#X connect 39 0 58 0;
#X connect 40 0 38 0;
#X connect 41 0 39 0;
#X connect 42 0 43 0;
#X connect 43 0 37 0;
#X connect 44 0 45 0;
#X connect 45 0 37 0;
#X connect 46 0 47 0;
#X connect 47 0 50 0;
#X connect 48 0 49 0;
#X connect 49 0 50 0;
#X connect 50 0 51 1;
#X connect 50 0 52 1;
#X connect 51 0 46 0;
#X connect 52 0 48 0;
#X connect 53 0 42 0;
#X connect 54 0 44 0;
#X connect 55 0 51 0;
#X connect 56 0 52 0;
#X connect 57 0 53 0;
#X connect 58 0 54 0;
#X connect 59 0 5 0;
#X connect 60 0 12 0;
#X connect 61 0 19 0;
#X connect 62 0 3 0;
#X connect 62 0 50 0;
#X connect 63 0 10 0;
#X connect 63 0 37 0;
#X restore 20 210 pd Player;
#N canvas 69 105 747 603 collision 0;
#X obj 240 50 inlet radius;
#X obj 130 30 inlet reference;
#X obj 182 220 gemhead;
#X obj 182 253 translateXYZ;
#X obj 240 220 unpack 0 0;
#X obj 40 30 inlet test;
#N canvas 532 356 434 302 collide 0;
#X obj 20 109 list-map2;
#X obj 115 108 -;
#X obj 115 133 abs;
#X obj 115 165 <= 1;
#X obj 49 35 inlet reference;
#X obj 163 10 inlet radius;
#X obj 20 190 list-reduce;
#X obj 106 190 &&;
#X obj 20 10 inlet test;
#X obj 20 222 outlet;
#X obj 163 53 t b a;
#X obj 120 240 print;
#X connect 0 0 6 0;
#X connect 0 1 1 0;
#X connect 1 0 2 0;
#X connect 2 0 3 0;
#X connect 3 0 0 2;
#X connect 4 0 0 1;
#X connect 5 0 10 0;
#X connect 6 0 9 0;
#X connect 6 1 7 0;
#X connect 7 0 6 1;
#X connect 8 0 0 0;
#X connect 10 0 0 0;
#X connect 10 1 3 1;
#X restore 40 100 pd collide;
#X obj 40 150 tgl 24 0 empty empty hit? 28 7 1 10 #fcfcfc #000000 #000000
0 1;
#X obj 182 417 circle 0.08;
#X obj 224 334 loadbang;
#X msg 224 374 draw fill;
#X msg 180 180 set 52;
#X obj 180 150 loadbang;
#X obj 184 304 colorRGB 1 0 0;
#X obj 270 150 receive score;
#X obj 180 120 receive new_point;
#X obj 40 250 send score;
#X obj 40 220 bng 15 250 50 0 empty empty empty 17 7 0 10 #fcfcfc #000000
#000000;
#X obj 40 190 sel 1;
#X msg 240 180 10;
#X obj 100 60 pack 10 10;
#X obj 370 150 receive reset;
#X connect 0 0 6 2;
#X connect 1 0 4 0;
#X connect 1 0 6 1;
#X connect 2 0 3 0;
#X connect 3 0 13 0;
#X connect 4 0 3 1;
#X connect 4 1 3 2;
#X connect 5 0 6 0;
#X connect 6 0 7 0;
#X connect 7 0 18 0;
#X connect 9 0 10 0;
#X connect 10 0 8 0;
#X connect 11 0 2 0;
#X connect 12 0 11 0;
#X connect 13 0 8 0;
#X connect 14 0 19 0;
#X connect 14 0 20 0;
#X connect 15 0 11 0;
#X connect 17 0 16 0;
#X connect 18 0 17 0;
#X connect 19 0 3 1;
#X connect 19 0 3 2;
#X connect 20 0 6 1;
#X connect 21 0 19 0;
#X connect 21 0 20 0;
#X restore 20 300 pd collision;
#N canvas 974 64 453 470 Game_overScreen 0;
#X msg 30 130 set 56;
#X obj 30 155 gemhead;
#X obj 30 180 colorRGB 1 1 1;
#X msg 140 130 set 57;
#X obj 140 150 gemhead;
#X obj 140 180 colorRGB 1 0 0;
#X obj 140 205 text2d GAME OVER;
#X floatatom 240 180 5 0 0 0 - - -, f 5;
#X obj 30 200 square 4;
#X obj 90 80 tgl 15 0 empty empty empty 17 7 0 10 #fcfcfc #000000 #000000
0 1;
#X obj 120 80 bng 15 250 50 0 empty empty empty 17 7 0 10 #fcfcfc #000000
#000000;
#X obj 150 80 tgl 15 0 empty empty empty 17 7 0 10 #fcfcfc #000000
#000000 1 1;
#X obj 40 50 spigot;
#X obj 140 50 spigot;
#X obj 160 20 receive game_over;
#X obj 40 20 receive reset;
#X obj 230 70 loadbang;
#X connect 0 0 1 0;
#X connect 1 0 2 0;
#X connect 2 0 8 0;
#X connect 3 0 4 0;
#X connect 4 0 5 0;
#X connect 5 0 6 0;
#X connect 7 0 6 1;
#X connect 9 0 1 0;
#X connect 9 0 4 0;
#X connect 9 0 10 0;
#X connect 9 0 12 1;
#X connect 9 0 0 0;
#X connect 9 0 3 0;
#X connect 10 0 11 0;
#X connect 11 0 13 1;
#X connect 12 0 9 0;
#X connect 13 0 9 0;
#X connect 14 0 13 0;
#X connect 15 0 12 0;
#X connect 16 0 11 0;
#X restore 320 70 pd Game_overScreen;
#X obj 410 10 bng 15 250 50 0 empty empty empty 17 7 0 10 #fcfcfc #000000
#000000;
#X obj 360 40 send game_over;
#N canvas 688 41 602 705 Collision 0;
#X obj 40 80 inlet player_pos;
#N canvas 688 376 330 306 collide 0;
#X obj 20 109 list-map2;
#X obj 115 108 -;
#X obj 115 133 abs;
#X obj 115 165 <= 1;
#X obj 49 35 inlet reference;
#X obj 163 10 inlet radius;
#X obj 20 190 list-reduce;
#X obj 106 190 &&;
#X obj 20 10 inlet test;
#X obj 20 222 outlet;
#X obj 163 53 t b a;
#X connect 0 0 6 0;
#X connect 0 1 1 0;
#X connect 1 0 2 0;
#X connect 2 0 3 0;
#X connect 3 0 0 2;
#X connect 4 0 0 1;
#X connect 5 0 10 0;
#X connect 6 0 9 0;
#X connect 6 1 7 0;
#X connect 7 0 6 1;
#X connect 8 0 0 0;
#X connect 10 0 0 0;
#X connect 10 1 3 1;
#X restore 120 390 pd collide;
#N canvas 688 376 346 278 collide 0;
#X obj 20 109 list-map2;
#X obj 115 108 -;
#X obj 115 133 abs;
#X obj 115 165 <= 1;
#X obj 49 35 inlet reference;
#X obj 163 10 inlet radius;
#X obj 20 190 list-reduce;
#X obj 106 190 &&;
#X obj 20 10 inlet test;
#X obj 20 222 outlet;
#X obj 163 53 t b a;
#X connect 0 0 6 0;
#X connect 0 1 1 0;
#X connect 1 0 2 0;
#X connect 2 0 3 0;
#X connect 3 0 0 2;
#X connect 4 0 0 1;
#X connect 5 0 10 0;
#X connect 6 0 9 0;
#X connect 6 1 7 0;
#X connect 7 0 6 1;
#X connect 8 0 0 0;
#X connect 10 0 0 0;
#X connect 10 1 3 1;
#X restore 200 390 pd collide;
#N canvas 688 376 454 338 collide 0;
#X obj 20 109 list-map2;
#X obj 115 108 -;
#X obj 115 133 abs;
#X obj 115 165 <= 1;
#X obj 49 35 inlet reference;
#X obj 163 10 inlet radius;
#X obj 20 190 list-reduce;
#X obj 106 190 &&;
#X obj 20 10 inlet test;
#X obj 20 222 outlet;
#X obj 163 53 t b a;
#X connect 0 0 6 0;
#X connect 0 1 1 0;
#X connect 1 0 2 0;
#X connect 2 0 3 0;
#X connect 3 0 0 2;
#X connect 4 0 0 1;
#X connect 5 0 10 0;
#X connect 6 0 9 0;
#X connect 6 1 7 0;
#X connect 7 0 6 1;
#X connect 8 0 0 0;
#X connect 10 0 0 0;
#X connect 10 1 3 1;
#X restore 280 390 pd collide;
#N canvas 688 376 462 314 collide 0;
#X obj 20 109 list-map2;
#X obj 115 108 -;
#X obj 115 133 abs;
#X obj 115 165 <= 1;
#X obj 49 35 inlet reference;
#X obj 163 10 inlet radius;
#X obj 20 190 list-reduce;
#X obj 106 190 &&;
#X obj 20 10 inlet test;
#X obj 20 222 outlet;
#X obj 163 53 t b a;
#X connect 0 0 6 0;
#X connect 0 1 1 0;
#X connect 1 0 2 0;
#X connect 2 0 3 0;
#X connect 3 0 0 2;
#X connect 4 0 0 1;
#X connect 5 0 10 0;
#X connect 6 0 9 0;
#X connect 6 1 7 0;
#X connect 7 0 6 1;
#X connect 8 0 0 0;
#X connect 10 0 0 0;
#X connect 10 1 3 1;
#X restore 360 390 pd collide;
#N canvas 688 376 434 346 collide 0;
#X obj 20 109 list-map2;
#X obj 115 108 -;
#X obj 115 133 abs;
#X obj 115 165 <= 1;
#X obj 49 35 inlet reference;
#X obj 163 10 inlet radius;
#X obj 20 190 list-reduce;
#X obj 106 190 &&;
#X obj 20 10 inlet test;
#X obj 20 222 outlet;
#X obj 163 53 t b a;
#X connect 0 0 6 0;
#X connect 0 1 1 0;
#X connect 1 0 2 0;
#X connect 2 0 3 0;
#X connect 3 0 0 2;
#X connect 4 0 0 1;
#X connect 5 0 10 0;
#X connect 6 0 9 0;
#X connect 6 1 7 0;
#X connect 7 0 6 1;
#X connect 8 0 0 0;
#X connect 10 0 0 0;
#X connect 10 1 3 1;
#X restore 440 390 pd collide;
#X floatatom 450 110 5 0 0 0 - - -, f 5;
#N canvas 688 376 362 314 collide 0;
#X obj 20 109 list-map2;
#X obj 115 108 -;
#X obj 115 133 abs;
#X obj 115 165 <= 1;
#X obj 49 35 inlet reference;
#X obj 163 10 inlet radius;
#X obj 20 190 list-reduce;
#X obj 106 190 &&;
#X obj 20 10 inlet test;
#X obj 20 222 outlet;
#X obj 163 53 t b a;
#X connect 0 0 6 0;
#X connect 0 1 1 0;
#X connect 1 0 2 0;
#X connect 2 0 3 0;
#X connect 3 0 0 2;
#X connect 4 0 0 1;
#X connect 5 0 10 0;
#X connect 6 0 9 0;
#X connect 6 1 7 0;
#X connect 7 0 6 1;
#X connect 8 0 0 0;
#X connect 10 0 0 0;
#X connect 10 1 3 1;
#X restore 40 390 pd collide;
#X obj 40 420 tgl 24 0 empty empty hit? 28 7 1 10 #fcfcfc #000000 #000000
0 1;
#X obj 40 490 bng 15 250 50 0 empty empty empty 17 7 0 10 #fcfcfc #000000
#000000;
#X obj 40 460 sel 1;
#X obj 450 70 loadbang;
#X msg 450 90 1.2;
#X obj 10 520 send game_over;
#X msg 60 350 3 3;
#X msg 150 350 -3 1;
#X msg 230 350 -1 1;
#X msg 300 350 -3 3;
#X msg 380 350 1 3;
#X msg 460 350 -1 -3;
#X obj 130 420 tgl 24 0 empty empty hit? 28 7 1 10 #fcfcfc #000000
#000000 0 1;
#X obj 130 490 bng 15 250 50 0 empty empty empty 17 7 0 10 #fcfcfc
#000000 #000000;
#X obj 130 460 sel 1;
#X obj 100 520 send game_over;
#X obj 230 420 tgl 24 0 empty empty hit? 28 7 1 10 #fcfcfc #000000
#000000 0 1;
#X obj 230 490 bng 15 250 50 0 empty empty empty 17 7 0 10 #fcfcfc
#000000 #000000;
#X obj 230 460 sel 1;
#X obj 200 520 send game_over;
#X obj 320 420 tgl 24 0 empty empty hit? 28 7 1 10 #fcfcfc #000000
#000000 0 1;
#X obj 320 490 bng 15 250 50 0 empty empty empty 17 7 0 10 #fcfcfc
#000000 #000000;
#X obj 320 460 sel 1;
#X obj 290 520 send game_over;
#X obj 410 420 tgl 24 0 empty empty hit? 28 7 1 10 #fcfcfc #000000
#000000 0 1;
#X obj 410 490 bng 15 250 50 0 empty empty empty 17 7 0 10 #fcfcfc
#000000 #000000;
#X obj 410 460 sel 1;
#X obj 380 520 send game_over;
#X obj 500 420 tgl 24 0 empty empty hit? 28 7 1 10 #fcfcfc #000000
#000000 0 1;
#X obj 500 490 bng 15 250 50 0 empty empty empty 17 7 0 10 #fcfcfc
#000000 #000000;
#X obj 500 460 sel 1;
#X obj 470 520 send game_over;
#X obj 190 160 bng 15 250 50 0 empty empty empty 17 7 0 10 #fcfcfc
#000000 #000000;
#X obj 290 130 receive blue;
#X obj 320 160 bng 15 250 50 0 empty empty empty 17 7 0 10 #fcfcfc
#000000 #000000;
#X msg 60 320 -3 -3;
#X msg 150 320 -1 -1;
#X msg 230 320 1 1;
#X msg 300 320 3 -3;
#X msg 380 320 1 -1;
#X msg 460 320 3 -1;
#X obj 170 130 receive red;
#X obj 240 90 receive reset;
#X msg 250 120 10 10;
#X connect 0 0 7 0;
#X connect 0 0 5 0;
#X connect 0 0 4 0;
#X connect 0 0 3 0;
#X connect 0 0 2 0;
#X connect 0 0 1 0;
#X connect 1 0 20 0;
#X connect 2 0 24 0;
#X connect 3 0 28 0;
#X connect 4 0 32 0;
#X connect 5 0 36 0;
#X connect 6 0 5 2;
#X connect 6 0 7 2;
#X connect 6 0 4 2;
#X connect 6 0 3 2;
#X connect 6 0 2 2;
#X connect 6 0 1 2;
#X connect 7 0 8 0;
#X connect 8 0 10 0;
#X connect 9 0 13 0;
#X connect 10 0 9 0;
#X connect 11 0 12 0;
#X connect 12 0 6 0;
#X connect 14 0 7 1;
#X connect 15 0 1 1;
#X connect 16 0 2 1;
#X connect 17 0 3 1;
#X connect 18 0 4 1;
#X connect 19 0 5 1;
#X connect 20 0 22 0;
#X connect 21 0 23 0;
#X connect 22 0 21 0;
#X connect 24 0 26 0;
#X connect 25 0 27 0;
#X connect 26 0 25 0;
#X connect 28 0 30 0;
#X connect 29 0 31 0;
#X connect 30 0 29 0;
#X connect 32 0 34 0;
#X connect 33 0 35 0;
#X connect 34 0 33 0;
#X connect 36 0 38 0;
#X connect 37 0 39 0;
#X connect 38 0 37 0;
#X connect 40 0 14 0;
#X connect 40 0 15 0;
#X connect 40 0 19 0;
#X connect 40 0 16 0;
#X connect 40 0 17 0;
#X connect 40 0 18 0;
#X connect 41 0 42 0;
#X connect 42 0 43 0;
#X connect 42 0 44 0;
#X connect 42 0 45 0;
#X connect 42 0 46 0;
#X connect 42 0 47 0;
#X connect 42 0 48 0;
#X connect 43 0 7 1;
#X connect 44 0 1 1;
#X connect 45 0 2 1;
#X connect 46 0 3 1;
#X connect 47 0 4 1;
#X connect 48 0 5 1;
#X connect 49 0 40 0;
#X connect 50 0 51 0;
#X connect 51 0 7 1;
#X connect 51 0 5 1;
#X connect 51 0 4 1;
#X connect 51 0 3 1;
#X connect 51 0 2 1;
#X connect 51 0 1 1;
#X restore 150 300 pd Collision Logic;
#N canvas 1072 32 454 334 game_start 0;
#X obj 30 10 inlet;
#X obj 30 110 tgl 15 0 empty empty empty 17 7 0 10 #fcfcfc #000000
#000000 0 1;
#X obj 30 140 send start_beats;
#X obj 30 170 metro 8000;
#X obj 30 195 send spawn;
#X obj 100 10 receive reset;
#X obj 30 80 spigot;
#X obj 50 110 bng 15 250 50 0 empty empty empty 17 7 0 10 #fcfcfc #000000
#000000;
#X obj 70 110 tgl 15 0 empty empty empty 17 7 0 10 #fcfcfc #000000
#000000 1 1;
#X obj 100 80 spigot;
#X obj 90 110 loadbang;
#X connect 0 0 6 0;
#X connect 1 0 2 0;
#X connect 1 0 3 0;
#X connect 1 0 7 0;
#X connect 1 0 9 1;
#X connect 3 0 4 0;
#X connect 5 0 9 0;
#X connect 6 0 1 0;
#X connect 7 0 8 0;
#X connect 8 0 6 1;
#X connect 9 0 1 0;
#X connect 10 0 8 0;
#X restore 200 40 pd game_start;
#X obj 200 10 bng 15 250 50 0 empty empty empty 17 7 0 10 #fcfcfc #000000
#000000;
#X obj 290 10 bng 15 250 50 0 empty empty empty 17 7 0 10 #fcfcfc #000000
#000000;
#X obj 290 40 send reset;
#N canvas 566 68 459 562 spawner 0;
#X obj 186 336 pack 0 0;
#X floatatom 106 336 7 0 0 0 - - -, f 7;
#X floatatom 296 336 6 0 0 0 - - -, f 6;
#X obj 214 114 bng 15 250 50 0 empty empty empty 17 7 0 10 #fcfcfc
#000000 #000000;
#X obj 66 206 random 1000;
#X obj 66 231 / 1000;
#X obj 136 286 +;
#X obj 336 206 random 1000;
#X obj 336 231 / 1000;
#X obj 184 364 outlet;
#X obj 220 190 -;
#X obj 166 136 random 7;
#X obj 236 136 random 7;
#X obj 220 170 swap 7;
#X obj 166 224 - 3.5;
#X obj 230 220 - 3.5;
#X obj 170 290 send new_point;
#X obj 266 286 -;
#X obj 180 60 receive spawn;
#X obj 310 80 receive reset;
#X obj 180 85 delay 2000;
#X connect 0 0 9 0;
#X connect 3 0 4 0;
#X connect 3 0 7 0;
#X connect 3 0 11 0;
#X connect 3 0 12 0;
#X connect 3 0 16 0;
#X connect 4 0 5 0;
#X connect 5 0 6 1;
#X connect 6 0 1 0;
#X connect 6 0 0 0;
#X connect 7 0 8 0;
#X connect 8 0 17 1;
#X connect 10 0 15 0;
#X connect 11 0 14 0;
#X connect 12 0 13 0;
#X connect 13 0 10 0;
#X connect 13 1 10 1;
#X connect 14 0 6 0;
#X connect 15 0 17 0;
#X connect 17 0 2 0;
#X connect 17 0 0 1;
#X connect 18 0 20 0;
#X connect 20 0 3 0;
#X restore 40 240 pd spawner;
#N canvas 231 138 451 452 Design 0;
#X restore 200 150 pd Design;
#X connect 1 0 0 0;
#X connect 2 0 0 0;
#X connect 8 0 12 2;
#X connect 9 0 8 0;
#X connect 10 0 9 0;
#X connect 11 0 12 0;
#X connect 11 0 16 0;
#X connect 14 0 15 0;
#X connect 18 0 17 0;
#X connect 19 0 20 0;
#X connect 21 0 12 1;
