#N canvas 48 276 566 486 10;
#X obj 10 100 gemwin;
#X msg 30 70 destroy;
#X msg 10 40 dimen 750 750 \, create \, 1;
#N canvas 900 197 478 441 score 0;
#X obj 160 150 gemhead;
#X obj 260 350 f;
#X obj 320 200 bng 15 250 50 0 empty empty empty 17 7 0 10 #fcfcfc
#000000 #000000;
#X msg 280 320 float \$1;
#X obj 160 330 colorRGB 1 1 1;
#X obj 200 240 hsl 87 15 -6 6 0 0 empty empty empty -2 -8 0 10 #fcfcfc
#000000 #000000 6400 1;
#X obj 200 260 hsl 88 15 -6 6 0 0 empty empty empty -2 -8 0 10 #fcfcfc
#000000 #000000 7150 1;
#X msg 180 190 set \$1;
#X msg 250 190 set \$1;
#X msg 180 210 2.93023;
#X msg 250 210 3.86207;
#X obj 160 290 translateXYZ 0 0 0;
#X floatatom 220 370 5 0 0 0 - - -, f 5;
#X obj 230 150 loadbang;
#X obj 160 390 text2d 0;
#X obj 70 240 hsl 87 15 -6 6 0 0 empty empty empty -2 -8 0 10 #fcfcfc
#000000 #000000 5750 1;
#X obj 70 260 hsl 88 15 -6 6 0 0 empty empty empty -2 -8 0 10 #fcfcfc
#000000 #000000 7150 1;
#X msg 50 190 set \$1;
#X msg 120 190 set \$1;
#X msg 50 210 2.02326;
#X msg 120 210 3.86207;
#X obj 30 290 translateXYZ 0 0 0;
#X floatatom 90 370 5 0 0 0 - - -, f 5;
#X obj 30 150 gemhead;
#X obj 30 330 colorRGB 1 1 1;
#X obj 370 260 + 1;
#X msg 320 230 1;
#X obj 30 390 text2d Destroyed:;
#X obj 320 160 receive score-space;
#X msg 370 230 0;
#X obj 350 310 send score-no;
#X msg 30 120 set 65;
#X msg 160 120 set 65;
#X obj 370 200 receive start;
#X obj 410 240 loadbang;
#X floatatom 280 290 5 0 0 0 - - -, f 5;
#X obj 60 40 receive game_start;
#X msg 60 65 set 49;
#X obj 90 150 loadbang;
#X obj 150 70 receive start;
#X connect 0 0 11 0;
#X connect 1 0 14 0;
#X connect 2 0 26 0;
#X connect 3 0 1 0;
#X connect 4 0 14 0;
#X connect 5 0 7 0;
#X connect 5 0 11 1;
#X connect 6 0 8 0;
#X connect 6 0 11 2;
#X connect 7 0 9 0;
#X connect 8 0 10 0;
#X connect 9 0 5 0;
#X connect 10 0 6 0;
#X connect 11 0 4 0;
#X connect 12 0 14 1;
#X connect 13 0 10 0;
#X connect 13 0 9 0;
#X connect 15 0 17 0;
#X connect 15 0 21 1;
#X connect 16 0 18 0;
#X connect 16 0 21 2;
#X connect 17 0 19 0;
#X connect 18 0 20 0;
#X connect 19 0 15 0;
#X connect 20 0 16 0;
#X connect 21 0 24 0;
#X connect 22 0 27 1;
#X connect 23 0 21 0;
#X connect 24 0 27 0;
#X connect 25 0 35 0;
#X connect 26 0 25 0;
#X connect 28 0 2 0;
#X connect 29 0 35 0;
#X connect 31 0 23 0;
#X connect 32 0 0 0;
#X connect 33 0 29 0;
#X connect 34 0 29 0;
#X connect 35 0 25 1;
#X connect 35 0 30 0;
#X connect 35 0 3 0;
#X connect 36 0 37 0;
#X connect 37 0 23 0;
#X connect 37 0 0 0;
#X connect 38 0 19 0;
#X connect 38 0 20 0;
#X connect 39 0 31 0;
#X connect 39 0 32 0;
#X restore 10 130 pd score;
#N canvas 484 188 1038 458 background 0;
#X obj 20 20 gemhead;
#X obj 20 130 pix_image;
#X obj 50 50 loadbang;
#X obj 20 170 pix_texture;
#X msg 30 80 open Art/SpaceBackground.png;
#X obj 210 80 gemhead;
#X obj 210 190 pix_image;
#X obj 240 110 loadbang;
#X obj 210 230 pix_texture;
#X msg 240 140 open Art/CityBackground.png;
#X obj 210 340 rotateXYZ 0 0 180;
#X msg 210 40 set 52;
#X obj 210 380 rectangle 1 1;
#X obj 420 80 gemhead;
#X obj 420 190 pix_image;
#X obj 450 110 loadbang;
#X obj 420 230 pix_texture;
#X msg 450 140 open Art/CityBackground.png;
#X obj 420 340 rotateXYZ 0 0 180;
#X msg 420 40 set 52;
#X obj 420 380 rectangle 1 1;
#X obj 630 80 gemhead;
#X obj 630 190 pix_image;
#X obj 660 110 loadbang;
#X obj 630 230 pix_texture;
#X msg 660 140 open Art/CityBackground.png;
#X obj 630 340 rotateXYZ 0 0 180;
#X msg 630 40 set 52;
#X obj 630 380 rectangle 1 1;
#X obj 18 208 rectangle 4 4;
#X obj 830 80 gemhead;
#X obj 830 190 pix_image;
#X obj 860 110 loadbang;
#X obj 830 230 pix_texture;
#X msg 860 140 open Art/CityBackground.png;
#X obj 830 340 rotateXYZ 0 0 180;
#X msg 830 40 set 52;
#X obj 830 380 rectangle 1 1;
#X obj 210 290 translateXYZ -3 -3.2 0;
#X obj 420 290 translateXYZ -1 -3.2 0;
#X obj 630 290 translateXYZ 1 -3.2 0;
#X obj 830 290 translateXYZ 3 -3.2 0;
#X obj 360 0 loadbang;
#X connect 0 0 1 0;
#X connect 1 0 3 0;
#X connect 2 0 4 0;
#X connect 3 0 29 0;
#X connect 4 0 1 0;
#X connect 5 0 6 0;
#X connect 6 0 8 0;
#X connect 7 0 9 0;
#X connect 8 0 38 0;
#X connect 9 0 6 0;
#X connect 10 0 12 0;
#X connect 11 0 5 0;
#X connect 13 0 14 0;
#X connect 14 0 16 0;
#X connect 15 0 17 0;
#X connect 16 0 39 0;
#X connect 17 0 14 0;
#X connect 18 0 20 0;
#X connect 19 0 13 0;
#X connect 21 0 22 0;
#X connect 22 0 24 0;
#X connect 23 0 25 0;
#X connect 24 0 40 0;
#X connect 25 0 22 0;
#X connect 26 0 28 0;
#X connect 27 0 21 0;
#X connect 30 0 31 0;
#X connect 31 0 33 0;
#X connect 32 0 34 0;
#X connect 33 0 41 0;
#X connect 34 0 31 0;
#X connect 35 0 37 0;
#X connect 36 0 30 0;
#X connect 38 0 10 0;
#X connect 39 0 18 0;
#X connect 40 0 26 0;
#X connect 41 0 35 0;
#X connect 42 0 11 0;
#X connect 42 0 19 0;
#X connect 42 0 27 0;
#X connect 42 0 36 0;
#X restore 10 160 pd background;
#N canvas 612 232 890 510 Game_overScreen 0;
#X msg 20 170 set 57;
#X obj 20 195 gemhead;
#X obj 20 225 colorRGB 1 0 0;
#X obj 20 250 text2d GAME OVER;
#X floatatom 120 225 5 0 0 0 - - -, f 5;
#X obj 250 70 tgl 15 0 empty empty empty 17 7 0 10 #fcfcfc #000000
#000000 1 1;
#X obj 270 70 bng 15 250 50 0 empty empty empty 17 7 0 10 #fcfcfc #000000
#000000;
#X obj 290 70 tgl 15 0 empty empty empty 17 7 0 10 #fcfcfc #000000
#000000 0 1;
#X obj 110 40 spigot;
#X obj 250 40 spigot;
#X obj 310 40 loadbang;
#X obj 250 10 receive reset;
#X obj 110 10 receive start;
#X msg 120 200 69;
#X obj 120 180 loadbang;
#X obj 400 50 receive reset;
#X obj 200 170 gemhead;
#X obj 320 370 f;
#X obj 240 250 hsl 87 15 -6 6 0 0 empty empty empty -2 -8 0 10 #fcfcfc
#000000 #000000 5000 1;
#X obj 240 270 hsl 88 15 -6 6 0 0 empty empty empty -2 -8 0 10 #fcfcfc
#000000 #000000 3900 1;
#X msg 220 200 set \$1;
#X msg 290 200 set \$1;
#X msg 220 220 0.976744;
#X msg 290 220 -0.62069;
#X obj 200 300 translateXYZ 0 0 0;
#X floatatom 240 410 5 0 0 0 - - -, f 5;
#X obj 270 170 loadbang;
#X msg 430 180 set 57;
#X obj 430 205 gemhead;
#X obj 430 420 colorRGB 1 0 0;
#X floatatom 530 420 5 0 0 0 - - -, f 5;
#X obj 530 370 loadbang;
#X obj 240 370 loadbang;
#X msg 240 390 20;
#X msg 530 390 20;
#X obj 480 290 hsl 87 15 -6 6 0 0 empty empty empty -2 -8 0 10 #fcfcfc
#000000 #000000 3700 1;
#X obj 480 310 hsl 88 15 -6 6 0 0 empty empty empty -2 -8 0 10 #fcfcfc
#000000 #000000 3900 1;
#X msg 460 240 set \$1;
#X msg 530 240 set \$1;
#X msg 460 260 -0.837209;
#X msg 530 260 -0.62069;
#X obj 440 340 translateXYZ 0 0 0;
#X obj 320 330 receive score-no;
#X obj 420 455 text2d You protected the city from;
#X obj 200 340 colorRGB 1 1 1;
#X msg 650 180 set 57;
#X obj 650 205 gemhead;
#X obj 650 420 colorRGB 1 0 0;
#X floatatom 750 420 5 0 0 0 - - -, f 5;
#X obj 750 370 loadbang;
#X msg 750 390 20;
#X obj 700 290 hsl 87 15 -6 6 0 0 empty empty empty -2 -8 0 10 #fcfcfc
#000000 #000000 5600 1;
#X obj 700 310 hsl 88 15 -6 6 0 0 empty empty empty -2 -8 0 10 #fcfcfc
#000000 #000000 3900 1;
#X msg 680 240 set \$1;
#X msg 750 240 set \$1;
#X msg 680 260 1.81395;
#X msg 750 260 -0.62069;
#X obj 660 340 translateXYZ 0 0 0;
#X obj 640 460 text2d asteroids;
#X obj 200 440 text2d 0;
#X msg 200 140 set 57;
#X connect 0 0 1 0;
#X connect 1 0 2 0;
#X connect 2 0 3 0;
#X connect 4 0 3 1;
#X connect 5 0 6 0;
#X connect 5 0 8 1;
#X connect 5 0 1 0;
#X connect 5 0 16 0;
#X connect 5 0 28 0;
#X connect 5 0 46 0;
#X connect 5 0 45 0;
#X connect 6 0 7 0;
#X connect 7 0 9 1;
#X connect 8 0 5 0;
#X connect 8 0 0 0;
#X connect 8 0 60 0;
#X connect 8 0 27 0;
#X connect 8 0 45 0;
#X connect 9 0 5 0;
#X connect 10 0 7 0;
#X connect 11 0 9 0;
#X connect 12 0 8 0;
#X connect 13 0 4 0;
#X connect 14 0 13 0;
#X connect 15 0 0 0;
#X connect 15 0 60 0;
#X connect 15 0 27 0;
#X connect 15 0 45 0;
#X connect 16 0 24 0;
#X connect 17 0 59 0;
#X connect 18 0 20 0;
#X connect 18 0 24 1;
#X connect 19 0 21 0;
#X connect 19 0 24 2;
#X connect 20 0 22 0;
#X connect 21 0 23 0;
#X connect 22 0 18 0;
#X connect 23 0 19 0;
#X connect 24 0 44 0;
#X connect 25 0 59 1;
#X connect 26 0 22 0;
#X connect 26 0 23 0;
#X connect 26 0 55 0;
#X connect 26 0 56 0;
#X connect 26 0 39 0;
#X connect 26 0 40 0;
#X connect 27 0 28 0;
#X connect 28 0 41 0;
#X connect 29 0 43 0;
#X connect 30 0 43 1;
#X connect 31 0 34 0;
#X connect 32 0 33 0;
#X connect 33 0 25 0;
#X connect 34 0 30 0;
#X connect 35 0 37 0;
#X connect 35 0 41 1;
#X connect 36 0 38 0;
#X connect 36 0 41 2;
#X connect 37 0 39 0;
#X connect 38 0 40 0;
#X connect 39 0 35 0;
#X connect 40 0 36 0;
#X connect 41 0 29 0;
#X connect 42 0 17 0;
#X connect 44 0 59 0;
#X connect 45 0 46 0;
#X connect 46 0 57 0;
#X connect 47 0 58 0;
#X connect 48 0 58 1;
#X connect 49 0 50 0;
#X connect 50 0 48 0;
#X connect 51 0 53 0;
#X connect 51 0 57 1;
#X connect 52 0 54 0;
#X connect 52 0 57 2;
#X connect 53 0 55 0;
#X connect 54 0 56 0;
#X connect 55 0 51 0;
#X connect 56 0 52 0;
#X connect 57 0 47 0;
#X connect 60 0 16 0;
#X restore 10 220 pd Game_overScreen;
#N canvas 160 308 474 389 Game_startScreen 0;
#X obj 50 140 send reset;
#X obj 50 100 bng 15 250 50 0 empty empty empty 17 7 0 10 #fcfcfc #000000
#000000;
#X obj 120 100 bng 15 250 50 0 empty empty empty 17 7 0 10 #fcfcfc
#000000 #000000;
#X obj 120 140 send start;
#X obj 230 110 receive score-no;
#X floatatom 230 135 5 0 0 0 - - -, f 5;
#X connect 1 0 0 0;
#X connect 2 0 3 0;
#X connect 4 0 5 0;
#X restore 10 200 pd Game_startScreen;
#X obj 173 42 bng 15 250 50 0 empty empty empty 17 7 0 10 #fcfcfc #000000
#000000;
#X obj 173 82 send start;
#X obj 243 82 send reset;
#X obj 243 32 bng 15 250 50 0 empty empty empty 17 7 0 10 #fcfcfc #000000
#000000;
#N canvas 852 16 590 373 Music_Controller 0;
#X obj 60 180 readsf~;
#X obj 60 215 *~ 0.5;
#X obj 60 250 dac~;
#X msg 60 150 open Sound/Ambience.wav \, 1;
#X obj 150 75 bng 15 250 50 0 empty empty empty 17 7 0 10 #fcfcfc #000000
#000000;
#X msg 280 110 stop;
#X obj 150 30 receive reset;
#X obj 240 30 receive start;
#X msg 180 110 stop;
#X obj 240 80 bng 15 250 50 0 empty empty empty 17 7 0 10 #fcfcfc #000000
#000000;
#X obj 240 180 readsf~;
#X obj 240 215 *~ 0.5;
#X obj 240 250 dac~;
#X msg 240 150 open Sound/GameLoop.wav \, 1;
#X obj 410 180 readsf~;
#X obj 410 215 *~ 0.5;
#X obj 410 250 dac~;
#X msg 410 150 open Sound/Destroy.wav \, 1;
#X obj 410 120 receive destroyed;
#X obj 360 40 closebang;
#X connect 0 0 1 0;
#X connect 1 0 2 0;
#X connect 1 0 2 1;
#X connect 3 0 0 0;
#X connect 4 0 3 0;
#X connect 5 0 0 0;
#X connect 6 0 4 0;
#X connect 6 0 8 0;
#X connect 7 0 5 0;
#X connect 7 0 9 0;
#X connect 8 0 10 0;
#X connect 9 0 13 0;
#X connect 10 0 11 0;
#X connect 11 0 12 0;
#X connect 11 0 12 1;
#X connect 13 0 10 0;
#X connect 14 0 15 0;
#X connect 15 0 16 0;
#X connect 15 0 16 1;
#X connect 17 0 14 0;
#X connect 18 0 17 0;
#X connect 19 0 8 0;
#X connect 19 0 5 0;
#X restore 10 260 pd Music_Controller;
#N canvas 320 3 453 327 Spawner 0;
#N canvas 652 252 497 360 gemmouse 0;
#X obj 100 60 gemmouse 8 8;
#X obj 144 98 swap 8;
#X obj 144 124 -;
#X obj 144 146 - 4;
#X obj 100 167 pack 0 0;
#X obj 100 194 spigot;
#X obj 100 280 outlet;
#X obj 99 131 - 4;
#X obj 120 220 delay 10;
#X floatatom 210 80 5 0 0 0 - - -, f 5;
#X obj 210 110 bng 17 250 50 0 empty empty empty 17 7 0 10 #fcfcfc
#000000 #000000;
#X floatatom 210 200 5 0 0 0 - - -, f 5;
#X msg 210 150 1;
#X obj 240 140 bng 15 250 50 0 empty empty empty 17 7 0 10 #fcfcfc
#000000 #000000;
#X msg 240 170 0;
#X obj 240 110 delay 100;
#X obj 120 250 pack 10 10;
#X connect 0 0 7 0;
#X connect 0 1 1 0;
#X connect 0 2 9 0;
#X connect 1 0 2 0;
#X connect 1 1 2 1;
#X connect 2 0 3 0;
#X connect 3 0 4 1;
#X connect 4 0 5 0;
#X connect 5 0 6 0;
#X connect 5 0 8 0;
#X connect 7 0 4 0;
#X connect 8 0 16 0;
#X connect 9 0 10 0;
#X connect 10 0 12 0;
#X connect 10 0 15 0;
#X connect 11 0 5 1;
#X connect 12 0 11 0;
#X connect 13 0 14 0;
#X connect 14 0 11 0;
#X connect 15 0 13 0;
#X connect 16 0 6 0;
#X restore 23 4 pd gemmouse;
#X floatatom 113 54 5 0 0 1 - - -, f 5;
#X obj 113 14 loadbang;
#X msg 113 34 0.4;
#N canvas 256 56 706 558 comet_collision1 0;
#X obj 300 60 inlet radius;
#X obj 200 60 inlet reference;
#X obj 160 110 gemhead;
#X obj 150 320 translateXYZ;
#X obj 230 100 unpack 0 0;
#X obj 30 170 select 0 1;
#X obj 120 60 inlet test;
#N canvas 280 233 540 491 collide 0;
#X obj 91 217 list-map2;
#X obj 171 218 -;
#X obj 171 265 *;
#X obj 171 241 t a a;
#X obj 84 340 sqrt;
#X obj 84 290 list-reduce;
#X obj 170 290 +;
#X obj 124 360 t b a;
#X obj 150 130 inlet reference;
#X obj 80 130 inlet test;
#X obj 294 247 inlet radius;
#X obj 94 410 outlet;
#X obj 120 180 t b a;
#X obj 94 380 <= 1;
#X obj 110 90 tgl 15 0 empty empty empty 17 7 0 10 #fcfcfc #000000
#000000 0 1;
#X obj 140 90 bng 15 250 50 0 empty empty empty 17 7 0 10 #fcfcfc #000000
#000000;
#X obj 170 90 tgl 15 0 empty empty empty 17 7 0 10 #fcfcfc #000000
#000000 1 1;
#X obj 60 60 spigot;
#X obj 160 60 spigot;
#X obj 60 30 receive reset;
#X obj 230 80 loadbang;
#X obj 180 30 receive start;
#X obj 80 160 spigot;
#X obj 150 155 spigot;
#X connect 0 0 5 0;
#X connect 0 1 1 0;
#X connect 1 0 3 0;
#X connect 2 0 0 2;
#X connect 3 0 2 0;
#X connect 3 1 2 1;
#X connect 4 0 13 0;
#X connect 5 0 4 0;
#X connect 5 1 6 0;
#X connect 6 0 5 1;
#X connect 7 0 13 0;
#X connect 7 1 13 1;
#X connect 8 0 23 0;
#X connect 9 0 22 0;
#X connect 10 0 7 0;
#X connect 12 0 0 0;
#X connect 12 1 0 1;
#X connect 13 0 11 0;
#X connect 14 0 15 0;
#X connect 14 0 17 1;
#X connect 14 0 22 1;
#X connect 14 0 23 1;
#X connect 15 0 16 0;
#X connect 16 0 18 1;
#X connect 17 0 14 0;
#X connect 18 0 14 0;
#X connect 19 0 17 0;
#X connect 20 0 16 0;
#X connect 21 0 18 0;
#X connect 22 0 0 0;
#X connect 23 0 12 0;
#X restore 30 110 pd collide;
#X obj 50 140 tgl 24 0 empty empty hit? 28 7 1 10 #fcfcfc #000000 #000000
1 1;
#X msg 40 40 set 55;
#X obj 30 210 send score-space;
#X obj 40 10 loadbang;
#X obj 30 240 send respawn1;
#X floatatom 320 170 5 0 0 0 - - -, f 5;
#X obj 320 200 == -1.8;
#X floatatom 350 300 5 0 0 0 - - -, f 5;
#X obj 320 330 spigot;
#X obj 320 355 bng 15 250 50 0 empty empty empty 17 7 0 10 #fcfcfc
#000000 #000000;
#X obj 320 420 send reset;
#X floatatom 549 193 5 0 0 0 - - -, f 5;
#X obj 549 223 == -1.8;
#X floatatom 579 253 5 0 0 0 - - -, f 5;
#X obj 549 283 spigot;
#X obj 549 308 bng 15 250 50 0 empty empty empty 17 7 0 10 #fcfcfc
#000000 #000000;
#X obj 549 343 send reset;
#X obj 360 360 delay 10;
#X obj 340 390 bng 15 250 50 0 empty empty empty 17 7 0 10 #fcfcfc
#000000 #000000;
#X obj 30 270 send destroyed;
#X obj 150 220 pix_image;
#X obj 180 140 loadbang;
#X obj 150 290 pix_texture;
#X obj 150 385 circle 0.4;
#X floatatom 170 250 5 0 0 0 - - -, f 5;
#X msg 220 240 env \$1;
#X obj 220 220 hradio 15 1 0 6 empty empty empty 0 -6 0 8 #fcfcfc #000000
#000000 2;
#X msg 220 190 2;
#X obj 150 360 colorRGB 1 0 0;
#X msg 180 170 open Art/Rock1.jpeg;
#X obj 320 240 select 1;
#X obj 320 270 send reset;
#X connect 0 0 7 2;
#X connect 1 0 4 0;
#X connect 1 0 7 1;
#X connect 2 0 28 0;
#X connect 3 0 36 0;
#X connect 4 0 3 1;
#X connect 4 1 3 2;
#X connect 4 1 13 0;
#X connect 5 1 10 0;
#X connect 5 1 12 0;
#X connect 5 1 27 0;
#X connect 6 0 7 0;
#X connect 7 0 5 0;
#X connect 7 0 8 0;
#X connect 9 0 2 0;
#X connect 11 0 9 0;
#X connect 13 0 14 0;
#X connect 14 0 38 0;
#X connect 15 0 16 1;
#X connect 16 0 17 0;
#X connect 17 0 18 0;
#X connect 17 0 25 0;
#X connect 19 0 20 0;
#X connect 20 0 21 0;
#X connect 20 0 22 0;
#X connect 21 0 22 1;
#X connect 22 0 23 0;
#X connect 23 0 24 0;
#X connect 25 0 26 0;
#X connect 26 0 18 0;
#X connect 28 0 30 0;
#X connect 29 0 37 0;
#X connect 29 0 35 0;
#X connect 30 0 3 0;
#X connect 32 0 30 0;
#X connect 33 0 30 0;
#X connect 34 0 33 0;
#X connect 34 0 30 0;
#X connect 35 0 34 0;
#X connect 36 0 31 0;
#X connect 37 0 28 0;
#X connect 38 0 39 0;
#X restore 23 84 pd comet_collision1;
#N canvas 604 234 531 449 Comet1 0;
#X obj 190 400 outlet;
#N canvas 540 265 394 348 mover 0;
#X obj 60 140 line;
#X obj 200 140 line;
#X msg 70 100 \$1 3000;
#X msg 200 100 \$1 3000;
#X obj 110 190 pack 0 0;
#X floatatom 40 180 5 0 0 0 - - -, f 5;
#X floatatom 210 180 5 0 0 0 - - -, f 5;
#X obj 50 60 unpack 0 0, f 13;
#X obj 180 60 unpack 0 0, f 11;
#X obj 50 20 inlet from;
#X obj 180 20 inlet to;
#X obj 110 215 outlet atm;
#X connect 0 0 4 0;
#X connect 0 0 5 0;
#X connect 1 0 4 1;
#X connect 1 0 6 0;
#X connect 2 0 0 0;
#X connect 3 0 1 0;
#X connect 4 0 11 0;
#X connect 7 0 0 0;
#X connect 7 1 1 0;
#X connect 8 0 2 0;
#X connect 8 1 3 0;
#X connect 9 0 7 0;
#X connect 10 0 8 0;
#X restore 190 350 pd mover;
#X obj 170 90 bng 15 250 50 0 empty empty empty 17 7 0 10 #fcfcfc #000000
#000000;
#X obj 260 30 receive respawn1;
#X obj 260 60 delay 2000;
#X obj 150 20 receive start;
#X floatatom 260 225 5 0 0 0 - - -, f 5;
#X obj 260 90 bng 15 250 50 0 empty empty empty 17 7 0 10 #fcfcfc #000000
#000000;
#X obj 260 250 - 3;
#X obj 260 200 random 6;
#X obj 330 200 random 1000;
#X obj 330 225 / 1000;
#X obj 260 280 +;
#X floatatom 170 225 5 0 0 0 - - -, f 5;
#X obj 90 200 random 1000;
#X obj 90 225 / 1000;
#X obj 170 280 +;
#X msg 170 310 \$1 6;
#X obj 50 30 receive reset;
#X obj 170 200 random 6;
#X obj 170 250 - 3;
#X msg 260 310 \$1 -1.8;
#X obj 170 120 t b b;
#X obj 260 120 t b b;
#X connect 1 0 0 0;
#X connect 2 0 22 0;
#X connect 3 0 4 0;
#X connect 3 0 2 0;
#X connect 4 0 7 0;
#X connect 5 0 2 0;
#X connect 5 0 7 0;
#X connect 6 0 8 0;
#X connect 7 0 23 0;
#X connect 8 0 12 0;
#X connect 9 0 6 0;
#X connect 10 0 11 0;
#X connect 11 0 12 1;
#X connect 12 0 21 0;
#X connect 13 0 20 0;
#X connect 14 0 15 0;
#X connect 15 0 16 1;
#X connect 16 0 17 0;
#X connect 17 0 1 0;
#X connect 18 0 2 0;
#X connect 19 0 13 0;
#X connect 20 0 16 0;
#X connect 21 0 1 1;
#X connect 22 0 19 0;
#X connect 22 1 14 0;
#X connect 23 0 9 0;
#X connect 23 1 10 0;
#X restore 43 54 pd Comet1;
#X connect 0 0 4 0;
#X connect 1 0 4 2;
#X connect 2 0 3 0;
#X connect 3 0 1 0;
#X connect 5 0 4 1;
#X restore 10 290 pd Spawner;
#X obj 370 80 receive start;
#X floatatom 370 105 5 0 0 0 - - -, f 5;
#X connect 1 0 0 0;
#X connect 2 0 0 0;
#X connect 7 0 8 0;
#X connect 10 0 9 0;
#X connect 13 0 14 0;
