#N canvas 1076 428 423 342 10;
#X obj 10 80 gemwin;
#X msg 30 50 destroy;
#N canvas 484 188 1038 458 background 0;
#X obj 20 20 gemhead;
#X obj 20 130 pix_image;
#X obj 50 50 loadbang;
#X obj 20 170 pix_texture;
#X msg 30 80 open Art/SpaceBackground.png;
#X obj 210 80 gemhead;
#X obj 210 190 pix_image;
#X obj 240 110 loadbang;
#X obj 210 230 pix_texture;
#X msg 240 140 open Art/CityBackground.png;
#X obj 210 340 rotateXYZ 0 0 180;
#X msg 210 40 set 52;
#X obj 210 380 rectangle 1 1;
#X obj 420 80 gemhead;
#X obj 420 190 pix_image;
#X obj 450 110 loadbang;
#X obj 420 230 pix_texture;
#X msg 450 140 open Art/CityBackground.png;
#X obj 420 340 rotateXYZ 0 0 180;
#X msg 420 40 set 52;
#X obj 420 380 rectangle 1 1;
#X obj 630 80 gemhead;
#X obj 630 190 pix_image;
#X obj 660 110 loadbang;
#X obj 630 230 pix_texture;
#X msg 660 140 open Art/CityBackground.png;
#X obj 630 340 rotateXYZ 0 0 180;
#X msg 630 40 set 52;
#X obj 630 380 rectangle 1 1;
#X obj 18 208 rectangle 4 4;
#X obj 830 80 gemhead;
#X obj 830 190 pix_image;
#X obj 860 110 loadbang;
#X obj 830 230 pix_texture;
#X msg 860 140 open Art/CityBackground.png;
#X obj 830 340 rotateXYZ 0 0 180;
#X msg 830 40 set 52;
#X obj 830 380 rectangle 1 1;
#X obj 210 290 translateXYZ -3 -3.2 0;
#X obj 420 290 translateXYZ -1 -3.2 0;
#X obj 630 290 translateXYZ 1 -3.2 0;
#X obj 830 290 translateXYZ 3 -3.2 0;
#X obj 360 0 loadbang;
#X connect 0 0 1 0;
#X connect 1 0 3 0;
#X connect 2 0 4 0;
#X connect 3 0 29 0;
#X connect 4 0 1 0;
#X connect 5 0 6 0;
#X connect 6 0 8 0;
#X connect 7 0 9 0;
#X connect 8 0 38 0;
#X connect 9 0 6 0;
#X connect 10 0 12 0;
#X connect 11 0 5 0;
#X connect 13 0 14 0;
#X connect 14 0 16 0;
#X connect 15 0 17 0;
#X connect 16 0 39 0;
#X connect 17 0 14 0;
#X connect 18 0 20 0;
#X connect 19 0 13 0;
#X connect 21 0 22 0;
#X connect 22 0 24 0;
#X connect 23 0 25 0;
#X connect 24 0 40 0;
#X connect 25 0 22 0;
#X connect 26 0 28 0;
#X connect 27 0 21 0;
#X connect 30 0 31 0;
#X connect 31 0 33 0;
#X connect 32 0 34 0;
#X connect 33 0 41 0;
#X connect 34 0 31 0;
#X connect 35 0 37 0;
#X connect 36 0 30 0;
#X connect 38 0 10 0;
#X connect 39 0 18 0;
#X connect 40 0 26 0;
#X connect 41 0 35 0;
#X connect 42 0 11 0;
#X connect 42 0 19 0;
#X connect 42 0 27 0;
#X connect 42 0 36 0;
#X restore 10 130 pd background;
#N canvas 609 56 473 434 score 0;
#X obj 160 40 gemhead;
#X obj 260 240 f;
#X obj 320 90 bng 15 250 50 0 empty empty empty 17 7 0 10 #fcfcfc #000000
#000000;
#X floatatom 310 150 5 0 0 0 - - -, f 5;
#X msg 280 210 float \$1;
#X obj 160 220 colorRGB 1 1 1;
#X obj 200 130 hsl 87 15 -6 6 0 0 empty empty empty -2 -8 0 10 #fcfcfc
#000000 #000000 6350 1;
#X obj 200 150 hsl 88 15 -6 6 0 0 empty empty empty -2 -8 0 10 #fcfcfc
#000000 #000000 7150 1;
#X msg 180 80 set \$1;
#X msg 250 80 set \$1;
#X msg 180 100 2.86047;
#X msg 250 100 3.86207;
#X obj 160 180 translateXYZ 0 0 0;
#X floatatom 220 260 5 0 0 0 - - -, f 5;
#X obj 230 40 loadbang;
#X obj 160 280 text2d 0;
#X obj 70 130 hsl 87 15 -6 6 0 0 empty empty empty -2 -8 0 10 #fcfcfc
#000000 #000000 5750 1;
#X obj 70 150 hsl 88 15 -6 6 0 0 empty empty empty -2 -8 0 10 #fcfcfc
#000000 #000000 7150 1;
#X msg 50 80 set \$1;
#X msg 120 80 set \$1;
#X msg 50 100 2.02326;
#X msg 120 100 3.86207;
#X obj 30 180 translateXYZ 0 0 0;
#X floatatom 90 260 5 0 0 0 - - -, f 5;
#X obj 100 40 loadbang;
#X obj 30 40 gemhead;
#X obj 30 220 colorRGB 1 1 1;
#X obj 370 150 + 1;
#X msg 320 120 1;
#X obj 30 280 text2d Destroyed:;
#X obj 320 50 receive score-space;
#X msg 370 120 0;
#X obj 350 200 send score-no;
#X msg 30 10 set 65;
#X msg 160 10 set 65;
#X obj 370 90 receive start;
#X connect 0 0 12 0;
#X connect 1 0 15 0;
#X connect 2 0 28 0;
#X connect 3 0 27 1;
#X connect 3 0 4 0;
#X connect 3 0 32 0;
#X connect 4 0 1 0;
#X connect 5 0 15 0;
#X connect 6 0 8 0;
#X connect 6 0 12 1;
#X connect 7 0 9 0;
#X connect 7 0 12 2;
#X connect 8 0 10 0;
#X connect 9 0 11 0;
#X connect 10 0 6 0;
#X connect 11 0 7 0;
#X connect 12 0 5 0;
#X connect 13 0 15 1;
#X connect 14 0 10 0;
#X connect 14 0 11 0;
#X connect 14 0 34 0;
#X connect 16 0 18 0;
#X connect 16 0 22 1;
#X connect 17 0 19 0;
#X connect 17 0 22 2;
#X connect 18 0 20 0;
#X connect 19 0 21 0;
#X connect 20 0 16 0;
#X connect 21 0 17 0;
#X connect 22 0 26 0;
#X connect 23 0 29 1;
#X connect 24 0 20 0;
#X connect 24 0 21 0;
#X connect 24 0 33 0;
#X connect 25 0 22 0;
#X connect 26 0 29 0;
#X connect 27 0 3 0;
#X connect 28 0 27 0;
#X connect 30 0 2 0;
#X connect 31 0 3 0;
#X connect 33 0 25 0;
#X connect 34 0 0 0;
#X connect 35 0 31 0;
#X restore 10 110 pd score;
#X msg 10 20 dimen 750 750 \, create \, 1;
#N canvas 781 7 747 426 Spawner 0;
#N canvas 1032 308 494 358 gemmouse 0;
#X obj 100 60 gemmouse 8 8;
#X obj 144 98 swap 8;
#X obj 144 124 -;
#X obj 144 146 - 4;
#X obj 100 167 pack 0 0;
#X obj 100 194 spigot;
#X obj 100 280 outlet;
#X obj 99 131 - 4;
#X obj 120 220 delay 10;
#X floatatom 210 80 5 0 0 0 - - -, f 5;
#X obj 290 70 tgl 15 0 empty empty empty 17 7 0 10 #fcfcfc #000000
#000000 0 1;
#X obj 320 70 bng 15 250 50 0 empty empty empty 17 7 0 10 #fcfcfc #000000
#000000;
#X obj 350 70 tgl 15 0 empty empty empty 17 7 0 10 #fcfcfc #000000
#000000 1 1;
#X obj 240 40 spigot;
#X obj 340 40 spigot;
#X obj 430 60 loadbang;
#X obj 210 110 bng 17 250 50 0 empty empty empty 17 7 0 10 #fcfcfc
#000000 #000000;
#X floatatom 210 200 5 0 0 0 - - -, f 5;
#X msg 210 150 1;
#X obj 240 140 bng 15 250 50 0 empty empty empty 17 7 0 10 #fcfcfc
#000000 #000000;
#X msg 240 170 0;
#X obj 240 110 delay 100;
#X obj 120 250 pack 10 10;
#X connect 0 0 7 0;
#X connect 0 1 1 0;
#X connect 0 2 9 0;
#X connect 1 0 2 0;
#X connect 1 1 2 1;
#X connect 2 0 3 0;
#X connect 3 0 4 1;
#X connect 4 0 5 0;
#X connect 5 0 6 0;
#X connect 5 0 8 0;
#X connect 7 0 4 0;
#X connect 8 0 22 0;
#X connect 9 0 16 0;
#X connect 10 0 11 0;
#X connect 11 0 12 0;
#X connect 12 0 14 1;
#X connect 12 0 13 1;
#X connect 13 0 10 0;
#X connect 14 0 10 0;
#X connect 15 0 12 0;
#X connect 16 0 18 0;
#X connect 16 0 21 0;
#X connect 17 0 5 1;
#X connect 18 0 17 0;
#X connect 19 0 20 0;
#X connect 20 0 17 0;
#X connect 21 0 19 0;
#X connect 22 0 6 0;
#X restore 40 10 pd gemmouse;
#X floatatom 130 60 5 0 0 1 - - -, f 5;
#X obj 130 20 loadbang;
#X msg 130 40 0.4;
#N canvas 512 364 474 358 gemmouse 0;
#X obj 70 20 gemmouse 8 8;
#X obj 114 58 swap 8;
#X obj 114 84 -;
#X obj 114 106 - 4;
#X obj 70 127 pack 0 0;
#X obj 70 154 spigot;
#X obj 70 230 outlet;
#X obj 69 91 - 4;
#X obj 90 180 delay 10;
#X floatatom 170 50 5 0 0 0 - - -, f 5;
#X obj 170 80 bng 17 250 50 0 empty empty empty 17 7 0 10 #fcfcfc #000000
#000000;
#X floatatom 170 170 5 0 0 0 - - -, f 5;
#X msg 170 120 1;
#X obj 200 110 bng 15 250 50 0 empty empty empty 17 7 0 10 #fcfcfc
#000000 #000000;
#X msg 200 140 0;
#X obj 200 80 delay 100;
#X obj 90 210 pack 10 10;
#X connect 0 0 7 0;
#X connect 0 1 1 0;
#X connect 0 2 9 0;
#X connect 1 0 2 0;
#X connect 1 1 2 1;
#X connect 2 0 3 0;
#X connect 3 0 4 1;
#X connect 4 0 5 0;
#X connect 5 0 6 0;
#X connect 5 0 8 0;
#X connect 7 0 4 0;
#X connect 8 0 16 0;
#X connect 9 0 10 0;
#X connect 10 0 12 0;
#X connect 10 0 15 0;
#X connect 11 0 5 1;
#X connect 12 0 11 0;
#X connect 13 0 14 0;
#X connect 14 0 11 0;
#X connect 15 0 13 0;
#X connect 16 0 6 0;
#X restore 200 20 pd gemmouse;
#X floatatom 290 60 5 0 0 1 - - -, f 5;
#X obj 290 20 loadbang;
#X floatatom 440 60 5 0 0 1 - - -, f 5;
#X obj 440 20 loadbang;
#X floatatom 590 60 5 0 0 1 - - -, f 5;
#X obj 590 20 loadbang;
#N canvas 912 180 538 438 comet_collision2 0;
#X obj 300 60 inlet radius;
#X obj 200 60 inlet reference;
#X obj 160 110 gemhead;
#X obj 160 320 translateXYZ;
#X obj 230 100 unpack 0 0;
#X obj 30 170 select 0 1;
#X obj 120 60 inlet test;
#N canvas 788 277 544 453 collide 0;
#X obj 97 210 list-map2;
#X obj 177 211 -;
#X obj 177 258 *;
#X obj 177 234 t a a;
#X obj 90 333 sqrt;
#X obj 97 285 list-reduce;
#X obj 181 285 +;
#X obj 130 343 t b a;
#X obj 170 120 inlet reference;
#X obj 100 120 inlet test;
#X obj 300 240 inlet radius;
#X obj 100 393 outlet;
#X obj 126 173 t b a;
#X obj 100 363 <= 1;
#X obj 130 90 tgl 15 0 empty empty empty 17 7 0 10 #fcfcfc #000000
#000000 0 1;
#X obj 160 90 bng 15 250 50 0 empty empty empty 17 7 0 10 #fcfcfc #000000
#000000;
#X obj 190 90 tgl 15 0 empty empty empty 17 7 0 10 #fcfcfc #000000
#000000 1 1;
#X obj 80 60 spigot;
#X obj 180 60 spigot;
#X obj 80 30 receive reset;
#X obj 250 80 loadbang;
#X obj 200 30 receive start;
#X obj 100 145 spigot;
#X obj 170 145 spigot;
#X connect 0 0 5 0;
#X connect 0 1 1 0;
#X connect 1 0 3 0;
#X connect 2 0 0 2;
#X connect 3 0 2 0;
#X connect 3 1 2 1;
#X connect 4 0 13 0;
#X connect 5 0 4 0;
#X connect 5 1 6 0;
#X connect 6 0 5 1;
#X connect 7 0 13 0;
#X connect 7 1 13 1;
#X connect 8 0 23 0;
#X connect 9 0 22 0;
#X connect 10 0 7 0;
#X connect 12 0 0 0;
#X connect 12 1 0 1;
#X connect 13 0 11 0;
#X connect 14 0 15 0;
#X connect 14 0 17 1;
#X connect 14 0 22 1;
#X connect 14 0 23 1;
#X connect 15 0 16 0;
#X connect 16 0 18 1;
#X connect 17 0 14 0;
#X connect 18 0 14 0;
#X connect 19 0 17 0;
#X connect 20 0 16 0;
#X connect 21 0 18 0;
#X connect 22 0 0 0;
#X connect 23 0 12 0;
#X restore 30 110 pd collide;
#X obj 50 140 tgl 24 0 empty empty hit? 28 7 1 10 #fcfcfc #000000 #000000
0 1;
#X floatatom 260 350 5 0 0 0 - - -, f 5;
#X msg 40 40 set 55;
#X obj 30 210 send score-space;
#X obj 40 10 loadbang;
#X obj 160 390 circle 0.2;
#X obj 160 360 color 1 0 0;
#X obj 30 240 send respawn2;
#X floatatom 320 160 5 0 0 0 - - -, f 5;
#X floatatom 350 220 5 0 0 0 - - -, f 5;
#X obj 320 250 spigot;
#X obj 320 275 bng 15 250 50 0 empty empty empty 17 7 0 10 #fcfcfc
#000000 #000000;
#X obj 320 310 send reset;
#X obj 320 190 == -2;
#X obj 380 260 delay 10;
#X obj 360 290 bng 15 250 50 0 empty empty empty 17 7 0 10 #fcfcfc
#000000 #000000;
#X obj 30 270 send destroyed;
#X obj 160 220 pix_image;
#X obj 190 140 loadbang;
#X obj 160 290 pix_texture;
#X msg 190 170 open Art/Asteriod.png;
#X floatatom 180 250 5 0 0 0 - - -, f 5;
#X msg 230 240 env \$1;
#X obj 230 220 hradio 15 1 0 6 empty empty empty 0 -6 0 8 #fcfcfc #000000
#000000 2;
#X msg 230 190 2;
#X connect 0 0 7 2;
#X connect 1 0 4 0;
#X connect 1 0 7 1;
#X connect 2 0 25 0;
#X connect 3 0 14 0;
#X connect 4 0 3 1;
#X connect 4 1 3 2;
#X connect 4 1 16 0;
#X connect 5 1 11 0;
#X connect 5 1 15 0;
#X connect 5 1 24 0;
#X connect 6 0 7 0;
#X connect 7 0 5 0;
#X connect 7 0 8 0;
#X connect 9 0 13 1;
#X connect 10 0 2 0;
#X connect 12 0 10 0;
#X connect 14 0 13 0;
#X connect 16 0 21 0;
#X connect 17 0 18 1;
#X connect 18 0 19 0;
#X connect 19 0 20 0;
#X connect 19 0 22 0;
#X connect 21 0 17 0;
#X connect 21 0 18 0;
#X connect 22 0 23 0;
#X connect 23 0 20 0;
#X connect 25 0 27 0;
#X connect 26 0 28 0;
#X connect 26 0 32 0;
#X connect 27 0 3 0;
#X connect 28 0 25 0;
#X connect 29 0 27 0;
#X connect 30 0 27 0;
#X connect 31 0 30 0;
#X connect 31 0 27 0;
#X connect 32 0 31 0;
#X restore 200 90 pd comet_collision2;
#N canvas 724 176 554 474 comet_collision1 0;
#X obj 300 60 inlet radius;
#X obj 200 60 inlet reference;
#X obj 160 110 gemhead;
#X obj 150 320 translateXYZ;
#X obj 230 100 unpack 0 0;
#X obj 30 170 select 0 1;
#X obj 120 60 inlet test;
#N canvas 208 229 535 461 collide 0;
#X obj 91 217 list-map2;
#X obj 171 218 -;
#X obj 171 265 *;
#X obj 171 241 t a a;
#X obj 84 340 sqrt;
#X obj 84 290 list-reduce;
#X obj 175 292 +;
#X obj 124 360 t b a;
#X obj 150 130 inlet reference;
#X obj 80 130 inlet test;
#X obj 294 247 inlet radius;
#X obj 94 410 outlet;
#X obj 120 180 t b a;
#X obj 94 380 <= 1;
#X obj 110 90 tgl 15 0 empty empty empty 17 7 0 10 #fcfcfc #000000
#000000 0 1;
#X obj 140 90 bng 15 250 50 0 empty empty empty 17 7 0 10 #fcfcfc #000000
#000000;
#X obj 170 90 tgl 15 0 empty empty empty 17 7 0 10 #fcfcfc #000000
#000000 1 1;
#X obj 60 60 spigot;
#X obj 160 60 spigot;
#X obj 60 30 receive reset;
#X obj 230 80 loadbang;
#X obj 180 30 receive start;
#X obj 80 160 spigot;
#X obj 150 155 spigot;
#X connect 0 0 5 0;
#X connect 0 1 1 0;
#X connect 1 0 3 0;
#X connect 2 0 0 2;
#X connect 3 0 2 0;
#X connect 3 1 2 1;
#X connect 4 0 13 0;
#X connect 5 0 4 0;
#X connect 5 1 6 0;
#X connect 6 0 5 1;
#X connect 7 0 13 0;
#X connect 7 1 13 1;
#X connect 8 0 23 0;
#X connect 9 0 22 0;
#X connect 10 0 7 0;
#X connect 12 0 0 0;
#X connect 12 1 0 1;
#X connect 13 0 11 0;
#X connect 14 0 15 0;
#X connect 14 0 17 1;
#X connect 14 0 22 1;
#X connect 14 0 23 1;
#X connect 15 0 16 0;
#X connect 16 0 18 1;
#X connect 17 0 14 0;
#X connect 18 0 14 0;
#X connect 19 0 17 0;
#X connect 20 0 16 0;
#X connect 21 0 18 0;
#X connect 22 0 0 0;
#X connect 23 0 12 0;
#X restore 30 110 pd collide;
#X obj 50 140 tgl 24 0 empty empty hit? 28 7 1 10 #fcfcfc #000000 #000000
0 1;
#X msg 40 40 set 55;
#X obj 30 210 send score-space;
#X obj 40 10 loadbang;
#X obj 30 240 send respawn1;
#X floatatom 320 170 5 0 0 0 - - -, f 5;
#X obj 320 200 == -1.8;
#X floatatom 350 230 5 0 0 0 - - -, f 5;
#X obj 320 260 spigot;
#X obj 320 285 bng 15 250 50 0 empty empty empty 17 7 0 10 #fcfcfc
#000000 #000000;
#X obj 320 350 send reset;
#X floatatom 549 193 5 0 0 0 - - -, f 5;
#X obj 549 223 == -1.8;
#X floatatom 579 253 5 0 0 0 - - -, f 5;
#X obj 549 283 spigot;
#X obj 549 308 bng 15 250 50 0 empty empty empty 17 7 0 10 #fcfcfc
#000000 #000000;
#X obj 549 343 send reset;
#X obj 360 290 delay 10;
#X obj 340 320 bng 15 250 50 0 empty empty empty 17 7 0 10 #fcfcfc
#000000 #000000;
#X obj 30 270 send destroyed;
#X obj 150 220 pix_image;
#X obj 180 140 loadbang;
#X obj 150 290 pix_texture;
#X obj 150 385 circle 0.4;
#X floatatom 170 250 5 0 0 0 - - -, f 5;
#X msg 220 240 env \$1;
#X obj 220 220 hradio 15 1 0 6 empty empty empty 0 -6 0 8 #fcfcfc #000000
#000000 2;
#X msg 220 190 2;
#X obj 150 360 colorRGB 1 0 0;
#X msg 180 170 open Art/Rock1.jpeg;
#X connect 0 0 7 2;
#X connect 1 0 4 0;
#X connect 1 0 7 1;
#X connect 2 0 28 0;
#X connect 3 0 36 0;
#X connect 4 0 3 1;
#X connect 4 1 3 2;
#X connect 4 1 13 0;
#X connect 5 1 10 0;
#X connect 5 1 12 0;
#X connect 5 1 27 0;
#X connect 6 0 7 0;
#X connect 7 0 5 0;
#X connect 7 0 8 0;
#X connect 9 0 2 0;
#X connect 11 0 9 0;
#X connect 13 0 14 0;
#X connect 14 0 15 0;
#X connect 14 0 16 0;
#X connect 15 0 16 1;
#X connect 16 0 17 0;
#X connect 17 0 18 0;
#X connect 17 0 25 0;
#X connect 19 0 20 0;
#X connect 20 0 21 0;
#X connect 20 0 22 0;
#X connect 21 0 22 1;
#X connect 22 0 23 0;
#X connect 23 0 24 0;
#X connect 25 0 26 0;
#X connect 26 0 18 0;
#X connect 28 0 30 0;
#X connect 29 0 37 0;
#X connect 29 0 35 0;
#X connect 30 0 3 0;
#X connect 32 0 30 0;
#X connect 33 0 30 0;
#X connect 34 0 33 0;
#X connect 34 0 30 0;
#X connect 35 0 34 0;
#X connect 36 0 31 0;
#X connect 37 0 28 0;
#X restore 40 90 pd comet_collision1;
#N canvas 752 148 718 578 comet_collision3 0;
#X obj 300 60 inlet radius;
#X obj 200 60 inlet reference;
#X obj 160 110 gemhead;
#X obj 160 340 translateXYZ;
#X obj 230 100 unpack 0 0;
#X obj 30 170 select 0 1;
#X obj 120 60 inlet test;
#N canvas 708 160 538 450 collide 0;
#X obj 103 248 list-map2;
#X obj 180 246 -;
#X obj 180 293 *;
#X obj 180 269 t a a;
#X obj 93 368 sqrt;
#X obj 100 320 list-reduce;
#X obj 184 320 +;
#X obj 133 378 t b a;
#X obj 129 144 inlet reference;
#X obj 100 120 inlet test;
#X obj 303 275 inlet radius;
#X obj 103 428 outlet;
#X obj 129 208 t b a;
#X obj 103 398 <= 1;
#X obj 100 90 tgl 15 0 empty empty empty 17 7 0 10 #fcfcfc #000000
#000000 0 1;
#X obj 130 90 bng 15 250 50 0 empty empty empty 17 7 0 10 #fcfcfc #000000
#000000;
#X obj 160 90 tgl 15 0 empty empty empty 17 7 0 10 #fcfcfc #000000
#000000 1 1;
#X obj 50 60 spigot;
#X obj 150 60 spigot;
#X obj 50 30 receive reset;
#X obj 220 80 loadbang;
#X obj 170 30 receive start;
#X obj 90 180 spigot;
#X obj 160 175 spigot;
#X connect 0 0 5 0;
#X connect 0 1 1 0;
#X connect 1 0 3 0;
#X connect 2 0 0 2;
#X connect 3 0 2 0;
#X connect 3 1 2 1;
#X connect 4 0 13 0;
#X connect 5 0 4 0;
#X connect 5 1 6 0;
#X connect 6 0 5 1;
#X connect 7 0 13 0;
#X connect 7 1 13 1;
#X connect 8 0 23 0;
#X connect 9 0 22 0;
#X connect 10 0 7 0;
#X connect 12 0 0 0;
#X connect 12 1 0 1;
#X connect 13 0 11 0;
#X connect 14 0 15 0;
#X connect 14 0 17 1;
#X connect 14 0 22 1;
#X connect 14 0 23 1;
#X connect 15 0 16 0;
#X connect 16 0 18 1;
#X connect 17 0 14 0;
#X connect 18 0 14 0;
#X connect 19 0 17 0;
#X connect 20 0 16 0;
#X connect 21 0 18 0;
#X connect 22 0 0 0;
#X connect 23 0 12 0;
#X restore 30 110 pd collide;
#X obj 50 140 tgl 24 0 empty empty hit? 28 7 1 10 #fcfcfc #000000 #000000
0 1;
#X floatatom 290 370 5 0 0 0 - - -, f 5;
#X msg 40 40 set 55;
#X obj 30 210 send score-space;
#X obj 40 10 loadbang;
#X obj 160 410 circle 0.6;
#X obj 30 240 send respawn3;
#X floatatom 320 140 5 0 0 0 - - -, f 5;
#X floatatom 350 200 5 0 0 0 - - -, f 5;
#X obj 320 230 spigot;
#X obj 320 255 bng 15 250 50 0 empty empty empty 17 7 0 10 #fcfcfc
#000000 #000000;
#X obj 320 290 send reset;
#X obj 320 170 == -1.6;
#X obj 400 240 delay 10;
#X obj 380 270 bng 15 250 50 0 empty empty empty 17 7 0 10 #fcfcfc
#000000 #000000;
#X obj 30 270 send destroyed;
#X obj 162 232 pix_image;
#X obj 192 152 loadbang;
#X obj 162 302 pix_texture;
#X floatatom 182 262 5 0 0 0 - - -, f 5;
#X msg 232 252 env \$1;
#X obj 232 232 hradio 15 1 0 6 empty empty empty 0 -6 0 8 #fcfcfc #000000
#000000 2;
#X msg 232 202 2;
#X msg 192 182 open Art/Rock2.png;
#X obj 160 370 color 1 0 0;
#X connect 0 0 7 2;
#X connect 1 0 4 0;
#X connect 1 0 7 1;
#X connect 2 0 24 0;
#X connect 3 0 32 0;
#X connect 4 0 3 1;
#X connect 4 1 3 2;
#X connect 4 1 15 0;
#X connect 5 1 11 0;
#X connect 5 1 14 0;
#X connect 5 1 23 0;
#X connect 6 0 7 0;
#X connect 7 0 5 0;
#X connect 7 0 8 0;
#X connect 9 0 13 1;
#X connect 10 0 2 0;
#X connect 12 0 10 0;
#X connect 15 0 20 0;
#X connect 16 0 17 1;
#X connect 17 0 18 0;
#X connect 18 0 19 0;
#X connect 18 0 21 0;
#X connect 20 0 16 0;
#X connect 20 0 17 0;
#X connect 21 0 22 0;
#X connect 22 0 19 0;
#X connect 24 0 26 0;
#X connect 25 0 31 0;
#X connect 25 0 30 0;
#X connect 26 0 3 0;
#X connect 27 0 26 0;
#X connect 28 0 26 0;
#X connect 29 0 28 0;
#X connect 29 0 26 0;
#X connect 30 0 29 0;
#X connect 31 0 24 0;
#X connect 32 0 13 0;
#X restore 350 90 pd comet_collision3;
#N canvas 744 136 714 578 comet_collision4 0;
#X obj 300 60 inlet radius;
#X obj 200 60 inlet reference;
#X obj 160 110 gemhead;
#X obj 160 350 translateXYZ;
#X obj 230 100 unpack 0 0;
#X obj 30 170 select 0 1;
#X obj 120 60 inlet test;
#N canvas 708 160 538 450 collide 0;
#X obj 110 245 list-map2;
#X obj 190 246 -;
#X obj 190 293 *;
#X obj 190 269 t a a;
#X obj 103 368 sqrt;
#X obj 110 320 list-reduce;
#X obj 194 320 +;
#X obj 143 378 t b a;
#X obj 139 154 inlet reference;
#X obj 110 130 inlet test;
#X obj 313 275 inlet radius;
#X obj 113 428 outlet;
#X obj 139 208 t b a;
#X obj 113 398 <= 1;
#X obj 100 180 spigot;
#X obj 170 175 spigot;
#X obj 100 100 tgl 15 0 empty empty empty 17 7 0 10 #fcfcfc #000000
#000000 0 1;
#X obj 130 100 bng 15 250 50 0 empty empty empty 17 7 0 10 #fcfcfc
#000000 #000000;
#X obj 160 100 tgl 15 0 empty empty empty 17 7 0 10 #fcfcfc #000000
#000000 1 1;
#X obj 50 70 spigot;
#X obj 150 70 spigot;
#X obj 50 40 receive reset;
#X obj 220 90 loadbang;
#X obj 170 40 receive start;
#X connect 0 0 5 0;
#X connect 0 1 1 0;
#X connect 1 0 3 0;
#X connect 2 0 0 2;
#X connect 3 0 2 0;
#X connect 3 1 2 1;
#X connect 4 0 13 0;
#X connect 5 0 4 0;
#X connect 5 1 6 0;
#X connect 6 0 5 1;
#X connect 7 0 13 0;
#X connect 7 1 13 1;
#X connect 8 0 15 0;
#X connect 9 0 14 0;
#X connect 10 0 7 0;
#X connect 12 0 0 0;
#X connect 12 1 0 1;
#X connect 13 0 11 0;
#X connect 14 0 0 0;
#X connect 15 0 12 0;
#X connect 16 0 17 0;
#X connect 16 0 19 1;
#X connect 16 0 14 1;
#X connect 16 0 15 1;
#X connect 17 0 18 0;
#X connect 18 0 20 1;
#X connect 19 0 16 0;
#X connect 20 0 16 0;
#X connect 21 0 19 0;
#X connect 22 0 18 0;
#X connect 23 0 20 0;
#X restore 30 110 pd collide;
#X obj 50 140 tgl 24 0 empty empty hit? 28 7 1 10 #fcfcfc #000000 #000000
0 1;
#X floatatom 290 390 5 0 0 0 - - -, f 5;
#X msg 40 40 set 55;
#X obj 30 210 send score-space;
#X obj 40 10 loadbang;
#X obj 160 420 circle 0.3;
#X obj 30 240 send respawn4;
#X floatatom 320 140 5 0 0 0 - - -, f 5;
#X floatatom 350 200 5 0 0 0 - - -, f 5;
#X obj 320 230 spigot;
#X obj 320 255 bng 15 250 50 0 empty empty empty 17 7 0 10 #fcfcfc
#000000 #000000;
#X obj 320 290 send reset;
#X obj 320 170 == -1.88;
#X obj 410 240 delay 10;
#X obj 390 270 bng 15 250 50 0 empty empty empty 17 7 0 10 #fcfcfc
#000000 #000000;
#X obj 30 270 send destroyed;
#X obj 153 221 pix_image;
#X obj 183 141 loadbang;
#X obj 153 291 pix_texture;
#X floatatom 173 251 5 0 0 0 - - -, f 5;
#X msg 223 241 env \$1;
#X obj 223 221 hradio 15 1 0 6 empty empty empty 0 -6 0 8 #fcfcfc #000000
#000000 2;
#X msg 223 191 2;
#X obj 160 390 color 1 0 0;
#X msg 183 171 open Art/Rock1.jpeg;
#X connect 0 0 7 2;
#X connect 1 0 4 0;
#X connect 1 0 7 1;
#X connect 2 0 24 0;
#X connect 3 0 31 0;
#X connect 4 0 3 1;
#X connect 4 1 3 2;
#X connect 4 1 15 0;
#X connect 5 1 11 0;
#X connect 5 1 14 0;
#X connect 5 1 23 0;
#X connect 6 0 7 0;
#X connect 7 0 5 0;
#X connect 7 0 8 0;
#X connect 9 0 13 1;
#X connect 10 0 2 0;
#X connect 12 0 10 0;
#X connect 15 0 20 0;
#X connect 16 0 17 1;
#X connect 17 0 18 0;
#X connect 18 0 19 0;
#X connect 18 0 21 0;
#X connect 20 0 16 0;
#X connect 20 0 17 0;
#X connect 21 0 22 0;
#X connect 22 0 19 0;
#X connect 24 0 26 0;
#X connect 25 0 32 0;
#X connect 25 0 30 0;
#X connect 26 0 3 0;
#X connect 27 0 26 0;
#X connect 28 0 26 0;
#X connect 29 0 28 0;
#X connect 29 0 26 0;
#X connect 30 0 29 0;
#X connect 31 0 13 0;
#X connect 32 0 24 0;
#X restore 500 90 pd comet_collision4;
#N canvas 944 376 529 422 Comet1 0;
#X obj 190 320 outlet;
#N canvas 832 176 361 272 mover 0;
#X obj 60 140 line;
#X obj 200 140 line;
#X msg 70 100 \$1 3000;
#X msg 200 100 \$1 3000;
#X obj 110 190 pack 0 0;
#X floatatom 40 180 5 0 0 0 - - -, f 5;
#X floatatom 210 180 5 0 0 0 - - -, f 5;
#X obj 50 60 unpack 0 0, f 13;
#X obj 180 60 unpack 0 0, f 11;
#X obj 50 20 inlet from;
#X obj 180 20 inlet to;
#X obj 110 215 outlet atm;
#X connect 0 0 4 0;
#X connect 0 0 5 0;
#X connect 1 0 4 1;
#X connect 1 0 6 0;
#X connect 2 0 0 0;
#X connect 3 0 1 0;
#X connect 4 0 11 0;
#X connect 7 0 0 0;
#X connect 7 1 1 0;
#X connect 8 0 2 0;
#X connect 8 1 3 0;
#X connect 9 0 7 0;
#X connect 10 0 8 0;
#X restore 190 270 pd mover;
#X obj 170 90 bng 15 250 50 0 empty empty empty 17 7 0 10 #fcfcfc #000000
#000000;
#X obj 260 30 receive respawn1;
#X obj 260 60 delay 2000;
#X obj 130 40 receive start;
#X floatatom 260 145 5 0 0 0 - - -, f 5;
#X obj 260 90 bng 15 250 50 0 empty empty empty 17 7 0 10 #fcfcfc #000000
#000000;
#X obj 260 170 - 3;
#X obj 260 120 random 6;
#X obj 330 120 random 1000;
#X obj 330 145 / 1000;
#X obj 260 200 +;
#X floatatom 170 145 5 0 0 0 - - -, f 5;
#X obj 90 120 random 1000;
#X obj 90 145 / 1000;
#X obj 170 200 +;
#X msg 170 230 \$1 6;
#X obj 40 20 receive reset;
#X obj 170 120 random 6;
#X obj 170 170 - 3;
#X msg 260 230 \$1 -1.8;
#X connect 1 0 0 0;
#X connect 2 0 14 0;
#X connect 2 0 19 0;
#X connect 3 0 4 0;
#X connect 3 0 2 0;
#X connect 4 0 7 0;
#X connect 5 0 2 0;
#X connect 5 0 7 0;
#X connect 6 0 8 0;
#X connect 7 0 9 0;
#X connect 7 0 10 0;
#X connect 8 0 12 0;
#X connect 9 0 6 0;
#X connect 10 0 11 0;
#X connect 11 0 12 1;
#X connect 12 0 21 0;
#X connect 13 0 20 0;
#X connect 14 0 15 0;
#X connect 15 0 16 1;
#X connect 16 0 17 0;
#X connect 17 0 1 0;
#X connect 18 0 2 0;
#X connect 19 0 13 0;
#X connect 20 0 16 0;
#X connect 21 0 1 1;
#X restore 60 60 pd Comet1;
#N canvas 968 116 498 566 Comet2 0;
#X obj 200 380 outlet;
#N canvas 963 124 359 270 mover 0;
#X obj 60 140 line;
#X obj 200 140 line;
#X obj 110 190 pack 0 0;
#X floatatom 40 180 5 0 0 0 - - -, f 5;
#X floatatom 210 180 5 0 0 0 - - -, f 5;
#X obj 50 60 unpack 0 0, f 13;
#X obj 180 60 unpack 0 0, f 11;
#X obj 50 20 inlet from;
#X obj 180 20 inlet to;
#X obj 110 215 outlet atm;
#X msg 70 100 \$1 4000;
#X msg 200 100 \$1 4000;
#X connect 0 0 2 0;
#X connect 0 0 3 0;
#X connect 1 0 2 1;
#X connect 1 0 4 0;
#X connect 2 0 9 0;
#X connect 5 0 0 0;
#X connect 5 1 1 0;
#X connect 6 0 10 0;
#X connect 6 1 11 0;
#X connect 7 0 5 0;
#X connect 8 0 6 0;
#X connect 10 0 0 0;
#X connect 11 0 1 0;
#X restore 200 330 pd mover;
#X obj 180 150 bng 15 250 50 0 empty empty empty 17 7 0 10 #fcfcfc
#000000 #000000;
#X obj 150 50 receive start;
#X floatatom 270 205 5 0 0 0 - - -, f 5;
#X obj 270 150 bng 15 250 50 0 empty empty empty 17 7 0 10 #fcfcfc
#000000 #000000;
#X obj 270 230 - 3;
#X obj 270 180 random 6;
#X obj 340 180 random 1000;
#X obj 340 205 / 1000;
#X obj 270 260 +;
#X floatatom 180 205 5 0 0 0 - - -, f 5;
#X obj 100 180 random 1000;
#X obj 100 205 / 1000;
#X obj 180 260 +;
#X obj 180 180 random 9;
#X obj 180 230 - 4;
#X msg 180 290 \$1 6;
#X obj 50 80 receive reset;
#X obj 150 75 delay 1000;
#X obj 270 120 delay 2500;
#X obj 270 90 receive respawn2;
#X msg 270 290 \$1 -2;
#X connect 1 0 0 0;
#X connect 2 0 12 0;
#X connect 2 0 15 0;
#X connect 3 0 19 0;
#X connect 4 0 6 0;
#X connect 5 0 7 0;
#X connect 5 0 8 0;
#X connect 6 0 10 0;
#X connect 7 0 4 0;
#X connect 8 0 9 0;
#X connect 9 0 10 1;
#X connect 10 0 22 0;
#X connect 11 0 16 0;
#X connect 12 0 13 0;
#X connect 13 0 14 1;
#X connect 14 0 17 0;
#X connect 15 0 11 0;
#X connect 16 0 14 0;
#X connect 17 0 1 0;
#X connect 18 0 2 0;
#X connect 19 0 2 0;
#X connect 19 0 5 0;
#X connect 20 0 5 0;
#X connect 21 0 2 0;
#X connect 21 0 20 0;
#X connect 22 0 1 1;
#X restore 220 60 pd Comet2;
#N canvas 812 172 490 530 Comet3 0;
#X obj 201 402 outlet;
#N canvas 688 376 358 270 mover 0;
#X obj 60 140 line;
#X obj 200 140 line;
#X obj 110 190 pack 0 0;
#X floatatom 40 180 5 0 0 0 - - -, f 5;
#X floatatom 210 180 5 0 0 0 - - -, f 5;
#X obj 50 60 unpack 0 0, f 13;
#X obj 180 60 unpack 0 0, f 11;
#X obj 50 20 inlet from;
#X obj 180 20 inlet to;
#X obj 110 215 outlet atm;
#X msg 200 100 \$1 4000;
#X msg 70 100 \$1 6000;
#X connect 0 0 2 0;
#X connect 0 0 3 0;
#X connect 1 0 2 1;
#X connect 1 0 4 0;
#X connect 2 0 9 0;
#X connect 5 0 0 0;
#X connect 5 1 1 0;
#X connect 6 0 11 0;
#X connect 6 1 10 0;
#X connect 7 0 5 0;
#X connect 8 0 6 0;
#X connect 10 0 1 0;
#X connect 11 0 0 0;
#X restore 201 352 pd mover;
#X obj 181 172 bng 15 250 50 0 empty empty empty 17 7 0 10 #fcfcfc
#000000 #000000;
#X obj 151 72 receive start;
#X floatatom 271 227 5 0 0 0 - - -, f 5;
#X obj 271 172 bng 15 250 50 0 empty empty empty 17 7 0 10 #fcfcfc
#000000 #000000;
#X obj 271 252 - 3;
#X obj 271 202 random 6;
#X obj 341 202 random 1000;
#X obj 341 227 / 1000;
#X obj 271 282 +;
#X floatatom 181 227 5 0 0 0 - - -, f 5;
#X obj 101 202 random 1000;
#X obj 101 227 / 1000;
#X obj 181 282 +;
#X obj 181 202 random 9;
#X obj 181 252 - 4;
#X msg 181 312 \$1 6;
#X obj 51 102 receive reset;
#X obj 271 112 receive respawn3;
#X obj 151 97 delay 2000;
#X obj 271 142 delay 500;
#X msg 271 312 \$1 -1.6;
#X connect 1 0 0 0;
#X connect 2 0 12 0;
#X connect 2 0 15 0;
#X connect 3 0 20 0;
#X connect 4 0 6 0;
#X connect 5 0 7 0;
#X connect 5 0 8 0;
#X connect 6 0 10 0;
#X connect 7 0 4 0;
#X connect 8 0 9 0;
#X connect 9 0 10 1;
#X connect 10 0 22 0;
#X connect 11 0 16 0;
#X connect 12 0 13 0;
#X connect 13 0 14 1;
#X connect 14 0 17 0;
#X connect 15 0 11 0;
#X connect 16 0 14 0;
#X connect 17 0 1 0;
#X connect 18 0 2 0;
#X connect 19 0 2 0;
#X connect 19 0 21 0;
#X connect 20 0 2 0;
#X connect 20 0 5 0;
#X connect 21 0 5 0;
#X connect 22 0 1 1;
#X restore 370 60 pd Comet3;
#N canvas 221 157 497 529 Comet4 0;
#X obj 203 392 outlet;
#N canvas 688 376 358 270 mover 0;
#X obj 60 140 line;
#X obj 200 140 line;
#X obj 110 190 pack 0 0;
#X floatatom 40 180 5 0 0 0 - - -, f 5;
#X floatatom 210 180 5 0 0 0 - - -, f 5;
#X obj 50 60 unpack 0 0, f 13;
#X obj 180 60 unpack 0 0, f 11;
#X obj 50 20 inlet from;
#X obj 180 20 inlet to;
#X obj 110 215 outlet atm;
#X msg 200 100 \$1 4000;
#X msg 70 100 \$1 6000;
#X connect 0 0 2 0;
#X connect 0 0 3 0;
#X connect 1 0 2 1;
#X connect 1 0 4 0;
#X connect 2 0 9 0;
#X connect 5 0 0 0;
#X connect 5 1 1 0;
#X connect 6 0 11 0;
#X connect 6 1 10 0;
#X connect 7 0 5 0;
#X connect 8 0 6 0;
#X connect 10 0 1 0;
#X connect 11 0 0 0;
#X restore 203 342 pd mover;
#X obj 183 162 bng 15 250 50 0 empty empty empty 17 7 0 10 #fcfcfc
#000000 #000000;
#X obj 153 62 receive start;
#X floatatom 273 217 5 0 0 0 - - -, f 5;
#X obj 273 162 bng 15 250 50 0 empty empty empty 17 7 0 10 #fcfcfc
#000000 #000000;
#X obj 273 242 - 3;
#X obj 273 192 random 6;
#X obj 343 192 random 1000;
#X obj 343 217 / 1000;
#X obj 273 272 +;
#X floatatom 183 217 5 0 0 0 - - -, f 5;
#X obj 103 192 random 1000;
#X obj 103 217 / 1000;
#X obj 183 272 +;
#X msg 183 302 \$1 6;
#X obj 53 92 receive reset;
#X obj 273 102 receive respawn4;
#X obj 183 192 random 11;
#X obj 183 242 - 5;
#X obj 273 132 delay 4000;
#X obj 153 87 delay 3000;
#X msg 270 300 \$1 -1.88;
#X connect 1 0 0 0;
#X connect 2 0 12 0;
#X connect 2 0 18 0;
#X connect 3 0 21 0;
#X connect 4 0 6 0;
#X connect 5 0 7 0;
#X connect 5 0 8 0;
#X connect 6 0 10 0;
#X connect 7 0 4 0;
#X connect 8 0 9 0;
#X connect 9 0 10 1;
#X connect 10 0 22 0;
#X connect 11 0 19 0;
#X connect 12 0 13 0;
#X connect 13 0 14 1;
#X connect 14 0 15 0;
#X connect 15 0 1 0;
#X connect 16 0 2 0;
#X connect 17 0 2 0;
#X connect 17 0 20 0;
#X connect 18 0 11 0;
#X connect 19 0 14 0;
#X connect 20 0 5 0;
#X connect 21 0 2 0;
#X connect 21 0 5 0;
#X connect 22 0 1 1;
#X restore 520 60 pd Comet4;
#X msg 290 40 0.2;
#X msg 440 40 0.6;
#X msg 590 40 0.3;
#N canvas 1017 60 509 470 comet_collision1 0;
#X obj 200 60 inlet reference;
#X obj 160 110 gemhead;
#X obj 180 350 translateXYZ;
#X obj 230 100 unpack 0 0;
#X obj 30 170 select 0 1;
#X obj 120 60 inlet test;
#N canvas 708 160 538 450 collide 0;
#X obj 111 237 list-map2;
#X obj 191 238 -;
#X obj 191 285 *;
#X obj 191 261 t a a;
#X obj 104 370 sqrt;
#X obj 111 312 list-reduce;
#X obj 195 312 +;
#X obj 144 380 t b a;
#X obj 160 140 inlet reference;
#X obj 110 110 inlet test;
#X obj 314 267 inlet radius;
#X obj 114 430 outlet;
#X obj 140 200 t b a;
#X obj 114 400 <= 1;
#X obj 110 80 tgl 15 0 empty empty empty 17 7 0 10 #fcfcfc #000000
#000000 0 1;
#X obj 140 80 bng 15 250 50 0 empty empty empty 17 7 0 10 #fcfcfc #000000
#000000;
#X obj 170 80 tgl 15 0 empty empty empty 17 7 0 10 #fcfcfc #000000
#000000 1 1;
#X obj 60 50 spigot;
#X obj 160 50 spigot;
#X obj 60 20 receive reset;
#X obj 230 70 loadbang;
#X obj 180 20 receive start;
#X obj 100 170 spigot;
#X obj 160 170 spigot;
#X connect 0 0 5 0;
#X connect 0 1 1 0;
#X connect 1 0 3 0;
#X connect 2 0 0 2;
#X connect 3 0 2 0;
#X connect 3 1 2 1;
#X connect 4 0 13 0;
#X connect 5 0 4 0;
#X connect 5 1 6 0;
#X connect 6 0 5 1;
#X connect 7 0 13 0;
#X connect 7 1 13 1;
#X connect 8 0 23 0;
#X connect 9 0 22 0;
#X connect 10 0 7 0;
#X connect 12 0 0 0;
#X connect 12 1 0 1;
#X connect 13 0 11 0;
#X connect 14 0 15 0;
#X connect 14 0 17 1;
#X connect 14 0 22 1;
#X connect 14 0 23 1;
#X connect 15 0 16 0;
#X connect 16 0 18 1;
#X connect 17 0 14 0;
#X connect 18 0 14 0;
#X connect 19 0 17 0;
#X connect 20 0 16 0;
#X connect 21 0 18 0;
#X connect 22 0 0 0;
#X connect 23 0 12 0;
#X restore 30 110 pd collide;
#X obj 50 140 tgl 24 0 empty empty hit? 28 7 1 10 #fcfcfc #000000 #000000
0 1;
#X floatatom 300 170 5 0 0 0 - - -, f 5;
#X msg 40 40 set 55;
#X obj 30 210 send score-space;
#X obj 40 10 loadbang;
#X obj 180 420 circle 0.4;
#X obj 30 240 send respawn5;
#X obj 270 10 receive start;
#X obj 380 10 receive respawn5;
#X obj 340 110 / 10;
#X floatatom 300 80 5 0 0 0 - - -, f 5;
#X obj 340 40 random 4;
#X obj 340 65 + 3;
#X floatatom 350 170 5 0 0 0 - - -, f 5;
#X floatatom 380 230 5 0 0 0 - - -, f 5;
#X obj 350 260 spigot;
#X obj 350 285 bng 15 250 50 0 empty empty empty 17 7 0 10 #fcfcfc
#000000 #000000;
#X obj 350 320 send reset;
#X obj 350 200 == -1.95;
#X obj 420 270 delay 10;
#X obj 400 300 bng 15 250 50 0 empty empty empty 17 7 0 10 #fcfcfc
#000000 #000000;
#X obj 30 270 send destroyed;
#X obj 166 245 pix_image;
#X obj 196 165 loadbang;
#X obj 166 315 pix_texture;
#X floatatom 186 275 5 0 0 0 - - -, f 5;
#X msg 236 265 env \$1;
#X obj 236 245 hradio 15 1 0 6 empty empty empty 0 -6 0 8 #fcfcfc #000000
#000000 2;
#X obj 180 390 color 1 0 0;
#X msg 190 200 open Art/Rock2.png;
#X msg 236 215 2;
#X connect 0 0 3 0;
#X connect 0 0 6 1;
#X connect 1 0 29 0;
#X connect 2 0 35 0;
#X connect 3 0 2 1;
#X connect 3 1 2 2;
#X connect 3 1 20 0;
#X connect 4 1 10 0;
#X connect 4 1 13 0;
#X connect 4 1 28 0;
#X connect 5 0 6 0;
#X connect 6 0 4 0;
#X connect 6 0 7 0;
#X connect 8 0 12 1;
#X connect 9 0 1 0;
#X connect 11 0 9 0;
#X connect 14 0 18 0;
#X connect 15 0 18 0;
#X connect 16 0 8 0;
#X connect 16 0 17 0;
#X connect 17 0 6 2;
#X connect 18 0 19 0;
#X connect 19 0 16 0;
#X connect 20 0 25 0;
#X connect 21 0 22 1;
#X connect 22 0 23 0;
#X connect 23 0 24 0;
#X connect 23 0 26 0;
#X connect 25 0 21 0;
#X connect 25 0 22 0;
#X connect 26 0 27 0;
#X connect 27 0 24 0;
#X connect 29 0 31 0;
#X connect 30 0 36 0;
#X connect 30 0 37 0;
#X connect 31 0 2 0;
#X connect 32 0 31 0;
#X connect 33 0 31 0;
#X connect 34 0 33 0;
#X connect 34 0 31 0;
#X connect 35 0 12 0;
#X connect 36 0 29 0;
#X connect 37 0 34 0;
#X restore 70 260 pd comet_collision1;
#N canvas 1026 240 511 478 Comet5 0;
#X obj 190 320 outlet;
#N canvas 688 376 358 270 mover 0;
#X obj 60 140 line;
#X obj 200 140 line;
#X obj 110 190 pack 0 0;
#X floatatom 40 180 5 0 0 0 - - -, f 5;
#X floatatom 210 180 5 0 0 0 - - -, f 5;
#X obj 50 60 unpack 0 0, f 13;
#X obj 180 60 unpack 0 0, f 11;
#X obj 50 20 inlet from;
#X obj 180 20 inlet to;
#X obj 110 215 outlet atm;
#X msg 70 100 \$1 2500;
#X msg 200 100 \$1 2500;
#X connect 0 0 2 0;
#X connect 0 0 3 0;
#X connect 1 0 2 1;
#X connect 1 0 4 0;
#X connect 2 0 9 0;
#X connect 5 0 0 0;
#X connect 5 1 1 0;
#X connect 6 0 10 0;
#X connect 6 1 11 0;
#X connect 7 0 5 0;
#X connect 8 0 6 0;
#X connect 10 0 0 0;
#X connect 11 0 1 0;
#X restore 190 270 pd mover;
#X obj 170 90 bng 15 250 50 0 empty empty empty 17 7 0 10 #fcfcfc #000000
#000000;
#X obj 260 60 delay 2000;
#X obj 140 20 receive start;
#X floatatom 260 145 5 0 0 0 - - -, f 5;
#X obj 260 90 bng 15 250 50 0 empty empty empty 17 7 0 10 #fcfcfc #000000
#000000;
#X obj 260 170 - 3;
#X obj 260 120 random 6;
#X obj 330 120 random 1000;
#X obj 330 145 / 1000;
#X obj 260 200 +;
#X floatatom 170 145 5 0 0 0 - - -, f 5;
#X obj 90 120 random 1000;
#X obj 90 145 / 1000;
#X obj 170 200 +;
#X msg 170 230 \$1 6;
#X obj 40 20 receive reset;
#X obj 260 30 receive respawn5;
#X obj 140 45 delay 1000;
#X obj 170 120 random 11;
#X obj 170 170 - 5;
#X msg 260 230 \$1 -1.95;
#X connect 1 0 0 0;
#X connect 2 0 13 0;
#X connect 2 0 20 0;
#X connect 3 0 6 0;
#X connect 4 0 19 0;
#X connect 5 0 7 0;
#X connect 6 0 8 0;
#X connect 6 0 9 0;
#X connect 7 0 11 0;
#X connect 8 0 5 0;
#X connect 9 0 10 0;
#X connect 10 0 11 1;
#X connect 11 0 22 0;
#X connect 12 0 21 0;
#X connect 13 0 14 0;
#X connect 14 0 15 1;
#X connect 15 0 16 0;
#X connect 16 0 1 0;
#X connect 17 0 2 0;
#X connect 18 0 3 0;
#X connect 18 0 2 0;
#X connect 19 0 2 0;
#X connect 19 0 6 0;
#X connect 20 0 12 0;
#X connect 21 0 15 0;
#X connect 22 0 1 1;
#X restore 110 230 pd Comet5;
#N canvas 1032 308 494 358 gemmouse 0;
#X obj 100 60 gemmouse 8 8;
#X obj 144 98 swap 8;
#X obj 144 124 -;
#X obj 144 146 - 4;
#X obj 100 167 pack 0 0;
#X obj 100 194 spigot;
#X obj 100 280 outlet;
#X obj 99 131 - 4;
#X obj 120 220 delay 10;
#X floatatom 210 80 5 0 0 0 - - -, f 5;
#X obj 290 70 tgl 15 0 empty empty empty 17 7 0 10 #fcfcfc #000000
#000000 0 1;
#X obj 320 70 bng 15 250 50 0 empty empty empty 17 7 0 10 #fcfcfc #000000
#000000;
#X obj 350 70 tgl 15 0 empty empty empty 17 7 0 10 #fcfcfc #000000
#000000 1 1;
#X obj 240 40 spigot;
#X obj 340 40 spigot;
#X obj 430 60 loadbang;
#X obj 210 110 bng 17 250 50 0 empty empty empty 17 7 0 10 #fcfcfc
#000000 #000000;
#X floatatom 210 200 5 0 0 0 - - -, f 5;
#X msg 210 150 1;
#X obj 240 140 bng 15 250 50 0 empty empty empty 17 7 0 10 #fcfcfc
#000000 #000000;
#X msg 240 170 0;
#X obj 240 110 delay 100;
#X obj 120 250 pack 10 10;
#X connect 0 0 7 0;
#X connect 0 1 1 0;
#X connect 0 2 9 0;
#X connect 1 0 2 0;
#X connect 1 1 2 1;
#X connect 2 0 3 0;
#X connect 3 0 4 1;
#X connect 4 0 5 0;
#X connect 5 0 6 0;
#X connect 5 0 8 0;
#X connect 7 0 4 0;
#X connect 8 0 22 0;
#X connect 9 0 16 0;
#X connect 10 0 11 0;
#X connect 11 0 12 0;
#X connect 12 0 14 1;
#X connect 12 0 13 1;
#X connect 13 0 10 0;
#X connect 14 0 10 0;
#X connect 15 0 12 0;
#X connect 16 0 18 0;
#X connect 16 0 21 0;
#X connect 17 0 5 1;
#X connect 18 0 17 0;
#X connect 19 0 20 0;
#X connect 20 0 17 0;
#X connect 21 0 19 0;
#X connect 22 0 6 0;
#X restore 500 20 pd gemmouse;
#N canvas 1032 308 494 358 gemmouse 0;
#X obj 100 60 gemmouse 8 8;
#X obj 144 98 swap 8;
#X obj 144 124 -;
#X obj 144 146 - 4;
#X obj 100 167 pack 0 0;
#X obj 100 194 spigot;
#X obj 100 280 outlet;
#X obj 99 131 - 4;
#X obj 120 220 delay 10;
#X floatatom 210 80 5 0 0 0 - - -, f 5;
#X obj 290 70 tgl 15 0 empty empty empty 17 7 0 10 #fcfcfc #000000
#000000 0 1;
#X obj 320 70 bng 15 250 50 0 empty empty empty 17 7 0 10 #fcfcfc #000000
#000000;
#X obj 350 70 tgl 15 0 empty empty empty 17 7 0 10 #fcfcfc #000000
#000000 1 1;
#X obj 240 40 spigot;
#X obj 340 40 spigot;
#X obj 430 60 loadbang;
#X obj 210 110 bng 17 250 50 0 empty empty empty 17 7 0 10 #fcfcfc
#000000 #000000;
#X floatatom 210 200 5 0 0 0 - - -, f 5;
#X msg 210 150 1;
#X obj 240 140 bng 15 250 50 0 empty empty empty 17 7 0 10 #fcfcfc
#000000 #000000;
#X msg 240 170 0;
#X obj 240 110 delay 100;
#X obj 120 250 pack 10 10;
#X connect 0 0 7 0;
#X connect 0 1 1 0;
#X connect 0 2 9 0;
#X connect 1 0 2 0;
#X connect 1 1 2 1;
#X connect 2 0 3 0;
#X connect 3 0 4 1;
#X connect 4 0 5 0;
#X connect 5 0 6 0;
#X connect 5 0 8 0;
#X connect 7 0 4 0;
#X connect 8 0 22 0;
#X connect 9 0 16 0;
#X connect 10 0 11 0;
#X connect 11 0 12 0;
#X connect 12 0 14 1;
#X connect 12 0 13 1;
#X connect 13 0 10 0;
#X connect 14 0 10 0;
#X connect 15 0 12 0;
#X connect 16 0 18 0;
#X connect 16 0 21 0;
#X connect 17 0 5 1;
#X connect 18 0 17 0;
#X connect 19 0 20 0;
#X connect 20 0 17 0;
#X connect 21 0 19 0;
#X connect 22 0 6 0;
#X restore 350 20 pd gemmouse;
#N canvas 1032 308 494 358 gemmouse 0;
#X obj 100 60 gemmouse 8 8;
#X obj 144 98 swap 8;
#X obj 144 124 -;
#X obj 144 146 - 4;
#X obj 100 167 pack 0 0;
#X obj 100 194 spigot;
#X obj 100 280 outlet;
#X obj 99 131 - 4;
#X obj 120 220 delay 10;
#X floatatom 210 80 5 0 0 0 - - -, f 5;
#X obj 290 70 tgl 15 0 empty empty empty 17 7 0 10 #fcfcfc #000000
#000000 0 1;
#X obj 320 70 bng 15 250 50 0 empty empty empty 17 7 0 10 #fcfcfc #000000
#000000;
#X obj 350 70 tgl 15 0 empty empty empty 17 7 0 10 #fcfcfc #000000
#000000 1 1;
#X obj 240 40 spigot;
#X obj 340 40 spigot;
#X obj 430 60 loadbang;
#X obj 210 110 bng 17 250 50 0 empty empty empty 17 7 0 10 #fcfcfc
#000000 #000000;
#X floatatom 210 200 5 0 0 0 - - -, f 5;
#X msg 210 150 1;
#X obj 240 140 bng 15 250 50 0 empty empty empty 17 7 0 10 #fcfcfc
#000000 #000000;
#X msg 240 170 0;
#X obj 240 110 delay 100;
#X obj 120 250 pack 10 10;
#X connect 0 0 7 0;
#X connect 0 1 1 0;
#X connect 0 2 9 0;
#X connect 1 0 2 0;
#X connect 1 1 2 1;
#X connect 2 0 3 0;
#X connect 3 0 4 1;
#X connect 4 0 5 0;
#X connect 5 0 6 0;
#X connect 5 0 8 0;
#X connect 7 0 4 0;
#X connect 8 0 22 0;
#X connect 9 0 16 0;
#X connect 10 0 11 0;
#X connect 11 0 12 0;
#X connect 12 0 14 1;
#X connect 12 0 13 1;
#X connect 13 0 10 0;
#X connect 14 0 10 0;
#X connect 15 0 12 0;
#X connect 16 0 18 0;
#X connect 16 0 21 0;
#X connect 17 0 5 1;
#X connect 18 0 17 0;
#X connect 19 0 20 0;
#X connect 20 0 17 0;
#X connect 21 0 19 0;
#X connect 22 0 6 0;
#X restore 70 190 pd gemmouse;
#X connect 0 0 12 0;
#X connect 1 0 12 2;
#X connect 2 0 3 0;
#X connect 3 0 1 0;
#X connect 4 0 11 0;
#X connect 5 0 11 2;
#X connect 6 0 19 0;
#X connect 7 0 13 2;
#X connect 8 0 20 0;
#X connect 9 0 14 2;
#X connect 10 0 21 0;
#X connect 15 0 12 1;
#X connect 16 0 11 1;
#X connect 17 0 13 1;
#X connect 18 0 14 1;
#X connect 19 0 5 0;
#X connect 20 0 7 0;
#X connect 21 0 9 0;
#X connect 23 0 22 1;
#X connect 24 0 14 0;
#X connect 25 0 13 0;
#X connect 26 0 22 0;
#X restore 10 160 pd Spawner;
#N canvas 640 200 886 506 Game_overScreen 0;
#X msg 20 170 set 57;
#X obj 20 195 gemhead;
#X obj 20 225 colorRGB 1 0 0;
#X obj 20 250 text2d GAME OVER;
#X floatatom 120 225 5 0 0 0 - - -, f 5;
#X obj 340 80 tgl 15 0 empty empty empty 17 7 0 10 #fcfcfc #000000
#000000 1 1;
#X obj 390 70 bng 15 250 50 0 empty empty empty 17 7 0 10 #fcfcfc #000000
#000000;
#X obj 420 70 tgl 15 0 empty empty empty 17 7 0 10 #fcfcfc #000000
#000000 0 1;
#X obj 310 40 spigot;
#X obj 410 40 spigot;
#X obj 500 60 loadbang;
#X obj 430 10 receive reset;
#X obj 310 10 receive start;
#X msg 120 200 69;
#X obj 120 180 loadbang;
#X obj 460 90 receive reset;
#X obj 200 160 gemhead;
#X obj 320 370 f;
#X obj 240 250 hsl 87 15 -6 6 0 0 empty empty empty -2 -8 0 10 #fcfcfc
#000000 #000000 5000 1;
#X obj 240 270 hsl 88 15 -6 6 0 0 empty empty empty -2 -8 0 10 #fcfcfc
#000000 #000000 3900 1;
#X msg 220 200 set \$1;
#X msg 290 200 set \$1;
#X msg 220 220 0.976744;
#X msg 290 220 -0.62069;
#X obj 200 300 translateXYZ 0 0 0;
#X floatatom 240 410 5 0 0 0 - - -, f 5;
#X obj 270 170 loadbang;
#X msg 270 140 set 65;
#X msg 430 180 set 57;
#X obj 430 205 gemhead;
#X obj 430 420 colorRGB 1 0 0;
#X floatatom 530 420 5 0 0 0 - - -, f 5;
#X obj 530 370 loadbang;
#X obj 240 370 loadbang;
#X msg 240 390 20;
#X msg 530 390 20;
#X obj 480 290 hsl 87 15 -6 6 0 0 empty empty empty -2 -8 0 10 #fcfcfc
#000000 #000000 3700 1;
#X obj 480 310 hsl 88 15 -6 6 0 0 empty empty empty -2 -8 0 10 #fcfcfc
#000000 #000000 3900 1;
#X msg 460 240 set \$1;
#X msg 530 240 set \$1;
#X msg 460 260 -0.837209;
#X msg 530 260 -0.62069;
#X obj 440 340 translateXYZ 0 0 0;
#X obj 320 330 receive score-no;
#X obj 420 455 text2d You protected the city from;
#X obj 200 340 colorRGB 1 1 1;
#X msg 650 180 set 57;
#X obj 650 205 gemhead;
#X obj 650 420 colorRGB 1 0 0;
#X floatatom 750 420 5 0 0 0 - - -, f 5;
#X obj 750 370 loadbang;
#X msg 750 390 20;
#X obj 700 290 hsl 87 15 -6 6 0 0 empty empty empty -2 -8 0 10 #fcfcfc
#000000 #000000 5600 1;
#X obj 700 310 hsl 88 15 -6 6 0 0 empty empty empty -2 -8 0 10 #fcfcfc
#000000 #000000 3900 1;
#X msg 680 240 set \$1;
#X msg 750 240 set \$1;
#X msg 680 260 1.81395;
#X msg 750 260 -0.62069;
#X obj 660 340 translateXYZ 0 0 0;
#X obj 640 460 text2d asteroids;
#X obj 200 440 text2d 100;
#X connect 0 0 1 0;
#X connect 1 0 2 0;
#X connect 2 0 3 0;
#X connect 4 0 3 1;
#X connect 5 0 6 0;
#X connect 5 0 8 1;
#X connect 5 0 1 0;
#X connect 5 0 16 0;
#X connect 5 0 29 0;
#X connect 5 0 47 0;
#X connect 5 0 46 0;
#X connect 6 0 7 0;
#X connect 7 0 9 1;
#X connect 8 0 5 0;
#X connect 8 0 0 0;
#X connect 8 0 27 0;
#X connect 8 0 28 0;
#X connect 8 0 46 0;
#X connect 9 0 5 0;
#X connect 10 0 7 0;
#X connect 11 0 9 0;
#X connect 12 0 8 0;
#X connect 13 0 4 0;
#X connect 14 0 13 0;
#X connect 15 0 0 0;
#X connect 15 0 27 0;
#X connect 15 0 28 0;
#X connect 15 0 46 0;
#X connect 16 0 24 0;
#X connect 17 0 60 0;
#X connect 18 0 20 0;
#X connect 18 0 24 1;
#X connect 19 0 21 0;
#X connect 19 0 24 2;
#X connect 20 0 22 0;
#X connect 21 0 23 0;
#X connect 22 0 18 0;
#X connect 23 0 19 0;
#X connect 24 0 45 0;
#X connect 25 0 60 1;
#X connect 26 0 22 0;
#X connect 26 0 23 0;
#X connect 26 0 27 0;
#X connect 26 0 56 0;
#X connect 26 0 57 0;
#X connect 26 0 40 0;
#X connect 26 0 41 0;
#X connect 27 0 16 0;
#X connect 28 0 29 0;
#X connect 29 0 42 0;
#X connect 30 0 44 0;
#X connect 31 0 44 1;
#X connect 32 0 35 0;
#X connect 33 0 34 0;
#X connect 34 0 25 0;
#X connect 35 0 31 0;
#X connect 36 0 38 0;
#X connect 36 0 42 1;
#X connect 37 0 39 0;
#X connect 37 0 42 2;
#X connect 38 0 40 0;
#X connect 39 0 41 0;
#X connect 40 0 36 0;
#X connect 41 0 37 0;
#X connect 42 0 30 0;
#X connect 43 0 17 0;
#X connect 45 0 60 0;
#X connect 46 0 47 0;
#X connect 47 0 58 0;
#X connect 48 0 59 0;
#X connect 49 0 59 1;
#X connect 50 0 51 0;
#X connect 51 0 49 0;
#X connect 52 0 54 0;
#X connect 52 0 58 1;
#X connect 53 0 55 0;
#X connect 53 0 58 2;
#X connect 54 0 56 0;
#X connect 55 0 57 0;
#X connect 56 0 52 0;
#X connect 57 0 53 0;
#X connect 58 0 48 0;
#X restore 10 220 pd Game_overScreen;
#N canvas 1070 61 467 384 Game_startScreen 0;
#X obj 50 140 send reset;
#X obj 50 80 bng 15 250 50 0 empty empty empty 17 7 0 10 #fcfcfc #000000
#000000;
#X obj 120 100 bng 15 250 50 0 empty empty empty 17 7 0 10 #fcfcfc
#000000 #000000;
#X obj 120 140 send start;
#X obj 60 100 delay 10;
#X obj 60 125 bng 12 250 50 0 empty empty empty 17 7 0 10 #fcfcfc #000000
#000000;
#X obj 50 60 loadbang;
#X obj 230 110 receive score-no;
#X floatatom 230 135 5 0 0 0 - - -, f 5;
#X connect 1 0 0 0;
#X connect 1 0 4 0;
#X connect 2 0 3 0;
#X connect 4 0 5 0;
#X connect 5 0 0 0;
#X connect 6 0 1 0;
#X connect 7 0 8 0;
#X restore 10 200 pd Game_startScreen;
#N canvas 254 160 608 705 comets_shape 0;
#X obj 40 220 pix_image;
#X obj 70 140 loadbang;
#X obj 40 290 pix_texture;
#X msg 70 170 open Art/Asteriod.png;
#X msg 110 240 env \$1;
#X obj 110 220 hradio 15 1 0 6 empty empty empty 0 -6 0 8 #fcfcfc #000000
#000000 2;
#X obj 40 320 colorRGB 1 0 0;
#X obj 40 350 translateXYZ -2 1 0;
#X obj 220 220 pix_image;
#X obj 250 140 loadbang;
#X obj 220 290 pix_texture;
#X msg 290 240 env \$1;
#X obj 290 220 hradio 15 1 0 6 empty empty empty 0 -6 0 8 #fcfcfc #000000
#000000 2;
#X obj 220 315 colorRGB 1 0 0;
#X msg 110 200 2;
#X msg 250 170 open Art/Rock1.jpeg;
#X obj 220 350 translateXYZ -1 1 0;
#X obj 40 110 gemhead;
#X obj 240 100 gemhead;
#X msg 130 50 set 69;
#X obj 390 220 pix_image;
#X obj 420 140 loadbang;
#X obj 390 290 pix_texture;
#X msg 460 240 env \$1;
#X obj 460 220 hradio 15 1 0 6 empty empty empty 0 -6 0 8 #fcfcfc #000000
#000000 2;
#X obj 390 315 colorRGB 1 0 0;
#X obj 410 100 gemhead;
#X obj 390 350 translateXYZ 0 1 0;
#X msg 420 170 open Art/Rock2.png;
#X obj 390 380 circle 0.6;
#X obj 220 380 circle 0.4;
#X obj 40 380 circle 0.2;
#X msg 290 190 2;
#X msg 460 190 2;
#X connect 0 0 2 0;
#X connect 1 0 3 0;
#X connect 1 0 14 0;
#X connect 2 0 6 0;
#X connect 3 0 0 0;
#X connect 4 0 2 0;
#X connect 5 0 4 0;
#X connect 5 0 2 0;
#X connect 6 0 7 0;
#X connect 7 0 31 0;
#X connect 8 0 10 0;
#X connect 9 0 15 0;
#X connect 9 0 32 0;
#X connect 10 0 13 0;
#X connect 11 0 10 0;
#X connect 12 0 11 0;
#X connect 12 0 10 0;
#X connect 13 0 16 0;
#X connect 14 0 5 0;
#X connect 15 0 8 0;
#X connect 16 0 30 0;
#X connect 17 0 0 0;
#X connect 18 0 8 0;
#X connect 19 0 17 0;
#X connect 19 0 18 0;
#X connect 19 0 26 0;
#X connect 20 0 22 0;
#X connect 21 0 28 0;
#X connect 21 0 33 0;
#X connect 22 0 25 0;
#X connect 23 0 22 0;
#X connect 24 0 23 0;
#X connect 24 0 22 0;
#X connect 25 0 27 0;
#X connect 26 0 20 0;
#X connect 27 0 29 0;
#X connect 28 0 20 0;
#X connect 32 0 12 0;
#X connect 33 0 24 0;
#X restore 160 90 pd comets_shape;
#X obj 190 20 bng 15 250 50 0 empty empty empty 17 7 0 10 #fcfcfc #000000
#000000;
#X obj 190 60 send start;
#N canvas 852 16 590 372 Music_Controller 0;
#X obj 60 180 readsf~;
#X obj 60 215 *~ 0.5;
#X obj 60 250 dac~;
#X msg 60 150 open Sound/Ambience.wav \, 1;
#X obj 150 75 bng 15 250 50 0 empty empty empty 17 7 0 10 #fcfcfc #000000
#000000;
#X msg 280 110 stop;
#X obj 150 30 receive reset;
#X obj 240 30 receive start;
#X msg 180 110 stop;
#X obj 240 80 bng 15 250 50 0 empty empty empty 17 7 0 10 #fcfcfc #000000
#000000;
#X obj 240 180 readsf~;
#X obj 240 215 *~ 0.5;
#X obj 240 250 dac~;
#X msg 240 150 open Sound/GameLoop.wav \, 1;
#X obj 410 180 readsf~;
#X obj 410 215 *~ 0.5;
#X obj 410 250 dac~;
#X msg 410 150 open Sound/Destroy.wav \, 1;
#X obj 410 120 receive destroyed;
#X obj 360 40 closebang;
#X connect 0 0 1 0;
#X connect 1 0 2 0;
#X connect 1 0 2 1;
#X connect 3 0 0 0;
#X connect 4 0 3 0;
#X connect 5 0 0 0;
#X connect 6 0 4 0;
#X connect 6 0 8 0;
#X connect 7 0 5 0;
#X connect 7 0 9 0;
#X connect 8 0 10 0;
#X connect 9 0 13 0;
#X connect 10 0 11 0;
#X connect 11 0 12 0;
#X connect 11 0 12 1;
#X connect 13 0 10 0;
#X connect 14 0 15 0;
#X connect 15 0 16 0;
#X connect 15 0 16 1;
#X connect 17 0 14 0;
#X connect 18 0 17 0;
#X connect 19 0 8 0;
#X connect 19 0 5 0;
#X restore 10 260 pd Music_Controller;
#X obj 260 60 send reset;
#X obj 260 10 bng 15 250 50 0 empty empty empty 17 7 0 10 #fcfcfc #000000
#000000;
#X connect 1 0 0 0;
#X connect 4 0 0 0;
#X connect 9 0 10 0;
#X connect 13 0 12 0;
