#N canvas 964 384 414 318 10;
#X obj 10 80 gemwin;
#X msg 30 50 destroy;
#N canvas 484 188 1038 458 background 0;
#X obj 20 20 gemhead;
#X obj 20 130 pix_image;
#X obj 50 50 loadbang;
#X obj 20 170 pix_texture;
#X msg 30 80 open Art/SpaceBackground.png;
#X obj 210 80 gemhead;
#X obj 210 190 pix_image;
#X obj 240 110 loadbang;
#X obj 210 230 pix_texture;
#X msg 240 140 open Art/CityBackground.png;
#X obj 210 340 rotateXYZ 0 0 180;
#X msg 210 40 set 52;
#X obj 210 380 rectangle 1 1;
#X obj 420 80 gemhead;
#X obj 420 190 pix_image;
#X obj 450 110 loadbang;
#X obj 420 230 pix_texture;
#X msg 450 140 open Art/CityBackground.png;
#X obj 420 340 rotateXYZ 0 0 180;
#X msg 420 40 set 52;
#X obj 420 380 rectangle 1 1;
#X obj 630 80 gemhead;
#X obj 630 190 pix_image;
#X obj 660 110 loadbang;
#X obj 630 230 pix_texture;
#X msg 660 140 open Art/CityBackground.png;
#X obj 630 340 rotateXYZ 0 0 180;
#X msg 630 40 set 52;
#X obj 630 380 rectangle 1 1;
#X obj 18 208 rectangle 4 4;
#X obj 830 80 gemhead;
#X obj 830 190 pix_image;
#X obj 860 110 loadbang;
#X obj 830 230 pix_texture;
#X msg 860 140 open Art/CityBackground.png;
#X obj 830 340 rotateXYZ 0 0 180;
#X msg 830 40 set 52;
#X obj 830 380 rectangle 1 1;
#X obj 210 290 translateXYZ -3 -3.2 0;
#X obj 420 290 translateXYZ -1 -3.2 0;
#X obj 630 290 translateXYZ 1 -3.2 0;
#X obj 830 290 translateXYZ 3 -3.2 0;
#X obj 360 0 loadbang;
#X connect 0 0 1 0;
#X connect 1 0 3 0;
#X connect 2 0 4 0;
#X connect 3 0 29 0;
#X connect 4 0 1 0;
#X connect 5 0 6 0;
#X connect 6 0 8 0;
#X connect 7 0 9 0;
#X connect 8 0 38 0;
#X connect 9 0 6 0;
#X connect 10 0 12 0;
#X connect 11 0 5 0;
#X connect 13 0 14 0;
#X connect 14 0 16 0;
#X connect 15 0 17 0;
#X connect 16 0 39 0;
#X connect 17 0 14 0;
#X connect 18 0 20 0;
#X connect 19 0 13 0;
#X connect 21 0 22 0;
#X connect 22 0 24 0;
#X connect 23 0 25 0;
#X connect 24 0 40 0;
#X connect 25 0 22 0;
#X connect 26 0 28 0;
#X connect 27 0 21 0;
#X connect 30 0 31 0;
#X connect 31 0 33 0;
#X connect 32 0 34 0;
#X connect 33 0 41 0;
#X connect 34 0 31 0;
#X connect 35 0 37 0;
#X connect 36 0 30 0;
#X connect 38 0 10 0;
#X connect 39 0 18 0;
#X connect 40 0 26 0;
#X connect 41 0 35 0;
#X connect 42 0 11 0;
#X connect 42 0 19 0;
#X connect 42 0 27 0;
#X connect 42 0 36 0;
#X restore 10 130 pd background;
#N canvas 350 258 470 407 score 0;
#X obj 160 40 gemhead;
#X obj 260 240 f;
#X obj 320 90 bng 15 250 50 0 empty empty empty 17 7 0 10 #fcfcfc #000000
#000000;
#X floatatom 310 150 5 0 0 0 - - -, f 5;
#X msg 280 210 float \$1;
#X msg 160 10 set 69;
#X obj 160 220 colorRGB 1 1 1;
#X obj 200 130 hsl 87 15 -6 6 0 0 empty empty empty -2 -8 0 10 #fcfcfc
#000000 #000000 6350 1;
#X obj 200 150 hsl 88 15 -6 6 0 0 empty empty empty -2 -8 0 10 #fcfcfc
#000000 #000000 7150 1;
#X msg 180 80 set \$1;
#X msg 250 80 set \$1;
#X msg 180 100 2.86047;
#X msg 250 100 3.86207;
#X obj 160 180 translateXYZ 0 0 0;
#X floatatom 220 260 5 0 0 0 - - -, f 5;
#X obj 230 40 loadbang;
#X obj 160 280 text2d 0;
#X obj 70 130 hsl 87 15 -6 6 0 0 empty empty empty -2 -8 0 10 #fcfcfc
#000000 #000000 5750 1;
#X obj 70 150 hsl 88 15 -6 6 0 0 empty empty empty -2 -8 0 10 #fcfcfc
#000000 #000000 7150 1;
#X msg 50 80 set \$1;
#X msg 120 80 set \$1;
#X msg 50 100 2.02326;
#X msg 120 100 3.86207;
#X obj 30 180 translateXYZ 0 0 0;
#X floatatom 90 260 5 0 0 0 - - -, f 5;
#X obj 100 40 loadbang;
#X obj 30 40 gemhead;
#X msg 30 10 set 69;
#X obj 30 220 colorRGB 1 1 1;
#X obj 370 150 + 1;
#X msg 320 120 1;
#X obj 30 280 text2d Destroyed:;
#X obj 320 50 receive score-space;
#X obj 370 90 receive reset;
#X msg 370 120 0;
#X connect 0 0 13 0;
#X connect 1 0 16 0;
#X connect 2 0 30 0;
#X connect 3 0 29 1;
#X connect 3 0 4 0;
#X connect 4 0 1 0;
#X connect 5 0 0 0;
#X connect 6 0 16 0;
#X connect 7 0 9 0;
#X connect 7 0 13 1;
#X connect 8 0 10 0;
#X connect 8 0 13 2;
#X connect 9 0 11 0;
#X connect 10 0 12 0;
#X connect 11 0 7 0;
#X connect 12 0 8 0;
#X connect 13 0 6 0;
#X connect 14 0 16 1;
#X connect 15 0 11 0;
#X connect 15 0 12 0;
#X connect 15 0 5 0;
#X connect 17 0 19 0;
#X connect 17 0 23 1;
#X connect 18 0 20 0;
#X connect 18 0 23 2;
#X connect 19 0 21 0;
#X connect 20 0 22 0;
#X connect 21 0 17 0;
#X connect 22 0 18 0;
#X connect 23 0 28 0;
#X connect 24 0 31 1;
#X connect 25 0 21 0;
#X connect 25 0 22 0;
#X connect 25 0 27 0;
#X connect 26 0 23 0;
#X connect 27 0 26 0;
#X connect 28 0 31 0;
#X connect 29 0 3 0;
#X connect 30 0 29 0;
#X connect 32 0 2 0;
#X connect 33 0 34 0;
#X connect 34 0 3 0;
#X restore 10 110 pd score;
#X msg 10 20 dimen 750 750 \, create \, 1;
#N canvas 792 16 734 334 Spawner 0;
#N canvas 1032 308 494 358 gemmouse 0;
#X obj 100 60 gemmouse 8 8;
#X obj 144 98 swap 8;
#X obj 144 124 -;
#X obj 144 146 - 4;
#X obj 100 167 pack 0 0;
#X obj 100 194 spigot;
#X obj 100 270 outlet;
#X obj 99 131 - 4;
#X obj 120 220 delay 10;
#X msg 120 250 10 10;
#X floatatom 210 80 5 0 0 0 - - -, f 5;
#X obj 290 70 tgl 15 0 empty empty empty 17 7 0 10 #fcfcfc #000000
#000000 0 1;
#X obj 320 70 bng 15 250 50 0 empty empty empty 17 7 0 10 #fcfcfc #000000
#000000;
#X obj 350 70 tgl 15 0 empty empty empty 17 7 0 10 #fcfcfc #000000
#000000 1 1;
#X obj 240 40 spigot;
#X obj 340 40 spigot;
#X obj 430 60 loadbang;
#X obj 210 110 bng 17 250 50 0 empty empty empty 17 7 0 10 #fcfcfc
#000000 #000000;
#X floatatom 210 200 5 0 0 0 - - -, f 5;
#X msg 210 150 1;
#X obj 240 140 bng 15 250 50 0 empty empty empty 17 7 0 10 #fcfcfc
#000000 #000000;
#X msg 240 170 0;
#X obj 240 110 delay 100;
#X connect 0 0 7 0;
#X connect 0 1 1 0;
#X connect 0 2 10 0;
#X connect 1 0 2 0;
#X connect 1 1 2 1;
#X connect 2 0 3 0;
#X connect 3 0 4 1;
#X connect 4 0 5 0;
#X connect 5 0 6 0;
#X connect 5 0 8 0;
#X connect 7 0 4 0;
#X connect 8 0 9 0;
#X connect 9 0 6 0;
#X connect 10 0 17 0;
#X connect 11 0 12 0;
#X connect 12 0 13 0;
#X connect 13 0 15 1;
#X connect 13 0 14 1;
#X connect 14 0 11 0;
#X connect 15 0 11 0;
#X connect 16 0 13 0;
#X connect 17 0 19 0;
#X connect 17 0 22 0;
#X connect 18 0 5 1;
#X connect 19 0 18 0;
#X connect 20 0 21 0;
#X connect 21 0 18 0;
#X connect 22 0 20 0;
#X restore 40 10 pd gemmouse;
#X floatatom 130 60 5 0 0 1 - - -, f 5;
#X obj 130 20 loadbang;
#X msg 130 40 0.4;
#N canvas 513 364 473 357 gemmouse 0;
#X obj 70 20 gemmouse 8 8;
#X obj 114 58 swap 8;
#X obj 114 84 -;
#X obj 114 106 - 4;
#X obj 70 127 pack 0 0;
#X obj 70 154 spigot;
#X obj 70 230 outlet;
#X obj 69 91 - 4;
#X obj 90 180 delay 10;
#X msg 90 210 10 10;
#X floatatom 170 50 5 0 0 0 - - -, f 5;
#X obj 170 80 bng 17 250 50 0 empty empty empty 17 7 0 10 #fcfcfc #000000
#000000;
#X floatatom 170 170 5 0 0 0 - - -, f 5;
#X msg 170 120 1;
#X obj 200 110 bng 15 250 50 0 empty empty empty 17 7 0 10 #fcfcfc
#000000 #000000;
#X msg 200 140 0;
#X obj 200 80 delay 100;
#X connect 0 0 7 0;
#X connect 0 1 1 0;
#X connect 0 2 10 0;
#X connect 1 0 2 0;
#X connect 1 1 2 1;
#X connect 2 0 3 0;
#X connect 3 0 4 1;
#X connect 4 0 5 0;
#X connect 5 0 6 0;
#X connect 5 0 8 0;
#X connect 7 0 4 0;
#X connect 8 0 9 0;
#X connect 9 0 6 0;
#X connect 10 0 11 0;
#X connect 11 0 13 0;
#X connect 11 0 16 0;
#X connect 12 0 5 1;
#X connect 13 0 12 0;
#X connect 14 0 15 0;
#X connect 15 0 12 0;
#X connect 16 0 14 0;
#X restore 200 10 pd gemmouse;
#X floatatom 290 60 5 0 0 1 - - -, f 5;
#X obj 290 20 loadbang;
#N canvas 765 188 475 354 gemmouse 0;
#X obj 73 36 gemmouse 8 8;
#X obj 117 74 swap 8;
#X obj 117 100 -;
#X obj 117 122 - 4;
#X obj 73 143 pack 0 0;
#X obj 73 170 spigot;
#X obj 73 246 outlet;
#X obj 72 107 - 4;
#X obj 93 196 delay 10;
#X msg 93 226 10 10;
#X floatatom 180 70 5 0 0 0 - - -, f 5;
#X obj 180 100 bng 17 250 50 0 empty empty empty 17 7 0 10 #fcfcfc
#000000 #000000;
#X floatatom 180 190 5 0 0 0 - - -, f 5;
#X msg 180 140 1;
#X obj 210 130 bng 15 250 50 0 empty empty empty 17 7 0 10 #fcfcfc
#000000 #000000;
#X msg 210 160 0;
#X obj 210 100 delay 100;
#X connect 0 0 7 0;
#X connect 0 1 1 0;
#X connect 0 2 10 0;
#X connect 1 0 2 0;
#X connect 1 1 2 1;
#X connect 2 0 3 0;
#X connect 3 0 4 1;
#X connect 4 0 5 0;
#X connect 5 0 6 0;
#X connect 5 0 8 0;
#X connect 7 0 4 0;
#X connect 8 0 9 0;
#X connect 9 0 6 0;
#X connect 10 0 11 0;
#X connect 11 0 13 0;
#X connect 11 0 16 0;
#X connect 12 0 5 1;
#X connect 13 0 12 0;
#X connect 14 0 15 0;
#X connect 15 0 12 0;
#X connect 16 0 14 0;
#X restore 350 10 pd gemmouse;
#X floatatom 440 60 5 0 0 1 - - -, f 5;
#X obj 440 20 loadbang;
#N canvas 288 268 488 352 gemmouse 0;
#X obj 60 10 gemmouse 8 8;
#X obj 104 48 swap 8;
#X obj 104 74 -;
#X obj 104 96 - 4;
#X obj 60 117 pack 0 0;
#X obj 60 144 spigot;
#X obj 60 220 outlet;
#X obj 59 81 - 4;
#X obj 80 170 delay 10;
#X msg 80 200 10 10;
#X floatatom 170 40 5 0 0 0 - - -, f 5;
#X obj 170 70 bng 17 250 50 0 empty empty empty 17 7 0 10 #fcfcfc #000000
#000000;
#X floatatom 170 160 5 0 0 0 - - -, f 5;
#X msg 170 110 1;
#X obj 200 100 bng 15 250 50 0 empty empty empty 17 7 0 10 #fcfcfc
#000000 #000000;
#X msg 200 130 0;
#X obj 200 70 delay 100;
#X connect 0 0 7 0;
#X connect 0 1 1 0;
#X connect 0 2 10 0;
#X connect 1 0 2 0;
#X connect 1 1 2 1;
#X connect 2 0 3 0;
#X connect 3 0 4 1;
#X connect 4 0 5 0;
#X connect 5 0 6 0;
#X connect 5 0 8 0;
#X connect 7 0 4 0;
#X connect 8 0 9 0;
#X connect 9 0 6 0;
#X connect 10 0 11 0;
#X connect 11 0 13 0;
#X connect 11 0 16 0;
#X connect 12 0 5 1;
#X connect 13 0 12 0;
#X connect 14 0 15 0;
#X connect 15 0 12 0;
#X connect 16 0 14 0;
#X restore 500 10 pd gemmouse;
#X floatatom 590 60 5 0 0 1 - - -, f 5;
#X obj 590 20 loadbang;
#N canvas 748 68 534 438 comet_collision2 0;
#X obj 300 60 inlet radius;
#X obj 200 60 inlet reference;
#X obj 160 110 gemhead;
#X obj 160 140 translateXYZ;
#X obj 230 100 unpack 0 0;
#X obj 30 170 select 0 1;
#X obj 120 60 inlet test;
#N canvas 781 144 539 450 collide 0;
#X obj 97 137 list-map2;
#X obj 177 138 -;
#X obj 177 185 *;
#X obj 177 161 t a a;
#X obj 90 260 sqrt;
#X obj 97 212 list-reduce;
#X obj 181 212 +;
#X obj 130 270 t b a;
#X obj 126 76 inlet reference;
#X obj 97 52 inlet test;
#X obj 300 167 inlet radius;
#X obj 100 320 outlet;
#X obj 126 100 t b a;
#X obj 100 290 <= 1;
#X connect 0 0 5 0;
#X connect 0 1 1 0;
#X connect 1 0 3 0;
#X connect 2 0 0 2;
#X connect 3 0 2 0;
#X connect 3 1 2 1;
#X connect 4 0 13 0;
#X connect 5 0 4 0;
#X connect 5 1 6 0;
#X connect 6 0 5 1;
#X connect 7 0 13 0;
#X connect 7 1 13 1;
#X connect 8 0 12 0;
#X connect 9 0 0 0;
#X connect 10 0 7 0;
#X connect 12 0 0 0;
#X connect 12 1 0 1;
#X connect 13 0 11 0;
#X restore 30 110 pd collide;
#X obj 50 140 tgl 24 0 empty empty hit? 28 7 1 10 #fcfcfc #000000 #000000
0 1;
#X floatatom 260 170 5 0 0 0 - - -, f 5;
#X msg 40 40 set 55;
#X obj 30 210 send score-space;
#X obj 40 10 loadbang;
#X obj 160 210 circle 0.2;
#X obj 160 180 color 1 0 0;
#X obj 30 240 send respawn2;
#X floatatom 320 160 5 0 0 0 - - -, f 5;
#X floatatom 350 220 5 0 0 0 - - -, f 5;
#X obj 320 250 spigot;
#X obj 320 275 bng 15 250 50 0 empty empty empty 17 7 0 10 #fcfcfc
#000000 #000000;
#X obj 320 310 send reset;
#X obj 320 190 == -2;
#X obj 380 260 delay 10;
#X obj 360 290 bng 15 250 50 0 empty empty empty 17 7 0 10 #fcfcfc
#000000 #000000;
#X obj 30 270 send destroyed;
#X connect 0 0 7 2;
#X connect 1 0 4 0;
#X connect 1 0 7 1;
#X connect 2 0 3 0;
#X connect 3 0 14 0;
#X connect 4 0 3 1;
#X connect 4 1 3 2;
#X connect 4 1 16 0;
#X connect 5 1 11 0;
#X connect 5 1 15 0;
#X connect 5 1 24 0;
#X connect 6 0 7 0;
#X connect 7 0 5 0;
#X connect 7 0 8 0;
#X connect 9 0 13 1;
#X connect 10 0 2 0;
#X connect 12 0 10 0;
#X connect 14 0 13 0;
#X connect 16 0 21 0;
#X connect 17 0 18 1;
#X connect 18 0 19 0;
#X connect 19 0 20 0;
#X connect 19 0 22 0;
#X connect 21 0 17 0;
#X connect 21 0 18 0;
#X connect 22 0 23 0;
#X connect 23 0 20 0;
#X restore 200 90 pd comet_collision2;
#N canvas 152 9 540 384 comet_collision1 0;
#X obj 300 60 inlet radius;
#X obj 200 60 inlet reference;
#X obj 160 110 gemhead;
#X obj 160 140 translateXYZ;
#X obj 230 100 unpack 0 0;
#X obj 30 170 select 0 1;
#X obj 120 60 inlet test;
#N canvas 994 232 543 454 collide 0;
#X obj 97 137 list-map2;
#X obj 177 138 -;
#X obj 177 185 *;
#X obj 177 161 t a a;
#X obj 100 260 sqrt;
#X obj 97 212 list-reduce;
#X obj 181 212 +;
#X obj 130 280 t b a;
#X obj 126 76 inlet reference;
#X obj 97 52 inlet test;
#X obj 300 167 inlet radius;
#X obj 100 330 outlet;
#X obj 126 100 t b a;
#X obj 100 300 <= 1;
#X connect 0 0 5 0;
#X connect 0 1 1 0;
#X connect 1 0 3 0;
#X connect 2 0 0 2;
#X connect 3 0 2 0;
#X connect 3 1 2 1;
#X connect 4 0 13 0;
#X connect 5 0 4 0;
#X connect 5 1 6 0;
#X connect 6 0 5 1;
#X connect 7 0 13 0;
#X connect 7 1 13 1;
#X connect 8 0 12 0;
#X connect 9 0 0 0;
#X connect 10 0 7 0;
#X connect 12 0 0 0;
#X connect 12 1 0 1;
#X connect 13 0 11 0;
#X restore 30 110 pd collide;
#X obj 50 140 tgl 24 0 empty empty hit? 28 7 1 10 #fcfcfc #000000 #000000
0 1;
#X floatatom 260 170 5 0 0 0 - - -, f 5;
#X msg 40 40 set 55;
#X obj 30 210 send score-space;
#X obj 40 10 loadbang;
#X obj 160 180 color 1 1 0;
#X obj 160 210 circle 0.4;
#X obj 30 240 send respawn1;
#X floatatom 320 170 5 0 0 0 - - -, f 5;
#X obj 320 200 == -1.8;
#X floatatom 350 230 5 0 0 0 - - -, f 5;
#X obj 320 260 spigot;
#X obj 320 285 bng 15 250 50 0 empty empty empty 17 7 0 10 #fcfcfc
#000000 #000000;
#X obj 320 350 send reset;
#X floatatom 549 193 5 0 0 0 - - -, f 5;
#X obj 549 223 == -1.8;
#X floatatom 579 253 5 0 0 0 - - -, f 5;
#X obj 549 283 spigot;
#X obj 549 308 bng 15 250 50 0 empty empty empty 17 7 0 10 #fcfcfc
#000000 #000000;
#X obj 549 343 send reset;
#X obj 360 290 delay 10;
#X obj 340 320 bng 15 250 50 0 empty empty empty 17 7 0 10 #fcfcfc
#000000 #000000;
#X obj 30 270 send destroyed;
#X connect 0 0 7 2;
#X connect 1 0 4 0;
#X connect 1 0 7 1;
#X connect 2 0 3 0;
#X connect 3 0 13 0;
#X connect 4 0 3 1;
#X connect 4 1 3 2;
#X connect 4 1 16 0;
#X connect 5 1 11 0;
#X connect 5 1 15 0;
#X connect 5 1 30 0;
#X connect 6 0 7 0;
#X connect 7 0 5 0;
#X connect 7 0 8 0;
#X connect 9 0 14 1;
#X connect 10 0 2 0;
#X connect 12 0 10 0;
#X connect 13 0 14 0;
#X connect 16 0 17 0;
#X connect 17 0 18 0;
#X connect 17 0 19 0;
#X connect 18 0 19 1;
#X connect 19 0 20 0;
#X connect 20 0 21 0;
#X connect 20 0 28 0;
#X connect 22 0 23 0;
#X connect 23 0 24 0;
#X connect 23 0 25 0;
#X connect 24 0 25 1;
#X connect 25 0 26 0;
#X connect 26 0 27 0;
#X connect 28 0 29 0;
#X connect 29 0 21 0;
#X restore 40 90 pd comet_collision1;
#N canvas 136 160 714 574 comet_collision3 0;
#X obj 300 60 inlet radius;
#X obj 200 60 inlet reference;
#X obj 160 110 gemhead;
#X obj 160 140 translateXYZ;
#X obj 230 100 unpack 0 0;
#X obj 30 170 select 0 1;
#X obj 120 60 inlet test;
#N canvas 708 160 538 450 collide 0;
#X obj 97 137 list-map2;
#X obj 177 138 -;
#X obj 177 185 *;
#X obj 177 161 t a a;
#X obj 90 260 sqrt;
#X obj 97 212 list-reduce;
#X obj 181 212 +;
#X obj 130 270 t b a;
#X obj 126 76 inlet reference;
#X obj 97 52 inlet test;
#X obj 300 167 inlet radius;
#X obj 100 320 outlet;
#X obj 126 100 t b a;
#X obj 100 290 <= 1;
#X connect 0 0 5 0;
#X connect 0 1 1 0;
#X connect 1 0 3 0;
#X connect 2 0 0 2;
#X connect 3 0 2 0;
#X connect 3 1 2 1;
#X connect 4 0 13 0;
#X connect 5 0 4 0;
#X connect 5 1 6 0;
#X connect 6 0 5 1;
#X connect 7 0 13 0;
#X connect 7 1 13 1;
#X connect 8 0 12 0;
#X connect 9 0 0 0;
#X connect 10 0 7 0;
#X connect 12 0 0 0;
#X connect 12 1 0 1;
#X connect 13 0 11 0;
#X restore 30 110 pd collide;
#X obj 50 140 tgl 24 0 empty empty hit? 28 7 1 10 #fcfcfc #000000 #000000
0 1;
#X floatatom 260 170 5 0 0 0 - - -, f 5;
#X msg 40 40 set 55;
#X obj 30 210 send score-space;
#X obj 40 10 loadbang;
#X obj 160 210 circle 0.6;
#X obj 160 180 color 0 1 0;
#X obj 30 240 send respawn3;
#X floatatom 320 140 5 0 0 0 - - -, f 5;
#X floatatom 350 200 5 0 0 0 - - -, f 5;
#X obj 320 230 spigot;
#X obj 320 255 bng 15 250 50 0 empty empty empty 17 7 0 10 #fcfcfc
#000000 #000000;
#X obj 320 290 send reset;
#X obj 320 170 == -1.6;
#X obj 400 240 delay 10;
#X obj 380 270 bng 15 250 50 0 empty empty empty 17 7 0 10 #fcfcfc
#000000 #000000;
#X obj 30 270 send destroyed;
#X connect 0 0 7 2;
#X connect 1 0 4 0;
#X connect 1 0 7 1;
#X connect 2 0 3 0;
#X connect 3 0 14 0;
#X connect 4 0 3 1;
#X connect 4 1 3 2;
#X connect 4 1 16 0;
#X connect 5 1 11 0;
#X connect 5 1 15 0;
#X connect 5 1 24 0;
#X connect 6 0 7 0;
#X connect 7 0 5 0;
#X connect 7 0 8 0;
#X connect 9 0 13 1;
#X connect 10 0 2 0;
#X connect 12 0 10 0;
#X connect 14 0 13 0;
#X connect 16 0 21 0;
#X connect 17 0 18 1;
#X connect 18 0 19 0;
#X connect 19 0 20 0;
#X connect 19 0 22 0;
#X connect 21 0 17 0;
#X connect 21 0 18 0;
#X connect 22 0 23 0;
#X connect 23 0 20 0;
#X restore 350 90 pd comet_collision3;
#N canvas 136 160 714 574 comet_collision4 0;
#X obj 300 60 inlet radius;
#X obj 200 60 inlet reference;
#X obj 160 110 gemhead;
#X obj 160 140 translateXYZ;
#X obj 230 100 unpack 0 0;
#X obj 30 170 select 0 1;
#X obj 120 60 inlet test;
#N canvas 708 160 538 450 collide 0;
#X obj 97 137 list-map2;
#X obj 177 138 -;
#X obj 177 185 *;
#X obj 177 161 t a a;
#X obj 90 260 sqrt;
#X obj 97 212 list-reduce;
#X obj 181 212 +;
#X obj 130 270 t b a;
#X obj 126 76 inlet reference;
#X obj 97 52 inlet test;
#X obj 300 167 inlet radius;
#X obj 100 320 outlet;
#X obj 126 100 t b a;
#X obj 100 290 <= 1;
#X connect 0 0 5 0;
#X connect 0 1 1 0;
#X connect 1 0 3 0;
#X connect 2 0 0 2;
#X connect 3 0 2 0;
#X connect 3 1 2 1;
#X connect 4 0 13 0;
#X connect 5 0 4 0;
#X connect 5 1 6 0;
#X connect 6 0 5 1;
#X connect 7 0 13 0;
#X connect 7 1 13 1;
#X connect 8 0 12 0;
#X connect 9 0 0 0;
#X connect 10 0 7 0;
#X connect 12 0 0 0;
#X connect 12 1 0 1;
#X connect 13 0 11 0;
#X restore 30 110 pd collide;
#X obj 50 140 tgl 24 0 empty empty hit? 28 7 1 10 #fcfcfc #000000 #000000
0 1;
#X floatatom 260 170 5 0 0 0 - - -, f 5;
#X msg 40 40 set 55;
#X obj 30 210 send score-space;
#X obj 40 10 loadbang;
#X obj 160 210 circle 0.3;
#X obj 160 180 color 0 0 1;
#X obj 30 240 send respawn4;
#X floatatom 320 140 5 0 0 0 - - -, f 5;
#X floatatom 350 200 5 0 0 0 - - -, f 5;
#X obj 320 230 spigot;
#X obj 320 255 bng 15 250 50 0 empty empty empty 17 7 0 10 #fcfcfc
#000000 #000000;
#X obj 320 290 send reset;
#X obj 320 170 == -1.88;
#X obj 410 240 delay 10;
#X obj 390 270 bng 15 250 50 0 empty empty empty 17 7 0 10 #fcfcfc
#000000 #000000;
#X obj 30 270 send destroyed;
#X connect 0 0 7 2;
#X connect 1 0 4 0;
#X connect 1 0 7 1;
#X connect 2 0 3 0;
#X connect 3 0 14 0;
#X connect 4 0 3 1;
#X connect 4 1 3 2;
#X connect 4 1 16 0;
#X connect 5 1 11 0;
#X connect 5 1 15 0;
#X connect 5 1 24 0;
#X connect 6 0 7 0;
#X connect 7 0 5 0;
#X connect 7 0 8 0;
#X connect 9 0 13 1;
#X connect 10 0 2 0;
#X connect 12 0 10 0;
#X connect 14 0 13 0;
#X connect 16 0 21 0;
#X connect 17 0 18 1;
#X connect 18 0 19 0;
#X connect 19 0 20 0;
#X connect 19 0 22 0;
#X connect 21 0 17 0;
#X connect 21 0 18 0;
#X connect 22 0 23 0;
#X connect 23 0 20 0;
#X restore 500 90 pd comet_collision4;
#N canvas 1024 64 513 418 Comet1 0;
#X obj 190 320 outlet;
#N canvas 833 176 359 271 mover 0;
#X obj 60 140 line;
#X obj 200 140 line;
#X msg 70 100 \$1 3000;
#X msg 200 100 \$1 3000;
#X obj 110 190 pack 0 0;
#X floatatom 40 180 5 0 0 0 - - -, f 5;
#X floatatom 210 180 5 0 0 0 - - -, f 5;
#X obj 50 60 unpack 0 0, f 13;
#X obj 180 60 unpack 0 0, f 11;
#X obj 50 20 inlet from;
#X obj 180 20 inlet to;
#X obj 110 215 outlet atm;
#X connect 0 0 4 0;
#X connect 0 0 5 0;
#X connect 1 0 4 1;
#X connect 1 0 6 0;
#X connect 2 0 0 0;
#X connect 3 0 1 0;
#X connect 4 0 11 0;
#X connect 7 0 0 0;
#X connect 7 1 1 0;
#X connect 8 0 2 0;
#X connect 8 1 3 0;
#X connect 9 0 7 0;
#X connect 10 0 8 0;
#X restore 190 270 pd mover;
#X obj 170 90 bng 15 250 50 0 empty empty empty 17 7 0 10 #fcfcfc #000000
#000000;
#X obj 260 30 receive respawn1;
#X obj 260 60 delay 2000;
#X obj 130 40 receive start;
#X floatatom 260 145 5 0 0 0 - - -, f 5;
#X obj 260 90 bng 15 250 50 0 empty empty empty 17 7 0 10 #fcfcfc #000000
#000000;
#X obj 260 170 - 3;
#X obj 260 120 random 6;
#X obj 330 120 random 1000;
#X obj 330 145 / 1000;
#X obj 260 200 +;
#X floatatom 170 145 5 0 0 0 - - -, f 5;
#X obj 90 120 random 1000;
#X obj 90 145 / 1000;
#X obj 170 200 +;
#X msg 170 230 \$1 6;
#X obj 40 20 receive reset;
#X obj 170 120 random 6;
#X obj 170 170 - 3;
#X msg 260 230 \$1 -1.8;
#X connect 1 0 0 0;
#X connect 2 0 14 0;
#X connect 2 0 19 0;
#X connect 3 0 4 0;
#X connect 3 0 2 0;
#X connect 4 0 7 0;
#X connect 5 0 2 0;
#X connect 5 0 7 0;
#X connect 6 0 8 0;
#X connect 7 0 9 0;
#X connect 7 0 10 0;
#X connect 8 0 12 0;
#X connect 9 0 6 0;
#X connect 10 0 11 0;
#X connect 11 0 12 1;
#X connect 12 0 21 0;
#X connect 13 0 20 0;
#X connect 14 0 15 0;
#X connect 15 0 16 1;
#X connect 16 0 17 0;
#X connect 17 0 1 0;
#X connect 18 0 2 0;
#X connect 19 0 13 0;
#X connect 20 0 16 0;
#X connect 21 0 1 1;
#X restore 60 60 pd Comet1;
#N canvas 968 116 498 566 Comet2 0;
#X obj 200 380 outlet;
#N canvas 963 124 359 270 mover 0;
#X obj 60 140 line;
#X obj 200 140 line;
#X obj 110 190 pack 0 0;
#X floatatom 40 180 5 0 0 0 - - -, f 5;
#X floatatom 210 180 5 0 0 0 - - -, f 5;
#X obj 50 60 unpack 0 0, f 13;
#X obj 180 60 unpack 0 0, f 11;
#X obj 50 20 inlet from;
#X obj 180 20 inlet to;
#X obj 110 215 outlet atm;
#X msg 70 100 \$1 4000;
#X msg 200 100 \$1 4000;
#X connect 0 0 2 0;
#X connect 0 0 3 0;
#X connect 1 0 2 1;
#X connect 1 0 4 0;
#X connect 2 0 9 0;
#X connect 5 0 0 0;
#X connect 5 1 1 0;
#X connect 6 0 10 0;
#X connect 6 1 11 0;
#X connect 7 0 5 0;
#X connect 8 0 6 0;
#X connect 10 0 0 0;
#X connect 11 0 1 0;
#X restore 200 330 pd mover;
#X obj 180 150 bng 15 250 50 0 empty empty empty 17 7 0 10 #fcfcfc
#000000 #000000;
#X obj 150 50 receive start;
#X floatatom 270 205 5 0 0 0 - - -, f 5;
#X obj 270 150 bng 15 250 50 0 empty empty empty 17 7 0 10 #fcfcfc
#000000 #000000;
#X obj 270 230 - 3;
#X obj 270 180 random 6;
#X obj 340 180 random 1000;
#X obj 340 205 / 1000;
#X obj 270 260 +;
#X floatatom 180 205 5 0 0 0 - - -, f 5;
#X obj 100 180 random 1000;
#X obj 100 205 / 1000;
#X obj 180 260 +;
#X obj 180 180 random 9;
#X obj 180 230 - 4;
#X msg 180 290 \$1 6;
#X obj 50 80 receive reset;
#X obj 150 75 delay 1000;
#X obj 270 120 delay 2500;
#X obj 270 90 receive respawn2;
#X msg 270 290 \$1 -2;
#X connect 1 0 0 0;
#X connect 2 0 12 0;
#X connect 2 0 15 0;
#X connect 3 0 19 0;
#X connect 4 0 6 0;
#X connect 5 0 7 0;
#X connect 5 0 8 0;
#X connect 6 0 10 0;
#X connect 7 0 4 0;
#X connect 8 0 9 0;
#X connect 9 0 10 1;
#X connect 10 0 22 0;
#X connect 11 0 16 0;
#X connect 12 0 13 0;
#X connect 13 0 14 1;
#X connect 14 0 17 0;
#X connect 15 0 11 0;
#X connect 16 0 14 0;
#X connect 17 0 1 0;
#X connect 18 0 2 0;
#X connect 19 0 2 0;
#X connect 19 0 5 0;
#X connect 20 0 5 0;
#X connect 21 0 2 0;
#X connect 21 0 20 0;
#X connect 22 0 1 1;
#X restore 220 60 pd Comet2;
#N canvas 812 172 490 530 Comet3 0;
#X obj 201 402 outlet;
#N canvas 688 376 358 270 mover 0;
#X obj 60 140 line;
#X obj 200 140 line;
#X obj 110 190 pack 0 0;
#X floatatom 40 180 5 0 0 0 - - -, f 5;
#X floatatom 210 180 5 0 0 0 - - -, f 5;
#X obj 50 60 unpack 0 0, f 13;
#X obj 180 60 unpack 0 0, f 11;
#X obj 50 20 inlet from;
#X obj 180 20 inlet to;
#X obj 110 215 outlet atm;
#X msg 200 100 \$1 4000;
#X msg 70 100 \$1 6000;
#X connect 0 0 2 0;
#X connect 0 0 3 0;
#X connect 1 0 2 1;
#X connect 1 0 4 0;
#X connect 2 0 9 0;
#X connect 5 0 0 0;
#X connect 5 1 1 0;
#X connect 6 0 11 0;
#X connect 6 1 10 0;
#X connect 7 0 5 0;
#X connect 8 0 6 0;
#X connect 10 0 1 0;
#X connect 11 0 0 0;
#X restore 201 352 pd mover;
#X obj 181 172 bng 15 250 50 0 empty empty empty 17 7 0 10 #fcfcfc
#000000 #000000;
#X obj 151 72 receive start;
#X floatatom 271 227 5 0 0 0 - - -, f 5;
#X obj 271 172 bng 15 250 50 0 empty empty empty 17 7 0 10 #fcfcfc
#000000 #000000;
#X obj 271 252 - 3;
#X obj 271 202 random 6;
#X obj 341 202 random 1000;
#X obj 341 227 / 1000;
#X obj 271 282 +;
#X floatatom 181 227 5 0 0 0 - - -, f 5;
#X obj 101 202 random 1000;
#X obj 101 227 / 1000;
#X obj 181 282 +;
#X obj 181 202 random 9;
#X obj 181 252 - 4;
#X msg 181 312 \$1 6;
#X obj 51 102 receive reset;
#X obj 271 112 receive respawn3;
#X obj 151 97 delay 2000;
#X obj 271 142 delay 500;
#X msg 271 312 \$1 -1.6;
#X connect 1 0 0 0;
#X connect 2 0 12 0;
#X connect 2 0 15 0;
#X connect 3 0 20 0;
#X connect 4 0 6 0;
#X connect 5 0 7 0;
#X connect 5 0 8 0;
#X connect 6 0 10 0;
#X connect 7 0 4 0;
#X connect 8 0 9 0;
#X connect 9 0 10 1;
#X connect 10 0 22 0;
#X connect 11 0 16 0;
#X connect 12 0 13 0;
#X connect 13 0 14 1;
#X connect 14 0 17 0;
#X connect 15 0 11 0;
#X connect 16 0 14 0;
#X connect 17 0 1 0;
#X connect 18 0 2 0;
#X connect 19 0 2 0;
#X connect 19 0 21 0;
#X connect 20 0 2 0;
#X connect 20 0 5 0;
#X connect 21 0 5 0;
#X connect 22 0 1 1;
#X restore 370 60 pd Comet3;
#N canvas 223 159 493 527 Comet4 0;
#X obj 203 392 outlet;
#N canvas 688 376 358 270 mover 0;
#X obj 60 140 line;
#X obj 200 140 line;
#X obj 110 190 pack 0 0;
#X floatatom 40 180 5 0 0 0 - - -, f 5;
#X floatatom 210 180 5 0 0 0 - - -, f 5;
#X obj 50 60 unpack 0 0, f 13;
#X obj 180 60 unpack 0 0, f 11;
#X obj 50 20 inlet from;
#X obj 180 20 inlet to;
#X obj 110 215 outlet atm;
#X msg 200 100 \$1 4000;
#X msg 70 100 \$1 6000;
#X connect 0 0 2 0;
#X connect 0 0 3 0;
#X connect 1 0 2 1;
#X connect 1 0 4 0;
#X connect 2 0 9 0;
#X connect 5 0 0 0;
#X connect 5 1 1 0;
#X connect 6 0 11 0;
#X connect 6 1 10 0;
#X connect 7 0 5 0;
#X connect 8 0 6 0;
#X connect 10 0 1 0;
#X connect 11 0 0 0;
#X restore 203 342 pd mover;
#X obj 183 162 bng 15 250 50 0 empty empty empty 17 7 0 10 #fcfcfc
#000000 #000000;
#X obj 153 62 receive start;
#X floatatom 273 217 5 0 0 0 - - -, f 5;
#X obj 273 162 bng 15 250 50 0 empty empty empty 17 7 0 10 #fcfcfc
#000000 #000000;
#X obj 273 242 - 3;
#X obj 273 192 random 6;
#X obj 343 192 random 1000;
#X obj 343 217 / 1000;
#X obj 273 272 +;
#X floatatom 183 217 5 0 0 0 - - -, f 5;
#X obj 103 192 random 1000;
#X obj 103 217 / 1000;
#X obj 183 272 +;
#X msg 183 302 \$1 6;
#X obj 53 92 receive reset;
#X obj 273 102 receive respawn4;
#X obj 183 192 random 11;
#X obj 183 242 - 5;
#X obj 273 132 delay 4000;
#X obj 153 87 delay 3000;
#X msg 270 300 \$1 -1.88;
#X connect 1 0 0 0;
#X connect 2 0 12 0;
#X connect 2 0 18 0;
#X connect 3 0 21 0;
#X connect 4 0 6 0;
#X connect 5 0 7 0;
#X connect 5 0 8 0;
#X connect 6 0 10 0;
#X connect 7 0 4 0;
#X connect 8 0 9 0;
#X connect 9 0 10 1;
#X connect 10 0 22 0;
#X connect 11 0 19 0;
#X connect 12 0 13 0;
#X connect 13 0 14 1;
#X connect 14 0 15 0;
#X connect 15 0 1 0;
#X connect 16 0 2 0;
#X connect 17 0 2 0;
#X connect 17 0 20 0;
#X connect 18 0 11 0;
#X connect 19 0 14 0;
#X connect 20 0 5 0;
#X connect 21 0 2 0;
#X connect 21 0 5 0;
#X connect 22 0 1 1;
#X restore 520 60 pd Comet4;
#X msg 290 40 0.2;
#X msg 440 40 0.6;
#X msg 590 40 0.3;
#N canvas 819 281 436 361 gemmouse 0;
#X obj 100 60 gemmouse 8 8;
#X obj 144 98 swap 8;
#X obj 144 124 -;
#X obj 144 146 - 4;
#X obj 100 167 pack 0 0;
#X obj 100 194 spigot;
#X obj 100 270 outlet;
#X obj 99 131 - 4;
#X obj 120 220 delay 10;
#X msg 120 250 10 10;
#X floatatom 210 90 5 0 0 0 - - -, f 5;
#X obj 210 120 bng 17 250 50 0 empty empty empty 17 7 0 10 #fcfcfc
#000000 #000000;
#X floatatom 210 210 5 0 0 0 - - -, f 5;
#X msg 210 160 1;
#X obj 240 150 bng 15 250 50 0 empty empty empty 17 7 0 10 #fcfcfc
#000000 #000000;
#X msg 240 180 0;
#X obj 240 120 delay 100;
#X connect 0 0 7 0;
#X connect 0 1 1 0;
#X connect 0 2 10 0;
#X connect 1 0 2 0;
#X connect 1 1 2 1;
#X connect 2 0 3 0;
#X connect 3 0 4 1;
#X connect 4 0 5 0;
#X connect 5 0 6 0;
#X connect 5 0 8 0;
#X connect 7 0 4 0;
#X connect 8 0 9 0;
#X connect 9 0 6 0;
#X connect 10 0 11 0;
#X connect 11 0 13 0;
#X connect 11 0 16 0;
#X connect 12 0 5 1;
#X connect 13 0 12 0;
#X connect 14 0 15 0;
#X connect 15 0 12 0;
#X connect 16 0 14 0;
#X restore 70 190 pd gemmouse;
#N canvas 880 104 506 466 comet_collision1 0;
#X obj 200 60 inlet reference;
#X obj 160 110 gemhead;
#X obj 160 140 translateXYZ;
#X obj 230 100 unpack 0 0;
#X obj 30 170 select 0 1;
#X obj 120 60 inlet test;
#N canvas 708 160 538 450 collide 0;
#X obj 97 137 list-map2;
#X obj 177 138 -;
#X obj 177 185 *;
#X obj 177 161 t a a;
#X obj 90 270 sqrt;
#X obj 97 212 list-reduce;
#X obj 181 212 +;
#X obj 130 280 t b a;
#X obj 126 76 inlet reference;
#X obj 97 52 inlet test;
#X obj 300 167 inlet radius;
#X obj 100 330 outlet;
#X obj 126 100 t b a;
#X obj 100 300 <= 1;
#X connect 0 0 5 0;
#X connect 0 1 1 0;
#X connect 1 0 3 0;
#X connect 2 0 0 2;
#X connect 3 0 2 0;
#X connect 3 1 2 1;
#X connect 4 0 13 0;
#X connect 5 0 4 0;
#X connect 5 1 6 0;
#X connect 6 0 5 1;
#X connect 7 0 13 0;
#X connect 7 1 13 1;
#X connect 8 0 12 0;
#X connect 9 0 0 0;
#X connect 10 0 7 0;
#X connect 12 0 0 0;
#X connect 12 1 0 1;
#X connect 13 0 11 0;
#X restore 30 110 pd collide;
#X obj 50 140 tgl 24 0 empty empty hit? 28 7 1 10 #fcfcfc #000000 #000000
0 1;
#X floatatom 300 170 5 0 0 0 - - -, f 5;
#X msg 40 40 set 55;
#X obj 30 210 send score-space;
#X obj 40 10 loadbang;
#X obj 160 210 circle 0.4;
#X obj 30 240 send respawn5;
#X obj 270 10 receive start;
#X obj 380 10 receive respawn5;
#X obj 340 110 / 10;
#X obj 160 180 color 0 1 1;
#X floatatom 300 80 5 0 0 0 - - -, f 5;
#X obj 340 40 random 4;
#X obj 340 65 + 3;
#X floatatom 350 170 5 0 0 0 - - -, f 5;
#X floatatom 380 230 5 0 0 0 - - -, f 5;
#X obj 350 260 spigot;
#X obj 350 285 bng 15 250 50 0 empty empty empty 17 7 0 10 #fcfcfc
#000000 #000000;
#X obj 350 320 send reset;
#X obj 350 200 == -1.95;
#X obj 420 270 delay 10;
#X obj 400 300 bng 15 250 50 0 empty empty empty 17 7 0 10 #fcfcfc
#000000 #000000;
#X obj 30 270 send destroyed;
#X connect 0 0 3 0;
#X connect 0 0 6 1;
#X connect 1 0 2 0;
#X connect 2 0 17 0;
#X connect 3 0 2 1;
#X connect 3 1 2 2;
#X connect 3 1 21 0;
#X connect 4 1 10 0;
#X connect 4 1 13 0;
#X connect 4 1 29 0;
#X connect 5 0 6 0;
#X connect 6 0 4 0;
#X connect 6 0 7 0;
#X connect 8 0 12 1;
#X connect 9 0 1 0;
#X connect 11 0 9 0;
#X connect 14 0 19 0;
#X connect 15 0 19 0;
#X connect 16 0 8 0;
#X connect 16 0 18 0;
#X connect 17 0 12 0;
#X connect 18 0 6 2;
#X connect 19 0 20 0;
#X connect 20 0 16 0;
#X connect 21 0 26 0;
#X connect 22 0 23 1;
#X connect 23 0 24 0;
#X connect 24 0 25 0;
#X connect 24 0 27 0;
#X connect 26 0 22 0;
#X connect 26 0 23 0;
#X connect 27 0 28 0;
#X connect 28 0 25 0;
#X restore 70 260 pd comet_collision1;
#N canvas 1030 240 507 478 Comet5 0;
#X obj 190 320 outlet;
#N canvas 688 376 358 270 mover 0;
#X obj 60 140 line;
#X obj 200 140 line;
#X obj 110 190 pack 0 0;
#X floatatom 40 180 5 0 0 0 - - -, f 5;
#X floatatom 210 180 5 0 0 0 - - -, f 5;
#X obj 50 60 unpack 0 0, f 13;
#X obj 180 60 unpack 0 0, f 11;
#X obj 50 20 inlet from;
#X obj 180 20 inlet to;
#X obj 110 215 outlet atm;
#X msg 70 100 \$1 2500;
#X msg 200 100 \$1 2500;
#X connect 0 0 2 0;
#X connect 0 0 3 0;
#X connect 1 0 2 1;
#X connect 1 0 4 0;
#X connect 2 0 9 0;
#X connect 5 0 0 0;
#X connect 5 1 1 0;
#X connect 6 0 10 0;
#X connect 6 1 11 0;
#X connect 7 0 5 0;
#X connect 8 0 6 0;
#X connect 10 0 0 0;
#X connect 11 0 1 0;
#X restore 190 270 pd mover;
#X obj 170 90 bng 15 250 50 0 empty empty empty 17 7 0 10 #fcfcfc #000000
#000000;
#X obj 260 60 delay 2000;
#X obj 140 20 receive start;
#X floatatom 260 145 5 0 0 0 - - -, f 5;
#X obj 260 90 bng 15 250 50 0 empty empty empty 17 7 0 10 #fcfcfc #000000
#000000;
#X obj 260 170 - 3;
#X obj 260 120 random 6;
#X obj 330 120 random 1000;
#X obj 330 145 / 1000;
#X obj 260 200 +;
#X floatatom 170 145 5 0 0 0 - - -, f 5;
#X obj 90 120 random 1000;
#X obj 90 145 / 1000;
#X obj 170 200 +;
#X msg 170 230 \$1 6;
#X obj 40 20 receive reset;
#X obj 260 30 receive respawn5;
#X obj 140 45 delay 1000;
#X obj 170 120 random 11;
#X obj 170 170 - 5;
#X msg 260 230 \$1 -1.95;
#X connect 1 0 0 0;
#X connect 2 0 13 0;
#X connect 2 0 20 0;
#X connect 3 0 6 0;
#X connect 4 0 19 0;
#X connect 5 0 7 0;
#X connect 6 0 8 0;
#X connect 6 0 9 0;
#X connect 7 0 11 0;
#X connect 8 0 5 0;
#X connect 9 0 10 0;
#X connect 10 0 11 1;
#X connect 11 0 22 0;
#X connect 12 0 21 0;
#X connect 13 0 14 0;
#X connect 14 0 15 1;
#X connect 15 0 16 0;
#X connect 16 0 1 0;
#X connect 17 0 2 0;
#X connect 18 0 3 0;
#X connect 18 0 2 0;
#X connect 19 0 2 0;
#X connect 19 0 6 0;
#X connect 20 0 12 0;
#X connect 21 0 15 0;
#X connect 22 0 1 1;
#X restore 110 230 pd Comet5;
#X connect 0 0 14 0;
#X connect 1 0 14 2;
#X connect 2 0 3 0;
#X connect 3 0 1 0;
#X connect 4 0 13 0;
#X connect 5 0 13 2;
#X connect 6 0 21 0;
#X connect 7 0 15 0;
#X connect 8 0 15 2;
#X connect 9 0 22 0;
#X connect 10 0 16 0;
#X connect 11 0 16 2;
#X connect 12 0 23 0;
#X connect 17 0 14 1;
#X connect 18 0 13 1;
#X connect 19 0 15 1;
#X connect 20 0 16 1;
#X connect 21 0 5 0;
#X connect 22 0 8 0;
#X connect 23 0 11 0;
#X connect 24 0 25 0;
#X connect 26 0 25 1;
#X restore 10 160 pd Spawner;
#N canvas 1072 210 461 501 Game_overScreen 0;
#X msg 30 120 set 57;
#X obj 30 145 gemhead;
#X obj 30 175 colorRGB 1 0 0;
#X obj 30 200 text2d GAME OVER;
#X floatatom 130 175 5 0 0 0 - - -, f 5;
#X obj 70 90 tgl 15 0 empty empty empty 17 7 0 10 #fcfcfc #000000 #000000
1 1;
#X obj 120 80 bng 15 250 50 0 empty empty empty 17 7 0 10 #fcfcfc #000000
#000000;
#X obj 150 80 tgl 15 0 empty empty empty 17 7 0 10 #fcfcfc #000000
#000000 0 1;
#X obj 40 50 spigot;
#X obj 140 50 spigot;
#X obj 230 70 loadbang;
#X obj 160 20 receive reset;
#X obj 40 20 receive start;
#X msg 130 150 69;
#X obj 130 130 loadbang;
#X connect 0 0 1 0;
#X connect 1 0 2 0;
#X connect 2 0 3 0;
#X connect 4 0 3 1;
#X connect 5 0 6 0;
#X connect 5 0 8 1;
#X connect 5 0 1 0;
#X connect 6 0 7 0;
#X connect 7 0 9 1;
#X connect 8 0 5 0;
#X connect 8 0 0 0;
#X connect 9 0 5 0;
#X connect 10 0 7 0;
#X connect 11 0 9 0;
#X connect 12 0 8 0;
#X connect 13 0 4 0;
#X connect 14 0 13 0;
#X restore 10 220 pd Game_overScreen;
#N canvas 1080 304 457 354 Game_startScreen 1;
#X obj 50 140 send reset;
#X obj 50 80 bng 15 250 50 0 empty empty empty 17 7 0 10 #fcfcfc #000000
#000000;
#X obj 120 100 bng 15 250 50 0 empty empty empty 17 7 0 10 #fcfcfc
#000000 #000000;
#X obj 120 140 send start;
#X obj 60 100 delay 10;
#X obj 60 125 bng 12 250 50 0 empty empty empty 17 7 0 10 #fcfcfc #000000
#000000;
#X obj 50 60 loadbang;
#X connect 1 0 0 0;
#X connect 1 0 4 0;
#X connect 2 0 3 0;
#X connect 4 0 5 0;
#X connect 5 0 0 0;
#X connect 6 0 1 0;
#X restore 10 200 pd Game_startScreen;
#N canvas 852 16 588 344 Music_COntroller 0;
#X obj 60 180 readsf~;
#X obj 60 215 *~ 0.5;
#X obj 60 250 dac~;
#X msg 60 150 open Sound/Ambience.wav \, 1;
#X obj 150 75 bng 15 250 50 0 empty empty empty 17 7 0 10 #fcfcfc #000000
#000000;
#X msg 280 110 stop;
#X obj 150 30 receive reset;
#X obj 240 30 receive start;
#X msg 180 110 stop;
#X obj 240 80 bng 15 250 50 0 empty empty empty 17 7 0 10 #fcfcfc #000000
#000000;
#X obj 240 180 readsf~;
#X obj 240 215 *~ 0.5;
#X obj 240 250 dac~;
#X msg 240 150 open Sound/GameLoop.wav \, 1;
#X obj 410 180 readsf~;
#X obj 410 215 *~ 0.5;
#X obj 410 250 dac~;
#X msg 410 150 open Sound/Destroy.wav \, 1;
#X obj 410 120 receive destroyed;
#X connect 0 0 1 0;
#X connect 1 0 2 0;
#X connect 1 0 2 1;
#X connect 3 0 0 0;
#X connect 4 0 3 0;
#X connect 5 0 0 0;
#X connect 6 0 4 0;
#X connect 6 0 8 0;
#X connect 7 0 5 0;
#X connect 7 0 9 0;
#X connect 8 0 10 0;
#X connect 9 0 13 0;
#X connect 10 0 11 0;
#X connect 11 0 12 0;
#X connect 11 0 12 1;
#X connect 13 0 10 0;
#X connect 14 0 15 0;
#X connect 15 0 16 0;
#X connect 15 0 16 1;
#X connect 17 0 14 0;
#X connect 18 0 17 0;
#X restore 10 260 pd Music_COntroller;
#X connect 1 0 0 0;
#X connect 4 0 0 0;
