#N canvas 1001 50 455 307 10;
#X obj 20 60 gemwin;
#X msg 40 40 destroy;
#X msg 20 20 dimen 600 600 \, create \, 1;
#N canvas 372 176 1106 497 Shape 0;
#X obj 560 230 pix_image;
#X obj 590 150 loadbang;
#X obj 560 300 pix_texture;
#X msg 630 250 env \$1;
#X obj 630 230 hradio 15 1 0 6 empty empty empty 0 -6 0 8 #fcfcfc #000000
#000000 1;
#X obj 580 110 gemhead;
#X obj 560 325 colorRGB 1 1 0;
#X obj 730 230 pix_image;
#X obj 760 150 loadbang;
#X obj 730 300 pix_texture;
#X msg 800 250 env \$1;
#X obj 800 230 hradio 15 1 0 6 empty empty empty 0 -6 0 8 #fcfcfc #000000
#000000 1;
#X obj 750 110 gemhead;
#X obj 730 325 colorRGB 1 1 0;
#X obj 910 230 pix_image;
#X obj 940 150 loadbang;
#X obj 910 300 pix_texture;
#X msg 980 250 env \$1;
#X obj 980 230 hradio 15 1 0 6 empty empty empty 0 -6 0 8 #fcfcfc #000000
#000000 1;
#X obj 930 110 gemhead;
#X obj 910 325 colorRGB 1 1 0;
#X obj 560 360 translateXYZ 3 1 0;
#X obj 910 360 translateXYZ 2 3 0;
#X obj 730 360 translateXYZ -2 3 0;
#X msg 760 180 open Art/Ice.png;
#X msg 940 180 open Art/Snow.png;
#X msg 630 200 1;
#X msg 800 200 1;
#X msg 980 200 1;
#X obj 910 390 square 0.5;
#X obj 730 390 square 0.5;
#X obj 560 390 square 0.25;
#X obj 30 220 pix_image;
#X obj 60 140 loadbang;
#X obj 30 290 pix_texture;
#X msg 100 240 env \$1;
#X obj 100 220 hradio 15 1 0 6 empty empty empty 0 -6 0 8 #fcfcfc #000000
#000000 1;
#X obj 50 100 gemhead;
#X obj 30 315 colorRGB 1 1 0;
#X msg 100 190 1;
#X obj 30 380 square 0.25;
#X obj 210 220 pix_image;
#X obj 240 140 loadbang;
#X obj 210 290 pix_texture;
#X msg 280 240 env \$1;
#X obj 280 220 hradio 15 1 0 6 empty empty empty 0 -6 0 8 #fcfcfc #000000
#000000 1;
#X obj 230 100 gemhead;
#X obj 210 315 colorRGB 1 1 0;
#X msg 280 190 1;
#X obj 210 380 square 0.25;
#X obj 380 220 pix_image;
#X obj 410 140 loadbang;
#X obj 380 290 pix_texture;
#X msg 450 240 env \$1;
#X obj 450 220 hradio 15 1 0 6 empty empty empty 0 -6 0 8 #fcfcfc #000000
#000000 1;
#X obj 400 100 gemhead;
#X obj 380 315 colorRGB 1 1 0;
#X msg 450 190 1;
#X obj 380 380 square 0.25;
#X msg 410 170 open Art/Cube3.png;
#X msg 60 170 open Art/Cube1.png;
#X msg 240 170 open Art/Cube2.png;
#X msg 590 180 open Art/Cube4.png;
#X obj 30 350 translateXYZ -3 1 0;
#X obj 380 350 translateXYZ 1 1 0;
#X obj 210 350 translateXYZ 2.25 3.25 0;
#X obj 50 10 loadbang;
#X obj 50 70 tgl 15 0 empty empty empty 17 7 0 10 #fcfcfc #000000 #000000
0 1;
#X obj 70 40 delay 100;
#X obj 230 10 loadbang;
#X obj 230 70 tgl 15 0 empty empty empty 17 7 0 10 #fcfcfc #000000
#000000 0 1;
#X obj 250 40 delay 100;
#X obj 400 10 loadbang;
#X obj 400 70 tgl 15 0 empty empty empty 17 7 0 10 #fcfcfc #000000
#000000 0 1;
#X obj 420 40 delay 100;
#X obj 580 20 loadbang;
#X obj 580 80 tgl 15 0 empty empty empty 17 7 0 10 #fcfcfc #000000
#000000 0 1;
#X obj 600 50 delay 100;
#X obj 750 20 loadbang;
#X obj 750 80 tgl 15 0 empty empty empty 17 7 0 10 #fcfcfc #000000
#000000 0 1;
#X obj 770 50 delay 100;
#X obj 930 10 loadbang;
#X obj 930 70 tgl 15 0 empty empty empty 17 7 0 10 #fcfcfc #000000
#000000 0 1;
#X obj 950 40 delay 100;
#X connect 0 0 2 0;
#X connect 1 0 62 0;
#X connect 1 0 26 0;
#X connect 2 0 6 0;
#X connect 3 0 2 0;
#X connect 4 0 3 0;
#X connect 4 0 2 0;
#X connect 5 0 0 0;
#X connect 6 0 21 0;
#X connect 7 0 9 0;
#X connect 8 0 24 0;
#X connect 8 0 27 0;
#X connect 9 0 13 0;
#X connect 10 0 9 0;
#X connect 11 0 10 0;
#X connect 11 0 9 0;
#X connect 12 0 7 0;
#X connect 13 0 23 0;
#X connect 14 0 16 0;
#X connect 15 0 25 0;
#X connect 15 0 28 0;
#X connect 16 0 20 0;
#X connect 17 0 16 0;
#X connect 18 0 17 0;
#X connect 18 0 16 0;
#X connect 19 0 14 0;
#X connect 20 0 22 0;
#X connect 21 0 31 0;
#X connect 22 0 29 0;
#X connect 23 0 30 0;
#X connect 24 0 7 0;
#X connect 25 0 14 0;
#X connect 26 0 4 0;
#X connect 27 0 11 0;
#X connect 28 0 18 0;
#X connect 32 0 34 0;
#X connect 33 0 60 0;
#X connect 33 0 39 0;
#X connect 34 0 38 0;
#X connect 35 0 34 0;
#X connect 36 0 35 0;
#X connect 36 0 34 0;
#X connect 37 0 32 0;
#X connect 38 0 63 0;
#X connect 39 0 36 0;
#X connect 41 0 43 0;
#X connect 42 0 61 0;
#X connect 42 0 48 0;
#X connect 43 0 47 0;
#X connect 44 0 43 0;
#X connect 45 0 44 0;
#X connect 45 0 43 0;
#X connect 46 0 41 0;
#X connect 47 0 65 0;
#X connect 48 0 45 0;
#X connect 50 0 52 0;
#X connect 51 0 59 0;
#X connect 51 0 57 0;
#X connect 52 0 56 0;
#X connect 53 0 52 0;
#X connect 54 0 53 0;
#X connect 54 0 52 0;
#X connect 55 0 50 0;
#X connect 56 0 64 0;
#X connect 57 0 54 0;
#X connect 59 0 50 0;
#X connect 60 0 32 0;
#X connect 61 0 41 0;
#X connect 62 0 0 0;
#X connect 63 0 40 0;
#X connect 64 0 58 0;
#X connect 65 0 49 0;
#X connect 66 0 68 0;
#X connect 66 0 67 0;
#X connect 67 0 37 0;
#X connect 68 0 67 0;
#X connect 69 0 71 0;
#X connect 69 0 70 0;
#X connect 70 0 46 0;
#X connect 71 0 70 0;
#X connect 72 0 74 0;
#X connect 72 0 73 0;
#X connect 73 0 55 0;
#X connect 74 0 73 0;
#X connect 75 0 77 0;
#X connect 75 0 76 0;
#X connect 76 0 5 0;
#X connect 77 0 76 0;
#X connect 78 0 80 0;
#X connect 78 0 79 0;
#X connect 79 0 12 0;
#X connect 80 0 79 0;
#X connect 81 0 83 0;
#X connect 81 0 82 0;
#X connect 82 0 19 0;
#X connect 83 0 82 0;
#X restore 190 70 pd Shape;
#N canvas 0 0 1522 754 Background 0;
#X obj 40 -210 pix_image;
#X obj 50 -290 loadbang;
#X obj 40 -180 pix_texture;
#X msg 110 -210 env \$1;
#X obj 110 -230 hradio 15 1 0 6 empty empty empty 0 -6 0 8 #fcfcfc
#000000 #000000 1;
#X obj 40 -320 gemhead;
#X msg 70 -240 1;
#X obj 40 -100 square 0.5;
#X obj 40 -130 translateXYZ 0 0 0;
#X obj 200 -210 pix_image;
#X obj 210 -290 loadbang;
#X obj 200 -180 pix_texture;
#X msg 270 -210 env \$1;
#X obj 270 -230 hradio 15 1 0 6 empty empty empty 0 -6 0 8 #fcfcfc
#000000 #000000 1;
#X obj 200 -320 gemhead;
#X msg 230 -240 1;
#X obj 200 -100 square 0.5;
#X obj 200 -130 translateXYZ 1 0 0;
#X obj 360 -210 pix_image;
#X obj 370 -290 loadbang;
#X obj 360 -180 pix_texture;
#X msg 430 -210 env \$1;
#X obj 430 -230 hradio 15 1 0 6 empty empty empty 0 -6 0 8 #fcfcfc
#000000 #000000 1;
#X obj 360 -320 gemhead;
#X msg 390 -240 1;
#X obj 360 -100 square 0.5;
#X obj 520 -210 pix_image;
#X obj 530 -290 loadbang;
#X obj 520 -180 pix_texture;
#X msg 590 -210 env \$1;
#X obj 590 -230 hradio 15 1 0 6 empty empty empty 0 -6 0 8 #fcfcfc
#000000 #000000 1;
#X obj 520 -320 gemhead;
#X msg 550 -240 1;
#X obj 520 -100 square 0.5;
#X obj 360 -130 translateXYZ 2 0 0;
#X obj 520 -130 translateXYZ 3 0 0;
#X obj 40 50 pix_image;
#X obj 50 -30 loadbang;
#X obj 40 80 pix_texture;
#X msg 110 50 env \$1;
#X obj 110 30 hradio 15 1 0 6 empty empty empty 0 -6 0 8 #fcfcfc #000000
#000000 1;
#X obj 40 -60 gemhead;
#X msg 70 20 1;
#X obj 40 160 square 0.5;
#X obj 200 50 pix_image;
#X obj 210 -30 loadbang;
#X obj 200 80 pix_texture;
#X msg 270 50 env \$1;
#X obj 270 30 hradio 15 1 0 6 empty empty empty 0 -6 0 8 #fcfcfc #000000
#000000 1;
#X obj 200 -60 gemhead;
#X msg 230 20 1;
#X obj 200 160 square 0.5;
#X obj 360 50 pix_image;
#X obj 370 -30 loadbang;
#X obj 360 80 pix_texture;
#X msg 430 50 env \$1;
#X obj 430 30 hradio 15 1 0 6 empty empty empty 0 -6 0 8 #fcfcfc #000000
#000000 1;
#X obj 360 -60 gemhead;
#X msg 390 20 1;
#X obj 360 160 square 0.5;
#X obj 520 50 pix_image;
#X obj 530 -30 loadbang;
#X obj 520 80 pix_texture;
#X msg 590 50 env \$1;
#X obj 590 30 hradio 15 1 0 6 empty empty empty 0 -6 0 8 #fcfcfc #000000
#000000 1;
#X obj 520 -60 gemhead;
#X msg 550 20 1;
#X obj 520 160 square 0.5;
#X msg 50 0 open Art/Ice.png;
#X msg 210 0 open Art/Ice.png;
#X msg 370 0 open Art/Ice.png;
#X msg 530 0 open Art/Ice.png;
#X obj 680 -210 pix_image;
#X obj 690 -290 loadbang;
#X obj 680 -180 pix_texture;
#X msg 750 -210 env \$1;
#X obj 750 -230 hradio 15 1 0 6 empty empty empty 0 -6 0 8 #fcfcfc
#000000 #000000 1;
#X obj 680 -320 gemhead;
#X msg 710 -240 1;
#X obj 680 -100 square 0.5;
#X obj 840 -210 pix_image;
#X obj 850 -290 loadbang;
#X obj 840 -180 pix_texture;
#X msg 910 -210 env \$1;
#X obj 910 -230 hradio 15 1 0 6 empty empty empty 0 -6 0 8 #fcfcfc
#000000 #000000 1;
#X obj 840 -320 gemhead;
#X msg 870 -240 1;
#X obj 840 -100 square 0.5;
#X obj 1000 -210 pix_image;
#X obj 1010 -290 loadbang;
#X obj 1000 -180 pix_texture;
#X msg 1070 -210 env \$1;
#X obj 1070 -230 hradio 15 1 0 6 empty empty empty 0 -6 0 8 #fcfcfc
#000000 #000000 1;
#X obj 1000 -320 gemhead;
#X msg 1030 -240 1;
#X obj 1000 -100 square 0.5;
#X msg 1010 -260 open Art/Ice.png;
#X obj 680 -130 translateXYZ -1 0 0;
#X obj 840 -130 translateXYZ -2 0 0;
#X obj 1000 -130 translateXYZ -3 0 0;
#X obj 40 130 translateXYZ 0 1 0;
#X obj 200 130 translateXYZ 1 1 0;
#X obj 360 130 translateXYZ 2 1 0;
#X obj 520 130 translateXYZ 3 1 0;
#X obj 680 50 pix_image;
#X obj 690 -30 loadbang;
#X obj 680 80 pix_texture;
#X msg 750 50 env \$1;
#X obj 750 30 hradio 15 1 0 6 empty empty empty 0 -6 0 8 #fcfcfc #000000
#000000 1;
#X obj 680 -60 gemhead;
#X msg 710 20 1;
#X obj 680 160 square 0.5;
#X obj 840 50 pix_image;
#X obj 850 -30 loadbang;
#X obj 840 80 pix_texture;
#X msg 910 50 env \$1;
#X obj 910 30 hradio 15 1 0 6 empty empty empty 0 -6 0 8 #fcfcfc #000000
#000000 1;
#X obj 840 -60 gemhead;
#X msg 870 20 1;
#X obj 840 160 square 0.5;
#X obj 1000 50 pix_image;
#X obj 1010 -30 loadbang;
#X obj 1000 80 pix_texture;
#X msg 1070 50 env \$1;
#X obj 1070 30 hradio 15 1 0 6 empty empty empty 0 -6 0 8 #fcfcfc #000000
#000000 1;
#X obj 1000 -60 gemhead;
#X msg 1030 20 1;
#X obj 1000 160 square 0.5;
#X msg 690 0 open Art/Ice.png;
#X msg 850 0 open Art/Ice.png;
#X msg 1010 0 open Art/Ice.png;
#X obj 680 130 translateXYZ -1 1 0;
#X obj 840 130 translateXYZ -2 1 0;
#X obj 1000 130 translateXYZ -3 1 0;
#X obj 40 300 pix_image;
#X obj 50 220 loadbang;
#X obj 40 330 pix_texture;
#X msg 110 300 env \$1;
#X obj 110 280 hradio 15 1 0 6 empty empty empty 0 -6 0 8 #fcfcfc #000000
#000000 1;
#X obj 40 190 gemhead;
#X msg 70 270 1;
#X obj 40 410 square 0.5;
#X obj 200 300 pix_image;
#X obj 210 220 loadbang;
#X obj 200 330 pix_texture;
#X msg 270 300 env \$1;
#X obj 270 280 hradio 15 1 0 6 empty empty empty 0 -6 0 8 #fcfcfc #000000
#000000 1;
#X obj 200 190 gemhead;
#X msg 230 270 1;
#X obj 200 410 square 0.5;
#X obj 360 300 pix_image;
#X obj 370 220 loadbang;
#X obj 360 330 pix_texture;
#X msg 430 300 env \$1;
#X obj 430 280 hradio 15 1 0 6 empty empty empty 0 -6 0 8 #fcfcfc #000000
#000000 1;
#X obj 360 190 gemhead;
#X msg 390 270 1;
#X obj 360 410 square 0.5;
#X obj 520 300 pix_image;
#X obj 530 220 loadbang;
#X obj 520 330 pix_texture;
#X msg 590 300 env \$1;
#X obj 590 280 hradio 15 1 0 6 empty empty empty 0 -6 0 8 #fcfcfc #000000
#000000 1;
#X obj 520 190 gemhead;
#X msg 550 270 1;
#X obj 520 410 square 0.5;
#X msg 50 250 open Art/Ice.png;
#X msg 210 250 open Art/Ice.png;
#X msg 370 250 open Art/Ice.png;
#X msg 530 250 open Art/Ice.png;
#X obj 680 300 pix_image;
#X obj 690 220 loadbang;
#X obj 680 330 pix_texture;
#X msg 750 300 env \$1;
#X obj 750 280 hradio 15 1 0 6 empty empty empty 0 -6 0 8 #fcfcfc #000000
#000000 1;
#X obj 680 190 gemhead;
#X msg 710 270 1;
#X obj 680 410 square 0.5;
#X obj 840 300 pix_image;
#X obj 850 220 loadbang;
#X obj 840 330 pix_texture;
#X msg 910 300 env \$1;
#X obj 910 280 hradio 15 1 0 6 empty empty empty 0 -6 0 8 #fcfcfc #000000
#000000 1;
#X obj 840 190 gemhead;
#X msg 870 270 1;
#X obj 840 410 square 0.5;
#X obj 1000 300 pix_image;
#X obj 1010 220 loadbang;
#X obj 1000 330 pix_texture;
#X msg 1070 300 env \$1;
#X obj 1070 280 hradio 15 1 0 6 empty empty empty 0 -6 0 8 #fcfcfc
#000000 #000000 1;
#X obj 1000 190 gemhead;
#X msg 1030 270 1;
#X obj 1000 410 square 0.5;
#X msg 690 250 open Art/Ice.png;
#X msg 850 250 open Art/Ice.png;
#X msg 1010 250 open Art/Ice.png;
#X obj 40 380 translateXYZ 0 2 0;
#X obj 200 380 translateXYZ 1 2 0;
#X obj 360 380 translateXYZ 2 2 0;
#X obj 520 380 translateXYZ 3 2 0;
#X obj 680 380 translateXYZ -1 2 0;
#X obj 840 380 translateXYZ -2 2 0;
#X obj 1000 380 translateXYZ -3 2 0;
#X obj 1180 -210 pix_image;
#X obj 1190 -290 loadbang;
#X obj 1180 -180 pix_texture;
#X msg 1250 -210 env \$1;
#X obj 1250 -230 hradio 15 1 0 6 empty empty empty 0 -6 0 8 #fcfcfc
#000000 #000000 1;
#X obj 1180 -320 gemhead;
#X msg 1210 -240 1;
#X obj 1180 -100 square 0.5;
#X obj 1340 -210 pix_image;
#X obj 1350 -290 loadbang;
#X obj 1340 -180 pix_texture;
#X msg 1410 -210 env \$1;
#X obj 1410 -230 hradio 15 1 0 6 empty empty empty 0 -6 0 8 #fcfcfc
#000000 #000000 1;
#X obj 1340 -320 gemhead;
#X msg 1370 -240 1;
#X obj 1340 -100 square 0.5;
#X obj 1500 -210 pix_image;
#X obj 1510 -290 loadbang;
#X obj 1500 -180 pix_texture;
#X msg 1570 -210 env \$1;
#X obj 1570 -230 hradio 15 1 0 6 empty empty empty 0 -6 0 8 #fcfcfc
#000000 #000000 1;
#X obj 1500 -320 gemhead;
#X msg 1530 -240 1;
#X obj 1500 -100 square 0.5;
#X obj 1660 -210 pix_image;
#X obj 1670 -290 loadbang;
#X obj 1660 -180 pix_texture;
#X msg 1730 -210 env \$1;
#X obj 1730 -230 hradio 15 1 0 6 empty empty empty 0 -6 0 8 #fcfcfc
#000000 #000000 1;
#X obj 1660 -320 gemhead;
#X msg 1690 -240 1;
#X obj 1660 -100 square 0.5;
#X msg 1190 -260 open Art/Ice.png;
#X msg 1350 -260 open Art/Ice.png;
#X msg 1510 -260 open Art/Ice.png;
#X msg 1670 -260 open Art/Ice.png;
#X obj 1820 -210 pix_image;
#X obj 1830 -290 loadbang;
#X obj 1820 -180 pix_texture;
#X msg 1890 -210 env \$1;
#X obj 1890 -230 hradio 15 1 0 6 empty empty empty 0 -6 0 8 #fcfcfc
#000000 #000000 1;
#X obj 1820 -320 gemhead;
#X msg 1850 -240 1;
#X obj 1820 -100 square 0.5;
#X obj 1980 -210 pix_image;
#X obj 1990 -290 loadbang;
#X obj 1980 -180 pix_texture;
#X msg 2050 -210 env \$1;
#X obj 2050 -230 hradio 15 1 0 6 empty empty empty 0 -6 0 8 #fcfcfc
#000000 #000000 1;
#X obj 1980 -320 gemhead;
#X msg 2010 -240 1;
#X obj 1980 -100 square 0.5;
#X obj 2140 -210 pix_image;
#X obj 2150 -290 loadbang;
#X obj 2140 -180 pix_texture;
#X msg 2210 -210 env \$1;
#X obj 2210 -230 hradio 15 1 0 6 empty empty empty 0 -6 0 8 #fcfcfc
#000000 #000000 1;
#X obj 2140 -320 gemhead;
#X msg 2170 -240 1;
#X obj 2140 -100 square 0.5;
#X msg 1830 -260 open Art/Ice.png;
#X msg 1990 -260 open Art/Ice.png;
#X msg 2150 -260 open Art/Ice.png;
#X obj 1180 50 pix_image;
#X obj 1190 -30 loadbang;
#X obj 1180 80 pix_texture;
#X msg 1250 50 env \$1;
#X obj 1250 30 hradio 15 1 0 6 empty empty empty 0 -6 0 8 #fcfcfc #000000
#000000 1;
#X obj 1180 -60 gemhead;
#X msg 1210 20 1;
#X obj 1180 160 square 0.5;
#X obj 1340 50 pix_image;
#X obj 1350 -30 loadbang;
#X obj 1340 80 pix_texture;
#X msg 1410 50 env \$1;
#X obj 1410 30 hradio 15 1 0 6 empty empty empty 0 -6 0 8 #fcfcfc #000000
#000000 1;
#X obj 1340 -60 gemhead;
#X msg 1370 20 1;
#X obj 1340 160 square 0.5;
#X obj 1500 50 pix_image;
#X obj 1510 -30 loadbang;
#X obj 1500 80 pix_texture;
#X msg 1570 50 env \$1;
#X obj 1570 30 hradio 15 1 0 6 empty empty empty 0 -6 0 8 #fcfcfc #000000
#000000 1;
#X obj 1500 -60 gemhead;
#X msg 1530 20 1;
#X obj 1500 160 square 0.5;
#X obj 1660 50 pix_image;
#X obj 1670 -30 loadbang;
#X obj 1660 80 pix_texture;
#X msg 1730 50 env \$1;
#X obj 1730 30 hradio 15 1 0 6 empty empty empty 0 -6 0 8 #fcfcfc #000000
#000000 1;
#X obj 1660 -60 gemhead;
#X msg 1690 20 1;
#X obj 1660 160 square 0.5;
#X msg 1190 0 open Art/Ice.png;
#X msg 1350 0 open Art/Ice.png;
#X msg 1510 0 open Art/Ice.png;
#X msg 1670 0 open Art/Ice.png;
#X obj 1820 50 pix_image;
#X obj 1830 -30 loadbang;
#X obj 1820 80 pix_texture;
#X msg 1890 50 env \$1;
#X obj 1890 30 hradio 15 1 0 6 empty empty empty 0 -6 0 8 #fcfcfc #000000
#000000 1;
#X obj 1820 -60 gemhead;
#X msg 1850 20 1;
#X obj 1820 160 square 0.5;
#X obj 1980 50 pix_image;
#X obj 1990 -30 loadbang;
#X obj 1980 80 pix_texture;
#X msg 2050 50 env \$1;
#X obj 2050 30 hradio 15 1 0 6 empty empty empty 0 -6 0 8 #fcfcfc #000000
#000000 1;
#X obj 1980 -60 gemhead;
#X msg 2010 20 1;
#X obj 1980 160 square 0.5;
#X obj 2140 50 pix_image;
#X obj 2150 -30 loadbang;
#X obj 2140 80 pix_texture;
#X msg 2210 50 env \$1;
#X obj 2210 30 hradio 15 1 0 6 empty empty empty 0 -6 0 8 #fcfcfc #000000
#000000 1;
#X obj 2140 -60 gemhead;
#X msg 2170 20 1;
#X obj 2140 160 square 0.5;
#X msg 1830 0 open Art/Ice.png;
#X msg 1990 0 open Art/Ice.png;
#X msg 2150 0 open Art/Ice.png;
#X obj 1180 300 pix_image;
#X obj 1190 220 loadbang;
#X obj 1180 330 pix_texture;
#X msg 1250 300 env \$1;
#X obj 1250 280 hradio 15 1 0 6 empty empty empty 0 -6 0 8 #fcfcfc
#000000 #000000 1;
#X obj 1180 190 gemhead;
#X msg 1210 270 1;
#X obj 1180 410 square 0.5;
#X obj 1340 300 pix_image;
#X obj 1350 220 loadbang;
#X obj 1340 330 pix_texture;
#X msg 1410 300 env \$1;
#X obj 1410 280 hradio 15 1 0 6 empty empty empty 0 -6 0 8 #fcfcfc
#000000 #000000 1;
#X obj 1340 190 gemhead;
#X msg 1370 270 1;
#X obj 1340 410 square 0.5;
#X obj 1500 300 pix_image;
#X obj 1510 220 loadbang;
#X obj 1500 330 pix_texture;
#X msg 1570 300 env \$1;
#X obj 1570 280 hradio 15 1 0 6 empty empty empty 0 -6 0 8 #fcfcfc
#000000 #000000 1;
#X obj 1500 190 gemhead;
#X msg 1530 270 1;
#X obj 1500 410 square 0.5;
#X obj 1660 300 pix_image;
#X obj 1670 220 loadbang;
#X obj 1660 330 pix_texture;
#X msg 1730 300 env \$1;
#X obj 1730 280 hradio 15 1 0 6 empty empty empty 0 -6 0 8 #fcfcfc
#000000 #000000 1;
#X obj 1660 190 gemhead;
#X msg 1690 270 1;
#X obj 1660 410 square 0.5;
#X msg 1190 250 open Art/Ice.png;
#X msg 1350 250 open Art/Ice.png;
#X msg 1510 250 open Art/Ice.png;
#X msg 1670 250 open Art/Ice.png;
#X obj 1820 300 pix_image;
#X obj 1830 220 loadbang;
#X obj 1820 330 pix_texture;
#X msg 1890 300 env \$1;
#X obj 1890 280 hradio 15 1 0 6 empty empty empty 0 -6 0 8 #fcfcfc
#000000 #000000 1;
#X obj 1820 190 gemhead;
#X msg 1850 270 1;
#X obj 1820 410 square 0.5;
#X obj 1980 300 pix_image;
#X obj 1990 220 loadbang;
#X obj 1980 330 pix_texture;
#X msg 2050 300 env \$1;
#X obj 2050 280 hradio 15 1 0 6 empty empty empty 0 -6 0 8 #fcfcfc
#000000 #000000 1;
#X obj 1980 190 gemhead;
#X msg 2010 270 1;
#X obj 1980 410 square 0.5;
#X obj 2140 300 pix_image;
#X obj 2150 220 loadbang;
#X obj 2140 330 pix_texture;
#X msg 2210 300 env \$1;
#X obj 2210 280 hradio 15 1 0 6 empty empty empty 0 -6 0 8 #fcfcfc
#000000 #000000 1;
#X obj 2140 190 gemhead;
#X obj 2140 355 colorRGB 1 1 0;
#X msg 2170 270 1;
#X obj 2140 410 square 0.5;
#X msg 1830 250 open Art/Ice.png;
#X msg 1990 250 open Art/Ice.png;
#X msg 2150 250 open Art/Ice.png;
#X obj 1180 -130 translateXYZ 0 3 0;
#X obj 1340 -130 translateXYZ 1 3 0;
#X obj 1500 -130 translateXYZ 2 3 0;
#X obj 1660 -130 translateXYZ 3 3 0;
#X obj 1820 -130 translateXYZ -1 3 0;
#X obj 1980 -130 translateXYZ -2 3 0;
#X obj 2140 -130 translateXYZ -3 3 0;
#X obj 2140 130 translateXYZ -3 -1 0;
#X obj 1980 130 translateXYZ -2 -1 0;
#X obj 1820 130 translateXYZ -1 -1 0;
#X obj 1660 130 translateXYZ 3 -1 0;
#X obj 1500 130 translateXYZ 2 -1 0;
#X obj 1340 130 translateXYZ 1 -1 0;
#X obj 1180 130 translateXYZ 0 -1 0;
#X obj 1180 380 translateXYZ 0 -2 0;
#X obj 1340 380 translateXYZ 1 -2 0;
#X obj 1500 380 translateXYZ 2 -2 0;
#X obj 1660 380 translateXYZ 3 -2 0;
#X obj 1820 380 translateXYZ -1 -2 0;
#X obj 1980 380 translateXYZ -2 -2 0;
#X obj 2140 380 translateXYZ -3 -2 0;
#X obj 40 550 pix_image;
#X obj 50 470 loadbang;
#X obj 40 580 pix_texture;
#X msg 110 550 env \$1;
#X obj 110 530 hradio 15 1 0 6 empty empty empty 0 -6 0 8 #fcfcfc #000000
#000000 1;
#X obj 40 440 gemhead;
#X msg 70 520 1;
#X obj 40 660 square 0.5;
#X obj 200 550 pix_image;
#X obj 210 470 loadbang;
#X obj 200 580 pix_texture;
#X msg 270 550 env \$1;
#X obj 270 530 hradio 15 1 0 6 empty empty empty 0 -6 0 8 #fcfcfc #000000
#000000 1;
#X obj 200 440 gemhead;
#X msg 230 520 1;
#X obj 200 660 square 0.5;
#X obj 360 550 pix_image;
#X obj 370 470 loadbang;
#X obj 360 580 pix_texture;
#X msg 430 550 env \$1;
#X obj 430 530 hradio 15 1 0 6 empty empty empty 0 -6 0 8 #fcfcfc #000000
#000000 1;
#X obj 360 440 gemhead;
#X msg 390 520 1;
#X obj 360 660 square 0.5;
#X obj 520 550 pix_image;
#X obj 530 470 loadbang;
#X obj 520 580 pix_texture;
#X msg 590 550 env \$1;
#X obj 590 530 hradio 15 1 0 6 empty empty empty 0 -6 0 8 #fcfcfc #000000
#000000 1;
#X obj 520 440 gemhead;
#X msg 550 520 1;
#X obj 520 660 square 0.5;
#X msg 50 500 open Art/Ice.png;
#X msg 210 500 open Art/Ice.png;
#X msg 370 500 open Art/Ice.png;
#X msg 530 500 open Art/Ice.png;
#X obj 680 550 pix_image;
#X obj 690 470 loadbang;
#X obj 680 580 pix_texture;
#X msg 750 550 env \$1;
#X obj 750 530 hradio 15 1 0 6 empty empty empty 0 -6 0 8 #fcfcfc #000000
#000000 1;
#X obj 680 440 gemhead;
#X msg 710 520 1;
#X obj 680 660 square 0.5;
#X obj 840 550 pix_image;
#X obj 850 470 loadbang;
#X obj 840 580 pix_texture;
#X msg 910 550 env \$1;
#X obj 910 530 hradio 15 1 0 6 empty empty empty 0 -6 0 8 #fcfcfc #000000
#000000 1;
#X obj 840 440 gemhead;
#X msg 870 520 1;
#X obj 840 660 square 0.5;
#X obj 1000 550 pix_image;
#X obj 1010 470 loadbang;
#X obj 1000 580 pix_texture;
#X msg 1070 550 env \$1;
#X obj 1070 530 hradio 15 1 0 6 empty empty empty 0 -6 0 8 #fcfcfc
#000000 #000000 1;
#X obj 1000 440 gemhead;
#X msg 1030 520 1;
#X obj 1000 660 square 0.5;
#X msg 690 500 open Art/Ice.png;
#X msg 850 500 open Art/Ice.png;
#X msg 1010 500 open Art/Ice.png;
#X obj 40 630 translateXYZ 0 -3 0;
#X obj 200 630 translateXYZ 1 -3 0;
#X obj 520 630 translateXYZ 3 -3 0;
#X obj 680 630 translateXYZ -1 -3 0;
#X obj 840 630 translateXYZ -2 -3 0;
#X obj 360 630 translateXYZ 2 -3 0;
#X obj 1000 630 translateXYZ -3 -3 0;
#X msg 850 -260 open Art/Ice.png;
#X msg 690 -260 open Art/Ice.png;
#X msg 530 -260 open Art/Ice.png;
#X msg 370 -260 open Art/Ice.png;
#X msg 210 -260 open Art/Ice.png;
#X msg 50 -260 open Art/Ice.png;
#X obj 41 -155 colorRGB 1 1 1;
#X obj 200 -155 colorRGB 1 1 1;
#X obj 360 -155 colorRGB 1 1 1;
#X obj 520 -155 colorRGB 1 1 1;
#X obj 680 -155 colorRGB 1 1 1;
#X obj 840 -155 colorRGB 1 1 1;
#X obj 1000 -155 colorRGB 1 1 1;
#X obj 1180 -160 colorRGB 1 1 1;
#X obj 1340 -155 colorRGB 1 1 1;
#X obj 1500 -155 colorRGB 1 1 1;
#X obj 1660 -155 colorRGB 1 1 1;
#X obj 1820 -155 colorRGB 1 1 1;
#X obj 1980 -155 colorRGB 1 1 1;
#X obj 2140 -155 colorRGB 1 1 1;
#X obj 2140 105 colorRGB 1 1 1;
#X obj 1980 105 colorRGB 1 1 1;
#X obj 1820 105 colorRGB 1 1 1;
#X obj 1660 105 colorRGB 1 1 1;
#X obj 1500 105 colorRGB 1 1 1;
#X obj 1340 105 colorRGB 1 1 1;
#X obj 1180 105 colorRGB 1 1 1;
#X obj 1000 105 colorRGB 1 1 1;
#X obj 840 110 colorRGB 1 1 1;
#X obj 680 105 colorRGB 1 1 1;
#X obj 520 105 colorRGB 1 1 1;
#X obj 360 105 colorRGB 1 1 1;
#X obj 200 105 colorRGB 1 1 1;
#X obj 40 105 colorRGB 1 1 1;
#X obj 40 355 colorRGB 1 1 1;
#X obj 40 605 colorRGB 1 1 1;
#X obj 200 605 colorRGB 1 1 1;
#X obj 200 355 colorRGB 1 1 1;
#X obj 360 355 colorRGB 1 1 1;
#X obj 360 605 colorRGB 1 1 1;
#X obj 520 605 colorRGB 1 1 1;
#X obj 520 355 colorRGB 1 1 1;
#X obj 680 355 colorRGB 1 1 1;
#X obj 680 605 colorRGB 1 1 1;
#X obj 840 605 colorRGB 1 1 1;
#X obj 840 355 colorRGB 1 1 1;
#X obj 1000 355 colorRGB 1 1 1;
#X obj 1000 605 colorRGB 1 1 1;
#X obj 1180 355 colorRGB 1 1 1;
#X obj 1340 355 colorRGB 1 1 1;
#X obj 1500 355 colorRGB 1 1 1;
#X obj 1660 355 colorRGB 1 1 1;
#X obj 1820 355 colorRGB 1 1 1;
#X obj 1980 355 colorRGB 1 1 1;
#X obj 40 800 pix_image;
#X obj 50 720 loadbang;
#X obj 40 830 pix_texture;
#X msg 110 800 env \$1;
#X obj 110 780 hradio 15 1 0 6 empty empty empty 0 -6 0 8 #fcfcfc #000000
#000000 1;
#X obj 40 690 gemhead;
#X msg 70 770 1;
#X obj 40 910 square 0.5;
#X obj 40 855 colorRGB 1 1 1;
#X msg 50 750 open Art/Snow.png;
#X obj 40 880 translateXYZ 0 -4 0;
#X obj 200 810 pix_image;
#X obj 210 730 loadbang;
#X obj 200 840 pix_texture;
#X msg 270 810 env \$1;
#X obj 270 790 hradio 15 1 0 6 empty empty empty 0 -6 0 8 #fcfcfc #000000
#000000 1;
#X obj 200 700 gemhead;
#X msg 230 780 1;
#X obj 200 920 square 0.5;
#X obj 200 865 colorRGB 1 1 1;
#X msg 210 760 open Art/Snow.png;
#X obj 360 810 pix_image;
#X obj 370 730 loadbang;
#X obj 360 840 pix_texture;
#X msg 430 810 env \$1;
#X obj 430 790 hradio 15 1 0 6 empty empty empty 0 -6 0 8 #fcfcfc #000000
#000000 1;
#X obj 360 700 gemhead;
#X msg 390 780 1;
#X obj 360 920 square 0.5;
#X obj 360 865 colorRGB 1 1 1;
#X msg 370 760 open Art/Snow.png;
#X obj 520 810 pix_image;
#X obj 530 730 loadbang;
#X obj 520 840 pix_texture;
#X msg 590 810 env \$1;
#X obj 590 790 hradio 15 1 0 6 empty empty empty 0 -6 0 8 #fcfcfc #000000
#000000 1;
#X obj 520 700 gemhead;
#X msg 550 780 1;
#X obj 520 920 square 0.5;
#X obj 520 865 colorRGB 1 1 1;
#X msg 530 760 open Art/Snow.png;
#X obj 680 810 pix_image;
#X obj 690 730 loadbang;
#X obj 680 840 pix_texture;
#X msg 750 810 env \$1;
#X obj 750 790 hradio 15 1 0 6 empty empty empty 0 -6 0 8 #fcfcfc #000000
#000000 1;
#X obj 680 700 gemhead;
#X msg 710 780 1;
#X obj 680 920 square 0.5;
#X obj 680 865 colorRGB 1 1 1;
#X msg 690 760 open Art/Snow.png;
#X obj 840 810 pix_image;
#X obj 850 730 loadbang;
#X obj 840 840 pix_texture;
#X msg 910 810 env \$1;
#X obj 910 790 hradio 15 1 0 6 empty empty empty 0 -6 0 8 #fcfcfc #000000
#000000 1;
#X obj 840 700 gemhead;
#X msg 870 780 1;
#X obj 840 920 square 0.5;
#X obj 840 865 colorRGB 1 1 1;
#X msg 850 760 open Art/Snow.png;
#X obj 1000 810 pix_image;
#X obj 1010 730 loadbang;
#X obj 1000 840 pix_texture;
#X msg 1070 810 env \$1;
#X obj 1070 790 hradio 15 1 0 6 empty empty empty 0 -6 0 8 #fcfcfc
#000000 #000000 1;
#X obj 1000 700 gemhead;
#X msg 1030 780 1;
#X obj 1000 920 square 0.5;
#X obj 1000 865 colorRGB 1 1 1;
#X msg 1010 760 open Art/Snow.png;
#X obj 200 890 translateXYZ 1 -4 0;
#X obj 360 890 translateXYZ 2 -4 0;
#X obj 520 890 translateXYZ 3 -4 0;
#X obj 680 890 translateXYZ -1 -4 0;
#X obj 840 890 translateXYZ -2 -4 0;
#X obj 1000 890 translateXYZ -3 -4 0;
#X obj 1190 810 pix_image;
#X obj 1200 730 loadbang;
#X obj 1190 840 pix_texture;
#X msg 1260 810 env \$1;
#X obj 1260 790 hradio 15 1 0 6 empty empty empty 0 -6 0 8 #fcfcfc
#000000 #000000 1;
#X obj 1190 700 gemhead;
#X msg 1220 780 1;
#X obj 1190 920 square 0.5;
#X obj 1190 865 colorRGB 1 1 1;
#X msg 1200 760 open Art/Snow.png;
#X obj 1350 820 pix_image;
#X obj 1360 740 loadbang;
#X obj 1350 850 pix_texture;
#X msg 1420 820 env \$1;
#X obj 1420 800 hradio 15 1 0 6 empty empty empty 0 -6 0 8 #fcfcfc
#000000 #000000 1;
#X obj 1350 710 gemhead;
#X msg 1380 790 1;
#X obj 1350 930 square 0.5;
#X obj 1350 875 colorRGB 1 1 1;
#X msg 1360 770 open Art/Snow.png;
#X obj 1510 820 pix_image;
#X obj 1520 740 loadbang;
#X obj 1510 850 pix_texture;
#X msg 1580 820 env \$1;
#X obj 1580 800 hradio 15 1 0 6 empty empty empty 0 -6 0 8 #fcfcfc
#000000 #000000 1;
#X obj 1510 710 gemhead;
#X msg 1540 790 1;
#X obj 1510 930 square 0.5;
#X obj 1510 875 colorRGB 1 1 1;
#X msg 1520 770 open Art/Snow.png;
#X obj 1670 820 pix_image;
#X obj 1680 740 loadbang;
#X obj 1670 850 pix_texture;
#X msg 1740 820 env \$1;
#X obj 1740 800 hradio 15 1 0 6 empty empty empty 0 -6 0 8 #fcfcfc
#000000 #000000 1;
#X obj 1670 710 gemhead;
#X msg 1700 790 1;
#X obj 1670 930 square 0.5;
#X obj 1670 875 colorRGB 1 1 1;
#X msg 1680 770 open Art/Snow.png;
#X obj 1830 820 pix_image;
#X obj 1840 740 loadbang;
#X obj 1830 850 pix_texture;
#X msg 1900 820 env \$1;
#X obj 1900 800 hradio 15 1 0 6 empty empty empty 0 -6 0 8 #fcfcfc
#000000 #000000 1;
#X obj 1830 710 gemhead;
#X msg 1860 790 1;
#X obj 1830 930 square 0.5;
#X obj 1830 875 colorRGB 1 1 1;
#X msg 1840 770 open Art/Snow.png;
#X obj 1990 820 pix_image;
#X obj 2000 740 loadbang;
#X obj 1990 850 pix_texture;
#X msg 2060 820 env \$1;
#X obj 2060 800 hradio 15 1 0 6 empty empty empty 0 -6 0 8 #fcfcfc
#000000 #000000 1;
#X obj 1990 710 gemhead;
#X msg 2020 790 1;
#X obj 1990 930 square 0.5;
#X obj 1990 875 colorRGB 1 1 1;
#X msg 2000 770 open Art/Snow.png;
#X obj 2150 820 pix_image;
#X obj 2160 740 loadbang;
#X obj 2150 850 pix_texture;
#X msg 2220 820 env \$1;
#X obj 2220 800 hradio 15 1 0 6 empty empty empty 0 -6 0 8 #fcfcfc
#000000 #000000 1;
#X obj 2150 710 gemhead;
#X msg 2180 790 1;
#X obj 2150 930 square 0.5;
#X obj 2150 875 colorRGB 1 1 1;
#X msg 2160 770 open Art/Snow.png;
#X obj 1190 890 translateXYZ 0 4 0;
#X obj 1350 900 translateXYZ 1 4 0;
#X obj 1510 900 translateXYZ 2 4 0;
#X obj 1670 900 translateXYZ 3 4 0;
#X obj 1830 900 translateXYZ -1 4 0;
#X obj 1990 900 translateXYZ -2 4 0;
#X obj 2150 900 translateXYZ -3 4 0;
#X obj 40 1050 pix_image;
#X obj 50 970 loadbang;
#X obj 40 1080 pix_texture;
#X msg 110 1050 env \$1;
#X obj 110 1030 hradio 15 1 0 6 empty empty empty 0 -6 0 8 #fcfcfc
#000000 #000000 1;
#X obj 40 940 gemhead;
#X msg 70 1020 1;
#X obj 40 1160 square 0.5;
#X obj 40 1105 colorRGB 1 1 1;
#X msg 50 1000 open Art/Snow.png;
#X obj 200 1060 pix_image;
#X obj 210 980 loadbang;
#X obj 200 1090 pix_texture;
#X msg 270 1060 env \$1;
#X obj 270 1040 hradio 15 1 0 6 empty empty empty 0 -6 0 8 #fcfcfc
#000000 #000000 1;
#X obj 200 950 gemhead;
#X msg 230 1030 1;
#X obj 200 1170 square 0.5;
#X obj 200 1115 colorRGB 1 1 1;
#X msg 210 1010 open Art/Snow.png;
#X obj 360 1060 pix_image;
#X obj 370 980 loadbang;
#X obj 360 1090 pix_texture;
#X msg 430 1060 env \$1;
#X obj 430 1040 hradio 15 1 0 6 empty empty empty 0 -6 0 8 #fcfcfc
#000000 #000000 1;
#X obj 360 950 gemhead;
#X msg 390 1030 1;
#X obj 360 1170 square 0.5;
#X obj 360 1115 colorRGB 1 1 1;
#X msg 370 1010 open Art/Snow.png;
#X obj 520 1060 pix_image;
#X obj 530 980 loadbang;
#X obj 520 1090 pix_texture;
#X msg 590 1060 env \$1;
#X obj 590 1040 hradio 15 1 0 6 empty empty empty 0 -6 0 8 #fcfcfc
#000000 #000000 1;
#X obj 520 950 gemhead;
#X msg 550 1030 1;
#X obj 520 1170 square 0.5;
#X obj 520 1115 colorRGB 1 1 1;
#X msg 530 1010 open Art/Snow.png;
#X obj 680 1060 pix_image;
#X obj 690 980 loadbang;
#X obj 680 1090 pix_texture;
#X msg 750 1060 env \$1;
#X obj 750 1040 hradio 15 1 0 6 empty empty empty 0 -6 0 8 #fcfcfc
#000000 #000000 1;
#X obj 680 950 gemhead;
#X msg 710 1030 1;
#X obj 680 1170 square 0.5;
#X obj 680 1115 colorRGB 1 1 1;
#X msg 690 1010 open Art/Snow.png;
#X obj 840 1060 pix_image;
#X obj 850 980 loadbang;
#X obj 840 1090 pix_texture;
#X msg 910 1060 env \$1;
#X obj 910 1040 hradio 15 1 0 6 empty empty empty 0 -6 0 8 #fcfcfc
#000000 #000000 1;
#X obj 840 950 gemhead;
#X msg 870 1030 1;
#X obj 840 1170 square 0.5;
#X obj 840 1115 colorRGB 1 1 1;
#X msg 850 1010 open Art/Snow.png;
#X obj 1000 1060 pix_image;
#X obj 1010 980 loadbang;
#X obj 1000 1090 pix_texture;
#X msg 1070 1060 env \$1;
#X obj 1070 1040 hradio 15 1 0 6 empty empty empty 0 -6 0 8 #fcfcfc
#000000 #000000 1;
#X obj 1000 950 gemhead;
#X msg 1030 1030 1;
#X obj 1000 1170 square 0.5;
#X obj 1000 1115 colorRGB 1 1 1;
#X msg 1010 1010 open Art/Snow.png;
#X obj 1190 1060 pix_image;
#X obj 1200 980 loadbang;
#X obj 1190 1090 pix_texture;
#X msg 1260 1060 env \$1;
#X obj 1260 1040 hradio 15 1 0 6 empty empty empty 0 -6 0 8 #fcfcfc
#000000 #000000 1;
#X obj 1190 950 gemhead;
#X msg 1220 1030 1;
#X obj 1190 1170 square 0.5;
#X obj 1190 1115 colorRGB 1 1 1;
#X msg 1200 1010 open Art/Snow.png;
#X obj 1350 1070 pix_image;
#X obj 1360 990 loadbang;
#X obj 1350 1100 pix_texture;
#X msg 1420 1070 env \$1;
#X obj 1420 1050 hradio 15 1 0 6 empty empty empty 0 -6 0 8 #fcfcfc
#000000 #000000 1;
#X obj 1350 960 gemhead;
#X msg 1380 1040 1;
#X obj 1350 1180 square 0.5;
#X obj 1350 1125 colorRGB 1 1 1;
#X msg 1360 1020 open Art/Snow.png;
#X obj 1510 1070 pix_image;
#X obj 1520 990 loadbang;
#X obj 1510 1100 pix_texture;
#X msg 1580 1070 env \$1;
#X obj 1580 1050 hradio 15 1 0 6 empty empty empty 0 -6 0 8 #fcfcfc
#000000 #000000 1;
#X obj 1510 960 gemhead;
#X msg 1540 1040 1;
#X obj 1510 1180 square 0.5;
#X obj 1510 1125 colorRGB 1 1 1;
#X msg 1520 1020 open Art/Snow.png;
#X obj 1670 1070 pix_image;
#X obj 1680 990 loadbang;
#X obj 1670 1100 pix_texture;
#X msg 1740 1070 env \$1;
#X obj 1740 1050 hradio 15 1 0 6 empty empty empty 0 -6 0 8 #fcfcfc
#000000 #000000 1;
#X obj 1670 960 gemhead;
#X msg 1700 1040 1;
#X obj 1670 1180 square 0.5;
#X obj 1670 1125 colorRGB 1 1 1;
#X msg 1680 1020 open Art/Snow.png;
#X obj 1830 1070 pix_image;
#X obj 1840 990 loadbang;
#X obj 1830 1100 pix_texture;
#X msg 1900 1070 env \$1;
#X obj 1900 1050 hradio 15 1 0 6 empty empty empty 0 -6 0 8 #fcfcfc
#000000 #000000 1;
#X obj 1830 960 gemhead;
#X msg 1860 1040 1;
#X obj 1830 1180 square 0.5;
#X obj 1830 1125 colorRGB 1 1 1;
#X msg 1840 1020 open Art/Snow.png;
#X obj 1990 1070 pix_image;
#X obj 2000 990 loadbang;
#X obj 1990 1100 pix_texture;
#X msg 2060 1070 env \$1;
#X obj 2060 1050 hradio 15 1 0 6 empty empty empty 0 -6 0 8 #fcfcfc
#000000 #000000 1;
#X obj 1990 960 gemhead;
#X msg 2020 1040 1;
#X obj 1990 1180 square 0.5;
#X obj 1990 1125 colorRGB 1 1 1;
#X msg 2000 1020 open Art/Snow.png;
#X obj 2150 1070 pix_image;
#X obj 2160 990 loadbang;
#X obj 2150 1100 pix_texture;
#X msg 2220 1070 env \$1;
#X obj 2220 1050 hradio 15 1 0 6 empty empty empty 0 -6 0 8 #fcfcfc
#000000 #000000 1;
#X obj 2150 960 gemhead;
#X msg 2180 1040 1;
#X obj 2150 1180 square 0.5;
#X obj 2150 1125 colorRGB 1 1 1;
#X msg 2160 1020 open Art/Snow.png;
#X obj 40 1130 translateXYZ 4 -3 0;
#X obj 200 1140 translateXYZ 4 -2 0;
#X obj 360 1140 translateXYZ 4 -1 0;
#X obj 520 1140 translateXYZ 4 0 0;
#X obj 1000 1140 translateXYZ 4 3 0;
#X obj 1350 1150 translateXYZ -4 -2 0;
#X obj 1190 1140 translateXYZ -4 -3 0;
#X obj 1510 1150 translateXYZ -4 -1 0;
#X obj 1670 1150 translateXYZ -4 0 0;
#X obj 1830 1150 translateXYZ -4 1 0;
#X obj 1990 1150 translateXYZ -4 2 0;
#X obj 2150 1150 translateXYZ -4 3 0;
#X obj 680 1140 translateXYZ 4 1 0;
#X obj 840 1140 translateXYZ 4 2 0;
#X obj 1510 560 pix_image;
#X obj 1520 480 loadbang;
#X obj 1510 590 pix_texture;
#X msg 1580 560 env \$1;
#X obj 1580 540 hradio 15 1 0 6 empty empty empty 0 -6 0 8 #fcfcfc
#000000 #000000 1;
#X obj 1510 450 gemhead;
#X msg 1540 530 1;
#X obj 1510 615 colorRGB 1 1 1;
#X obj 1670 570 pix_image;
#X obj 1680 490 loadbang;
#X obj 1670 600 pix_texture;
#X msg 1740 570 env \$1;
#X obj 1740 550 hradio 15 1 0 6 empty empty empty 0 -6 0 8 #fcfcfc
#000000 #000000 1;
#X obj 1670 460 gemhead;
#X msg 1700 540 1;
#X obj 1670 625 colorRGB 1 1 1;
#X obj 1830 570 pix_image;
#X obj 1840 490 loadbang;
#X obj 1830 600 pix_texture;
#X msg 1900 570 env \$1;
#X obj 1900 550 hradio 15 1 0 6 empty empty empty 0 -6 0 8 #fcfcfc
#000000 #000000 1;
#X obj 1830 460 gemhead;
#X msg 1860 540 1;
#X obj 1830 625 colorRGB 1 1 1;
#X obj 1990 570 pix_image;
#X obj 2000 490 loadbang;
#X obj 1990 600 pix_texture;
#X msg 2060 570 env \$1;
#X obj 2060 550 hradio 15 1 0 6 empty empty empty 0 -6 0 8 #fcfcfc
#000000 #000000 1;
#X obj 1990 460 gemhead;
#X msg 2020 540 1;
#X obj 1990 625 colorRGB 1 1 1;
#X obj 1510 670 square 0.25;
#X obj 1510 640 translateXYZ 3.75 3.75 0;
#X obj 1670 650 translateXYZ -3.75 -3.75 0;
#X obj 1670 680 square 0.25;
#X obj 1830 650 translateXYZ 3.75 -3.75 0;
#X obj 1830 680 square 0.25;
#X obj 1990 650 translateXYZ -3.75 3.75 0;
#X obj 1990 680 square 0.25;
#X msg 1520 510 open Art/Cube2.png;
#X msg 1680 520 open Art/Cube2.png;
#X msg 1840 520 open Art/Cube2.png;
#X msg 2000 520 open Art/Cube2.png;
#X connect 0 0 2 0;
#X connect 1 0 490 0;
#X connect 1 0 6 0;
#X connect 2 0 491 0;
#X connect 3 0 2 0;
#X connect 4 0 3 0;
#X connect 4 0 2 0;
#X connect 5 0 0 0;
#X connect 6 0 4 0;
#X connect 8 0 7 0;
#X connect 9 0 11 0;
#X connect 10 0 489 0;
#X connect 10 0 15 0;
#X connect 11 0 492 0;
#X connect 12 0 11 0;
#X connect 13 0 12 0;
#X connect 13 0 11 0;
#X connect 14 0 9 0;
#X connect 15 0 13 0;
#X connect 17 0 16 0;
#X connect 18 0 20 0;
#X connect 19 0 488 0;
#X connect 19 0 24 0;
#X connect 20 0 493 0;
#X connect 21 0 20 0;
#X connect 22 0 21 0;
#X connect 22 0 20 0;
#X connect 23 0 18 0;
#X connect 24 0 22 0;
#X connect 26 0 28 0;
#X connect 27 0 487 0;
#X connect 27 0 32 0;
#X connect 28 0 494 0;
#X connect 29 0 28 0;
#X connect 30 0 29 0;
#X connect 30 0 28 0;
#X connect 31 0 26 0;
#X connect 32 0 30 0;
#X connect 34 0 25 0;
#X connect 35 0 33 0;
#X connect 36 0 38 0;
#X connect 37 0 68 0;
#X connect 37 0 42 0;
#X connect 38 0 518 0;
#X connect 39 0 38 0;
#X connect 40 0 39 0;
#X connect 40 0 38 0;
#X connect 41 0 36 0;
#X connect 42 0 40 0;
#X connect 44 0 46 0;
#X connect 45 0 69 0;
#X connect 45 0 50 0;
#X connect 46 0 517 0;
#X connect 47 0 46 0;
#X connect 48 0 47 0;
#X connect 48 0 46 0;
#X connect 49 0 44 0;
#X connect 50 0 48 0;
#X connect 52 0 54 0;
#X connect 53 0 70 0;
#X connect 53 0 58 0;
#X connect 54 0 516 0;
#X connect 55 0 54 0;
#X connect 56 0 55 0;
#X connect 56 0 54 0;
#X connect 57 0 52 0;
#X connect 58 0 56 0;
#X connect 60 0 62 0;
#X connect 61 0 71 0;
#X connect 61 0 66 0;
#X connect 62 0 515 0;
#X connect 63 0 62 0;
#X connect 64 0 63 0;
#X connect 64 0 62 0;
#X connect 65 0 60 0;
#X connect 66 0 64 0;
#X connect 68 0 36 0;
#X connect 69 0 44 0;
#X connect 70 0 52 0;
#X connect 71 0 60 0;
#X connect 72 0 74 0;
#X connect 73 0 486 0;
#X connect 73 0 78 0;
#X connect 74 0 495 0;
#X connect 75 0 74 0;
#X connect 76 0 75 0;
#X connect 76 0 74 0;
#X connect 77 0 72 0;
#X connect 78 0 76 0;
#X connect 80 0 82 0;
#X connect 81 0 485 0;
#X connect 81 0 86 0;
#X connect 82 0 496 0;
#X connect 83 0 82 0;
#X connect 84 0 83 0;
#X connect 84 0 82 0;
#X connect 85 0 80 0;
#X connect 86 0 84 0;
#X connect 88 0 90 0;
#X connect 89 0 96 0;
#X connect 89 0 94 0;
#X connect 90 0 497 0;
#X connect 91 0 90 0;
#X connect 92 0 91 0;
#X connect 92 0 90 0;
#X connect 93 0 88 0;
#X connect 94 0 92 0;
#X connect 96 0 88 0;
#X connect 97 0 79 0;
#X connect 98 0 87 0;
#X connect 99 0 95 0;
#X connect 100 0 43 0;
#X connect 101 0 51 0;
#X connect 102 0 59 0;
#X connect 103 0 67 0;
#X connect 104 0 106 0;
#X connect 105 0 128 0;
#X connect 105 0 110 0;
#X connect 106 0 514 0;
#X connect 107 0 106 0;
#X connect 108 0 107 0;
#X connect 108 0 106 0;
#X connect 109 0 104 0;
#X connect 110 0 108 0;
#X connect 112 0 114 0;
#X connect 113 0 129 0;
#X connect 113 0 118 0;
#X connect 114 0 513 0;
#X connect 115 0 114 0;
#X connect 116 0 115 0;
#X connect 116 0 114 0;
#X connect 117 0 112 0;
#X connect 118 0 116 0;
#X connect 120 0 122 0;
#X connect 121 0 130 0;
#X connect 121 0 126 0;
#X connect 122 0 512 0;
#X connect 123 0 122 0;
#X connect 124 0 123 0;
#X connect 124 0 122 0;
#X connect 125 0 120 0;
#X connect 126 0 124 0;
#X connect 128 0 104 0;
#X connect 129 0 112 0;
#X connect 130 0 120 0;
#X connect 131 0 111 0;
#X connect 132 0 119 0;
#X connect 133 0 127 0;
#X connect 134 0 136 0;
#X connect 135 0 166 0;
#X connect 135 0 140 0;
#X connect 136 0 519 0;
#X connect 137 0 136 0;
#X connect 138 0 137 0;
#X connect 138 0 136 0;
#X connect 139 0 134 0;
#X connect 140 0 138 0;
#X connect 142 0 144 0;
#X connect 143 0 167 0;
#X connect 143 0 148 0;
#X connect 144 0 522 0;
#X connect 145 0 144 0;
#X connect 146 0 145 0;
#X connect 146 0 144 0;
#X connect 147 0 142 0;
#X connect 148 0 146 0;
#X connect 150 0 152 0;
#X connect 151 0 168 0;
#X connect 151 0 156 0;
#X connect 152 0 523 0;
#X connect 153 0 152 0;
#X connect 154 0 153 0;
#X connect 154 0 152 0;
#X connect 155 0 150 0;
#X connect 156 0 154 0;
#X connect 158 0 160 0;
#X connect 159 0 169 0;
#X connect 159 0 164 0;
#X connect 160 0 526 0;
#X connect 161 0 160 0;
#X connect 162 0 161 0;
#X connect 162 0 160 0;
#X connect 163 0 158 0;
#X connect 164 0 162 0;
#X connect 166 0 134 0;
#X connect 167 0 142 0;
#X connect 168 0 150 0;
#X connect 169 0 158 0;
#X connect 170 0 172 0;
#X connect 171 0 194 0;
#X connect 171 0 176 0;
#X connect 172 0 527 0;
#X connect 173 0 172 0;
#X connect 174 0 173 0;
#X connect 174 0 172 0;
#X connect 175 0 170 0;
#X connect 176 0 174 0;
#X connect 178 0 180 0;
#X connect 179 0 195 0;
#X connect 179 0 184 0;
#X connect 180 0 530 0;
#X connect 181 0 180 0;
#X connect 182 0 181 0;
#X connect 182 0 180 0;
#X connect 183 0 178 0;
#X connect 184 0 182 0;
#X connect 186 0 188 0;
#X connect 187 0 196 0;
#X connect 187 0 192 0;
#X connect 188 0 531 0;
#X connect 189 0 188 0;
#X connect 190 0 189 0;
#X connect 190 0 188 0;
#X connect 191 0 186 0;
#X connect 192 0 190 0;
#X connect 194 0 170 0;
#X connect 195 0 178 0;
#X connect 196 0 186 0;
#X connect 197 0 141 0;
#X connect 198 0 149 0;
#X connect 199 0 157 0;
#X connect 200 0 165 0;
#X connect 201 0 177 0;
#X connect 202 0 185 0;
#X connect 203 0 193 0;
#X connect 204 0 206 0;
#X connect 205 0 236 0;
#X connect 205 0 210 0;
#X connect 206 0 498 0;
#X connect 207 0 206 0;
#X connect 208 0 207 0;
#X connect 208 0 206 0;
#X connect 209 0 204 0;
#X connect 210 0 208 0;
#X connect 212 0 214 0;
#X connect 213 0 237 0;
#X connect 213 0 218 0;
#X connect 214 0 499 0;
#X connect 215 0 214 0;
#X connect 216 0 215 0;
#X connect 216 0 214 0;
#X connect 217 0 212 0;
#X connect 218 0 216 0;
#X connect 220 0 222 0;
#X connect 221 0 238 0;
#X connect 221 0 226 0;
#X connect 222 0 500 0;
#X connect 223 0 222 0;
#X connect 224 0 223 0;
#X connect 224 0 222 0;
#X connect 225 0 220 0;
#X connect 226 0 224 0;
#X connect 228 0 230 0;
#X connect 229 0 239 0;
#X connect 229 0 234 0;
#X connect 230 0 501 0;
#X connect 231 0 230 0;
#X connect 232 0 231 0;
#X connect 232 0 230 0;
#X connect 233 0 228 0;
#X connect 234 0 232 0;
#X connect 236 0 204 0;
#X connect 237 0 212 0;
#X connect 238 0 220 0;
#X connect 239 0 228 0;
#X connect 240 0 242 0;
#X connect 241 0 264 0;
#X connect 241 0 246 0;
#X connect 242 0 502 0;
#X connect 243 0 242 0;
#X connect 244 0 243 0;
#X connect 244 0 242 0;
#X connect 245 0 240 0;
#X connect 246 0 244 0;
#X connect 248 0 250 0;
#X connect 249 0 265 0;
#X connect 249 0 254 0;
#X connect 250 0 503 0;
#X connect 251 0 250 0;
#X connect 252 0 251 0;
#X connect 252 0 250 0;
#X connect 253 0 248 0;
#X connect 254 0 252 0;
#X connect 256 0 258 0;
#X connect 257 0 266 0;
#X connect 257 0 262 0;
#X connect 258 0 504 0;
#X connect 259 0 258 0;
#X connect 260 0 259 0;
#X connect 260 0 258 0;
#X connect 261 0 256 0;
#X connect 262 0 260 0;
#X connect 264 0 240 0;
#X connect 265 0 248 0;
#X connect 266 0 256 0;
#X connect 267 0 269 0;
#X connect 268 0 299 0;
#X connect 268 0 273 0;
#X connect 269 0 511 0;
#X connect 270 0 269 0;
#X connect 271 0 270 0;
#X connect 271 0 269 0;
#X connect 272 0 267 0;
#X connect 273 0 271 0;
#X connect 275 0 277 0;
#X connect 276 0 300 0;
#X connect 276 0 281 0;
#X connect 277 0 510 0;
#X connect 278 0 277 0;
#X connect 279 0 278 0;
#X connect 279 0 277 0;
#X connect 280 0 275 0;
#X connect 281 0 279 0;
#X connect 283 0 285 0;
#X connect 284 0 301 0;
#X connect 284 0 289 0;
#X connect 285 0 509 0;
#X connect 286 0 285 0;
#X connect 287 0 286 0;
#X connect 287 0 285 0;
#X connect 288 0 283 0;
#X connect 289 0 287 0;
#X connect 291 0 293 0;
#X connect 292 0 302 0;
#X connect 292 0 297 0;
#X connect 293 0 508 0;
#X connect 294 0 293 0;
#X connect 295 0 294 0;
#X connect 295 0 293 0;
#X connect 296 0 291 0;
#X connect 297 0 295 0;
#X connect 299 0 267 0;
#X connect 300 0 275 0;
#X connect 301 0 283 0;
#X connect 302 0 291 0;
#X connect 303 0 305 0;
#X connect 304 0 327 0;
#X connect 304 0 309 0;
#X connect 305 0 507 0;
#X connect 306 0 305 0;
#X connect 307 0 306 0;
#X connect 307 0 305 0;
#X connect 308 0 303 0;
#X connect 309 0 307 0;
#X connect 311 0 313 0;
#X connect 312 0 328 0;
#X connect 312 0 317 0;
#X connect 313 0 506 0;
#X connect 314 0 313 0;
#X connect 315 0 314 0;
#X connect 315 0 313 0;
#X connect 316 0 311 0;
#X connect 317 0 315 0;
#X connect 319 0 321 0;
#X connect 320 0 329 0;
#X connect 320 0 325 0;
#X connect 321 0 505 0;
#X connect 322 0 321 0;
#X connect 323 0 322 0;
#X connect 323 0 321 0;
#X connect 324 0 319 0;
#X connect 325 0 323 0;
#X connect 327 0 303 0;
#X connect 328 0 311 0;
#X connect 329 0 319 0;
#X connect 330 0 332 0;
#X connect 331 0 362 0;
#X connect 331 0 336 0;
#X connect 332 0 533 0;
#X connect 333 0 332 0;
#X connect 334 0 333 0;
#X connect 334 0 332 0;
#X connect 335 0 330 0;
#X connect 336 0 334 0;
#X connect 338 0 340 0;
#X connect 339 0 363 0;
#X connect 339 0 344 0;
#X connect 340 0 534 0;
#X connect 341 0 340 0;
#X connect 342 0 341 0;
#X connect 342 0 340 0;
#X connect 343 0 338 0;
#X connect 344 0 342 0;
#X connect 346 0 348 0;
#X connect 347 0 364 0;
#X connect 347 0 352 0;
#X connect 348 0 535 0;
#X connect 349 0 348 0;
#X connect 350 0 349 0;
#X connect 350 0 348 0;
#X connect 351 0 346 0;
#X connect 352 0 350 0;
#X connect 354 0 356 0;
#X connect 355 0 365 0;
#X connect 355 0 360 0;
#X connect 356 0 536 0;
#X connect 357 0 356 0;
#X connect 358 0 357 0;
#X connect 358 0 356 0;
#X connect 359 0 354 0;
#X connect 360 0 358 0;
#X connect 362 0 330 0;
#X connect 363 0 338 0;
#X connect 364 0 346 0;
#X connect 365 0 354 0;
#X connect 366 0 368 0;
#X connect 367 0 391 0;
#X connect 367 0 372 0;
#X connect 368 0 537 0;
#X connect 369 0 368 0;
#X connect 370 0 369 0;
#X connect 370 0 368 0;
#X connect 371 0 366 0;
#X connect 372 0 370 0;
#X connect 374 0 376 0;
#X connect 375 0 392 0;
#X connect 375 0 380 0;
#X connect 376 0 538 0;
#X connect 377 0 376 0;
#X connect 378 0 377 0;
#X connect 378 0 376 0;
#X connect 379 0 374 0;
#X connect 380 0 378 0;
#X connect 382 0 384 0;
#X connect 383 0 393 0;
#X connect 383 0 389 0;
#X connect 384 0 388 0;
#X connect 385 0 384 0;
#X connect 386 0 385 0;
#X connect 386 0 384 0;
#X connect 387 0 382 0;
#X connect 388 0 414 0;
#X connect 389 0 386 0;
#X connect 391 0 366 0;
#X connect 392 0 374 0;
#X connect 393 0 382 0;
#X connect 394 0 211 0;
#X connect 395 0 219 0;
#X connect 396 0 227 0;
#X connect 397 0 235 0;
#X connect 398 0 247 0;
#X connect 399 0 255 0;
#X connect 400 0 263 0;
#X connect 401 0 326 0;
#X connect 402 0 318 0;
#X connect 403 0 310 0;
#X connect 404 0 298 0;
#X connect 405 0 290 0;
#X connect 406 0 282 0;
#X connect 407 0 274 0;
#X connect 408 0 337 0;
#X connect 409 0 345 0;
#X connect 410 0 353 0;
#X connect 411 0 361 0;
#X connect 412 0 373 0;
#X connect 413 0 381 0;
#X connect 414 0 390 0;
#X connect 415 0 417 0;
#X connect 416 0 447 0;
#X connect 416 0 421 0;
#X connect 417 0 520 0;
#X connect 418 0 417 0;
#X connect 419 0 418 0;
#X connect 419 0 417 0;
#X connect 420 0 415 0;
#X connect 421 0 419 0;
#X connect 423 0 425 0;
#X connect 424 0 448 0;
#X connect 424 0 429 0;
#X connect 425 0 521 0;
#X connect 426 0 425 0;
#X connect 427 0 426 0;
#X connect 427 0 425 0;
#X connect 428 0 423 0;
#X connect 429 0 427 0;
#X connect 431 0 433 0;
#X connect 432 0 449 0;
#X connect 432 0 437 0;
#X connect 433 0 524 0;
#X connect 434 0 433 0;
#X connect 435 0 434 0;
#X connect 435 0 433 0;
#X connect 436 0 431 0;
#X connect 437 0 435 0;
#X connect 439 0 441 0;
#X connect 440 0 450 0;
#X connect 440 0 445 0;
#X connect 441 0 525 0;
#X connect 442 0 441 0;
#X connect 443 0 442 0;
#X connect 443 0 441 0;
#X connect 444 0 439 0;
#X connect 445 0 443 0;
#X connect 447 0 415 0;
#X connect 448 0 423 0;
#X connect 449 0 431 0;
#X connect 450 0 439 0;
#X connect 451 0 453 0;
#X connect 452 0 475 0;
#X connect 452 0 457 0;
#X connect 453 0 528 0;
#X connect 454 0 453 0;
#X connect 455 0 454 0;
#X connect 455 0 453 0;
#X connect 456 0 451 0;
#X connect 457 0 455 0;
#X connect 459 0 461 0;
#X connect 460 0 476 0;
#X connect 460 0 465 0;
#X connect 461 0 529 0;
#X connect 462 0 461 0;
#X connect 463 0 462 0;
#X connect 463 0 461 0;
#X connect 464 0 459 0;
#X connect 465 0 463 0;
#X connect 467 0 469 0;
#X connect 468 0 477 0;
#X connect 468 0 473 0;
#X connect 469 0 532 0;
#X connect 470 0 469 0;
#X connect 471 0 470 0;
#X connect 471 0 469 0;
#X connect 472 0 467 0;
#X connect 473 0 471 0;
#X connect 475 0 451 0;
#X connect 476 0 459 0;
#X connect 477 0 467 0;
#X connect 478 0 422 0;
#X connect 479 0 430 0;
#X connect 480 0 446 0;
#X connect 481 0 458 0;
#X connect 482 0 466 0;
#X connect 483 0 438 0;
#X connect 484 0 474 0;
#X connect 485 0 80 0;
#X connect 486 0 72 0;
#X connect 487 0 26 0;
#X connect 488 0 18 0;
#X connect 489 0 9 0;
#X connect 490 0 0 0;
#X connect 491 0 8 0;
#X connect 492 0 17 0;
#X connect 493 0 34 0;
#X connect 494 0 35 0;
#X connect 495 0 97 0;
#X connect 496 0 98 0;
#X connect 497 0 99 0;
#X connect 498 0 394 0;
#X connect 499 0 395 0;
#X connect 500 0 396 0;
#X connect 501 0 397 0;
#X connect 502 0 398 0;
#X connect 503 0 399 0;
#X connect 504 0 400 0;
#X connect 505 0 401 0;
#X connect 506 0 402 0;
#X connect 507 0 403 0;
#X connect 508 0 404 0;
#X connect 509 0 405 0;
#X connect 510 0 406 0;
#X connect 511 0 407 0;
#X connect 512 0 133 0;
#X connect 513 0 132 0;
#X connect 514 0 131 0;
#X connect 515 0 103 0;
#X connect 516 0 102 0;
#X connect 517 0 101 0;
#X connect 518 0 100 0;
#X connect 519 0 197 0;
#X connect 520 0 478 0;
#X connect 521 0 479 0;
#X connect 522 0 198 0;
#X connect 523 0 199 0;
#X connect 524 0 483 0;
#X connect 525 0 480 0;
#X connect 526 0 200 0;
#X connect 527 0 201 0;
#X connect 528 0 481 0;
#X connect 529 0 482 0;
#X connect 530 0 202 0;
#X connect 531 0 203 0;
#X connect 532 0 484 0;
#X connect 533 0 408 0;
#X connect 534 0 409 0;
#X connect 535 0 410 0;
#X connect 536 0 411 0;
#X connect 537 0 412 0;
#X connect 538 0 413 0;
#X connect 539 0 541 0;
#X connect 540 0 548 0;
#X connect 540 0 545 0;
#X connect 541 0 547 0;
#X connect 542 0 541 0;
#X connect 543 0 542 0;
#X connect 543 0 541 0;
#X connect 544 0 539 0;
#X connect 545 0 543 0;
#X connect 547 0 549 0;
#X connect 548 0 539 0;
#X connect 549 0 546 0;
#X connect 550 0 552 0;
#X connect 551 0 559 0;
#X connect 551 0 556 0;
#X connect 552 0 558 0;
#X connect 553 0 552 0;
#X connect 554 0 553 0;
#X connect 554 0 552 0;
#X connect 555 0 550 0;
#X connect 556 0 554 0;
#X connect 558 0 610 0;
#X connect 559 0 550 0;
#X connect 560 0 562 0;
#X connect 561 0 569 0;
#X connect 561 0 566 0;
#X connect 562 0 568 0;
#X connect 563 0 562 0;
#X connect 564 0 563 0;
#X connect 564 0 562 0;
#X connect 565 0 560 0;
#X connect 566 0 564 0;
#X connect 568 0 611 0;
#X connect 569 0 560 0;
#X connect 570 0 572 0;
#X connect 571 0 579 0;
#X connect 571 0 576 0;
#X connect 572 0 578 0;
#X connect 573 0 572 0;
#X connect 574 0 573 0;
#X connect 574 0 572 0;
#X connect 575 0 570 0;
#X connect 576 0 574 0;
#X connect 578 0 612 0;
#X connect 579 0 570 0;
#X connect 580 0 582 0;
#X connect 581 0 589 0;
#X connect 581 0 586 0;
#X connect 582 0 588 0;
#X connect 583 0 582 0;
#X connect 584 0 583 0;
#X connect 584 0 582 0;
#X connect 585 0 580 0;
#X connect 586 0 584 0;
#X connect 588 0 613 0;
#X connect 589 0 580 0;
#X connect 590 0 592 0;
#X connect 591 0 599 0;
#X connect 591 0 596 0;
#X connect 592 0 598 0;
#X connect 593 0 592 0;
#X connect 594 0 593 0;
#X connect 594 0 592 0;
#X connect 595 0 590 0;
#X connect 596 0 594 0;
#X connect 598 0 614 0;
#X connect 599 0 590 0;
#X connect 600 0 602 0;
#X connect 601 0 609 0;
#X connect 601 0 606 0;
#X connect 602 0 608 0;
#X connect 603 0 602 0;
#X connect 604 0 603 0;
#X connect 604 0 602 0;
#X connect 605 0 600 0;
#X connect 606 0 604 0;
#X connect 608 0 615 0;
#X connect 609 0 600 0;
#X connect 610 0 557 0;
#X connect 611 0 567 0;
#X connect 612 0 577 0;
#X connect 613 0 587 0;
#X connect 614 0 597 0;
#X connect 615 0 607 0;
#X connect 616 0 618 0;
#X connect 617 0 625 0;
#X connect 617 0 622 0;
#X connect 618 0 624 0;
#X connect 619 0 618 0;
#X connect 620 0 619 0;
#X connect 620 0 618 0;
#X connect 621 0 616 0;
#X connect 622 0 620 0;
#X connect 624 0 686 0;
#X connect 625 0 616 0;
#X connect 626 0 628 0;
#X connect 627 0 635 0;
#X connect 627 0 632 0;
#X connect 628 0 634 0;
#X connect 629 0 628 0;
#X connect 630 0 629 0;
#X connect 630 0 628 0;
#X connect 631 0 626 0;
#X connect 632 0 630 0;
#X connect 634 0 687 0;
#X connect 635 0 626 0;
#X connect 636 0 638 0;
#X connect 637 0 645 0;
#X connect 637 0 642 0;
#X connect 638 0 644 0;
#X connect 639 0 638 0;
#X connect 640 0 639 0;
#X connect 640 0 638 0;
#X connect 641 0 636 0;
#X connect 642 0 640 0;
#X connect 644 0 688 0;
#X connect 645 0 636 0;
#X connect 646 0 648 0;
#X connect 647 0 655 0;
#X connect 647 0 652 0;
#X connect 648 0 654 0;
#X connect 649 0 648 0;
#X connect 650 0 649 0;
#X connect 650 0 648 0;
#X connect 651 0 646 0;
#X connect 652 0 650 0;
#X connect 654 0 689 0;
#X connect 655 0 646 0;
#X connect 656 0 658 0;
#X connect 657 0 665 0;
#X connect 657 0 662 0;
#X connect 658 0 664 0;
#X connect 659 0 658 0;
#X connect 660 0 659 0;
#X connect 660 0 658 0;
#X connect 661 0 656 0;
#X connect 662 0 660 0;
#X connect 664 0 690 0;
#X connect 665 0 656 0;
#X connect 666 0 668 0;
#X connect 667 0 675 0;
#X connect 667 0 672 0;
#X connect 668 0 674 0;
#X connect 669 0 668 0;
#X connect 670 0 669 0;
#X connect 670 0 668 0;
#X connect 671 0 666 0;
#X connect 672 0 670 0;
#X connect 674 0 691 0;
#X connect 675 0 666 0;
#X connect 676 0 678 0;
#X connect 677 0 685 0;
#X connect 677 0 682 0;
#X connect 678 0 684 0;
#X connect 679 0 678 0;
#X connect 680 0 679 0;
#X connect 680 0 678 0;
#X connect 681 0 676 0;
#X connect 682 0 680 0;
#X connect 684 0 692 0;
#X connect 685 0 676 0;
#X connect 686 0 623 0;
#X connect 687 0 633 0;
#X connect 688 0 643 0;
#X connect 689 0 653 0;
#X connect 690 0 663 0;
#X connect 691 0 673 0;
#X connect 692 0 683 0;
#X connect 693 0 695 0;
#X connect 694 0 702 0;
#X connect 694 0 699 0;
#X connect 695 0 701 0;
#X connect 696 0 695 0;
#X connect 697 0 696 0;
#X connect 697 0 695 0;
#X connect 698 0 693 0;
#X connect 699 0 697 0;
#X connect 701 0 833 0;
#X connect 702 0 693 0;
#X connect 703 0 705 0;
#X connect 704 0 712 0;
#X connect 704 0 709 0;
#X connect 705 0 711 0;
#X connect 706 0 705 0;
#X connect 707 0 706 0;
#X connect 707 0 705 0;
#X connect 708 0 703 0;
#X connect 709 0 707 0;
#X connect 711 0 834 0;
#X connect 712 0 703 0;
#X connect 713 0 715 0;
#X connect 714 0 722 0;
#X connect 714 0 719 0;
#X connect 715 0 721 0;
#X connect 716 0 715 0;
#X connect 717 0 716 0;
#X connect 717 0 715 0;
#X connect 718 0 713 0;
#X connect 719 0 717 0;
#X connect 721 0 835 0;
#X connect 722 0 713 0;
#X connect 723 0 725 0;
#X connect 724 0 732 0;
#X connect 724 0 729 0;
#X connect 725 0 731 0;
#X connect 726 0 725 0;
#X connect 727 0 726 0;
#X connect 727 0 725 0;
#X connect 728 0 723 0;
#X connect 729 0 727 0;
#X connect 731 0 836 0;
#X connect 732 0 723 0;
#X connect 733 0 735 0;
#X connect 734 0 742 0;
#X connect 734 0 739 0;
#X connect 735 0 741 0;
#X connect 736 0 735 0;
#X connect 737 0 736 0;
#X connect 737 0 735 0;
#X connect 738 0 733 0;
#X connect 739 0 737 0;
#X connect 741 0 845 0;
#X connect 742 0 733 0;
#X connect 743 0 745 0;
#X connect 744 0 752 0;
#X connect 744 0 749 0;
#X connect 745 0 751 0;
#X connect 746 0 745 0;
#X connect 747 0 746 0;
#X connect 747 0 745 0;
#X connect 748 0 743 0;
#X connect 749 0 747 0;
#X connect 751 0 846 0;
#X connect 752 0 743 0;
#X connect 753 0 755 0;
#X connect 754 0 762 0;
#X connect 754 0 759 0;
#X connect 755 0 761 0;
#X connect 756 0 755 0;
#X connect 757 0 756 0;
#X connect 757 0 755 0;
#X connect 758 0 753 0;
#X connect 759 0 757 0;
#X connect 761 0 837 0;
#X connect 762 0 753 0;
#X connect 763 0 765 0;
#X connect 764 0 772 0;
#X connect 764 0 769 0;
#X connect 765 0 771 0;
#X connect 766 0 765 0;
#X connect 767 0 766 0;
#X connect 767 0 765 0;
#X connect 768 0 763 0;
#X connect 769 0 767 0;
#X connect 771 0 839 0;
#X connect 772 0 763 0;
#X connect 773 0 775 0;
#X connect 774 0 782 0;
#X connect 774 0 779 0;
#X connect 775 0 781 0;
#X connect 776 0 775 0;
#X connect 777 0 776 0;
#X connect 777 0 775 0;
#X connect 778 0 773 0;
#X connect 779 0 777 0;
#X connect 781 0 838 0;
#X connect 782 0 773 0;
#X connect 783 0 785 0;
#X connect 784 0 792 0;
#X connect 784 0 789 0;
#X connect 785 0 791 0;
#X connect 786 0 785 0;
#X connect 787 0 786 0;
#X connect 787 0 785 0;
#X connect 788 0 783 0;
#X connect 789 0 787 0;
#X connect 791 0 840 0;
#X connect 792 0 783 0;
#X connect 793 0 795 0;
#X connect 794 0 802 0;
#X connect 794 0 799 0;
#X connect 795 0 801 0;
#X connect 796 0 795 0;
#X connect 797 0 796 0;
#X connect 797 0 795 0;
#X connect 798 0 793 0;
#X connect 799 0 797 0;
#X connect 801 0 841 0;
#X connect 802 0 793 0;
#X connect 803 0 805 0;
#X connect 804 0 812 0;
#X connect 804 0 809 0;
#X connect 805 0 811 0;
#X connect 806 0 805 0;
#X connect 807 0 806 0;
#X connect 807 0 805 0;
#X connect 808 0 803 0;
#X connect 809 0 807 0;
#X connect 811 0 842 0;
#X connect 812 0 803 0;
#X connect 813 0 815 0;
#X connect 814 0 822 0;
#X connect 814 0 819 0;
#X connect 815 0 821 0;
#X connect 816 0 815 0;
#X connect 817 0 816 0;
#X connect 817 0 815 0;
#X connect 818 0 813 0;
#X connect 819 0 817 0;
#X connect 821 0 843 0;
#X connect 822 0 813 0;
#X connect 823 0 825 0;
#X connect 824 0 832 0;
#X connect 824 0 829 0;
#X connect 825 0 831 0;
#X connect 826 0 825 0;
#X connect 827 0 826 0;
#X connect 827 0 825 0;
#X connect 828 0 823 0;
#X connect 829 0 827 0;
#X connect 831 0 844 0;
#X connect 832 0 823 0;
#X connect 833 0 700 0;
#X connect 834 0 710 0;
#X connect 835 0 720 0;
#X connect 836 0 730 0;
#X connect 837 0 760 0;
#X connect 838 0 780 0;
#X connect 839 0 770 0;
#X connect 840 0 790 0;
#X connect 841 0 800 0;
#X connect 842 0 810 0;
#X connect 843 0 820 0;
#X connect 844 0 830 0;
#X connect 845 0 740 0;
#X connect 846 0 750 0;
#X connect 847 0 849 0;
#X connect 848 0 887 0;
#X connect 848 0 853 0;
#X connect 849 0 854 0;
#X connect 850 0 849 0;
#X connect 851 0 850 0;
#X connect 851 0 849 0;
#X connect 852 0 847 0;
#X connect 853 0 851 0;
#X connect 854 0 880 0;
#X connect 855 0 857 0;
#X connect 856 0 888 0;
#X connect 856 0 861 0;
#X connect 857 0 862 0;
#X connect 858 0 857 0;
#X connect 859 0 858 0;
#X connect 859 0 857 0;
#X connect 860 0 855 0;
#X connect 861 0 859 0;
#X connect 862 0 881 0;
#X connect 863 0 865 0;
#X connect 864 0 889 0;
#X connect 864 0 869 0;
#X connect 865 0 870 0;
#X connect 866 0 865 0;
#X connect 867 0 866 0;
#X connect 867 0 865 0;
#X connect 868 0 863 0;
#X connect 869 0 867 0;
#X connect 870 0 883 0;
#X connect 871 0 873 0;
#X connect 872 0 890 0;
#X connect 872 0 877 0;
#X connect 873 0 878 0;
#X connect 874 0 873 0;
#X connect 875 0 874 0;
#X connect 875 0 873 0;
#X connect 876 0 871 0;
#X connect 877 0 875 0;
#X connect 878 0 885 0;
#X connect 880 0 879 0;
#X connect 881 0 882 0;
#X connect 883 0 884 0;
#X connect 885 0 886 0;
#X connect 887 0 847 0;
#X connect 888 0 855 0;
#X connect 889 0 863 0;
#X connect 890 0 871 0;
#X restore 20 90 pd Background;
#N canvas 1009 454 451 326 movement_logic 1;
#X restore 20 120 pd movement_logic;
#X connect 1 0 0 0;
#X connect 2 0 0 0;
