#N canvas 952 132 454 305 10;
#X obj 20 60 gemwin;
#X msg 40 40 destroy;
#X msg 20 20 dimen 600 600 \, create \, 1;
#N canvas 313 236 1105 494 Shape 0;
#X obj 560 230 pix_image;
#X obj 590 150 loadbang;
#X obj 560 300 pix_texture;
#X msg 630 250 env \$1;
#X obj 630 230 hradio 15 1 0 6 empty empty empty 0 -6 0 8 #fcfcfc #000000
#000000 1;
#X obj 580 110 gemhead;
#X obj 560 325 colorRGB 1 1 0;
#X obj 730 230 pix_image;
#X obj 760 150 loadbang;
#X obj 730 300 pix_texture;
#X msg 800 250 env \$1;
#X obj 800 230 hradio 15 1 0 6 empty empty empty 0 -6 0 8 #fcfcfc #000000
#000000 1;
#X obj 750 110 gemhead;
#X obj 730 325 colorRGB 1 1 0;
#X obj 910 230 pix_image;
#X obj 940 150 loadbang;
#X obj 910 300 pix_texture;
#X msg 980 250 env \$1;
#X obj 980 230 hradio 15 1 0 6 empty empty empty 0 -6 0 8 #fcfcfc #000000
#000000 1;
#X obj 930 110 gemhead;
#X obj 910 325 colorRGB 1 1 0;
#X obj 560 360 translateXYZ 3 1 0;
#X obj 910 360 translateXYZ 2 3 0;
#X obj 730 360 translateXYZ -2 3 0;
#X msg 760 180 open Art/Ice.png;
#X msg 940 180 open Art/Snow.png;
#X msg 630 200 1;
#X msg 800 200 1;
#X msg 980 200 1;
#X obj 910 390 square 0.5;
#X obj 730 390 square 0.5;
#X obj 560 390 square 0.25;
#X obj 30 220 pix_image;
#X obj 60 140 loadbang;
#X obj 30 290 pix_texture;
#X msg 100 240 env \$1;
#X obj 100 220 hradio 15 1 0 6 empty empty empty 0 -6 0 8 #fcfcfc #000000
#000000 1;
#X obj 50 100 gemhead;
#X obj 30 315 colorRGB 1 1 0;
#X msg 100 190 1;
#X obj 30 380 square 0.25;
#X obj 210 220 pix_image;
#X obj 240 140 loadbang;
#X obj 210 290 pix_texture;
#X msg 280 240 env \$1;
#X obj 280 220 hradio 15 1 0 6 empty empty empty 0 -6 0 8 #fcfcfc #000000
#000000 1;
#X obj 230 100 gemhead;
#X obj 210 315 colorRGB 1 1 0;
#X msg 280 190 1;
#X obj 210 380 square 0.25;
#X obj 380 220 pix_image;
#X obj 410 140 loadbang;
#X obj 380 290 pix_texture;
#X msg 450 240 env \$1;
#X obj 450 220 hradio 15 1 0 6 empty empty empty 0 -6 0 8 #fcfcfc #000000
#000000 1;
#X obj 400 100 gemhead;
#X obj 380 315 colorRGB 1 1 0;
#X msg 450 190 1;
#X obj 380 380 square 0.25;
#X msg 410 170 open Art/Cube3.png;
#X msg 60 170 open Art/Cube1.png;
#X msg 240 170 open Art/Cube2.png;
#X msg 590 180 open Art/Cube4.png;
#X obj 30 350 translateXYZ -3 1 0;
#X obj 380 350 translateXYZ 1 1 0;
#X obj 210 350 translateXYZ 2.25 3.25 0;
#X obj 50 10 loadbang;
#X obj 50 70 tgl 15 0 empty empty empty 17 7 0 10 #fcfcfc #000000 #000000
0 1;
#X obj 70 40 delay 100;
#X obj 230 10 loadbang;
#X obj 230 70 tgl 15 0 empty empty empty 17 7 0 10 #fcfcfc #000000
#000000 0 1;
#X obj 250 40 delay 100;
#X obj 400 10 loadbang;
#X obj 400 70 tgl 15 0 empty empty empty 17 7 0 10 #fcfcfc #000000
#000000 0 1;
#X obj 420 40 delay 100;
#X obj 580 20 loadbang;
#X obj 580 80 tgl 15 0 empty empty empty 17 7 0 10 #fcfcfc #000000
#000000 0 1;
#X obj 600 50 delay 100;
#X obj 750 20 loadbang;
#X obj 750 80 tgl 15 0 empty empty empty 17 7 0 10 #fcfcfc #000000
#000000 0 1;
#X obj 770 50 delay 100;
#X obj 930 10 loadbang;
#X obj 930 70 tgl 15 0 empty empty empty 17 7 0 10 #fcfcfc #000000
#000000 0 1;
#X obj 950 40 delay 100;
#X connect 0 0 2 0;
#X connect 1 0 62 0;
#X connect 1 0 26 0;
#X connect 2 0 6 0;
#X connect 3 0 2 0;
#X connect 4 0 3 0;
#X connect 4 0 2 0;
#X connect 5 0 0 0;
#X connect 6 0 21 0;
#X connect 7 0 9 0;
#X connect 8 0 24 0;
#X connect 8 0 27 0;
#X connect 9 0 13 0;
#X connect 10 0 9 0;
#X connect 11 0 10 0;
#X connect 11 0 9 0;
#X connect 12 0 7 0;
#X connect 13 0 23 0;
#X connect 14 0 16 0;
#X connect 15 0 25 0;
#X connect 15 0 28 0;
#X connect 16 0 20 0;
#X connect 17 0 16 0;
#X connect 18 0 17 0;
#X connect 18 0 16 0;
#X connect 19 0 14 0;
#X connect 20 0 22 0;
#X connect 21 0 31 0;
#X connect 22 0 29 0;
#X connect 23 0 30 0;
#X connect 24 0 7 0;
#X connect 25 0 14 0;
#X connect 26 0 4 0;
#X connect 27 0 11 0;
#X connect 28 0 18 0;
#X connect 32 0 34 0;
#X connect 33 0 60 0;
#X connect 33 0 39 0;
#X connect 34 0 38 0;
#X connect 35 0 34 0;
#X connect 36 0 35 0;
#X connect 36 0 34 0;
#X connect 37 0 32 0;
#X connect 38 0 63 0;
#X connect 39 0 36 0;
#X connect 41 0 43 0;
#X connect 42 0 61 0;
#X connect 42 0 48 0;
#X connect 43 0 47 0;
#X connect 44 0 43 0;
#X connect 45 0 44 0;
#X connect 45 0 43 0;
#X connect 46 0 41 0;
#X connect 47 0 65 0;
#X connect 48 0 45 0;
#X connect 50 0 52 0;
#X connect 51 0 59 0;
#X connect 51 0 57 0;
#X connect 52 0 56 0;
#X connect 53 0 52 0;
#X connect 54 0 53 0;
#X connect 54 0 52 0;
#X connect 55 0 50 0;
#X connect 56 0 64 0;
#X connect 57 0 54 0;
#X connect 59 0 50 0;
#X connect 60 0 32 0;
#X connect 61 0 41 0;
#X connect 62 0 0 0;
#X connect 63 0 40 0;
#X connect 64 0 58 0;
#X connect 65 0 49 0;
#X connect 66 0 68 0;
#X connect 66 0 67 0;
#X connect 67 0 37 0;
#X connect 68 0 67 0;
#X connect 69 0 71 0;
#X connect 69 0 70 0;
#X connect 70 0 46 0;
#X connect 71 0 70 0;
#X connect 72 0 74 0;
#X connect 72 0 73 0;
#X connect 73 0 55 0;
#X connect 74 0 73 0;
#X connect 75 0 77 0;
#X connect 75 0 76 0;
#X connect 76 0 5 0;
#X connect 77 0 76 0;
#X connect 78 0 80 0;
#X connect 78 0 79 0;
#X connect 79 0 12 0;
#X connect 80 0 79 0;
#X connect 81 0 83 0;
#X connect 81 0 82 0;
#X connect 82 0 19 0;
#X connect 83 0 82 0;
#X restore 190 70 pd Shape;
#N canvas -8 -8 1538 770 Background 0;
#X obj 40 -210 pix_image;
#X obj 50 -290 loadbang;
#X obj 40 -180 pix_texture;
#X msg 110 -210 env \$1;
#X obj 110 -230 hradio 15 1 0 6 empty empty empty 0 -6 0 8 #fcfcfc
#000000 #000000 1;
#X obj 40 -320 gemhead;
#X msg 70 -240 1;
#X obj 40 -100 square 0.5;
#X obj 40 -130 translateXYZ 0 0 0;
#X obj 200 -210 pix_image;
#X obj 210 -290 loadbang;
#X obj 200 -180 pix_texture;
#X msg 270 -210 env \$1;
#X obj 270 -230 hradio 15 1 0 6 empty empty empty 0 -6 0 8 #fcfcfc
#000000 #000000 1;
#X obj 200 -320 gemhead;
#X msg 230 -240 1;
#X obj 200 -100 square 0.5;
#X obj 200 -130 translateXYZ 1 0 0;
#X obj 360 -210 pix_image;
#X obj 370 -290 loadbang;
#X obj 360 -180 pix_texture;
#X msg 430 -210 env \$1;
#X obj 430 -230 hradio 15 1 0 6 empty empty empty 0 -6 0 8 #fcfcfc
#000000 #000000 1;
#X obj 360 -320 gemhead;
#X msg 390 -240 1;
#X obj 360 -100 square 0.5;
#X obj 520 -210 pix_image;
#X obj 530 -290 loadbang;
#X obj 520 -180 pix_texture;
#X msg 590 -210 env \$1;
#X obj 590 -230 hradio 15 1 0 6 empty empty empty 0 -6 0 8 #fcfcfc
#000000 #000000 1;
#X obj 520 -320 gemhead;
#X msg 550 -240 1;
#X obj 520 -100 square 0.5;
#X obj 360 -130 translateXYZ 2 0 0;
#X obj 520 -130 translateXYZ 3 0 0;
#X obj 40 50 pix_image;
#X obj 50 -30 loadbang;
#X obj 40 80 pix_texture;
#X msg 110 50 env \$1;
#X obj 110 30 hradio 15 1 0 6 empty empty empty 0 -6 0 8 #fcfcfc #000000
#000000 1;
#X obj 40 -60 gemhead;
#X msg 70 20 1;
#X obj 40 160 square 0.5;
#X obj 200 50 pix_image;
#X obj 210 -30 loadbang;
#X obj 200 80 pix_texture;
#X msg 270 50 env \$1;
#X obj 270 30 hradio 15 1 0 6 empty empty empty 0 -6 0 8 #fcfcfc #000000
#000000 1;
#X obj 200 -60 gemhead;
#X msg 230 20 1;
#X obj 200 160 square 0.5;
#X obj 360 50 pix_image;
#X obj 370 -30 loadbang;
#X obj 360 80 pix_texture;
#X msg 430 50 env \$1;
#X obj 430 30 hradio 15 1 0 6 empty empty empty 0 -6 0 8 #fcfcfc #000000
#000000 1;
#X obj 360 -60 gemhead;
#X msg 390 20 1;
#X obj 360 160 square 0.5;
#X obj 520 50 pix_image;
#X obj 530 -30 loadbang;
#X obj 520 80 pix_texture;
#X msg 590 50 env \$1;
#X obj 590 30 hradio 15 1 0 6 empty empty empty 0 -6 0 8 #fcfcfc #000000
#000000 1;
#X obj 520 -60 gemhead;
#X msg 550 20 1;
#X obj 520 160 square 0.5;
#X msg 50 0 open Art/Ice.png;
#X msg 210 0 open Art/Ice.png;
#X msg 370 0 open Art/Ice.png;
#X msg 530 0 open Art/Ice.png;
#X obj 680 -210 pix_image;
#X obj 690 -290 loadbang;
#X obj 680 -180 pix_texture;
#X msg 750 -210 env \$1;
#X obj 750 -230 hradio 15 1 0 6 empty empty empty 0 -6 0 8 #fcfcfc
#000000 #000000 1;
#X obj 680 -320 gemhead;
#X msg 710 -240 1;
#X obj 680 -100 square 0.5;
#X obj 840 -210 pix_image;
#X obj 850 -290 loadbang;
#X obj 840 -180 pix_texture;
#X msg 910 -210 env \$1;
#X obj 910 -230 hradio 15 1 0 6 empty empty empty 0 -6 0 8 #fcfcfc
#000000 #000000 1;
#X obj 840 -320 gemhead;
#X msg 870 -240 1;
#X obj 840 -100 square 0.5;
#X obj 1000 -210 pix_image;
#X obj 1010 -290 loadbang;
#X obj 1000 -180 pix_texture;
#X msg 1070 -210 env \$1;
#X obj 1070 -230 hradio 15 1 0 6 empty empty empty 0 -6 0 8 #fcfcfc
#000000 #000000 1;
#X obj 1000 -320 gemhead;
#X msg 1030 -240 1;
#X obj 1000 -100 square 0.5;
#X msg 1010 -260 open Art/Ice.png;
#X obj 680 -130 translateXYZ -1 0 0;
#X obj 840 -130 translateXYZ -2 0 0;
#X obj 1000 -130 translateXYZ -3 0 0;
#X obj 40 130 translateXYZ 0 1 0;
#X obj 200 130 translateXYZ 1 1 0;
#X obj 360 130 translateXYZ 2 1 0;
#X obj 520 130 translateXYZ 3 1 0;
#X obj 680 50 pix_image;
#X obj 690 -30 loadbang;
#X obj 680 80 pix_texture;
#X msg 750 50 env \$1;
#X obj 750 30 hradio 15 1 0 6 empty empty empty 0 -6 0 8 #fcfcfc #000000
#000000 1;
#X obj 680 -60 gemhead;
#X msg 710 20 1;
#X obj 680 160 square 0.5;
#X obj 840 50 pix_image;
#X obj 850 -30 loadbang;
#X obj 840 80 pix_texture;
#X msg 910 50 env \$1;
#X obj 910 30 hradio 15 1 0 6 empty empty empty 0 -6 0 8 #fcfcfc #000000
#000000 1;
#X obj 840 -60 gemhead;
#X msg 870 20 1;
#X obj 840 160 square 0.5;
#X obj 1000 50 pix_image;
#X obj 1010 -30 loadbang;
#X obj 1000 80 pix_texture;
#X msg 1070 50 env \$1;
#X obj 1070 30 hradio 15 1 0 6 empty empty empty 0 -6 0 8 #fcfcfc #000000
#000000 1;
#X obj 1000 -60 gemhead;
#X msg 1030 20 1;
#X obj 1000 160 square 0.5;
#X msg 690 0 open Art/Ice.png;
#X msg 850 0 open Art/Ice.png;
#X msg 1010 0 open Art/Ice.png;
#X obj 680 130 translateXYZ -1 1 0;
#X obj 840 130 translateXYZ -2 1 0;
#X obj 1000 130 translateXYZ -3 1 0;
#X obj 40 300 pix_image;
#X obj 50 220 loadbang;
#X obj 40 330 pix_texture;
#X msg 110 300 env \$1;
#X obj 110 280 hradio 15 1 0 6 empty empty empty 0 -6 0 8 #fcfcfc #000000
#000000 1;
#X obj 40 190 gemhead;
#X msg 70 270 1;
#X obj 40 410 square 0.5;
#X obj 200 300 pix_image;
#X obj 210 220 loadbang;
#X obj 200 330 pix_texture;
#X msg 270 300 env \$1;
#X obj 270 280 hradio 15 1 0 6 empty empty empty 0 -6 0 8 #fcfcfc #000000
#000000 1;
#X obj 200 190 gemhead;
#X msg 230 270 1;
#X obj 200 410 square 0.5;
#X obj 360 300 pix_image;
#X obj 370 220 loadbang;
#X obj 360 330 pix_texture;
#X msg 430 300 env \$1;
#X obj 430 280 hradio 15 1 0 6 empty empty empty 0 -6 0 8 #fcfcfc #000000
#000000 1;
#X obj 360 190 gemhead;
#X msg 390 270 1;
#X obj 360 410 square 0.5;
#X obj 520 300 pix_image;
#X obj 530 220 loadbang;
#X obj 520 330 pix_texture;
#X msg 590 300 env \$1;
#X obj 590 280 hradio 15 1 0 6 empty empty empty 0 -6 0 8 #fcfcfc #000000
#000000 1;
#X obj 520 190 gemhead;
#X msg 550 270 1;
#X obj 520 410 square 0.5;
#X msg 50 250 open Art/Ice.png;
#X msg 210 250 open Art/Ice.png;
#X msg 370 250 open Art/Ice.png;
#X msg 530 250 open Art/Ice.png;
#X obj 680 300 pix_image;
#X obj 690 220 loadbang;
#X obj 680 330 pix_texture;
#X msg 750 300 env \$1;
#X obj 750 280 hradio 15 1 0 6 empty empty empty 0 -6 0 8 #fcfcfc #000000
#000000 1;
#X obj 680 190 gemhead;
#X msg 710 270 1;
#X obj 680 410 square 0.5;
#X obj 840 300 pix_image;
#X obj 850 220 loadbang;
#X obj 840 330 pix_texture;
#X msg 910 300 env \$1;
#X obj 910 280 hradio 15 1 0 6 empty empty empty 0 -6 0 8 #fcfcfc #000000
#000000 1;
#X obj 840 190 gemhead;
#X msg 870 270 1;
#X obj 840 410 square 0.5;
#X obj 1000 300 pix_image;
#X obj 1010 220 loadbang;
#X obj 1000 330 pix_texture;
#X msg 1070 300 env \$1;
#X obj 1070 280 hradio 15 1 0 6 empty empty empty 0 -6 0 8 #fcfcfc
#000000 #000000 1;
#X obj 1000 190 gemhead;
#X msg 1030 270 1;
#X obj 1000 410 square 0.5;
#X msg 690 250 open Art/Ice.png;
#X msg 850 250 open Art/Ice.png;
#X msg 1010 250 open Art/Ice.png;
#X obj 40 380 translateXYZ 0 2 0;
#X obj 200 380 translateXYZ 1 2 0;
#X obj 360 380 translateXYZ 2 2 0;
#X obj 520 380 translateXYZ 3 2 0;
#X obj 680 380 translateXYZ -1 2 0;
#X obj 840 380 translateXYZ -2 2 0;
#X obj 1000 380 translateXYZ -3 2 0;
#X obj 1180 -210 pix_image;
#X obj 1190 -290 loadbang;
#X obj 1180 -180 pix_texture;
#X msg 1250 -210 env \$1;
#X obj 1250 -230 hradio 15 1 0 6 empty empty empty 0 -6 0 8 #fcfcfc
#000000 #000000 1;
#X obj 1180 -320 gemhead;
#X msg 1210 -240 1;
#X obj 1180 -100 square 0.5;
#X obj 1340 -210 pix_image;
#X obj 1350 -290 loadbang;
#X obj 1340 -180 pix_texture;
#X msg 1410 -210 env \$1;
#X obj 1410 -230 hradio 15 1 0 6 empty empty empty 0 -6 0 8 #fcfcfc
#000000 #000000 1;
#X obj 1340 -320 gemhead;
#X msg 1370 -240 1;
#X obj 1340 -100 square 0.5;
#X obj 1500 -210 pix_image;
#X obj 1510 -290 loadbang;
#X obj 1500 -180 pix_texture;
#X msg 1570 -210 env \$1;
#X obj 1570 -230 hradio 15 1 0 6 empty empty empty 0 -6 0 8 #fcfcfc
#000000 #000000 1;
#X obj 1500 -320 gemhead;
#X msg 1530 -240 1;
#X obj 1500 -100 square 0.5;
#X obj 1660 -210 pix_image;
#X obj 1670 -290 loadbang;
#X obj 1660 -180 pix_texture;
#X msg 1730 -210 env \$1;
#X obj 1730 -230 hradio 15 1 0 6 empty empty empty 0 -6 0 8 #fcfcfc
#000000 #000000 1;
#X obj 1660 -320 gemhead;
#X msg 1690 -240 1;
#X obj 1660 -100 square 0.5;
#X msg 1190 -260 open Art/Ice.png;
#X msg 1350 -260 open Art/Ice.png;
#X msg 1510 -260 open Art/Ice.png;
#X msg 1670 -260 open Art/Ice.png;
#X obj 1820 -210 pix_image;
#X obj 1830 -290 loadbang;
#X obj 1820 -180 pix_texture;
#X msg 1890 -210 env \$1;
#X obj 1890 -230 hradio 15 1 0 6 empty empty empty 0 -6 0 8 #fcfcfc
#000000 #000000 1;
#X obj 1820 -320 gemhead;
#X msg 1850 -240 1;
#X obj 1820 -100 square 0.5;
#X obj 1980 -210 pix_image;
#X obj 1990 -290 loadbang;
#X obj 1980 -180 pix_texture;
#X msg 2050 -210 env \$1;
#X obj 2050 -230 hradio 15 1 0 6 empty empty empty 0 -6 0 8 #fcfcfc
#000000 #000000 1;
#X obj 1980 -320 gemhead;
#X msg 2010 -240 1;
#X obj 1980 -100 square 0.5;
#X obj 2140 -210 pix_image;
#X obj 2150 -290 loadbang;
#X obj 2140 -180 pix_texture;
#X msg 2210 -210 env \$1;
#X obj 2210 -230 hradio 15 1 0 6 empty empty empty 0 -6 0 8 #fcfcfc
#000000 #000000 1;
#X obj 2140 -320 gemhead;
#X msg 2170 -240 1;
#X obj 2140 -100 square 0.5;
#X msg 1830 -260 open Art/Ice.png;
#X msg 1990 -260 open Art/Ice.png;
#X msg 2150 -260 open Art/Ice.png;
#X obj 1180 50 pix_image;
#X obj 1190 -30 loadbang;
#X obj 1180 80 pix_texture;
#X msg 1250 50 env \$1;
#X obj 1250 30 hradio 15 1 0 6 empty empty empty 0 -6 0 8 #fcfcfc #000000
#000000 1;
#X obj 1180 -60 gemhead;
#X msg 1210 20 1;
#X obj 1180 160 square 0.5;
#X obj 1340 50 pix_image;
#X obj 1350 -30 loadbang;
#X obj 1340 80 pix_texture;
#X msg 1410 50 env \$1;
#X obj 1410 30 hradio 15 1 0 6 empty empty empty 0 -6 0 8 #fcfcfc #000000
#000000 1;
#X obj 1340 -60 gemhead;
#X msg 1370 20 1;
#X obj 1340 160 square 0.5;
#X obj 1500 50 pix_image;
#X obj 1510 -30 loadbang;
#X obj 1500 80 pix_texture;
#X msg 1570 50 env \$1;
#X obj 1570 30 hradio 15 1 0 6 empty empty empty 0 -6 0 8 #fcfcfc #000000
#000000 1;
#X obj 1500 -60 gemhead;
#X msg 1530 20 1;
#X obj 1500 160 square 0.5;
#X obj 1660 50 pix_image;
#X obj 1670 -30 loadbang;
#X obj 1660 80 pix_texture;
#X msg 1730 50 env \$1;
#X obj 1730 30 hradio 15 1 0 6 empty empty empty 0 -6 0 8 #fcfcfc #000000
#000000 1;
#X obj 1660 -60 gemhead;
#X msg 1690 20 1;
#X obj 1660 160 square 0.5;
#X msg 1190 0 open Art/Ice.png;
#X msg 1350 0 open Art/Ice.png;
#X msg 1510 0 open Art/Ice.png;
#X msg 1670 0 open Art/Ice.png;
#X obj 1820 50 pix_image;
#X obj 1830 -30 loadbang;
#X obj 1820 80 pix_texture;
#X msg 1890 50 env \$1;
#X obj 1890 30 hradio 15 1 0 6 empty empty empty 0 -6 0 8 #fcfcfc #000000
#000000 1;
#X obj 1820 -60 gemhead;
#X msg 1850 20 1;
#X obj 1820 160 square 0.5;
#X obj 1980 50 pix_image;
#X obj 1990 -30 loadbang;
#X obj 1980 80 pix_texture;
#X msg 2050 50 env \$1;
#X obj 2050 30 hradio 15 1 0 6 empty empty empty 0 -6 0 8 #fcfcfc #000000
#000000 1;
#X obj 1980 -60 gemhead;
#X msg 2010 20 1;
#X obj 1980 160 square 0.5;
#X obj 2140 50 pix_image;
#X obj 2150 -30 loadbang;
#X obj 2140 80 pix_texture;
#X msg 2210 50 env \$1;
#X obj 2210 30 hradio 15 1 0 6 empty empty empty 0 -6 0 8 #fcfcfc #000000
#000000 1;
#X obj 2140 -60 gemhead;
#X msg 2170 20 1;
#X obj 2140 160 square 0.5;
#X msg 1830 0 open Art/Ice.png;
#X msg 1990 0 open Art/Ice.png;
#X msg 2150 0 open Art/Ice.png;
#X obj 1180 300 pix_image;
#X obj 1190 220 loadbang;
#X obj 1180 330 pix_texture;
#X msg 1250 300 env \$1;
#X obj 1250 280 hradio 15 1 0 6 empty empty empty 0 -6 0 8 #fcfcfc
#000000 #000000 1;
#X obj 1180 190 gemhead;
#X msg 1210 270 1;
#X obj 1180 410 square 0.5;
#X obj 1340 300 pix_image;
#X obj 1350 220 loadbang;
#X obj 1340 330 pix_texture;
#X msg 1410 300 env \$1;
#X obj 1410 280 hradio 15 1 0 6 empty empty empty 0 -6 0 8 #fcfcfc
#000000 #000000 1;
#X obj 1340 190 gemhead;
#X msg 1370 270 1;
#X obj 1340 410 square 0.5;
#X obj 1500 300 pix_image;
#X obj 1510 220 loadbang;
#X obj 1500 330 pix_texture;
#X msg 1570 300 env \$1;
#X obj 1570 280 hradio 15 1 0 6 empty empty empty 0 -6 0 8 #fcfcfc
#000000 #000000 1;
#X obj 1500 190 gemhead;
#X msg 1530 270 1;
#X obj 1500 410 square 0.5;
#X obj 1660 300 pix_image;
#X obj 1670 220 loadbang;
#X obj 1660 330 pix_texture;
#X msg 1730 300 env \$1;
#X obj 1730 280 hradio 15 1 0 6 empty empty empty 0 -6 0 8 #fcfcfc
#000000 #000000 1;
#X obj 1660 190 gemhead;
#X msg 1690 270 1;
#X obj 1660 410 square 0.5;
#X msg 1190 250 open Art/Ice.png;
#X msg 1350 250 open Art/Ice.png;
#X msg 1510 250 open Art/Ice.png;
#X msg 1670 250 open Art/Ice.png;
#X obj 1820 300 pix_image;
#X obj 1830 220 loadbang;
#X obj 1820 330 pix_texture;
#X msg 1890 300 env \$1;
#X obj 1890 280 hradio 15 1 0 6 empty empty empty 0 -6 0 8 #fcfcfc
#000000 #000000 1;
#X obj 1820 190 gemhead;
#X msg 1850 270 1;
#X obj 1820 410 square 0.5;
#X obj 1980 300 pix_image;
#X obj 1990 220 loadbang;
#X obj 1980 330 pix_texture;
#X msg 2050 300 env \$1;
#X obj 2050 280 hradio 15 1 0 6 empty empty empty 0 -6 0 8 #fcfcfc
#000000 #000000 1;
#X obj 1980 190 gemhead;
#X msg 2010 270 1;
#X obj 1980 410 square 0.5;
#X obj 2140 300 pix_image;
#X obj 2150 220 loadbang;
#X obj 2140 330 pix_texture;
#X msg 2210 300 env \$1;
#X obj 2210 280 hradio 15 1 0 6 empty empty empty 0 -6 0 8 #fcfcfc
#000000 #000000 1;
#X obj 2140 190 gemhead;
#X obj 2140 355 colorRGB 1 1 0;
#X msg 2170 270 1;
#X obj 2140 410 square 0.5;
#X msg 1830 250 open Art/Ice.png;
#X msg 1990 250 open Art/Ice.png;
#X msg 2150 250 open Art/Ice.png;
#X obj 1180 -130 translateXYZ 0 3 0;
#X obj 1340 -130 translateXYZ 1 3 0;
#X obj 1500 -130 translateXYZ 2 3 0;
#X obj 1660 -130 translateXYZ 3 3 0;
#X obj 1820 -130 translateXYZ -1 3 0;
#X obj 1980 -130 translateXYZ -2 3 0;
#X obj 2140 -130 translateXYZ -3 3 0;
#X obj 2140 130 translateXYZ -3 -1 0;
#X obj 1980 130 translateXYZ -2 -1 0;
#X obj 1820 130 translateXYZ -1 -1 0;
#X obj 1660 130 translateXYZ 3 -1 0;
#X obj 1500 130 translateXYZ 2 -1 0;
#X obj 1340 130 translateXYZ 1 -1 0;
#X obj 1180 130 translateXYZ 0 -1 0;
#X obj 1180 380 translateXYZ 0 -2 0;
#X obj 1340 380 translateXYZ 1 -2 0;
#X obj 1500 380 translateXYZ 2 -2 0;
#X obj 1660 380 translateXYZ 3 -2 0;
#X obj 1820 380 translateXYZ -1 -2 0;
#X obj 1980 380 translateXYZ -2 -2 0;
#X obj 2140 380 translateXYZ -3 -2 0;
#X obj 40 550 pix_image;
#X obj 50 470 loadbang;
#X obj 40 580 pix_texture;
#X msg 110 550 env \$1;
#X obj 110 530 hradio 15 1 0 6 empty empty empty 0 -6 0 8 #fcfcfc #000000
#000000 1;
#X obj 40 440 gemhead;
#X msg 70 520 1;
#X obj 40 660 square 0.5;
#X obj 200 550 pix_image;
#X obj 210 470 loadbang;
#X obj 200 580 pix_texture;
#X msg 270 550 env \$1;
#X obj 270 530 hradio 15 1 0 6 empty empty empty 0 -6 0 8 #fcfcfc #000000
#000000 1;
#X obj 200 440 gemhead;
#X msg 230 520 1;
#X obj 200 660 square 0.5;
#X obj 360 550 pix_image;
#X obj 370 470 loadbang;
#X obj 360 580 pix_texture;
#X msg 430 550 env \$1;
#X obj 430 530 hradio 15 1 0 6 empty empty empty 0 -6 0 8 #fcfcfc #000000
#000000 1;
#X obj 360 440 gemhead;
#X msg 390 520 1;
#X obj 360 660 square 0.5;
#X obj 520 550 pix_image;
#X obj 530 470 loadbang;
#X obj 520 580 pix_texture;
#X msg 590 550 env \$1;
#X obj 590 530 hradio 15 1 0 6 empty empty empty 0 -6 0 8 #fcfcfc #000000
#000000 1;
#X obj 520 440 gemhead;
#X msg 550 520 1;
#X obj 520 660 square 0.5;
#X msg 50 500 open Art/Ice.png;
#X msg 210 500 open Art/Ice.png;
#X msg 370 500 open Art/Ice.png;
#X msg 530 500 open Art/Ice.png;
#X obj 680 550 pix_image;
#X obj 690 470 loadbang;
#X obj 680 580 pix_texture;
#X msg 750 550 env \$1;
#X obj 750 530 hradio 15 1 0 6 empty empty empty 0 -6 0 8 #fcfcfc #000000
#000000 1;
#X obj 680 440 gemhead;
#X msg 710 520 1;
#X obj 680 660 square 0.5;
#X obj 840 550 pix_image;
#X obj 850 470 loadbang;
#X obj 840 580 pix_texture;
#X msg 910 550 env \$1;
#X obj 910 530 hradio 15 1 0 6 empty empty empty 0 -6 0 8 #fcfcfc #000000
#000000 1;
#X obj 840 440 gemhead;
#X msg 870 520 1;
#X obj 840 660 square 0.5;
#X obj 1000 550 pix_image;
#X obj 1010 470 loadbang;
#X obj 1000 580 pix_texture;
#X msg 1070 550 env \$1;
#X obj 1070 530 hradio 15 1 0 6 empty empty empty 0 -6 0 8 #fcfcfc
#000000 #000000 1;
#X obj 1000 440 gemhead;
#X msg 1030 520 1;
#X obj 1000 660 square 0.5;
#X msg 690 500 open Art/Ice.png;
#X msg 850 500 open Art/Ice.png;
#X msg 1010 500 open Art/Ice.png;
#X obj 40 630 translateXYZ 0 -3 0;
#X obj 200 630 translateXYZ 1 -3 0;
#X obj 520 630 translateXYZ 3 -3 0;
#X obj 680 630 translateXYZ -1 -3 0;
#X obj 840 630 translateXYZ -2 -3 0;
#X obj 360 630 translateXYZ 2 -3 0;
#X obj 1000 630 translateXYZ -3 -3 0;
#X msg 850 -260 open Art/Ice.png;
#X msg 690 -260 open Art/Ice.png;
#X msg 530 -260 open Art/Ice.png;
#X msg 370 -260 open Art/Ice.png;
#X msg 210 -260 open Art/Ice.png;
#X msg 50 -260 open Art/Ice.png;
#X obj 41 -155 colorRGB 1 1 1;
#X obj 200 -155 colorRGB 1 1 1;
#X obj 360 -155 colorRGB 1 1 1;
#X obj 520 -155 colorRGB 1 1 1;
#X obj 680 -155 colorRGB 1 1 1;
#X obj 840 -155 colorRGB 1 1 1;
#X obj 1000 -155 colorRGB 1 1 1;
#X obj 1180 -160 colorRGB 1 1 1;
#X obj 1340 -155 colorRGB 1 1 1;
#X obj 1500 -155 colorRGB 1 1 1;
#X obj 1660 -155 colorRGB 1 1 1;
#X obj 1820 -155 colorRGB 1 1 1;
#X obj 1980 -155 colorRGB 1 1 1;
#X obj 2140 -155 colorRGB 1 1 1;
#X obj 2140 105 colorRGB 1 1 1;
#X obj 1980 105 colorRGB 1 1 1;
#X obj 1820 105 colorRGB 1 1 1;
#X obj 1660 105 colorRGB 1 1 1;
#X obj 1500 105 colorRGB 1 1 1;
#X obj 1340 105 colorRGB 1 1 1;
#X obj 1180 105 colorRGB 1 1 1;
#X obj 1000 105 colorRGB 1 1 1;
#X obj 840 110 colorRGB 1 1 1;
#X obj 680 105 colorRGB 1 1 1;
#X obj 520 105 colorRGB 1 1 1;
#X obj 360 105 colorRGB 1 1 1;
#X obj 200 105 colorRGB 1 1 1;
#X obj 40 105 colorRGB 1 1 1;
#X obj 40 355 colorRGB 1 1 1;
#X obj 40 605 colorRGB 1 1 1;
#X obj 200 605 colorRGB 1 1 1;
#X obj 200 355 colorRGB 1 1 1;
#X obj 360 355 colorRGB 1 1 1;
#X obj 360 605 colorRGB 1 1 1;
#X obj 520 605 colorRGB 1 1 1;
#X obj 520 355 colorRGB 1 1 1;
#X obj 680 355 colorRGB 1 1 1;
#X obj 680 605 colorRGB 1 1 1;
#X obj 840 605 colorRGB 1 1 1;
#X obj 840 355 colorRGB 1 1 1;
#X obj 1000 355 colorRGB 1 1 1;
#X obj 1000 605 colorRGB 1 1 1;
#X obj 1180 355 colorRGB 1 1 1;
#X obj 1340 355 colorRGB 1 1 1;
#X obj 1500 355 colorRGB 1 1 1;
#X obj 1660 355 colorRGB 1 1 1;
#X obj 1820 355 colorRGB 1 1 1;
#X obj 1980 355 colorRGB 1 1 1;
#X connect 0 0 2 0;
#X connect 1 0 490 0;
#X connect 1 0 6 0;
#X connect 2 0 491 0;
#X connect 3 0 2 0;
#X connect 4 0 3 0;
#X connect 4 0 2 0;
#X connect 5 0 0 0;
#X connect 6 0 4 0;
#X connect 8 0 7 0;
#X connect 9 0 11 0;
#X connect 10 0 489 0;
#X connect 10 0 15 0;
#X connect 11 0 492 0;
#X connect 12 0 11 0;
#X connect 13 0 12 0;
#X connect 13 0 11 0;
#X connect 14 0 9 0;
#X connect 15 0 13 0;
#X connect 17 0 16 0;
#X connect 18 0 20 0;
#X connect 19 0 488 0;
#X connect 19 0 24 0;
#X connect 20 0 493 0;
#X connect 21 0 20 0;
#X connect 22 0 21 0;
#X connect 22 0 20 0;
#X connect 23 0 18 0;
#X connect 24 0 22 0;
#X connect 26 0 28 0;
#X connect 27 0 487 0;
#X connect 27 0 32 0;
#X connect 28 0 494 0;
#X connect 29 0 28 0;
#X connect 30 0 29 0;
#X connect 30 0 28 0;
#X connect 31 0 26 0;
#X connect 32 0 30 0;
#X connect 34 0 25 0;
#X connect 35 0 33 0;
#X connect 36 0 38 0;
#X connect 37 0 68 0;
#X connect 37 0 42 0;
#X connect 38 0 518 0;
#X connect 39 0 38 0;
#X connect 40 0 39 0;
#X connect 40 0 38 0;
#X connect 41 0 36 0;
#X connect 42 0 40 0;
#X connect 44 0 46 0;
#X connect 45 0 69 0;
#X connect 45 0 50 0;
#X connect 46 0 517 0;
#X connect 47 0 46 0;
#X connect 48 0 47 0;
#X connect 48 0 46 0;
#X connect 49 0 44 0;
#X connect 50 0 48 0;
#X connect 52 0 54 0;
#X connect 53 0 70 0;
#X connect 53 0 58 0;
#X connect 54 0 516 0;
#X connect 55 0 54 0;
#X connect 56 0 55 0;
#X connect 56 0 54 0;
#X connect 57 0 52 0;
#X connect 58 0 56 0;
#X connect 60 0 62 0;
#X connect 61 0 71 0;
#X connect 61 0 66 0;
#X connect 62 0 515 0;
#X connect 63 0 62 0;
#X connect 64 0 63 0;
#X connect 64 0 62 0;
#X connect 65 0 60 0;
#X connect 66 0 64 0;
#X connect 68 0 36 0;
#X connect 69 0 44 0;
#X connect 70 0 52 0;
#X connect 71 0 60 0;
#X connect 72 0 74 0;
#X connect 73 0 486 0;
#X connect 73 0 78 0;
#X connect 74 0 495 0;
#X connect 75 0 74 0;
#X connect 76 0 75 0;
#X connect 76 0 74 0;
#X connect 77 0 72 0;
#X connect 78 0 76 0;
#X connect 80 0 82 0;
#X connect 81 0 485 0;
#X connect 81 0 86 0;
#X connect 82 0 496 0;
#X connect 83 0 82 0;
#X connect 84 0 83 0;
#X connect 84 0 82 0;
#X connect 85 0 80 0;
#X connect 86 0 84 0;
#X connect 88 0 90 0;
#X connect 89 0 96 0;
#X connect 89 0 94 0;
#X connect 90 0 497 0;
#X connect 91 0 90 0;
#X connect 92 0 91 0;
#X connect 92 0 90 0;
#X connect 93 0 88 0;
#X connect 94 0 92 0;
#X connect 96 0 88 0;
#X connect 97 0 79 0;
#X connect 98 0 87 0;
#X connect 99 0 95 0;
#X connect 100 0 43 0;
#X connect 101 0 51 0;
#X connect 102 0 59 0;
#X connect 103 0 67 0;
#X connect 104 0 106 0;
#X connect 105 0 128 0;
#X connect 105 0 110 0;
#X connect 106 0 514 0;
#X connect 107 0 106 0;
#X connect 108 0 107 0;
#X connect 108 0 106 0;
#X connect 109 0 104 0;
#X connect 110 0 108 0;
#X connect 112 0 114 0;
#X connect 113 0 129 0;
#X connect 113 0 118 0;
#X connect 114 0 513 0;
#X connect 115 0 114 0;
#X connect 116 0 115 0;
#X connect 116 0 114 0;
#X connect 117 0 112 0;
#X connect 118 0 116 0;
#X connect 120 0 122 0;
#X connect 121 0 130 0;
#X connect 121 0 126 0;
#X connect 122 0 512 0;
#X connect 123 0 122 0;
#X connect 124 0 123 0;
#X connect 124 0 122 0;
#X connect 125 0 120 0;
#X connect 126 0 124 0;
#X connect 128 0 104 0;
#X connect 129 0 112 0;
#X connect 130 0 120 0;
#X connect 131 0 111 0;
#X connect 132 0 119 0;
#X connect 133 0 127 0;
#X connect 134 0 136 0;
#X connect 135 0 166 0;
#X connect 135 0 140 0;
#X connect 136 0 519 0;
#X connect 137 0 136 0;
#X connect 138 0 137 0;
#X connect 138 0 136 0;
#X connect 139 0 134 0;
#X connect 140 0 138 0;
#X connect 142 0 144 0;
#X connect 143 0 167 0;
#X connect 143 0 148 0;
#X connect 144 0 522 0;
#X connect 145 0 144 0;
#X connect 146 0 145 0;
#X connect 146 0 144 0;
#X connect 147 0 142 0;
#X connect 148 0 146 0;
#X connect 150 0 152 0;
#X connect 151 0 168 0;
#X connect 151 0 156 0;
#X connect 152 0 523 0;
#X connect 153 0 152 0;
#X connect 154 0 153 0;
#X connect 154 0 152 0;
#X connect 155 0 150 0;
#X connect 156 0 154 0;
#X connect 158 0 160 0;
#X connect 159 0 169 0;
#X connect 159 0 164 0;
#X connect 160 0 526 0;
#X connect 161 0 160 0;
#X connect 162 0 161 0;
#X connect 162 0 160 0;
#X connect 163 0 158 0;
#X connect 164 0 162 0;
#X connect 166 0 134 0;
#X connect 167 0 142 0;
#X connect 168 0 150 0;
#X connect 169 0 158 0;
#X connect 170 0 172 0;
#X connect 171 0 194 0;
#X connect 171 0 176 0;
#X connect 172 0 527 0;
#X connect 173 0 172 0;
#X connect 174 0 173 0;
#X connect 174 0 172 0;
#X connect 175 0 170 0;
#X connect 176 0 174 0;
#X connect 178 0 180 0;
#X connect 179 0 195 0;
#X connect 179 0 184 0;
#X connect 180 0 530 0;
#X connect 181 0 180 0;
#X connect 182 0 181 0;
#X connect 182 0 180 0;
#X connect 183 0 178 0;
#X connect 184 0 182 0;
#X connect 186 0 188 0;
#X connect 187 0 196 0;
#X connect 187 0 192 0;
#X connect 188 0 531 0;
#X connect 189 0 188 0;
#X connect 190 0 189 0;
#X connect 190 0 188 0;
#X connect 191 0 186 0;
#X connect 192 0 190 0;
#X connect 194 0 170 0;
#X connect 195 0 178 0;
#X connect 196 0 186 0;
#X connect 197 0 141 0;
#X connect 198 0 149 0;
#X connect 199 0 157 0;
#X connect 200 0 165 0;
#X connect 201 0 177 0;
#X connect 202 0 185 0;
#X connect 203 0 193 0;
#X connect 204 0 206 0;
#X connect 205 0 236 0;
#X connect 205 0 210 0;
#X connect 206 0 498 0;
#X connect 207 0 206 0;
#X connect 208 0 207 0;
#X connect 208 0 206 0;
#X connect 209 0 204 0;
#X connect 210 0 208 0;
#X connect 212 0 214 0;
#X connect 213 0 237 0;
#X connect 213 0 218 0;
#X connect 214 0 499 0;
#X connect 215 0 214 0;
#X connect 216 0 215 0;
#X connect 216 0 214 0;
#X connect 217 0 212 0;
#X connect 218 0 216 0;
#X connect 220 0 222 0;
#X connect 221 0 238 0;
#X connect 221 0 226 0;
#X connect 222 0 500 0;
#X connect 223 0 222 0;
#X connect 224 0 223 0;
#X connect 224 0 222 0;
#X connect 225 0 220 0;
#X connect 226 0 224 0;
#X connect 228 0 230 0;
#X connect 229 0 239 0;
#X connect 229 0 234 0;
#X connect 230 0 501 0;
#X connect 231 0 230 0;
#X connect 232 0 231 0;
#X connect 232 0 230 0;
#X connect 233 0 228 0;
#X connect 234 0 232 0;
#X connect 236 0 204 0;
#X connect 237 0 212 0;
#X connect 238 0 220 0;
#X connect 239 0 228 0;
#X connect 240 0 242 0;
#X connect 241 0 264 0;
#X connect 241 0 246 0;
#X connect 242 0 502 0;
#X connect 243 0 242 0;
#X connect 244 0 243 0;
#X connect 244 0 242 0;
#X connect 245 0 240 0;
#X connect 246 0 244 0;
#X connect 248 0 250 0;
#X connect 249 0 265 0;
#X connect 249 0 254 0;
#X connect 250 0 503 0;
#X connect 251 0 250 0;
#X connect 252 0 251 0;
#X connect 252 0 250 0;
#X connect 253 0 248 0;
#X connect 254 0 252 0;
#X connect 256 0 258 0;
#X connect 257 0 266 0;
#X connect 257 0 262 0;
#X connect 258 0 504 0;
#X connect 259 0 258 0;
#X connect 260 0 259 0;
#X connect 260 0 258 0;
#X connect 261 0 256 0;
#X connect 262 0 260 0;
#X connect 264 0 240 0;
#X connect 265 0 248 0;
#X connect 266 0 256 0;
#X connect 267 0 269 0;
#X connect 268 0 299 0;
#X connect 268 0 273 0;
#X connect 269 0 511 0;
#X connect 270 0 269 0;
#X connect 271 0 270 0;
#X connect 271 0 269 0;
#X connect 272 0 267 0;
#X connect 273 0 271 0;
#X connect 275 0 277 0;
#X connect 276 0 300 0;
#X connect 276 0 281 0;
#X connect 277 0 510 0;
#X connect 278 0 277 0;
#X connect 279 0 278 0;
#X connect 279 0 277 0;
#X connect 280 0 275 0;
#X connect 281 0 279 0;
#X connect 283 0 285 0;
#X connect 284 0 301 0;
#X connect 284 0 289 0;
#X connect 285 0 509 0;
#X connect 286 0 285 0;
#X connect 287 0 286 0;
#X connect 287 0 285 0;
#X connect 288 0 283 0;
#X connect 289 0 287 0;
#X connect 291 0 293 0;
#X connect 292 0 302 0;
#X connect 292 0 297 0;
#X connect 293 0 508 0;
#X connect 294 0 293 0;
#X connect 295 0 294 0;
#X connect 295 0 293 0;
#X connect 296 0 291 0;
#X connect 297 0 295 0;
#X connect 299 0 267 0;
#X connect 300 0 275 0;
#X connect 301 0 283 0;
#X connect 302 0 291 0;
#X connect 303 0 305 0;
#X connect 304 0 327 0;
#X connect 304 0 309 0;
#X connect 305 0 507 0;
#X connect 306 0 305 0;
#X connect 307 0 306 0;
#X connect 307 0 305 0;
#X connect 308 0 303 0;
#X connect 309 0 307 0;
#X connect 311 0 313 0;
#X connect 312 0 328 0;
#X connect 312 0 317 0;
#X connect 313 0 506 0;
#X connect 314 0 313 0;
#X connect 315 0 314 0;
#X connect 315 0 313 0;
#X connect 316 0 311 0;
#X connect 317 0 315 0;
#X connect 319 0 321 0;
#X connect 320 0 329 0;
#X connect 320 0 325 0;
#X connect 321 0 505 0;
#X connect 322 0 321 0;
#X connect 323 0 322 0;
#X connect 323 0 321 0;
#X connect 324 0 319 0;
#X connect 325 0 323 0;
#X connect 327 0 303 0;
#X connect 328 0 311 0;
#X connect 329 0 319 0;
#X connect 330 0 332 0;
#X connect 331 0 362 0;
#X connect 331 0 336 0;
#X connect 332 0 533 0;
#X connect 333 0 332 0;
#X connect 334 0 333 0;
#X connect 334 0 332 0;
#X connect 335 0 330 0;
#X connect 336 0 334 0;
#X connect 338 0 340 0;
#X connect 339 0 363 0;
#X connect 339 0 344 0;
#X connect 340 0 534 0;
#X connect 341 0 340 0;
#X connect 342 0 341 0;
#X connect 342 0 340 0;
#X connect 343 0 338 0;
#X connect 344 0 342 0;
#X connect 346 0 348 0;
#X connect 347 0 364 0;
#X connect 347 0 352 0;
#X connect 348 0 535 0;
#X connect 349 0 348 0;
#X connect 350 0 349 0;
#X connect 350 0 348 0;
#X connect 351 0 346 0;
#X connect 352 0 350 0;
#X connect 354 0 356 0;
#X connect 355 0 365 0;
#X connect 355 0 360 0;
#X connect 356 0 536 0;
#X connect 357 0 356 0;
#X connect 358 0 357 0;
#X connect 358 0 356 0;
#X connect 359 0 354 0;
#X connect 360 0 358 0;
#X connect 362 0 330 0;
#X connect 363 0 338 0;
#X connect 364 0 346 0;
#X connect 365 0 354 0;
#X connect 366 0 368 0;
#X connect 367 0 391 0;
#X connect 367 0 372 0;
#X connect 368 0 537 0;
#X connect 369 0 368 0;
#X connect 370 0 369 0;
#X connect 370 0 368 0;
#X connect 371 0 366 0;
#X connect 372 0 370 0;
#X connect 374 0 376 0;
#X connect 375 0 392 0;
#X connect 375 0 380 0;
#X connect 376 0 538 0;
#X connect 377 0 376 0;
#X connect 378 0 377 0;
#X connect 378 0 376 0;
#X connect 379 0 374 0;
#X connect 380 0 378 0;
#X connect 382 0 384 0;
#X connect 383 0 393 0;
#X connect 383 0 389 0;
#X connect 384 0 388 0;
#X connect 385 0 384 0;
#X connect 386 0 385 0;
#X connect 386 0 384 0;
#X connect 387 0 382 0;
#X connect 388 0 414 0;
#X connect 389 0 386 0;
#X connect 391 0 366 0;
#X connect 392 0 374 0;
#X connect 393 0 382 0;
#X connect 394 0 211 0;
#X connect 395 0 219 0;
#X connect 396 0 227 0;
#X connect 397 0 235 0;
#X connect 398 0 247 0;
#X connect 399 0 255 0;
#X connect 400 0 263 0;
#X connect 401 0 326 0;
#X connect 402 0 318 0;
#X connect 403 0 310 0;
#X connect 404 0 298 0;
#X connect 405 0 290 0;
#X connect 406 0 282 0;
#X connect 407 0 274 0;
#X connect 408 0 337 0;
#X connect 409 0 345 0;
#X connect 410 0 353 0;
#X connect 411 0 361 0;
#X connect 412 0 373 0;
#X connect 413 0 381 0;
#X connect 414 0 390 0;
#X connect 415 0 417 0;
#X connect 416 0 447 0;
#X connect 416 0 421 0;
#X connect 417 0 520 0;
#X connect 418 0 417 0;
#X connect 419 0 418 0;
#X connect 419 0 417 0;
#X connect 420 0 415 0;
#X connect 421 0 419 0;
#X connect 423 0 425 0;
#X connect 424 0 448 0;
#X connect 424 0 429 0;
#X connect 425 0 521 0;
#X connect 426 0 425 0;
#X connect 427 0 426 0;
#X connect 427 0 425 0;
#X connect 428 0 423 0;
#X connect 429 0 427 0;
#X connect 431 0 433 0;
#X connect 432 0 449 0;
#X connect 432 0 437 0;
#X connect 433 0 524 0;
#X connect 434 0 433 0;
#X connect 435 0 434 0;
#X connect 435 0 433 0;
#X connect 436 0 431 0;
#X connect 437 0 435 0;
#X connect 439 0 441 0;
#X connect 440 0 450 0;
#X connect 440 0 445 0;
#X connect 441 0 525 0;
#X connect 442 0 441 0;
#X connect 443 0 442 0;
#X connect 443 0 441 0;
#X connect 444 0 439 0;
#X connect 445 0 443 0;
#X connect 447 0 415 0;
#X connect 448 0 423 0;
#X connect 449 0 431 0;
#X connect 450 0 439 0;
#X connect 451 0 453 0;
#X connect 452 0 475 0;
#X connect 452 0 457 0;
#X connect 453 0 528 0;
#X connect 454 0 453 0;
#X connect 455 0 454 0;
#X connect 455 0 453 0;
#X connect 456 0 451 0;
#X connect 457 0 455 0;
#X connect 459 0 461 0;
#X connect 460 0 476 0;
#X connect 460 0 465 0;
#X connect 461 0 529 0;
#X connect 462 0 461 0;
#X connect 463 0 462 0;
#X connect 463 0 461 0;
#X connect 464 0 459 0;
#X connect 465 0 463 0;
#X connect 467 0 469 0;
#X connect 468 0 477 0;
#X connect 468 0 473 0;
#X connect 469 0 532 0;
#X connect 470 0 469 0;
#X connect 471 0 470 0;
#X connect 471 0 469 0;
#X connect 472 0 467 0;
#X connect 473 0 471 0;
#X connect 475 0 451 0;
#X connect 476 0 459 0;
#X connect 477 0 467 0;
#X connect 478 0 422 0;
#X connect 479 0 430 0;
#X connect 480 0 446 0;
#X connect 481 0 458 0;
#X connect 482 0 466 0;
#X connect 483 0 438 0;
#X connect 484 0 474 0;
#X connect 485 0 80 0;
#X connect 486 0 72 0;
#X connect 487 0 26 0;
#X connect 488 0 18 0;
#X connect 489 0 9 0;
#X connect 490 0 0 0;
#X connect 491 0 8 0;
#X connect 492 0 17 0;
#X connect 493 0 34 0;
#X connect 494 0 35 0;
#X connect 495 0 97 0;
#X connect 496 0 98 0;
#X connect 497 0 99 0;
#X connect 498 0 394 0;
#X connect 499 0 395 0;
#X connect 500 0 396 0;
#X connect 501 0 397 0;
#X connect 502 0 398 0;
#X connect 503 0 399 0;
#X connect 504 0 400 0;
#X connect 505 0 401 0;
#X connect 506 0 402 0;
#X connect 507 0 403 0;
#X connect 508 0 404 0;
#X connect 509 0 405 0;
#X connect 510 0 406 0;
#X connect 511 0 407 0;
#X connect 512 0 133 0;
#X connect 513 0 132 0;
#X connect 514 0 131 0;
#X connect 515 0 103 0;
#X connect 516 0 102 0;
#X connect 517 0 101 0;
#X connect 518 0 100 0;
#X connect 519 0 197 0;
#X connect 520 0 478 0;
#X connect 521 0 479 0;
#X connect 522 0 198 0;
#X connect 523 0 199 0;
#X connect 524 0 483 0;
#X connect 525 0 480 0;
#X connect 526 0 200 0;
#X connect 527 0 201 0;
#X connect 528 0 481 0;
#X connect 529 0 482 0;
#X connect 530 0 202 0;
#X connect 531 0 203 0;
#X connect 532 0 484 0;
#X connect 533 0 408 0;
#X connect 534 0 409 0;
#X connect 535 0 410 0;
#X connect 536 0 411 0;
#X connect 537 0 412 0;
#X connect 538 0 413 0;
#X restore 20 90 pd Background;
#X connect 1 0 0 0;
#X connect 2 0 0 0;
