#N canvas 865 264 450 382 10;
#X obj 112 291 <= 1;
#X obj 112 89 list-map2;
#X obj 192 90 -;
#X obj 192 137 *;
#X obj 192 113 t a a;
#X obj 112 194 sqrt;
#X obj 112 164 list-reduce;
#X obj 196 164 +;
#X obj 120 270 t b a;
#X obj 141 28 inlet reference;
#X obj 112 4 inlet test;
#X obj 315 119 inlet radius;
#X obj 112 318 outlet;
#X obj 141 52 t b a;
#X connect 0 0 12 0;
#X connect 1 0 6 0;
#X connect 1 1 2 0;
#X connect 2 0 4 0;
#X connect 3 0 1 2;
#X connect 4 0 3 0;
#X connect 4 1 3 1;
#X connect 5 0 0 0;
#X connect 6 0 5 0;
#X connect 6 1 7 0;
#X connect 7 0 6 1;
#X connect 8 0 0 0;
#X connect 8 1 0 1;
#X connect 9 0 13 0;
#X connect 10 0 1 0;
#X connect 11 0 8 0;
#X connect 13 0 1 0;
#X connect 13 1 1 1;
