#N canvas 168 305 451 301 10;
#X obj 94 121 list-map2;
#X obj 189 120 -;
#X obj 189 145 abs;
#X obj 189 177 <= 1;
#X obj 123 47 inlet reference;
#X obj 237 22 inlet radius;
#X obj 94 202 list-reduce;
#X obj 180 202 &&;
#X obj 94 22 inlet test;
#X obj 94 234 outlet;
#X obj 237 65 t b a;
#X connect 0 0 6 0;
#X connect 0 1 1 0;
#X connect 1 0 2 0;
#X connect 2 0 3 0;
#X connect 3 0 0 2;
#X connect 4 0 0 1;
#X connect 5 0 10 0;
#X connect 6 0 9 0;
#X connect 6 1 7 0;
#X connect 7 0 6 1;
#X connect 8 0 0 0;
#X connect 10 0 0 0;
#X connect 10 1 3 1;
