#N canvas 64 284 650 442 10;
#X obj 200 224 osc~ 440;
#X obj 200 421 dac~;
#X floatatom 268 224 5 0 0 0 - - -, f 5;
#X obj 268 254 osc~;
#X obj 268 284 *~ 0.75;
#X floatatom 200 111 5 0 0 0 - - -, f 5;
#X floatatom 342 223 5 0 0 0 - - -, f 5;
#X obj 342 253 osc~;
#X floatatom 420 223 5 0 0 0 - - -, f 5;
#X obj 420 253 osc~;
#X floatatom 492 223 5 0 0 0 - - -, f 5;
#X obj 492 253 osc~;
#X obj 490 194 * 5;
#X obj 342 283 *~ 0.5;
#X obj 420 284 *~ 0.35;
#X obj 492 283 *~ 0.25;
#X msg 260 91 440, f 4;
#X obj 200 361 *~ 0.1;
#X obj 210 50 bng 19 250 50 0 empty empty empty 17 7 0 10 #fcfcfc #000000
#000000;
#X obj 550 20;
#X floatatom 492 223 5 0 0 0 - - -, f 5;
#X obj 492 253 osc~;
#X obj 420 284 *~ 0.35;
#X obj 492 283 *~ 0.25;
#X floatatom 560 222 5 0 0 0 - - -, f 5;
#X obj 560 252 osc~;
#X obj 558 193 * 5;
#X obj 560 282 *~ 0.25;
#X floatatom 560 222 5 0 0 0 - - -, f 5;
#X obj 560 252 osc~;
#X obj 560 282 *~ 0.2;
#X obj 270 193 * 2;
#X obj 420 193 * 4;
#X obj 558 193 * 6;
#X obj 342 193 * 3;
#X obj 490 194 * 5;
#X connect 0 0 17 0;
#X connect 2 0 3 0;
#X connect 3 0 4 0;
#X connect 4 0 17 0;
#X connect 5 0 0 0;
#X connect 5 0 12 0;
#X connect 5 0 31 0;
#X connect 5 0 32 0;
#X connect 5 0 33 0;
#X connect 5 0 34 0;
#X connect 6 0 7 0;
#X connect 7 0 13 0;
#X connect 8 0 9 0;
#X connect 9 0 14 0;
#X connect 10 0 11 0;
#X connect 11 0 15 0;
#X connect 12 0 10 0;
#X connect 13 0 17 0;
#X connect 14 0 17 0;
#X connect 15 0 17 0;
#X connect 16 0 5 0;
#X connect 17 0 1 0;
#X connect 17 0 1 1;
#X connect 18 0 16 0;
#X connect 20 0 21 0;
#X connect 21 0 23 0;
#X connect 24 0 25 0;
#X connect 25 0 27 0;
#X connect 26 0 24 0;
#X connect 28 0 29 0;
#X connect 29 0 30 0;
#X connect 30 0 17 0;
#X connect 31 0 2 0;
#X connect 32 0 8 0;
#X connect 33 0 28 0;
#X connect 34 0 6 0;
#X connect 35 0 20 0;
