#N canvas 696 156 801 592 10;
#X obj 40 60 loadbang;
#X msg 40 85 60000;
#X obj 110 60 loadbang;
#X msg 110 85 60;
#X floatatom 110 110 5 0 0 0 - - -, f 5;
#X obj 90 140 bng 15 250 50 0 empty empty empty 17 7 0 10 #fcfcfc #000000
#000000;
#X obj 90 190 /;
#X floatatom 90 220 5 0 0 0 - - -, f 5;
#X obj 90 244 send 4th_time;
#X obj 10 350 receive ON;
#X obj 110 350 receive 4th_time;
#X obj 110 375 * 4;
#X floatatom 110 400 5 0 0 0 - - -, f 5;
#X obj 70 430 metro;
#X obj 120 430 send whole_time;
#X obj 70 455 bng 15 250 50 0 empty empty empty 17 7 0 10 #fcfcfc #000000
#000000;
#X obj 70 478 send whole_note;
#X obj 220 350 receive ON;
#X obj 320 350 receive 4th_time;
#X floatatom 320 400 5 0 0 0 - - -, f 5;
#X obj 280 430 metro;
#X obj 280 455 bng 15 250 50 0 empty empty empty 17 7 0 10 #fcfcfc
#000000 #000000;
#X obj 320 375 * 1;
#X obj 280 478 send 4th_note;
#X obj 220 50 tgl 15 0 empty empty empty 17 7 0 10 #fcfcfc #000000
#000000 0 1;
#X obj 220 73 send ON;
#X obj 280 45 loadbang;
#X obj 340 15 receive ON;
#X obj 340 40 sel 0;
#X obj 340 75 bng 15 250 50 0 empty empty empty 17 7 0 10 #fcfcfc #000000
#000000;
#X msg 340 98 -1;
#X obj 390 65 receive whole_note;
#X obj 390 90 bng 15 250 50 0 empty empty empty 17 7 0 10 #fcfcfc #000000
#000000;
#X obj 390 135 int 1;
#X obj 440 165 + 1;
#X floatatom 390 175 5 0 0 0 - - -, f 5;
#X obj 390 199 % 2;
#X obj 390 224 + 1;
#X obj 390 249 sel 1;
#X obj 390 274 bng 15 250 50 0 empty empty empty 17 7 0 10 #fcfcfc
#000000 #000000;
#X obj 390 297 tgl 15 0 empty empty empty 17 7 0 10 #fcfcfc #000000
#000000 1 1;
#X obj 390 320 send Chord;
#X obj 280 215 receive ON;
#X obj 330 235 loadbang;
#X obj 280 240 sel 0;
#X msg 330 265 1;
#X obj 540 50 r Chord;
#X obj 540 75 tgl 15 0 empty empty empty 17 7 0 10 #fcfcfc #000000
#000000 1 1;
#X obj 540 98 sel 0;
#X obj 540 123 bng 15 250 50 0 empty empty empty 17 7 0 10 #fcfcfc
#000000 #000000;
#X obj 570 130 bng 15 250 50 0 empty empty empty 17 7 0 10 #fcfcfc
#000000 #000000;
#X msg 540 170 130.81;
#X msg 590 170 87.31;
#X floatatom 540 210 5 0 0 0 - - -, f 5;
#X obj 540 234 phasor~;
#X obj 540 259 lop~ 100;
#X obj 540 284 *~;
#X obj 540 320 send~ Bass;
#X obj 650 120 receive ON;
#X obj 650 145 sel 1;
#X obj 650 170 bng 15 250 50 0 empty empty empty 17 7 0 10 #fcfcfc
#000000 #000000;
#X msg 650 193 1 500;
#X obj 650 280 line;
#X obj 730 120 receive whole_time;
#X obj 730 145 * 2;
#X floatatom 730 170 5 0 0 0 - - -, f 5;
#X obj 730 194 - 100;
#X obj 790 170 receive ON;
#X obj 790 195 sel 0;
#X obj 790 220 delay 5;
#X obj 710 230 delay;
#X msg 710 255 0 100;
#X obj 530 400 r whole_note;
#X obj 530 425 bng 15 250 50 0 empty empty empty 17 7 0 10 #fcfcfc
#000000 #000000;
#N canvas 803 121 451 406 Chord_Scales 0;
#X obj 180 20 inlet;
#X obj 180 45 bng 15 250 50 0 empty empty empty 17 7 0 10 #fcfcfc #000000
#000000;
#X obj 180 68 random 8;
#X floatatom 180 93 5 0 0 0 - - -, f 5;
#X obj 140 150 sel 0 1 2 3 4 5 6 7;
#X msg 110 200 60;
#X msg 140 200 62;
#X msg 168 200 64;
#X msg 200 200 65;
#X msg 230 200 67;
#X msg 260 200 69;
#X msg 290 200 71;
#X msg 320 200 72;
#X floatatom 190 230 5 0 0 0 - - -, f 5;
#X obj 190 254 mtof;
#X floatatom 190 279 5 0 0 0 - - -, f 5;
#X obj 190 303 outlet;
#X connect 0 0 1 0;
#X connect 1 0 2 0;
#X connect 2 0 3 0;
#X connect 3 0 4 0;
#X connect 4 0 5 0;
#X connect 4 1 6 0;
#X connect 4 2 7 0;
#X connect 4 3 8 0;
#X connect 4 4 9 0;
#X connect 4 5 10 0;
#X connect 4 6 11 0;
#X connect 4 7 12 0;
#X connect 5 0 13 0;
#X connect 6 0 13 0;
#X connect 7 0 13 0;
#X connect 8 0 13 0;
#X connect 9 0 13 0;
#X connect 10 0 13 0;
#X connect 11 0 13 0;
#X connect 12 0 13 0;
#X connect 13 0 14 0;
#X connect 14 0 15 0;
#X connect 15 0 16 0;
#X restore 530 450 pd Chord_Scales;
#X floatatom 570 480 5 0 0 0 - - -, f 5;
#X obj 570 514 phasor~;
#X obj 570 539 lop~ 100;
#X obj 570 564 *~;
#X obj 570 589 *~ 0.5;
#X obj 570 610 send~ Ambient_Pad;
#X obj 650 480 * 1.001;
#X floatatom 650 505 5 0 0 0 - - -, f 5;
#X obj 650 529 phasor~;
#X obj 730 440 bng 15 250 50 0 empty empty empty 17 7 0 10 #fcfcfc
#000000 #000000;
#X msg 730 500 1 500;
#X obj 730 550 line;
#X obj 780 500 delay;
#X msg 780 530 0 500;
#X obj 800 420 receive whole_time;
#X floatatom 800 445 5 0 0 0 - - -, f 5;
#X obj 870 450 receive ON;
#X obj 870 475 sel 0;
#X obj 870 500 delay 5;
#X obj 800 469 - 500;
#X obj 30 550 receive~ Bass;
#X obj 130 550 receive~ Ambient_Pad;
#X obj 280 550 loadbang;
#X obj 340 550 loadbang;
#X obj 400 550 loadbang;
#X msg 280 575 1;
#X msg 340 575 0.5;
#X msg 400 575 0.95;
#X msg 280 600 wet \$1;
#X msg 340 600 dry \$1;
#X msg 400 600 roomsize \$1;
#X obj 120 600 freeverb~;
#X obj 120 640 *~ 0.5;
#X obj 170 640 *~ 0.5;
#X obj 120 665 dac~;
#X connect 0 0 1 0;
#X connect 1 0 6 0;
#X connect 2 0 3 0;
#X connect 3 0 4 0;
#X connect 4 0 5 0;
#X connect 4 0 6 1;
#X connect 5 0 6 0;
#X connect 6 0 7 0;
#X connect 7 0 8 0;
#X connect 9 0 13 0;
#X connect 10 0 11 0;
#X connect 11 0 12 0;
#X connect 12 0 13 1;
#X connect 12 0 14 0;
#X connect 13 0 15 0;
#X connect 15 0 16 0;
#X connect 17 0 20 0;
#X connect 18 0 22 0;
#X connect 19 0 20 1;
#X connect 20 0 21 0;
#X connect 21 0 23 0;
#X connect 22 0 19 0;
#X connect 24 0 25 0;
#X connect 26 0 29 0;
#X connect 27 0 28 0;
#X connect 28 0 29 0;
#X connect 29 0 30 0;
#X connect 30 0 33 0;
#X connect 31 0 32 0;
#X connect 32 0 33 0;
#X connect 33 0 34 0;
#X connect 33 0 35 0;
#X connect 34 0 33 1;
#X connect 35 0 36 0;
#X connect 36 0 37 0;
#X connect 37 0 38 0;
#X connect 38 0 39 0;
#X connect 39 0 40 0;
#X connect 40 0 41 0;
#X connect 42 0 44 0;
#X connect 43 0 45 0;
#X connect 44 0 45 0;
#X connect 45 0 40 0;
#X connect 46 0 47 0;
#X connect 47 0 48 0;
#X connect 48 0 49 0;
#X connect 48 1 50 0;
#X connect 49 0 51 0;
#X connect 50 0 52 0;
#X connect 51 0 53 0;
#X connect 52 0 53 0;
#X connect 53 0 54 0;
#X connect 54 0 55 0;
#X connect 55 0 56 0;
#X connect 56 0 57 0;
#X connect 58 0 59 0;
#X connect 59 0 60 0;
#X connect 60 0 61 0;
#X connect 61 0 62 0;
#X connect 62 0 56 1;
#X connect 63 0 64 0;
#X connect 64 0 65 0;
#X connect 65 0 66 0;
#X connect 66 0 70 0;
#X connect 67 0 68 0;
#X connect 68 0 69 0;
#X connect 69 0 71 0;
#X connect 70 0 71 0;
#X connect 71 0 62 0;
#X connect 72 0 73 0;
#X connect 72 0 84 0;
#X connect 73 0 74 0;
#X connect 74 0 75 0;
#X connect 75 0 76 0;
#X connect 75 0 81 0;
#X connect 76 0 77 0;
#X connect 77 0 78 0;
#X connect 78 0 79 0;
#X connect 79 0 80 0;
#X connect 81 0 82 0;
#X connect 82 0 83 0;
#X connect 83 0 77 0;
#X connect 84 0 85 0;
#X connect 84 0 87 0;
#X connect 85 0 86 0;
#X connect 86 0 78 1;
#X connect 87 0 88 0;
#X connect 88 0 86 0;
#X connect 89 0 90 0;
#X connect 90 0 94 0;
#X connect 91 0 92 0;
#X connect 92 0 93 0;
#X connect 93 0 88 0;
#X connect 94 0 87 1;
#X connect 95 0 107 0;
#X connect 95 0 108 0;
#X connect 96 0 106 0;
#X connect 96 0 106 1;
#X connect 97 0 100 0;
#X connect 98 0 101 0;
#X connect 99 0 102 0;
#X connect 100 0 103 0;
#X connect 101 0 104 0;
#X connect 102 0 105 0;
#X connect 103 0 106 0;
#X connect 104 0 106 0;
#X connect 105 0 106 0;
#X connect 106 0 107 0;
#X connect 106 1 108 0;
#X connect 107 0 109 0;
#X connect 108 0 109 1;
