#N canvas 77 217 604 461 10;
#X msg 70 40 create \, 1;
#X obj 70 110 gemwin;
#X msg 90 60 0 \, destroy;
#X msg 110 80 dimen 640 480;
#X obj 180 190 gemhead;
#X obj 180 250 colorRGB;
#X floatatom 200 210 5 0 0 0 - - -, f 5;
#X floatatom 240 210 5 0 0 0 - - -, f 5;
#X obj 180 420 sphere;
#X floatatom 290 210 5 0 0 0 - - -, f 5;
#X obj 180 310 scaleXYZ;
#X obj 180 370 rotateXYZ;
#X floatatom 210 280 5 0 0 0 - - -, f 5;
#X floatatom 200 340 5 0 0 0 - - -, f 5;
#X floatatom 240 340 5 0 0 0 - - -, f 5;
#X floatatom 280 340 5 0 0 0 - - -, f 5;
#X obj 100 340 loadbang;
#X msg 100 370 draw line;
#X connect 0 0 1 0;
#X connect 2 0 1 0;
#X connect 3 0 1 0;
#X connect 4 0 5 0;
#X connect 5 0 10 0;
#X connect 6 0 5 1;
#X connect 7 0 5 2;
#X connect 9 0 5 3;
#X connect 10 0 11 0;
#X connect 11 0 8 0;
#X connect 12 0 10 1;
#X connect 12 0 10 2;
#X connect 12 0 10 3;
#X connect 13 0 11 1;
#X connect 14 0 11 2;
#X connect 15 0 11 3;
#X connect 16 0 17 0;
#X connect 17 0 8 0;
